<svg xmlns="http://www.w3.org/2000/svg" xmlns:xlink="http://www.w3.org/1999/xlink" width="84" zoomAndPan="magnify" viewBox="0 0 63 62.999997" height="84" preserveAspectRatio="xMidYMid meet" version="1.2"><defs><clipPath id="8752bedc05"><path d="M 1.496094 2.285156 L 61.496094 2.285156 L 61.496094 60.785156 L 1.496094 60.785156 Z M 1.496094 2.285156 "/></clipPath></defs><g id="da63b6050d"><g clip-rule="nonzero" clip-path="url(#8752bedc05)"><path style=" stroke:none;fill-rule:evenodd;fill:#ffbf39;fill-opacity:1;" d="M 55.800781 49.480469 C 55.800781 49.984375 55.394531 50.390625 54.890625 50.390625 L 45.042969 50.390625 C 44.546875 50.390625 44.140625 49.984375 44.140625 49.480469 C 44.140625 48.980469 44.546875 48.570312 45.042969 48.570312 L 54.890625 48.570312 C 55.394531 48.570312 55.800781 48.980469 55.800781 49.480469 Z M 44.425781 45.652344 C 44.746094 45.269531 44.699219 44.695312 44.316406 44.375 C 43.925781 44.050781 43.359375 44.097656 43.03125 44.488281 L 39.027344 49.265625 L 37.003906 46.882812 C 36.683594 46.5 36.109375 46.457031 35.726562 46.777344 C 35.34375 47.105469 35.296875 47.679688 35.621094 48.0625 L 38.335938 51.261719 C 38.707031 51.695312 39.378906 51.6875 39.730469 51.261719 Z M 55.800781 39.273438 C 55.800781 39.773438 55.394531 40.1875 54.890625 40.1875 L 45.042969 40.1875 C 44.546875 40.1875 44.140625 39.773438 44.140625 39.273438 C 44.140625 38.769531 44.546875 38.363281 45.042969 38.363281 L 54.890625 38.363281 C 55.394531 38.363281 55.800781 38.769531 55.800781 39.273438 Z M 35.621094 37.851562 L 38.335938 41.058594 C 38.703125 41.492188 39.378906 41.484375 39.730469 41.058594 L 44.425781 35.445312 C 44.746094 35.054688 44.699219 34.488281 44.316406 34.160156 C 43.925781 33.839844 43.359375 33.890625 43.03125 34.273438 L 39.027344 39.058594 L 37.003906 36.679688 C 36.683594 36.296875 36.109375 36.25 35.726562 36.570312 C 35.34375 36.894531 35.296875 37.46875 35.621094 37.851562 Z M 55.800781 29.070312 C 55.800781 29.566406 55.394531 29.972656 54.890625 29.972656 L 45.042969 29.972656 C 44.546875 29.972656 44.140625 29.566406 44.140625 29.070312 C 44.140625 28.5625 44.546875 28.160156 45.042969 28.160156 L 54.890625 28.160156 C 55.394531 28.160156 55.800781 28.5625 55.800781 29.070312 Z M 35.621094 27.644531 L 38.335938 30.851562 C 38.703125 31.285156 39.371094 31.28125 39.730469 30.84375 L 44.425781 25.234375 C 44.746094 24.851562 44.699219 24.277344 44.316406 23.957031 C 43.925781 23.632812 43.359375 23.6875 43.03125 24.070312 L 39.027344 28.855469 L 37.003906 26.472656 C 36.683594 26.089844 36.109375 26.046875 35.726562 26.367188 C 35.34375 26.6875 35.296875 27.261719 35.621094 27.644531 Z M 13.839844 17.464844 C 13.339844 17.464844 12.945312 17.058594 12.945312 16.558594 C 12.945312 16.0625 13.339844 15.65625 13.839844 15.65625 C 14.335938 15.65625 14.742188 16.0625 14.742188 16.558594 C 14.742188 17.058594 14.335938 17.464844 13.839844 17.464844 Z M 20.285156 10.703125 C 19.949219 10.328125 19.375 10.304688 19 10.640625 L 15.125 14.164062 C 13.675781 13.378906 11.84375 14.078125 11.28125 15.648438 L 7.0625 15.648438 C 6.566406 15.648438 6.160156 16.054688 6.160156 16.558594 C 6.160156 17.066406 6.566406 17.472656 7.0625 17.472656 L 11.28125 17.472656 C 11.65625 18.519531 12.660156 19.277344 13.839844 19.277344 C 15.765625 19.277344 17.085938 17.332031 16.351562 15.511719 L 20.222656 11.980469 C 20.597656 11.644531 20.621094 11.070312 20.285156 10.703125 Z M 1.511719 16.558594 C 1.511719 23.359375 7.039062 28.886719 13.839844 28.886719 C 20.589844 28.886719 26.058594 23.488281 26.164062 16.773438 C 26.171875 16.277344 25.773438 15.863281 25.277344 15.855469 C 24.765625 15.851562 24.359375 16.242188 24.351562 16.742188 C 24.25 22.4375 19.535156 27.070312 13.839844 27.070312 C 8.042969 27.070312 3.328125 22.355469 3.328125 16.558594 C 3.328125 9.316406 10.496094 4.269531 17.292969 6.628906 L 15.84375 7.003906 C 15.363281 7.128906 15.0625 7.625 15.195312 8.117188 C 15.324219 8.609375 15.828125 8.875 16.304688 8.765625 L 20.140625 7.769531 C 20.269531 7.722656 20.40625 7.671875 20.507812 7.570312 C 20.542969 7.570312 20.753906 7.300781 20.753906 7.234375 L 20.8125 7.027344 C 20.839844 6.75 20.808594 6.738281 20.746094 6.523438 L 18.664062 3.015625 C 18.410156 2.578125 17.851562 2.441406 17.421875 2.695312 C 16.984375 2.957031 16.847656 3.515625 17.101562 3.941406 L 17.628906 4.824219 C 9.710938 2.285156 1.511719 8.171875 1.511719 16.558594 Z M 59.660156 58.144531 L 59.660156 13.558594 C 59.660156 13.144531 59.324219 12.808594 58.910156 12.808594 L 40.089844 12.808594 L 40.089844 20.035156 C 40.089844 21.453125 38.941406 22.609375 37.527344 22.609375 L 30.292969 22.609375 L 30.292969 46.066406 L 32.167969 46.066406 C 32.664062 46.066406 33.070312 46.472656 33.070312 46.96875 L 33.070312 58.542969 C 33.070312 58.667969 33.054688 58.78125 33.039062 58.894531 L 58.910156 58.894531 C 59.324219 58.894531 59.660156 58.558594 59.660156 58.144531 Z M 16.265625 58.894531 L 6.289062 58.894531 C 5.878906 58.894531 5.609375 58.667969 5.609375 58.542969 L 5.609375 47.878906 L 8.488281 47.878906 L 8.488281 52.136719 C 8.488281 52.632812 8.902344 53.039062 9.398438 53.039062 L 13.738281 53.039062 C 14.238281 53.039062 14.644531 52.632812 14.644531 52.136719 L 14.644531 47.878906 L 17.523438 47.878906 L 17.523438 58.894531 Z M 10.308594 47.878906 L 10.308594 51.226562 L 12.828125 51.226562 L 12.828125 47.878906 Z M 6.289062 35.046875 L 8.488281 35.046875 L 8.488281 39.304688 C 8.488281 39.804688 8.902344 40.207031 9.398438 40.207031 L 13.738281 40.207031 C 14.238281 40.207031 14.644531 39.804688 14.644531 39.304688 L 14.644531 35.046875 L 17.523438 35.046875 L 17.523438 46.066406 L 5.609375 46.066406 L 5.609375 35.402344 C 5.609375 35.277344 5.878906 35.046875 6.289062 35.046875 Z M 10.308594 35.046875 L 10.308594 38.394531 L 12.828125 38.394531 L 12.828125 35.046875 Z M 24.035156 47.878906 L 26.554688 47.878906 L 26.554688 51.226562 L 24.035156 51.226562 Z M 31.257812 58.542969 C 31.257812 58.667969 30.988281 58.894531 30.574219 58.894531 L 19.34375 58.894531 L 19.34375 47.878906 L 22.222656 47.878906 L 22.222656 52.136719 C 22.222656 52.632812 22.628906 53.039062 23.132812 53.039062 L 27.464844 53.039062 C 27.972656 53.039062 28.378906 52.632812 28.378906 52.136719 L 28.378906 47.878906 L 31.257812 47.878906 Z M 38.277344 14.09375 L 38.277344 20.035156 C 38.277344 20.449219 37.941406 20.785156 37.527344 20.785156 L 31.578125 20.785156 Z M 58.910156 10.992188 L 39.179688 10.992188 C 38.941406 10.992188 38.714844 11.085938 38.542969 11.253906 L 28.746094 21.054688 C 28.570312 21.222656 28.476562 21.460938 28.476562 21.695312 L 28.476562 46.066406 L 19.34375 46.066406 L 19.34375 34.136719 C 19.34375 33.640625 18.9375 33.234375 18.433594 33.234375 L 6.289062 33.234375 C 4.914062 33.234375 3.792969 34.207031 3.792969 35.402344 L 3.792969 58.542969 C 3.792969 59.738281 4.914062 60.710938 6.289062 60.710938 L 58.910156 60.710938 C 60.324219 60.710938 61.480469 59.5625 61.480469 58.144531 L 61.480469 13.558594 C 61.480469 12.140625 60.324219 10.992188 58.910156 10.992188 Z M 58.910156 10.992188 "/></g></g></svg>