<svg xmlns="http://www.w3.org/2000/svg" xmlns:xlink="http://www.w3.org/1999/xlink" width="84" zoomAndPan="magnify" viewBox="0 0 63 62.999997" height="84" preserveAspectRatio="xMidYMid meet" version="1.0"><defs><clipPath id="daa3090dfd"><path d="M 0.777344 1.273438 L 62.277344 1.273438 L 62.277344 61.273438 L 0.777344 61.273438 Z M 0.777344 1.273438 " clip-rule="nonzero"/></clipPath></defs><g clip-path="url(#daa3090dfd)"><path fill="#ffbf39" d="M 56.671875 49.851562 C 56.671875 50.371094 56.253906 50.789062 55.730469 50.789062 L 45.597656 50.789062 C 45.085938 50.789062 44.667969 50.371094 44.667969 49.851562 C 44.667969 49.339844 45.085938 48.914062 45.597656 48.914062 L 55.730469 48.914062 C 56.253906 48.914062 56.671875 49.339844 56.671875 49.851562 Z M 44.960938 45.910156 C 45.292969 45.515625 45.242188 44.925781 44.851562 44.59375 C 44.449219 44.265625 43.863281 44.3125 43.527344 44.714844 L 39.40625 49.632812 L 37.324219 47.179688 C 36.992188 46.785156 36.402344 46.738281 36.007812 47.070312 C 35.613281 47.410156 35.566406 48 35.898438 48.394531 L 38.695312 51.6875 C 39.074219 52.132812 39.769531 52.125 40.128906 51.6875 Z M 56.671875 39.347656 C 56.671875 39.859375 56.253906 40.285156 55.730469 40.285156 L 45.597656 40.285156 C 45.085938 40.285156 44.667969 39.859375 44.667969 39.347656 C 44.667969 38.828125 45.085938 38.410156 45.597656 38.410156 L 55.730469 38.410156 C 56.253906 38.410156 56.671875 38.828125 56.671875 39.347656 Z M 35.898438 37.882812 L 38.695312 41.183594 C 39.074219 41.628906 39.769531 41.621094 40.128906 41.183594 L 44.960938 35.40625 C 45.292969 35.003906 45.242188 34.421875 44.851562 34.082031 C 44.449219 33.753906 43.863281 33.808594 43.527344 34.203125 L 39.40625 39.125 L 37.324219 36.675781 C 36.992188 36.28125 36.402344 36.234375 36.007812 36.566406 C 35.613281 36.898438 35.566406 37.488281 35.898438 37.882812 Z M 56.671875 28.84375 C 56.671875 29.355469 56.253906 29.773438 55.730469 29.773438 L 45.597656 29.773438 C 45.085938 29.773438 44.667969 29.355469 44.667969 28.84375 C 44.667969 28.324219 45.085938 27.90625 45.597656 27.90625 L 55.730469 27.90625 C 56.253906 27.90625 56.671875 28.324219 56.671875 28.84375 Z M 35.898438 27.378906 L 38.695312 30.679688 C 39.074219 31.125 39.757812 31.121094 40.128906 30.671875 L 44.960938 24.894531 C 45.292969 24.5 45.242188 23.910156 44.851562 23.578125 C 44.449219 23.25 43.863281 23.304688 43.527344 23.699219 L 39.40625 28.621094 L 37.324219 26.171875 C 36.992188 25.777344 36.402344 25.730469 36.007812 26.0625 C 35.613281 26.394531 35.566406 26.984375 35.898438 27.378906 Z M 13.480469 16.898438 C 12.96875 16.898438 12.558594 16.480469 12.558594 15.96875 C 12.558594 15.457031 12.96875 15.039062 13.480469 15.039062 C 13.992188 15.039062 14.410156 15.457031 14.410156 15.96875 C 14.410156 16.480469 13.992188 16.898438 13.480469 16.898438 Z M 20.113281 9.9375 C 19.769531 9.554688 19.175781 9.53125 18.789062 9.875 L 14.804688 13.5 C 13.3125 12.695312 11.425781 13.414062 10.847656 15.03125 L 6.507812 15.03125 C 5.992188 15.03125 5.574219 15.449219 5.574219 15.96875 C 5.574219 16.488281 5.992188 16.90625 6.507812 16.90625 L 10.847656 16.90625 C 11.234375 17.984375 12.265625 18.765625 13.480469 18.765625 C 15.460938 18.765625 16.824219 16.761719 16.0625 14.886719 L 20.050781 11.253906 C 20.4375 10.910156 20.460938 10.316406 20.113281 9.9375 Z M 0.792969 15.96875 C 0.792969 22.964844 6.480469 28.65625 13.480469 28.65625 C 20.425781 28.65625 26.054688 23.097656 26.167969 16.1875 C 26.175781 15.675781 25.765625 15.25 25.253906 15.242188 C 24.726562 15.238281 24.308594 15.640625 24.300781 16.15625 C 24.195312 22.019531 19.34375 26.785156 13.480469 26.785156 C 7.515625 26.785156 2.660156 21.933594 2.660156 15.96875 C 2.660156 8.511719 10.039062 3.320312 17.035156 5.746094 L 15.542969 6.132812 C 15.046875 6.257812 14.742188 6.773438 14.875 7.277344 C 15.007812 7.78125 15.527344 8.058594 16.015625 7.945312 L 19.964844 6.921875 C 20.097656 6.871094 20.238281 6.820312 20.34375 6.714844 C 20.378906 6.714844 20.59375 6.4375 20.59375 6.371094 L 20.660156 6.15625 C 20.6875 5.871094 20.65625 5.859375 20.585938 5.636719 L 18.445312 2.027344 C 18.183594 1.578125 17.609375 1.4375 17.167969 1.695312 C 16.71875 1.964844 16.578125 2.539062 16.835938 2.980469 L 17.378906 3.886719 C 9.230469 1.273438 0.792969 7.332031 0.792969 15.96875 Z M 60.640625 58.773438 L 60.640625 12.878906 C 60.640625 12.453125 60.292969 12.105469 59.871094 12.105469 L 40.5 12.105469 L 40.5 19.546875 C 40.5 21.003906 39.316406 22.191406 37.859375 22.191406 L 30.414062 22.191406 L 30.414062 46.335938 L 32.34375 46.335938 C 32.855469 46.335938 33.273438 46.753906 33.273438 47.265625 L 33.273438 59.179688 C 33.273438 59.308594 33.257812 59.425781 33.242188 59.542969 L 59.871094 59.542969 C 60.292969 59.542969 60.640625 59.195312 60.640625 58.773438 Z M 15.976562 59.542969 L 5.710938 59.542969 C 5.285156 59.542969 5.007812 59.308594 5.007812 59.179688 L 5.007812 48.203125 L 7.972656 48.203125 L 7.972656 52.585938 C 7.972656 53.097656 8.398438 53.515625 8.910156 53.515625 L 13.378906 53.515625 C 13.890625 53.515625 14.308594 53.097656 14.308594 52.585938 L 14.308594 48.203125 L 17.269531 48.203125 L 17.269531 59.542969 Z M 9.847656 48.203125 L 9.847656 51.648438 L 12.441406 51.648438 L 12.441406 48.203125 Z M 5.710938 34.996094 L 7.972656 34.996094 L 7.972656 39.378906 C 7.972656 39.890625 8.398438 40.308594 8.910156 40.308594 L 13.378906 40.308594 C 13.890625 40.308594 14.308594 39.890625 14.308594 39.378906 L 14.308594 34.996094 L 17.269531 34.996094 L 17.269531 46.335938 L 5.007812 46.335938 L 5.007812 35.359375 C 5.007812 35.234375 5.285156 34.996094 5.710938 34.996094 Z M 9.847656 34.996094 L 9.847656 38.441406 L 12.441406 38.441406 L 12.441406 34.996094 Z M 23.976562 48.203125 L 26.566406 48.203125 L 26.566406 51.648438 L 23.976562 51.648438 Z M 31.40625 59.179688 C 31.40625 59.308594 31.128906 59.542969 30.707031 59.542969 L 19.144531 59.542969 L 19.144531 48.203125 L 22.109375 48.203125 L 22.109375 52.585938 C 22.109375 53.097656 22.527344 53.515625 23.046875 53.515625 L 27.507812 53.515625 C 28.027344 53.515625 28.445312 53.097656 28.445312 52.585938 L 28.445312 48.203125 L 31.40625 48.203125 Z M 38.632812 13.429688 L 38.632812 19.546875 C 38.632812 19.96875 38.285156 20.316406 37.859375 20.316406 L 31.738281 20.316406 Z M 59.871094 10.238281 L 39.5625 10.238281 C 39.316406 10.238281 39.082031 10.332031 38.910156 10.507812 L 28.820312 20.59375 C 28.640625 20.765625 28.546875 21.011719 28.546875 21.253906 L 28.546875 46.335938 L 19.144531 46.335938 L 19.144531 34.058594 C 19.144531 33.546875 18.726562 33.128906 18.207031 33.128906 L 5.710938 33.128906 C 4.292969 33.128906 3.140625 34.132812 3.140625 35.359375 L 3.140625 59.179688 C 3.140625 60.410156 4.292969 61.410156 5.710938 61.410156 L 59.871094 61.410156 C 61.328125 61.410156 62.515625 60.230469 62.515625 58.773438 L 62.515625 12.878906 C 62.515625 11.421875 61.328125 10.238281 59.871094 10.238281 Z M 59.871094 10.238281 " fill-opacity="1" fill-rule="evenodd"/></g></svg>