<svg xmlns="http://www.w3.org/2000/svg" xmlns:xlink="http://www.w3.org/1999/xlink" width="100" zoomAndPan="magnify" viewBox="0 0 75 74.999997" height="100" preserveAspectRatio="xMidYMid meet" version="1.2"><g id="06576c0454"><path style=" stroke:none;fill-rule:nonzero;fill:#ffbf39;fill-opacity:1;" d="M 73.992188 49.027344 C 74.433594 48.347656 74.984375 47.503906 74.792969 46.429688 C 74.675781 45.769531 74.320312 45.21875 74.007812 44.734375 C 73.804688 44.421875 73.574219 44.066406 73.535156 43.84375 C 73.496094 43.621094 73.589844 43.210938 73.675781 42.847656 C 73.832031 42.15625 74.011719 41.371094 73.722656 40.570312 C 73.425781 39.75 72.742188 39.234375 72.195312 38.820312 C 71.90625 38.601562 71.578125 38.351562 71.476562 38.175781 C 71.367188 37.984375 71.316406 37.570312 71.269531 37.203125 C 71.183594 36.53125 71.082031 35.691406 70.527344 35.035156 C 69.972656 34.371094 69.15625 34.121094 68.503906 33.921875 C 68.15625 33.8125 67.757812 33.691406 67.597656 33.558594 C 67.433594 33.421875 67.242188 33.050781 67.078125 32.722656 C 66.765625 32.117188 66.378906 31.359375 65.632812 30.929688 C 64.886719 30.5 64.042969 30.539062 63.359375 30.574219 C 62.992188 30.59375 62.578125 30.613281 62.375 30.539062 C 62.28125 30.507812 62.167969 30.425781 62.042969 30.324219 C 61.867188 22.273438 58.640625 14.734375 52.917969 9.035156 C 47.066406 3.210938 39.292969 0 31.035156 0 C 13.933594 0 0.0195312 13.914062 0.0195312 31.019531 C 0.0195312 48.121094 13.933594 62.035156 31.035156 62.035156 C 35.34375 62.035156 39.507812 61.167969 43.417969 59.460938 C 43.476562 59.488281 43.539062 59.515625 43.597656 59.539062 L 39.214844 68.949219 C 39.027344 69.355469 39.078125 69.835938 39.351562 70.191406 C 39.625 70.546875 40.074219 70.722656 40.515625 70.648438 L 45.589844 69.761719 L 48.175781 74.210938 C 48.394531 74.585938 48.792969 74.8125 49.21875 74.8125 C 49.238281 74.8125 49.257812 74.8125 49.273438 74.8125 C 49.722656 74.789062 50.125 74.523438 50.3125 74.117188 L 54.621094 64.863281 C 54.925781 64.773438 55.214844 64.648438 55.488281 64.535156 C 55.832031 64.390625 56.21875 64.226562 56.433594 64.226562 C 56.636719 64.226562 57.011719 64.386719 57.34375 64.527344 C 57.898438 64.761719 58.570312 65.046875 59.308594 65.011719 L 62.421875 72.242188 C 62.601562 72.652344 62.992188 72.933594 63.441406 72.96875 C 63.472656 72.96875 63.5 72.96875 63.53125 72.96875 C 63.945312 72.96875 64.335938 72.757812 64.558594 72.398438 L 67.273438 68.023438 L 72.316406 69.058594 C 72.757812 69.148438 73.210938 68.984375 73.496094 68.636719 C 73.777344 68.289062 73.84375 67.8125 73.667969 67.398438 L 70.089844 59.09375 C 70.246094 58.976562 70.394531 58.84375 70.527344 58.683594 C 71.078125 58.023438 71.183594 57.179688 71.269531 56.503906 C 71.3125 56.140625 71.367188 55.726562 71.472656 55.542969 C 71.578125 55.359375 71.910156 55.109375 72.203125 54.890625 C 72.746094 54.476562 73.425781 53.964844 73.722656 53.152344 C 74.015625 52.34375 73.828125 51.519531 73.675781 50.859375 C 73.59375 50.5 73.5 50.09375 73.539062 49.875 C 73.574219 49.671875 73.796875 49.332031 73.992188 49.027344 Z M 2.433594 31.019531 C 2.433594 15.246094 15.261719 2.414062 31.035156 2.414062 C 46.007812 2.414062 58.375 14.03125 59.546875 28.726562 C 58.738281 28.613281 58.019531 28.914062 57.378906 29.183594 C 57.039062 29.328125 56.652344 29.492188 56.433594 29.492188 C 56.230469 29.492188 55.855469 29.332031 55.523438 29.195312 C 54.890625 28.925781 54.101562 28.59375 53.238281 28.746094 C 52.378906 28.898438 51.75 29.480469 51.246094 29.949219 C 50.984375 30.191406 50.683594 30.472656 50.496094 30.539062 C 50.289062 30.613281 49.871094 30.59375 49.5 30.574219 C 48.785156 30.539062 47.972656 30.5 47.234375 30.925781 C 46.484375 31.359375 46.09375 32.121094 45.785156 32.730469 C 45.617188 33.054688 45.429688 33.421875 45.269531 33.554688 C 45.105469 33.695312 44.707031 33.816406 44.355469 33.925781 C 44.089844 34.007812 43.796875 34.097656 43.503906 34.222656 C 41.484375 32.128906 38.996094 30.597656 36.269531 29.734375 C 38.757812 28.050781 40.394531 25.203125 40.394531 21.980469 C 40.394531 16.820312 36.195312 12.621094 31.035156 12.621094 C 25.875 12.621094 21.679688 16.820312 21.679688 21.980469 C 21.679688 25.203125 23.316406 28.050781 25.800781 29.734375 C 18.796875 31.957031 13.707031 38.523438 13.707031 46.253906 C 13.707031 46.917969 14.25 47.460938 14.914062 47.460938 L 38.113281 47.460938 C 38.253906 48.046875 38.574219 48.542969 38.863281 48.984375 C 39.0625 49.296875 39.292969 49.652344 39.332031 49.875 C 39.371094 50.097656 39.277344 50.511719 39.195312 50.875 C 39.035156 51.566406 38.855469 52.347656 39.144531 53.152344 C 39.441406 53.972656 40.125 54.488281 40.671875 54.902344 C 40.960938 55.121094 41.289062 55.367188 41.390625 55.546875 C 41.5 55.734375 41.554688 56.148438 41.597656 56.515625 C 41.640625 56.832031 41.683594 57.183594 41.777344 57.535156 C 38.367188 58.917969 34.761719 59.621094 31.035156 59.621094 C 15.261719 59.621094 2.433594 46.789062 2.433594 31.019531 Z M 39.191406 42.859375 C 39.273438 43.21875 39.367188 43.628906 39.328125 43.84375 C 39.292969 44.046875 39.070312 44.390625 38.875 44.691406 C 38.800781 44.804688 38.726562 44.921875 38.648438 45.046875 L 16.167969 45.046875 C 16.785156 37.382812 23.21875 31.335938 31.035156 31.335938 C 35.132812 31.335938 39.027344 33.015625 41.839844 35.972656 C 41.703125 36.398438 41.648438 36.832031 41.597656 37.214844 C 41.554688 37.578125 41.503906 37.992188 41.394531 38.175781 C 41.289062 38.359375 40.960938 38.609375 40.667969 38.828125 C 40.121094 39.242188 39.441406 39.753906 39.144531 40.566406 C 38.851562 41.375 39.039062 42.199219 39.191406 42.859375 Z M 31.035156 28.925781 C 27.207031 28.925781 24.09375 25.808594 24.09375 21.980469 C 24.09375 18.152344 27.207031 15.035156 31.035156 15.035156 C 34.863281 15.035156 37.980469 18.152344 37.980469 21.980469 C 37.980469 25.808594 34.863281 28.925781 31.035156 28.925781 Z M 49.101562 71 L 47.253906 67.820312 C 47 67.382812 46.5 67.152344 46.003906 67.238281 L 42.378906 67.871094 L 45.679688 60.78125 C 45.71875 60.851562 45.753906 60.925781 45.792969 60.996094 C 46.101562 61.601562 46.488281 62.359375 47.234375 62.789062 C 47.980469 63.21875 48.828125 63.179688 49.507812 63.144531 C 49.875 63.128906 50.292969 63.105469 50.492188 63.179688 C 50.691406 63.25 50.992188 63.53125 51.257812 63.78125 C 51.511719 64.015625 51.796875 64.28125 52.125 64.503906 Z M 66.933594 65.492188 C 66.4375 65.390625 65.929688 65.609375 65.664062 66.039062 L 63.726562 69.164062 L 61.464844 63.917969 C 61.519531 63.867188 61.570312 63.820312 61.621094 63.773438 C 61.886719 63.527344 62.183594 63.25 62.375 63.179688 C 62.578125 63.105469 62.996094 63.128906 63.367188 63.144531 C 64.082031 63.179688 64.894531 63.222656 65.632812 62.792969 C 66.386719 62.359375 66.773438 61.601562 67.085938 60.988281 C 67.25 60.664062 67.4375 60.296875 67.597656 60.164062 C 67.660156 60.113281 67.75 60.066406 67.859375 60.019531 L 70.535156 66.230469 Z M 72.417969 46.847656 C 72.441406 46.988281 72.132812 47.460938 71.96875 47.714844 C 71.648438 48.210938 71.285156 48.769531 71.164062 49.457031 C 71.039062 50.152344 71.191406 50.8125 71.324219 51.398438 C 71.390625 51.691406 71.503906 52.1875 71.453125 52.324219 C 71.402344 52.46875 70.992188 52.777344 70.746094 52.964844 C 70.273438 53.320312 69.734375 53.730469 69.382812 54.335938 C 69.03125 54.941406 68.949219 55.613281 68.875 56.207031 C 68.835938 56.507812 68.773438 57.019531 68.675781 57.132812 C 68.582031 57.246094 68.09375 57.398438 67.800781 57.488281 C 67.230469 57.664062 66.582031 57.863281 66.046875 58.316406 C 65.511719 58.765625 65.207031 59.363281 64.9375 59.894531 C 64.796875 60.167969 64.5625 60.625 64.425781 60.703125 C 64.296875 60.773438 63.789062 60.75 63.488281 60.734375 C 62.890625 60.707031 62.210938 60.671875 61.550781 60.910156 C 60.902344 61.148438 60.410156 61.601562 59.980469 62.003906 C 59.738281 62.230469 59.371094 62.570312 59.210938 62.597656 C 59.046875 62.625 58.589844 62.433594 58.28125 62.304688 C 57.742188 62.074219 57.125 61.8125 56.433594 61.8125 C 55.726562 61.816406 55.101562 62.078125 54.550781 62.3125 C 54.273438 62.429688 53.804688 62.625 53.660156 62.601562 C 53.503906 62.574219 53.128906 62.222656 52.902344 62.015625 C 52.46875 61.609375 51.976562 61.152344 51.320312 60.914062 C 50.886719 60.753906 50.441406 60.714844 50.019531 60.714844 C 49.800781 60.714844 49.589844 60.722656 49.386719 60.734375 C 49.082031 60.75 48.574219 60.773438 48.445312 60.699219 C 48.3125 60.625 48.078125 60.167969 47.941406 59.894531 C 47.667969 59.367188 47.359375 58.765625 46.824219 58.3125 C 46.285156 57.863281 45.640625 57.664062 45.070312 57.492188 C 44.777344 57.402344 44.285156 57.25 44.1875 57.132812 C 44.09375 57.019531 44.03125 56.515625 43.992188 56.214844 C 43.917969 55.621094 43.835938 54.949219 43.480469 54.335938 C 43.132812 53.734375 42.601562 53.332031 42.128906 52.976562 C 41.882812 52.789062 41.46875 52.476562 41.414062 52.328125 C 41.367188 52.191406 41.480469 51.703125 41.546875 51.414062 C 41.679688 50.828125 41.835938 50.164062 41.710938 49.457031 C 41.585938 48.75 41.214844 48.179688 40.886719 47.671875 C 40.707031 47.394531 40.484375 47.050781 40.453125 46.871094 C 40.425781 46.734375 40.734375 46.257812 40.898438 46.003906 C 41.21875 45.511719 41.582031 44.949219 41.707031 44.261719 C 41.828125 43.566406 41.675781 42.90625 41.542969 42.324219 C 41.476562 42.027344 41.363281 41.53125 41.414062 41.394531 C 41.464844 41.25 41.875 40.941406 42.121094 40.753906 C 42.597656 40.398438 43.136719 39.992188 43.484375 39.386719 C 43.835938 38.777344 43.921875 38.105469 43.992188 37.515625 C 44.03125 37.210938 44.09375 36.703125 44.191406 36.585938 C 44.289062 36.472656 44.777344 36.320312 45.066406 36.230469 C 45.636719 36.054688 46.285156 35.855469 46.824219 35.402344 C 47.355469 34.953125 47.664062 34.355469 47.933594 33.828125 C 48.074219 33.550781 48.308594 33.09375 48.441406 33.015625 C 48.574219 32.945312 49.078125 32.96875 49.382812 32.984375 C 49.980469 33.015625 50.65625 33.046875 51.316406 32.808594 C 51.96875 32.574219 52.457031 32.117188 52.890625 31.714844 C 53.132812 31.488281 53.5 31.148438 53.660156 31.121094 C 53.820312 31.09375 54.28125 31.289062 54.585938 31.417969 C 55.128906 31.644531 55.742188 31.90625 56.433594 31.90625 C 56.433594 31.90625 56.433594 31.90625 56.4375 31.90625 C 57.140625 31.90625 57.765625 31.640625 58.316406 31.410156 C 58.59375 31.292969 59.0625 31.09375 59.210938 31.117188 C 59.363281 31.144531 59.742188 31.496094 59.964844 31.707031 C 60.398438 32.109375 60.890625 32.566406 61.546875 32.808594 C 62.207031 33.046875 62.882812 33.015625 63.480469 32.984375 C 63.785156 32.96875 64.296875 32.945312 64.425781 33.019531 C 64.554688 33.09375 64.789062 33.550781 64.929688 33.824219 C 65.199219 34.355469 65.507812 34.957031 66.046875 35.40625 C 66.582031 35.855469 67.226562 36.054688 67.796875 36.230469 C 68.089844 36.320312 68.582031 36.46875 68.679688 36.585938 C 68.773438 36.699219 68.835938 37.203125 68.875 37.503906 C 68.949219 38.097656 69.03125 38.769531 69.386719 39.382812 C 69.734375 39.984375 70.269531 40.386719 70.738281 40.746094 C 71.003906 40.941406 71.398438 41.242188 71.453125 41.390625 C 71.5 41.53125 71.390625 42.015625 71.320312 42.304688 C 71.1875 42.890625 71.035156 43.558594 71.160156 44.265625 C 71.28125 44.96875 71.652344 45.542969 71.980469 46.046875 C 72.160156 46.324219 72.386719 46.667969 72.417969 46.847656 Z M 56.433594 33.9375 C 49.308594 33.9375 43.511719 39.734375 43.511719 46.859375 C 43.511719 53.984375 49.308594 59.78125 56.433594 59.78125 C 63.558594 59.78125 69.355469 53.984375 69.355469 46.859375 C 69.355469 39.734375 63.558594 33.9375 56.433594 33.9375 Z M 56.433594 57.367188 C 50.640625 57.367188 45.925781 52.652344 45.925781 46.859375 C 45.925781 41.066406 50.640625 36.351562 56.433594 36.351562 C 62.226562 36.351562 66.941406 41.066406 66.941406 46.859375 C 66.941406 52.652344 62.226562 57.367188 56.433594 57.367188 Z M 59.253906 42.8125 L 57.550781 38.640625 C 57.367188 38.1875 56.925781 37.890625 56.433594 37.890625 C 55.945312 37.890625 55.503906 38.1875 55.316406 38.640625 L 53.613281 42.8125 L 49.121094 43.144531 C 48.628906 43.179688 48.210938 43.507812 48.0625 43.976562 C 47.910156 44.441406 48.054688 44.953125 48.429688 45.269531 L 51.867188 48.179688 L 50.796875 52.554688 C 50.679688 53.03125 50.863281 53.53125 51.257812 53.820312 C 51.65625 54.105469 52.1875 54.125 52.605469 53.867188 L 56.433594 51.496094 L 60.265625 53.867188 C 60.460938 53.988281 60.679688 54.050781 60.898438 54.050781 C 61.148438 54.050781 61.398438 53.972656 61.609375 53.820312 C 62.007812 53.53125 62.1875 53.03125 62.074219 52.554688 L 61 48.179688 L 64.441406 45.269531 C 64.8125 44.953125 64.960938 44.441406 64.808594 43.976562 C 64.65625 43.507812 64.238281 43.179688 63.75 43.144531 Z M 58.871094 46.820312 C 58.519531 47.113281 58.367188 47.582031 58.476562 48.027344 L 59.023438 50.261719 L 57.070312 49.050781 C 56.679688 48.808594 56.1875 48.808594 55.796875 49.050781 L 53.84375 50.261719 L 54.390625 48.027344 C 54.5 47.582031 54.347656 47.113281 54 46.820312 L 52.242188 45.332031 L 54.535156 45.164062 C 54.992188 45.128906 55.390625 44.839844 55.5625 44.417969 L 56.433594 42.289062 L 57.304688 44.417969 C 57.476562 44.839844 57.875 45.128906 58.332031 45.164062 L 60.625 45.332031 Z M 58.871094 46.820312 "/></g></svg>