<svg xmlns="http://www.w3.org/2000/svg" xmlns:xlink="http://www.w3.org/1999/xlink" width="100" zoomAndPan="magnify" viewBox="0 0 75 74.999997" height="100" preserveAspectRatio="xMidYMid meet" version="1.2"><defs><clipPath id="f43e97cdba"><path d="M 0 16.597656 L 74.636719 16.597656 L 74.636719 55.503906 L 0 55.503906 Z M 0 16.597656 "/></clipPath><clipPath id="a22aeda59d"><path d="M 0 16.597656 L 74.636719 16.597656 L 74.636719 55.503906 L 0 55.503906 Z M 0 16.597656 "/></clipPath><clipPath id="33d48c5a66"><path d="M 0.316406 16.597656 L 74.953125 16.597656 L 74.953125 55.503906 L 0.316406 55.503906 Z M 0.316406 16.597656 "/></clipPath><clipPath id="c105fda304"><path d="M 0.316406 16.597656 L 74.953125 16.597656 L 74.953125 55.503906 L 0.316406 55.503906 Z M 0.316406 16.597656 "/></clipPath></defs><g id="b69125ed70"><g clip-rule="nonzero" clip-path="url(#f43e97cdba)"><path style=" stroke:none;fill-rule:nonzero;fill:#ffbf39;fill-opacity:1;" d="M 72.207031 38.644531 L 60.441406 38.644531 C 60.335938 38.648438 60.246094 38.683594 60.171875 38.757812 C 60.097656 38.832031 60.0625 38.921875 60.0625 39.023438 L 60.0625 52.917969 C 60.058594 53.019531 60.09375 53.109375 60.167969 53.179688 C 60.167969 53.183594 60.167969 53.183594 60.171875 53.1875 C 60.175781 53.1875 60.175781 53.191406 60.179688 53.191406 C 60.25 53.265625 60.335938 53.300781 60.441406 53.296875 L 72.207031 53.296875 C 72.3125 53.296875 72.398438 53.257812 72.472656 53.183594 C 72.546875 53.113281 72.585938 53.023438 72.585938 52.917969 L 72.585938 39.023438 C 72.585938 38.921875 72.546875 38.832031 72.472656 38.757812 C 72.398438 38.683594 72.3125 38.648438 72.207031 38.644531 Z M 60.820312 52.539062 L 60.820312 39.402344 L 71.828125 39.402344 L 71.828125 52.539062 Z M 14.191406 38.644531 L 2.421875 38.644531 C 2.320312 38.648438 2.230469 38.683594 2.15625 38.757812 C 2.082031 38.832031 2.046875 38.921875 2.046875 39.023438 L 2.046875 52.917969 C 2.042969 53.019531 2.074219 53.109375 2.148438 53.179688 C 2.152344 53.179688 2.152344 53.183594 2.15625 53.1875 C 2.15625 53.1875 2.160156 53.191406 2.164062 53.191406 C 2.234375 53.265625 2.320312 53.300781 2.421875 53.296875 L 14.191406 53.296875 C 14.292969 53.296875 14.382812 53.257812 14.457031 53.183594 C 14.53125 53.113281 14.566406 53.023438 14.570312 52.917969 L 14.570312 39.023438 C 14.566406 38.921875 14.53125 38.832031 14.457031 38.757812 C 14.382812 38.683594 14.292969 38.648438 14.191406 38.644531 Z M 2.800781 52.539062 L 2.800781 39.402344 L 13.8125 39.402344 L 13.8125 52.539062 Z M 72.207031 18.953125 L 60.441406 18.953125 C 60.335938 18.953125 60.246094 18.992188 60.171875 19.066406 C 60.097656 19.140625 60.0625 19.226562 60.0625 19.332031 L 60.0625 33.226562 C 60.058594 33.328125 60.09375 33.414062 60.167969 33.488281 C 60.167969 33.488281 60.167969 33.492188 60.171875 33.496094 C 60.175781 33.496094 60.175781 33.5 60.179688 33.5 C 60.25 33.574219 60.335938 33.609375 60.441406 33.605469 L 72.207031 33.605469 C 72.3125 33.605469 72.398438 33.566406 72.472656 33.492188 C 72.546875 33.417969 72.585938 33.332031 72.585938 33.226562 L 72.585938 19.332031 C 72.585938 19.226562 72.546875 19.140625 72.472656 19.066406 C 72.398438 18.992188 72.3125 18.953125 72.207031 18.953125 Z M 60.820312 32.847656 L 60.820312 19.710938 L 71.828125 19.710938 L 71.828125 32.847656 Z M 14.191406 18.953125 L 2.421875 18.953125 C 2.320312 18.953125 2.230469 18.992188 2.15625 19.066406 C 2.082031 19.140625 2.046875 19.226562 2.046875 19.332031 L 2.046875 33.226562 C 2.042969 33.328125 2.074219 33.414062 2.148438 33.488281 C 2.152344 33.488281 2.152344 33.492188 2.15625 33.496094 C 2.15625 33.496094 2.160156 33.5 2.164062 33.5 C 2.234375 33.574219 2.320312 33.609375 2.421875 33.605469 L 14.191406 33.605469 C 14.292969 33.605469 14.382812 33.566406 14.457031 33.492188 C 14.53125 33.417969 14.566406 33.332031 14.570312 33.226562 L 14.570312 19.332031 C 14.566406 19.226562 14.53125 19.140625 14.457031 19.066406 C 14.382812 18.992188 14.292969 18.953125 14.191406 18.953125 Z M 2.800781 32.847656 L 2.800781 19.710938 L 13.8125 19.710938 L 13.8125 32.847656 Z M 53.671875 18.660156 L 21.105469 18.660156 C 21 18.660156 20.914062 18.695312 20.839844 18.769531 C 20.765625 18.84375 20.726562 18.933594 20.726562 19.039062 L 20.726562 52.96875 C 20.722656 53.070312 20.757812 53.15625 20.832031 53.230469 C 20.832031 53.230469 20.835938 53.234375 20.835938 53.238281 C 20.839844 53.238281 20.84375 53.242188 20.84375 53.242188 C 20.917969 53.316406 21.003906 53.351562 21.105469 53.347656 L 53.671875 53.347656 C 53.777344 53.347656 53.867188 53.308594 53.941406 53.234375 C 54.015625 53.160156 54.050781 53.074219 54.050781 52.96875 L 54.050781 19.039062 C 54.050781 18.933594 54.015625 18.84375 53.941406 18.769531 C 53.867188 18.695312 53.777344 18.660156 53.671875 18.660156 Z M 21.484375 52.589844 L 21.484375 19.414062 L 53.292969 19.414062 L 53.292969 52.589844 Z M 55.492188 16.613281 L 19.289062 16.613281 C 19.121094 16.613281 18.976562 16.671875 18.859375 16.792969 C 18.742188 16.910156 18.683594 17.050781 18.683594 17.21875 L 18.683594 54.785156 C 18.683594 54.953125 18.742188 55.097656 18.859375 55.214844 C 18.976562 55.332031 19.121094 55.390625 19.289062 55.390625 L 55.492188 55.390625 C 55.652344 55.394531 55.789062 55.339844 55.902344 55.230469 C 55.910156 55.222656 55.917969 55.214844 55.925781 55.207031 C 55.929688 55.207031 55.929688 55.203125 55.933594 55.203125 C 56.046875 55.085938 56.101562 54.949219 56.097656 54.785156 L 56.097656 17.21875 C 56.097656 17.050781 56.039062 16.910156 55.917969 16.792969 C 55.800781 16.671875 55.660156 16.613281 55.492188 16.613281 Z M 19.667969 54.40625 L 19.667969 17.597656 L 55.113281 17.597656 L 55.113281 54.40625 Z M 16.007812 36.601562 L 0.605469 36.601562 C 0.4375 36.601562 0.296875 36.660156 0.175781 36.777344 C 0.0585938 36.898438 0 37.039062 0 37.207031 L 0 54.734375 C 0 54.902344 0.0585938 55.046875 0.175781 55.164062 C 0.296875 55.28125 0.4375 55.34375 0.605469 55.34375 L 16.007812 55.34375 C 16.167969 55.34375 16.308594 55.289062 16.421875 55.179688 C 16.425781 55.171875 16.433594 55.167969 16.4375 55.164062 C 16.441406 55.160156 16.445312 55.15625 16.449219 55.152344 C 16.5625 55.035156 16.617188 54.898438 16.613281 54.734375 L 16.613281 37.207031 C 16.613281 37.039062 16.554688 36.898438 16.4375 36.777344 C 16.316406 36.660156 16.175781 36.601562 16.007812 36.601562 Z M 0.984375 54.359375 L 0.984375 37.585938 L 15.628906 37.585938 L 15.628906 54.359375 Z M 16.007812 16.910156 L 0.605469 16.910156 C 0.4375 16.910156 0.296875 16.96875 0.175781 17.085938 C 0.0585938 17.203125 0 17.347656 0 17.515625 L 0 35.042969 C 0 35.210938 0.0585938 35.355469 0.175781 35.472656 C 0.296875 35.589844 0.4375 35.648438 0.605469 35.648438 L 16.007812 35.648438 C 16.167969 35.652344 16.308594 35.597656 16.421875 35.484375 C 16.429688 35.480469 16.433594 35.476562 16.441406 35.46875 C 16.445312 35.464844 16.445312 35.460938 16.449219 35.457031 C 16.5625 35.34375 16.617188 35.203125 16.613281 35.042969 L 16.613281 17.515625 C 16.613281 17.347656 16.554688 17.203125 16.4375 17.085938 C 16.320312 16.96875 16.175781 16.910156 16.007812 16.910156 Z M 0.984375 34.664062 L 0.984375 17.894531 L 15.628906 17.894531 L 15.628906 34.664062 Z M 74.023438 16.910156 L 58.621094 16.910156 C 58.457031 16.910156 58.3125 16.96875 58.195312 17.085938 C 58.074219 17.203125 58.015625 17.347656 58.015625 17.515625 L 58.015625 35.042969 C 58.015625 35.210938 58.074219 35.355469 58.195312 35.472656 C 58.3125 35.589844 58.457031 35.648438 58.621094 35.648438 L 74.023438 35.648438 C 74.1875 35.652344 74.324219 35.597656 74.441406 35.484375 C 74.445312 35.480469 74.453125 35.476562 74.457031 35.46875 C 74.460938 35.464844 74.464844 35.460938 74.46875 35.457031 C 74.578125 35.34375 74.632812 35.203125 74.628906 35.042969 L 74.628906 17.515625 C 74.628906 17.347656 74.570312 17.203125 74.453125 17.085938 C 74.335938 16.96875 74.191406 16.910156 74.023438 16.910156 Z M 59 34.664062 L 59 17.894531 L 73.644531 17.894531 L 73.644531 34.664062 Z M 74.023438 36.601562 L 58.621094 36.601562 C 58.457031 36.601562 58.3125 36.660156 58.195312 36.777344 C 58.074219 36.898438 58.015625 37.039062 58.015625 37.207031 L 58.015625 54.734375 C 58.015625 54.902344 58.074219 55.046875 58.195312 55.164062 C 58.3125 55.28125 58.457031 55.34375 58.621094 55.34375 L 74.023438 55.34375 C 74.1875 55.34375 74.324219 55.289062 74.441406 55.175781 C 74.445312 55.171875 74.449219 55.167969 74.453125 55.164062 C 74.457031 55.160156 74.460938 55.15625 74.464844 55.152344 C 74.578125 55.035156 74.632812 54.898438 74.628906 54.734375 L 74.628906 37.207031 C 74.628906 37.039062 74.570312 36.898438 74.453125 36.777344 C 74.335938 36.660156 74.191406 36.601562 74.023438 36.601562 Z M 59 54.359375 L 59 37.585938 L 73.644531 37.585938 L 73.644531 54.359375 Z M 59 54.359375 "/></g><path style="fill:none;stroke-width:8;stroke-linecap:butt;stroke-linejoin:miter;stroke:#ffbf39;stroke-opacity:1;stroke-miterlimit:4;" d="M -0.00349326 4.007603 L 131.769873 4.007603 " transform="matrix(0.158801,-0.000000000000000138,0.000000000000000138,0.158801,26.879461,56.664369)"/><g clip-rule="nonzero" clip-path="url(#a22aeda59d)"><path style=" stroke:none;fill-rule:nonzero;fill:#ffbf39;fill-opacity:1;" d="M 72.207031 38.644531 L 60.441406 38.644531 C 60.335938 38.648438 60.246094 38.683594 60.171875 38.757812 C 60.097656 38.832031 60.0625 38.921875 60.0625 39.023438 L 60.0625 52.917969 C 60.058594 53.019531 60.09375 53.109375 60.167969 53.179688 C 60.167969 53.183594 60.167969 53.183594 60.171875 53.1875 C 60.175781 53.1875 60.175781 53.191406 60.179688 53.191406 C 60.25 53.265625 60.335938 53.300781 60.441406 53.296875 L 72.207031 53.296875 C 72.3125 53.296875 72.398438 53.257812 72.472656 53.183594 C 72.546875 53.113281 72.585938 53.023438 72.585938 52.917969 L 72.585938 39.023438 C 72.585938 38.921875 72.546875 38.832031 72.472656 38.757812 C 72.398438 38.683594 72.3125 38.648438 72.207031 38.644531 Z M 60.820312 52.539062 L 60.820312 39.402344 L 71.828125 39.402344 L 71.828125 52.539062 Z M 14.191406 38.644531 L 2.421875 38.644531 C 2.320312 38.648438 2.230469 38.683594 2.15625 38.757812 C 2.082031 38.832031 2.046875 38.921875 2.046875 39.023438 L 2.046875 52.917969 C 2.042969 53.019531 2.074219 53.109375 2.148438 53.179688 C 2.152344 53.179688 2.152344 53.183594 2.15625 53.1875 C 2.15625 53.1875 2.160156 53.191406 2.164062 53.191406 C 2.234375 53.265625 2.320312 53.300781 2.421875 53.296875 L 14.191406 53.296875 C 14.292969 53.296875 14.382812 53.257812 14.457031 53.183594 C 14.53125 53.113281 14.566406 53.023438 14.570312 52.917969 L 14.570312 39.023438 C 14.566406 38.921875 14.53125 38.832031 14.457031 38.757812 C 14.382812 38.683594 14.292969 38.648438 14.191406 38.644531 Z M 2.800781 52.539062 L 2.800781 39.402344 L 13.8125 39.402344 L 13.8125 52.539062 Z M 72.207031 18.953125 L 60.441406 18.953125 C 60.335938 18.953125 60.246094 18.992188 60.171875 19.066406 C 60.097656 19.140625 60.0625 19.226562 60.0625 19.332031 L 60.0625 33.226562 C 60.058594 33.328125 60.09375 33.414062 60.167969 33.488281 C 60.167969 33.488281 60.167969 33.492188 60.171875 33.496094 C 60.175781 33.496094 60.175781 33.5 60.179688 33.5 C 60.25 33.574219 60.335938 33.609375 60.441406 33.605469 L 72.207031 33.605469 C 72.3125 33.605469 72.398438 33.566406 72.472656 33.492188 C 72.546875 33.417969 72.585938 33.332031 72.585938 33.226562 L 72.585938 19.332031 C 72.585938 19.226562 72.546875 19.140625 72.472656 19.066406 C 72.398438 18.992188 72.3125 18.953125 72.207031 18.953125 Z M 60.820312 32.847656 L 60.820312 19.710938 L 71.828125 19.710938 L 71.828125 32.847656 Z M 14.191406 18.953125 L 2.421875 18.953125 C 2.320312 18.953125 2.230469 18.992188 2.15625 19.066406 C 2.082031 19.140625 2.046875 19.226562 2.046875 19.332031 L 2.046875 33.226562 C 2.042969 33.328125 2.074219 33.414062 2.148438 33.488281 C 2.152344 33.488281 2.152344 33.492188 2.15625 33.496094 C 2.15625 33.496094 2.160156 33.5 2.164062 33.5 C 2.234375 33.574219 2.320312 33.609375 2.421875 33.605469 L 14.191406 33.605469 C 14.292969 33.605469 14.382812 33.566406 14.457031 33.492188 C 14.53125 33.417969 14.566406 33.332031 14.570312 33.226562 L 14.570312 19.332031 C 14.566406 19.226562 14.53125 19.140625 14.457031 19.066406 C 14.382812 18.992188 14.292969 18.953125 14.191406 18.953125 Z M 2.800781 32.847656 L 2.800781 19.710938 L 13.8125 19.710938 L 13.8125 32.847656 Z M 53.671875 18.660156 L 21.105469 18.660156 C 21 18.660156 20.914062 18.695312 20.839844 18.769531 C 20.765625 18.84375 20.726562 18.933594 20.726562 19.039062 L 20.726562 52.96875 C 20.722656 53.070312 20.757812 53.15625 20.832031 53.230469 C 20.832031 53.230469 20.835938 53.234375 20.835938 53.238281 C 20.839844 53.238281 20.84375 53.242188 20.84375 53.242188 C 20.917969 53.316406 21.003906 53.351562 21.105469 53.347656 L 53.671875 53.347656 C 53.777344 53.347656 53.867188 53.308594 53.941406 53.234375 C 54.015625 53.160156 54.050781 53.074219 54.050781 52.96875 L 54.050781 19.039062 C 54.050781 18.933594 54.015625 18.84375 53.941406 18.769531 C 53.867188 18.695312 53.777344 18.660156 53.671875 18.660156 Z M 21.484375 52.589844 L 21.484375 19.414062 L 53.292969 19.414062 L 53.292969 52.589844 Z M 55.492188 16.613281 L 19.289062 16.613281 C 19.121094 16.613281 18.976562 16.671875 18.859375 16.792969 C 18.742188 16.910156 18.683594 17.050781 18.683594 17.21875 L 18.683594 54.785156 C 18.683594 54.953125 18.742188 55.097656 18.859375 55.214844 C 18.976562 55.332031 19.121094 55.390625 19.289062 55.390625 L 55.492188 55.390625 C 55.652344 55.394531 55.789062 55.339844 55.902344 55.230469 C 55.910156 55.222656 55.917969 55.214844 55.925781 55.207031 C 55.929688 55.207031 55.929688 55.203125 55.933594 55.203125 C 56.046875 55.085938 56.101562 54.949219 56.097656 54.785156 L 56.097656 17.21875 C 56.097656 17.050781 56.039062 16.910156 55.917969 16.792969 C 55.800781 16.671875 55.660156 16.613281 55.492188 16.613281 Z M 19.667969 54.40625 L 19.667969 17.597656 L 55.113281 17.597656 L 55.113281 54.40625 Z M 16.007812 36.601562 L 0.605469 36.601562 C 0.4375 36.601562 0.296875 36.660156 0.175781 36.777344 C 0.0585938 36.898438 0 37.039062 0 37.207031 L 0 54.734375 C 0 54.902344 0.0585938 55.046875 0.175781 55.164062 C 0.296875 55.28125 0.4375 55.34375 0.605469 55.34375 L 16.007812 55.34375 C 16.167969 55.34375 16.308594 55.289062 16.421875 55.179688 C 16.425781 55.171875 16.433594 55.167969 16.4375 55.164062 C 16.441406 55.160156 16.445312 55.15625 16.449219 55.152344 C 16.5625 55.035156 16.617188 54.898438 16.613281 54.734375 L 16.613281 37.207031 C 16.613281 37.039062 16.554688 36.898438 16.4375 36.777344 C 16.316406 36.660156 16.175781 36.601562 16.007812 36.601562 Z M 0.984375 54.359375 L 0.984375 37.585938 L 15.628906 37.585938 L 15.628906 54.359375 Z M 16.007812 16.910156 L 0.605469 16.910156 C 0.4375 16.910156 0.296875 16.96875 0.175781 17.085938 C 0.0585938 17.203125 0 17.347656 0 17.515625 L 0 35.042969 C 0 35.210938 0.0585938 35.355469 0.175781 35.472656 C 0.296875 35.589844 0.4375 35.648438 0.605469 35.648438 L 16.007812 35.648438 C 16.167969 35.652344 16.308594 35.597656 16.421875 35.484375 C 16.429688 35.480469 16.433594 35.476562 16.441406 35.46875 C 16.445312 35.464844 16.445312 35.460938 16.449219 35.457031 C 16.5625 35.34375 16.617188 35.203125 16.613281 35.042969 L 16.613281 17.515625 C 16.613281 17.347656 16.554688 17.203125 16.4375 17.085938 C 16.320312 16.96875 16.175781 16.910156 16.007812 16.910156 Z M 0.984375 34.664062 L 0.984375 17.894531 L 15.628906 17.894531 L 15.628906 34.664062 Z M 74.023438 16.910156 L 58.621094 16.910156 C 58.457031 16.910156 58.3125 16.96875 58.195312 17.085938 C 58.074219 17.203125 58.015625 17.347656 58.015625 17.515625 L 58.015625 35.042969 C 58.015625 35.210938 58.074219 35.355469 58.195312 35.472656 C 58.3125 35.589844 58.457031 35.648438 58.621094 35.648438 L 74.023438 35.648438 C 74.1875 35.652344 74.324219 35.597656 74.441406 35.484375 C 74.445312 35.480469 74.453125 35.476562 74.457031 35.46875 C 74.460938 35.464844 74.464844 35.460938 74.46875 35.457031 C 74.578125 35.34375 74.632812 35.203125 74.628906 35.042969 L 74.628906 17.515625 C 74.628906 17.347656 74.570312 17.203125 74.453125 17.085938 C 74.335938 16.96875 74.191406 16.910156 74.023438 16.910156 Z M 59 34.664062 L 59 17.894531 L 73.644531 17.894531 L 73.644531 34.664062 Z M 74.023438 36.601562 L 58.621094 36.601562 C 58.457031 36.601562 58.3125 36.660156 58.195312 36.777344 C 58.074219 36.898438 58.015625 37.039062 58.015625 37.207031 L 58.015625 54.734375 C 58.015625 54.902344 58.074219 55.046875 58.195312 55.164062 C 58.3125 55.28125 58.457031 55.34375 58.621094 55.34375 L 74.023438 55.34375 C 74.1875 55.34375 74.324219 55.289062 74.441406 55.175781 C 74.445312 55.171875 74.449219 55.167969 74.453125 55.164062 C 74.457031 55.160156 74.460938 55.15625 74.464844 55.152344 C 74.578125 55.035156 74.632812 54.898438 74.628906 54.734375 L 74.628906 37.207031 C 74.628906 37.039062 74.570312 36.898438 74.453125 36.777344 C 74.335938 36.660156 74.191406 36.601562 74.023438 36.601562 Z M 59 54.359375 L 59 37.585938 L 73.644531 37.585938 L 73.644531 54.359375 Z M 59 54.359375 "/></g><path style="fill:none;stroke-width:8;stroke-linecap:butt;stroke-linejoin:miter;stroke:#ffbf39;stroke-opacity:1;stroke-miterlimit:4;" d="M -0.00349326 3.987984 L 131.769873 3.987984 " transform="matrix(0.158801,-0.000000000000000138,0.000000000000000138,0.158801,26.879461,57.132328)"/><g clip-rule="nonzero" clip-path="url(#33d48c5a66)"><path style=" stroke:none;fill-rule:nonzero;fill:#ffbf39;fill-opacity:1;" d="M 72.523438 38.644531 L 60.757812 38.644531 C 60.652344 38.648438 60.566406 38.683594 60.492188 38.757812 C 60.417969 38.832031 60.378906 38.921875 60.378906 39.023438 L 60.378906 52.917969 C 60.375 53.019531 60.410156 53.109375 60.484375 53.179688 C 60.484375 53.183594 60.488281 53.183594 60.488281 53.1875 C 60.492188 53.1875 60.496094 53.191406 60.496094 53.191406 C 60.570312 53.265625 60.65625 53.300781 60.757812 53.296875 L 72.523438 53.296875 C 72.628906 53.296875 72.71875 53.257812 72.792969 53.183594 C 72.863281 53.113281 72.902344 53.023438 72.902344 52.917969 L 72.902344 39.023438 C 72.902344 38.921875 72.863281 38.832031 72.792969 38.757812 C 72.71875 38.683594 72.628906 38.648438 72.523438 38.644531 Z M 61.136719 52.539062 L 61.136719 39.402344 L 72.144531 39.402344 L 72.144531 52.539062 Z M 14.507812 38.644531 L 2.742188 38.644531 C 2.636719 38.648438 2.546875 38.683594 2.472656 38.757812 C 2.402344 38.832031 2.363281 38.921875 2.363281 39.023438 L 2.363281 52.917969 C 2.359375 53.019531 2.394531 53.109375 2.46875 53.179688 C 2.46875 53.179688 2.472656 53.183594 2.472656 53.1875 C 2.476562 53.1875 2.476562 53.191406 2.480469 53.191406 C 2.550781 53.265625 2.640625 53.300781 2.742188 53.296875 L 14.507812 53.296875 C 14.613281 53.296875 14.699219 53.257812 14.773438 53.183594 C 14.847656 53.113281 14.886719 53.023438 14.886719 52.917969 L 14.886719 39.023438 C 14.886719 38.921875 14.847656 38.832031 14.773438 38.757812 C 14.699219 38.683594 14.613281 38.648438 14.507812 38.644531 Z M 3.121094 52.539062 L 3.121094 39.402344 L 14.128906 39.402344 L 14.128906 52.539062 Z M 72.523438 18.953125 L 60.757812 18.953125 C 60.652344 18.953125 60.566406 18.992188 60.492188 19.066406 C 60.417969 19.140625 60.378906 19.226562 60.378906 19.332031 L 60.378906 33.226562 C 60.375 33.328125 60.410156 33.414062 60.484375 33.488281 C 60.484375 33.488281 60.488281 33.492188 60.488281 33.496094 C 60.492188 33.496094 60.496094 33.5 60.496094 33.5 C 60.570312 33.574219 60.65625 33.609375 60.757812 33.605469 L 72.523438 33.605469 C 72.628906 33.605469 72.71875 33.566406 72.792969 33.492188 C 72.863281 33.417969 72.902344 33.332031 72.902344 33.226562 L 72.902344 19.332031 C 72.902344 19.226562 72.863281 19.140625 72.792969 19.066406 C 72.71875 18.992188 72.628906 18.953125 72.523438 18.953125 Z M 61.136719 32.847656 L 61.136719 19.710938 L 72.144531 19.710938 L 72.144531 32.847656 Z M 14.507812 18.953125 L 2.742188 18.953125 C 2.636719 18.953125 2.546875 18.992188 2.472656 19.066406 C 2.402344 19.140625 2.363281 19.226562 2.363281 19.332031 L 2.363281 33.226562 C 2.359375 33.328125 2.394531 33.414062 2.46875 33.488281 C 2.46875 33.488281 2.472656 33.492188 2.472656 33.496094 C 2.476562 33.496094 2.476562 33.5 2.480469 33.5 C 2.550781 33.574219 2.640625 33.609375 2.742188 33.605469 L 14.507812 33.605469 C 14.613281 33.605469 14.699219 33.566406 14.773438 33.492188 C 14.847656 33.417969 14.886719 33.332031 14.886719 33.226562 L 14.886719 19.332031 C 14.886719 19.226562 14.847656 19.140625 14.773438 19.066406 C 14.699219 18.992188 14.613281 18.953125 14.507812 18.953125 Z M 3.121094 32.847656 L 3.121094 19.710938 L 14.128906 19.710938 L 14.128906 32.847656 Z M 53.992188 18.660156 L 21.421875 18.660156 C 21.320312 18.660156 21.230469 18.695312 21.15625 18.769531 C 21.082031 18.84375 21.046875 18.933594 21.042969 19.039062 L 21.042969 52.96875 C 21.039062 53.070312 21.074219 53.15625 21.148438 53.230469 C 21.152344 53.230469 21.152344 53.234375 21.15625 53.238281 C 21.15625 53.238281 21.160156 53.242188 21.164062 53.242188 C 21.234375 53.316406 21.320312 53.351562 21.421875 53.347656 L 53.992188 53.347656 C 54.09375 53.347656 54.183594 53.308594 54.257812 53.234375 C 54.332031 53.160156 54.367188 53.074219 54.371094 52.96875 L 54.371094 19.039062 C 54.367188 18.933594 54.332031 18.84375 54.257812 18.769531 C 54.183594 18.695312 54.09375 18.660156 53.992188 18.660156 Z M 21.800781 52.589844 L 21.800781 19.414062 L 53.613281 19.414062 L 53.613281 52.589844 Z M 55.808594 16.613281 L 19.605469 16.613281 C 19.4375 16.613281 19.296875 16.671875 19.175781 16.792969 C 19.058594 16.910156 19 17.050781 19 17.21875 L 19 54.785156 C 19 54.953125 19.058594 55.097656 19.175781 55.214844 C 19.296875 55.332031 19.4375 55.390625 19.605469 55.390625 L 55.808594 55.390625 C 55.96875 55.394531 56.105469 55.339844 56.21875 55.230469 C 56.230469 55.222656 56.238281 55.214844 56.246094 55.207031 C 56.246094 55.207031 56.25 55.203125 56.25 55.203125 C 56.363281 55.085938 56.417969 54.949219 56.414062 54.785156 L 56.414062 17.21875 C 56.414062 17.050781 56.355469 16.910156 56.238281 16.792969 C 56.117188 16.671875 55.976562 16.613281 55.808594 16.613281 Z M 19.984375 54.40625 L 19.984375 17.597656 L 55.429688 17.597656 L 55.429688 54.40625 Z M 16.324219 36.601562 L 0.921875 36.601562 C 0.757812 36.601562 0.613281 36.660156 0.496094 36.777344 C 0.378906 36.898438 0.316406 37.039062 0.316406 37.207031 L 0.316406 54.734375 C 0.316406 54.902344 0.378906 55.046875 0.496094 55.164062 C 0.613281 55.28125 0.757812 55.34375 0.921875 55.34375 L 16.324219 55.34375 C 16.488281 55.34375 16.625 55.289062 16.738281 55.179688 C 16.746094 55.171875 16.75 55.167969 16.753906 55.164062 C 16.757812 55.160156 16.761719 55.15625 16.769531 55.152344 C 16.878906 55.035156 16.933594 54.898438 16.933594 54.734375 L 16.933594 37.207031 C 16.933594 37.039062 16.871094 36.898438 16.753906 36.777344 C 16.636719 36.660156 16.492188 36.601562 16.324219 36.601562 Z M 1.300781 54.359375 L 1.300781 37.585938 L 15.949219 37.585938 L 15.949219 54.359375 Z M 16.324219 16.910156 L 0.921875 16.910156 C 0.757812 16.910156 0.613281 16.96875 0.496094 17.085938 C 0.375 17.203125 0.316406 17.347656 0.316406 17.515625 L 0.316406 35.042969 C 0.316406 35.210938 0.378906 35.355469 0.496094 35.472656 C 0.613281 35.589844 0.757812 35.648438 0.921875 35.648438 L 16.324219 35.648438 C 16.488281 35.652344 16.625 35.597656 16.742188 35.484375 C 16.746094 35.480469 16.753906 35.476562 16.757812 35.46875 C 16.761719 35.464844 16.765625 35.460938 16.769531 35.457031 C 16.878906 35.34375 16.933594 35.203125 16.933594 35.042969 L 16.933594 17.515625 C 16.933594 17.347656 16.871094 17.203125 16.753906 17.085938 C 16.636719 16.96875 16.492188 16.910156 16.324219 16.910156 Z M 1.300781 34.664062 L 1.300781 17.894531 L 15.949219 17.894531 L 15.949219 34.664062 Z M 74.34375 16.910156 L 58.941406 16.910156 C 58.773438 16.910156 58.628906 16.96875 58.511719 17.085938 C 58.394531 17.203125 58.335938 17.347656 58.335938 17.515625 L 58.335938 35.042969 C 58.335938 35.210938 58.394531 35.355469 58.511719 35.472656 C 58.628906 35.589844 58.773438 35.648438 58.941406 35.648438 L 74.34375 35.648438 C 74.503906 35.652344 74.640625 35.597656 74.757812 35.484375 C 74.761719 35.480469 74.769531 35.476562 74.773438 35.46875 C 74.777344 35.464844 74.78125 35.460938 74.785156 35.457031 C 74.898438 35.34375 74.953125 35.203125 74.949219 35.042969 L 74.949219 17.515625 C 74.949219 17.347656 74.890625 17.203125 74.769531 17.085938 C 74.652344 16.96875 74.507812 16.910156 74.34375 16.910156 Z M 59.320312 34.664062 L 59.320312 17.894531 L 73.964844 17.894531 L 73.964844 34.664062 Z M 74.34375 36.601562 L 58.941406 36.601562 C 58.773438 36.601562 58.628906 36.660156 58.511719 36.777344 C 58.394531 36.898438 58.335938 37.039062 58.335938 37.207031 L 58.335938 54.734375 C 58.335938 54.902344 58.394531 55.046875 58.511719 55.164062 C 58.628906 55.28125 58.773438 55.34375 58.941406 55.34375 L 74.34375 55.34375 C 74.503906 55.34375 74.640625 55.289062 74.757812 55.175781 C 74.761719 55.171875 74.765625 55.167969 74.769531 55.164062 C 74.773438 55.160156 74.78125 55.15625 74.785156 55.152344 C 74.898438 55.035156 74.953125 54.898438 74.949219 54.734375 L 74.949219 37.207031 C 74.949219 37.039062 74.890625 36.898438 74.769531 36.777344 C 74.652344 36.660156 74.507812 36.601562 74.34375 36.601562 Z M 59.320312 54.359375 L 59.320312 37.585938 L 73.964844 37.585938 L 73.964844 54.359375 Z M 59.320312 54.359375 "/></g><path style="fill:none;stroke-width:8;stroke-linecap:butt;stroke-linejoin:miter;stroke:#ffbf39;stroke-opacity:1;stroke-miterlimit:4;" d="M -0.0110461 4.007603 L 131.76232 4.007603 " transform="matrix(0.158801,-0.000000000000000138,0.000000000000000138,0.158801,27.197067,56.664369)"/><g clip-rule="nonzero" clip-path="url(#c105fda304)"><path style=" stroke:none;fill-rule:nonzero;fill:#ffbf39;fill-opacity:1;" d="M 72.523438 38.644531 L 60.757812 38.644531 C 60.652344 38.648438 60.566406 38.683594 60.492188 38.757812 C 60.417969 38.832031 60.378906 38.921875 60.378906 39.023438 L 60.378906 52.917969 C 60.375 53.019531 60.410156 53.109375 60.484375 53.179688 C 60.484375 53.183594 60.488281 53.183594 60.488281 53.1875 C 60.492188 53.1875 60.496094 53.191406 60.496094 53.191406 C 60.570312 53.265625 60.65625 53.300781 60.757812 53.296875 L 72.523438 53.296875 C 72.628906 53.296875 72.71875 53.257812 72.792969 53.183594 C 72.863281 53.113281 72.902344 53.023438 72.902344 52.917969 L 72.902344 39.023438 C 72.902344 38.921875 72.863281 38.832031 72.792969 38.757812 C 72.71875 38.683594 72.628906 38.648438 72.523438 38.644531 Z M 61.136719 52.539062 L 61.136719 39.402344 L 72.144531 39.402344 L 72.144531 52.539062 Z M 14.507812 38.644531 L 2.742188 38.644531 C 2.636719 38.648438 2.546875 38.683594 2.472656 38.757812 C 2.402344 38.832031 2.363281 38.921875 2.363281 39.023438 L 2.363281 52.917969 C 2.359375 53.019531 2.394531 53.109375 2.46875 53.179688 C 2.46875 53.179688 2.472656 53.183594 2.472656 53.1875 C 2.476562 53.1875 2.476562 53.191406 2.480469 53.191406 C 2.550781 53.265625 2.640625 53.300781 2.742188 53.296875 L 14.507812 53.296875 C 14.613281 53.296875 14.699219 53.257812 14.773438 53.183594 C 14.847656 53.113281 14.886719 53.023438 14.886719 52.917969 L 14.886719 39.023438 C 14.886719 38.921875 14.847656 38.832031 14.773438 38.757812 C 14.699219 38.683594 14.613281 38.648438 14.507812 38.644531 Z M 3.121094 52.539062 L 3.121094 39.402344 L 14.128906 39.402344 L 14.128906 52.539062 Z M 72.523438 18.953125 L 60.757812 18.953125 C 60.652344 18.953125 60.566406 18.992188 60.492188 19.066406 C 60.417969 19.140625 60.378906 19.226562 60.378906 19.332031 L 60.378906 33.226562 C 60.375 33.328125 60.410156 33.414062 60.484375 33.488281 C 60.484375 33.488281 60.488281 33.492188 60.488281 33.496094 C 60.492188 33.496094 60.496094 33.5 60.496094 33.5 C 60.570312 33.574219 60.65625 33.609375 60.757812 33.605469 L 72.523438 33.605469 C 72.628906 33.605469 72.71875 33.566406 72.792969 33.492188 C 72.863281 33.417969 72.902344 33.332031 72.902344 33.226562 L 72.902344 19.332031 C 72.902344 19.226562 72.863281 19.140625 72.792969 19.066406 C 72.71875 18.992188 72.628906 18.953125 72.523438 18.953125 Z M 61.136719 32.847656 L 61.136719 19.710938 L 72.144531 19.710938 L 72.144531 32.847656 Z M 14.507812 18.953125 L 2.742188 18.953125 C 2.636719 18.953125 2.546875 18.992188 2.472656 19.066406 C 2.402344 19.140625 2.363281 19.226562 2.363281 19.332031 L 2.363281 33.226562 C 2.359375 33.328125 2.394531 33.414062 2.46875 33.488281 C 2.46875 33.488281 2.472656 33.492188 2.472656 33.496094 C 2.476562 33.496094 2.476562 33.5 2.480469 33.5 C 2.550781 33.574219 2.640625 33.609375 2.742188 33.605469 L 14.507812 33.605469 C 14.613281 33.605469 14.699219 33.566406 14.773438 33.492188 C 14.847656 33.417969 14.886719 33.332031 14.886719 33.226562 L 14.886719 19.332031 C 14.886719 19.226562 14.847656 19.140625 14.773438 19.066406 C 14.699219 18.992188 14.613281 18.953125 14.507812 18.953125 Z M 3.121094 32.847656 L 3.121094 19.710938 L 14.128906 19.710938 L 14.128906 32.847656 Z M 53.992188 18.660156 L 21.421875 18.660156 C 21.320312 18.660156 21.230469 18.695312 21.15625 18.769531 C 21.082031 18.84375 21.046875 18.933594 21.042969 19.039062 L 21.042969 52.96875 C 21.039062 53.070312 21.074219 53.15625 21.148438 53.230469 C 21.152344 53.230469 21.152344 53.234375 21.15625 53.238281 C 21.15625 53.238281 21.160156 53.242188 21.164062 53.242188 C 21.234375 53.316406 21.320312 53.351562 21.421875 53.347656 L 53.992188 53.347656 C 54.09375 53.347656 54.183594 53.308594 54.257812 53.234375 C 54.332031 53.160156 54.367188 53.074219 54.371094 52.96875 L 54.371094 19.039062 C 54.367188 18.933594 54.332031 18.84375 54.257812 18.769531 C 54.183594 18.695312 54.09375 18.660156 53.992188 18.660156 Z M 21.800781 52.589844 L 21.800781 19.414062 L 53.613281 19.414062 L 53.613281 52.589844 Z M 55.808594 16.613281 L 19.605469 16.613281 C 19.4375 16.613281 19.296875 16.671875 19.175781 16.792969 C 19.058594 16.910156 19 17.050781 19 17.21875 L 19 54.785156 C 19 54.953125 19.058594 55.097656 19.175781 55.214844 C 19.296875 55.332031 19.4375 55.390625 19.605469 55.390625 L 55.808594 55.390625 C 55.96875 55.394531 56.105469 55.339844 56.21875 55.230469 C 56.230469 55.222656 56.238281 55.214844 56.246094 55.207031 C 56.246094 55.207031 56.25 55.203125 56.25 55.203125 C 56.363281 55.085938 56.417969 54.949219 56.414062 54.785156 L 56.414062 17.21875 C 56.414062 17.050781 56.355469 16.910156 56.238281 16.792969 C 56.117188 16.671875 55.976562 16.613281 55.808594 16.613281 Z M 19.984375 54.40625 L 19.984375 17.597656 L 55.429688 17.597656 L 55.429688 54.40625 Z M 16.324219 36.601562 L 0.921875 36.601562 C 0.757812 36.601562 0.613281 36.660156 0.496094 36.777344 C 0.378906 36.898438 0.316406 37.039062 0.316406 37.207031 L 0.316406 54.734375 C 0.316406 54.902344 0.378906 55.046875 0.496094 55.164062 C 0.613281 55.28125 0.757812 55.34375 0.921875 55.34375 L 16.324219 55.34375 C 16.488281 55.34375 16.625 55.289062 16.738281 55.179688 C 16.746094 55.171875 16.75 55.167969 16.753906 55.164062 C 16.757812 55.160156 16.761719 55.15625 16.769531 55.152344 C 16.878906 55.035156 16.933594 54.898438 16.933594 54.734375 L 16.933594 37.207031 C 16.933594 37.039062 16.871094 36.898438 16.753906 36.777344 C 16.636719 36.660156 16.492188 36.601562 16.324219 36.601562 Z M 1.300781 54.359375 L 1.300781 37.585938 L 15.949219 37.585938 L 15.949219 54.359375 Z M 16.324219 16.910156 L 0.921875 16.910156 C 0.757812 16.910156 0.613281 16.96875 0.496094 17.085938 C 0.375 17.203125 0.316406 17.347656 0.316406 17.515625 L 0.316406 35.042969 C 0.316406 35.210938 0.378906 35.355469 0.496094 35.472656 C 0.613281 35.589844 0.757812 35.648438 0.921875 35.648438 L 16.324219 35.648438 C 16.488281 35.652344 16.625 35.597656 16.742188 35.484375 C 16.746094 35.480469 16.753906 35.476562 16.757812 35.46875 C 16.761719 35.464844 16.765625 35.460938 16.769531 35.457031 C 16.878906 35.34375 16.933594 35.203125 16.933594 35.042969 L 16.933594 17.515625 C 16.933594 17.347656 16.871094 17.203125 16.753906 17.085938 C 16.636719 16.96875 16.492188 16.910156 16.324219 16.910156 Z M 1.300781 34.664062 L 1.300781 17.894531 L 15.949219 17.894531 L 15.949219 34.664062 Z M 74.34375 16.910156 L 58.941406 16.910156 C 58.773438 16.910156 58.628906 16.96875 58.511719 17.085938 C 58.394531 17.203125 58.335938 17.347656 58.335938 17.515625 L 58.335938 35.042969 C 58.335938 35.210938 58.394531 35.355469 58.511719 35.472656 C 58.628906 35.589844 58.773438 35.648438 58.941406 35.648438 L 74.34375 35.648438 C 74.503906 35.652344 74.640625 35.597656 74.757812 35.484375 C 74.761719 35.480469 74.769531 35.476562 74.773438 35.46875 C 74.777344 35.464844 74.78125 35.460938 74.785156 35.457031 C 74.898438 35.34375 74.953125 35.203125 74.949219 35.042969 L 74.949219 17.515625 C 74.949219 17.347656 74.890625 17.203125 74.769531 17.085938 C 74.652344 16.96875 74.507812 16.910156 74.34375 16.910156 Z M 59.320312 34.664062 L 59.320312 17.894531 L 73.964844 17.894531 L 73.964844 34.664062 Z M 74.34375 36.601562 L 58.941406 36.601562 C 58.773438 36.601562 58.628906 36.660156 58.511719 36.777344 C 58.394531 36.898438 58.335938 37.039062 58.335938 37.207031 L 58.335938 54.734375 C 58.335938 54.902344 58.394531 55.046875 58.511719 55.164062 C 58.628906 55.28125 58.773438 55.34375 58.941406 55.34375 L 74.34375 55.34375 C 74.503906 55.34375 74.640625 55.289062 74.757812 55.175781 C 74.761719 55.171875 74.765625 55.167969 74.769531 55.164062 C 74.773438 55.160156 74.78125 55.15625 74.785156 55.152344 C 74.898438 55.035156 74.953125 54.898438 74.949219 54.734375 L 74.949219 37.207031 C 74.949219 37.039062 74.890625 36.898438 74.769531 36.777344 C 74.652344 36.660156 74.507812 36.601562 74.34375 36.601562 Z M 59.320312 54.359375 L 59.320312 37.585938 L 73.964844 37.585938 L 73.964844 54.359375 Z M 59.320312 54.359375 "/></g><path style="fill:none;stroke-width:8;stroke-linecap:butt;stroke-linejoin:miter;stroke:#ffbf39;stroke-opacity:1;stroke-miterlimit:4;" d="M -0.0110461 3.987984 L 131.76232 3.987984 " transform="matrix(0.158801,-0.000000000000000138,0.000000000000000138,0.158801,27.197067,57.132328)"/></g></svg>