<svg xmlns="http://www.w3.org/2000/svg" xmlns:xlink="http://www.w3.org/1999/xlink" width="100" zoomAndPan="magnify" viewBox="0 0 75 74.999997" height="100" preserveAspectRatio="xMidYMid meet" version="1.0"><defs><clipPath id="73f73468a0"><path d="M 7.5 20.894531 L 67.464844 20.894531 L 67.464844 52.152344 L 7.5 52.152344 Z M 7.5 20.894531 " clip-rule="nonzero"/></clipPath></defs><g clip-path="url(#73f73468a0)"><path fill="#ffbf39" d="M 65.546875 38.621094 L 56.085938 38.621094 C 56.003906 38.621094 55.929688 38.648438 55.871094 38.710938 C 55.8125 38.769531 55.78125 38.839844 55.78125 38.921875 L 55.78125 50.09375 C 55.777344 50.175781 55.808594 50.246094 55.867188 50.300781 C 55.867188 50.304688 55.871094 50.304688 55.871094 50.308594 C 55.875 50.308594 55.875 50.3125 55.878906 50.3125 C 55.933594 50.371094 56.003906 50.398438 56.085938 50.398438 L 65.546875 50.398438 C 65.628906 50.394531 65.699219 50.367188 65.761719 50.308594 C 65.820312 50.246094 65.847656 50.175781 65.851562 50.09375 L 65.851562 38.921875 C 65.847656 38.839844 65.820312 38.769531 65.761719 38.710938 C 65.699219 38.648438 65.628906 38.621094 65.546875 38.621094 Z M 56.390625 49.789062 L 56.390625 39.226562 L 65.242188 39.226562 L 65.242188 49.789062 Z M 18.90625 38.621094 L 9.449219 38.621094 C 9.363281 38.621094 9.292969 38.648438 9.234375 38.710938 C 9.175781 38.769531 9.144531 38.839844 9.144531 38.921875 L 9.144531 50.09375 C 9.140625 50.175781 9.167969 50.246094 9.226562 50.300781 C 9.230469 50.304688 9.230469 50.304688 9.234375 50.308594 C 9.234375 50.308594 9.238281 50.3125 9.238281 50.3125 C 9.296875 50.371094 9.367188 50.398438 9.449219 50.398438 L 18.90625 50.398438 C 18.992188 50.394531 19.0625 50.367188 19.121094 50.308594 C 19.179688 50.246094 19.210938 50.175781 19.210938 50.09375 L 19.210938 38.921875 C 19.210938 38.839844 19.179688 38.769531 19.121094 38.710938 C 19.0625 38.648438 18.992188 38.621094 18.90625 38.621094 Z M 9.753906 49.789062 L 9.753906 39.226562 L 18.601562 39.226562 L 18.601562 49.789062 Z M 65.546875 22.789062 L 56.085938 22.789062 C 56.003906 22.789062 55.929688 22.820312 55.871094 22.878906 C 55.8125 22.9375 55.78125 23.007812 55.78125 23.09375 L 55.78125 34.261719 C 55.777344 34.34375 55.808594 34.414062 55.867188 34.472656 C 55.867188 34.472656 55.871094 34.476562 55.871094 34.476562 C 55.875 34.480469 55.875 34.480469 55.878906 34.484375 C 55.933594 34.542969 56.003906 34.570312 56.085938 34.566406 L 65.546875 34.566406 C 65.628906 34.566406 65.699219 34.535156 65.761719 34.476562 C 65.820312 34.417969 65.847656 34.347656 65.851562 34.261719 L 65.851562 23.09375 C 65.847656 23.011719 65.820312 22.9375 65.761719 22.878906 C 65.699219 22.820312 65.628906 22.789062 65.546875 22.789062 Z M 56.390625 33.957031 L 56.390625 23.398438 L 65.242188 23.398438 L 65.242188 33.957031 Z M 18.90625 22.789062 L 9.449219 22.789062 C 9.363281 22.789062 9.292969 22.820312 9.234375 22.878906 C 9.175781 22.9375 9.144531 23.007812 9.144531 23.09375 L 9.144531 34.261719 C 9.140625 34.34375 9.167969 34.414062 9.226562 34.472656 C 9.230469 34.472656 9.230469 34.476562 9.234375 34.476562 C 9.234375 34.480469 9.238281 34.480469 9.238281 34.484375 C 9.296875 34.542969 9.367188 34.570312 9.449219 34.566406 L 18.90625 34.566406 C 18.992188 34.566406 19.0625 34.535156 19.121094 34.476562 C 19.179688 34.417969 19.210938 34.347656 19.210938 34.261719 L 19.210938 23.09375 C 19.210938 23.011719 19.179688 22.9375 19.121094 22.878906 C 19.0625 22.820312 18.992188 22.789062 18.90625 22.789062 Z M 9.753906 33.957031 L 9.753906 23.398438 L 18.601562 23.398438 L 18.601562 33.957031 Z M 50.648438 22.550781 L 24.464844 22.550781 C 24.382812 22.550781 24.3125 22.582031 24.253906 22.640625 C 24.191406 22.699219 24.164062 22.773438 24.160156 22.855469 L 24.160156 50.132812 C 24.160156 50.214844 24.1875 50.285156 24.246094 50.34375 C 24.246094 50.34375 24.25 50.347656 24.25 50.347656 C 24.253906 50.351562 24.253906 50.351562 24.257812 50.351562 C 24.3125 50.414062 24.382812 50.441406 24.464844 50.4375 L 50.648438 50.4375 C 50.730469 50.4375 50.800781 50.40625 50.863281 50.347656 C 50.921875 50.289062 50.949219 50.214844 50.953125 50.132812 L 50.953125 22.855469 C 50.949219 22.773438 50.921875 22.699219 50.863281 22.640625 C 50.800781 22.582031 50.730469 22.550781 50.648438 22.550781 Z M 24.769531 49.828125 L 24.769531 23.160156 L 50.34375 23.160156 L 50.34375 49.828125 Z M 52.109375 20.90625 L 23.003906 20.90625 C 22.871094 20.90625 22.757812 20.957031 22.660156 21.050781 C 22.566406 21.144531 22.519531 21.261719 22.519531 21.394531 L 22.519531 51.59375 C 22.519531 51.726562 22.566406 51.84375 22.660156 51.9375 C 22.757812 52.035156 22.871094 52.082031 23.003906 52.082031 L 52.109375 52.082031 C 52.238281 52.082031 52.347656 52.039062 52.4375 51.953125 C 52.445312 51.945312 52.453125 51.9375 52.457031 51.933594 C 52.460938 51.929688 52.460938 51.929688 52.464844 51.925781 C 52.554688 51.835938 52.597656 51.722656 52.59375 51.59375 L 52.59375 21.394531 C 52.59375 21.261719 52.546875 21.144531 52.453125 21.050781 C 52.359375 20.957031 52.242188 20.90625 52.109375 20.90625 Z M 23.308594 51.289062 L 23.308594 21.699219 L 51.804688 21.699219 L 51.804688 51.289062 Z M 20.367188 36.976562 L 7.988281 36.976562 C 7.851562 36.976562 7.738281 37.023438 7.644531 37.117188 C 7.546875 37.214844 7.5 37.328125 7.5 37.460938 L 7.5 51.554688 C 7.5 51.6875 7.546875 51.804688 7.644531 51.898438 C 7.738281 51.992188 7.851562 52.039062 7.988281 52.042969 L 20.367188 52.042969 C 20.5 52.042969 20.609375 52 20.703125 51.910156 C 20.707031 51.90625 20.710938 51.902344 20.714844 51.898438 C 20.71875 51.894531 20.71875 51.890625 20.722656 51.886719 C 20.816406 51.792969 20.859375 51.683594 20.855469 51.554688 L 20.855469 37.460938 C 20.855469 37.328125 20.808594 37.214844 20.714844 37.117188 C 20.617188 37.023438 20.503906 36.976562 20.367188 36.976562 Z M 8.292969 51.25 L 8.292969 37.765625 L 20.0625 37.765625 L 20.0625 51.25 Z M 20.367188 21.144531 L 7.988281 21.144531 C 7.851562 21.144531 7.738281 21.191406 7.644531 21.289062 C 7.546875 21.382812 7.5 21.496094 7.5 21.632812 L 7.5 35.722656 C 7.5 35.859375 7.546875 35.972656 7.644531 36.066406 C 7.738281 36.164062 7.851562 36.210938 7.988281 36.210938 L 20.367188 36.210938 C 20.5 36.214844 20.609375 36.167969 20.703125 36.078125 C 20.707031 36.074219 20.710938 36.070312 20.714844 36.066406 C 20.71875 36.0625 20.722656 36.058594 20.722656 36.054688 C 20.816406 35.964844 20.859375 35.851562 20.855469 35.722656 L 20.855469 21.632812 C 20.855469 21.496094 20.808594 21.382812 20.714844 21.289062 C 20.617188 21.191406 20.503906 21.144531 20.367188 21.144531 Z M 8.292969 35.417969 L 8.292969 21.9375 L 20.0625 21.9375 L 20.0625 35.417969 Z M 67.007812 21.144531 L 54.625 21.144531 C 54.492188 21.144531 54.375 21.191406 54.28125 21.289062 C 54.1875 21.382812 54.136719 21.496094 54.136719 21.632812 L 54.136719 35.722656 C 54.136719 35.859375 54.1875 35.972656 54.28125 36.066406 C 54.375 36.164062 54.492188 36.210938 54.625 36.210938 L 67.007812 36.210938 C 67.136719 36.214844 67.25 36.167969 67.339844 36.078125 C 67.34375 36.074219 67.351562 36.070312 67.355469 36.066406 C 67.355469 36.0625 67.359375 36.058594 67.363281 36.054688 C 67.453125 35.964844 67.496094 35.851562 67.496094 35.722656 L 67.496094 21.632812 C 67.496094 21.496094 67.445312 21.382812 67.351562 21.289062 C 67.257812 21.191406 67.140625 21.144531 67.007812 21.144531 Z M 54.929688 35.417969 L 54.929688 21.9375 L 66.703125 21.9375 L 66.703125 35.417969 Z M 67.007812 36.976562 L 54.625 36.976562 C 54.492188 36.976562 54.375 37.023438 54.28125 37.117188 C 54.1875 37.214844 54.136719 37.328125 54.136719 37.460938 L 54.136719 51.554688 C 54.136719 51.6875 54.1875 51.804688 54.28125 51.898438 C 54.375 51.992188 54.492188 52.039062 54.625 52.042969 L 67.007812 52.042969 C 67.136719 52.042969 67.246094 52 67.339844 51.910156 C 67.34375 51.90625 67.347656 51.902344 67.351562 51.898438 C 67.355469 51.894531 67.359375 51.890625 67.363281 51.886719 C 67.453125 51.792969 67.496094 51.683594 67.496094 51.554688 L 67.496094 37.460938 C 67.496094 37.328125 67.445312 37.214844 67.351562 37.117188 C 67.257812 37.023438 67.140625 36.976562 67.007812 36.976562 Z M 54.929688 51.25 L 54.929688 37.765625 L 66.703125 37.765625 L 66.703125 51.25 Z M 54.929688 51.25 " fill-opacity="1" fill-rule="nonzero"/></g><path stroke-linecap="butt" transform="matrix(0.127581, -0.000000000000000111, 0.000000000000000111, 0.127581, 29.095017, 53.084673)" fill="none" stroke-linejoin="miter" d="M -0.00992876 3.990216 L 131.768789 3.990216 " stroke="#ffbf39" stroke-width="8" stroke-opacity="1" stroke-miterlimit="4"/></svg>