<svg xmlns="http://www.w3.org/2000/svg" xmlns:xlink="http://www.w3.org/1999/xlink" width="100" zoomAndPan="magnify" viewBox="0 0 75 74.999997" height="100" preserveAspectRatio="xMidYMid meet" version="1.2"><defs><clipPath id="7bea11b937"><path d="M 0.238281 2 L 72.625 2 L 72.625 37 L 0.238281 37 Z M 0.238281 2 "/></clipPath><clipPath id="1a80e7b2b8"><path d="M 25 28 L 38 28 L 38 73.582031 L 25 73.582031 Z M 25 28 "/></clipPath><clipPath id="3c1d88202b"><path d="M 24.910156 61.453125 L 37.832031 61.453125 L 37.832031 73.578125 L 24.910156 73.578125 Z M 24.910156 61.453125 "/></clipPath><clipPath id="77f9281f15"><path d="M 0 4 L 72.386719 4 L 72.386719 38 L 0 38 Z M 0 4 "/></clipPath><clipPath id="92f11525be"><path d="M 25 29 L 38 29 L 38 74.953125 L 25 74.953125 Z M 25 29 "/></clipPath><clipPath id="f943c5b5dd"><path d="M 24.671875 62.820312 L 37.59375 62.820312 L 37.59375 74.945312 L 24.671875 74.945312 Z M 24.671875 62.820312 "/></clipPath><clipPath id="3ed1d45ae3"><path d="M 35 1.367188 L 38 1.367188 L 38 7 L 35 7 Z M 35 1.367188 "/></clipPath></defs><g id="821716ea44"><g clip-rule="nonzero" clip-path="url(#7bea11b937)"><path style=" stroke:none;fill-rule:nonzero;fill:#ffbf39;fill-opacity:1;" d="M 36.386719 28.582031 C 38.757812 28.582031 41.355469 29.214844 43.695312 30.371094 C 45.660156 31.335938 47.277344 32.601562 48.378906 34.015625 C 49.457031 32.597656 51.011719 31.332031 52.871094 30.378906 C 55.121094 29.21875 57.65625 28.582031 60.007812 28.582031 C 62.359375 28.582031 64.898438 29.21875 67.15625 30.378906 C 68.488281 31.058594 69.660156 31.898438 70.617188 32.835938 C 69.824219 26.191406 66.230469 19.566406 60.484375 14.300781 C 53.824219 8.199219 45.039062 4.703125 36.386719 4.703125 C 27.734375 4.703125 18.953125 8.199219 12.292969 14.300781 C 6.546875 19.566406 2.949219 26.191406 2.15625 32.835938 C 3.113281 31.898438 4.289062 31.058594 5.617188 30.378906 C 7.878906 29.21875 10.417969 28.582031 12.769531 28.582031 C 15.121094 28.582031 17.65625 29.21875 19.90625 30.378906 C 21.765625 31.332031 23.316406 32.597656 24.398438 34.015625 C 25.5 32.601562 27.117188 31.335938 29.078125 30.371094 C 31.421875 29.214844 34.015625 28.582031 36.386719 28.582031 Z M 1.117188 36.480469 C 1.042969 36.480469 0.972656 36.472656 0.898438 36.453125 C 0.511719 36.351562 0.238281 36.003906 0.238281 35.601562 C 0.238281 27.570312 4.203125 19.335938 11.109375 13.007812 C 14.5 9.902344 18.371094 7.445312 22.613281 5.707031 C 27.078125 3.878906 31.710938 2.949219 36.386719 2.949219 C 41.0625 2.949219 45.699219 3.878906 50.164062 5.707031 C 54.40625 7.445312 58.277344 9.902344 61.667969 13.007812 C 68.574219 19.335938 72.535156 27.570312 72.535156 35.601562 C 72.535156 36.003906 72.265625 36.351562 71.878906 36.453125 C 71.488281 36.550781 71.082031 36.375 70.890625 36.023438 C 69.144531 32.832031 64.363281 30.332031 60.007812 30.332031 C 55.667969 30.332031 50.898438 32.832031 49.152344 36.023438 C 48.996094 36.304688 48.703125 36.480469 48.382812 36.480469 C 48.0625 36.480469 47.769531 36.304688 47.613281 36.023438 C 45.894531 32.886719 40.859375 30.332031 36.386719 30.332031 C 31.914062 30.332031 26.878906 32.886719 25.160156 36.023438 C 25.007812 36.304688 24.710938 36.480469 24.390625 36.480469 C 24.074219 36.480469 23.777344 36.304688 23.625 36.023438 C 21.878906 32.832031 17.109375 30.332031 12.769531 30.332031 C 8.414062 30.332031 3.632812 32.832031 1.882812 36.023438 C 1.726562 36.308594 1.429688 36.480469 1.117188 36.480469 "/></g><g clip-rule="nonzero" clip-path="url(#1a80e7b2b8)"><path style=" stroke:none;fill-rule:nonzero;fill:#ffbf39;fill-opacity:1;" d="M 30.972656 73.058594 C 30.050781 73.058594 29.136719 72.847656 28.3125 72.433594 C 27.042969 71.789062 26.054688 70.710938 25.457031 69.316406 C 25.269531 68.871094 25.472656 68.355469 25.917969 68.167969 C 26.363281 67.976562 26.878906 68.183594 27.070312 68.628906 C 28.039062 70.894531 30.152344 71.5625 31.820312 71.222656 C 33.605469 70.855469 35.511719 69.257812 35.511719 65.867188 L 35.511719 29.457031 C 35.511719 28.972656 35.902344 28.582031 36.386719 28.582031 C 36.871094 28.582031 37.265625 28.972656 37.265625 29.457031 L 37.265625 65.867188 C 37.265625 67.757812 36.742188 69.429688 35.753906 70.699219 C 34.855469 71.855469 33.582031 72.648438 32.171875 72.9375 C 31.773438 73.019531 31.371094 73.058594 30.972656 73.058594 "/></g><g clip-rule="nonzero" clip-path="url(#3c1d88202b)"><path style=" stroke:none;fill-rule:nonzero;fill:#ffbf39;fill-opacity:1;" d="M 30.972656 73.578125 C 29.964844 73.578125 28.964844 73.34375 28.082031 72.894531 C 26.699219 72.195312 25.628906 71.03125 24.980469 69.519531 C 24.890625 69.304688 24.886719 69.066406 24.972656 68.847656 C 25.058594 68.632812 25.230469 68.460938 25.441406 68.371094 L 26.394531 67.960938 C 26.839844 67.773438 27.355469 67.980469 27.546875 68.425781 C 28.398438 70.421875 30.253906 71.011719 31.714844 70.714844 C 33.226562 70.40625 34.992188 68.949219 34.992188 65.867188 L 34.992188 62.332031 C 34.992188 61.847656 35.386719 61.457031 35.871094 61.457031 L 36.90625 61.457031 C 37.390625 61.457031 37.78125 61.847656 37.78125 62.332031 L 37.78125 65.867188 C 37.78125 67.875 37.222656 69.65625 36.164062 71.019531 C 35.1875 72.269531 33.808594 73.132812 32.273438 73.445312 C 31.847656 73.535156 31.410156 73.578125 30.972656 73.578125 "/></g><path style=" stroke:none;fill-rule:nonzero;fill:#ffbf39;fill-opacity:1;" d="M 36.386719 4.703125 C 35.902344 4.703125 35.511719 4.308594 35.511719 3.824219 L 35.511719 0.878906 C 35.511719 0.394531 35.902344 0.00390625 36.386719 0.00390625 C 36.871094 0.00390625 37.265625 0.394531 37.265625 0.878906 L 37.265625 3.824219 C 37.265625 4.308594 36.871094 4.703125 36.386719 4.703125 "/><g clip-rule="nonzero" clip-path="url(#77f9281f15)"><path style=" stroke:none;fill-rule:nonzero;fill:#ffbf39;fill-opacity:1;" d="M 36.148438 29.949219 C 38.519531 29.949219 41.113281 30.585938 43.457031 31.738281 C 45.417969 32.707031 47.039062 33.972656 48.136719 35.382812 C 49.21875 33.964844 50.773438 32.703125 52.628906 31.746094 C 54.882812 30.585938 57.414062 29.949219 59.765625 29.949219 C 62.117188 29.949219 64.660156 30.585938 66.917969 31.746094 C 68.246094 32.425781 69.421875 33.265625 70.378906 34.203125 C 69.585938 27.558594 65.992188 20.933594 60.242188 15.667969 C 53.582031 9.570312 44.800781 6.070312 36.148438 6.070312 C 27.496094 6.070312 18.710938 9.570312 12.054688 15.667969 C 6.304688 20.933594 2.710938 27.558594 1.917969 34.203125 C 2.875 33.265625 4.046875 32.425781 5.378906 31.746094 C 7.636719 30.585938 10.175781 29.949219 12.53125 29.949219 C 14.878906 29.949219 17.414062 30.585938 19.667969 31.746094 C 21.523438 32.703125 23.078125 33.964844 24.15625 35.382812 C 25.257812 33.972656 26.878906 32.707031 28.839844 31.738281 C 31.179688 30.585938 33.777344 29.949219 36.148438 29.949219 Z M 0.875 37.847656 C 0.804688 37.847656 0.730469 37.839844 0.660156 37.820312 C 0.269531 37.722656 0 37.371094 0 36.972656 C 0 28.941406 3.960938 20.703125 10.871094 14.375 C 14.261719 11.269531 18.128906 8.816406 22.371094 7.074219 C 26.835938 5.246094 31.472656 4.316406 36.148438 4.316406 C 40.824219 4.316406 45.457031 5.246094 49.921875 7.074219 C 54.167969 8.816406 58.035156 11.269531 61.425781 14.375 C 68.335938 20.703125 72.296875 28.941406 72.296875 36.972656 C 72.296875 37.371094 72.023438 37.722656 71.636719 37.820312 C 71.25 37.917969 70.84375 37.742188 70.652344 37.390625 C 68.90625 34.203125 64.125 31.703125 59.765625 31.703125 C 55.425781 31.703125 50.660156 34.203125 48.910156 37.390625 C 48.757812 37.671875 48.464844 37.847656 48.144531 37.847656 C 47.824219 37.847656 47.527344 37.671875 47.375 37.390625 C 45.65625 34.253906 40.621094 31.703125 36.148438 31.703125 C 31.675781 31.703125 26.640625 34.253906 24.921875 37.390625 C 24.769531 37.671875 24.472656 37.847656 24.152344 37.847656 C 23.832031 37.847656 23.539062 37.671875 23.382812 37.390625 C 21.636719 34.203125 16.871094 31.703125 12.53125 31.703125 C 8.171875 31.703125 3.390625 34.203125 1.644531 37.390625 C 1.488281 37.679688 1.191406 37.847656 0.875 37.847656 "/></g><g clip-rule="nonzero" clip-path="url(#92f11525be)"><path style=" stroke:none;fill-rule:nonzero;fill:#ffbf39;fill-opacity:1;" d="M 30.734375 74.429688 C 29.808594 74.429688 28.894531 74.214844 28.074219 73.800781 C 26.804688 73.160156 25.816406 72.082031 25.21875 70.683594 C 25.027344 70.238281 25.234375 69.726562 25.679688 69.535156 C 26.125 69.34375 26.640625 69.550781 26.828125 69.996094 C 27.796875 72.261719 29.914062 72.933594 31.582031 72.589844 C 33.363281 72.226562 35.273438 70.625 35.273438 67.238281 L 35.273438 30.824219 C 35.273438 30.34375 35.664062 29.949219 36.148438 29.949219 C 36.632812 29.949219 37.023438 30.34375 37.023438 30.824219 L 37.023438 67.238281 C 37.023438 69.128906 36.5 70.796875 35.515625 72.066406 C 34.617188 73.222656 33.34375 74.019531 31.933594 74.308594 C 31.535156 74.386719 31.132812 74.429688 30.734375 74.429688 "/></g><g clip-rule="nonzero" clip-path="url(#f943c5b5dd)"><path style=" stroke:none;fill-rule:nonzero;fill:#ffbf39;fill-opacity:1;" d="M 30.730469 74.945312 C 29.726562 74.945312 28.726562 74.710938 27.839844 74.261719 C 26.460938 73.566406 25.386719 72.398438 24.742188 70.886719 C 24.652344 70.675781 24.648438 70.433594 24.734375 70.21875 C 24.820312 70.003906 24.988281 69.828125 25.203125 69.738281 L 26.15625 69.332031 C 26.601562 69.140625 27.117188 69.347656 27.304688 69.792969 C 28.160156 71.789062 30.015625 72.382812 31.476562 72.082031 C 32.988281 71.773438 34.753906 70.316406 34.753906 67.238281 L 34.753906 63.699219 C 34.753906 63.214844 35.144531 62.824219 35.628906 62.824219 L 36.667969 62.824219 C 37.148438 62.824219 37.542969 63.214844 37.542969 63.699219 L 37.542969 67.238281 C 37.542969 69.242188 36.980469 71.023438 35.921875 72.386719 C 34.949219 73.636719 33.566406 74.5 32.035156 74.8125 C 31.609375 74.902344 31.167969 74.945312 30.730469 74.945312 "/></g><g clip-rule="nonzero" clip-path="url(#3ed1d45ae3)"><path style=" stroke:none;fill-rule:nonzero;fill:#ffbf39;fill-opacity:1;" d="M 36.148438 6.070312 C 35.664062 6.070312 35.273438 5.675781 35.273438 5.195312 L 35.273438 2.246094 C 35.273438 1.761719 35.664062 1.371094 36.148438 1.371094 C 36.632812 1.371094 37.023438 1.761719 37.023438 2.246094 L 37.023438 5.195312 C 37.023438 5.675781 36.632812 6.070312 36.148438 6.070312 "/></g></g></svg>