<svg xmlns="http://www.w3.org/2000/svg" xmlns:xlink="http://www.w3.org/1999/xlink" width="100" zoomAndPan="magnify" viewBox="0 0 75 74.999997" height="100" preserveAspectRatio="xMidYMid meet" version="1.2"><defs><clipPath id="3b1764fe2c"><path d="M 0 0 L 74.25 0 L 74.25 74 L 0 74 Z M 0 0 "/></clipPath></defs><g id="5678ffa0a8"><g clip-rule="nonzero" clip-path="url(#3b1764fe2c)"><path style=" stroke:none;fill-rule:evenodd;fill:#ffbf39;fill-opacity:1;" d="M 73.363281 73.640625 L 67.515625 73.640625 C 66.933594 73.640625 66.640625 73.351562 66.640625 72.765625 L 66.640625 23.523438 C 66.640625 22.941406 66.933594 22.648438 67.515625 22.648438 C 67.957031 22.648438 68.394531 22.941406 68.394531 23.523438 L 68.394531 71.890625 L 72.484375 71.890625 L 72.484375 18.996094 L 36.980469 1.898438 L 1.765625 18.996094 L 1.765625 71.890625 L 5.855469 71.890625 L 5.855469 23.523438 C 5.855469 22.941406 6.292969 22.648438 6.734375 22.648438 C 7.316406 22.648438 7.609375 22.941406 7.609375 23.523438 L 7.609375 72.765625 C 7.609375 73.351562 7.316406 73.640625 6.734375 73.640625 L 0.886719 73.640625 C 0.304688 73.640625 0.0117188 73.351562 0.0117188 72.765625 L 0.0117188 18.410156 C 0.0117188 18.117188 0.15625 17.679688 0.449219 17.535156 L 36.6875 0.144531 C 36.832031 0 37.125 0 37.417969 0.144531 L 73.800781 17.535156 C 74.09375 17.679688 74.238281 18.117188 74.238281 18.410156 L 74.238281 72.765625 C 74.238281 73.351562 73.945312 73.640625 73.363281 73.640625 Z M 73.363281 73.640625 "/></g><path style=" stroke:none;fill-rule:evenodd;fill:#ffbf39;fill-opacity:1;" d="M 67.515625 35.652344 L 6.734375 35.652344 C 6.292969 35.652344 5.855469 35.214844 5.855469 34.777344 L 5.855469 23.523438 C 5.855469 22.941406 6.292969 22.648438 6.734375 22.648438 L 67.515625 22.648438 C 67.957031 22.648438 68.394531 22.941406 68.394531 23.523438 L 68.394531 34.777344 C 68.394531 35.214844 67.957031 35.652344 67.515625 35.652344 Z M 7.609375 33.898438 L 66.640625 33.898438 L 66.640625 24.402344 L 7.609375 24.402344 Z M 7.609375 33.898438 "/><path style=" stroke:none;fill-rule:evenodd;fill:#ffbf39;fill-opacity:1;" d="M 42.53125 17.242188 L 30.988281 17.242188 C 30.550781 17.242188 30.113281 16.804688 30.113281 16.363281 L 30.113281 10.519531 C 30.113281 10.082031 30.550781 9.644531 30.988281 9.644531 L 42.53125 9.644531 C 43.117188 9.644531 43.40625 10.082031 43.40625 10.519531 L 43.40625 16.363281 C 43.40625 16.804688 43.117188 17.242188 42.53125 17.242188 Z M 31.863281 15.488281 L 41.65625 15.488281 L 41.65625 11.398438 L 31.863281 11.398438 Z M 31.863281 15.488281 "/><path style=" stroke:none;fill-rule:evenodd;fill:#ffbf39;fill-opacity:1;" d="M 43.699219 41.203125 L 36.539062 41.203125 C 35.808594 41.203125 35.371094 40.621094 35.371094 40.035156 L 35.371094 34.777344 C 35.371094 34.335938 35.808594 33.898438 36.25 33.898438 C 36.6875 33.898438 37.125 34.335938 37.125 34.777344 L 37.125 39.449219 L 43.117188 39.449219 L 43.117188 34.777344 C 43.117188 34.335938 43.40625 33.898438 43.992188 33.898438 C 44.429688 33.898438 44.867188 34.335938 44.867188 34.777344 L 44.867188 40.035156 C 44.867188 40.621094 44.285156 41.203125 43.699219 41.203125 Z M 43.699219 41.203125 "/><path style=" stroke:none;fill-rule:evenodd;fill:#ffbf39;fill-opacity:1;" d="M 58.457031 61.078125 L 40.046875 61.078125 C 39.609375 61.078125 39.171875 60.785156 39.171875 60.34375 C 38.585938 54.355469 33.617188 49.972656 27.773438 49.972656 C 25.582031 49.972656 23.535156 50.554688 21.636719 51.726562 C 21.34375 51.871094 21.050781 51.871094 20.761719 51.726562 C 20.46875 51.578125 20.320312 51.285156 20.320312 50.847656 L 20.320312 34.777344 C 20.320312 34.335938 20.761719 33.898438 21.199219 33.898438 C 21.636719 33.898438 22.074219 34.335938 22.074219 34.777344 L 22.074219 49.386719 C 23.828125 48.65625 25.726562 48.21875 27.773438 48.21875 C 30.988281 48.21875 34.203125 49.386719 36.6875 51.578125 C 38.878906 53.625 40.339844 56.402344 40.777344 59.324219 L 58.164062 59.324219 L 58.164062 34.777344 C 58.164062 34.335938 58.457031 33.898438 59.042969 33.898438 C 59.480469 33.898438 59.917969 34.335938 59.917969 34.777344 L 59.917969 59.613281 C 59.917969 60.492188 59.1875 61.078125 58.457031 61.078125 Z M 58.457031 61.078125 "/><path style=" stroke:none;fill-rule:evenodd;fill:#ffbf39;fill-opacity:1;" d="M 53.488281 51.285156 L 44.429688 51.285156 C 43.992188 51.285156 43.554688 50.996094 43.554688 50.410156 C 43.554688 49.972656 43.992188 49.53125 44.429688 49.53125 L 53.488281 49.53125 C 54.074219 49.53125 54.367188 49.972656 54.367188 50.410156 C 54.367188 50.996094 54.074219 51.285156 53.488281 51.285156 Z M 53.488281 51.285156 "/><path style=" stroke:none;fill-rule:evenodd;fill:#ffbf39;fill-opacity:1;" d="M 53.488281 54.9375 L 41.070312 54.9375 C 40.632812 54.9375 40.195312 54.648438 40.195312 54.0625 C 40.195312 53.625 40.632812 53.1875 41.070312 53.1875 L 53.488281 53.1875 C 54.074219 53.1875 54.367188 53.625 54.367188 54.0625 C 54.367188 54.648438 54.074219 54.9375 53.488281 54.9375 Z M 53.488281 54.9375 "/><path style=" stroke:none;fill-rule:evenodd;fill:#ffbf39;fill-opacity:1;" d="M 32.886719 70.71875 L 22.511719 70.71875 C 21.636719 70.71875 21.050781 70.136719 21.050781 69.257812 L 21.050781 60.636719 C 21.050781 59.90625 21.636719 59.324219 22.511719 59.324219 L 32.886719 59.324219 C 33.765625 59.324219 34.347656 59.90625 34.347656 60.636719 L 34.347656 69.257812 C 34.347656 70.136719 33.765625 70.71875 32.886719 70.71875 Z M 22.804688 68.964844 L 32.59375 68.964844 L 32.59375 61.078125 L 22.804688 61.078125 Z M 22.804688 68.964844 "/><path style=" stroke:none;fill-rule:evenodd;fill:#ffbf39;fill-opacity:1;" d="M 31.574219 61.078125 L 23.828125 61.078125 C 23.242188 61.078125 22.953125 60.636719 22.953125 60.199219 L 22.953125 57.132812 C 22.953125 54.355469 24.996094 52.308594 27.773438 52.308594 C 30.402344 52.308594 32.449219 54.355469 32.449219 57.132812 L 32.449219 60.199219 C 32.449219 60.636719 32.15625 61.078125 31.574219 61.078125 Z M 24.707031 59.324219 L 30.695312 59.324219 L 30.695312 57.132812 C 30.695312 55.378906 29.382812 54.0625 27.773438 54.0625 C 26.019531 54.0625 24.707031 55.378906 24.707031 57.132812 Z M 24.707031 59.324219 "/><path style=" stroke:none;fill-rule:evenodd;fill:#ffbf39;fill-opacity:1;" d="M 27.773438 67.359375 C 26.3125 67.359375 25.289062 66.335938 25.289062 64.875 C 25.289062 63.558594 26.3125 62.390625 27.773438 62.390625 C 29.089844 62.390625 30.113281 63.558594 30.113281 64.875 C 30.113281 66.335938 29.089844 67.359375 27.773438 67.359375 Z M 27.773438 64.144531 C 27.335938 64.144531 27.042969 64.582031 27.042969 64.875 C 27.042969 65.3125 27.335938 65.605469 27.773438 65.605469 C 28.066406 65.605469 28.359375 65.3125 28.359375 64.875 C 28.359375 64.582031 28.066406 64.144531 27.773438 64.144531 Z M 27.773438 64.144531 "/><path style=" stroke:none;fill-rule:evenodd;fill:#ffbf39;fill-opacity:1;" d="M 27.773438 70.71875 C 27.1875 70.71875 26.898438 70.28125 26.898438 69.84375 L 26.898438 66.484375 C 26.898438 66.042969 27.1875 65.605469 27.773438 65.605469 C 28.210938 65.605469 28.648438 66.042969 28.648438 66.484375 L 28.648438 69.84375 C 28.648438 70.28125 28.210938 70.71875 27.773438 70.71875 Z M 27.773438 70.71875 "/><path style=" stroke:none;fill-rule:evenodd;fill:#ffbf39;fill-opacity:1;" d="M 27.773438 74.8125 C 20.320312 74.8125 14.332031 68.820312 14.332031 61.515625 C 14.332031 54.207031 20.320312 48.21875 27.773438 48.21875 C 35.078125 48.21875 41.070312 54.207031 41.070312 61.515625 C 41.070312 68.820312 35.078125 74.8125 27.773438 74.8125 Z M 27.773438 49.972656 C 21.34375 49.972656 16.085938 55.085938 16.085938 61.515625 C 16.085938 67.945312 21.34375 73.058594 27.773438 73.058594 C 34.054688 73.058594 39.316406 67.945312 39.316406 61.515625 C 39.316406 55.085938 34.054688 49.972656 27.773438 49.972656 Z M 27.773438 49.972656 "/><path style=" stroke:none;fill-rule:evenodd;fill:#ffbf39;fill-opacity:1;" d="M 67.515625 29.953125 L 6.734375 29.953125 C 6.292969 29.953125 5.855469 29.660156 5.855469 29.078125 C 5.855469 28.636719 6.292969 28.199219 6.734375 28.199219 L 67.515625 28.199219 C 67.957031 28.199219 68.394531 28.636719 68.394531 29.078125 C 68.394531 29.660156 67.957031 29.953125 67.515625 29.953125 Z M 67.515625 29.953125 "/></g></svg>