<svg xmlns="http://www.w3.org/2000/svg" xmlns:xlink="http://www.w3.org/1999/xlink" width="100" zoomAndPan="magnify" viewBox="0 0 75 74.999997" height="100" preserveAspectRatio="xMidYMid meet" version="1.2"><defs><clipPath id="0f1567f00a"><path d="M 0.722656 26 L 7 26 L 7 40 L 0.722656 40 Z M 0.722656 26 "/></clipPath><clipPath id="c885bafcdd"><path d="M 0.722656 27 L 7 27 L 7 41 L 0.722656 41 Z M 0.722656 27 "/></clipPath><clipPath id="d6abe3f2d3"><path d="M 1.179688 26 L 8 26 L 8 40 L 1.179688 40 Z M 1.179688 26 "/></clipPath><clipPath id="a99fc1f707"><path d="M 0.722656 25 L 7 25 L 7 40 L 0.722656 40 Z M 0.722656 25 "/></clipPath><clipPath id="805e3ba169"><path d="M 0.722656 26 L 7 26 L 7 41 L 0.722656 41 Z M 0.722656 26 "/></clipPath><clipPath id="5e20710b8e"><path d="M 32 47 L 45 47 L 45 73.902344 L 32 73.902344 Z M 32 47 "/></clipPath><clipPath id="1a5a677c31"><path d="M 31 46 L 44 46 L 44 72.808594 L 31 72.808594 Z M 31 46 "/></clipPath><clipPath id="496d781635"><path d="M 1.179688 25 L 8 25 L 8 40 L 1.179688 40 Z M 1.179688 25 "/></clipPath></defs><g id="65645eace8"><path style=" stroke:none;fill-rule:evenodd;fill:#ffbf39;fill-opacity:1;" d="M 5.914062 25.964844 C 28.257812 21.433594 74.457031 22.476562 72.410156 25.429688 C 71.085938 27.335938 57.503906 26.417969 58.40625 29.398438 C 47.714844 30.144531 36.898438 31.15625 26.023438 31.503906 C 36.230469 30.792969 46.632812 29.125 56.839844 28.414062 C 55.976562 25.109375 69.492188 27.179688 70.902344 25.511719 C 73.144531 22.859375 27.304688 22.382812 5.914062 25.964844 Z M 5.914062 25.964844 "/><path style=" stroke:none;fill-rule:evenodd;fill:#ffbf39;fill-opacity:1;" d="M 54.550781 22.984375 C 65.171875 19.539062 71.371094 16.519531 71.492188 14.160156 C 71.605469 11.933594 66.925781 11.222656 62.925781 11.453125 C 57.902344 11.742188 57.460938 10.0625 56.417969 6.527344 C 55.554688 3.601562 53.960938 0.574219 45.109375 1.777344 C 38.609375 7.722656 32.113281 13.671875 25.613281 19.621094 C 32.257812 14.128906 39.332031 8.050781 45.359375 2.535156 C 53.570312 1.421875 54.921875 4.546875 55.722656 7.261719 C 56.691406 10.539062 57.382812 12.550781 62.039062 12.28125 C 65.75 12.070312 69.9375 12.582031 69.832031 14.644531 C 69.71875 16.835938 64.398438 19.789062 54.550781 22.984375 Z M 54.550781 22.984375 "/><path style=" stroke:none;fill-rule:evenodd;fill:#ffbf39;fill-opacity:1;" d="M 46.992188 7.382812 C 47.625 14.96875 48.527344 22.445312 50.972656 29.316406 C 51.65625 29.257812 52.339844 29.203125 53.023438 29.144531 C 50.558594 22.675781 48.714844 15.132812 46.992188 7.382812 Z M 46.992188 7.382812 "/><path style=" stroke:none;fill-rule:evenodd;fill:#ffbf39;fill-opacity:1;" d="M 46.902344 7.117188 C 47.304688 7.117188 47.628906 7.234375 47.628906 7.375 C 47.628906 7.394531 47.621094 7.410156 47.613281 7.425781 C 47.566406 7.351562 47.375 7.292969 47.148438 7.292969 C 46.886719 7.292969 46.671875 7.371094 46.671875 7.464844 C 46.671875 7.546875 46.828125 7.613281 47.039062 7.632812 C 46.996094 7.632812 46.949219 7.636719 46.902344 7.636719 C 46.503906 7.636719 46.179688 7.519531 46.179688 7.375 C 46.179688 7.234375 46.503906 7.117188 46.902344 7.117188 Z M 46.902344 7.117188 "/><path style=" stroke:none;fill-rule:evenodd;fill:#ffbf39;fill-opacity:1;" d="M 56.964844 43.386719 L 19.769531 49.300781 C 32.703125 47.703125 45.636719 46.105469 58.570312 44.507812 C 57.898438 40.125 57.691406 35.328125 58.507812 30.710938 C 57.128906 34.730469 56.597656 39.117188 56.964844 43.386719 Z M 56.964844 43.386719 "/><path style=" stroke:none;fill-rule:evenodd;fill:#ffbf39;fill-opacity:1;" d="M 70.839844 37.289062 C 64.800781 37.871094 61.269531 39.246094 59.355469 41.136719 C 63.167969 39.371094 67.375 38.5 71.761719 38.046875 C 72.386719 37.980469 72.851562 37.519531 72.832031 36.976562 C 72.707031 33.355469 72.652344 29.734375 72.617188 26.117188 C 72.050781 29.457031 71.855469 32.832031 71.917969 36.234375 C 71.925781 36.777344 71.460938 37.230469 70.839844 37.289062 Z M 70.839844 37.289062 "/><path style=" stroke:none;fill-rule:evenodd;fill:#ffbf39;fill-opacity:1;" d="M 62.511719 42.09375 C 62.886719 47.066406 63.464844 52.824219 64.050781 57.484375 C 64.160156 58.367188 65.496094 57.851562 65.664062 57.078125 C 66.996094 50.910156 65.695312 39.339844 69.460938 38.558594 C 64.222656 39.609375 66.210938 50.535156 65.242188 56.421875 C 65.121094 57.164062 64.476562 57.476562 64.40625 56.632812 C 64.035156 52.183594 63.511719 45.46875 62.511719 42.09375 Z M 62.511719 42.09375 "/><path style=" stroke:none;fill-rule:evenodd;fill:#ffbf39;fill-opacity:1;" d="M 16.101562 46.367188 C 15.582031 50.625 14.84375 55.5625 14.125 59.554688 C 13.992188 60.3125 12.667969 59.871094 12.523438 59.207031 C 11.363281 53.921875 12.664062 44.832031 9.167969 43.429688 C 14.378906 44.332031 12.160156 53.601562 12.960938 58.648438 C 13.0625 59.28125 13.699219 59.550781 13.792969 58.828125 C 14.289062 55.015625 15.003906 49.257812 16.101562 46.367188 Z M 16.101562 46.367188 "/><g clip-rule="nonzero" clip-path="url(#0f1567f00a)"><path style=" stroke:none;fill-rule:evenodd;fill:#ffbf39;fill-opacity:1;" d="M 6.609375 32.285156 C 6.378906 30.238281 6.144531 28.1875 5.914062 26.140625 C 5.871094 27.953125 5.832031 29.765625 5.792969 31.578125 C 5.777344 32.265625 5.234375 32.839844 4.453125 32.992188 C 3.277344 33.222656 2.097656 33.453125 0.917969 33.679688 C 0.8125 33.699219 0.742188 33.78125 0.742188 33.875 C 0.808594 35.765625 0.871094 37.65625 0.933594 39.546875 C 1.0625 37.839844 1.191406 36.132812 1.316406 34.429688 C 1.324219 34.335938 1.40625 34.261719 1.515625 34.25 C 2.710938 34.132812 3.902344 34.015625 5.097656 33.898438 C 6.027344 33.808594 6.703125 33.089844 6.609375 32.285156 Z M 6.609375 32.285156 "/></g><path style=" stroke:none;fill-rule:evenodd;fill:#ffbf39;fill-opacity:1;" d="M 19.339844 41.757812 C 19.277344 41.917969 19.214844 42.082031 19.152344 42.242188 C 13.765625 39.75 8.359375 37.269531 2.550781 35.101562 C 7.929688 36.457031 13.625 39.058594 19.339844 41.757812 Z M 19.339844 41.757812 "/><path style=" stroke:none;fill-rule:evenodd;fill:#ffbf39;fill-opacity:1;" d="M 19.40625 48.925781 C 14.113281 45.925781 7.273438 42.382812 1.566406 39.664062 C 6.789062 41.515625 13.515625 44.890625 19.0625 48.082031 L 18.855469 41.882812 C 18.851562 41.765625 18.941406 41.667969 19.070312 41.640625 C 20.546875 41.351562 22.023438 41.066406 23.5 40.777344 C 24.472656 40.589844 25.152344 39.871094 25.171875 39.007812 C 25.222656 36.738281 25.273438 34.472656 25.324219 32.203125 C 25.617188 34.765625 25.90625 37.332031 26.199219 39.894531 C 26.3125 40.902344 25.464844 41.800781 24.304688 41.917969 C 22.808594 42.0625 21.316406 42.207031 19.820312 42.355469 C 19.683594 42.367188 19.582031 42.460938 19.574219 42.578125 C 19.53125 43.152344 20.167969 47.882812 19.40625 48.925781 Z M 19.40625 48.925781 "/><path style=" stroke:none;fill-rule:evenodd;fill:#ffbf39;fill-opacity:1;" d="M 27.625 30.074219 L 27.839844 29.675781 L 30.460938 20.671875 L 18 19.367188 L 15.964844 25.546875 L 17.722656 18.675781 L 32.1875 20.300781 L 29.382812 30.046875 Z M 27.625 30.074219 "/><path style=" stroke:none;fill-rule:evenodd;fill:#ffbf39;fill-opacity:1;" d="M 32.066406 53.289062 C 32.390625 59.410156 32.90625 66.5 33.4375 72.234375 C 33.539062 73.324219 34.84375 72.6875 35.011719 71.734375 C 35.925781 66.578125 35.890625 58.8125 36.507812 54.015625 C 36.972656 50.445312 42.066406 49.25 44.246094 49.246094 C 44.375 49.246094 44.484375 49.207031 44.570312 49.128906 C 44.660156 49.054688 44.703125 48.960938 44.699219 48.851562 C 44.675781 48.183594 44.617188 47.207031 44.617188 46.730469 C 44.308594 46.773438 43.996094 46.816406 43.6875 46.859375 C 43.6875 47.171875 43.6875 47.484375 43.6875 47.796875 C 43.6875 47.984375 43.527344 48.144531 43.308594 48.175781 C 39.28125 48.730469 36.578125 50.457031 35.722656 53.9375 C 34.59375 58.546875 35.285156 65.972656 34.609375 70.929688 C 34.484375 71.839844 33.851562 72.226562 33.792969 71.191406 C 33.46875 65.710938 33.015625 57.441406 32.066406 53.289062 Z M 32.066406 53.289062 "/><path style=" stroke:none;fill-rule:evenodd;fill:#ffbf39;fill-opacity:1;" d="M 24.808594 31.722656 C 20.609375 30.425781 8.742188 27.050781 6.570312 26.402344 C 11.949219 27.351562 19.679688 29.105469 24.808594 31.722656 Z M 24.808594 31.722656 "/><path style=" stroke:none;fill-rule:evenodd;fill:#ffbf39;fill-opacity:1;" d="M 24.160156 39.902344 C 21 38.367188 10.746094 34.855469 8.574219 34.316406 C 13.214844 35.421875 19.851562 37.351562 24.160156 39.902344 Z M 24.160156 39.902344 "/><path style=" stroke:none;fill-rule:evenodd;fill:#ffbf39;fill-opacity:1;" d="M 5.914062 26.828125 C 28.257812 22.296875 74.457031 23.34375 72.410156 26.296875 C 71.085938 28.203125 57.503906 27.28125 58.40625 30.265625 C 47.714844 31.007812 36.898438 32.023438 26.023438 32.367188 C 36.230469 31.65625 46.632812 29.992188 56.839844 29.277344 C 55.976562 25.972656 69.492188 28.042969 70.902344 26.378906 C 73.144531 23.722656 27.304688 23.25 5.914062 26.828125 Z M 5.914062 26.828125 "/><path style=" stroke:none;fill-rule:evenodd;fill:#ffbf39;fill-opacity:1;" d="M 54.550781 23.847656 C 65.171875 20.402344 71.371094 17.382812 71.492188 15.023438 C 71.605469 12.796875 66.925781 12.085938 62.925781 12.316406 C 57.902344 12.605469 57.460938 10.925781 56.417969 7.390625 C 55.554688 4.464844 53.960938 1.4375 45.109375 2.640625 C 38.609375 8.589844 32.113281 14.535156 25.613281 20.484375 C 32.257812 14.996094 39.332031 8.917969 45.359375 3.402344 C 53.570312 2.285156 54.921875 5.410156 55.722656 8.125 C 56.691406 11.402344 57.382812 13.414062 62.039062 13.148438 C 65.75 12.933594 69.9375 13.449219 69.832031 15.511719 C 69.71875 17.699219 64.398438 20.652344 54.550781 23.847656 Z M 54.550781 23.847656 "/><path style=" stroke:none;fill-rule:evenodd;fill:#ffbf39;fill-opacity:1;" d="M 46.992188 8.246094 C 47.625 15.832031 48.527344 23.308594 50.972656 30.179688 C 51.65625 30.121094 52.339844 30.066406 53.023438 30.007812 C 50.558594 23.539062 48.714844 16 46.992188 8.246094 Z M 46.992188 8.246094 "/><path style=" stroke:none;fill-rule:evenodd;fill:#ffbf39;fill-opacity:1;" d="M 46.902344 7.980469 C 47.304688 7.980469 47.628906 8.097656 47.628906 8.242188 C 47.628906 8.257812 47.621094 8.273438 47.613281 8.289062 C 47.566406 8.214844 47.375 8.15625 47.148438 8.15625 C 46.886719 8.15625 46.671875 8.234375 46.671875 8.328125 C 46.671875 8.410156 46.828125 8.476562 47.039062 8.496094 C 46.996094 8.5 46.949219 8.5 46.902344 8.5 C 46.503906 8.5 46.179688 8.382812 46.179688 8.242188 C 46.179688 8.097656 46.503906 7.980469 46.902344 7.980469 Z M 46.902344 7.980469 "/><path style=" stroke:none;fill-rule:evenodd;fill:#ffbf39;fill-opacity:1;" d="M 56.964844 44.253906 L 19.769531 50.164062 C 32.703125 48.566406 45.636719 46.96875 58.570312 45.371094 C 57.898438 40.988281 57.691406 36.195312 58.507812 31.574219 C 57.128906 35.597656 56.597656 39.984375 56.964844 44.253906 Z M 56.964844 44.253906 "/><path style=" stroke:none;fill-rule:evenodd;fill:#ffbf39;fill-opacity:1;" d="M 70.839844 38.15625 C 64.800781 38.734375 61.269531 40.109375 59.355469 42 C 63.167969 40.238281 67.375 39.367188 71.761719 38.910156 C 72.386719 38.847656 72.851562 38.386719 72.832031 37.839844 C 72.707031 34.21875 72.652344 30.601562 72.617188 26.980469 C 72.050781 30.320312 71.855469 33.699219 71.917969 37.097656 C 71.925781 37.640625 71.460938 38.09375 70.839844 38.15625 Z M 70.839844 38.15625 "/><path style=" stroke:none;fill-rule:evenodd;fill:#ffbf39;fill-opacity:1;" d="M 62.511719 42.957031 C 62.886719 47.929688 63.464844 53.6875 64.050781 58.347656 C 64.160156 59.230469 65.496094 58.714844 65.664062 57.941406 C 66.996094 51.777344 65.695312 40.203125 69.460938 39.421875 C 64.222656 40.472656 66.210938 51.398438 65.242188 57.289062 C 65.121094 58.027344 64.476562 58.339844 64.40625 57.496094 C 64.035156 53.046875 63.511719 46.332031 62.511719 42.957031 Z M 62.511719 42.957031 "/><path style=" stroke:none;fill-rule:evenodd;fill:#ffbf39;fill-opacity:1;" d="M 16.101562 47.230469 C 15.582031 51.492188 14.84375 56.429688 14.125 60.421875 C 13.992188 61.175781 12.667969 60.734375 12.523438 60.070312 C 11.363281 54.789062 12.664062 45.695312 9.167969 44.292969 C 14.378906 45.195312 12.160156 54.464844 12.960938 59.511719 C 13.0625 60.144531 13.699219 60.414062 13.792969 59.691406 C 14.289062 55.878906 15.003906 50.121094 16.101562 47.230469 Z M 16.101562 47.230469 "/><g clip-rule="nonzero" clip-path="url(#c885bafcdd)"><path style=" stroke:none;fill-rule:evenodd;fill:#ffbf39;fill-opacity:1;" d="M 6.609375 33.152344 C 6.378906 31.101562 6.144531 29.054688 5.914062 27.003906 C 5.871094 28.816406 5.832031 30.628906 5.792969 32.441406 C 5.777344 33.132812 5.234375 33.703125 4.453125 33.855469 C 3.277344 34.085938 2.097656 34.316406 0.917969 34.546875 C 0.8125 34.566406 0.742188 34.644531 0.742188 34.738281 C 0.808594 36.628906 0.871094 38.519531 0.933594 40.410156 C 1.0625 38.707031 1.191406 37 1.316406 35.292969 C 1.324219 35.199219 1.40625 35.125 1.515625 35.113281 C 2.710938 35 3.902344 34.882812 5.097656 34.765625 C 6.027344 34.675781 6.703125 33.953125 6.609375 33.152344 Z M 6.609375 33.152344 "/></g><path style=" stroke:none;fill-rule:evenodd;fill:#ffbf39;fill-opacity:1;" d="M 19.339844 42.621094 C 19.277344 42.78125 19.214844 42.945312 19.152344 43.109375 C 13.765625 40.613281 8.359375 38.132812 2.550781 35.964844 C 7.929688 37.320312 13.625 39.921875 19.339844 42.621094 Z M 19.339844 42.621094 "/><path style=" stroke:none;fill-rule:evenodd;fill:#ffbf39;fill-opacity:1;" d="M 19.40625 49.789062 C 14.113281 46.792969 7.273438 43.246094 1.566406 40.527344 C 6.789062 42.382812 13.515625 45.757812 19.0625 48.945312 L 18.855469 42.75 C 18.851562 42.632812 18.941406 42.53125 19.070312 42.503906 C 20.546875 42.21875 22.023438 41.929688 23.5 41.644531 C 24.472656 41.453125 25.152344 40.734375 25.171875 39.871094 C 25.222656 37.605469 25.273438 35.335938 25.324219 33.066406 C 25.617188 35.632812 25.90625 38.195312 26.199219 40.757812 C 26.3125 41.765625 25.464844 42.667969 24.304688 42.78125 C 22.808594 42.925781 21.316406 43.074219 19.820312 43.21875 C 19.683594 43.230469 19.582031 43.324219 19.574219 43.445312 C 19.53125 44.015625 20.167969 48.746094 19.40625 49.789062 Z M 19.40625 49.789062 "/><path style=" stroke:none;fill-rule:evenodd;fill:#ffbf39;fill-opacity:1;" d="M 27.625 30.9375 L 27.839844 30.539062 L 30.460938 21.535156 L 18 20.230469 L 15.964844 26.410156 L 17.722656 19.539062 L 32.1875 21.164062 L 29.382812 30.910156 Z M 27.625 30.9375 "/><path style=" stroke:none;fill-rule:evenodd;fill:#ffbf39;fill-opacity:1;" d="M 32.066406 54.152344 C 32.390625 60.273438 32.90625 67.367188 33.4375 73.101562 C 33.539062 74.1875 34.84375 73.554688 35.011719 72.601562 C 35.925781 67.445312 35.890625 59.675781 36.507812 54.878906 C 36.972656 51.3125 42.066406 50.113281 44.246094 50.109375 C 44.375 50.109375 44.484375 50.070312 44.570312 49.996094 C 44.660156 49.917969 44.703125 49.824219 44.699219 49.714844 C 44.675781 49.046875 44.617188 48.074219 44.617188 47.597656 C 44.308594 47.636719 43.996094 47.679688 43.6875 47.722656 C 43.6875 48.035156 43.6875 48.347656 43.6875 48.660156 C 43.6875 48.851562 43.527344 49.007812 43.308594 49.039062 C 39.28125 49.59375 36.578125 51.324219 35.722656 54.804688 C 34.59375 59.410156 35.285156 66.835938 34.609375 71.796875 C 34.484375 72.707031 33.851562 73.09375 33.792969 72.054688 C 33.46875 66.578125 33.015625 58.308594 32.066406 54.152344 Z M 32.066406 54.152344 "/><path style=" stroke:none;fill-rule:evenodd;fill:#ffbf39;fill-opacity:1;" d="M 24.808594 32.585938 C 20.609375 31.289062 8.742188 27.914062 6.570312 27.265625 C 11.949219 28.21875 19.679688 29.972656 24.808594 32.585938 Z M 24.808594 32.585938 "/><path style=" stroke:none;fill-rule:evenodd;fill:#ffbf39;fill-opacity:1;" d="M 24.160156 40.769531 C 21 39.234375 10.746094 35.722656 8.574219 35.179688 C 13.214844 36.289062 19.851562 38.21875 24.160156 40.769531 Z M 24.160156 40.769531 "/><path style=" stroke:none;fill-rule:evenodd;fill:#ffbf39;fill-opacity:1;" d="M 5.191406 25.734375 C 27.539062 21.203125 73.738281 22.25 71.6875 25.203125 C 70.363281 27.109375 56.78125 26.1875 57.6875 29.171875 C 46.996094 29.914062 36.179688 30.929688 25.300781 31.273438 C 35.507812 30.5625 45.914062 28.898438 56.117188 28.1875 C 55.253906 24.878906 68.769531 26.953125 70.179688 25.285156 C 72.425781 22.628906 26.585938 22.15625 5.191406 25.734375 Z M 5.191406 25.734375 "/><path style=" stroke:none;fill-rule:evenodd;fill:#ffbf39;fill-opacity:1;" d="M 53.828125 22.757812 C 64.449219 19.308594 70.652344 16.289062 70.773438 13.929688 C 70.886719 11.703125 66.203125 10.992188 62.203125 11.222656 C 57.183594 11.511719 56.742188 9.832031 55.695312 6.296875 C 54.832031 3.371094 53.242188 0.34375 44.386719 1.546875 C 37.890625 7.496094 31.390625 13.441406 24.894531 19.390625 C 31.535156 13.902344 38.613281 7.824219 44.636719 2.308594 C 52.847656 1.191406 54.199219 4.316406 55.003906 7.03125 C 55.972656 10.308594 56.664062 12.320312 61.320312 12.054688 C 65.027344 11.839844 69.214844 12.355469 69.109375 14.417969 C 69 16.605469 63.679688 19.558594 53.828125 22.757812 Z M 53.828125 22.757812 "/><path style=" stroke:none;fill-rule:evenodd;fill:#ffbf39;fill-opacity:1;" d="M 46.269531 7.15625 C 46.902344 14.738281 47.804688 22.214844 50.253906 29.085938 C 50.9375 29.03125 51.617188 28.972656 52.300781 28.914062 C 49.835938 22.445312 47.992188 14.90625 46.269531 7.15625 Z M 46.269531 7.15625 "/><path style=" stroke:none;fill-rule:evenodd;fill:#ffbf39;fill-opacity:1;" d="M 46.183594 6.886719 C 46.582031 6.886719 46.90625 7.003906 46.90625 7.148438 C 46.90625 7.164062 46.902344 7.179688 46.894531 7.195312 C 46.84375 7.121094 46.65625 7.066406 46.429688 7.066406 C 46.164062 7.066406 45.949219 7.140625 45.949219 7.234375 C 45.949219 7.316406 46.109375 7.386719 46.316406 7.402344 C 46.273438 7.40625 46.226562 7.40625 46.183594 7.40625 C 45.78125 7.40625 45.457031 7.289062 45.457031 7.148438 C 45.457031 7.003906 45.78125 6.886719 46.183594 6.886719 Z M 46.183594 6.886719 "/><path style=" stroke:none;fill-rule:evenodd;fill:#ffbf39;fill-opacity:1;" d="M 56.246094 43.160156 L 19.046875 49.070312 C 31.980469 47.472656 44.914062 45.875 57.847656 44.277344 C 57.175781 39.894531 56.972656 35.101562 57.789062 30.480469 C 56.40625 34.503906 55.875 38.890625 56.246094 43.160156 Z M 56.246094 43.160156 "/><path style=" stroke:none;fill-rule:evenodd;fill:#ffbf39;fill-opacity:1;" d="M 70.117188 37.0625 C 64.082031 37.640625 60.546875 39.015625 58.636719 40.910156 C 62.445312 39.144531 66.652344 38.273438 71.042969 37.816406 C 71.667969 37.753906 72.128906 37.292969 72.109375 36.746094 C 71.988281 33.125 71.929688 29.507812 71.898438 25.886719 C 71.328125 29.226562 71.136719 32.605469 71.195312 36.003906 C 71.203125 36.546875 70.742188 37 70.117188 37.0625 Z M 70.117188 37.0625 "/><path style=" stroke:none;fill-rule:evenodd;fill:#ffbf39;fill-opacity:1;" d="M 61.789062 41.863281 C 62.167969 46.835938 62.742188 52.597656 63.328125 57.253906 C 63.4375 58.136719 64.777344 57.621094 64.941406 56.847656 C 66.277344 50.683594 64.972656 39.109375 68.738281 38.328125 C 63.5 39.378906 65.488281 50.304688 64.523438 56.195312 C 64.398438 56.933594 63.753906 57.246094 63.683594 56.40625 C 63.316406 51.957031 62.792969 45.238281 61.789062 41.863281 Z M 61.789062 41.863281 "/><path style=" stroke:none;fill-rule:evenodd;fill:#ffbf39;fill-opacity:1;" d="M 15.378906 46.136719 C 14.863281 50.398438 14.121094 55.335938 13.40625 59.328125 C 13.269531 60.082031 11.945312 59.640625 11.800781 58.976562 C 10.644531 53.695312 11.945312 44.601562 8.449219 43.199219 C 13.65625 44.101562 11.441406 53.371094 12.242188 58.417969 C 12.34375 59.050781 12.976562 59.320312 13.074219 58.597656 C 13.566406 54.785156 14.28125 49.027344 15.378906 46.136719 Z M 15.378906 46.136719 "/><path style=" stroke:none;fill-rule:evenodd;fill:#ffbf39;fill-opacity:1;" d="M 5.890625 32.058594 C 5.65625 30.007812 5.425781 27.960938 5.191406 25.910156 C 5.152344 27.722656 5.109375 29.535156 5.070312 31.347656 C 5.054688 32.039062 4.511719 32.609375 3.734375 32.761719 C 2.554688 32.992188 1.375 33.222656 0.195312 33.453125 C 0.0898438 33.472656 0.0195312 33.550781 0.0234375 33.644531 C 0.0859375 35.535156 0.148438 37.425781 0.214844 39.316406 C 0.339844 37.613281 0.46875 35.90625 0.597656 34.199219 C 0.601562 34.105469 0.6875 34.03125 0.792969 34.023438 C 1.988281 33.90625 3.183594 33.789062 4.378906 33.671875 C 5.304688 33.582031 5.980469 32.859375 5.890625 32.058594 Z M 5.890625 32.058594 "/><path style=" stroke:none;fill-rule:evenodd;fill:#ffbf39;fill-opacity:1;" d="M 18.621094 41.527344 C 18.558594 41.6875 18.496094 41.851562 18.433594 42.015625 C 13.042969 39.519531 7.640625 37.039062 1.832031 34.871094 C 7.210938 36.226562 12.902344 38.832031 18.621094 41.527344 Z M 18.621094 41.527344 "/><path style=" stroke:none;fill-rule:evenodd;fill:#ffbf39;fill-opacity:1;" d="M 18.6875 48.695312 C 13.390625 45.699219 6.554688 42.152344 0.84375 39.433594 C 6.066406 41.289062 12.792969 44.664062 18.34375 47.851562 L 18.132812 41.65625 C 18.128906 41.539062 18.21875 41.4375 18.351562 41.410156 C 19.828125 41.125 21.300781 40.835938 22.777344 40.550781 C 23.753906 40.359375 24.429688 39.640625 24.449219 38.777344 C 24.5 36.511719 24.550781 34.242188 24.605469 31.976562 C 24.894531 34.539062 25.1875 37.101562 25.476562 39.667969 C 25.589844 40.671875 24.746094 41.574219 23.582031 41.6875 C 22.089844 41.832031 20.59375 41.980469 19.097656 42.125 C 18.964844 42.136719 18.859375 42.230469 18.851562 42.351562 C 18.808594 42.921875 19.449219 47.652344 18.6875 48.695312 Z M 18.6875 48.695312 "/><path style=" stroke:none;fill-rule:evenodd;fill:#ffbf39;fill-opacity:1;" d="M 26.902344 29.84375 L 27.117188 29.445312 L 29.738281 20.445312 L 17.28125 19.140625 L 15.242188 25.316406 L 17 18.445312 L 31.46875 20.070312 L 28.660156 29.816406 Z M 26.902344 29.84375 "/><path style=" stroke:none;fill-rule:evenodd;fill:#ffbf39;fill-opacity:1;" d="M 31.347656 53.058594 C 31.671875 59.179688 32.1875 66.273438 32.714844 72.007812 C 32.816406 73.09375 34.121094 72.460938 34.292969 71.507812 C 35.207031 66.351562 35.167969 58.582031 35.789062 53.785156 C 36.25 50.21875 41.347656 49.019531 43.527344 49.015625 C 43.652344 49.015625 43.761719 48.976562 43.851562 48.902344 C 43.9375 48.824219 43.980469 48.730469 43.976562 48.625 C 43.957031 47.953125 43.898438 46.980469 43.898438 46.503906 C 43.585938 46.542969 43.277344 46.585938 42.964844 46.628906 C 42.964844 46.941406 42.964844 47.253906 42.964844 47.566406 C 42.964844 47.757812 42.808594 47.914062 42.585938 47.945312 C 38.5625 48.5 35.855469 50.230469 35.003906 53.710938 C 33.871094 58.316406 34.5625 65.742188 33.886719 70.703125 C 33.761719 71.613281 33.132812 72 33.070312 70.960938 C 32.746094 65.484375 32.292969 57.214844 31.347656 53.058594 Z M 31.347656 53.058594 "/><path style=" stroke:none;fill-rule:evenodd;fill:#ffbf39;fill-opacity:1;" d="M 24.089844 31.492188 C 19.890625 30.195312 8.023438 26.820312 5.851562 26.171875 C 11.230469 27.125 18.960938 28.878906 24.089844 31.492188 Z M 24.089844 31.492188 "/><path style=" stroke:none;fill-rule:evenodd;fill:#ffbf39;fill-opacity:1;" d="M 23.4375 39.675781 C 20.28125 38.140625 10.023438 34.628906 7.855469 34.085938 C 12.492188 35.195312 19.132812 37.125 23.4375 39.675781 Z M 23.4375 39.675781 "/><path style=" stroke:none;fill-rule:evenodd;fill:#ffbf39;fill-opacity:1;" d="M 6.375 25.976562 C 28.71875 21.441406 74.917969 22.488281 72.871094 25.441406 C 71.546875 27.347656 57.964844 26.425781 58.867188 29.410156 C 48.175781 30.15625 37.359375 31.167969 26.484375 31.515625 C 36.691406 30.800781 47.09375 29.136719 57.300781 28.425781 C 56.4375 25.121094 69.953125 27.191406 71.363281 25.523438 C 73.605469 22.871094 27.765625 22.394531 6.375 25.976562 Z M 6.375 25.976562 "/><path style=" stroke:none;fill-rule:evenodd;fill:#ffbf39;fill-opacity:1;" d="M 55.011719 22.996094 C 65.632812 19.550781 71.832031 16.53125 71.953125 14.171875 C 72.066406 11.945312 67.382812 11.234375 63.386719 11.464844 C 58.363281 11.753906 57.921875 10.070312 56.878906 6.539062 C 56.015625 3.609375 54.421875 0.585938 45.570312 1.789062 C 39.070312 7.734375 32.574219 13.683594 26.074219 19.632812 C 32.71875 14.140625 39.792969 8.0625 45.820312 2.546875 C 54.03125 1.429688 55.382812 4.558594 56.183594 7.273438 C 57.152344 10.550781 57.84375 12.5625 62.5 12.292969 C 66.207031 12.078125 70.398438 12.59375 70.292969 14.65625 C 70.179688 16.847656 64.859375 19.800781 55.011719 22.996094 Z M 55.011719 22.996094 "/><path style=" stroke:none;fill-rule:evenodd;fill:#ffbf39;fill-opacity:1;" d="M 47.453125 7.394531 C 48.085938 14.976562 48.988281 22.457031 51.433594 29.328125 C 52.117188 29.269531 52.800781 29.214844 53.484375 29.15625 C 51.019531 22.6875 49.175781 15.144531 47.453125 7.394531 Z M 47.453125 7.394531 "/><path style=" stroke:none;fill-rule:evenodd;fill:#ffbf39;fill-opacity:1;" d="M 47.363281 7.128906 C 47.765625 7.128906 48.089844 7.246094 48.089844 7.386719 C 48.089844 7.40625 48.082031 7.421875 48.074219 7.4375 C 48.027344 7.363281 47.835938 7.304688 47.609375 7.304688 C 47.347656 7.304688 47.132812 7.382812 47.132812 7.476562 C 47.132812 7.558594 47.289062 7.625 47.5 7.644531 C 47.457031 7.644531 47.410156 7.648438 47.363281 7.648438 C 46.964844 7.648438 46.640625 7.53125 46.640625 7.386719 C 46.640625 7.246094 46.964844 7.128906 47.363281 7.128906 Z M 47.363281 7.128906 "/><path style=" stroke:none;fill-rule:evenodd;fill:#ffbf39;fill-opacity:1;" d="M 57.425781 43.398438 L 20.230469 49.3125 C 33.164062 47.714844 46.097656 46.117188 59.03125 44.519531 C 58.359375 40.136719 58.152344 35.339844 58.96875 30.722656 C 57.589844 34.742188 57.058594 39.128906 57.425781 43.398438 Z M 57.425781 43.398438 "/><path style=" stroke:none;fill-rule:evenodd;fill:#ffbf39;fill-opacity:1;" d="M 71.296875 37.300781 C 65.261719 37.882812 61.726562 39.257812 59.816406 41.148438 C 63.628906 39.382812 67.835938 38.511719 72.222656 38.058594 C 72.847656 37.992188 73.308594 37.53125 73.292969 36.988281 C 73.167969 33.367188 73.113281 29.746094 73.078125 26.128906 C 72.511719 29.46875 72.316406 32.84375 72.378906 36.246094 C 72.386719 36.789062 71.921875 37.242188 71.296875 37.300781 Z M 71.296875 37.300781 "/><path style=" stroke:none;fill-rule:evenodd;fill:#ffbf39;fill-opacity:1;" d="M 62.972656 42.105469 C 63.347656 47.078125 63.925781 52.835938 64.507812 57.496094 C 64.621094 58.378906 65.957031 57.863281 66.125 57.085938 C 67.457031 50.921875 66.15625 39.347656 69.917969 38.570312 C 64.679688 39.621094 66.671875 50.546875 65.703125 56.433594 C 65.582031 57.175781 64.9375 57.488281 64.867188 56.644531 C 64.496094 52.195312 63.972656 45.480469 62.972656 42.105469 Z M 62.972656 42.105469 "/><path style=" stroke:none;fill-rule:evenodd;fill:#ffbf39;fill-opacity:1;" d="M 16.5625 46.378906 C 16.042969 50.636719 15.304688 55.574219 14.585938 59.566406 C 14.449219 60.324219 13.128906 59.882812 12.984375 59.21875 C 11.824219 53.933594 13.125 44.84375 9.628906 43.441406 C 14.835938 44.339844 12.621094 53.613281 13.421875 58.660156 C 13.523438 59.292969 14.160156 59.5625 14.253906 58.839844 C 14.75 55.027344 15.464844 49.269531 16.5625 46.378906 Z M 16.5625 46.378906 "/><g clip-rule="nonzero" clip-path="url(#d6abe3f2d3)"><path style=" stroke:none;fill-rule:evenodd;fill:#ffbf39;fill-opacity:1;" d="M 7.070312 32.296875 C 6.839844 30.25 6.605469 28.199219 6.375 26.152344 C 6.332031 27.964844 6.292969 29.777344 6.25 31.589844 C 6.234375 32.277344 5.695312 32.851562 4.914062 33.003906 C 3.734375 33.234375 2.558594 33.460938 1.378906 33.691406 C 1.273438 33.710938 1.199219 33.792969 1.203125 33.886719 C 1.265625 35.777344 1.332031 37.667969 1.394531 39.558594 C 1.523438 37.851562 1.652344 36.144531 1.777344 34.441406 C 1.785156 34.347656 1.867188 34.273438 1.976562 34.261719 C 3.171875 34.144531 4.363281 34.027344 5.558594 33.910156 C 6.488281 33.820312 7.164062 33.101562 7.070312 32.296875 Z M 7.070312 32.296875 "/></g><path style=" stroke:none;fill-rule:evenodd;fill:#ffbf39;fill-opacity:1;" d="M 19.800781 41.765625 C 19.738281 41.929688 19.675781 42.09375 19.613281 42.253906 C 14.226562 39.761719 8.820312 37.28125 3.011719 35.113281 C 8.390625 36.464844 14.085938 39.070312 19.800781 41.765625 Z M 19.800781 41.765625 "/><path style=" stroke:none;fill-rule:evenodd;fill:#ffbf39;fill-opacity:1;" d="M 19.867188 48.9375 C 14.574219 45.9375 7.734375 42.394531 2.027344 39.675781 C 7.25 41.527344 13.976562 44.902344 19.523438 48.09375 L 19.316406 41.894531 C 19.3125 41.777344 19.402344 41.679688 19.53125 41.652344 C 21.007812 41.363281 22.484375 41.078125 23.960938 40.789062 C 24.933594 40.601562 25.613281 39.882812 25.632812 39.019531 C 25.683594 36.75 25.734375 34.484375 25.785156 32.214844 C 26.078125 34.777344 26.367188 37.34375 26.660156 39.90625 C 26.773438 40.910156 25.925781 41.8125 24.765625 41.929688 C 23.269531 42.074219 21.777344 42.21875 20.28125 42.367188 C 20.144531 42.378906 20.042969 42.472656 20.035156 42.589844 C 19.992188 43.164062 20.628906 47.894531 19.867188 48.9375 Z M 19.867188 48.9375 "/><path style=" stroke:none;fill-rule:evenodd;fill:#ffbf39;fill-opacity:1;" d="M 28.082031 30.085938 L 28.300781 29.6875 L 30.921875 20.683594 L 18.460938 19.378906 L 16.425781 25.558594 L 18.183594 18.6875 L 32.648438 20.3125 L 29.84375 30.058594 Z M 28.082031 30.085938 "/><path style=" stroke:none;fill-rule:evenodd;fill:#ffbf39;fill-opacity:1;" d="M 32.527344 53.300781 C 32.851562 59.421875 33.367188 66.511719 33.898438 72.246094 C 34 73.332031 35.304688 72.699219 35.472656 71.746094 C 36.386719 66.589844 36.351562 58.824219 36.96875 54.027344 C 37.433594 50.457031 42.527344 49.257812 44.707031 49.257812 C 44.835938 49.257812 44.945312 49.21875 45.03125 49.140625 C 45.121094 49.0625 45.164062 48.972656 45.160156 48.863281 C 45.136719 48.195312 45.078125 47.21875 45.078125 46.742188 C 44.769531 46.785156 44.457031 46.828125 44.148438 46.871094 C 44.148438 47.183594 44.148438 47.496094 44.148438 47.808594 C 44.148438 47.996094 43.988281 48.15625 43.769531 48.1875 C 39.742188 48.742188 37.039062 50.46875 36.183594 53.949219 C 35.054688 58.558594 35.746094 65.984375 35.066406 70.941406 C 34.945312 71.851562 34.3125 72.238281 34.253906 71.199219 C 33.929688 65.722656 33.476562 57.453125 32.527344 53.300781 Z M 32.527344 53.300781 "/><path style=" stroke:none;fill-rule:evenodd;fill:#ffbf39;fill-opacity:1;" d="M 25.269531 31.734375 C 21.070312 30.4375 9.203125 27.0625 7.03125 26.414062 C 12.410156 27.363281 20.140625 29.117188 25.269531 31.734375 Z M 25.269531 31.734375 "/><path style=" stroke:none;fill-rule:evenodd;fill:#ffbf39;fill-opacity:1;" d="M 24.617188 39.914062 C 21.460938 38.378906 11.207031 34.867188 9.035156 34.324219 C 13.675781 35.433594 20.3125 37.363281 24.617188 39.914062 Z M 24.617188 39.914062 "/><path style=" stroke:none;fill-rule:evenodd;fill:#ffbf39;fill-opacity:1;" d="M 5.914062 25.625 C 28.257812 21.09375 74.457031 22.140625 72.410156 25.089844 C 71.085938 27 57.503906 26.078125 58.40625 29.058594 C 47.714844 29.804688 36.898438 30.816406 26.023438 31.164062 C 36.230469 30.453125 46.632812 28.785156 56.839844 28.074219 C 55.976562 24.769531 69.492188 26.839844 70.902344 25.171875 C 73.144531 22.519531 27.304688 22.042969 5.914062 25.625 Z M 5.914062 25.625 "/><path style=" stroke:none;fill-rule:evenodd;fill:#ffbf39;fill-opacity:1;" d="M 54.550781 22.644531 C 65.171875 19.199219 71.371094 16.179688 71.492188 13.820312 C 71.605469 11.59375 66.925781 10.882812 62.925781 11.113281 C 57.902344 11.402344 57.460938 9.722656 56.417969 6.1875 C 55.554688 3.261719 53.960938 0.234375 45.109375 1.4375 C 38.609375 7.382812 32.113281 13.332031 25.613281 19.28125 C 32.257812 13.792969 39.332031 7.714844 45.359375 2.195312 C 53.570312 1.082031 54.921875 4.207031 55.722656 6.921875 C 56.691406 10.199219 57.382812 12.210938 62.039062 11.941406 C 65.75 11.730469 69.9375 12.242188 69.832031 14.308594 C 69.71875 16.496094 64.398438 19.449219 54.550781 22.644531 Z M 54.550781 22.644531 "/><path style=" stroke:none;fill-rule:evenodd;fill:#ffbf39;fill-opacity:1;" d="M 46.992188 7.042969 C 47.625 14.628906 48.527344 22.105469 50.972656 28.976562 C 51.65625 28.917969 52.339844 28.863281 53.023438 28.804688 C 50.558594 22.335938 48.714844 14.796875 46.992188 7.042969 Z M 46.992188 7.042969 "/><path style=" stroke:none;fill-rule:evenodd;fill:#ffbf39;fill-opacity:1;" d="M 46.902344 6.777344 C 47.304688 6.777344 47.628906 6.894531 47.628906 7.039062 C 47.628906 7.054688 47.621094 7.070312 47.613281 7.085938 C 47.566406 7.011719 47.375 6.953125 47.148438 6.953125 C 46.886719 6.953125 46.671875 7.03125 46.671875 7.125 C 46.671875 7.207031 46.828125 7.273438 47.039062 7.292969 C 46.996094 7.296875 46.949219 7.296875 46.902344 7.296875 C 46.503906 7.296875 46.179688 7.179688 46.179688 7.039062 C 46.179688 6.894531 46.503906 6.777344 46.902344 6.777344 Z M 46.902344 6.777344 "/><path style=" stroke:none;fill-rule:evenodd;fill:#ffbf39;fill-opacity:1;" d="M 56.964844 43.046875 L 19.769531 48.960938 C 32.703125 47.363281 45.636719 45.765625 58.570312 44.167969 C 57.898438 39.785156 57.691406 34.988281 58.507812 30.371094 C 57.128906 34.390625 56.597656 38.78125 56.964844 43.046875 Z M 56.964844 43.046875 "/><path style=" stroke:none;fill-rule:evenodd;fill:#ffbf39;fill-opacity:1;" d="M 70.839844 36.953125 C 64.800781 37.53125 61.269531 38.90625 59.355469 40.796875 C 63.167969 39.03125 67.375 38.160156 71.761719 37.707031 C 72.386719 37.644531 72.851562 37.179688 72.832031 36.636719 C 72.707031 33.015625 72.652344 29.394531 72.617188 25.777344 C 72.050781 29.117188 71.855469 32.496094 71.917969 35.894531 C 71.925781 36.4375 71.460938 36.890625 70.839844 36.953125 Z M 70.839844 36.953125 "/><path style=" stroke:none;fill-rule:evenodd;fill:#ffbf39;fill-opacity:1;" d="M 62.511719 41.753906 C 62.886719 46.726562 63.464844 52.484375 64.050781 57.144531 C 64.160156 58.027344 65.496094 57.511719 65.664062 56.738281 C 66.996094 50.574219 65.695312 39 69.460938 38.21875 C 64.222656 39.269531 66.210938 50.195312 65.242188 56.082031 C 65.121094 56.824219 64.476562 57.136719 64.40625 56.292969 C 64.035156 51.84375 63.511719 45.128906 62.511719 41.753906 Z M 62.511719 41.753906 "/><path style=" stroke:none;fill-rule:evenodd;fill:#ffbf39;fill-opacity:1;" d="M 16.101562 46.027344 C 15.582031 50.289062 14.84375 55.222656 14.125 59.214844 C 13.992188 59.972656 12.667969 59.53125 12.523438 58.867188 C 11.363281 53.585938 12.664062 44.492188 9.167969 43.089844 C 14.378906 43.992188 12.160156 53.261719 12.960938 58.308594 C 13.0625 58.941406 13.699219 59.210938 13.792969 58.488281 C 14.289062 54.675781 15.003906 48.917969 16.101562 46.027344 Z M 16.101562 46.027344 "/><g clip-rule="nonzero" clip-path="url(#a99fc1f707)"><path style=" stroke:none;fill-rule:evenodd;fill:#ffbf39;fill-opacity:1;" d="M 6.609375 31.945312 C 6.378906 29.898438 6.144531 27.851562 5.914062 25.800781 C 5.871094 27.613281 5.832031 29.425781 5.792969 31.238281 C 5.777344 31.929688 5.234375 32.5 4.453125 32.652344 C 3.277344 32.882812 2.097656 33.113281 0.917969 33.339844 C 0.8125 33.363281 0.742188 33.441406 0.742188 33.535156 C 0.808594 35.425781 0.871094 37.316406 0.933594 39.207031 C 1.0625 37.5 1.191406 35.796875 1.316406 34.089844 C 1.324219 33.996094 1.40625 33.921875 1.515625 33.910156 C 2.710938 33.796875 3.902344 33.679688 5.097656 33.5625 C 6.027344 33.472656 6.703125 32.75 6.609375 31.945312 Z M 6.609375 31.945312 "/></g><path style=" stroke:none;fill-rule:evenodd;fill:#ffbf39;fill-opacity:1;" d="M 19.339844 41.417969 C 19.277344 41.578125 19.214844 41.742188 19.152344 41.902344 C 13.765625 39.410156 8.359375 36.929688 2.550781 34.761719 C 7.929688 36.117188 13.625 38.71875 19.339844 41.417969 Z M 19.339844 41.417969 "/><path style=" stroke:none;fill-rule:evenodd;fill:#ffbf39;fill-opacity:1;" d="M 19.40625 48.585938 C 14.113281 45.589844 7.273438 42.042969 1.566406 39.324219 C 6.789062 41.179688 13.515625 44.554688 19.0625 47.742188 L 18.855469 41.542969 C 18.851562 41.429688 18.941406 41.328125 19.070312 41.300781 C 20.546875 41.015625 22.023438 40.726562 23.5 40.441406 C 24.472656 40.25 25.152344 39.53125 25.171875 38.667969 C 25.222656 36.398438 25.273438 34.132812 25.324219 31.863281 C 25.617188 34.429688 25.90625 36.992188 26.199219 39.554688 C 26.3125 40.5625 25.464844 41.464844 24.304688 41.578125 C 22.808594 41.722656 21.316406 41.871094 19.820312 42.015625 C 19.683594 42.027344 19.582031 42.121094 19.574219 42.238281 C 19.53125 42.8125 20.167969 47.542969 19.40625 48.585938 Z M 19.40625 48.585938 "/><path style=" stroke:none;fill-rule:evenodd;fill:#ffbf39;fill-opacity:1;" d="M 27.625 29.734375 L 27.839844 29.335938 L 30.460938 20.332031 L 18 19.027344 L 15.964844 25.207031 L 17.722656 18.335938 L 32.1875 19.960938 L 29.382812 29.707031 Z M 27.625 29.734375 "/><path style=" stroke:none;fill-rule:evenodd;fill:#ffbf39;fill-opacity:1;" d="M 32.066406 52.949219 C 32.390625 59.070312 32.90625 66.160156 33.4375 71.898438 C 33.539062 72.984375 34.84375 72.351562 35.011719 71.394531 C 35.925781 66.242188 35.890625 58.472656 36.507812 53.675781 C 36.972656 50.105469 42.066406 48.910156 44.246094 48.90625 C 44.375 48.90625 44.484375 48.867188 44.570312 48.789062 C 44.660156 48.714844 44.703125 48.621094 44.699219 48.511719 C 44.675781 47.84375 44.617188 46.871094 44.617188 46.390625 C 44.308594 46.433594 43.996094 46.476562 43.6875 46.519531 C 43.6875 46.832031 43.6875 47.144531 43.6875 47.457031 C 43.6875 47.648438 43.527344 47.804688 43.308594 47.835938 C 39.28125 48.390625 36.578125 50.117188 35.722656 53.597656 C 34.59375 58.207031 35.285156 65.632812 34.609375 70.589844 C 34.484375 71.503906 33.851562 71.886719 33.792969 70.851562 C 33.46875 65.371094 33.015625 57.105469 32.066406 52.949219 Z M 32.066406 52.949219 "/><path style=" stroke:none;fill-rule:evenodd;fill:#ffbf39;fill-opacity:1;" d="M 24.808594 31.382812 C 20.609375 30.085938 8.742188 26.710938 6.570312 26.0625 C 11.949219 27.015625 19.679688 28.765625 24.808594 31.382812 Z M 24.808594 31.382812 "/><path style=" stroke:none;fill-rule:evenodd;fill:#ffbf39;fill-opacity:1;" d="M 24.160156 39.566406 C 21 38.03125 10.746094 34.515625 8.574219 33.976562 C 13.214844 35.082031 19.851562 37.011719 24.160156 39.566406 Z M 24.160156 39.566406 "/><path style=" stroke:none;fill-rule:evenodd;fill:#ffbf39;fill-opacity:1;" d="M 5.914062 26.488281 C 28.257812 21.957031 74.457031 23.003906 72.410156 25.957031 C 71.085938 27.863281 57.503906 26.941406 58.40625 29.925781 C 47.714844 30.671875 36.898438 31.683594 26.023438 32.027344 C 36.230469 31.316406 46.632812 29.652344 56.839844 28.941406 C 55.976562 25.636719 69.492188 27.707031 70.902344 26.039062 C 73.144531 23.382812 27.304688 22.910156 5.914062 26.488281 Z M 5.914062 26.488281 "/><path style=" stroke:none;fill-rule:evenodd;fill:#ffbf39;fill-opacity:1;" d="M 54.550781 23.511719 C 65.171875 20.0625 71.371094 17.042969 71.492188 14.683594 C 71.605469 12.460938 66.925781 11.746094 62.925781 11.976562 C 57.902344 12.265625 57.460938 10.585938 56.417969 7.050781 C 55.554688 4.125 53.960938 1.097656 45.109375 2.300781 C 38.609375 8.25 32.113281 14.199219 25.613281 20.144531 C 32.257812 14.65625 39.332031 8.578125 45.359375 3.0625 C 53.570312 1.945312 54.921875 5.070312 55.722656 7.785156 C 56.691406 11.0625 57.382812 13.074219 62.039062 12.808594 C 65.75 12.59375 69.9375 13.109375 69.832031 15.171875 C 69.71875 17.359375 64.398438 20.3125 54.550781 23.511719 Z M 54.550781 23.511719 "/><path style=" stroke:none;fill-rule:evenodd;fill:#ffbf39;fill-opacity:1;" d="M 46.992188 7.910156 C 47.625 15.492188 48.527344 22.96875 50.972656 29.839844 C 51.65625 29.785156 52.339844 29.726562 53.023438 29.667969 C 50.558594 23.199219 48.714844 15.660156 46.992188 7.910156 Z M 46.992188 7.910156 "/><path style=" stroke:none;fill-rule:evenodd;fill:#ffbf39;fill-opacity:1;" d="M 46.902344 7.644531 C 47.304688 7.644531 47.628906 7.757812 47.628906 7.902344 C 47.628906 7.917969 47.621094 7.933594 47.613281 7.949219 C 47.566406 7.875 47.375 7.820312 47.148438 7.820312 C 46.886719 7.820312 46.671875 7.894531 46.671875 7.992188 C 46.671875 8.070312 46.828125 8.140625 47.039062 8.15625 C 46.996094 8.160156 46.949219 8.160156 46.902344 8.160156 C 46.503906 8.160156 46.179688 8.046875 46.179688 7.902344 C 46.179688 7.757812 46.503906 7.644531 46.902344 7.644531 Z M 46.902344 7.644531 "/><path style=" stroke:none;fill-rule:evenodd;fill:#ffbf39;fill-opacity:1;" d="M 56.964844 43.914062 L 19.769531 49.824219 C 32.703125 48.226562 45.636719 46.628906 58.570312 45.03125 C 57.898438 40.648438 57.691406 35.855469 58.507812 31.234375 C 57.128906 35.257812 56.597656 39.644531 56.964844 43.914062 Z M 56.964844 43.914062 "/><path style=" stroke:none;fill-rule:evenodd;fill:#ffbf39;fill-opacity:1;" d="M 70.839844 37.816406 C 64.800781 38.394531 61.269531 39.769531 59.355469 41.664062 C 63.167969 39.898438 67.375 39.027344 71.761719 38.574219 C 72.386719 38.507812 72.851562 38.046875 72.832031 37.503906 C 72.707031 33.882812 72.652344 30.261719 72.617188 26.640625 C 72.050781 29.984375 71.855469 33.359375 71.917969 36.757812 C 71.925781 37.300781 71.460938 37.757812 70.839844 37.816406 Z M 70.839844 37.816406 "/><path style=" stroke:none;fill-rule:evenodd;fill:#ffbf39;fill-opacity:1;" d="M 62.511719 42.621094 C 62.886719 47.589844 63.464844 53.351562 64.050781 58.007812 C 64.160156 58.890625 65.496094 58.375 65.664062 57.601562 C 66.996094 51.4375 65.695312 39.863281 69.460938 39.082031 C 64.222656 40.132812 66.210938 51.0625 65.242188 56.949219 C 65.121094 57.6875 64.476562 58 64.40625 57.160156 C 64.035156 52.710938 63.511719 45.992188 62.511719 42.621094 Z M 62.511719 42.621094 "/><path style=" stroke:none;fill-rule:evenodd;fill:#ffbf39;fill-opacity:1;" d="M 16.101562 46.890625 C 15.582031 51.152344 14.84375 56.089844 14.125 60.082031 C 13.992188 60.835938 12.667969 60.398438 12.523438 59.734375 C 11.363281 54.449219 12.664062 45.355469 9.167969 43.957031 C 14.378906 44.855469 12.160156 54.125 12.960938 59.171875 C 13.0625 59.804688 13.699219 60.074219 13.792969 59.351562 C 14.289062 55.539062 15.003906 49.785156 16.101562 46.890625 Z M 16.101562 46.890625 "/><g clip-rule="nonzero" clip-path="url(#805e3ba169)"><path style=" stroke:none;fill-rule:evenodd;fill:#ffbf39;fill-opacity:1;" d="M 6.609375 32.8125 C 6.378906 30.761719 6.144531 28.714844 5.914062 26.664062 C 5.871094 28.476562 5.832031 30.289062 5.792969 32.101562 C 5.777344 32.792969 5.234375 33.367188 4.453125 33.515625 C 3.277344 33.746094 2.097656 33.976562 0.917969 34.207031 C 0.8125 34.226562 0.742188 34.304688 0.742188 34.398438 C 0.808594 36.289062 0.871094 38.179688 0.933594 40.070312 C 1.0625 38.367188 1.191406 36.660156 1.316406 34.957031 C 1.324219 34.863281 1.40625 34.785156 1.515625 34.777344 C 2.710938 34.660156 3.902344 34.542969 5.097656 34.425781 C 6.027344 34.335938 6.703125 33.613281 6.609375 32.8125 Z M 6.609375 32.8125 "/></g><path style=" stroke:none;fill-rule:evenodd;fill:#ffbf39;fill-opacity:1;" d="M 19.339844 42.28125 C 19.277344 42.445312 19.214844 42.605469 19.152344 42.769531 C 13.765625 40.273438 8.359375 37.792969 2.550781 35.628906 C 7.929688 36.980469 13.625 39.585938 19.339844 42.28125 Z M 19.339844 42.28125 "/><path style=" stroke:none;fill-rule:evenodd;fill:#ffbf39;fill-opacity:1;" d="M 19.40625 49.449219 C 14.113281 46.453125 7.273438 42.90625 1.566406 40.1875 C 6.789062 42.042969 13.515625 45.417969 19.0625 48.605469 L 18.855469 42.410156 C 18.851562 42.292969 18.941406 42.191406 19.070312 42.167969 C 20.546875 41.878906 22.023438 41.589844 23.5 41.304688 C 24.472656 41.113281 25.152344 40.398438 25.171875 39.535156 C 25.222656 37.265625 25.273438 34.996094 25.324219 32.730469 C 25.617188 35.292969 25.90625 37.855469 26.199219 40.421875 C 26.3125 41.425781 25.464844 42.328125 24.304688 42.441406 C 22.808594 42.585938 21.316406 42.734375 19.820312 42.878906 C 19.683594 42.894531 19.582031 42.984375 19.574219 43.105469 C 19.53125 43.675781 20.167969 48.410156 19.40625 49.449219 Z M 19.40625 49.449219 "/><path style=" stroke:none;fill-rule:evenodd;fill:#ffbf39;fill-opacity:1;" d="M 27.625 30.597656 L 27.839844 30.199219 L 30.460938 21.199219 L 18 19.894531 L 15.964844 26.070312 L 17.722656 19.199219 L 32.1875 20.824219 L 29.382812 30.574219 Z M 27.625 30.597656 "/><g clip-rule="nonzero" clip-path="url(#5e20710b8e)"><path style=" stroke:none;fill-rule:evenodd;fill:#ffbf39;fill-opacity:1;" d="M 32.066406 53.8125 C 32.390625 59.933594 32.90625 67.027344 33.4375 72.761719 C 33.539062 73.847656 34.84375 73.214844 35.011719 72.261719 C 35.925781 67.105469 35.890625 59.339844 36.507812 54.539062 C 36.972656 50.972656 42.066406 49.773438 44.246094 49.773438 C 44.375 49.773438 44.484375 49.734375 44.570312 49.65625 C 44.660156 49.578125 44.703125 49.484375 44.699219 49.378906 C 44.675781 48.707031 44.617188 47.734375 44.617188 47.257812 C 44.308594 47.296875 43.996094 47.339844 43.6875 47.382812 C 43.6875 47.695312 43.6875 48.007812 43.6875 48.320312 C 43.6875 48.511719 43.527344 48.667969 43.308594 48.699219 C 39.28125 49.253906 36.578125 50.984375 35.722656 54.464844 C 34.59375 59.074219 35.285156 66.496094 34.609375 71.457031 C 34.484375 72.367188 33.851562 72.753906 33.792969 71.714844 C 33.46875 66.238281 33.015625 57.96875 32.066406 53.8125 Z M 32.066406 53.8125 "/></g><path style=" stroke:none;fill-rule:evenodd;fill:#ffbf39;fill-opacity:1;" d="M 24.808594 32.25 C 20.609375 30.949219 8.742188 27.574219 6.570312 26.925781 C 11.949219 27.878906 19.679688 29.632812 24.808594 32.25 Z M 24.808594 32.25 "/><path style=" stroke:none;fill-rule:evenodd;fill:#ffbf39;fill-opacity:1;" d="M 24.160156 40.429688 C 21 38.894531 10.746094 35.382812 8.574219 34.839844 C 13.214844 35.949219 19.851562 37.878906 24.160156 40.429688 Z M 24.160156 40.429688 "/><path style=" stroke:none;fill-rule:evenodd;fill:#ffbf39;fill-opacity:1;" d="M 5.191406 25.394531 C 27.539062 20.863281 73.738281 21.910156 71.6875 24.863281 C 70.363281 26.769531 56.78125 25.847656 57.6875 28.832031 C 46.996094 29.578125 36.179688 30.589844 25.300781 30.933594 C 35.507812 30.222656 45.914062 28.558594 56.117188 27.847656 C 55.253906 24.542969 68.769531 26.613281 70.179688 24.945312 C 72.425781 22.292969 26.585938 21.816406 5.191406 25.394531 Z M 5.191406 25.394531 "/><path style=" stroke:none;fill-rule:evenodd;fill:#ffbf39;fill-opacity:1;" d="M 53.828125 22.417969 C 64.449219 18.96875 70.652344 15.949219 70.773438 13.589844 C 70.886719 11.367188 66.203125 10.652344 62.203125 10.882812 C 57.183594 11.171875 56.742188 9.492188 55.695312 5.957031 C 54.832031 3.03125 53.242188 0.00390625 44.386719 1.207031 C 37.890625 7.15625 31.390625 13.105469 24.894531 19.050781 C 31.535156 13.5625 38.613281 7.484375 44.636719 1.96875 C 52.847656 0.851562 54.199219 3.980469 55.003906 6.691406 C 55.972656 9.972656 56.664062 11.984375 61.320312 11.714844 C 65.027344 11.5 69.214844 12.015625 69.109375 14.078125 C 69 16.265625 63.679688 19.222656 53.828125 22.417969 Z M 53.828125 22.417969 "/><path style=" stroke:none;fill-rule:evenodd;fill:#ffbf39;fill-opacity:1;" d="M 46.269531 6.816406 C 46.902344 14.398438 47.804688 21.875 50.253906 28.746094 C 50.9375 28.691406 51.617188 28.632812 52.300781 28.578125 C 49.835938 22.105469 47.992188 14.566406 46.269531 6.816406 Z M 46.269531 6.816406 "/><path style=" stroke:none;fill-rule:evenodd;fill:#ffbf39;fill-opacity:1;" d="M 46.183594 6.550781 C 46.582031 6.550781 46.90625 6.664062 46.90625 6.808594 C 46.90625 6.824219 46.902344 6.839844 46.894531 6.855469 C 46.84375 6.78125 46.65625 6.726562 46.429688 6.726562 C 46.164062 6.726562 45.949219 6.800781 45.949219 6.898438 C 45.949219 6.976562 46.109375 7.046875 46.316406 7.0625 C 46.273438 7.066406 46.226562 7.070312 46.183594 7.070312 C 45.78125 7.070312 45.457031 6.953125 45.457031 6.808594 C 45.457031 6.664062 45.78125 6.550781 46.183594 6.550781 Z M 46.183594 6.550781 "/><path style=" stroke:none;fill-rule:evenodd;fill:#ffbf39;fill-opacity:1;" d="M 56.246094 42.820312 L 19.046875 48.734375 C 31.980469 47.132812 44.914062 45.535156 57.847656 43.9375 C 57.175781 39.554688 56.972656 34.761719 57.789062 30.140625 C 56.40625 34.164062 55.875 38.550781 56.246094 42.820312 Z M 56.246094 42.820312 "/><path style=" stroke:none;fill-rule:evenodd;fill:#ffbf39;fill-opacity:1;" d="M 70.117188 36.722656 C 64.082031 37.300781 60.546875 38.679688 58.636719 40.570312 C 62.445312 38.804688 66.652344 37.933594 71.042969 37.480469 C 71.667969 37.414062 72.128906 36.953125 72.109375 36.410156 C 71.988281 32.789062 71.929688 29.167969 71.898438 25.546875 C 71.328125 28.890625 71.136719 32.265625 71.195312 35.667969 C 71.203125 36.207031 70.742188 36.664062 70.117188 36.722656 Z M 70.117188 36.722656 "/><path style=" stroke:none;fill-rule:evenodd;fill:#ffbf39;fill-opacity:1;" d="M 61.789062 41.527344 C 62.167969 46.496094 62.742188 52.257812 63.328125 56.914062 C 63.4375 57.796875 64.777344 57.28125 64.941406 56.507812 C 66.277344 50.34375 64.972656 38.769531 68.738281 37.992188 C 63.5 39.039062 65.488281 49.96875 64.523438 55.855469 C 64.398438 56.59375 63.753906 56.90625 63.683594 56.066406 C 63.316406 51.617188 62.792969 44.898438 61.789062 41.527344 Z M 61.789062 41.527344 "/><path style=" stroke:none;fill-rule:evenodd;fill:#ffbf39;fill-opacity:1;" d="M 15.378906 45.796875 C 14.863281 50.058594 14.121094 54.996094 13.40625 58.988281 C 13.269531 59.742188 11.945312 59.304688 11.800781 58.640625 C 10.644531 53.355469 11.945312 44.261719 8.449219 42.863281 C 13.65625 43.761719 11.441406 53.03125 12.242188 58.078125 C 12.34375 58.710938 12.976562 58.980469 13.074219 58.257812 C 13.566406 54.445312 14.28125 48.691406 15.378906 45.796875 Z M 15.378906 45.796875 "/><path style=" stroke:none;fill-rule:evenodd;fill:#ffbf39;fill-opacity:1;" d="M 5.890625 31.71875 C 5.65625 29.667969 5.425781 27.621094 5.191406 25.574219 C 5.152344 27.382812 5.109375 29.195312 5.070312 31.007812 C 5.054688 31.699219 4.511719 32.273438 3.734375 32.421875 C 2.554688 32.652344 1.375 32.882812 0.195312 33.113281 C 0.0898438 33.132812 0.0195312 33.210938 0.0234375 33.304688 C 0.0859375 35.195312 0.148438 37.085938 0.214844 38.976562 C 0.339844 37.273438 0.46875 35.566406 0.597656 33.863281 C 0.601562 33.769531 0.6875 33.691406 0.792969 33.683594 C 1.988281 33.566406 3.183594 33.449219 4.378906 33.332031 C 5.304688 33.242188 5.980469 32.519531 5.890625 31.71875 Z M 5.890625 31.71875 "/><path style=" stroke:none;fill-rule:evenodd;fill:#ffbf39;fill-opacity:1;" d="M 18.621094 41.1875 C 18.558594 41.351562 18.496094 41.511719 18.433594 41.675781 C 13.042969 39.179688 7.640625 36.699219 1.832031 34.535156 C 7.210938 35.886719 12.902344 38.492188 18.621094 41.1875 Z M 18.621094 41.1875 "/><path style=" stroke:none;fill-rule:evenodd;fill:#ffbf39;fill-opacity:1;" d="M 18.6875 48.355469 C 13.390625 45.359375 6.554688 41.8125 0.84375 39.09375 C 6.066406 40.949219 12.792969 44.324219 18.34375 47.511719 L 18.132812 41.316406 C 18.128906 41.199219 18.21875 41.097656 18.351562 41.074219 C 19.828125 40.785156 21.300781 40.496094 22.777344 40.210938 C 23.753906 40.019531 24.429688 39.304688 24.449219 38.441406 C 24.5 36.171875 24.550781 33.902344 24.605469 31.636719 C 24.894531 34.199219 25.1875 36.761719 25.476562 39.328125 C 25.589844 40.332031 24.746094 41.234375 23.582031 41.347656 C 22.089844 41.496094 20.59375 41.640625 19.097656 41.785156 C 18.964844 41.800781 18.859375 41.894531 18.851562 42.011719 C 18.808594 42.582031 19.449219 47.316406 18.6875 48.355469 Z M 18.6875 48.355469 "/><path style=" stroke:none;fill-rule:evenodd;fill:#ffbf39;fill-opacity:1;" d="M 26.902344 29.507812 L 27.117188 29.105469 L 29.738281 20.105469 L 17.28125 18.800781 L 15.242188 24.976562 L 17 18.105469 L 31.46875 19.730469 L 28.660156 29.480469 Z M 26.902344 29.507812 "/><g clip-rule="nonzero" clip-path="url(#1a5a677c31)"><path style=" stroke:none;fill-rule:evenodd;fill:#ffbf39;fill-opacity:1;" d="M 31.347656 52.71875 C 31.671875 58.839844 32.1875 65.933594 32.714844 71.667969 C 32.816406 72.753906 34.121094 72.121094 34.292969 71.167969 C 35.207031 66.011719 35.167969 58.246094 35.789062 53.445312 C 36.25 49.878906 41.347656 48.679688 43.527344 48.679688 C 43.652344 48.679688 43.761719 48.640625 43.851562 48.5625 C 43.9375 48.484375 43.980469 48.390625 43.976562 48.285156 C 43.957031 47.613281 43.898438 46.640625 43.898438 46.164062 C 43.585938 46.207031 43.277344 46.246094 42.964844 46.289062 C 42.964844 46.601562 42.964844 46.914062 42.964844 47.226562 C 42.964844 47.417969 42.808594 47.578125 42.585938 47.605469 C 38.5625 48.160156 35.855469 49.890625 35.003906 53.371094 C 33.871094 57.980469 34.5625 65.402344 33.886719 70.363281 C 33.761719 71.273438 33.132812 71.660156 33.070312 70.621094 C 32.746094 65.144531 32.292969 56.875 31.347656 52.71875 Z M 31.347656 52.71875 "/></g><path style=" stroke:none;fill-rule:evenodd;fill:#ffbf39;fill-opacity:1;" d="M 24.089844 31.15625 C 19.890625 29.855469 8.023438 26.480469 5.851562 25.835938 C 11.230469 26.785156 18.960938 28.539062 24.089844 31.15625 Z M 24.089844 31.15625 "/><path style=" stroke:none;fill-rule:evenodd;fill:#ffbf39;fill-opacity:1;" d="M 23.4375 39.335938 C 20.28125 37.800781 10.023438 34.289062 7.855469 33.746094 C 12.492188 34.855469 19.132812 36.785156 23.4375 39.335938 Z M 23.4375 39.335938 "/><path style=" stroke:none;fill-rule:evenodd;fill:#ffbf39;fill-opacity:1;" d="M 6.375 25.636719 C 28.71875 21.105469 74.917969 22.152344 72.871094 25.101562 C 71.546875 27.011719 57.964844 26.089844 58.867188 29.070312 C 48.175781 29.816406 37.359375 30.828125 26.484375 31.175781 C 36.691406 30.464844 47.09375 28.796875 57.300781 28.085938 C 56.4375 24.78125 69.953125 26.851562 71.363281 25.183594 C 73.605469 22.53125 27.765625 22.054688 6.375 25.636719 Z M 6.375 25.636719 "/><path style=" stroke:none;fill-rule:evenodd;fill:#ffbf39;fill-opacity:1;" d="M 55.011719 22.65625 C 65.632812 19.210938 71.832031 16.191406 71.953125 13.832031 C 72.066406 11.605469 67.382812 10.894531 63.386719 11.125 C 58.363281 11.414062 57.921875 9.734375 56.878906 6.199219 C 56.015625 3.273438 54.421875 0.246094 45.570312 1.449219 C 39.070312 7.394531 32.574219 13.34375 26.074219 19.292969 C 32.71875 13.800781 39.792969 7.726562 45.820312 2.207031 C 54.03125 1.09375 55.382812 4.21875 56.183594 6.933594 C 57.152344 10.210938 57.84375 12.222656 62.5 11.953125 C 66.207031 11.742188 70.398438 12.253906 70.292969 14.320312 C 70.179688 16.507812 64.859375 19.460938 55.011719 22.65625 Z M 55.011719 22.65625 "/><path style=" stroke:none;fill-rule:evenodd;fill:#ffbf39;fill-opacity:1;" d="M 47.453125 7.054688 C 48.085938 14.640625 48.988281 22.117188 51.433594 28.988281 C 52.117188 28.929688 52.800781 28.875 53.484375 28.816406 C 51.019531 22.347656 49.175781 14.808594 47.453125 7.054688 Z M 47.453125 7.054688 "/><path style=" stroke:none;fill-rule:evenodd;fill:#ffbf39;fill-opacity:1;" d="M 47.363281 6.789062 C 47.765625 6.789062 48.089844 6.90625 48.089844 7.046875 C 48.089844 7.066406 48.082031 7.082031 48.074219 7.097656 C 48.027344 7.023438 47.835938 6.964844 47.609375 6.964844 C 47.347656 6.964844 47.132812 7.042969 47.132812 7.136719 C 47.132812 7.21875 47.289062 7.285156 47.5 7.304688 C 47.457031 7.308594 47.410156 7.308594 47.363281 7.308594 C 46.964844 7.308594 46.640625 7.191406 46.640625 7.046875 C 46.640625 6.90625 46.964844 6.789062 47.363281 6.789062 Z M 47.363281 6.789062 "/><path style=" stroke:none;fill-rule:evenodd;fill:#ffbf39;fill-opacity:1;" d="M 57.425781 43.058594 L 20.230469 48.972656 C 33.164062 47.375 46.097656 45.777344 59.03125 44.179688 C 58.359375 39.796875 58.152344 35 58.96875 30.382812 C 57.589844 34.402344 57.058594 38.792969 57.425781 43.058594 Z M 57.425781 43.058594 "/><path style=" stroke:none;fill-rule:evenodd;fill:#ffbf39;fill-opacity:1;" d="M 71.296875 36.964844 C 65.261719 37.542969 61.726562 38.917969 59.816406 40.808594 C 63.628906 39.042969 67.835938 38.171875 72.222656 37.71875 C 72.847656 37.65625 73.308594 37.191406 73.292969 36.648438 C 73.167969 33.027344 73.113281 29.40625 73.078125 25.789062 C 72.511719 29.128906 72.316406 32.507812 72.378906 35.90625 C 72.386719 36.449219 71.921875 36.902344 71.296875 36.964844 Z M 71.296875 36.964844 "/><path style=" stroke:none;fill-rule:evenodd;fill:#ffbf39;fill-opacity:1;" d="M 62.972656 41.765625 C 63.347656 46.738281 63.925781 52.496094 64.507812 57.15625 C 64.621094 58.039062 65.957031 57.523438 66.125 56.75 C 67.457031 50.585938 66.15625 39.011719 69.917969 38.230469 C 64.679688 39.28125 66.671875 50.207031 65.703125 56.09375 C 65.582031 56.835938 64.9375 57.148438 64.867188 56.304688 C 64.496094 51.855469 63.972656 45.140625 62.972656 41.765625 Z M 62.972656 41.765625 "/><path style=" stroke:none;fill-rule:evenodd;fill:#ffbf39;fill-opacity:1;" d="M 16.5625 46.039062 C 16.042969 50.296875 15.304688 55.234375 14.585938 59.226562 C 14.449219 59.984375 13.128906 59.542969 12.984375 58.878906 C 11.824219 53.597656 13.125 44.503906 9.628906 43.101562 C 14.835938 44.003906 12.621094 53.273438 13.421875 58.320312 C 13.523438 58.953125 14.160156 59.222656 14.253906 58.5 C 14.75 54.6875 15.464844 48.929688 16.5625 46.039062 Z M 16.5625 46.039062 "/><g clip-rule="nonzero" clip-path="url(#496d781635)"><path style=" stroke:none;fill-rule:evenodd;fill:#ffbf39;fill-opacity:1;" d="M 7.070312 31.957031 C 6.839844 29.910156 6.605469 27.859375 6.375 25.8125 C 6.332031 27.625 6.292969 29.4375 6.25 31.25 C 6.234375 31.9375 5.695312 32.511719 4.914062 32.664062 C 3.734375 32.894531 2.558594 33.125 1.378906 33.351562 C 1.273438 33.375 1.199219 33.453125 1.203125 33.546875 C 1.265625 35.4375 1.332031 37.328125 1.394531 39.21875 C 1.523438 37.511719 1.652344 35.808594 1.777344 34.101562 C 1.785156 34.007812 1.867188 33.933594 1.976562 33.921875 C 3.171875 33.804688 4.363281 33.6875 5.558594 33.574219 C 6.488281 33.480469 7.164062 32.761719 7.070312 31.957031 Z M 7.070312 31.957031 "/></g><path style=" stroke:none;fill-rule:evenodd;fill:#ffbf39;fill-opacity:1;" d="M 19.800781 41.429688 C 19.738281 41.589844 19.675781 41.753906 19.613281 41.914062 C 14.226562 39.421875 8.820312 36.941406 3.011719 34.773438 C 8.390625 36.128906 14.085938 38.730469 19.800781 41.429688 Z M 19.800781 41.429688 "/><path style=" stroke:none;fill-rule:evenodd;fill:#ffbf39;fill-opacity:1;" d="M 19.867188 48.597656 C 14.574219 45.601562 7.734375 42.054688 2.027344 39.335938 C 7.25 41.1875 13.976562 44.566406 19.523438 47.753906 L 19.316406 41.554688 C 19.3125 41.4375 19.402344 41.339844 19.53125 41.3125 C 21.007812 41.027344 22.484375 40.738281 23.960938 40.453125 C 24.933594 40.261719 25.613281 39.542969 25.632812 38.679688 C 25.683594 36.410156 25.734375 34.144531 25.785156 31.875 C 26.078125 34.441406 26.367188 37.003906 26.660156 39.566406 C 26.773438 40.574219 25.925781 41.476562 24.765625 41.589844 C 23.269531 41.734375 21.777344 41.882812 20.28125 42.027344 C 20.144531 42.039062 20.042969 42.132812 20.035156 42.25 C 19.992188 42.824219 20.628906 47.554688 19.867188 48.597656 Z M 19.867188 48.597656 "/><path style=" stroke:none;fill-rule:evenodd;fill:#ffbf39;fill-opacity:1;" d="M 28.082031 29.746094 L 28.300781 29.347656 L 30.921875 20.34375 L 18.460938 19.039062 L 16.425781 25.21875 L 18.183594 18.347656 L 32.648438 19.972656 L 29.84375 29.71875 Z M 28.082031 29.746094 "/><path style=" stroke:none;fill-rule:evenodd;fill:#ffbf39;fill-opacity:1;" d="M 32.527344 52.960938 C 32.851562 59.082031 33.367188 66.171875 33.898438 71.910156 C 34 72.996094 35.304688 72.363281 35.472656 71.40625 C 36.386719 66.253906 36.351562 58.484375 36.96875 53.6875 C 37.433594 50.117188 42.527344 48.921875 44.707031 48.917969 C 44.835938 48.917969 44.945312 48.878906 45.03125 48.800781 C 45.121094 48.726562 45.164062 48.632812 45.160156 48.523438 C 45.136719 47.855469 45.078125 46.882812 45.078125 46.402344 C 44.769531 46.445312 44.457031 46.488281 44.148438 46.53125 C 44.148438 46.84375 44.148438 47.15625 44.148438 47.46875 C 44.148438 47.660156 43.988281 47.816406 43.769531 47.847656 C 39.742188 48.402344 37.039062 50.128906 36.183594 53.609375 C 35.054688 58.21875 35.746094 65.644531 35.066406 70.601562 C 34.945312 71.515625 34.3125 71.898438 34.253906 70.863281 C 33.929688 65.382812 33.476562 57.117188 32.527344 52.960938 Z M 32.527344 52.960938 "/><path style=" stroke:none;fill-rule:evenodd;fill:#ffbf39;fill-opacity:1;" d="M 25.269531 31.394531 C 21.070312 30.097656 9.203125 26.722656 7.03125 26.074219 C 12.410156 27.027344 20.140625 28.777344 25.269531 31.394531 Z M 25.269531 31.394531 "/><path style=" stroke:none;fill-rule:evenodd;fill:#ffbf39;fill-opacity:1;" d="M 24.617188 39.574219 C 21.460938 38.042969 11.207031 34.527344 9.035156 33.988281 C 13.675781 35.09375 20.3125 37.023438 24.617188 39.574219 Z M 24.617188 39.574219 "/></g></svg>