<svg xmlns="http://www.w3.org/2000/svg" xmlns:xlink="http://www.w3.org/1999/xlink" width="100" zoomAndPan="magnify" viewBox="0 0 75 74.999997" height="100" preserveAspectRatio="xMidYMid meet" version="1.0"><defs><clipPath id="b112bd1754"><path d="M 7.5 28 L 13 28 L 13 40 L 7.5 40 Z M 7.5 28 " clip-rule="nonzero"/></clipPath></defs><path fill="#ffbf39" d="M 11.71875 28.578125 C 29.859375 24.902344 67.363281 25.75 65.699219 28.148438 C 64.625 29.695312 53.597656 28.945312 54.332031 31.367188 C 45.652344 31.972656 36.875 32.796875 28.042969 33.078125 C 36.328125 32.5 44.773438 31.148438 53.0625 30.570312 C 52.359375 27.886719 63.332031 29.566406 64.476562 28.214844 C 66.296875 26.058594 29.085938 25.671875 11.71875 28.578125 Z M 11.71875 28.578125 " fill-opacity="1" fill-rule="evenodd"/><path fill="#ffbf39" d="M 51.203125 26.160156 C 59.824219 23.363281 64.859375 20.914062 64.957031 18.996094 C 65.046875 17.191406 61.246094 16.613281 58 16.800781 C 53.925781 17.035156 53.566406 15.667969 52.71875 12.800781 C 52.015625 10.425781 50.726562 7.96875 43.539062 8.945312 C 38.261719 13.773438 32.988281 18.601562 27.714844 23.429688 C 33.105469 18.972656 38.847656 14.039062 43.738281 9.5625 C 50.40625 8.65625 51.503906 11.195312 52.15625 13.398438 C 52.941406 16.058594 53.5 17.691406 57.28125 17.472656 C 60.292969 17.300781 63.691406 17.71875 63.609375 19.394531 C 63.515625 21.167969 59.195312 23.566406 51.203125 26.160156 Z M 51.203125 26.160156 " fill-opacity="1" fill-rule="evenodd"/><path fill="#ffbf39" d="M 45.066406 13.496094 C 45.578125 19.652344 46.3125 25.722656 48.300781 31.300781 C 48.855469 31.253906 49.40625 31.207031 49.960938 31.160156 C 47.960938 25.910156 46.464844 19.789062 45.066406 13.496094 Z M 45.066406 13.496094 " fill-opacity="1" fill-rule="evenodd"/><path fill="#ffbf39" d="M 44.996094 13.28125 C 45.320312 13.28125 45.582031 13.375 45.582031 13.492188 C 45.582031 13.503906 45.578125 13.519531 45.570312 13.53125 C 45.53125 13.46875 45.378906 13.421875 45.195312 13.421875 C 44.980469 13.421875 44.804688 13.484375 44.804688 13.5625 C 44.804688 13.628906 44.933594 13.683594 45.105469 13.699219 C 45.070312 13.699219 45.03125 13.703125 44.996094 13.703125 C 44.667969 13.703125 44.40625 13.609375 44.40625 13.492188 C 44.40625 13.375 44.667969 13.28125 44.996094 13.28125 Z M 44.996094 13.28125 " fill-opacity="1" fill-rule="evenodd"/><path fill="#ffbf39" d="M 53.164062 42.722656 L 22.96875 47.523438 C 33.46875 46.226562 43.964844 44.929688 54.464844 43.632812 C 53.917969 40.074219 53.753906 36.183594 54.414062 32.433594 C 53.296875 35.695312 52.863281 39.257812 53.164062 42.722656 Z M 53.164062 42.722656 " fill-opacity="1" fill-rule="evenodd"/><path fill="#ffbf39" d="M 64.425781 37.773438 C 59.523438 38.246094 56.65625 39.363281 55.101562 40.898438 C 58.199219 39.464844 61.613281 38.757812 65.175781 38.386719 C 65.683594 38.335938 66.058594 37.960938 66.042969 37.519531 C 65.941406 34.582031 65.898438 31.640625 65.871094 28.703125 C 65.40625 31.414062 65.25 34.15625 65.300781 36.917969 C 65.308594 37.355469 64.929688 37.726562 64.425781 37.773438 Z M 64.425781 37.773438 " fill-opacity="1" fill-rule="evenodd"/><path fill="#ffbf39" d="M 57.664062 41.675781 C 57.96875 45.710938 58.4375 50.386719 58.914062 54.167969 C 59.003906 54.882812 60.089844 54.464844 60.222656 53.835938 C 61.304688 48.832031 60.25 39.4375 63.304688 38.804688 C 59.050781 39.65625 60.667969 48.527344 59.882812 53.304688 C 59.785156 53.90625 59.257812 54.160156 59.203125 53.476562 C 58.902344 49.863281 58.476562 44.414062 57.664062 41.675781 Z M 57.664062 41.675781 " fill-opacity="1" fill-rule="evenodd"/><path fill="#ffbf39" d="M 19.988281 45.140625 C 19.570312 48.601562 18.96875 52.609375 18.386719 55.847656 C 18.277344 56.460938 17.203125 56.105469 17.085938 55.566406 C 16.144531 51.277344 17.199219 43.894531 14.363281 42.757812 C 18.589844 43.488281 16.792969 51.015625 17.441406 55.109375 C 17.523438 55.625 18.039062 55.84375 18.117188 55.257812 C 18.519531 52.160156 19.097656 47.488281 19.988281 45.140625 Z M 19.988281 45.140625 " fill-opacity="1" fill-rule="evenodd"/><g clip-path="url(#b112bd1754)"><path fill="#ffbf39" d="M 12.285156 33.710938 C 12.097656 32.046875 11.910156 30.386719 11.71875 28.722656 C 11.6875 30.195312 11.652344 31.664062 11.621094 33.136719 C 11.609375 33.695312 11.167969 34.160156 10.535156 34.285156 C 9.578125 34.472656 8.621094 34.65625 7.664062 34.84375 C 7.578125 34.859375 7.519531 34.925781 7.523438 35 C 7.574219 36.535156 7.625 38.070312 7.679688 39.605469 C 7.78125 38.222656 7.886719 36.835938 7.988281 35.453125 C 7.996094 35.375 8.0625 35.316406 8.148438 35.308594 C 9.117188 35.210938 10.089844 35.117188 11.058594 35.023438 C 11.8125 34.949219 12.359375 34.363281 12.285156 33.710938 Z M 12.285156 33.710938 " fill-opacity="1" fill-rule="evenodd"/></g><path fill="#ffbf39" d="M 22.621094 41.398438 C 22.570312 41.53125 22.519531 41.664062 22.46875 41.792969 C 18.09375 39.769531 13.707031 37.757812 8.992188 35.996094 C 13.359375 37.097656 17.980469 39.210938 22.621094 41.398438 Z M 22.621094 41.398438 " fill-opacity="1" fill-rule="evenodd"/><path fill="#ffbf39" d="M 22.675781 47.21875 C 18.375 44.785156 12.824219 41.90625 8.191406 39.699219 C 12.429688 41.207031 17.890625 43.945312 22.394531 46.535156 L 22.226562 41.503906 C 22.222656 41.410156 22.296875 41.328125 22.402344 41.304688 C 23.597656 41.074219 24.796875 40.839844 25.996094 40.605469 C 26.789062 40.453125 27.335938 39.871094 27.355469 39.167969 C 27.394531 37.328125 27.4375 35.484375 27.476562 33.644531 C 27.714844 35.726562 27.949219 37.808594 28.1875 39.890625 C 28.277344 40.703125 27.59375 41.4375 26.648438 41.53125 C 25.4375 41.648438 24.222656 41.765625 23.007812 41.886719 C 22.898438 41.894531 22.816406 41.972656 22.808594 42.066406 C 22.773438 42.53125 23.292969 46.375 22.675781 47.21875 Z M 22.675781 47.21875 " fill-opacity="1" fill-rule="evenodd"/><path fill="#ffbf39" d="M 29.34375 31.917969 L 29.519531 31.59375 L 31.648438 24.285156 L 21.53125 23.226562 L 19.878906 28.242188 L 21.304688 22.664062 L 33.046875 23.980469 L 30.769531 31.894531 Z M 29.34375 31.917969 " fill-opacity="1" fill-rule="evenodd"/><path fill="#ffbf39" d="M 32.953125 50.761719 C 33.214844 55.730469 33.632812 61.488281 34.0625 66.140625 C 34.144531 67.023438 35.203125 66.511719 35.339844 65.734375 C 36.085938 61.550781 36.054688 55.246094 36.558594 51.351562 C 36.933594 48.453125 41.070312 47.480469 42.835938 47.480469 C 42.941406 47.480469 43.03125 47.449219 43.101562 47.386719 C 43.171875 47.324219 43.207031 47.246094 43.207031 47.160156 C 43.1875 46.617188 43.140625 45.824219 43.140625 45.4375 C 42.886719 45.472656 42.636719 45.507812 42.382812 45.542969 C 42.382812 45.796875 42.382812 46.050781 42.382812 46.304688 C 42.382812 46.457031 42.253906 46.585938 42.074219 46.609375 C 38.808594 47.058594 36.613281 48.464844 35.917969 51.289062 C 35 55.03125 35.5625 61.058594 35.011719 65.082031 C 34.914062 65.820312 34.398438 66.136719 34.351562 65.292969 C 34.089844 60.847656 33.71875 54.132812 32.953125 50.761719 Z M 32.953125 50.761719 " fill-opacity="1" fill-rule="evenodd"/><path fill="#ffbf39" d="M 27.058594 33.253906 C 23.652344 32.199219 14.015625 29.460938 12.253906 28.9375 C 16.621094 29.707031 22.894531 31.128906 27.058594 33.253906 Z M 27.058594 33.253906 " fill-opacity="1" fill-rule="evenodd"/><path fill="#ffbf39" d="M 26.53125 39.894531 C 23.96875 38.648438 15.644531 35.796875 13.882812 35.359375 C 17.648438 36.257812 23.035156 37.824219 26.53125 39.894531 Z M 26.53125 39.894531 " fill-opacity="1" fill-rule="evenodd"/></svg>