<svg xmlns="http://www.w3.org/2000/svg" xmlns:xlink="http://www.w3.org/1999/xlink" width="100" zoomAndPan="magnify" viewBox="0 0 75 74.999997" height="100" preserveAspectRatio="xMidYMid meet" version="1.2"><defs><clipPath id="415014391d"><path d="M 13 18 L 67.5 18 L 67.5 64.6875 L 13 64.6875 Z M 13 18 "/></clipPath><clipPath id="d7e235a6aa"><path d="M 8 10.6875 L 63 10.6875 L 63 43 L 8 43 Z M 8 10.6875 "/></clipPath></defs><g id="14b93a9c53"><g clip-rule="nonzero" clip-path="url(#415014391d)"><path style=" stroke:none;fill-rule:nonzero;fill:#161616;fill-opacity:1;" d="M 67.5 37.539062 L 67.5 40.292969 L 32.199219 52.316406 L 28.21875 48.570312 L 27.40625 42.046875 L 13.773438 31.128906 L 48.0625 28.367188 L 53.367188 28.367188 L 57.039062 27.855469 L 65.175781 30.3125 L 65.175781 36.617188 Z M 54.445312 18.507812 L 53.792969 18.761719 L 57.492188 28.367188 L 58.28125 28.472656 Z M 22.605469 55.167969 L 22.3125 55.167969 C 22.214844 55.167969 22.128906 55.089844 22.121094 54.988281 L 21.480469 46.5 L 23.308594 46.5 L 22.796875 54.984375 C 22.789062 55.085938 22.703125 55.167969 22.605469 55.167969 Z M 30.195312 49.867188 L 27.40625 49.867188 L 28.4375 64.480469 C 28.445312 64.597656 28.539062 64.6875 28.65625 64.6875 L 29.074219 64.6875 C 29.191406 64.6875 29.285156 64.597656 29.292969 64.480469 Z M 60.785156 42.582031 L 58.042969 43.511719 L 58.554688 56.902344 C 58.5625 57.113281 58.734375 57.277344 58.941406 57.277344 L 59.324219 57.277344 C 59.527344 57.277344 59.695312 57.121094 59.710938 56.917969 Z M 60.785156 42.582031 "/></g><path style=" stroke:none;fill-rule:nonzero;fill:#2d2a2a;fill-opacity:1;" d="M 30.746094 48.742188 C 29.425781 48.082031 28.601562 46.714844 28.636719 45.234375 L 28.710938 42.046875 L 65.175781 30.316406 L 58.476562 27.632812 C 57.878906 27.394531 57.230469 27.296875 56.589844 27.351562 L 50.648438 27.878906 C 50.378906 27.902344 50.109375 27.902344 49.839844 27.875 L 39.320312 26.863281 L 8.277344 28.929688 L 8.78125 36.914062 C 8.804688 38.292969 9.582031 39.546875 10.808594 40.167969 L 17.933594 43.769531 C 18.636719 44.125 19.089844 44.839844 19.113281 45.632812 L 19.125 45.953125 L 32.199219 52.316406 L 32.109375 49.421875 Z M 26.730469 37.867188 C 25.628906 36.992188 24.515625 36.132812 23.410156 35.261719 C 22.136719 34.257812 20.851562 33.253906 19.453125 32.429688 C 19.417969 32.410156 19.429688 32.359375 19.464844 32.347656 C 20.222656 32.066406 20.960938 31.742188 21.683594 31.375 C 21.679688 31.378906 21.671875 31.378906 21.664062 31.378906 C 21.609375 31.390625 21.585938 31.304688 21.644531 31.296875 C 21.753906 31.269531 21.867188 31.246094 21.980469 31.222656 C 22.097656 31.164062 22.214844 31.101562 22.332031 31.035156 C 22.382812 31.007812 22.425781 31.085938 22.375 31.113281 C 22.34375 31.128906 22.3125 31.144531 22.285156 31.160156 C 25.097656 30.585938 27.949219 30.230469 30.800781 29.960938 C 33.539062 29.699219 36.285156 29.507812 39.027344 29.257812 C 40.394531 29.132812 41.757812 28.992188 43.125 28.824219 C 43.800781 28.738281 44.472656 28.65625 45.15625 28.640625 C 45.855469 28.625 46.5625 28.660156 47.257812 28.710938 C 48.605469 28.8125 49.949219 29.019531 51.304688 28.957031 C 52.558594 28.898438 53.800781 28.671875 55.042969 28.492188 C 55.664062 28.40625 56.269531 28.339844 56.898438 28.371094 C 57.46875 28.40625 58.035156 28.496094 58.585938 28.636719 C 59.757812 28.941406 60.863281 29.472656 61.863281 30.15625 C 61.890625 30.171875 61.890625 30.214844 61.863281 30.230469 C 61.609375 30.386719 34.496094 38.402344 33.71875 38.636719 C 32.976562 38.859375 32.21875 39.042969 31.496094 39.328125 C 30.941406 39.550781 30.375 39.800781 29.769531 39.664062 C 29.226562 39.542969 28.71875 39.261719 28.253906 38.964844 C 27.71875 38.636719 27.21875 38.257812 26.730469 37.867188 Z M 26.730469 37.867188 "/><g clip-rule="nonzero" clip-path="url(#d7e235a6aa)"><path style=" stroke:none;fill-rule:nonzero;fill:#4f4d4d;fill-opacity:1;" d="M 28.714844 42.046875 L 10.5 32.214844 C 8.089844 30.914062 7.5 27.699219 9.289062 25.621094 L 12.429688 21.964844 C 13.582031 20.625 14.933594 19.464844 16.433594 18.535156 L 18.308594 17.367188 C 22.90625 14.511719 28.328125 13.3125 33.691406 13.96875 L 37.515625 14.410156 C 41.886719 14.914062 46.308594 14.070312 50.191406 11.980469 C 52.128906 10.9375 54.386719 10.6875 56.503906 11.277344 L 62.539062 12.957031 Z M 28.714844 42.046875 "/></g><path style=" stroke:none;fill-rule:nonzero;fill:#ededed;fill-opacity:1;" d="M 64.867188 40.351562 L 34.160156 50.535156 L 34.117188 49.746094 L 30.5 47.792969 L 61.355469 37.875 L 64.886719 39.585938 Z M 64.867188 40.351562 "/><path style=" stroke:none;fill-rule:nonzero;fill:#161616;fill-opacity:1;" d="M 48.308594 44.011719 L 49.515625 44.6875 L 49.515625 45.507812 L 49.472656 45.507812 L 49.472656 44.714844 L 48.253906 44.03125 L 47.742188 44.203125 L 49 44.90625 L 49 45.726562 L 48.957031 45.726562 L 48.957031 44.933594 L 47.6875 44.222656 L 47.390625 44.320312 L 45.042969 43.039062 L 45.378906 42.929688 L 45.347656 42.910156 L 45.367188 42.871094 L 45.433594 42.910156 L 45.957031 42.742188 L 45.863281 42.691406 L 45.882812 42.652344 L 46.011719 42.726562 L 46.339844 42.617188 L 48.605469 43.910156 Z M 42.605469 45.9375 L 40.015625 44.605469 L 39.875 44.652344 L 39.867188 44.644531 L 39.863281 44.65625 L 39.246094 44.855469 L 39.210938 44.835938 L 39.191406 44.871094 L 38.601562 45.0625 L 38.550781 45.035156 L 38.53125 45.074219 L 38.546875 45.082031 L 38.09375 45.226562 L 40.695312 46.582031 L 41.03125 46.46875 L 42.144531 47.09375 L 42.144531 47.886719 L 42.1875 47.886719 L 42.1875 47.066406 L 41.085938 46.453125 L 41.660156 46.257812 L 42.804688 46.898438 L 42.804688 47.6875 L 42.847656 47.6875 L 42.847656 46.871094 L 41.71875 46.238281 L 42.28125 46.046875 L 43.457031 46.707031 L 43.457031 47.5 L 43.5 47.5 L 43.5 46.679688 L 42.335938 46.03125 Z M 52.691406 42.535156 L 50.476562 41.21875 L 50.199219 41.308594 L 50.078125 41.242188 L 50.058594 41.28125 L 50.144531 41.324219 L 49.582031 41.503906 L 49.503906 41.460938 L 49.484375 41.5 L 49.527344 41.523438 L 49.179688 41.636719 L 51.539062 42.921875 L 51.847656 42.820312 L 53.097656 43.519531 L 53.097656 44.308594 L 53.140625 44.308594 L 53.140625 43.492188 L 51.902344 42.800781 L 52.453125 42.613281 L 53.671875 43.296875 L 53.671875 44.089844 L 53.714844 44.089844 L 53.714844 43.269531 L 52.503906 42.59375 Z M 46.964844 44.46875 L 44.375 43.199219 L 44.214844 43.25 L 44.179688 43.230469 L 44.160156 43.265625 L 43.558594 43.460938 L 43.488281 43.417969 L 43.46875 43.457031 L 43.503906 43.476562 L 42.871094 43.679688 L 42.832031 43.65625 L 42.8125 43.695312 L 42.8125 43.699219 L 42.449219 43.816406 L 44.910156 45.15625 L 45.230469 45.046875 L 46.421875 45.714844 L 46.421875 46.507812 L 46.464844 46.507812 L 46.464844 45.691406 L 45.285156 45.03125 L 45.902344 44.820312 L 47.074219 45.476562 L 47.074219 46.269531 L 47.117188 46.269531 L 47.117188 45.449219 L 45.957031 44.804688 L 46.546875 44.605469 L 47.765625 45.289062 L 47.765625 46.082031 L 47.808594 46.082031 L 47.808594 45.261719 L 46.601562 44.585938 Z M 40.113281 46.777344 L 37.589844 45.441406 L 37.421875 45.5 L 37.398438 45.488281 L 37.386719 45.511719 L 36.875 45.691406 L 36.742188 45.613281 L 36.722656 45.652344 L 36.824219 45.707031 L 36.394531 45.855469 L 38.859375 47.203125 L 39.257812 47.066406 L 40.335938 47.667969 L 40.335938 48.460938 L 40.378906 48.460938 L 40.378906 47.644531 L 39.3125 47.050781 L 39.808594 46.882812 L 40.992188 47.542969 L 40.992188 48.335938 L 41.035156 48.335938 L 41.035156 47.519531 L 39.863281 46.863281 Z M 44.34375 45.347656 L 41.804688 43.914062 L 40.507812 44.332031 L 43.125 45.761719 L 43.398438 45.671875 L 44.617188 46.351562 L 44.617188 47.144531 L 44.660156 47.144531 L 44.660156 46.328125 L 43.453125 45.65625 L 44.050781 45.453125 L 45.269531 46.132812 L 45.269531 46.925781 L 45.3125 46.925781 L 45.3125 46.109375 L 44.105469 45.4375 Z M 54.996094 41.757812 L 53.027344 40.742188 L 52.558594 40.480469 L 52.539062 40.515625 L 52.617188 40.5625 L 52.101562 40.726562 L 51.894531 40.613281 L 51.875 40.648438 L 52.046875 40.746094 L 51.488281 40.925781 L 51.316406 40.828125 L 51.296875 40.867188 L 51.433594 40.945312 L 50.757812 41.160156 L 50.746094 41.152344 L 50.738281 41.164062 L 50.734375 41.167969 L 50.734375 41.171875 L 50.722656 41.191406 L 54.335938 43.214844 L 54.335938 44.003906 L 54.378906 44.003906 L 54.378906 43.1875 L 52.367188 42.0625 L 53.027344 42.421875 L 53.675781 42.203125 L 54.90625 42.886719 L 54.90625 43.679688 L 54.949219 43.679688 L 54.949219 42.863281 L 53.734375 42.183594 L 54.28125 42 L 55.480469 42.667969 L 55.480469 43.460938 L 55.523438 43.460938 L 55.523438 42.644531 L 54.335938 41.980469 L 54.84375 41.8125 L 56.144531 42.539062 L 56.144531 43.332031 L 56.1875 43.332031 L 56.1875 42.515625 L 54.898438 41.792969 Z M 50.972656 43.113281 L 48.648438 41.730469 L 48.3125 41.839844 L 48.269531 41.816406 L 48.25 41.855469 L 48.257812 41.855469 L 47.730469 42.023438 L 47.695312 42.003906 L 47.675781 42.042969 L 47.050781 42.242188 L 47.050781 42.246094 L 46.730469 42.347656 L 49.183594 43.71875 L 49.441406 43.628906 L 50.640625 44.300781 L 50.640625 45.09375 L 50.683594 45.09375 L 50.683594 44.273438 L 49.496094 43.613281 L 50.109375 43.40625 L 51.285156 44.0625 L 51.285156 44.855469 L 51.328125 44.855469 L 51.328125 44.039062 L 50.164062 43.386719 L 50.679688 43.214844 L 51.859375 43.875 L 51.859375 44.667969 L 51.902344 44.667969 L 51.902344 43.851562 L 50.734375 43.199219 Z M 59.253906 40.359375 L 56.96875 39.179688 L 56.917969 39.199219 L 56.679688 39.0625 L 56.660156 39.101562 L 56.859375 39.21875 L 56.371094 39.375 L 56.050781 39.195312 L 56.03125 39.234375 L 56.3125 39.390625 L 55.59375 39.625 L 55.390625 39.507812 L 55.371094 39.546875 L 55.535156 39.640625 L 55.148438 39.765625 L 57.386719 40.949219 L 57.703125 40.851562 L 58.984375 41.566406 L 58.984375 42.359375 L 59.027344 42.359375 L 59.027344 41.542969 L 57.757812 40.832031 L 58.480469 40.601562 L 59.644531 41.25 L 59.644531 42.042969 L 59.6875 42.042969 L 59.6875 41.226562 L 58.535156 40.582031 L 59.03125 40.425781 L 60.273438 41.121094 L 60.273438 41.914062 L 60.316406 41.914062 L 60.316406 41.097656 L 59.085938 40.410156 Z M 60.785156 39.757812 L 58.570312 38.488281 L 57.402344 38.863281 L 59.863281 40.183594 L 60.125 40.066406 L 61.457031 40.808594 L 61.457031 41.601562 L 61.5 41.601562 L 61.5 40.785156 L 60.171875 40.042969 L 60.5 39.890625 L 61.925781 40.6875 L 61.925781 41.480469 L 61.96875 41.480469 L 61.96875 40.664062 L 60.546875 39.871094 Z M 35.761719 48.246094 L 33.332031 46.851562 L 33.070312 46.929688 L 32.652344 46.695312 L 32.632812 46.734375 L 33.011719 46.945312 L 32.085938 47.210938 C 32.085938 47.210938 34.617188 48.632812 34.640625 48.625 L 34.878906 48.546875 L 35.972656 49.15625 L 35.972656 49.949219 L 36.015625 49.949219 L 36.015625 49.132812 L 34.933594 48.527344 L 35.5 48.335938 L 36.617188 48.960938 L 36.617188 49.753906 L 36.660156 49.753906 L 36.660156 48.9375 L 35.554688 48.320312 Z M 38.3125 47.382812 L 35.742188 45.9375 L 35.441406 46.054688 L 35.191406 45.917969 L 35.171875 45.957031 L 35.390625 46.078125 L 34.882812 46.28125 L 34.570312 46.105469 L 34.550781 46.144531 L 34.828125 46.300781 L 34.3125 46.507812 L 33.9375 46.300781 L 33.917969 46.335938 L 34.257812 46.527344 L 33.933594 46.65625 L 36.429688 48.019531 L 36.742188 47.914062 L 37.875 48.546875 L 37.875 49.339844 L 37.917969 49.339844 L 37.917969 48.523438 L 36.796875 47.898438 L 37.351562 47.710938 L 38.421875 48.3125 L 38.421875 49.105469 L 38.464844 49.105469 L 38.464844 48.285156 L 37.40625 47.695312 L 37.949219 47.511719 L 39.042969 48.125 L 39.042969 48.917969 L 39.085938 48.917969 L 39.085938 48.097656 L 38.003906 47.492188 Z M 33.875 48.832031 L 31.460938 47.457031 L 30.710938 47.664062 L 33.320312 49.070312 L 33.605469 48.949219 L 34.734375 49.582031 L 34.734375 50.375 L 34.777344 50.375 L 34.777344 49.554688 L 33.652344 48.929688 Z M 56.8125 41.144531 L 54.441406 39.855469 L 54.347656 39.886719 L 54.234375 39.828125 L 54.214844 39.863281 L 54.289062 39.90625 L 53.753906 40.074219 L 53.699219 40.046875 L 53.679688 40.082031 L 53.699219 40.09375 L 53.308594 40.21875 L 55.644531 41.535156 L 56.035156 41.402344 L 57.289062 42.101562 L 57.289062 42.894531 L 57.332031 42.894531 L 57.332031 42.078125 L 56.09375 41.382812 L 56.613281 41.207031 L 57.824219 41.882812 L 57.824219 42.675781 L 57.867188 42.675781 L 57.867188 41.859375 L 56.667969 41.191406 Z M 37.945312 45.320312 L 41.558594 47.339844 L 41.558594 48.132812 L 41.601562 48.132812 L 41.601562 47.316406 L 37.964844 45.285156 Z M 33.25 46.601562 L 37.230469 48.757812 L 37.230469 49.550781 L 37.273438 49.550781 L 37.273438 48.734375 L 33.269531 46.566406 Z M 35.902344 45.769531 L 39.6875 47.882812 L 39.6875 48.675781 L 39.730469 48.675781 L 39.730469 47.855469 L 35.921875 45.730469 Z M 31.792969 47.382812 L 35.371094 49.382812 L 35.371094 50.171875 L 35.414062 50.171875 L 35.414062 49.355469 L 31.816406 47.34375 Z M 46.4375 42.492188 L 50.050781 44.515625 L 50.050781 45.304688 L 50.09375 45.304688 L 50.09375 44.488281 L 46.457031 42.457031 Z M 40.535156 44.542969 L 44.148438 46.5625 L 44.148438 47.355469 L 44.191406 47.355469 L 44.191406 46.535156 L 40.554688 44.503906 Z M 57.308594 39.027344 L 60.921875 41.046875 L 60.921875 41.839844 L 60.964844 41.839844 L 60.964844 41.019531 L 57.328125 38.988281 Z M 58.90625 38.363281 L 62.515625 40.382812 L 62.515625 41.175781 L 62.558594 41.175781 L 62.558594 40.359375 L 58.925781 38.324219 Z M 63.011719 39.054688 L 63.15625 39.007812 L 60.878906 37.734375 L 60.734375 37.78125 L 60.5 37.648438 L 60.480469 37.6875 L 60.679688 37.800781 L 60.113281 37.980469 L 60.039062 37.9375 L 60.015625 37.976562 L 60.058594 38 L 59.589844 38.148438 L 59.492188 38.097656 L 59.472656 38.132812 L 59.53125 38.167969 L 59.191406 38.28125 L 61.480469 39.574219 L 61.832031 39.453125 L 63.082031 40.152344 L 63.082031 40.945312 L 63.125 40.945312 L 63.125 40.128906 L 61.882812 39.433594 L 62.347656 39.28125 L 63.628906 39.996094 L 63.628906 40.789062 L 63.671875 40.789062 L 63.671875 39.972656 L 62.402344 39.261719 L 62.957031 39.074219 L 64.089844 39.707031 L 64.089844 40.648438 L 64.132812 40.648438 L 64.132812 39.679688 Z M 54.84375 39.777344 L 58.457031 41.796875 L 58.457031 42.589844 L 58.5 42.589844 L 58.5 41.773438 L 54.867188 39.738281 Z M 44.730469 43.035156 L 48.34375 45.054688 L 48.34375 45.847656 L 48.386719 45.847656 L 48.386719 45.03125 L 44.75 42.996094 Z M 42.152344 43.90625 L 45.765625 45.925781 L 45.765625 46.71875 L 45.808594 46.71875 L 45.808594 45.902344 L 42.171875 43.867188 Z M 53.035156 40.277344 L 56.648438 42.296875 L 56.648438 43.089844 L 56.691406 43.089844 L 56.691406 42.269531 L 53.054688 40.238281 Z M 48.835938 41.621094 L 52.449219 43.640625 L 52.449219 44.433594 L 52.492188 44.433594 L 52.492188 43.617188 L 48.855469 41.585938 Z M 48.835938 41.621094 "/></g></svg>