<svg xmlns="http://www.w3.org/2000/svg" xmlns:xlink="http://www.w3.org/1999/xlink" width="100" zoomAndPan="magnify" viewBox="0 0 75 74.999997" height="100" preserveAspectRatio="xMidYMid meet" version="1.2"><defs><clipPath id="4fe835b8ab"><path d="M 48.871094 23.515625 L 67.492188 23.515625 L 67.492188 41.71875 L 48.871094 41.71875 Z M 48.871094 23.515625 "/></clipPath><clipPath id="eefe0d5893"><path d="M 49.722656 22.660156 L 67.492188 22.660156 L 67.492188 43.648438 L 49.722656 43.648438 Z M 49.722656 22.660156 "/></clipPath><clipPath id="47a062abfc"><path d="M 54 32.511719 L 67.492188 32.511719 L 67.492188 43.648438 L 54 43.648438 Z M 54 32.511719 "/></clipPath><clipPath id="1bfa0848cf"><path d="M 7.5 23 L 27 23 L 27 42 L 7.5 42 Z M 7.5 23 "/></clipPath><clipPath id="fd52cef3e8"><path d="M 7.5 22.125 L 26 22.125 L 26 44 L 7.5 44 Z M 7.5 22.125 "/></clipPath><clipPath id="aacca4e69e"><path d="M 7.5 31 L 23 31 L 23 44 L 7.5 44 Z M 7.5 31 "/></clipPath><clipPath id="ae93975762"><path d="M 36.714844 52.855469 L 37.355469 52.855469 L 37.355469 56.625 L 36.714844 56.625 Z M 36.714844 52.855469 "/></clipPath></defs><g id="cad2aeb27f"><path style=" stroke:none;fill-rule:nonzero;fill:#a3cae3;fill-opacity:1;" d="M 53.585938 41.691406 C 53.015625 42.003906 51.78125 40.382812 51.453125 39.664062 L 53.453125 39.417969 L 54.082031 40.890625 L 53.585938 41.691406 "/><path style=" stroke:none;fill-rule:nonzero;fill:#091626;fill-opacity:1;" d="M 56.097656 43.542969 C 55.453125 43.890625 54.0625 42.066406 53.695312 41.261719 L 55.945312 40.984375 L 56.652344 42.636719 L 56.097656 43.542969 "/><path style=" stroke:none;fill-rule:nonzero;fill:#feb87a;fill-opacity:1;" d="M 29.042969 43.335938 C 28.894531 43.691406 28.523438 44.234375 28.082031 44.628906 C 27.675781 44.992188 27.308594 45.0625 26.785156 44.925781 C 26.191406 44.769531 25.574219 44.226562 25.539062 43.570312 C 25.511719 43.019531 25.828125 42.449219 26.398438 41.9375 C 27.601562 41.714844 29.59375 42.015625 29.042969 43.335938 "/><path style=" stroke:none;fill-rule:nonzero;fill:#f5ab76;fill-opacity:1;" d="M 48.515625 43.519531 C 47.902344 44.300781 47.039062 44.535156 46.015625 43.785156 L 45.96875 43.773438 L 45.976562 43.789062 C 45.976562 43.792969 45.980469 43.792969 45.980469 43.792969 C 45.980469 43.792969 45.980469 43.792969 45.980469 43.796875 C 46.617188 44.496094 46.574219 45.453125 45.984375 46.132812 C 45.367188 46.835938 44.421875 47.027344 43.554688 46.332031 C 43.949219 47.007812 43.695312 47.757812 43.152344 48.300781 C 42.589844 48.859375 41.765625 48.804688 40.945312 48.257812 C 40.886719 48.21875 40.828125 48.15625 40.777344 48.089844 C 40.785156 48.480469 40.636719 48.878906 40.433594 49.203125 C 40.007812 49.875 39.171875 50.128906 37.9375 49.398438 L 26.15625 41.773438 C 25.257812 41.210938 24.554688 40.890625 24.023438 40.71875 C 23.566406 40.566406 23.238281 40.527344 23.019531 40.535156 L 25.960938 30.6875 C 26.023438 30.730469 26.09375 30.773438 26.164062 30.8125 C 27.59375 31.675781 29.734375 32.011719 30.652344 32.101562 C 30.691406 32.105469 30.730469 32.105469 30.761719 32.105469 L 30.777344 32.105469 C 30.949219 32.105469 31.117188 32.070312 31.273438 32.003906 L 31.289062 31.996094 C 31.289062 31.996094 34.027344 31.03125 35.335938 30.277344 C 36.019531 29.882812 36.84375 30.007812 37.5625 30.296875 C 38.167969 30.539062 38.339844 30.925781 38.742188 31.390625 C 39.449219 32.207031 40.191406 32.996094 40.917969 33.796875 C 42.457031 35.488281 43.640625 37.125 45.367188 38.625 C 45.964844 39.148438 47.472656 40.183594 48.203125 41.039062 C 49.019531 41.996094 49.105469 42.761719 48.515625 43.519531 "/><path style=" stroke:none;fill-rule:nonzero;fill:#091626;fill-opacity:1;" d="M 50.546875 29.464844 L 50.308594 29.984375 L 49.898438 30.882812 C 49.683594 30.609375 49.5 29.460938 49.722656 29.285156 L 49.730469 29.28125 C 49.832031 29.257812 50.546875 29.464844 50.546875 29.464844 "/><path style=" stroke:none;fill-rule:nonzero;fill:#a3cae3;fill-opacity:1;" d="M 48.917969 30.332031 C 48.683594 30.472656 48.867188 31.546875 49.078125 31.820312 L 49.726562 30.402344 L 48.941406 30.332031 L 48.917969 30.332031 "/><path style=" stroke:none;fill-rule:nonzero;fill:#f29a63;fill-opacity:1;" d="M 45.976562 43.789062 C 45.570312 43.515625 45.203125 43.214844 44.835938 42.902344 C 44.464844 42.574219 44.105469 42.238281 43.777344 41.871094 C 44.1875 42.148438 44.570312 42.457031 44.941406 42.777344 C 45.296875 43.09375 45.648438 43.417969 45.96875 43.769531 L 45.96875 43.773438 L 45.976562 43.789062 "/><path style=" stroke:none;fill-rule:nonzero;fill:#f29a63;fill-opacity:1;" d="M 43.601562 46.363281 C 43.601562 46.363281 42.910156 45.863281 42.640625 45.636719 C 42.347656 45.375 42.046875 45.132812 41.792969 44.820312 C 42.148438 45.023438 42.460938 45.265625 42.761719 45.519531 C 43.058594 45.78125 43.347656 46.050781 43.601562 46.363281 "/><path style=" stroke:none;fill-rule:nonzero;fill:#f29a63;fill-opacity:1;" d="M 40.777344 48.089844 C 40.777344 48.089844 40.398438 47.828125 40.222656 47.671875 C 40.058594 47.507812 39.78125 47.167969 39.757812 47.117188 C 39.789062 47.117188 40.140625 47.402344 40.3125 47.558594 C 40.476562 47.726562 40.753906 48.03125 40.777344 48.089844 "/><path style=" stroke:none;fill-rule:nonzero;fill:#f29a63;fill-opacity:1;" d="M 32.394531 32.722656 C 32.148438 32.492188 31.84375 32.351562 31.53125 32.257812 C 31.285156 32.183594 31.027344 32.136719 30.777344 32.105469 C 30.949219 32.105469 31.117188 32.070312 31.273438 32.003906 C 31.382812 32.039062 31.480469 32.082031 31.582031 32.125 C 31.890625 32.273438 32.183594 32.460938 32.394531 32.722656 "/><path style=" stroke:none;fill-rule:nonzero;fill:#ffc087;fill-opacity:1;" d="M 53.703125 40.050781 L 53.695312 40.050781 C 53.476562 40.0625 52.757812 40.136719 52.515625 40.179688 C 52.433594 40.191406 52.355469 40.207031 52.273438 40.222656 C 51.339844 40.402344 50.347656 40.695312 50.347656 40.695312 C 50.308594 40.847656 49.585938 41.617188 48.8125 42.035156 C 48.707031 41.722656 48.507812 41.394531 48.203125 41.039062 C 47.625 40.363281 46.558594 39.570312 45.839844 39.011719 L 45.839844 39.007812 L 45.835938 39.007812 C 45.789062 38.984375 45.746094 38.964844 45.699219 38.941406 C 42.964844 37.648438 39.941406 34.933594 39.050781 33.976562 C 39.035156 33.957031 39.015625 33.9375 39 33.921875 L 38.996094 33.914062 C 38.996094 33.914062 38.972656 33.941406 38.925781 33.992188 C 38.71875 34.191406 38.042969 34.769531 36.453125 35.335938 C 36.429688 35.34375 36.402344 35.355469 36.375 35.363281 C 36.464844 36.378906 35.824219 37.28125 34.925781 37.703125 C 34.46875 37.921875 33.640625 38.023438 33.148438 37.753906 C 32.988281 37.664062 32.808594 37.425781 32.757812 37.21875 C 32.75 37.183594 32.742188 37.144531 32.742188 37.109375 L 32.742188 37.105469 C 32.734375 36.851562 32.867188 36.582031 32.945312 36.273438 C 32.949219 36.253906 32.957031 36.234375 32.960938 36.214844 C 33.039062 35.851562 33.203125 35.339844 33.292969 34.929688 C 33.300781 34.863281 33.316406 34.800781 33.328125 34.742188 C 33.382812 34.421875 33.417969 34.105469 33.421875 33.785156 C 33.429688 33.265625 33.8125 32.867188 34.214844 32.542969 C 35.285156 31.671875 37.097656 30.839844 37.910156 30.480469 L 37.914062 30.480469 C 38.171875 30.371094 38.332031 30.304688 38.335938 30.304688 C 39.421875 29.714844 40.75 30.320312 41.816406 30.667969 C 43.085938 31.082031 44.382812 31.550781 45.515625 32.269531 C 45.589844 32.316406 45.671875 32.347656 45.757812 32.359375 C 45.957031 32.398438 46.183594 32.355469 46.378906 32.289062 L 46.40625 32.28125 C 46.992188 32.074219 48.371094 31.449219 49.136719 31.089844 C 49.464844 30.941406 49.679688 30.839844 49.679688 30.839844 C 57.167969 33 53.703125 40.050781 53.703125 40.050781 "/><path style=" stroke:none;fill-rule:nonzero;fill:#f29d66;fill-opacity:1;" d="M 48.871094 42.265625 L 48.867188 42.253906 C 48.867188 42.253906 48.867188 42.257812 48.871094 42.261719 L 48.871094 42.265625 "/><path style=" stroke:none;fill-rule:nonzero;fill:#fdeadd;fill-opacity:1;" d="M 48.640625 41.652344 C 48.640625 41.652344 48.636719 41.652344 48.636719 41.648438 C 48.636719 41.652344 48.640625 41.652344 48.640625 41.652344 M 48.589844 41.570312 C 48.488281 41.398438 48.359375 41.222656 48.203125 41.039062 C 48.210938 41.050781 48.222656 41.066406 48.234375 41.078125 C 48.371094 41.238281 48.484375 41.398438 48.578125 41.550781 C 48.582031 41.554688 48.585938 41.5625 48.589844 41.570312 M 48.097656 40.921875 C 48.058594 40.878906 48.019531 40.835938 47.976562 40.796875 C 47.992188 40.808594 48.003906 40.820312 48.015625 40.832031 C 48.027344 40.84375 48.039062 40.855469 48.050781 40.871094 C 48.066406 40.886719 48.082031 40.90625 48.097656 40.921875 M 47.933594 40.75 C 47.886719 40.699219 47.835938 40.652344 47.785156 40.605469 C 47.789062 40.609375 47.792969 40.609375 47.796875 40.613281 C 47.839844 40.65625 47.878906 40.695312 47.921875 40.738281 C 47.925781 40.742188 47.929688 40.746094 47.933594 40.75 M 47.699219 40.523438 C 47.597656 40.429688 47.496094 40.335938 47.386719 40.242188 C 47.410156 40.265625 47.433594 40.285156 47.457031 40.308594 C 47.539062 40.375 47.617188 40.445312 47.691406 40.515625 C 47.695312 40.519531 47.695312 40.519531 47.699219 40.523438 M 47.296875 40.167969 C 46.859375 39.796875 46.378906 39.429688 45.980469 39.121094 C 46.097656 39.207031 46.214844 39.300781 46.339844 39.398438 C 46.371094 39.421875 46.402344 39.445312 46.429688 39.46875 C 46.449219 39.484375 46.46875 39.5 46.488281 39.511719 C 46.738281 39.710938 47 39.917969 47.25 40.128906 C 47.265625 40.140625 47.28125 40.15625 47.296875 40.167969 M 45.886719 39.046875 C 45.871094 39.035156 45.851562 39.019531 45.835938 39.007812 L 45.839844 39.007812 L 45.839844 39.011719 C 45.84375 39.015625 45.851562 39.015625 45.855469 39.019531 C 45.863281 39.027344 45.875 39.039062 45.886719 39.046875 "/><path style=" stroke:none;fill-rule:nonzero;fill:#f29d66;fill-opacity:1;" d="M 48.867188 42.253906 C 48.753906 41.980469 48.566406 41.691406 48.304688 41.386719 C 47.730469 40.707031 46.660156 39.914062 45.945312 39.355469 L 45.9375 39.355469 C 45.890625 39.332031 45.847656 39.3125 45.800781 39.285156 C 43.070312 37.992188 40.042969 35.28125 39.152344 34.320312 C 39.136719 34.300781 39.121094 34.28125 39.101562 34.265625 L 39.097656 34.261719 C 39.097656 34.261719 39.074219 34.285156 39.027344 34.335938 C 38.824219 34.539062 38.148438 35.113281 36.558594 35.683594 C 36.535156 35.691406 36.503906 35.703125 36.476562 35.710938 C 36.566406 36.722656 35.929688 37.625 35.027344 38.050781 C 34.765625 38.175781 34.378906 38.261719 34.003906 38.261719 C 33.730469 38.261719 33.460938 38.214844 33.253906 38.101562 C 33.09375 38.011719 32.910156 37.769531 32.859375 37.5625 C 32.851562 37.527344 32.847656 37.492188 32.847656 37.453125 L 32.847656 37.433594 C 32.921875 37.554688 33.015625 37.667969 33.113281 37.730469 C 33.117188 37.734375 33.121094 37.738281 33.125 37.738281 C 33.132812 37.746094 33.140625 37.75 33.148438 37.753906 C 33.355469 37.871094 33.625 37.917969 33.902344 37.917969 C 34.277344 37.917969 34.664062 37.828125 34.925781 37.703125 C 34.96875 37.683594 35.015625 37.660156 35.058594 37.636719 C 35.886719 37.1875 36.457031 36.328125 36.375 35.363281 C 36.375 35.363281 36.378906 35.363281 36.378906 35.363281 C 36.40625 35.355469 36.429688 35.34375 36.453125 35.335938 C 36.863281 35.191406 37.210938 35.042969 37.507812 34.902344 C 38.359375 34.496094 38.773438 34.140625 38.925781 33.992188 C 38.941406 33.972656 38.957031 33.957031 38.96875 33.945312 C 38.972656 33.9375 38.976562 33.9375 38.980469 33.933594 C 38.988281 33.921875 38.992188 33.914062 38.996094 33.914062 L 38.996094 33.917969 L 39 33.921875 C 39.015625 33.9375 39.03125 33.957031 39.046875 33.972656 C 39.050781 33.976562 39.050781 33.976562 39.050781 33.976562 C 39.933594 34.925781 42.914062 37.601562 45.628906 38.90625 C 45.652344 38.917969 45.675781 38.929688 45.699219 38.941406 C 45.699219 38.941406 45.703125 38.941406 45.707031 38.945312 C 45.746094 38.964844 45.785156 38.984375 45.824219 39.003906 C 45.828125 39.003906 45.832031 39.007812 45.835938 39.007812 C 45.851562 39.019531 45.871094 39.035156 45.886719 39.046875 C 45.882812 39.054688 45.875 39.058594 45.871094 39.0625 L 45.925781 39.148438 C 45.945312 39.140625 45.960938 39.128906 45.980469 39.121094 C 46.378906 39.429688 46.859375 39.796875 47.296875 40.167969 C 47.3125 40.183594 47.328125 40.195312 47.34375 40.207031 C 47.355469 40.21875 47.371094 40.230469 47.386719 40.242188 C 47.496094 40.335938 47.597656 40.429688 47.699219 40.523438 C 47.707031 40.53125 47.714844 40.539062 47.722656 40.542969 C 47.742188 40.566406 47.761719 40.585938 47.785156 40.605469 C 47.835938 40.652344 47.886719 40.699219 47.933594 40.75 C 47.941406 40.757812 47.953125 40.769531 47.964844 40.78125 C 47.96875 40.785156 47.972656 40.789062 47.976562 40.796875 C 48.019531 40.835938 48.058594 40.878906 48.097656 40.921875 C 48.132812 40.960938 48.167969 41 48.203125 41.039062 C 48.359375 41.222656 48.488281 41.398438 48.589844 41.570312 C 48.601562 41.589844 48.617188 41.609375 48.625 41.632812 C 48.628906 41.636719 48.632812 41.644531 48.636719 41.648438 C 48.636719 41.652344 48.640625 41.652344 48.640625 41.652344 C 48.648438 41.671875 48.660156 41.6875 48.667969 41.707031 C 48.671875 41.710938 48.675781 41.71875 48.675781 41.726562 C 48.683594 41.734375 48.6875 41.742188 48.691406 41.753906 C 48.710938 41.785156 48.726562 41.820312 48.738281 41.855469 C 48.75 41.875 48.757812 41.898438 48.765625 41.917969 C 48.78125 41.953125 48.792969 41.988281 48.808594 42.023438 C 48.808594 42.027344 48.808594 42.03125 48.8125 42.035156 L 48.867188 42.253906 "/><path style=" stroke:none;fill-rule:nonzero;fill:#fcb075;fill-opacity:1;" d="M 48.8125 42.035156 C 48.808594 42.03125 48.808594 42.027344 48.808594 42.023438 C 48.808594 42.027344 48.808594 42.03125 48.8125 42.035156 M 48.738281 41.855469 C 48.726562 41.820312 48.710938 41.785156 48.691406 41.753906 C 48.710938 41.785156 48.726562 41.820312 48.738281 41.855469 M 48.667969 41.707031 C 48.660156 41.6875 48.648438 41.671875 48.640625 41.652344 C 48.640625 41.652344 48.636719 41.652344 48.636719 41.648438 C 48.648438 41.667969 48.660156 41.6875 48.667969 41.707031 M 48.578125 41.550781 C 48.484375 41.398438 48.371094 41.238281 48.234375 41.078125 C 48.371094 41.238281 48.484375 41.394531 48.578125 41.550781 M 48.050781 40.871094 C 48.039062 40.855469 48.027344 40.84375 48.015625 40.832031 C 48.027344 40.84375 48.039062 40.855469 48.050781 40.871094 M 47.921875 40.738281 C 47.878906 40.695312 47.839844 40.65625 47.796875 40.613281 C 47.816406 40.632812 47.835938 40.648438 47.851562 40.667969 C 47.875 40.691406 47.898438 40.714844 47.921875 40.738281 M 47.691406 40.515625 C 47.617188 40.445312 47.539062 40.375 47.457031 40.308594 C 47.488281 40.332031 47.515625 40.355469 47.542969 40.382812 C 47.59375 40.425781 47.644531 40.46875 47.691406 40.515625 M 47.25 40.128906 C 47 39.917969 46.738281 39.710938 46.488281 39.511719 C 46.640625 39.632812 46.796875 39.757812 46.953125 39.882812 C 47.054688 39.960938 47.152344 40.046875 47.25 40.128906 M 46.339844 39.398438 C 46.214844 39.300781 46.097656 39.207031 45.980469 39.121094 C 46.035156 39.160156 46.089844 39.203125 46.144531 39.246094 C 46.207031 39.292969 46.273438 39.347656 46.339844 39.398438 M 45.886719 39.046875 C 45.875 39.039062 45.863281 39.027344 45.855469 39.019531 C 45.863281 39.027344 45.875 39.039062 45.886719 39.046875 M 45.835938 39.007812 C 45.832031 39.007812 45.828125 39.003906 45.824219 39.003906 C 45.828125 39.003906 45.832031 39.007812 45.835938 39.007812 M 45.707031 38.945312 C 45.703125 38.941406 45.699219 38.941406 45.699219 38.941406 C 45.675781 38.929688 45.652344 38.917969 45.628906 38.90625 C 45.652344 38.917969 45.675781 38.929688 45.699219 38.941406 C 45.699219 38.941406 45.703125 38.941406 45.707031 38.945312 M 33.902344 37.917969 C 33.625 37.917969 33.355469 37.871094 33.148438 37.753906 C 33.140625 37.75 33.132812 37.746094 33.125 37.738281 C 33.132812 37.746094 33.140625 37.75 33.148438 37.753906 C 33.355469 37.871094 33.625 37.917969 33.902344 37.917969 C 34.277344 37.917969 34.664062 37.828125 34.925781 37.703125 C 34.972656 37.683594 35.015625 37.660156 35.058594 37.636719 C 35.015625 37.660156 34.96875 37.683594 34.925781 37.703125 C 34.664062 37.828125 34.277344 37.917969 33.902344 37.917969 M 33.113281 37.730469 C 33.015625 37.667969 32.921875 37.554688 32.847656 37.433594 L 32.847656 37.429688 C 32.921875 37.550781 33.015625 37.667969 33.113281 37.730469 M 37.507812 34.902344 C 38.359375 34.496094 38.773438 34.140625 38.925781 33.992188 C 38.941406 33.972656 38.957031 33.957031 38.96875 33.945312 C 38.957031 33.957031 38.941406 33.972656 38.925781 33.992188 C 38.773438 34.140625 38.359375 34.496094 37.507812 34.902344 M 39.046875 33.972656 C 39.03125 33.957031 39.015625 33.9375 39 33.921875 L 38.996094 33.917969 L 39 33.921875 C 39.015625 33.9375 39.03125 33.957031 39.046875 33.972656 M 38.980469 33.933594 C 38.988281 33.921875 38.996094 33.914062 38.996094 33.914062 C 38.992188 33.914062 38.988281 33.921875 38.980469 33.933594 "/><path style=" stroke:none;fill-rule:nonzero;fill:#ffb274;fill-opacity:1;" d="M 45.839844 39.011719 L 45.839844 39.007812 C 45.789062 38.984375 45.746094 38.964844 45.699219 38.941406 C 45.785156 38.855469 45.859375 38.753906 45.929688 38.652344 C 46.054688 38.46875 46.152344 38.269531 46.242188 38.0625 C 46.417969 37.652344 46.550781 37.214844 46.5625 36.769531 L 46.589844 36.769531 C 46.6875 36.996094 46.699219 37.246094 46.675781 37.484375 C 46.65625 37.722656 46.589844 37.953125 46.5 38.175781 C 46.402344 38.390625 46.28125 38.601562 46.109375 38.78125 C 46.03125 38.863281 45.941406 38.945312 45.839844 39.011719 "/><path style=" stroke:none;fill-rule:nonzero;fill:#ffb274;fill-opacity:1;" d="M 45.980469 39.121094 C 45.949219 39.09375 45.917969 39.070312 45.886719 39.046875 C 46.089844 38.808594 46.304688 38.582031 46.542969 38.382812 C 46.691406 38.261719 46.851562 38.152344 47.015625 38.0625 C 47.1875 37.972656 47.363281 37.894531 47.5625 37.894531 L 47.558594 37.921875 C 47.386719 38.023438 47.257812 38.144531 47.121094 38.253906 C 46.992188 38.375 46.855469 38.484375 46.722656 38.597656 C 46.578125 38.707031 46.441406 38.824219 46.289062 38.929688 C 46.191406 38.996094 46.09375 39.0625 45.980469 39.121094 "/><path style=" stroke:none;fill-rule:nonzero;fill:#fcd8bd;fill-opacity:1;" d="M 45.980469 39.121094 C 45.949219 39.097656 45.917969 39.070312 45.886719 39.046875 C 45.917969 39.070312 45.949219 39.09375 45.980469 39.121094 "/><path style=" stroke:none;fill-rule:nonzero;fill:#f29158;fill-opacity:1;" d="M 45.925781 39.148438 L 45.871094 39.0625 C 45.875 39.058594 45.882812 39.054688 45.886719 39.046875 C 45.917969 39.070312 45.949219 39.097656 45.980469 39.121094 C 45.960938 39.128906 45.945312 39.140625 45.925781 39.148438 "/><path style=" stroke:none;fill-rule:nonzero;fill:#fca364;fill-opacity:1;" d="M 45.980469 39.121094 C 45.949219 39.09375 45.917969 39.070312 45.886719 39.046875 C 45.917969 39.070312 45.949219 39.09375 45.980469 39.121094 "/><path style=" stroke:none;fill-rule:nonzero;fill:#ffb274;fill-opacity:1;" d="M 44.933594 33.070312 C 44.992188 32.941406 45.109375 32.84375 45.21875 32.75 C 45.328125 32.65625 45.445312 32.570312 45.5625 32.492188 C 45.625 32.445312 45.691406 32.402344 45.757812 32.359375 C 45.8125 32.371094 45.867188 32.375 45.921875 32.375 C 46.074219 32.375 46.234375 32.335938 46.378906 32.289062 C 46.128906 32.390625 45.878906 32.492188 45.632812 32.613281 C 45.503906 32.671875 45.375 32.734375 45.257812 32.808594 C 45.140625 32.882812 45.011719 32.953125 44.933594 33.070312 "/><path style=" stroke:none;fill-rule:nonzero;fill:#f59e65;fill-opacity:1;" d="M 36.375 35.363281 C 36.402344 35.355469 36.429688 35.34375 36.453125 35.335938 C 36.429688 35.34375 36.40625 35.355469 36.378906 35.363281 C 36.378906 35.363281 36.375 35.363281 36.375 35.363281 "/><path style=" stroke:none;fill-rule:nonzero;fill:#ffb274;fill-opacity:1;" d="M 36.375 35.363281 C 36.390625 35.242188 36.363281 35.140625 36.324219 35 C 36.285156 34.859375 36.226562 34.730469 36.164062 34.59375 C 36.242188 34.640625 36.308594 34.695312 36.355469 34.761719 C 36.375 34.792969 36.394531 34.828125 36.410156 34.863281 C 36.421875 34.890625 36.433594 34.917969 36.445312 34.941406 C 36.453125 34.972656 36.460938 35 36.464844 35.03125 C 36.476562 35.089844 36.484375 35.152344 36.480469 35.210938 C 36.472656 35.253906 36.46875 35.292969 36.453125 35.335938 C 36.429688 35.34375 36.402344 35.355469 36.375 35.363281 "/><path style=" stroke:none;fill-rule:nonzero;fill:#f59e65;fill-opacity:1;" d="M 39.050781 33.976562 C 39.050781 33.976562 39.050781 33.976562 39.046875 33.972656 C 39.050781 33.976562 39.050781 33.976562 39.050781 33.976562 "/><path style=" stroke:none;fill-rule:nonzero;fill:#ffb274;fill-opacity:1;" d="M 39.050781 33.976562 C 39.050781 33.976562 39.050781 33.976562 39.046875 33.972656 C 39.03125 33.957031 39.015625 33.9375 39 33.921875 L 39.003906 33.910156 C 39.015625 33.875 39.027344 33.84375 39.042969 33.808594 L 39.132812 33.535156 C 39.164062 33.445312 39.195312 33.351562 39.234375 33.261719 C 39.273438 33.171875 39.3125 33.082031 39.367188 32.996094 C 39.367188 33.199219 39.328125 33.390625 39.261719 33.582031 C 39.230469 33.675781 39.191406 33.769531 39.136719 33.855469 C 39.113281 33.898438 39.082031 33.941406 39.050781 33.976562 "/><path style=" stroke:none;fill-rule:nonzero;fill:#f29158;fill-opacity:1;" d="M 39.050781 33.976562 C 39.050781 33.976562 39.050781 33.976562 39.046875 33.972656 C 39.050781 33.976562 39.050781 33.976562 39.050781 33.976562 "/><path style=" stroke:none;fill-rule:nonzero;fill:#fca364;fill-opacity:1;" d="M 39.046875 33.972656 C 39.03125 33.957031 39.015625 33.9375 39 33.921875 C 39.015625 33.9375 39.03125 33.957031 39.046875 33.972656 "/><path style=" stroke:none;fill-rule:nonzero;fill:#f59e65;fill-opacity:1;" d="M 38.96875 33.945312 C 38.972656 33.9375 38.976562 33.9375 38.980469 33.933594 C 38.976562 33.9375 38.972656 33.9375 38.96875 33.945312 M 38.996094 33.917969 L 38.996094 33.914062 L 38.996094 33.917969 "/><path style=" stroke:none;fill-rule:nonzero;fill:#ffb274;fill-opacity:1;" d="M 38.925781 33.992188 C 38.929688 33.832031 38.898438 33.683594 38.859375 33.535156 C 38.816406 33.359375 38.753906 33.1875 38.703125 32.996094 C 38.777344 33.0625 38.832031 33.140625 38.882812 33.226562 C 38.933594 33.3125 38.96875 33.402344 38.996094 33.5 C 39.03125 33.628906 39.042969 33.777344 39.003906 33.910156 L 39 33.921875 L 38.996094 33.914062 C 38.996094 33.914062 38.988281 33.921875 38.980469 33.933594 C 38.976562 33.9375 38.972656 33.9375 38.96875 33.945312 C 38.957031 33.957031 38.941406 33.972656 38.925781 33.992188 "/><path style=" stroke:none;fill-rule:nonzero;fill:#f5a068;fill-opacity:1;" d="M 32.742188 37.109375 L 32.742188 37.105469 C 32.742188 37.039062 32.75 36.96875 32.761719 36.898438 C 32.75 36.96875 32.742188 37.039062 32.742188 37.105469 L 32.742188 37.109375 M 32.851562 36.578125 C 32.882812 36.480469 32.917969 36.378906 32.945312 36.277344 C 32.949219 36.257812 32.957031 36.234375 32.960938 36.214844 C 32.980469 36.117188 33.007812 36.011719 33.039062 35.902344 C 33.007812 36.011719 32.980469 36.117188 32.960938 36.214844 C 32.957031 36.234375 32.949219 36.253906 32.945312 36.273438 C 32.917969 36.378906 32.882812 36.480469 32.851562 36.578125 M 33.175781 35.386719 C 33.21875 35.230469 33.257812 35.074219 33.289062 34.929688 C 33.300781 34.867188 33.316406 34.804688 33.328125 34.742188 C 33.316406 34.804688 33.300781 34.863281 33.292969 34.929688 C 33.261719 35.074219 33.21875 35.226562 33.175781 35.386719 "/><path style=" stroke:none;fill-rule:nonzero;fill:#ffb477;fill-opacity:1;" d="M 33.066406 37.132812 C 32.960938 37.132812 32.855469 37.125 32.742188 37.109375 L 32.742188 37.105469 C 32.742188 37.039062 32.75 36.96875 32.761719 36.898438 C 32.785156 36.796875 32.816406 36.691406 32.851562 36.578125 C 32.882812 36.480469 32.917969 36.378906 32.945312 36.273438 C 32.949219 36.253906 32.957031 36.234375 32.960938 36.214844 C 32.980469 36.117188 33.007812 36.011719 33.039062 35.902344 C 33.082031 35.738281 33.128906 35.5625 33.175781 35.386719 C 33.21875 35.226562 33.261719 35.074219 33.292969 34.929688 C 33.300781 34.863281 33.316406 34.804688 33.328125 34.742188 C 33.4375 34.703125 33.554688 34.679688 33.664062 34.679688 C 33.839844 34.679688 34.007812 34.734375 34.136719 34.863281 C 34.453125 35.167969 34.5 35.757812 34.40625 36.15625 C 34.246094 36.808594 33.75 37.132812 33.066406 37.132812 "/><path style=" stroke:none;fill-rule:nonzero;fill:#feb87a;fill-opacity:1;" d="M 28.472656 47.292969 C 27.65625 46.761719 27.558594 45.816406 28.175781 44.863281 C 28.546875 44.289062 28.875 43.628906 29.417969 43.199219 C 30.066406 42.683594 30.84375 42.589844 31.515625 42.984375 C 33.097656 43.910156 31.644531 45.730469 30.917969 46.855469 C 30.351562 47.734375 29.222656 47.78125 28.472656 47.292969 "/><path style=" stroke:none;fill-rule:nonzero;fill:#fead6c;fill-opacity:1;" d="M 30.410156 45.59375 C 30.257812 45.59375 30.085938 45.5625 29.890625 45.492188 C 29.109375 45.21875 28.964844 44.523438 29.320312 43.996094 C 29.484375 43.757812 29.722656 43.367188 29.96875 43.261719 C 29.996094 43.253906 30.019531 43.246094 30.050781 43.246094 C 30.300781 43.246094 30.703125 43.640625 31.632812 43.992188 C 31.90625 44.097656 31.792969 44.367188 31.578125 44.699219 C 31.289062 45.152344 30.992188 45.59375 30.410156 45.59375 "/><path style=" stroke:none;fill-rule:nonzero;fill:#feb87a;fill-opacity:1;" d="M 31.925781 48.761719 C 31.15625 48.253906 30.734375 47.300781 31.226562 46.449219 C 31.480469 46.007812 31.738281 45.566406 31.992188 45.125 C 32.132812 44.882812 32.328125 44.574219 32.503906 44.363281 C 33.164062 43.566406 33.871094 43.496094 34.554688 43.914062 C 35.382812 44.417969 35.644531 45.472656 35.082031 46.445312 C 34.9375 46.695312 34.792969 46.945312 34.648438 47.195312 C 34.433594 47.5625 34.222656 47.925781 34.011719 48.292969 C 33.519531 49.144531 32.695312 49.269531 31.925781 48.761719 "/><path style=" stroke:none;fill-rule:nonzero;fill:#fead6c;fill-opacity:1;" d="M 33.675781 46.644531 C 33.496094 46.644531 33.292969 46.59375 33.070312 46.472656 C 32.363281 46.097656 32.457031 45.5625 32.710938 45.019531 C 32.832031 44.757812 33.066406 44.28125 33.316406 44.207031 C 33.332031 44.203125 33.351562 44.199219 33.371094 44.199219 C 33.621094 44.199219 34.03125 44.644531 34.867188 45.136719 C 35.097656 45.269531 34.914062 45.488281 34.730469 45.84375 C 34.523438 46.246094 34.183594 46.644531 33.675781 46.644531 "/><path style=" stroke:none;fill-rule:nonzero;fill:#feb87a;fill-opacity:1;" d="M 37.476562 49.097656 C 37.457031 49.117188 37.429688 49.140625 37.40625 49.160156 C 37.398438 49.167969 37.386719 49.175781 37.371094 49.1875 C 37.355469 49.199219 37.335938 49.214844 37.3125 49.226562 C 37 49.449219 36.070312 50.070312 36.019531 50.085938 C 36 50.09375 35.980469 50.097656 35.957031 50.105469 C 35.5625 50.21875 35.144531 50.21875 34.722656 50.011719 C 33.980469 49.648438 33.6875 48.828125 34.066406 48.191406 L 34.621094 47.253906 L 34.878906 46.828125 C 35.117188 46.425781 35.523438 46.019531 36.019531 45.996094 C 36.414062 45.980469 36.789062 46.109375 37.070312 46.390625 C 37.203125 46.523438 37.320312 46.6875 37.402344 46.855469 C 37.570312 47.207031 37.425781 47.636719 37.269531 47.957031 C 37.164062 48.175781 37.058594 48.429688 36.914062 48.664062 L 36.90625 48.660156 C 36.898438 48.679688 36.886719 48.699219 36.878906 48.714844 L 37.476562 49.097656 "/><path style=" stroke:none;fill-rule:nonzero;fill:#fead6c;fill-opacity:1;" d="M 36.148438 48.148438 C 36.050781 48.148438 35.941406 48.132812 35.820312 48.09375 C 35.253906 47.914062 35.128906 47.445312 35.375 47.089844 C 35.484375 46.929688 35.660156 46.613281 35.796875 46.589844 C 35.804688 46.585938 35.816406 46.585938 35.828125 46.585938 C 36.039062 46.585938 36.519531 46.863281 36.914062 47.015625 C 37.113281 47.09375 37.03125 47.257812 36.917969 47.496094 C 36.78125 47.789062 36.589844 48.148438 36.148438 48.148438 "/><path style=" stroke:none;fill-rule:nonzero;fill:#feaa69;fill-opacity:1;" d="M 36.019531 50.085938 C 36.339844 49.742188 36.53125 49.398438 36.878906 48.714844 L 37.476562 49.097656 C 37.476562 49.097656 37.476562 49.097656 37.476562 49.101562 C 37.457031 49.117188 37.429688 49.140625 37.40625 49.160156 C 37.398438 49.167969 37.386719 49.175781 37.371094 49.1875 C 37.355469 49.199219 37.335938 49.214844 37.3125 49.226562 C 37 49.449219 36.070312 50.070312 36.019531 50.085938 "/><path style=" stroke:none;fill-rule:nonzero;fill:#f29d66;fill-opacity:1;" d="M 24.023438 40.71875 C 23.65625 40.597656 23.371094 40.546875 23.164062 40.535156 C 23.9375 38.777344 25.003906 35.503906 26.035156 30.734375 C 26.074219 30.761719 26.117188 30.789062 26.164062 30.8125 C 25.550781 34.90625 24.574219 38.734375 24.023438 40.71875 "/><path style=" stroke:none;fill-rule:nonzero;fill:#ffb477;fill-opacity:1;" d="M 52.273438 40.222656 C 51.300781 35.832031 49.8125 32.289062 49.136719 31.089844 C 49.207031 31.058594 49.273438 31.027344 49.332031 31 C 50.269531 32.722656 52.449219 37.390625 53.269531 40.089844 C 52.988281 40.117188 52.664062 40.15625 52.515625 40.179688 C 52.433594 40.191406 52.355469 40.207031 52.273438 40.222656 "/><g clip-rule="nonzero" clip-path="url(#4fe835b8ab)"><path style=" stroke:none;fill-rule:nonzero;fill:#d4eeff;fill-opacity:1;" d="M 67.492188 23.621094 L 49 30.277344 C 48.910156 30.316406 48.90625 30.339844 48.90625 30.339844 C 49.136719 30.257812 53.664062 39.644531 53.585938 41.691406 L 67.492188 37.601562 L 67.492188 23.621094 "/></g><g clip-rule="nonzero" clip-path="url(#eefe0d5893)"><path style=" stroke:none;fill-rule:nonzero;fill:#1f2f57;fill-opacity:1;" d="M 67.492188 22.746094 L 67.492188 38.921875 L 65.867188 39.578125 L 59.152344 42.300781 L 56.09375 43.542969 C 56.265625 42.996094 55.28125 40.378906 54.054688 37.570312 C 52.660156 34.371094 50.957031 30.925781 50.308594 29.984375 C 49.992188 29.523438 49.78125 29.273438 49.722656 29.285156 L 49.730469 29.28125 C 49.804688 29.257812 52.109375 28.625 57.953125 26.257812 C 59.878906 25.480469 61.890625 24.808594 63.546875 24.199219 C 65.84375 23.355469 67.492188 22.746094 67.492188 22.746094 "/></g><g clip-rule="nonzero" clip-path="url(#47a062abfc)"><path style=" stroke:none;fill-rule:nonzero;fill:#1a274c;fill-opacity:1;" d="M 56.09375 43.542969 C 56.105469 43.5 56.113281 43.445312 56.113281 43.378906 C 56.113281 42.980469 55.878906 42.167969 55.5 41.128906 C 55.125 40.101562 54.617188 38.855469 54.054688 37.570312 C 55.355469 37.121094 57.464844 36.355469 60.570312 35.09375 C 62.496094 34.316406 64.507812 33.644531 66.164062 33.039062 C 66.636719 32.863281 67.082031 32.699219 67.492188 32.546875 L 67.492188 38.921875 L 65.867188 39.578125 L 59.152344 42.300781 L 56.09375 43.542969 "/></g><path style=" stroke:none;fill-rule:nonzero;fill:#f29d66;fill-opacity:1;" d="M 34.988281 46.660156 L 34.984375 46.652344 L 34.980469 46.625 C 35.011719 46.566406 35.046875 46.507812 35.082031 46.445312 C 35.285156 46.09375 35.382812 45.734375 35.382812 45.390625 C 35.382812 44.785156 35.082031 44.238281 34.554688 43.914062 C 34.476562 43.867188 34.398438 43.824219 34.316406 43.789062 C 34.125 43.707031 33.9375 43.664062 33.746094 43.664062 C 33.328125 43.664062 32.914062 43.875 32.515625 44.351562 C 32.585938 44.25 32.65625 44.148438 32.726562 44.066406 C 33.125 43.582031 33.542969 43.367188 33.964844 43.367188 C 34.234375 43.367188 34.507812 43.457031 34.777344 43.621094 C 35.601562 44.125 35.867188 45.175781 35.300781 46.152344 C 35.222656 46.285156 35.144531 46.421875 35.066406 46.558594 C 35.039062 46.59375 35.011719 46.625 34.988281 46.660156 "/><path style=" stroke:none;fill-rule:nonzero;fill:#fba969;fill-opacity:1;" d="M 35.382812 45.390625 C 35.382812 44.785156 35.082031 44.238281 34.554688 43.914062 C 35.082031 44.238281 35.382812 44.785156 35.382812 45.390625 M 32.511719 44.355469 C 32.511719 44.351562 32.515625 44.351562 32.515625 44.351562 C 32.914062 43.875 33.328125 43.664062 33.746094 43.664062 C 33.9375 43.664062 34.125 43.707031 34.316406 43.789062 C 34.125 43.707031 33.9375 43.664062 33.746094 43.664062 C 33.328125 43.664062 32.910156 43.875 32.511719 44.355469 "/><path style=" stroke:none;fill-rule:nonzero;fill:#fba969;fill-opacity:1;" d="M 34.992188 46.667969 L 34.988281 46.660156 C 35.011719 46.625 35.039062 46.59375 35.066406 46.558594 C 35.0625 46.5625 35.0625 46.566406 35.058594 46.566406 C 35.035156 46.601562 35.011719 46.632812 34.992188 46.667969 "/><path style=" stroke:none;fill-rule:nonzero;fill:#fdeadd;fill-opacity:1;" d="M 28.984375 43.632812 C 28.988281 43.625 28.992188 43.621094 28.996094 43.613281 L 29 43.613281 C 28.996094 43.621094 28.988281 43.625 28.984375 43.632812 "/><path style=" stroke:none;fill-rule:nonzero;fill:#f29d66;fill-opacity:1;" d="M 31.84375 45.378906 C 32.074219 44.941406 32.238281 44.492188 32.226562 44.078125 C 32.226562 44.074219 32.226562 44.074219 32.226562 44.070312 C 32.226562 44.070312 32.226562 44.066406 32.226562 44.066406 C 32.226562 44.066406 32.226562 44.0625 32.226562 44.0625 C 32.226562 44.0625 32.226562 44.0625 32.226562 44.058594 C 32.226562 44.054688 32.226562 44.054688 32.226562 44.050781 C 32.226562 44.050781 32.226562 44.046875 32.226562 44.046875 C 32.203125 43.640625 32.007812 43.273438 31.523438 42.988281 C 31.523438 42.988281 31.523438 42.984375 31.523438 42.984375 C 31.519531 42.984375 31.519531 42.984375 31.519531 42.984375 C 31.519531 42.984375 31.515625 42.984375 31.515625 42.984375 C 31.238281 42.820312 30.941406 42.738281 30.640625 42.738281 C 30.21875 42.738281 29.796875 42.898438 29.417969 43.199219 C 29.261719 43.320312 29.125 43.460938 29 43.613281 L 28.996094 43.613281 C 29.183594 43.347656 29.386719 43.101562 29.636719 42.902344 C 30.015625 42.601562 30.441406 42.445312 30.859375 42.445312 C 31.160156 42.445312 31.457031 42.523438 31.738281 42.6875 C 32.601562 43.195312 32.558594 43.96875 32.226562 44.75 C 32.140625 44.878906 32.058594 45.007812 31.992188 45.125 C 31.941406 45.210938 31.894531 45.296875 31.84375 45.378906 "/><path style=" stroke:none;fill-rule:nonzero;fill:#fba969;fill-opacity:1;" d="M 31.84375 45.382812 C 32.074219 44.941406 32.238281 44.492188 32.226562 44.078125 C 32.238281 44.492188 32.074219 44.941406 31.84375 45.378906 C 31.84375 45.378906 31.84375 45.382812 31.84375 45.382812 M 32.226562 44.078125 C 32.226562 44.074219 32.226562 44.074219 32.226562 44.070312 C 32.226562 44.074219 32.226562 44.074219 32.226562 44.078125 M 32.226562 44.070312 L 32.226562 44.070312 M 32.226562 44.066406 L 32.226562 44.066406 M 32.226562 44.066406 C 32.226562 44.066406 32.226562 44.0625 32.226562 44.0625 C 32.226562 44.0625 32.226562 44.066406 32.226562 44.066406 M 32.226562 44.0625 L 32.226562 44.0625 M 32.226562 44.058594 L 32.226562 44.058594 M 32.226562 44.058594 L 32.226562 44.058594 M 32.226562 44.050781 L 32.226562 44.050781 M 32.226562 44.050781 L 32.226562 44.050781 M 28.96875 43.65625 C 28.972656 43.648438 28.980469 43.640625 28.984375 43.632812 C 28.988281 43.625 28.996094 43.621094 29 43.613281 C 29.125 43.460938 29.261719 43.320312 29.417969 43.199219 C 29.796875 42.898438 30.21875 42.738281 30.640625 42.738281 C 30.941406 42.738281 31.238281 42.820312 31.515625 42.984375 C 31.515625 42.984375 31.519531 42.984375 31.519531 42.984375 C 31.519531 42.984375 31.515625 42.984375 31.515625 42.984375 C 31.238281 42.820312 30.941406 42.738281 30.640625 42.738281 C 30.21875 42.738281 29.796875 42.898438 29.417969 43.199219 C 29.25 43.332031 29.101562 43.488281 28.96875 43.65625 M 31.523438 42.988281 L 31.523438 42.988281 M 31.523438 42.984375 C 31.519531 42.984375 31.519531 42.984375 31.519531 42.984375 C 31.519531 42.984375 31.519531 42.984375 31.523438 42.984375 "/><path style=" stroke:none;fill-rule:nonzero;fill:#fba969;fill-opacity:1;" d="M 31.992188 45.125 C 32.058594 45.007812 32.140625 44.878906 32.226562 44.75 C 32.226562 44.75 32.222656 44.75 32.222656 44.75 C 32.140625 44.878906 32.058594 45.007812 31.992188 45.125 "/><path style=" stroke:none;fill-rule:nonzero;fill:#fdeadd;fill-opacity:1;" d="M 36.894531 48.726562 L 36.878906 48.714844 L 36.898438 48.722656 C 36.898438 48.722656 36.894531 48.722656 36.894531 48.726562 "/><path style=" stroke:none;fill-rule:nonzero;fill:#f29d66;fill-opacity:1;" d="M 36.898438 48.722656 L 36.878906 48.714844 C 36.890625 48.695312 36.898438 48.675781 36.90625 48.660156 L 36.914062 48.664062 C 37.058594 48.429688 37.164062 48.175781 37.269531 47.957031 C 37.375 47.738281 37.476562 47.46875 37.476562 47.207031 C 37.476562 47.085938 37.457031 46.964844 37.402344 46.855469 C 37.320312 46.6875 37.203125 46.523438 37.070312 46.390625 C 36.804688 46.125 36.457031 45.996094 36.085938 45.996094 C 36.0625 45.996094 36.042969 45.996094 36.019531 45.996094 C 36.019531 45.996094 36.015625 45.996094 36.015625 45.996094 C 35.667969 46.015625 35.363281 46.222656 35.128906 46.484375 C 35.375 46.097656 35.765625 45.722656 36.238281 45.703125 C 36.261719 45.699219 36.285156 45.699219 36.304688 45.699219 C 36.675781 45.699219 37.023438 45.832031 37.289062 46.09375 C 37.425781 46.226562 37.542969 46.390625 37.621094 46.558594 C 37.789062 46.910156 37.644531 47.34375 37.488281 47.664062 C 37.390625 47.867188 37.285156 48.109375 37.152344 48.332031 C 37.097656 48.390625 37.046875 48.445312 37.011719 48.515625 C 37 48.539062 36.996094 48.5625 36.996094 48.582031 C 36.960938 48.628906 36.929688 48.675781 36.898438 48.722656 "/><path style=" stroke:none;fill-rule:nonzero;fill:#fba969;fill-opacity:1;" d="M 37.476562 47.207031 C 37.476562 47.085938 37.457031 46.964844 37.402344 46.855469 C 37.320312 46.6875 37.203125 46.523438 37.070312 46.390625 C 36.804688 46.125 36.457031 45.996094 36.085938 45.996094 C 36.0625 45.996094 36.042969 45.996094 36.019531 45.996094 C 36.042969 45.996094 36.0625 45.996094 36.085938 45.996094 C 36.457031 45.996094 36.804688 46.125 37.070312 46.390625 C 37.203125 46.523438 37.320312 46.6875 37.402344 46.855469 C 37.457031 46.964844 37.476562 47.085938 37.476562 47.207031 M 35.125 46.492188 C 35.125 46.488281 35.128906 46.484375 35.128906 46.484375 C 35.363281 46.222656 35.667969 46.015625 36.015625 45.996094 C 35.664062 46.015625 35.359375 46.226562 35.125 46.492188 M 36.015625 45.996094 L 36.015625 45.996094 "/><g clip-rule="nonzero" clip-path="url(#1bfa0848cf)"><path style=" stroke:none;fill-rule:nonzero;fill:#e8f2f2;fill-opacity:1;" d="M 26.101562 30.414062 C 24.609375 37.433594 23.027344 41.292969 22.351562 41.96875 C 22.339844 41.980469 22.316406 41.984375 22.300781 41.980469 L 21.085938 41.574219 L 21.023438 41.554688 L 20.996094 41.542969 L 16.695312 40.007812 L 16.679688 40.003906 L 11.953125 38.3125 L 11.890625 38.292969 L 8.910156 37.226562 L 8.875 37.214844 L 7.507812 36.785156 L 7.507812 23.0625 L 12.339844 24.839844 L 12.355469 24.84375 L 14.523438 25.679688 L 14.53125 25.679688 L 20.46875 27.964844 L 20.472656 27.964844 L 22.199219 28.628906 L 24.867188 29.65625 L 25.191406 29.78125 L 25.914062 30.058594 C 26.054688 30.113281 26.136719 30.265625 26.101562 30.414062 "/></g><g clip-rule="nonzero" clip-path="url(#fd52cef3e8)"><path style=" stroke:none;fill-rule:nonzero;fill:#262525;fill-opacity:1;" d="M 25.304688 29.347656 C 25.292969 29.40625 25.257812 29.554688 25.191406 29.78125 C 24.214844 33.074219 23.382812 35.613281 22.691406 37.550781 C 22.628906 37.722656 22.566406 37.894531 22.507812 38.058594 C 21.152344 41.78125 20.371094 43.09375 20.082031 43.359375 C 20.042969 43.394531 19.984375 43.40625 19.929688 43.386719 C 19.578125 43.253906 17.769531 42.566406 15.824219 41.769531 C 14.191406 41.105469 12.351562 40.335938 10.816406 39.695312 C 9.75 39.246094 8.832031 38.859375 8.234375 38.605469 C 7.777344 38.414062 7.507812 38.300781 7.507812 38.300781 L 7.507812 22.125 L 12.867188 24.230469 L 13.109375 24.332031 L 13.175781 24.355469 L 14.527344 24.910156 L 14.589844 24.9375 L 14.785156 25.015625 L 14.832031 25.039062 L 20.855469 27.503906 L 22.476562 28.054688 L 25.109375 28.941406 C 25.261719 29.007812 25.335938 29.179688 25.304688 29.347656 "/></g><g clip-rule="nonzero" clip-path="url(#aacca4e69e)"><path style=" stroke:none;fill-rule:nonzero;fill:#1c1b1b;fill-opacity:1;" d="M 19.984375 43.398438 C 19.964844 43.398438 19.949219 43.394531 19.929688 43.386719 C 19.578125 43.253906 17.769531 42.566406 15.824219 41.769531 C 14.191406 41.105469 12.351562 40.335938 10.816406 39.695312 C 9.75 39.246094 8.832031 38.859375 8.234375 38.605469 C 7.777344 38.414062 7.507812 38.300781 7.507812 38.300781 L 7.507812 31.628906 L 22.691406 37.550781 C 22.628906 37.722656 22.566406 37.894531 22.507812 38.058594 C 21.9375 39.625 21.46875 40.765625 21.097656 41.578125 C 20.582031 42.699219 20.25 43.207031 20.082031 43.359375 C 20.054688 43.382812 20.019531 43.398438 19.984375 43.398438 "/></g><path style=" stroke:none;fill-rule:nonzero;fill:#414042;fill-opacity:1;" d="M 19.300781 41.019531 C 19.300781 41.425781 18.976562 41.75 18.574219 41.75 C 18.171875 41.75 17.847656 41.425781 17.847656 41.019531 C 17.847656 40.617188 18.171875 40.289062 18.574219 40.289062 C 18.976562 40.289062 19.300781 40.617188 19.300781 41.019531 "/><path style=" stroke:none;fill-rule:nonzero;fill:#262525;fill-opacity:1;" d="M 18.664062 40.996094 L 18.761719 40.820312 C 18.78125 40.789062 18.769531 40.75 18.738281 40.730469 C 18.707031 40.710938 18.664062 40.722656 18.648438 40.757812 L 18.550781 40.929688 L 18.375 40.832031 C 18.34375 40.8125 18.304688 40.824219 18.285156 40.855469 C 18.265625 40.886719 18.277344 40.929688 18.308594 40.945312 L 18.484375 41.046875 L 18.382812 41.21875 C 18.367188 41.25 18.378906 41.292969 18.410156 41.308594 C 18.425781 41.320312 18.441406 41.320312 18.460938 41.316406 C 18.476562 41.3125 18.488281 41.300781 18.5 41.285156 L 18.597656 41.113281 L 18.773438 41.210938 C 18.789062 41.21875 18.804688 41.222656 18.820312 41.21875 C 18.839844 41.214844 18.851562 41.203125 18.863281 41.1875 C 18.878906 41.15625 18.867188 41.113281 18.835938 41.09375 L 18.664062 40.996094 "/><path style=" stroke:none;fill-rule:nonzero;fill:#2a4075;fill-opacity:1;" d="M 58.816406 40.929688 C 58.816406 41.332031 58.492188 41.660156 58.089844 41.660156 C 57.6875 41.660156 57.363281 41.332031 57.363281 40.929688 C 57.363281 40.527344 57.6875 40.199219 58.089844 40.199219 C 58.492188 40.199219 58.816406 40.527344 58.816406 40.929688 "/><path style=" stroke:none;fill-rule:nonzero;fill:#1f2f57;fill-opacity:1;" d="M 58.179688 40.90625 L 58.28125 40.730469 C 58.296875 40.699219 58.285156 40.660156 58.253906 40.640625 C 58.222656 40.621094 58.183594 40.632812 58.164062 40.664062 L 58.066406 40.839844 L 57.890625 40.738281 C 57.859375 40.722656 57.820312 40.734375 57.800781 40.765625 C 57.785156 40.796875 57.792969 40.835938 57.828125 40.855469 L 58 40.953125 L 57.902344 41.128906 C 57.882812 41.160156 57.894531 41.203125 57.925781 41.21875 C 57.941406 41.230469 57.960938 41.230469 57.976562 41.226562 C 57.992188 41.222656 58.007812 41.210938 58.015625 41.195312 L 58.113281 41.019531 L 58.289062 41.121094 C 58.304688 41.128906 58.320312 41.132812 58.339844 41.125 C 58.355469 41.121094 58.371094 41.113281 58.378906 41.09375 C 58.398438 41.0625 58.386719 41.023438 58.355469 41.003906 L 58.179688 40.90625 "/><path style=" stroke:none;fill-rule:nonzero;fill:#19bacc;fill-opacity:1;" d="M 37.714844 27.214844 L 38.007812 23.542969 L 37.4375 23.742188 Z M 37.714844 27.214844 "/><path style=" stroke:none;fill-rule:nonzero;fill:#19bacc;fill-opacity:1;" d="M 31.234375 28.746094 L 29.140625 25.71875 L 29.734375 25.605469 Z M 31.234375 28.746094 "/><path style=" stroke:none;fill-rule:nonzero;fill:#19bacc;fill-opacity:1;" d="M 44.070312 29.09375 L 46.023438 26.265625 L 45.65625 25.765625 Z M 44.070312 29.09375 "/><g clip-rule="nonzero" clip-path="url(#ae93975762)"><path style=" stroke:none;fill-rule:nonzero;fill:#19bacc;fill-opacity:1;" d="M 37.042969 52.953125 L 37.332031 56.625 L 36.765625 56.425781 Z M 37.042969 52.953125 "/></g><path style=" stroke:none;fill-rule:nonzero;fill:#19bacc;fill-opacity:1;" d="M 30.632812 51.074219 L 28.539062 54.101562 L 29.132812 54.21875 Z M 30.632812 51.074219 "/><path style=" stroke:none;fill-rule:nonzero;fill:#19bacc;fill-opacity:1;" d="M 43.472656 51.417969 L 45.425781 54.246094 L 45.058594 54.75 Z M 43.472656 51.417969 "/></g></svg>