<svg xmlns="http://www.w3.org/2000/svg" xmlns:xlink="http://www.w3.org/1999/xlink" width="100" zoomAndPan="magnify" viewBox="0 0 75 74.999997" height="100" preserveAspectRatio="xMidYMid meet" version="1.2"><g id="c9a22487b2"><path style=" stroke:none;fill-rule:nonzero;fill:#ffbf39;fill-opacity:1;" d="M 38.445312 27.785156 Z M 58.597656 49.484375 C 57.691406 49.484375 56.777344 49.1875 56.015625 48.589844 L 49.085938 43.222656 C 48.558594 42.8125 48.460938 42.054688 48.875 41.527344 C 49.28125 40.996094 50.039062 40.902344 50.566406 41.308594 L 57.492188 46.675781 C 58.21875 47.242188 59.273438 47.167969 59.90625 46.519531 C 60.320312 46.09375 60.496094 45.605469 60.464844 45.085938 C 60.4375 44.570312 60.1875 44.089844 59.773438 43.765625 L 58.128906 42.480469 C 55.507812 40.414062 50.472656 36.46875 46.035156 33.128906 C 46 33.105469 45.964844 33.082031 45.929688 33.058594 C 40.578125 29.023438 39.011719 28.054688 38.554688 27.832031 C 37.507812 27.953125 36.132812 29.253906 34.910156 30.40625 C 33.304688 31.929688 31.640625 33.496094 29.785156 33.496094 C 26.433594 33.496094 24.527344 31.085938 24.449219 30.984375 C 24.089844 30.527344 24.113281 29.878906 24.496094 29.4375 C 25.136719 28.714844 26.078125 27.359375 26.984375 26.046875 C 28.777344 23.453125 29.933594 21.835938 30.855469 21.226562 C 31.894531 20.53125 34.417969 19.476562 37.222656 18.808594 C 39.046875 18.367188 40.769531 18.144531 42.339844 18.144531 C 45.132812 18.144531 49.332031 19.804688 53.035156 21.265625 C 55.078125 22.070312 57.390625 22.984375 58.066406 22.984375 L 64.5 22.984375 C 65.167969 22.984375 65.710938 23.527344 65.710938 24.195312 C 65.710938 24.859375 65.167969 25.402344 64.5 25.402344 L 58.066406 25.402344 C 56.976562 25.402344 55.199219 24.722656 52.148438 23.519531 C 48.816406 22.199219 44.671875 20.566406 42.339844 20.566406 C 40.976562 20.566406 39.40625 20.773438 37.785156 21.160156 C 35.132812 21.792969 32.921875 22.757812 32.195312 23.238281 C 31.589844 23.640625 30.078125 25.824219 28.976562 27.421875 C 28.289062 28.414062 27.628906 29.367188 27.042969 30.136719 C 27.625 30.578125 28.554688 31.078125 29.785156 31.078125 C 30.675781 31.078125 32.042969 29.789062 33.246094 28.648438 C 34.9375 27.050781 36.6875 25.402344 38.710938 25.402344 C 39.261719 25.402344 39.785156 25.402344 47.289062 31.054688 C 47.328125 31.078125 47.363281 31.101562 47.394531 31.125 C 51.875 34.496094 56.976562 38.492188 59.625 40.574219 L 61.277344 41.867188 C 62.230469 42.632812 62.808594 43.746094 62.875 44.933594 C 62.960938 46.117188 62.53125 47.300781 61.683594 48.15625 C 60.832031 49.039062 59.71875 49.484375 58.597656 49.484375 "/><path style=" stroke:none;fill-rule:nonzero;fill:#ffbf39;fill-opacity:1;" d="M 53.980469 53.976562 C 53.042969 53.976562 52.101562 53.671875 51.328125 53.046875 L 44.753906 47.738281 C 44.238281 47.320312 44.152344 46.558594 44.574219 46.039062 C 44.996094 45.523438 45.753906 45.4375 46.273438 45.859375 L 52.847656 51.160156 C 53.550781 51.726562 54.566406 51.683594 55.222656 51.074219 L 55.476562 50.839844 C 55.863281 50.476562 56.074219 49.960938 56.050781 49.429688 C 56.023438 48.898438 55.769531 48.410156 55.347656 48.078125 L 55.167969 47.941406 C 54.636719 47.53125 54.539062 46.777344 54.945312 46.246094 C 55.355469 45.710938 56.113281 45.617188 56.640625 46.023438 L 56.828125 46.167969 C 57.8125 46.933594 58.410156 48.078125 58.464844 49.316406 C 58.523438 50.5625 58.035156 51.757812 57.128906 52.605469 L 56.878906 52.839844 C 56.070312 53.59375 55.027344 53.976562 53.980469 53.976562 "/><path style=" stroke:none;fill-rule:nonzero;fill:#ffbf39;fill-opacity:1;" d="M 48.144531 57.640625 C 47.171875 57.640625 46.195312 57.292969 45.402344 56.613281 L 39.058594 51.199219 C 38.550781 50.765625 38.492188 50 38.921875 49.492188 C 39.355469 48.984375 40.121094 48.925781 40.628906 49.355469 L 46.96875 54.777344 C 47.660156 55.363281 48.652344 55.363281 49.335938 54.765625 L 49.734375 54.421875 C 50.128906 54.082031 50.351562 53.585938 50.34375 53.058594 C 50.332031 52.539062 50.097656 52.050781 49.691406 51.722656 C 49.171875 51.300781 49.085938 50.542969 49.507812 50.023438 C 49.925781 49.503906 50.6875 49.417969 51.207031 49.84375 C 52.175781 50.617188 52.738281 51.773438 52.761719 53.023438 C 52.78125 54.261719 52.257812 55.441406 51.316406 56.253906 L 50.917969 56.601562 C 50.117188 57.289062 49.132812 57.640625 48.144531 57.640625 "/><path style=" stroke:none;fill-rule:nonzero;fill:#ffbf39;fill-opacity:1;" d="M 42.859375 60.480469 C 42.023438 60.480469 41.179688 60.234375 40.457031 59.742188 L 36.644531 57.113281 C 36.097656 56.738281 35.953125 55.980469 36.332031 55.433594 C 36.710938 54.878906 37.46875 54.742188 38.015625 55.121094 L 41.828125 57.746094 C 42.496094 58.203125 43.390625 58.164062 44.011719 57.652344 C 44.34375 57.378906 44.535156 56.976562 44.539062 56.546875 C 44.539062 56.132812 44.351562 55.730469 44.03125 55.453125 L 43.691406 55.160156 C 43.183594 54.722656 43.128906 53.964844 43.5625 53.457031 C 43.996094 52.945312 44.761719 52.890625 45.265625 53.324219 L 45.605469 53.613281 C 46.464844 54.351562 46.960938 55.429688 46.960938 56.566406 C 46.941406 57.722656 46.429688 58.796875 45.546875 59.519531 C 44.777344 60.15625 43.816406 60.480469 42.859375 60.480469 "/><path style=" stroke:none;fill-rule:nonzero;fill:#ffbf39;fill-opacity:1;" d="M 46.671875 33.304688 L 46.65625 33.304688 C 45.988281 33.304688 45.449219 32.761719 45.449219 32.09375 C 45.449219 31.421875 45.988281 30.882812 46.65625 30.882812 C 47.324219 30.882812 47.871094 31.421875 47.871094 32.09375 C 47.871094 32.761719 47.339844 33.304688 46.671875 33.304688 "/><path style=" stroke:none;fill-rule:nonzero;fill:#ffbf39;fill-opacity:1;" d="M 16.378906 49.484375 C 15.273438 49.484375 14.171875 49.042969 13.355469 48.199219 C 12.46875 47.300781 12.039062 46.117188 12.125 44.917969 C 12.191406 43.742188 12.769531 42.632812 13.710938 41.875 L 15.816406 40.226562 C 16.042969 40.042969 16.324219 39.933594 16.609375 39.933594 C 17.277344 39.933594 17.820312 40.472656 17.820312 41.144531 C 17.820312 41.550781 17.617188 41.914062 17.300781 42.136719 L 15.214844 43.773438 C 14.8125 44.089844 14.566406 44.570312 14.539062 45.070312 C 14.503906 45.605469 14.679688 46.09375 15.039062 46.464844 C 15.6875 47.128906 16.625 47.238281 17.34375 46.78125 C 17.8125 46.40625 18.5 46.441406 18.9375 46.878906 C 19.410156 47.351562 19.410156 48.117188 18.9375 48.589844 C 18.898438 48.632812 18.835938 48.683594 18.777344 48.726562 C 18.753906 48.742188 18.730469 48.761719 18.707031 48.777344 C 18 49.25 17.1875 49.484375 16.378906 49.484375 "/><path style=" stroke:none;fill-rule:nonzero;fill:#ffbf39;fill-opacity:1;" d="M 18.035156 48.976562 C 17.730469 48.976562 17.417969 48.863281 17.179688 48.628906 C 16.707031 48.152344 16.707031 47.386719 17.179688 46.914062 C 17.222656 46.871094 17.285156 46.824219 17.34375 46.78125 L 19.429688 45.136719 C 19.832031 44.820312 20.078125 44.34375 20.105469 43.839844 C 20.144531 43.308594 19.964844 42.816406 19.605469 42.449219 C 18.957031 41.78125 18.011719 41.671875 17.300781 42.136719 C 16.941406 42.414062 16.433594 42.476562 16 42.25 C 15.40625 41.9375 15.175781 41.210938 15.488281 40.617188 C 15.589844 40.421875 15.75 40.253906 15.9375 40.136719 L 15.9375 40.132812 C 17.625 39.007812 19.875 39.25 21.289062 40.714844 C 22.171875 41.609375 22.605469 42.792969 22.519531 43.992188 C 22.453125 45.167969 21.878906 46.28125 20.933594 47.035156 L 18.832031 48.683594 C 18.8125 48.699219 18.796875 48.714844 18.78125 48.722656 C 18.5625 48.894531 18.300781 48.976562 18.035156 48.976562 "/><path style=" stroke:none;fill-rule:nonzero;fill:#ffbf39;fill-opacity:1;" d="M 16.933594 25.402344 L 10.5 25.402344 C 9.828125 25.402344 9.289062 24.859375 9.289062 24.195312 C 9.289062 23.527344 9.828125 22.984375 10.5 22.984375 L 16.933594 22.984375 C 17.609375 22.984375 19.921875 22.070312 21.964844 21.265625 C 25.667969 19.804688 29.867188 18.144531 32.660156 18.144531 C 34.230469 18.144531 35.953125 18.367188 37.785156 18.808594 C 38.429688 18.960938 38.832031 19.621094 38.675781 20.265625 C 38.519531 20.914062 37.859375 21.316406 37.214844 21.160156 C 35.59375 20.773438 34.023438 20.566406 32.660156 20.566406 C 30.328125 20.566406 26.183594 22.199219 22.851562 23.519531 C 19.800781 24.722656 18.023438 25.402344 16.933594 25.402344 "/><path style=" stroke:none;fill-rule:nonzero;fill:#ffbf39;fill-opacity:1;" d="M 25.191406 48.773438 Z M 21.011719 53.972656 C 19.964844 53.972656 18.925781 53.589844 18.117188 52.839844 L 17.867188 52.601562 C 16.960938 51.761719 16.46875 50.554688 16.539062 49.3125 C 16.589844 48.242188 17.039062 47.230469 17.808594 46.484375 L 18.3125 46.058594 C 18.824219 45.628906 19.589844 45.699219 20.015625 46.207031 C 20.445312 46.71875 20.375 47.484375 19.863281 47.910156 L 19.429688 48.273438 C 19.171875 48.535156 18.976562 48.96875 18.953125 49.4375 C 18.925781 49.96875 19.132812 50.476562 19.523438 50.839844 L 19.777344 51.082031 C 20.425781 51.683594 21.449219 51.722656 22.152344 51.15625 L 24.992188 48.863281 C 25 48.855469 25.039062 48.828125 25.078125 48.804688 C 25.089844 48.789062 25.109375 48.773438 25.125 48.761719 L 25.304688 48.628906 C 25.707031 48.199219 26.367188 48.113281 26.867188 48.449219 C 27.421875 48.820312 27.566406 49.578125 27.1875 50.128906 C 27.132812 50.214844 27.003906 50.359375 26.925781 50.421875 C 26.902344 50.441406 26.84375 50.5 26.816406 50.519531 L 26.628906 50.660156 C 26.59375 50.683594 26.566406 50.707031 26.539062 50.726562 L 23.671875 53.042969 C 22.894531 53.664062 21.953125 53.972656 21.011719 53.972656 "/><path style=" stroke:none;fill-rule:nonzero;fill:#ffbf39;fill-opacity:1;" d="M 25.191406 48.769531 C 25.191406 48.773438 25.191406 48.773438 25.191406 48.773438 C 25.191406 48.773438 25.191406 48.773438 25.191406 48.769531 Z M 25.800781 50.960938 C 25.40625 50.960938 25.03125 50.789062 24.796875 50.457031 C 24.425781 49.914062 24.515625 49.195312 25.054688 48.8125 C 25.0625 48.808594 25.15625 48.742188 25.171875 48.730469 L 25.242188 48.683594 C 25.257812 48.671875 25.277344 48.65625 25.292969 48.640625 C 25.308594 48.625 25.328125 48.605469 25.34375 48.585938 C 25.675781 48.265625 25.878906 47.816406 25.898438 47.363281 C 25.929688 46.824219 25.722656 46.316406 25.324219 45.9375 L 25.078125 45.707031 C 24.429688 45.097656 23.398438 45.066406 22.699219 45.628906 L 19.429688 48.273438 C 18.921875 48.703125 18.15625 48.636719 17.726562 48.121094 C 17.292969 47.613281 17.367188 46.847656 17.875 46.417969 L 18.3125 46.058594 L 21.183594 43.742188 C 22.820312 42.429688 25.210938 42.519531 26.734375 43.949219 L 26.984375 44.179688 C 27.898438 45.042969 28.386719 46.246094 28.320312 47.484375 C 28.265625 48.546875 27.8125 49.554688 27.039062 50.308594 C 27 50.359375 26.957031 50.394531 26.925781 50.421875 C 26.90625 50.441406 26.84375 50.496094 26.820312 50.511719 L 26.507812 50.75 C 26.292969 50.890625 26.046875 50.960938 25.800781 50.960938 "/><path style=" stroke:none;fill-rule:nonzero;fill:#ffbf39;fill-opacity:1;" d="M 26.847656 57.632812 C 25.867188 57.632812 24.882812 57.285156 24.082031 56.59375 L 23.691406 56.269531 C 22.742188 55.441406 22.21875 54.261719 22.234375 53.027344 C 22.269531 51.765625 22.835938 50.613281 23.796875 49.84375 C 24.320312 49.417969 25.078125 49.503906 25.496094 50.023438 C 25.917969 50.542969 25.832031 51.308594 25.3125 51.722656 C 24.910156 52.054688 24.667969 52.546875 24.652344 53.078125 C 24.648438 53.585938 24.871094 54.085938 25.265625 54.429688 L 25.652344 54.757812 C 26.347656 55.355469 27.339844 55.355469 28.03125 54.769531 L 31.003906 52.234375 C 31.0625 52.179688 31.125 52.128906 31.175781 52.078125 C 31.648438 51.605469 32.414062 51.605469 32.886719 52.078125 C 33.359375 52.554688 33.359375 53.320312 32.886719 53.792969 C 32.792969 53.886719 32.683594 53.980469 32.570312 54.078125 L 29.597656 56.613281 C 28.800781 57.292969 27.828125 57.632812 26.847656 57.632812 "/><path style=" stroke:none;fill-rule:nonzero;fill:#ffbf39;fill-opacity:1;" d="M 31.792969 54.363281 C 31.445312 54.363281 31.105469 54.21875 30.867188 53.933594 C 30.4375 53.425781 30.496094 52.664062 31.007812 52.230469 C 31.0625 52.179688 31.125 52.128906 31.175781 52.078125 C 31.488281 51.765625 31.671875 51.328125 31.683594 50.871094 C 31.6875 50.359375 31.460938 49.855469 31.078125 49.527344 L 30.667969 49.167969 C 30 48.585938 28.984375 48.585938 28.304688 49.160156 L 25.34375 51.699219 C 24.835938 52.132812 24.070312 52.078125 23.636719 51.570312 C 23.203125 51.0625 23.261719 50.300781 23.769531 49.867188 L 26.730469 47.324219 C 28.320312 45.972656 30.695312 45.980469 32.257812 47.34375 L 32.660156 47.691406 C 33.59375 48.492188 34.121094 49.664062 34.101562 50.910156 C 34.082031 51.988281 33.640625 53.035156 32.886719 53.792969 C 32.792969 53.886719 32.683594 53.980469 32.570312 54.078125 C 32.34375 54.265625 32.066406 54.363281 31.792969 54.363281 "/><path style=" stroke:none;fill-rule:nonzero;fill:#ffbf39;fill-opacity:1;" d="M 32.140625 60.480469 C 31.175781 60.480469 30.21875 60.152344 29.449219 59.515625 C 28.570312 58.796875 28.058594 57.730469 28.039062 56.582031 C 28.039062 55.429688 28.535156 54.351562 29.394531 53.613281 L 29.738281 53.324219 C 30.242188 52.890625 31.007812 52.945312 31.4375 53.457031 C 31.871094 53.964844 31.816406 54.722656 31.308594 55.160156 L 30.96875 55.453125 C 30.644531 55.730469 30.460938 56.136719 30.460938 56.566406 C 30.464844 56.976562 30.65625 57.378906 30.984375 57.648438 C 31.613281 58.164062 32.511719 58.195312 33.175781 57.742188 L 35.871094 55.886719 C 36.414062 55.503906 37.167969 55.640625 37.550781 56.191406 C 37.929688 56.742188 37.792969 57.492188 37.246094 57.875 L 34.546875 59.738281 C 33.824219 60.234375 32.976562 60.480469 32.140625 60.480469 "/><path style=" stroke:none;fill-rule:nonzero;fill:#ffbf39;fill-opacity:1;" d="M 36.554688 58.089844 C 36.214844 58.089844 35.875 57.945312 35.636719 57.664062 C 35.203125 57.15625 35.261719 56.390625 35.769531 55.960938 L 36.105469 55.667969 C 36.433594 55.390625 36.617188 54.984375 36.617188 54.542969 C 36.613281 54.136719 36.417969 53.742188 36.09375 53.472656 C 35.46875 52.957031 34.570312 52.917969 33.902344 53.378906 L 31.207031 55.238281 C 30.65625 55.613281 29.902344 55.476562 29.523438 54.925781 C 29.144531 54.378906 29.28125 53.628906 29.832031 53.25 L 32.527344 51.382812 C 34.089844 50.320312 36.179688 50.410156 37.628906 51.601562 C 38.507812 52.324219 39.015625 53.386719 39.035156 54.523438 C 39.035156 55.6875 38.539062 56.769531 37.683594 57.507812 L 37.34375 57.796875 C 37.113281 57.992188 36.832031 58.089844 36.554688 58.089844 "/><path style=" stroke:none;fill-rule:nonzero;fill:#ffbf39;fill-opacity:1;" d="M 16.121094 42.742188 C 15.867188 42.742188 15.609375 42.65625 15.386719 42.484375 C 14.664062 41.933594 13.316406 41.335938 8.796875 41.175781 C 8.132812 41.152344 7.609375 40.589844 7.636719 39.925781 C 7.660156 39.257812 8.242188 38.722656 8.882812 38.757812 C 13.074219 38.90625 15.386719 39.433594 16.863281 40.570312 C 17.394531 40.976562 17.492188 41.738281 17.082031 42.269531 C 16.847656 42.574219 16.488281 42.742188 16.121094 42.742188 "/><path style=" stroke:none;fill-rule:nonzero;fill:#ffbf39;fill-opacity:1;" d="M 58.878906 42.742188 C 58.511719 42.742188 58.152344 42.574219 57.917969 42.269531 C 57.507812 41.738281 57.605469 40.976562 58.136719 40.570312 C 59.613281 39.433594 61.925781 38.90625 66.117188 38.757812 C 66.773438 38.730469 67.339844 39.257812 67.367188 39.925781 C 67.390625 40.589844 66.867188 41.152344 66.203125 41.175781 C 61.683594 41.335938 60.335938 41.933594 59.613281 42.484375 C 59.390625 42.65625 59.132812 42.742188 58.878906 42.742188 "/><path style=" stroke:none;fill-rule:nonzero;fill:#ffbf39;fill-opacity:1;" d="M 73.789062 44.757812 L 66.53125 44.757812 C 65.914062 44.757812 65.394531 44.289062 65.332031 43.675781 L 62.914062 20.691406 C 62.875 20.351562 62.984375 20.011719 63.214844 19.757812 C 63.441406 19.5 63.773438 19.355469 64.113281 19.355469 L 73.789062 19.355469 C 74.457031 19.355469 75 19.898438 75 20.566406 C 75 21.230469 74.457031 21.773438 73.789062 21.773438 L 65.453125 21.773438 L 67.625 42.339844 L 73.789062 42.339844 C 74.457031 42.339844 75 42.882812 75 43.546875 C 75 44.214844 74.457031 44.757812 73.789062 44.757812 "/><path style=" stroke:none;fill-rule:nonzero;fill:#ffbf39;fill-opacity:1;" d="M 8.46875 44.757812 L 1.210938 44.757812 C 0.542969 44.757812 0 44.214844 0 43.546875 C 0 42.882812 0.542969 42.339844 1.210938 42.339844 L 7.382812 42.339844 L 9.546875 21.773438 L 1.210938 21.773438 C 0.542969 21.773438 0 21.230469 0 20.566406 C 0 19.898438 0.542969 19.355469 1.210938 19.355469 L 10.886719 19.355469 C 11.226562 19.355469 11.558594 19.5 11.785156 19.757812 C 12.015625 20.011719 12.125 20.351562 12.085938 20.691406 L 9.667969 43.675781 C 9.605469 44.289062 9.085938 44.757812 8.46875 44.757812 "/><path style=" stroke:none;fill-rule:nonzero;fill:#ffbf39;fill-opacity:1;" d="M 37.5 7.257812 C 36.832031 7.257812 36.289062 6.714844 36.289062 6.046875 L 36.289062 1.210938 C 36.289062 0.542969 36.832031 0 37.5 0 C 38.167969 0 38.710938 0.542969 38.710938 1.210938 L 38.710938 6.046875 C 38.710938 6.714844 38.167969 7.257812 37.5 7.257812 "/><path style=" stroke:none;fill-rule:nonzero;fill:#ffbf39;fill-opacity:1;" d="M 37.5 75 C 36.832031 75 36.289062 74.457031 36.289062 73.789062 L 36.289062 68.953125 C 36.289062 68.285156 36.832031 67.742188 37.5 67.742188 C 38.167969 67.742188 38.710938 68.285156 38.710938 68.953125 L 38.710938 73.789062 C 38.710938 74.457031 38.167969 75 37.5 75 "/><path style=" stroke:none;fill-rule:nonzero;fill:#ffbf39;fill-opacity:1;" d="M 53.226562 11.472656 C 53.019531 11.472656 52.808594 11.421875 52.621094 11.308594 C 52.042969 10.976562 51.839844 10.234375 52.175781 9.660156 L 54.597656 5.46875 C 54.929688 4.886719 55.671875 4.6875 56.25 5.023438 C 56.828125 5.359375 57.03125 6.09375 56.695312 6.675781 L 54.273438 10.867188 C 54.046875 11.253906 53.640625 11.472656 53.226562 11.472656 "/><path style=" stroke:none;fill-rule:nonzero;fill:#ffbf39;fill-opacity:1;" d="M 19.355469 70.136719 C 19.148438 70.136719 18.9375 70.085938 18.75 69.976562 C 18.171875 69.640625 17.96875 68.90625 18.304688 68.324219 L 20.726562 64.132812 C 21.0625 63.554688 21.800781 63.355469 22.378906 63.6875 C 22.957031 64.023438 23.160156 64.765625 22.824219 65.339844 L 20.402344 69.53125 C 20.175781 69.921875 19.769531 70.136719 19.355469 70.136719 "/><path style=" stroke:none;fill-rule:nonzero;fill:#ffbf39;fill-opacity:1;" d="M 55.644531 70.136719 C 55.230469 70.136719 54.824219 69.921875 54.597656 69.53125 L 52.175781 65.339844 C 51.839844 64.765625 52.042969 64.023438 52.621094 63.6875 C 53.199219 63.355469 53.9375 63.554688 54.273438 64.132812 L 56.695312 68.324219 C 57.03125 68.90625 56.828125 69.640625 56.25 69.976562 C 56.0625 70.085938 55.851562 70.136719 55.644531 70.136719 "/><path style=" stroke:none;fill-rule:nonzero;fill:#ffbf39;fill-opacity:1;" d="M 21.773438 11.472656 C 21.359375 11.472656 20.953125 11.253906 20.726562 10.867188 L 18.304688 6.675781 C 17.96875 6.09375 18.171875 5.359375 18.75 5.023438 C 19.328125 4.6875 20.070312 4.886719 20.402344 5.46875 L 22.824219 9.660156 C 23.160156 10.234375 22.957031 10.976562 22.378906 11.308594 C 22.191406 11.421875 21.980469 11.472656 21.773438 11.472656 "/></g></svg>