<svg xmlns="http://www.w3.org/2000/svg" xmlns:xlink="http://www.w3.org/1999/xlink" width="100" zoomAndPan="magnify" viewBox="0 0 75 74.999997" height="100" preserveAspectRatio="xMidYMid meet" version="1.2"><defs><clipPath id="d40c060e05"><path d="M 1 11.234375 L 74.945312 11.234375 L 74.945312 62.921875 L 1 62.921875 Z M 1 11.234375 "/></clipPath><clipPath id="950bdba370"><path d="M 0.230469 12 L 74.40625 12 L 74.40625 63.683594 L 0.230469 63.683594 Z M 0.230469 12 "/></clipPath><clipPath id="cfb6435ddd"><path d="M 0 11.703125 L 74.175781 11.703125 L 74.175781 63.390625 L 0 63.390625 Z M 0 11.703125 "/></clipPath></defs><g id="f8ab34eb1b"><g clip-rule="nonzero" clip-path="url(#d40c060e05)"><path style=" stroke:none;fill-rule:nonzero;fill:#ffbf39;fill-opacity:1;" d="M 74.761719 37.914062 C 74.765625 37.90625 74.773438 37.894531 74.777344 37.886719 C 74.785156 37.878906 74.789062 37.867188 74.792969 37.855469 C 74.800781 37.847656 74.804688 37.835938 74.808594 37.828125 C 74.8125 37.816406 74.820312 37.808594 74.824219 37.796875 C 74.828125 37.785156 74.832031 37.773438 74.832031 37.765625 C 74.835938 37.753906 74.839844 37.742188 74.84375 37.734375 C 74.847656 37.722656 74.851562 37.710938 74.851562 37.699219 C 74.855469 37.6875 74.859375 37.675781 74.859375 37.667969 C 74.863281 37.65625 74.863281 37.644531 74.867188 37.628906 C 74.867188 37.621094 74.867188 37.609375 74.867188 37.601562 C 74.871094 37.589844 74.871094 37.574219 74.871094 37.5625 C 74.871094 37.554688 74.871094 37.550781 74.871094 37.542969 C 74.871094 37.539062 74.871094 37.535156 74.871094 37.53125 C 74.871094 37.519531 74.871094 37.507812 74.867188 37.496094 C 74.867188 37.484375 74.867188 37.472656 74.867188 37.464844 C 74.867188 37.453125 74.863281 37.441406 74.863281 37.429688 C 74.859375 37.417969 74.859375 37.40625 74.855469 37.394531 C 74.851562 37.386719 74.851562 37.378906 74.847656 37.367188 C 74.84375 37.355469 74.84375 37.34375 74.839844 37.332031 C 74.835938 37.324219 74.832031 37.3125 74.828125 37.304688 C 74.824219 37.292969 74.820312 37.28125 74.8125 37.269531 C 74.808594 37.261719 74.804688 37.25 74.800781 37.242188 C 74.792969 37.230469 74.789062 37.222656 74.785156 37.210938 C 74.78125 37.199219 74.773438 37.191406 74.765625 37.179688 C 74.761719 37.171875 74.757812 37.164062 74.75 37.15625 C 74.746094 37.144531 74.734375 37.132812 74.726562 37.125 C 74.722656 37.117188 74.714844 37.109375 74.710938 37.101562 C 74.703125 37.09375 74.695312 37.082031 74.6875 37.074219 C 74.679688 37.066406 74.671875 37.058594 74.664062 37.050781 C 74.65625 37.046875 74.648438 37.039062 74.640625 37.03125 C 74.632812 37.023438 74.621094 37.015625 74.613281 37.007812 C 74.609375 37.003906 74.605469 37 74.605469 37 C 74.597656 36.996094 74.59375 36.992188 74.589844 36.988281 C 74.578125 36.980469 74.566406 36.972656 74.554688 36.964844 C 74.546875 36.960938 74.539062 36.953125 74.53125 36.949219 C 74.519531 36.945312 74.507812 36.9375 74.5 36.933594 C 74.488281 36.925781 74.480469 36.921875 74.46875 36.917969 C 74.460938 36.914062 74.449219 36.910156 74.4375 36.90625 C 74.429688 36.902344 74.417969 36.898438 74.40625 36.894531 C 74.398438 36.890625 74.386719 36.886719 74.375 36.882812 C 74.363281 36.878906 74.355469 36.878906 74.34375 36.875 C 74.332031 36.875 74.320312 36.871094 74.3125 36.867188 C 74.300781 36.867188 74.285156 36.863281 74.273438 36.863281 C 74.265625 36.863281 74.253906 36.859375 74.242188 36.859375 C 74.230469 36.859375 74.21875 36.859375 74.207031 36.859375 C 74.199219 36.859375 74.191406 36.855469 74.1875 36.855469 L 38.542969 36.855469 C 36.292969 36.855469 34.070312 36.582031 31.929688 36.042969 L 39.457031 26.011719 C 39.484375 25.976562 39.507812 25.9375 39.527344 25.894531 C 40.832031 24.035156 41.480469 21.84375 41.359375 19.6875 C 41.226562 17.273438 40.125 15.164062 38.253906 13.746094 C 35.925781 11.980469 33.160156 11.226562 30.472656 11.625 C 27.796875 12.015625 25.351562 13.523438 23.578125 15.863281 C 23.53125 15.921875 23.496094 15.988281 23.472656 16.058594 L 4.992188 39.289062 C 4.597656 39.675781 4.222656 40.09375 3.882812 40.546875 C 1.695312 43.425781 0.765625 46.988281 1.257812 50.570312 C 1.753906 54.152344 3.609375 57.324219 6.492188 59.507812 C 7.398438 60.195312 8.734375 60.84375 10.457031 61.429688 C 13.351562 62.414062 16.410156 62.914062 19.554688 62.914062 L 54.6875 62.914062 C 55.203125 62.914062 55.699219 62.667969 56.015625 62.257812 L 74.730469 37.960938 C 74.734375 37.957031 74.734375 37.953125 74.742188 37.945312 C 74.746094 37.933594 74.753906 37.925781 74.761719 37.914062 Z M 25.375 15.871094 C 25.394531 15.847656 25.410156 15.828125 25.425781 15.800781 C 28.675781 12.359375 33.558594 11.910156 37.425781 14.839844 C 40.910156 17.484375 40.554688 22.285156 38.191406 25.402344 C 38.117188 25.496094 38.042969 25.589844 37.964844 25.679688 C 37.917969 25.738281 37.878906 25.796875 37.855469 25.863281 L 22.761719 45.964844 C 22.789062 45.421875 22.765625 44.867188 22.6875 44.316406 C 22.363281 41.957031 21.140625 39.867188 19.242188 38.429688 C 16.082031 36.035156 12.03125 35.621094 8.585938 36.976562 Z M 54.929688 61.421875 C 54.871094 61.496094 54.78125 61.539062 54.6875 61.539062 L 19.554688 61.539062 C 16.5625 61.539062 13.652344 61.066406 10.902344 60.128906 C 9.316406 59.589844 8.109375 59.015625 7.320312 58.414062 C 4.730469 56.453125 3.0625 53.601562 2.617188 50.382812 C 2.175781 47.164062 3.011719 43.964844 4.972656 41.375 C 5.195312 41.082031 5.433594 40.804688 5.679688 40.542969 C 5.757812 40.5 5.828125 40.445312 5.882812 40.371094 L 6.011719 40.214844 C 7.457031 38.835938 9.292969 37.945312 11.3125 37.667969 C 13.847656 37.316406 16.371094 37.976562 18.414062 39.527344 C 20.019531 40.742188 21.054688 42.507812 21.328125 44.503906 C 21.601562 46.5 21.085938 48.480469 19.867188 50.085938 C 18.917969 51.339844 17.535156 52.148438 15.976562 52.363281 C 14.417969 52.578125 12.867188 52.171875 11.613281 51.222656 C 9.601562 49.699219 9.207031 46.820312 10.730469 44.8125 C 11.414062 43.90625 12.449219 43.429688 13.503906 43.417969 L 12.125 45.253906 C 12.078125 45.292969 12.03125 45.335938 11.992188 45.386719 C 11.890625 45.519531 11.804688 45.660156 11.730469 45.808594 C 11.730469 45.808594 11.726562 45.8125 11.726562 45.8125 C 11.460938 46.328125 11.363281 46.910156 11.441406 47.492188 C 11.546875 48.246094 11.933594 48.910156 12.539062 49.371094 C 14.027344 50.496094 16.152344 50.203125 17.277344 48.71875 C 18.628906 46.933594 18.277344 44.386719 16.496094 43.035156 C 16.050781 42.699219 15.5625 42.449219 15.058594 42.285156 C 14.984375 42.25 14.90625 42.226562 14.824219 42.214844 C 12.957031 41.707031 10.875 42.34375 9.636719 43.980469 C 7.652344 46.597656 8.167969 50.335938 10.785156 52.316406 C 12.332031 53.488281 14.238281 53.988281 16.164062 53.722656 C 18.085938 53.457031 19.789062 52.460938 20.960938 50.914062 C 21.316406 50.445312 21.621094 49.949219 21.875 49.433594 C 21.878906 49.429688 21.882812 49.421875 21.886719 49.417969 L 31.039062 37.226562 C 33.460938 37.890625 35.984375 38.230469 38.542969 38.230469 L 72.789062 38.230469 Z M 15.667969 44.128906 C 16.84375 45.023438 17.078125 46.707031 16.183594 47.886719 C 15.515625 48.769531 14.253906 48.945312 13.371094 48.273438 C 12.804688 47.84375 12.636719 47.082031 12.9375 46.464844 L 14.988281 43.726562 C 15.222656 43.832031 15.453125 43.964844 15.667969 44.128906 Z M 15.667969 44.128906 "/></g><g clip-rule="nonzero" clip-path="url(#950bdba370)"><path style=" stroke:none;fill-rule:nonzero;fill:#ffbf39;fill-opacity:1;" d="M 74.222656 38.671875 C 74.230469 38.664062 74.234375 38.65625 74.238281 38.644531 C 74.246094 38.636719 74.253906 38.625 74.257812 38.613281 C 74.261719 38.605469 74.265625 38.59375 74.273438 38.585938 C 74.277344 38.574219 74.28125 38.566406 74.285156 38.554688 C 74.289062 38.542969 74.292969 38.53125 74.296875 38.523438 C 74.300781 38.511719 74.304688 38.5 74.308594 38.492188 C 74.308594 38.480469 74.3125 38.46875 74.316406 38.457031 C 74.316406 38.445312 74.320312 38.4375 74.320312 38.425781 C 74.324219 38.414062 74.328125 38.402344 74.328125 38.386719 C 74.328125 38.378906 74.332031 38.367188 74.332031 38.359375 C 74.332031 38.347656 74.332031 38.332031 74.332031 38.320312 C 74.332031 38.3125 74.335938 38.308594 74.335938 38.300781 C 74.335938 38.296875 74.335938 38.292969 74.332031 38.289062 C 74.332031 38.277344 74.332031 38.265625 74.332031 38.253906 C 74.332031 38.242188 74.332031 38.230469 74.328125 38.222656 C 74.328125 38.210938 74.328125 38.199219 74.324219 38.1875 C 74.320312 38.175781 74.320312 38.164062 74.316406 38.152344 C 74.316406 38.144531 74.3125 38.136719 74.3125 38.125 C 74.308594 38.113281 74.304688 38.101562 74.300781 38.089844 C 74.296875 38.082031 74.292969 38.070312 74.289062 38.0625 C 74.285156 38.050781 74.28125 38.039062 74.277344 38.027344 C 74.273438 38.019531 74.269531 38.007812 74.261719 38 C 74.257812 37.988281 74.253906 37.980469 74.25 37.96875 C 74.242188 37.957031 74.234375 37.949219 74.230469 37.9375 C 74.222656 37.929688 74.21875 37.921875 74.214844 37.914062 C 74.207031 37.902344 74.199219 37.894531 74.191406 37.882812 C 74.1875 37.875 74.179688 37.867188 74.171875 37.859375 C 74.164062 37.851562 74.15625 37.839844 74.148438 37.832031 C 74.140625 37.824219 74.132812 37.816406 74.128906 37.8125 C 74.121094 37.804688 74.113281 37.796875 74.101562 37.789062 C 74.09375 37.78125 74.085938 37.773438 74.074219 37.765625 C 74.070312 37.761719 74.070312 37.757812 74.066406 37.757812 C 74.0625 37.753906 74.054688 37.75 74.050781 37.746094 C 74.039062 37.738281 74.03125 37.730469 74.019531 37.722656 C 74.011719 37.71875 74 37.714844 73.992188 37.707031 C 73.984375 37.703125 73.972656 37.695312 73.960938 37.691406 C 73.953125 37.683594 73.941406 37.679688 73.933594 37.675781 C 73.921875 37.671875 73.910156 37.667969 73.902344 37.664062 C 73.890625 37.660156 73.878906 37.65625 73.871094 37.652344 C 73.859375 37.648438 73.847656 37.644531 73.839844 37.640625 C 73.828125 37.640625 73.816406 37.636719 73.804688 37.632812 C 73.796875 37.632812 73.785156 37.628906 73.773438 37.625 C 73.761719 37.625 73.75 37.621094 73.738281 37.621094 C 73.726562 37.621094 73.71875 37.617188 73.707031 37.617188 C 73.695312 37.617188 73.683594 37.617188 73.667969 37.617188 C 73.664062 37.617188 73.65625 37.617188 73.648438 37.617188 L 38.003906 37.617188 C 35.753906 37.617188 33.53125 37.339844 31.390625 36.800781 L 38.921875 26.773438 C 38.949219 26.734375 38.972656 26.695312 38.992188 26.65625 C 40.292969 24.792969 40.945312 22.601562 40.824219 20.445312 C 40.691406 18.03125 39.585938 15.921875 37.714844 14.503906 C 35.386719 12.738281 32.625 11.984375 29.933594 12.382812 C 27.261719 12.773438 24.8125 14.28125 23.039062 16.621094 C 22.992188 16.679688 22.960938 16.746094 22.9375 16.816406 L 4.457031 40.046875 C 4.058594 40.433594 3.6875 40.851562 3.34375 41.304688 C 1.160156 44.183594 0.230469 47.746094 0.722656 51.328125 C 1.214844 54.910156 3.074219 58.085938 5.953125 60.265625 C 6.863281 60.953125 8.199219 61.601562 9.921875 62.1875 C 12.816406 63.171875 15.875 63.671875 19.015625 63.671875 L 54.148438 63.671875 C 54.667969 63.671875 55.164062 63.425781 55.480469 63.019531 L 74.191406 38.71875 C 74.195312 38.714844 74.199219 38.710938 74.203125 38.703125 C 74.210938 38.695312 74.21875 38.683594 74.222656 38.671875 Z M 24.839844 16.628906 C 24.855469 16.605469 24.871094 16.585938 24.886719 16.5625 C 28.140625 13.117188 33.019531 12.667969 36.886719 15.601562 C 40.375 18.242188 40.015625 23.042969 37.65625 26.160156 C 37.582031 26.253906 37.503906 26.347656 37.429688 26.441406 C 37.378906 26.496094 37.34375 26.558594 37.316406 26.621094 L 22.222656 46.722656 C 22.25 46.179688 22.226562 45.625 22.148438 45.074219 C 21.824219 42.714844 20.601562 40.628906 18.707031 39.1875 C 15.546875 36.792969 11.496094 36.378906 8.050781 37.734375 Z M 54.390625 62.179688 C 54.332031 62.253906 54.242188 62.300781 54.148438 62.300781 L 19.015625 62.300781 C 16.027344 62.300781 13.113281 61.824219 10.363281 60.890625 C 8.777344 60.347656 7.574219 59.773438 6.78125 59.171875 C 4.195312 57.210938 2.523438 54.359375 2.082031 51.140625 C 1.636719 47.921875 2.472656 44.722656 4.4375 42.132812 C 4.660156 41.84375 4.894531 41.566406 5.144531 41.300781 C 5.21875 41.261719 5.289062 41.203125 5.347656 41.128906 L 5.476562 40.972656 C 6.917969 39.59375 8.753906 38.703125 10.773438 38.425781 C 13.3125 38.074219 15.835938 38.734375 17.875 40.285156 C 19.480469 41.5 20.515625 43.269531 20.789062 45.261719 C 21.066406 47.257812 20.546875 49.238281 19.332031 50.84375 C 18.378906 52.097656 16.996094 52.90625 15.4375 53.121094 C 13.878906 53.335938 12.332031 52.929688 11.074219 51.980469 C 9.0625 50.457031 8.667969 47.582031 10.191406 45.570312 C 10.875 44.667969 11.914062 44.1875 12.964844 44.175781 L 11.589844 46.015625 C 11.539062 46.050781 11.496094 46.09375 11.457031 46.148438 C 11.355469 46.277344 11.269531 46.417969 11.191406 46.566406 C 11.191406 46.566406 11.191406 46.570312 11.191406 46.570312 C 10.925781 47.085938 10.824219 47.667969 10.90625 48.25 C 11.007812 49.003906 11.398438 49.671875 12.003906 50.128906 C 13.488281 51.253906 15.613281 50.960938 16.738281 49.476562 C 18.089844 47.695312 17.738281 45.144531 15.957031 43.792969 C 15.511719 43.457031 15.027344 43.210938 14.523438 43.042969 C 14.449219 43.007812 14.367188 42.984375 14.289062 42.976562 C 12.417969 42.46875 10.339844 43.101562 9.097656 44.738281 C 7.117188 47.355469 7.632812 51.09375 10.246094 53.074219 C 11.792969 54.246094 13.703125 54.746094 15.625 54.480469 C 17.546875 54.214844 19.253906 53.21875 20.425781 51.671875 C 20.78125 51.203125 21.082031 50.707031 21.335938 50.191406 C 21.339844 50.1875 21.347656 50.179688 21.351562 50.175781 L 30.5 37.984375 C 32.921875 38.652344 35.445312 38.988281 38.003906 38.988281 L 72.253906 38.988281 Z M 15.128906 44.886719 C 16.308594 45.78125 16.539062 47.464844 15.644531 48.644531 C 14.976562 49.527344 13.714844 49.703125 12.832031 49.03125 C 12.265625 48.601562 12.097656 47.839844 12.398438 47.222656 L 14.449219 44.484375 C 14.6875 44.589844 14.914062 44.722656 15.128906 44.886719 Z M 15.128906 44.886719 "/></g><g clip-rule="nonzero" clip-path="url(#cfb6435ddd)"><path style=" stroke:none;fill-rule:nonzero;fill:#ffbf39;fill-opacity:1;" d="M 73.992188 38.382812 C 73.996094 38.375 74.003906 38.367188 74.007812 38.355469 C 74.015625 38.347656 74.019531 38.335938 74.027344 38.324219 C 74.03125 38.316406 74.035156 38.304688 74.039062 38.296875 C 74.046875 38.285156 74.050781 38.277344 74.054688 38.265625 C 74.058594 38.253906 74.0625 38.242188 74.066406 38.234375 C 74.066406 38.222656 74.070312 38.210938 74.074219 38.203125 C 74.078125 38.191406 74.082031 38.179688 74.085938 38.167969 C 74.085938 38.15625 74.089844 38.144531 74.089844 38.136719 C 74.09375 38.125 74.09375 38.113281 74.097656 38.097656 C 74.097656 38.089844 74.097656 38.078125 74.101562 38.070312 C 74.101562 38.058594 74.101562 38.042969 74.101562 38.03125 C 74.101562 38.023438 74.101562 38.019531 74.101562 38.011719 C 74.101562 38.007812 74.101562 38.003906 74.101562 38 C 74.101562 37.988281 74.101562 37.976562 74.101562 37.964844 C 74.097656 37.953125 74.097656 37.941406 74.097656 37.933594 C 74.097656 37.921875 74.09375 37.910156 74.09375 37.898438 C 74.089844 37.886719 74.089844 37.875 74.085938 37.863281 C 74.085938 37.855469 74.082031 37.847656 74.078125 37.835938 C 74.074219 37.824219 74.074219 37.8125 74.070312 37.800781 C 74.066406 37.792969 74.0625 37.78125 74.058594 37.773438 C 74.054688 37.761719 74.050781 37.75 74.046875 37.738281 C 74.042969 37.730469 74.035156 37.71875 74.03125 37.710938 C 74.027344 37.699219 74.023438 37.691406 74.015625 37.679688 C 74.011719 37.667969 74.003906 37.660156 73.996094 37.648438 C 73.992188 37.640625 73.988281 37.632812 73.984375 37.625 C 73.976562 37.613281 73.96875 37.605469 73.957031 37.59375 C 73.953125 37.585938 73.949219 37.578125 73.941406 37.570312 C 73.933594 37.5625 73.925781 37.550781 73.917969 37.542969 C 73.910156 37.535156 73.902344 37.527344 73.894531 37.519531 C 73.886719 37.515625 73.878906 37.507812 73.871094 37.5 C 73.863281 37.492188 73.851562 37.484375 73.84375 37.476562 C 73.839844 37.472656 73.835938 37.46875 73.835938 37.46875 C 73.828125 37.464844 73.824219 37.460938 73.820312 37.457031 C 73.808594 37.449219 73.796875 37.441406 73.789062 37.433594 C 73.777344 37.429688 73.769531 37.421875 73.761719 37.417969 C 73.75 37.414062 73.738281 37.40625 73.730469 37.402344 C 73.71875 37.394531 73.710938 37.390625 73.699219 37.386719 C 73.691406 37.382812 73.679688 37.378906 73.667969 37.375 C 73.660156 37.371094 73.648438 37.367188 73.636719 37.363281 C 73.628906 37.359375 73.617188 37.355469 73.605469 37.351562 C 73.59375 37.351562 73.585938 37.347656 73.574219 37.34375 C 73.5625 37.34375 73.550781 37.339844 73.542969 37.335938 C 73.53125 37.335938 73.519531 37.332031 73.503906 37.332031 C 73.496094 37.332031 73.484375 37.328125 73.476562 37.328125 C 73.460938 37.328125 73.449219 37.328125 73.4375 37.328125 C 73.429688 37.328125 73.421875 37.328125 73.417969 37.328125 L 37.773438 37.328125 C 35.523438 37.328125 33.300781 37.050781 31.160156 36.511719 L 38.6875 26.480469 C 38.71875 26.445312 38.742188 26.40625 38.761719 26.363281 C 40.0625 24.503906 40.710938 22.3125 40.589844 20.15625 C 40.457031 17.742188 39.355469 15.632812 37.484375 14.214844 C 35.15625 12.449219 32.390625 11.695312 29.703125 12.09375 C 27.027344 12.484375 24.582031 13.992188 22.808594 16.332031 C 22.761719 16.390625 22.726562 16.457031 22.703125 16.527344 L 4.222656 39.757812 C 3.828125 40.144531 3.457031 40.5625 3.113281 41.015625 C 0.929688 43.894531 -0.00390625 47.457031 0.488281 51.039062 C 0.984375 54.621094 2.84375 57.792969 5.722656 59.976562 C 6.628906 60.664062 7.964844 61.3125 9.6875 61.898438 C 12.582031 62.882812 15.644531 63.382812 18.785156 63.382812 L 53.917969 63.382812 C 54.433594 63.382812 54.929688 63.136719 55.246094 62.726562 L 73.960938 38.429688 C 73.964844 38.425781 73.96875 38.421875 73.972656 38.414062 C 73.976562 38.40625 73.984375 38.394531 73.992188 38.382812 Z M 24.609375 16.339844 C 24.625 16.316406 24.640625 16.296875 24.65625 16.273438 C 27.90625 12.828125 32.789062 12.378906 36.65625 15.3125 C 40.140625 17.953125 39.785156 22.753906 37.421875 25.871094 C 37.351562 25.964844 37.273438 26.058594 37.195312 26.148438 C 37.148438 26.207031 37.113281 26.265625 37.085938 26.332031 L 21.992188 46.433594 C 22.019531 45.890625 21.996094 45.335938 21.917969 44.785156 C 21.59375 42.425781 20.371094 40.335938 18.472656 38.898438 C 15.3125 36.503906 11.261719 36.089844 7.820312 37.445312 Z M 54.160156 61.890625 C 54.101562 61.964844 54.011719 62.011719 53.917969 62.011719 L 18.785156 62.011719 C 15.792969 62.011719 12.882812 61.535156 10.132812 60.601562 C 8.546875 60.058594 7.339844 59.484375 6.550781 58.882812 C 3.960938 56.921875 2.292969 54.070312 1.847656 50.851562 C 1.40625 47.632812 2.242188 44.433594 4.203125 41.84375 C 4.425781 41.550781 4.664062 41.273438 4.910156 41.011719 C 4.988281 40.972656 5.058594 40.914062 5.117188 40.839844 L 5.242188 40.683594 C 6.6875 39.304688 8.523438 38.414062 10.542969 38.136719 C 13.082031 37.785156 15.601562 38.445312 17.644531 39.996094 C 19.25 41.210938 20.285156 42.976562 20.558594 44.972656 C 20.832031 46.96875 20.316406 48.949219 19.097656 50.554688 C 18.148438 51.808594 16.765625 52.617188 15.207031 52.832031 C 13.648438 53.046875 12.097656 52.640625 10.84375 51.691406 C 8.832031 50.167969 8.4375 47.292969 9.960938 45.28125 C 10.644531 44.378906 11.679688 43.898438 12.734375 43.886719 L 11.359375 45.726562 C 11.308594 45.761719 11.261719 45.804688 11.222656 45.855469 C 11.125 45.988281 11.035156 46.128906 10.960938 46.277344 C 10.960938 46.277344 10.957031 46.28125 10.957031 46.28125 C 10.695312 46.796875 10.59375 47.378906 10.671875 47.960938 C 10.777344 48.714844 11.167969 49.378906 11.773438 49.839844 C 13.257812 50.964844 15.382812 50.671875 16.507812 49.1875 C 17.859375 47.402344 17.507812 44.855469 15.726562 43.503906 C 15.28125 43.167969 14.792969 42.917969 14.292969 42.753906 C 14.214844 42.71875 14.136719 42.695312 14.058594 42.683594 C 12.1875 42.175781 10.105469 42.8125 8.867188 44.449219 C 6.882812 47.066406 7.398438 50.804688 10.015625 52.785156 C 11.5625 53.957031 13.472656 54.457031 15.394531 54.191406 C 17.316406 53.925781 19.019531 52.929688 20.191406 51.382812 C 20.546875 50.914062 20.851562 50.417969 21.105469 49.902344 C 21.109375 49.898438 21.113281 49.890625 21.117188 49.886719 L 30.269531 37.695312 C 32.691406 38.359375 35.214844 38.699219 37.773438 38.699219 L 72.019531 38.699219 Z M 14.898438 44.597656 C 16.078125 45.492188 16.308594 47.175781 15.414062 48.355469 C 14.746094 49.238281 13.484375 49.414062 12.601562 48.742188 C 12.035156 48.3125 11.867188 47.550781 12.167969 46.933594 L 14.21875 44.195312 C 14.453125 44.300781 14.683594 44.433594 14.898438 44.597656 Z M 14.898438 44.597656 "/></g></g></svg>