<svg xmlns="http://www.w3.org/2000/svg" xmlns:xlink="http://www.w3.org/1999/xlink" width="100" zoomAndPan="magnify" viewBox="0 0 75 74.999997" height="100" preserveAspectRatio="xMidYMid meet" version="1.2"><defs><clipPath id="bbedeaef68"><path d="M 19 7.5 L 60.125 7.5 L 60.125 62 L 19 62 Z M 19 7.5 "/></clipPath><clipPath id="2eb3aa3f7a"><path d="M 15.125 18 L 38 18 L 38 66 L 15.125 66 Z M 15.125 18 "/></clipPath><clipPath id="04f99ddcd8"><path d="M 15.125 20 L 39 20 L 39 65 L 15.125 65 Z M 15.125 20 "/></clipPath><clipPath id="1e26c85176"><path d="M 15.125 20 L 19 20 L 19 23 L 15.125 23 Z M 15.125 20 "/></clipPath><clipPath id="e4bb696986"><path d="M 15.125 22 L 32 22 L 32 65 L 15.125 65 Z M 15.125 22 "/></clipPath><clipPath id="cb86d6d3eb"><path d="M 15.125 22 L 30 22 L 30 65 L 15.125 65 Z M 15.125 22 "/></clipPath><clipPath id="37c10c11b0"><path d="M 15.125 23 L 29 23 L 29 65 L 15.125 65 Z M 15.125 23 "/></clipPath></defs><g id="04ecf2cb34"><g clip-rule="nonzero" clip-path="url(#bbedeaef68)"><path style=" stroke:none;fill-rule:nonzero;fill:#c1d8db;fill-opacity:1;" d="M 60.113281 53.445312 C 60.113281 53.445312 57.417969 51.46875 53.53125 52.3125 C 52.585938 52.507812 51.554688 52.886719 50.484375 53.5 C 49.976562 53.785156 49.492188 54.105469 49.015625 54.445312 C 46.480469 56.242188 44.277344 58.574219 41.671875 60.074219 C 39.472656 61.328125 36.984375 61.988281 33.738281 61.242188 C 25.90625 59.4375 19.988281 22.316406 19.988281 22.316406 C 23.714844 21.039062 25.921875 20.414062 27.683594 19.558594 C 28.902344 18.949219 29.90625 18.226562 31.046875 17.074219 C 31.730469 16.390625 32.46875 15.554688 33.335938 14.503906 C 34.996094 12.488281 37.011719 11 38.882812 9.929688 C 41.988281 8.148438 44.707031 7.515625 44.707031 7.515625 Z M 60.113281 53.445312 "/></g><path style=" stroke:none;fill-rule:nonzero;fill:#6f8f94;fill-opacity:0.5;" d="M 41.671875 60.074219 C 39.472656 61.328125 36.984375 61.988281 33.738281 61.242188 C 25.90625 59.4375 19.988281 22.316406 19.988281 22.316406 C 23.714844 21.039062 25.921875 20.414062 27.683594 19.558594 C 31.460938 39.71875 38.265625 53.921875 41.671875 60.074219 Z M 41.671875 60.074219 "/><g clip-rule="nonzero" clip-path="url(#2eb3aa3f7a)"><path style=" stroke:none;fill-rule:nonzero;fill:#cf7c23;fill-opacity:1;" d="M 24.003906 19.039062 L 37.875 62.992188 C 37.929688 63.15625 37.90625 63.3125 37.839844 63.453125 C 37.765625 63.597656 37.632812 63.71875 37.457031 63.773438 L 30.667969 65.878906 C 30.335938 65.980469 29.976562 65.800781 29.871094 65.472656 L 16 21.519531 C 15.960938 21.390625 15.96875 21.257812 16 21.136719 C 16.0625 20.949219 16.214844 20.792969 16.417969 20.730469 L 23.207031 18.625 C 23.417969 18.558594 23.625 18.605469 23.78125 18.726562 C 23.886719 18.800781 23.960938 18.910156 24.003906 19.039062 Z M 24.003906 19.039062 "/></g><path style=" stroke:none;fill-rule:nonzero;fill:#cf967c;fill-opacity:0.7;" d="M 31.535156 64.628906 C 31.714844 65.203125 31.761719 65.339844 31.761719 65.339844 L 37.839844 63.453125 C 37.765625 63.597656 37.632812 63.71875 37.457031 63.773438 L 30.667969 65.878906 C 30.335938 65.980469 29.976562 65.800781 29.875 65.472656 L 28.574219 61.351562 C 31.042969 59.617188 33.824219 58.125 36.160156 57.558594 L 37.730469 62.527344 C 33.167969 63.371094 31.363281 64.082031 31.535156 64.628906 Z M 31.535156 64.628906 "/><path style=" stroke:none;fill-rule:nonzero;fill:#825e4e;fill-opacity:0.7;" d="M 36.605469 58.96875 C 34.074219 59.625 31.773438 60.121094 29.808594 60.527344 C 29.390625 60.796875 28.976562 61.070312 28.574219 61.351562 L 29.558594 64.476562 C 31.507812 63.648438 34.621094 62.671875 37.511719 61.835938 Z M 36.605469 58.96875 "/><g clip-rule="nonzero" clip-path="url(#04f99ddcd8)"><path style=" stroke:none;fill-rule:nonzero;fill:#a4d4db;fill-opacity:1;" d="M 26.074219 20.667969 L 38.640625 60.484375 C 38.753906 60.847656 38.542969 61.234375 38.175781 61.347656 L 28.683594 64.292969 C 28.65625 64.300781 28.625 64.308594 28.597656 64.308594 C 28.253906 64.375 27.910156 64.179688 27.804688 63.84375 L 15.234375 24.027344 C 15.125 23.679688 15.296875 23.328125 15.617188 23.1875 C 15.640625 23.171875 15.667969 23.164062 15.699219 23.152344 L 25.191406 20.210938 C 25.558594 20.097656 25.953125 20.292969 26.074219 20.667969 Z M 26.074219 20.667969 "/></g><path style=" stroke:none;fill-rule:nonzero;fill:#e88b27;fill-opacity:1;" d="M 23.78125 18.726562 L 16 21.136719 C 16.0625 20.949219 16.214844 20.792969 16.417969 20.730469 L 23.207031 18.625 C 23.417969 18.558594 23.625 18.605469 23.78125 18.726562 Z M 23.78125 18.726562 "/><g clip-rule="nonzero" clip-path="url(#1e26c85176)"><path style=" stroke:none;fill-rule:nonzero;fill:#cf7c23;fill-opacity:0.4;" d="M 17.675781 20.339844 L 18.308594 22.34375 L 16.441406 22.921875 L 16 21.519531 C 15.960938 21.390625 15.96875 21.257812 16 21.136719 C 16.0625 20.949219 16.214844 20.792969 16.417969 20.730469 Z M 17.675781 20.339844 "/></g><path style=" stroke:none;fill-rule:nonzero;fill:#e1fcff;fill-opacity:0.4;" d="M 36.949219 58.074219 C 37.273438 59.445312 37.527344 60.578125 37.714844 61.492188 L 36.328125 61.921875 C 34.203125 56.894531 25.132812 32.660156 22.429688 21.066406 L 24.5 20.425781 C 27 27.085938 35 49.78125 36.949219 58.074219 Z M 36.949219 58.074219 "/><g clip-rule="nonzero" clip-path="url(#e4bb696986)"><path style=" stroke:none;fill-rule:nonzero;fill:#a4d4db;fill-opacity:0.4;" d="M 18.679688 22.230469 L 26.308594 46.410156 C 28.5 53.347656 30.234375 59.125 31.476562 63.425781 L 28.683594 64.292969 C 28.3125 64.40625 27.917969 64.207031 27.804688 63.84375 L 15.234375 24.027344 C 15.117188 23.652344 15.328125 23.269531 15.699219 23.152344 Z M 18.679688 22.230469 "/></g><g clip-rule="nonzero" clip-path="url(#cb86d6d3eb)"><path style=" stroke:none;fill-rule:nonzero;fill:#a4d4db;fill-opacity:0.4;" d="M 16.847656 22.796875 L 29.832031 63.9375 L 28.683594 64.292969 C 28.3125 64.40625 27.917969 64.207031 27.804688 63.84375 L 15.234375 24.027344 C 15.117188 23.652344 15.328125 23.269531 15.699219 23.152344 Z M 16.847656 22.796875 "/></g><g clip-rule="nonzero" clip-path="url(#37c10c11b0)"><path style=" stroke:none;fill-rule:nonzero;fill:#ffffff;fill-opacity:0.4;" d="M 15.617188 23.1875 L 28.597656 64.308594 C 28.253906 64.375 27.910156 64.179688 27.804688 63.84375 L 15.234375 24.027344 C 15.125 23.679688 15.296875 23.328125 15.617188 23.1875 Z M 15.617188 23.1875 "/></g><path style=" stroke:none;fill-rule:nonzero;fill:#ffffff;fill-opacity:0.4;" d="M 24.949219 23.746094 C 26.574219 30.851562 31.742188 42.207031 31.742188 42.207031 C 31.742188 42.207031 27.230469 28.441406 26.507812 26.160156 C 25.785156 23.882812 24.613281 22.289062 24.949219 23.746094 Z M 24.949219 23.746094 "/><path style=" stroke:none;fill-rule:nonzero;fill:#ffffff;fill-opacity:0.5;" d="M 29.050781 20.195312 C 29.070312 20.277344 29.089844 20.359375 29.109375 20.441406 C 35.363281 47.003906 44.667969 55.980469 44.667969 55.980469 C 44.667969 55.980469 40.6875 47.40625 37.613281 41.894531 C 33.933594 35.304688 29.050781 20.195312 29.050781 20.195312 Z M 29.050781 20.195312 "/><path style=" stroke:none;fill-rule:nonzero;fill:#ffffff;fill-opacity:0.5;" d="M 36.019531 35.757812 C 36.640625 38.679688 37.835938 41.523438 39.179688 44.042969 C 42.089844 49.492188 45.695312 53.445312 45.695312 53.445312 C 45.695312 53.445312 42.074219 47.34375 39.800781 43.320312 C 37.527344 39.292969 36.019531 35.757812 36.019531 35.757812 Z M 36.019531 35.757812 "/><path style=" stroke:none;fill-rule:nonzero;fill:#a4d4db;fill-opacity:0.3;" d="M 53.53125 52.3125 C 52.585938 52.507812 51.554688 52.886719 50.484375 53.5 C 49.976562 53.785156 49.492188 54.105469 49.015625 54.445312 C 45.945312 46.769531 40.929688 32.089844 35.585938 24.957031 C 33.527344 22.203125 32.066406 19.46875 31.046875 17.074219 C 31.730469 16.390625 32.46875 15.554688 33.335938 14.503906 C 34.992188 12.488281 37.007812 11 38.882812 9.929688 C 41.871094 28.902344 49.324219 45.28125 53.53125 52.3125 Z M 53.53125 52.3125 "/><path style=" stroke:none;fill-rule:nonzero;fill:#a4d4db;fill-opacity:0.3;" d="M 31.359375 23.480469 C 35.339844 34.148438 44.832031 47.332031 44.832031 47.332031 C 44.832031 47.332031 37.792969 33.554688 35.828125 29.824219 C 33.867188 26.097656 31.359375 23.480469 31.359375 23.480469 Z M 31.359375 23.480469 "/><path style=" stroke:none;fill-rule:nonzero;fill:#ffffff;fill-opacity:0.5;" d="M 32.007812 22.335938 C 34.535156 24.832031 41.394531 38.21875 41.394531 38.21875 C 41.394531 38.21875 37.125 28.421875 35.375 26.074219 C 33.625 23.726562 32.007812 22.335938 32.007812 22.335938 Z M 32.007812 22.335938 "/><path style=" stroke:none;fill-rule:nonzero;fill:#ffffff;fill-opacity:0.3;" d="M 41.761719 11.191406 C 46.472656 39.980469 54.433594 49.914062 54.433594 49.914062 C 54.433594 49.914062 50.929688 40.769531 48.453125 32.917969 C 45.972656 25.066406 41.761719 11.191406 41.761719 11.191406 Z M 41.761719 11.191406 "/><path style=" stroke:none;fill-rule:nonzero;fill:#ffffff;fill-opacity:0.7;" d="M 44.945312 18.535156 C 49.25 34.660156 55.515625 49.179688 55.613281 49.3125 C 55.714844 49.449219 52.464844 38.042969 50.894531 33.53125 C 49.320312 29.023438 44.945312 18.535156 44.945312 18.535156 Z M 44.945312 18.535156 "/><path style=" stroke:none;fill-rule:nonzero;fill:#ffffff;fill-opacity:0.5;" d="M 43.929688 11.355469 C 45.5625 18.355469 49.941406 26.003906 49.941406 26.003906 C 49.941406 26.003906 45.144531 13.757812 44.898438 12.390625 C 44.648438 11.019531 43.929688 11.355469 43.929688 11.355469 Z M 43.929688 11.355469 "/></g></svg>