<svg xmlns="http://www.w3.org/2000/svg" xmlns:xlink="http://www.w3.org/1999/xlink" width="100" zoomAndPan="magnify" viewBox="0 0 75 74.999997" height="100" preserveAspectRatio="xMidYMid meet" version="1.0"><defs><clipPath id="b0bd6a7d6e"><path d="M 7.5 16.574219 L 67.5 16.574219 L 67.5 58.574219 L 7.5 58.574219 Z M 7.5 16.574219 " clip-rule="nonzero"/></clipPath></defs><g clip-path="url(#b0bd6a7d6e)"><path fill="#ffbf39" d="M 67.402344 38.175781 C 67.410156 38.167969 67.414062 38.160156 67.417969 38.15625 C 67.421875 38.144531 67.425781 38.136719 67.429688 38.128906 C 67.433594 38.121094 67.4375 38.113281 67.441406 38.105469 C 67.445312 38.097656 67.449219 38.089844 67.453125 38.078125 C 67.457031 38.070312 67.460938 38.0625 67.460938 38.054688 C 67.464844 38.046875 67.46875 38.039062 67.472656 38.027344 C 67.472656 38.019531 67.476562 38.011719 67.476562 38 C 67.480469 37.992188 67.480469 37.984375 67.484375 37.976562 C 67.484375 37.964844 67.488281 37.957031 67.488281 37.945312 C 67.488281 37.9375 67.488281 37.929688 67.492188 37.921875 C 67.492188 37.910156 67.492188 37.902344 67.492188 37.890625 C 67.492188 37.886719 67.492188 37.878906 67.492188 37.875 C 67.492188 37.871094 67.492188 37.867188 67.492188 37.867188 C 67.492188 37.855469 67.492188 37.847656 67.492188 37.835938 C 67.488281 37.828125 67.488281 37.820312 67.488281 37.8125 C 67.488281 37.800781 67.488281 37.792969 67.484375 37.785156 C 67.484375 37.773438 67.480469 37.765625 67.480469 37.757812 C 67.476562 37.75 67.476562 37.742188 67.472656 37.734375 C 67.472656 37.722656 67.46875 37.714844 67.464844 37.703125 C 67.464844 37.695312 67.460938 37.6875 67.457031 37.683594 C 67.453125 37.671875 67.449219 37.664062 67.445312 37.65625 C 67.441406 37.644531 67.4375 37.636719 67.433594 37.628906 C 67.429688 37.621094 67.425781 37.613281 67.421875 37.605469 C 67.417969 37.597656 67.414062 37.589844 67.40625 37.582031 C 67.402344 37.574219 67.398438 37.566406 67.394531 37.5625 C 67.390625 37.554688 67.382812 37.542969 67.375 37.535156 C 67.371094 37.53125 67.367188 37.523438 67.363281 37.519531 C 67.355469 37.511719 67.347656 37.503906 67.34375 37.496094 C 67.335938 37.488281 67.332031 37.484375 67.324219 37.476562 C 67.320312 37.472656 67.3125 37.464844 67.304688 37.460938 C 67.296875 37.453125 67.289062 37.445312 67.28125 37.441406 C 67.28125 37.4375 67.277344 37.4375 67.277344 37.433594 C 67.273438 37.429688 67.269531 37.429688 67.261719 37.425781 C 67.253906 37.417969 67.246094 37.414062 67.238281 37.40625 C 67.230469 37.402344 67.222656 37.398438 67.21875 37.394531 C 67.207031 37.390625 67.199219 37.386719 67.191406 37.378906 C 67.183594 37.375 67.175781 37.375 67.167969 37.371094 C 67.160156 37.367188 67.148438 37.363281 67.140625 37.359375 C 67.132812 37.355469 67.125 37.351562 67.117188 37.351562 C 67.109375 37.347656 67.097656 37.34375 67.089844 37.339844 C 67.082031 37.339844 67.074219 37.335938 67.066406 37.335938 C 67.054688 37.332031 67.046875 37.332031 67.039062 37.328125 C 67.03125 37.328125 67.019531 37.324219 67.007812 37.324219 C 67 37.324219 66.992188 37.324219 66.984375 37.324219 C 66.976562 37.320312 66.964844 37.320312 66.953125 37.320312 C 66.949219 37.320312 66.941406 37.320312 66.9375 37.320312 L 38.082031 37.320312 C 36.257812 37.320312 34.460938 37.097656 32.726562 36.660156 L 38.824219 28.539062 C 38.84375 28.511719 38.863281 28.480469 38.878906 28.445312 C 39.933594 26.9375 40.460938 25.164062 40.363281 23.421875 C 40.253906 21.464844 39.363281 19.757812 37.847656 18.609375 C 35.960938 17.179688 33.726562 16.570312 31.546875 16.890625 C 29.382812 17.210938 27.402344 18.429688 25.964844 20.324219 C 25.929688 20.371094 25.902344 20.425781 25.882812 20.480469 L 10.921875 39.289062 C 10.601562 39.601562 10.296875 39.941406 10.019531 40.308594 C 8.253906 42.640625 7.5 45.519531 7.898438 48.421875 C 8.296875 51.320312 9.800781 53.890625 12.132812 55.660156 C 12.867188 56.214844 13.949219 56.738281 15.34375 57.214844 C 17.6875 58.011719 20.164062 58.414062 22.707031 58.414062 L 51.152344 58.414062 C 51.570312 58.414062 51.972656 58.214844 52.226562 57.886719 L 67.378906 38.214844 C 67.378906 38.210938 67.382812 38.207031 67.386719 38.203125 C 67.390625 38.191406 67.398438 38.183594 67.402344 38.175781 Z M 27.421875 20.332031 C 27.4375 20.3125 27.449219 20.292969 27.460938 20.273438 C 30.09375 17.488281 34.046875 17.125 37.175781 19.496094 C 40 21.636719 39.710938 25.523438 37.796875 28.046875 C 37.738281 28.121094 37.675781 28.199219 37.613281 28.273438 C 37.574219 28.316406 37.546875 28.367188 37.523438 28.417969 L 25.304688 44.695312 C 25.328125 44.253906 25.308594 43.804688 25.246094 43.359375 C 24.980469 41.449219 23.992188 39.757812 22.457031 38.59375 C 19.898438 36.65625 16.621094 36.316406 13.832031 37.414062 Z M 51.347656 57.207031 C 51.300781 57.265625 51.226562 57.304688 51.152344 57.304688 L 22.707031 57.304688 C 20.289062 57.304688 17.929688 56.917969 15.703125 56.160156 C 14.421875 55.726562 13.445312 55.257812 12.804688 54.773438 C 10.707031 53.183594 9.355469 50.875 8.996094 48.269531 C 8.640625 45.664062 9.316406 43.074219 10.90625 40.976562 C 11.085938 40.742188 11.277344 40.515625 11.476562 40.304688 C 11.539062 40.269531 11.597656 40.222656 11.640625 40.164062 L 11.746094 40.035156 C 12.914062 38.921875 14.402344 38.199219 16.035156 37.976562 C 18.089844 37.691406 20.132812 38.226562 21.785156 39.480469 C 23.085938 40.464844 23.921875 41.894531 24.144531 43.511719 C 24.367188 45.125 23.949219 46.730469 22.964844 48.03125 C 22.195312 49.042969 21.074219 49.699219 19.8125 49.875 C 18.550781 50.046875 17.296875 49.71875 16.28125 48.949219 C 14.652344 47.714844 14.332031 45.386719 15.566406 43.757812 C 16.117188 43.027344 16.957031 42.640625 17.8125 42.632812 L 16.695312 44.121094 C 16.65625 44.148438 16.621094 44.183594 16.585938 44.226562 C 16.507812 44.332031 16.433594 44.445312 16.375 44.566406 C 16.375 44.566406 16.375 44.570312 16.371094 44.570312 C 16.160156 44.984375 16.078125 45.457031 16.140625 45.929688 C 16.226562 46.539062 16.542969 47.078125 17.03125 47.449219 C 18.234375 48.363281 19.953125 48.125 20.867188 46.921875 C 21.960938 45.480469 21.675781 43.417969 20.234375 42.324219 C 19.871094 42.050781 19.480469 41.847656 19.070312 41.714844 C 19.011719 41.683594 18.945312 41.667969 18.882812 41.660156 C 17.367188 41.246094 15.683594 41.761719 14.679688 43.085938 C 13.074219 45.203125 13.492188 48.230469 15.609375 49.835938 C 16.859375 50.785156 18.40625 51.1875 19.964844 50.972656 C 21.519531 50.757812 22.898438 49.953125 23.847656 48.699219 C 24.136719 48.320312 24.382812 47.917969 24.585938 47.5 C 24.589844 47.496094 24.59375 47.492188 24.597656 47.488281 L 32.007812 37.621094 C 33.964844 38.15625 36.007812 38.429688 38.082031 38.429688 L 65.808594 38.429688 Z M 19.5625 43.207031 C 20.515625 43.929688 20.703125 45.296875 19.980469 46.25 C 19.4375 46.964844 18.417969 47.105469 17.703125 46.5625 C 17.246094 46.214844 17.109375 45.597656 17.351562 45.097656 L 19.011719 42.882812 C 19.203125 42.964844 19.386719 43.074219 19.5625 43.207031 Z M 19.5625 43.207031 " fill-opacity="1" fill-rule="nonzero"/></g></svg>