<svg xmlns="http://www.w3.org/2000/svg" xmlns:xlink="http://www.w3.org/1999/xlink" width="100" zoomAndPan="magnify" viewBox="0 0 75 74.999997" height="100" preserveAspectRatio="xMidYMid meet" version="1.2"><defs><clipPath id="a3ed5f7026"><path d="M 12.613281 0 L 70.777344 0 L 70.777344 74.863281 L 12.613281 74.863281 Z M 12.613281 0 "/></clipPath><clipPath id="c1e3f17b23"><path d="M 11.808594 29.164062 L 32.601562 29.164062 L 32.601562 49.441406 L 11.808594 49.441406 Z M 11.808594 29.164062 "/></clipPath><clipPath id="5358dde348"><path d="M 11.839844 39.386719 C 11.839844 39.121094 11.863281 38.972656 11.863281 38.972656 C 11.863281 38.972656 11.886719 38.851562 11.910156 38.777344 C 11.9375 38.703125 11.960938 38.582031 11.960938 38.582031 C 11.960938 38.582031 12.035156 38.460938 12.058594 38.410156 C 12.105469 38.339844 12.15625 38.214844 12.15625 38.214844 C 12.179688 38.214844 12.253906 38.117188 12.300781 38.070312 C 12.351562 38.019531 12.449219 37.921875 12.449219 37.921875 C 12.449219 37.921875 12.570312 37.851562 12.621094 37.800781 C 12.691406 37.777344 12.789062 37.703125 12.789062 37.703125 C 12.789062 37.703125 12.886719 37.679688 12.914062 37.65625 C 12.886719 37.628906 12.886719 37.460938 12.886719 37.433594 C 12.886719 37.433594 12.914062 36.972656 13.011719 36.703125 C 13.15625 36.289062 13.5 35.75 13.816406 35.261719 C 14.183594 34.726562 14.621094 34.113281 15.109375 33.625 C 15.574219 33.164062 16.136719 32.796875 16.648438 32.40625 C 17.136719 32.039062 17.625 31.648438 18.0625 31.308594 C 18.503906 30.964844 18.820312 30.597656 19.332031 30.355469 C 19.894531 30.0625 20.796875 29.746094 21.410156 29.746094 C 21.871094 29.746094 22.3125 30.257812 22.628906 30.160156 C 22.921875 30.0625 22.972656 29.402344 23.3125 29.28125 C 23.800781 29.109375 25.023438 29.550781 25.511719 29.84375 C 25.851562 30.011719 26.046875 30.5 26.242188 30.550781 C 26.339844 30.550781 26.414062 30.402344 26.511719 30.429688 C 26.707031 30.429688 27.144531 30.890625 27.21875 30.84375 C 27.242188 30.84375 27.195312 30.722656 27.242188 30.722656 C 27.292969 30.695312 27.535156 31.039062 27.707031 31.136719 C 27.828125 31.234375 27.902344 31.257812 28.050781 31.355469 C 28.34375 31.574219 28.832031 32.039062 29.171875 32.429688 C 29.515625 32.820312 29.808594 33.234375 30.074219 33.675781 C 30.34375 34.113281 30.539062 34.554688 30.757812 35.042969 C 31.003906 35.554688 31.34375 36.140625 31.46875 36.703125 C 31.613281 37.238281 31.589844 37.851562 31.589844 38.3125 C 31.613281 38.65625 31.539062 38.949219 31.613281 39.21875 C 31.6875 39.511719 31.929688 39.679688 32.054688 40 C 32.222656 40.4375 32.394531 41.046875 32.445312 41.585938 C 32.515625 42.121094 32.566406 42.707031 32.445312 43.222656 C 32.320312 43.734375 32.054688 44.296875 31.710938 44.660156 C 31.417969 45.003906 30.660156 45.222656 30.589844 45.371094 C 30.5625 45.394531 30.589844 45.417969 30.589844 45.441406 C 30.589844 45.492188 30.613281 45.589844 30.613281 45.636719 C 30.613281 45.664062 30.589844 45.6875 30.589844 45.734375 C 30.589844 45.761719 30.589844 45.785156 30.589844 45.832031 C 30.589844 45.882812 30.539062 45.957031 30.539062 46.003906 C 30.515625 46.078125 30.515625 46.152344 30.492188 46.199219 C 30.492188 46.222656 30.464844 46.222656 30.464844 46.222656 C 30.441406 46.273438 30.441406 46.320312 30.417969 46.371094 C 30.367188 46.492188 30.199219 46.710938 30.074219 46.835938 C 29.976562 46.933594 29.878906 46.957031 29.734375 47.078125 C 29.417969 47.347656 28.929688 48.128906 28.464844 48.519531 C 28.074219 48.859375 27.660156 49.152344 27.195312 49.277344 C 26.730469 49.421875 26.144531 49.472656 25.679688 49.300781 C 25.21875 49.128906 24.777344 48.691406 24.460938 48.273438 C 24.167969 47.910156 23.949219 47.003906 23.800781 46.980469 C 23.777344 46.957031 23.726562 47.03125 23.726562 47.03125 C 23.726562 47.03125 23.726562 47.03125 23.703125 47.03125 C 23.703125 47.03125 23.582031 47.078125 23.507812 47.101562 C 23.460938 47.128906 23.335938 47.152344 23.3125 47.152344 C 23.3125 47.152344 23.191406 47.175781 23.117188 47.175781 C 23.042969 47.175781 22.921875 47.199219 22.921875 47.199219 C 22.921875 47.199219 22.777344 47.175781 22.703125 47.152344 C 22.652344 47.152344 22.507812 47.128906 22.507812 47.128906 C 22.507812 47.128906 22.386719 47.078125 22.3125 47.054688 C 22.261719 47.003906 22.140625 46.957031 22.140625 46.957031 C 22.117188 46.957031 22.019531 46.882812 21.96875 46.835938 C 21.921875 46.808594 21.800781 46.710938 21.800781 46.710938 C 21.800781 46.710938 21.726562 46.613281 21.675781 46.566406 C 21.628906 46.492188 21.53125 46.394531 21.53125 46.394531 C 21.53125 46.394531 21.480469 46.273438 21.457031 46.199219 C 21.433594 46.152344 21.359375 46.027344 21.359375 46.027344 C 21.359375 46.027344 21.335938 45.882812 21.335938 45.832031 C 21.3125 45.761719 21.285156 45.636719 21.285156 45.613281 C 21.285156 45.613281 21.1875 45.417969 21.140625 45.441406 C 21.042969 45.441406 21.066406 46.175781 20.847656 46.445312 C 20.578125 46.785156 20.015625 46.957031 19.527344 47.175781 C 18.992188 47.421875 18.308594 47.882812 17.722656 47.835938 C 17.183594 47.8125 16.332031 47.054688 16.183594 47.078125 C 16.160156 47.078125 16.160156 47.128906 16.160156 47.128906 C 16.136719 47.128906 16.039062 47.175781 15.964844 47.226562 C 15.914062 47.25 15.792969 47.324219 15.792969 47.324219 C 15.792969 47.324219 15.671875 47.371094 15.597656 47.371094 C 15.523438 47.394531 15.402344 47.445312 15.402344 47.445312 C 15.402344 47.445312 15.257812 47.445312 15.207031 47.445312 C 15.132812 47.445312 14.988281 47.445312 14.988281 47.445312 C 14.988281 47.445312 14.867188 47.421875 14.792969 47.421875 C 14.71875 47.394531 14.597656 47.371094 14.597656 47.371094 C 14.597656 47.371094 14.476562 47.324219 14.402344 47.296875 C 14.351562 47.25 14.230469 47.199219 14.230469 47.199219 C 14.230469 47.199219 14.109375 47.128906 14.058594 47.078125 C 14.011719 47.03125 13.914062 46.957031 13.914062 46.957031 C 13.914062 46.933594 13.816406 46.835938 13.792969 46.785156 C 13.742188 46.738281 13.667969 46.613281 13.667969 46.613281 C 13.667969 46.613281 13.5 46.296875 13.402344 46.027344 C 13.253906 45.589844 13.082031 44.734375 12.9375 44.171875 C 12.839844 43.683594 12.765625 43 12.667969 42.78125 C 12.621094 42.707031 12.523438 42.660156 12.523438 42.660156 C 12.523438 42.636719 12.449219 42.539062 12.425781 42.464844 C 12.375 42.414062 12.300781 42.292969 12.300781 42.292969 C 12.300781 42.292969 12.277344 42.171875 12.253906 42.097656 C 12.230469 42.023438 12.179688 41.902344 12.179688 41.902344 C 12.179688 41.902344 12.179688 41.757812 12.179688 41.707031 C 12.179688 41.632812 12.15625 41.488281 12.15625 41.488281 C 12.15625 41.488281 11.984375 40.316406 11.910156 39.925781 C 11.886719 39.707031 11.839844 39.386719 11.839844 39.386719 M 16.039062 40.460938 C 16.0625 40.460938 16.0625 40.460938 16.0625 40.460938 C 16.0625 40.460938 16.085938 40.609375 16.109375 40.65625 C 16.109375 40.730469 16.160156 40.851562 16.160156 40.851562 C 16.160156 40.851562 16.429688 41.144531 16.648438 41.171875 C 16.964844 41.21875 17.820312 40.976562 17.917969 40.878906 C 17.917969 40.828125 17.894531 40.78125 17.894531 40.78125 C 17.894531 40.78125 17.917969 40.65625 17.941406 40.585938 C 17.964844 40.511719 17.992188 40.390625 17.992188 40.390625 C 17.992188 40.363281 18.039062 40.242188 18.0625 40.195312 C 18.089844 40.121094 18.160156 40 18.160156 40 C 18.160156 40 18.210938 39.972656 18.210938 39.925781 C 18.257812 39.753906 18.089844 38.925781 17.964844 38.558594 C 17.867188 38.3125 17.746094 38.019531 17.625 37.949219 C 17.550781 37.898438 17.476562 37.921875 17.40625 37.898438 C 17.378906 37.898438 17.355469 37.875 17.332031 37.898438 C 17.332031 37.898438 17.355469 37.921875 17.332031 37.972656 C 17.308594 38.167969 16.792969 39.21875 16.550781 39.679688 C 16.378906 40 16.039062 40.460938 16.039062 40.460938 M 20.824219 36.703125 C 21.410156 37.921875 21.410156 38.65625 21.578125 39.21875 C 21.773438 39.804688 22.140625 40.488281 22.359375 40.949219 C 22.507812 41.242188 22.605469 41.464844 22.726562 41.660156 C 22.847656 41.804688 22.921875 41.878906 23.070312 42.050781 C 23.3125 42.367188 23.824219 43.050781 24.019531 43.417969 C 24.144531 43.636719 24.191406 44.003906 24.242188 44.003906 C 24.339844 43.976562 24.242188 43.246094 24.460938 42.976562 C 24.753906 42.609375 25.679688 42.367188 26.21875 42.316406 C 26.683594 42.269531 27.464844 42.609375 27.511719 42.585938 C 27.511719 42.5625 27.511719 42.5625 27.511719 42.5625 C 27.488281 42.539062 27.488281 42.367188 27.488281 42.367188 C 27.488281 42.34375 27.367188 41.171875 27.292969 40.632812 C 27.242188 40.121094 27 39.289062 27.097656 39.167969 C 27.121094 39.121094 27.242188 39.167969 27.242188 39.167969 C 27.242188 39.144531 27.121094 39.09375 27.121094 39.09375 C 27.121094 39.09375 27.023438 38.996094 26.976562 38.949219 C 26.925781 38.898438 26.828125 38.828125 26.828125 38.828125 C 26.804688 38.828125 26.730469 38.703125 26.707031 38.65625 C 26.65625 38.582031 26.585938 38.484375 26.585938 38.484375 C 26.585938 38.460938 26.535156 38.339844 26.511719 38.289062 C 26.488281 38.214844 26.4375 38.09375 26.4375 38.09375 C 26.4375 38.070312 26.4375 37.949219 26.414062 37.875 C 26.414062 37.800781 26.390625 37.679688 26.390625 37.679688 C 26.390625 37.679688 26.414062 37.53125 26.4375 37.460938 C 26.4375 37.386719 26.460938 37.265625 26.460938 37.265625 C 26.460938 37.265625 26.511719 37.140625 26.535156 37.070312 C 26.558594 36.996094 26.609375 36.875 26.609375 36.875 C 26.609375 36.875 26.683594 36.75 26.730469 36.703125 C 26.753906 36.679688 26.78125 36.652344 26.78125 36.628906 C 26.78125 36.582031 26.730469 36.554688 26.683594 36.507812 C 26.535156 36.3125 26.023438 35.726562 25.679688 35.3125 C 25.316406 34.847656 24.679688 34.089844 24.535156 33.917969 C 24.507812 33.871094 24.484375 33.847656 24.484375 33.820312 C 24.460938 33.820312 24.4375 33.847656 24.410156 33.871094 C 24.3125 33.917969 24.019531 34.015625 23.851562 34.164062 C 23.65625 34.285156 23.582031 34.480469 23.386719 34.699219 C 22.996094 35.066406 22.164062 35.847656 21.675781 36.214844 C 21.359375 36.433594 20.824219 36.703125 20.824219 36.703125 "/></clipPath><clipPath id="b842cb0928"><path d="M 29.3125 32.132812 L 47.144531 32.132812 L 47.144531 54.652344 L 29.3125 54.652344 Z M 29.3125 32.132812 "/></clipPath><clipPath id="48b50dc8ff"><path d="M 29.367188 35.117188 C 29.390625 34.847656 29.390625 34.699219 29.390625 34.699219 C 29.390625 34.699219 29.441406 34.578125 29.464844 34.503906 C 29.488281 34.433594 29.539062 34.308594 29.539062 34.308594 C 29.539062 34.308594 29.613281 34.1875 29.660156 34.113281 C 29.683594 34.066406 29.757812 33.945312 29.757812 33.945312 C 29.78125 33.945312 29.878906 33.847656 29.929688 33.796875 C 29.976562 33.75 30.074219 33.652344 30.074219 33.652344 C 30.074219 33.652344 30.199219 33.578125 30.269531 33.554688 C 30.320312 33.527344 30.441406 33.457031 30.441406 33.457031 C 30.441406 33.457031 30.589844 33.40625 30.660156 33.382812 C 30.710938 33.382812 30.855469 33.332031 30.855469 33.332031 C 30.882812 33.332031 31.492188 33.285156 31.882812 33.261719 C 32.445312 33.210938 33.273438 33.089844 33.8125 33.039062 C 34.203125 33.039062 34.46875 33.066406 34.8125 33.066406 C 35.152344 33.039062 35.519531 32.992188 35.863281 32.941406 C 36.226562 32.917969 36.8125 32.96875 36.960938 32.894531 C 37.035156 32.84375 37.035156 32.820312 37.058594 32.773438 C 37.105469 32.722656 37.203125 32.625 37.203125 32.625 C 37.203125 32.625 37.328125 32.527344 37.375 32.503906 C 37.425781 32.453125 37.546875 32.382812 37.546875 32.382812 C 37.546875 32.382812 37.667969 32.332031 37.742188 32.308594 C 37.789062 32.285156 37.9375 32.234375 37.9375 32.234375 C 37.9375 32.234375 38.058594 32.210938 38.132812 32.210938 C 38.207031 32.1875 38.328125 32.1875 38.351562 32.1875 C 38.351562 32.1875 38.472656 32.1875 38.546875 32.1875 C 38.621094 32.210938 38.742188 32.210938 38.742188 32.210938 C 38.765625 32.210938 38.890625 32.257812 38.9375 32.285156 C 39.011719 32.308594 39.132812 32.355469 39.132812 32.355469 C 39.132812 32.355469 39.253906 32.429688 39.304688 32.480469 C 39.378906 32.527344 39.476562 32.601562 39.476562 32.601562 C 39.5 32.601562 39.574219 32.699219 39.621094 32.746094 C 39.671875 32.796875 39.71875 32.871094 39.742188 32.894531 C 39.769531 32.894531 39.769531 32.917969 39.816406 32.917969 C 39.988281 32.917969 40.769531 32.429688 41.234375 32.453125 C 41.746094 32.480469 42.332031 32.796875 42.746094 33.113281 C 43.160156 33.40625 43.429688 33.820312 43.773438 34.261719 C 44.164062 34.773438 44.578125 35.507812 44.96875 36.042969 C 45.335938 36.53125 46.089844 37.335938 46.089844 37.363281 C 46.089844 37.363281 46.1875 37.460938 46.238281 37.507812 C 46.285156 37.53125 46.382812 37.628906 46.382812 37.628906 C 46.382812 37.65625 46.457031 37.753906 46.507812 37.824219 C 46.53125 37.875 46.605469 37.996094 46.605469 37.996094 C 46.605469 37.996094 46.652344 38.117188 46.675781 38.191406 C 46.703125 38.242188 46.726562 38.386719 46.726562 38.386719 C 46.726562 38.386719 46.75 38.507812 46.75 38.582031 C 46.75 38.65625 46.773438 38.800781 46.773438 38.800781 C 46.773438 38.800781 46.75 38.925781 46.726562 38.996094 C 46.726562 39.070312 46.703125 39.191406 46.703125 39.191406 C 46.703125 39.191406 46.652344 39.316406 46.605469 39.386719 C 46.578125 39.460938 46.53125 39.582031 46.53125 39.582031 C 46.53125 39.582031 46.457031 39.679688 46.410156 39.753906 C 46.359375 39.804688 46.285156 39.902344 46.285156 39.902344 C 46.285156 39.902344 46.164062 40 46.117188 40.023438 C 46.066406 40.070312 45.96875 40.167969 45.96875 40.167969 C 45.945312 40.167969 45.824219 40.21875 45.773438 40.242188 C 45.699219 40.292969 45.578125 40.339844 45.578125 40.339844 C 45.578125 40.339844 45.457031 40.363281 45.382812 40.390625 C 45.308594 40.390625 45.1875 40.414062 45.1875 40.414062 C 45.1875 40.414062 45.042969 40.414062 44.96875 40.414062 C 44.894531 40.414062 44.773438 40.390625 44.773438 40.390625 C 44.773438 40.390625 44.652344 40.316406 44.625 40.363281 C 44.527344 40.4375 44.894531 41.5625 44.96875 41.953125 C 44.992188 42.121094 44.917969 42.21875 44.992188 42.390625 C 45.113281 42.683594 45.628906 43.097656 45.894531 43.515625 C 46.1875 43.929688 46.507812 44.394531 46.703125 44.90625 C 46.898438 45.394531 47.140625 46.027344 47.066406 46.515625 C 46.996094 46.980469 46.628906 47.46875 46.285156 47.785156 C 45.894531 48.105469 45.066406 48.371094 44.871094 48.46875 C 44.820312 48.46875 44.796875 48.46875 44.773438 48.496094 C 44.722656 48.519531 44.722656 48.59375 44.699219 48.617188 C 44.675781 48.664062 44.601562 48.738281 44.578125 48.761719 C 44.578125 48.761719 44.578125 48.789062 44.578125 48.789062 C 44.554688 48.8125 44.527344 48.859375 44.527344 48.933594 C 44.527344 49.152344 45.015625 49.8125 45.066406 50.300781 C 45.140625 50.8125 44.992188 51.425781 44.847656 51.960938 C 44.675781 52.5 44.480469 53.183594 44.066406 53.546875 C 43.625 53.964844 42.820312 54.109375 42.210938 54.257812 C 41.625 54.402344 41.0625 54.402344 40.5 54.453125 C 39.964844 54.523438 39.449219 54.597656 38.914062 54.621094 C 38.402344 54.648438 37.863281 54.648438 37.351562 54.621094 C 36.8125 54.597656 36.277344 54.550781 35.765625 54.523438 C 35.25 54.523438 34.300781 54.523438 34.273438 54.523438 C 34.273438 54.523438 34.128906 54.5 34.054688 54.5 C 34.007812 54.5 33.859375 54.476562 33.859375 54.476562 C 33.859375 54.476562 33.714844 54.453125 33.640625 54.425781 C 33.589844 54.402344 33.445312 54.355469 33.445312 54.355469 C 33.445312 54.355469 33.324219 54.28125 33.273438 54.230469 C 33.199219 54.183594 33.078125 54.109375 33.078125 54.109375 C 33.078125 54.109375 32.980469 54.011719 32.933594 53.964844 C 32.882812 53.914062 32.785156 53.792969 32.785156 53.792969 C 32.785156 53.792969 32.710938 53.671875 32.6875 53.621094 C 32.640625 53.546875 32.566406 53.425781 32.566406 53.425781 C 32.566406 53.425781 32.542969 53.28125 32.515625 53.230469 C 32.492188 53.15625 32.46875 53.011719 32.46875 53.011719 C 32.46875 53.011719 32.445312 52.863281 32.445312 52.792969 C 32.445312 52.71875 32.445312 52.597656 32.445312 52.597656 C 32.445312 52.570312 32.46875 52.449219 32.492188 52.375 C 32.515625 52.304688 32.542969 52.15625 32.542969 52.15625 C 32.542969 52.15625 32.589844 52.035156 32.640625 51.960938 C 32.664062 51.914062 32.710938 51.789062 32.710938 51.765625 C 32.738281 51.765625 32.835938 51.667969 32.859375 51.621094 C 32.882812 51.570312 32.933594 51.570312 32.933594 51.523438 C 32.980469 51.328125 32.566406 50.519531 32.492188 50.007812 C 32.417969 49.496094 32.394531 48.957031 32.515625 48.46875 C 32.664062 47.957031 32.933594 47.421875 33.296875 46.980469 C 33.714844 46.492188 34.46875 45.90625 34.984375 45.6875 C 35.300781 45.566406 35.691406 45.6875 35.835938 45.589844 C 35.910156 45.539062 35.910156 45.46875 35.960938 45.417969 C 35.984375 45.34375 36.058594 45.222656 36.058594 45.222656 C 36.058594 45.222656 36.15625 45.125 36.203125 45.078125 C 36.253906 45.027344 36.351562 44.929688 36.351562 44.929688 C 36.375 44.929688 36.472656 44.855469 36.546875 44.808594 C 36.59375 44.785156 36.714844 44.710938 36.714844 44.710938 C 36.714844 44.710938 36.863281 44.660156 36.9375 44.636719 C 36.984375 44.636719 37.132812 44.589844 37.132812 44.589844 C 37.132812 44.589844 37.203125 44.589844 37.203125 44.589844 C 37.230469 44.589844 37.230469 44.5625 37.230469 44.5625 C 37.230469 44.5625 37.230469 44.589844 37.230469 44.589844 C 37.230469 44.589844 37.300781 44.5625 37.351562 44.5625 C 37.398438 44.5625 37.546875 44.5625 37.546875 44.5625 C 37.546875 44.5625 37.691406 44.589844 37.765625 44.589844 C 37.839844 44.613281 37.960938 44.636719 37.960938 44.636719 C 37.960938 44.636719 38.109375 44.6875 38.15625 44.734375 C 38.230469 44.757812 38.351562 44.808594 38.351562 44.808594 C 38.351562 44.808594 38.472656 44.90625 38.523438 44.953125 C 38.570312 44.980469 38.695312 45.078125 38.695312 45.078125 C 38.695312 45.078125 38.765625 45.175781 38.816406 45.246094 C 38.863281 45.296875 38.9375 45.417969 38.9375 45.417969 C 38.960938 45.417969 38.960938 45.46875 38.988281 45.492188 C 39.058594 45.539062 39.402344 45.566406 39.5 45.441406 C 39.621094 45.320312 39.425781 44.953125 39.476562 44.636719 C 39.574219 44.148438 39.867188 43.34375 40.183594 42.878906 C 40.453125 42.464844 41.0625 42.148438 41.136719 41.925781 C 41.160156 41.828125 41.109375 41.804688 41.109375 41.683594 C 41.085938 41.390625 41.109375 40.339844 41.0625 39.972656 C 41.039062 39.804688 41.011719 39.753906 40.941406 39.582031 C 40.792969 39.265625 40.523438 38.4375 40.207031 38.265625 C 39.9375 38.144531 39.574219 38.386719 39.207031 38.4375 C 38.742188 38.460938 38.109375 38.507812 37.59375 38.4375 C 37.082031 38.386719 36.59375 38.214844 36.082031 38.070312 C 35.542969 37.921875 34.984375 37.679688 34.445312 37.53125 C 33.957031 37.410156 33.421875 37.335938 32.980469 37.214844 C 32.589844 37.09375 32.273438 36.824219 31.980469 36.777344 C 31.761719 36.75 31.394531 36.824219 31.394531 36.824219 C 31.371094 36.824219 31.246094 36.824219 31.175781 36.824219 C 31.101562 36.824219 30.953125 36.824219 30.953125 36.824219 C 30.953125 36.824219 30.808594 36.800781 30.757812 36.777344 C 30.6875 36.777344 30.539062 36.726562 30.539062 36.726562 C 30.539062 36.726562 30.417969 36.679688 30.34375 36.652344 C 30.296875 36.605469 30.171875 36.554688 30.171875 36.554688 C 30.148438 36.554688 30.050781 36.457031 30.003906 36.410156 C 29.953125 36.359375 29.832031 36.289062 29.832031 36.289062 C 29.832031 36.289062 29.757812 36.164062 29.710938 36.117188 C 29.660156 36.042969 29.585938 35.945312 29.585938 35.945312 C 29.585938 35.945312 29.539062 35.800781 29.515625 35.75 C 29.488281 35.675781 29.417969 35.554688 29.417969 35.554688 C 29.417969 35.554688 29.390625 35.410156 29.390625 35.335938 C 29.390625 35.261719 29.367188 35.140625 29.367188 35.117188 "/></clipPath><clipPath id="cb359af989"><path d="M 37.765625 44.636719 L 42.164062 44.636719 L 42.164062 47.789062 L 37.765625 47.789062 Z M 37.765625 44.636719 "/></clipPath><clipPath id="3ec5c214b8"><path d="M 39.132812 44.757812 C 41.476562 44.855469 41.890625 45.296875 42.0625 45.636719 C 42.183594 45.929688 42.160156 46.296875 42.0625 46.589844 C 41.964844 46.882812 41.769531 47.199219 41.5 47.347656 C 41.160156 47.542969 40.5 47.664062 40.109375 47.519531 C 39.742188 47.371094 39.304688 46.859375 39.207031 46.46875 C 39.109375 46.078125 39.28125 45.417969 39.546875 45.125 C 39.839844 44.832031 40.476562 44.589844 40.867188 44.660156 C 41.28125 44.734375 41.820312 45.125 41.988281 45.492188 C 42.160156 45.859375 42.136719 46.542969 41.941406 46.882812 C 41.722656 47.25 41.207031 47.46875 40.746094 47.617188 C 40.230469 47.785156 39.476562 47.835938 38.988281 47.6875 C 38.546875 47.542969 38.058594 47.199219 37.886719 46.835938 C 37.71875 46.46875 37.765625 45.808594 37.960938 45.46875 C 38.179688 45.125 39.132812 44.757812 39.132812 44.757812 "/></clipPath><clipPath id="b9de87c349"><path d="M 22.796875 27.023438 L 37.183594 27.023438 L 37.183594 36.585938 L 22.796875 36.585938 Z M 22.796875 27.023438 "/></clipPath><clipPath id="f20143785e"><path d="M 29.683594 27.058594 C 36.105469 27.179688 36.691406 27.546875 36.984375 28.058594 C 37.277344 28.574219 37.15625 29.207031 37.105469 30.039062 C 37.007812 31.378906 36.449219 34.457031 36.082031 35.382812 C 35.960938 35.726562 35.886719 35.871094 35.691406 36.066406 C 35.445312 36.289062 34.957031 36.507812 34.617188 36.554688 C 34.347656 36.582031 34.078125 36.507812 33.859375 36.410156 C 33.617188 36.3125 33.371094 36.164062 33.226562 35.921875 C 33.03125 35.652344 33.078125 35.1875 32.859375 34.824219 C 32.589844 34.359375 32.101562 33.796875 31.613281 33.480469 C 31.175781 33.164062 30.539062 33.1875 30.050781 32.917969 C 29.539062 32.601562 28.804688 32.160156 28.683594 31.648438 C 28.539062 31.085938 28.902344 30.039062 29.320312 29.621094 C 29.710938 29.230469 30.320312 29.085938 30.953125 29.035156 C 31.859375 28.964844 33.347656 29.328125 34.226562 29.621094 C 34.910156 29.84375 35.542969 29.988281 35.910156 30.429688 C 36.300781 30.917969 36.546875 31.964844 36.398438 32.527344 C 36.277344 33.039062 35.835938 33.457031 35.300781 33.722656 C 34.496094 34.089844 32.933594 33.773438 31.761719 33.917969 C 30.613281 34.042969 28.976562 34.945312 28.316406 34.554688 C 27.804688 34.238281 27.414062 32.96875 27.683594 32.503906 C 28 31.964844 30.050781 31.867188 30.855469 31.917969 C 31.34375 31.941406 31.734375 32.0625 32.003906 32.257812 C 32.25 32.429688 32.417969 32.625 32.515625 32.894531 C 32.640625 33.234375 32.6875 33.773438 32.613281 34.113281 C 32.542969 34.382812 32.394531 34.628906 32.199219 34.796875 C 31.929688 35.042969 31.613281 35.285156 31.101562 35.3125 C 29.953125 35.359375 26.902344 34.164062 25.484375 33.332031 C 24.460938 32.722656 23.484375 31.894531 23.09375 31.210938 C 22.847656 30.769531 22.800781 30.332031 22.875 29.941406 C 22.921875 29.550781 23.191406 29.132812 23.484375 28.914062 C 23.777344 28.695312 24.265625 28.546875 24.632812 28.574219 C 25.023438 28.597656 25.316406 28.71875 25.730469 29.0625 C 26.65625 29.816406 28.929688 32.746094 29.269531 33.96875 C 29.441406 34.601562 29.367188 35.140625 29.125 35.53125 C 28.855469 35.921875 28.195312 36.289062 27.730469 36.289062 C 27.269531 36.289062 26.609375 35.898438 26.339844 35.578125 C 26.097656 35.285156 26.023438 34.871094 26.023438 34.53125 C 26.046875 34.210938 26.167969 33.796875 26.414062 33.527344 C 26.730469 33.234375 27.414062 32.894531 27.878906 32.941406 C 28.34375 32.992188 28.953125 33.40625 29.195312 33.796875 C 29.417969 34.210938 29.417969 34.96875 29.195312 35.382812 C 29 35.800781 28.34375 36.191406 27.902344 36.289062 C 27.5625 36.359375 27.195312 36.261719 26.851562 36.066406 C 26.390625 35.773438 25.972656 35.117188 25.484375 34.480469 C 24.753906 33.578125 23.433594 31.867188 23.070312 31.113281 C 22.898438 30.769531 22.847656 30.597656 22.824219 30.332031 C 22.824219 30.085938 22.847656 29.792969 22.996094 29.550781 C 23.140625 29.230469 23.507812 28.867188 23.851562 28.695312 C 24.191406 28.546875 24.605469 28.5 25.046875 28.644531 C 25.777344 28.890625 26.609375 30.183594 27.660156 30.769531 C 28.878906 31.453125 31.246094 31.648438 32.003906 32.257812 C 32.394531 32.578125 32.566406 32.917969 32.640625 33.285156 C 32.710938 33.675781 32.640625 34.164062 32.445312 34.480469 C 32.25 34.796875 31.859375 35.066406 31.492188 35.238281 C 31.125 35.410156 30.757812 35.410156 30.222656 35.457031 C 29.320312 35.53125 27.390625 35.800781 26.535156 35.410156 C 25.902344 35.140625 25.316406 34.53125 25.21875 33.96875 C 25.09375 33.40625 25.511719 32.453125 25.925781 32.015625 C 26.265625 31.625 26.753906 31.550781 27.316406 31.355469 C 28.171875 31.039062 29.683594 30.671875 30.589844 30.574219 C 31.273438 30.476562 31.808594 30.378906 32.320312 30.527344 C 32.835938 30.695312 33.421875 31.015625 33.714844 31.453125 C 34.03125 31.917969 34.398438 33.066406 34.152344 33.285156 C 33.8125 33.578125 31.539062 32.722656 31.027344 32.015625 C 30.613281 31.40625 30.539062 29.84375 30.90625 29.574219 C 31.34375 29.28125 33.128906 30.402344 33.882812 30.84375 C 34.421875 31.160156 34.8125 31.355469 35.179688 31.84375 C 35.667969 32.550781 36.15625 34.308594 36.15625 34.992188 C 36.15625 35.335938 36.058594 35.53125 35.933594 35.75 C 35.8125 35.96875 35.617188 36.191406 35.375 36.3125 C 35.082031 36.457031 34.566406 36.554688 34.226562 36.53125 C 33.957031 36.507812 33.714844 36.359375 33.519531 36.214844 C 33.296875 36.042969 33.128906 35.824219 33.003906 35.605469 C 32.90625 35.359375 32.859375 35.1875 32.859375 34.824219 C 32.882812 33.820312 33.371094 29.574219 34.03125 29.28125 C 34.398438 29.132812 35.421875 29.988281 35.347656 30.160156 C 35.226562 30.527344 30.027344 30.378906 29 29.890625 C 28.585938 29.695312 28.414062 29.402344 28.292969 29.109375 C 28.171875 28.792969 28.195312 28.328125 28.292969 28.035156 C 28.367188 27.792969 28.511719 27.597656 28.707031 27.449219 C 28.929688 27.253906 29.683594 27.058594 29.683594 27.058594 "/></clipPath><clipPath id="4061431f63"><path d="M 7 28.441406 L 48 28.441406 L 48 54.046875 L 7 54.046875 Z M 7 28.441406 "/></clipPath></defs><g id="bc769ebd44"><g clip-rule="nonzero" clip-path="url(#a3ed5f7026)"><path style=" stroke:none;fill-rule:nonzero;fill:#ffbf39;fill-opacity:1;" d="M 67.257812 60.71875 C 67.429688 60.304688 67.476562 59.90625 67.511719 59.585938 C 67.527344 59.453125 67.535156 59.316406 67.574219 59.1875 C 67.667969 58.855469 68.082031 58.496094 68.523438 58.117188 C 69.195312 57.535156 70.035156 56.8125 70.292969 55.65625 C 70.613281 54.222656 69.839844 52.953125 69.425781 52.269531 C 68.65625 51.011719 67.75 49.769531 66.3125 49.214844 C 65.296875 48.820312 64.085938 48.933594 63.140625 49.507812 C 62.972656 49.609375 62.820312 49.722656 62.679688 49.847656 C 62.632812 49.6875 62.589844 49.503906 62.558594 49.296875 C 62.230469 47.140625 61.757812 44.988281 61.15625 42.902344 C 60.648438 41.136719 59.988281 39.3125 58.632812 37.917969 C 58.109375 37.375 57.535156 36.957031 56.976562 36.550781 C 56.632812 36.300781 56.289062 36.046875 55.96875 35.769531 C 54.199219 34.222656 53.402344 31.867188 53.042969 30.167969 L 52.941406 29.65625 C 52.78125 28.828125 52.601562 27.890625 52.15625 27.015625 C 51.230469 25.207031 49.515625 24.234375 48.304688 23.664062 C 47.921875 23.484375 47.6875 23.132812 47.695312 22.761719 C 47.699219 22.628906 47.695312 22.492188 47.6875 22.351562 C 47.671875 22.167969 47.660156 21.546875 48.027344 21.285156 C 49.582031 20.171875 50.492188 18.28125 51.171875 16.582031 L 52.378906 13.582031 C 52.515625 13.234375 52.753906 12.648438 52.652344 11.976562 C 52.542969 11.246094 52.039062 10.265625 50.273438 9.757812 C 48.265625 9.183594 46.183594 8.941406 44.085938 9.042969 C 43.484375 9.074219 43.273438 8.648438 43.21875 8.519531 C 43.136719 8.332031 43.058594 7.96875 43.476562 7.570312 C 43.683594 7.375 43.953125 7.191406 44.242188 6.996094 C 44.578125 6.769531 44.960938 6.511719 45.3125 6.179688 C 46.292969 5.265625 46.867188 3.976562 46.886719 2.636719 C 46.894531 2.28125 46.742188 1.921875 46.488281 1.679688 C 45.980469 1.1875 45.574219 1.1875 42.503906 1.332031 C 41.804688 1.367188 40.875 1.414062 40.730469 1.410156 C 40.394531 1.335938 40.015625 1.175781 39.617188 1.007812 C 38.621094 0.582031 37.25 -0.00390625 35.71875 0.667969 C 34.394531 1.246094 33.558594 2.515625 33.242188 4.445312 C 33.164062 4.898438 33.210938 5.453125 33.300781 6.144531 C 33.371094 6.691406 33.066406 7.253906 32.480469 7.648438 C 32.039062 7.949219 31.679688 8.359375 31.4375 8.835938 C 31.007812 9.683594 30.960938 10.558594 30.914062 11.328125 L 30.882812 11.808594 C 30.84375 12.308594 30.703125 12.460938 30.324219 12.863281 C 29.910156 13.304688 29.34375 13.910156 29 15.03125 C 28.777344 15.753906 28.449219 16.671875 27.859375 17.324219 C 27.394531 17.832031 26.96875 18.519531 26.585938 19.355469 C 26.222656 20.152344 26.242188 21.058594 26.648438 21.84375 C 27.046875 22.617188 27.769531 23.15625 28.617188 23.320312 C 29.261719 23.445312 29.910156 23.402344 30.59375 23.1875 L 30.167969 25.132812 C 30.050781 25.875 30.507812 26.378906 30.730469 26.621094 C 30.792969 26.6875 30.890625 26.796875 30.902344 26.828125 C 30.902344 26.828125 30.914062 27.105469 30.398438 27.773438 C 29.699219 28.679688 29.914062 29.398438 30.101562 29.75 C 30.691406 30.835938 32.035156 30.730469 33.59375 30.605469 C 33.621094 30.601562 33.644531 30.601562 33.671875 30.597656 C 33.167969 31.835938 32.800781 33.34375 33.773438 34.917969 C 34.484375 36.066406 35.765625 36.84375 37.289062 37.046875 C 38.539062 37.214844 39.84375 37.074219 40.964844 36.621094 C 40.828125 38.355469 41.027344 39.753906 41.570312 40.898438 C 41.796875 41.378906 41.898438 41.902344 41.871094 42.464844 C 41.847656 43.027344 41.976562 43.578125 42.101562 44.113281 C 42.210938 44.582031 42.347656 45.160156 42.253906 45.40625 C 42.191406 45.574219 41.695312 45.769531 41.074219 45.703125 C 40.753906 45.664062 40.433594 45.589844 40.113281 45.519531 C 39.449219 45.371094 38.695312 45.203125 37.882812 45.265625 C 35.789062 45.4375 34.019531 47.207031 33.847656 49.300781 C 33.769531 50.289062 34.058594 51.164062 34.660156 51.753906 C 35.183594 52.269531 35.824219 52.457031 36.292969 52.59375 C 36.910156 52.773438 36.914062 52.78125 36.964844 53.058594 C 37.046875 53.515625 36.867188 54.027344 36.503906 54.367188 C 35.972656 54.859375 35.21875 55.167969 34.417969 55.492188 C 33.867188 55.71875 33.296875 55.953125 32.734375 56.269531 C 32.308594 56.507812 31.699219 56.90625 31.339844 57.582031 C 30.960938 58.292969 30.9375 59.113281 31.285156 59.890625 C 31.71875 60.871094 32.699219 61.679688 33.785156 61.949219 C 34.527344 62.136719 35.277344 62.136719 35.902344 62.132812 C 36.398438 62.128906 36.871094 62.132812 37.285156 62.214844 C 37.609375 62.28125 37.921875 62.394531 38.234375 62.503906 C 38.746094 62.6875 39.332031 62.890625 39.984375 62.957031 C 41.058594 63.066406 42.042969 62.777344 42.914062 62.523438 C 43.175781 62.445312 43.4375 62.367188 43.699219 62.304688 C 44.179688 62.1875 44.621094 62.15625 44.964844 62.210938 C 44.574219 62.917969 43.882812 63.550781 43.027344 63.957031 C 41.996094 64.449219 40.699219 64.6875 38.859375 64.703125 C 38.167969 64.707031 37.3125 64.710938 36.503906 65.152344 C 35.542969 65.671875 35.054688 66.574219 34.664062 67.304688 L 34.519531 67.574219 C 34.472656 67.601562 34.292969 67.640625 34.160156 67.667969 C 32.546875 68.007812 31.425781 68.835938 30.8125 71.902344 C 30.699219 72.472656 30.894531 73.039062 31.339844 73.453125 C 32.292969 74.339844 34.585938 74.46875 35.691406 74.164062 C 36.050781 74.0625 36.601562 74.257812 37.1875 74.460938 L 37.621094 74.609375 C 38.195312 74.796875 38.742188 74.890625 39.25 74.890625 C 40.210938 74.890625 41.019531 74.554688 41.578125 73.90625 C 42.128906 73.261719 42.246094 72.523438 42.347656 71.929688 C 42.394531 71.632812 42.445312 71.328125 42.53125 71.191406 C 42.761719 70.832031 43.894531 71.039062 45.011719 71.652344 C 47.585938 73.058594 49.78125 72.949219 50.882812 71.363281 C 51.132812 71 51.277344 70.613281 51.390625 70.304688 C 51.449219 70.148438 51.535156 69.910156 51.507812 69.898438 C 51.605469 69.871094 51.917969 69.894531 52.035156 69.902344 L 57.75 70.363281 C 59.15625 70.472656 60.75 70.601562 62.3125 70.269531 C 63.808594 69.953125 65.148438 69.246094 66.332031 68.621094 C 69.40625 67.003906 69.726562 65.21875 69.453125 64.003906 C 69.328125 63.46875 68.882812 63.066406 68.335938 63.011719 L 65.167969 62.671875 C 65.234375 62.636719 65.300781 62.59375 65.371094 62.554688 C 66.03125 62.171875 66.851562 61.691406 67.257812 60.71875 Z M 62.542969 64.632812 C 62.757812 64.875 63.054688 65.03125 63.375 65.0625 L 66.519531 65.398438 C 66.203125 65.707031 65.730469 66.035156 65.132812 66.347656 C 64.046875 66.921875 62.921875 67.511719 61.777344 67.757812 C 60.578125 68.011719 59.246094 67.90625 57.953125 67.800781 L 52.238281 67.34375 C 51.734375 67.300781 50.890625 67.234375 50.132812 67.734375 C 49.425781 68.203125 49.167969 68.902344 48.980469 69.417969 C 48.910156 69.605469 48.839844 69.804688 48.773438 69.898438 C 48.523438 70.257812 47.414062 70.039062 46.246094 69.398438 C 43.679688 67.992188 41.421875 68.148438 40.371094 69.808594 C 40 70.386719 39.894531 71.011719 39.8125 71.511719 C 39.765625 71.789062 39.710938 72.136719 39.625 72.234375 C 39.546875 72.320312 39.117188 72.394531 38.425781 72.167969 L 38.039062 72.035156 C 37.425781 71.820312 36.695312 71.5625 35.910156 71.5625 C 35.613281 71.5625 35.3125 71.597656 35.003906 71.683594 C 34.65625 71.785156 33.984375 71.753906 33.503906 71.664062 C 33.855469 70.355469 34.234375 70.273438 34.695312 70.179688 C 35.253906 70.0625 36.191406 69.863281 36.792969 68.773438 L 36.929688 68.515625 C 37.183594 68.046875 37.441406 67.5625 37.730469 67.40625 C 37.972656 67.273438 38.433594 67.273438 38.96875 67.269531 C 40.316406 67.257812 42.320312 67.140625 44.136719 66.273438 C 46.0625 65.355469 47.433594 63.710938 47.800781 61.878906 C 47.878906 61.480469 47.769531 61.070312 47.496094 60.769531 C 46.546875 59.707031 44.941406 59.355469 43.089844 59.808594 C 42.792969 59.882812 42.492188 59.96875 42.191406 60.054688 C 41.488281 60.261719 40.824219 60.464844 40.242188 60.402344 C 39.894531 60.367188 39.5 60.226562 39.082031 60.082031 C 38.695312 59.945312 38.257812 59.789062 37.785156 59.695312 C 37.125 59.5625 36.460938 59.566406 35.898438 59.566406 C 35.363281 59.566406 34.839844 59.566406 34.40625 59.457031 C 33.949219 59.34375 33.609375 58.917969 33.601562 58.792969 C 33.609375 58.78125 33.667969 58.691406 33.992188 58.503906 C 34.414062 58.269531 34.886719 58.078125 35.386719 57.871094 C 36.320312 57.492188 37.375 57.058594 38.25 56.246094 C 39.257812 55.308594 39.730469 53.90625 39.488281 52.589844 C 39.148438 50.75 37.757812 50.34375 37.007812 50.125 C 36.828125 50.074219 36.519531 49.984375 36.460938 49.925781 C 36.433594 49.894531 36.382812 49.742188 36.402344 49.503906 C 36.472656 48.675781 37.257812 47.894531 38.085938 47.828125 C 38.515625 47.785156 39.015625 47.90625 39.546875 48.023438 C 39.953125 48.113281 40.363281 48.203125 40.773438 48.25 C 42.277344 48.429688 44.054688 47.894531 44.652344 46.316406 C 45.023438 45.339844 44.785156 44.332031 44.597656 43.523438 C 44.511719 43.160156 44.421875 42.785156 44.433594 42.578125 C 44.476562 41.597656 44.292969 40.660156 43.886719 39.796875 C 43.527344 39.035156 43.410156 38.007812 43.535156 36.65625 C 43.609375 35.832031 43.265625 35.042969 42.617188 34.546875 C 41.957031 34.035156 41.085938 33.90625 40.285156 34.195312 C 39.421875 34.511719 38.5 34.617188 37.625 34.5 C 36.867188 34.398438 36.257812 34.058594 35.953125 33.5625 C 35.515625 32.855469 35.746094 32.1875 36.375 30.824219 C 36.472656 30.609375 36.570312 30.394531 36.664062 30.183594 C 36.882812 29.671875 36.832031 29.113281 36.523438 28.683594 C 35.917969 27.839844 34.800781 27.925781 33.386719 28.039062 C 33.328125 28.042969 33.265625 28.046875 33.199219 28.054688 C 33.796875 26.613281 33.25 25.644531 32.804688 25.089844 L 33.160156 23.449219 C 33.300781 22.578125 32.988281 21.726562 32.320312 21.171875 C 31.621094 20.59375 30.640625 20.425781 29.761719 20.742188 C 29.535156 20.820312 29.324219 20.839844 29.105469 20.792969 C 29.007812 20.777344 28.953125 20.710938 28.929688 20.660156 C 28.902344 20.613281 28.871094 20.523438 28.921875 20.417969 C 29.183594 19.839844 29.484375 19.351562 29.761719 19.046875 C 30.695312 18.015625 31.15625 16.757812 31.453125 15.777344 C 31.621094 15.226562 31.863281 14.96875 32.199219 14.613281 C 32.671875 14.105469 33.324219 13.40625 33.441406 12.019531 C 33.457031 11.835938 33.46875 11.65625 33.476562 11.472656 C 33.507812 10.902344 33.539062 10.359375 33.726562 9.996094 C 33.769531 9.90625 33.839844 9.824219 33.917969 9.773438 C 35.324219 8.824219 36.042969 7.34375 35.84375 5.808594 C 35.753906 5.125 35.761719 4.917969 35.769531 4.859375 C 35.9375 3.847656 36.265625 3.226562 36.738281 3.019531 C 37.238281 2.804688 37.75 3 38.609375 3.367188 C 39.078125 3.566406 39.609375 3.792969 40.183594 3.917969 C 40.503906 3.988281 40.933594 3.976562 42.621094 3.894531 C 42.996094 3.878906 43.480469 3.855469 43.9375 3.839844 C 43.832031 4.007812 43.703125 4.164062 43.554688 4.300781 C 43.351562 4.492188 43.082031 4.675781 42.800781 4.867188 C 42.453125 5.097656 42.066406 5.359375 41.632812 5.769531 C 40.601562 6.753906 40.296875 8.230469 40.851562 9.527344 C 41.421875 10.855469 42.714844 11.660156 44.203125 11.601562 C 46.027344 11.519531 47.824219 11.726562 49.558594 12.222656 C 49.820312 12.296875 49.976562 12.371094 50.066406 12.417969 C 50.042969 12.492188 50.007812 12.570312 49.988281 12.617188 L 48.785156 15.617188 C 48.273438 16.894531 47.550781 18.457031 46.527344 19.191406 C 45.53125 19.902344 45.019531 21.117188 45.121094 22.519531 C 45.125 22.574219 45.125 22.632812 45.125 22.683594 C 45.082031 24.070312 45.898438 25.367188 47.203125 25.980469 C 48.585938 26.636719 49.429688 27.332031 49.859375 28.179688 C 50.144531 28.730469 50.273438 29.414062 50.417969 30.140625 L 50.527344 30.6875 C 51.152344 33.679688 52.449219 36.105469 54.273438 37.699219 C 54.652344 38.027344 55.054688 38.324219 55.457031 38.617188 C 55.949219 38.976562 56.414062 39.316406 56.785156 39.703125 C 57.695312 40.640625 58.203125 41.941406 58.683594 43.609375 C 59.257812 45.59375 59.703125 47.636719 60.015625 49.683594 C 60.132812 50.457031 60.480469 51.867188 61.5 52.605469 C 62.015625 52.976562 62.617188 53.117188 63.238281 53.011719 C 63.804688 52.914062 64.238281 52.457031 64.300781 51.886719 C 64.308594 51.804688 64.421875 51.730469 64.472656 51.699219 C 64.722656 51.546875 65.117188 51.507812 65.382812 51.609375 C 66.140625 51.902344 66.734375 52.792969 67.226562 53.601562 C 67.4375 53.949219 67.878906 54.671875 67.785156 55.09375 C 67.710938 55.421875 67.289062 55.785156 66.84375 56.167969 C 66.203125 56.722656 65.402344 57.410156 65.101562 58.476562 C 65.023438 58.746094 64.988281 59.023438 64.957031 59.300781 C 64.9375 59.464844 64.917969 59.652344 64.882812 59.730469 C 64.8125 59.90625 64.421875 60.132812 64.074219 60.332031 C 63.878906 60.449219 63.683594 60.5625 63.503906 60.683594 C 62.882812 61.09375 62.167969 61.894531 62.03125 62.894531 C 61.945312 63.539062 62.128906 64.15625 62.542969 64.632812 Z M 31.507812 40.996094 C 31.414062 40.324219 31.28125 39.742188 31.101562 39.21875 C 31.046875 39.054688 30.921875 38.871094 30.808594 38.738281 C 30.710938 38.632812 30.5625 38.464844 30.488281 38.355469 C 30.511719 38.28125 30.523438 38.210938 30.53125 38.132812 C 30.761719 35.976562 29.40625 32.804688 27.574219 31.203125 C 26.355469 30.136719 24.996094 29.75 23.527344 30.113281 C 22.800781 30.363281 22.253906 30.824219 21.777344 31.222656 C 21.441406 31.507812 21.125 31.773438 20.863281 31.855469 C 19.125 31.765625 17.792969 32.632812 17.296875 34.132812 C 17.203125 34.386719 17.140625 34.640625 17.09375 34.875 C 16.226562 34.660156 15.226562 34.886719 14.617188 35.5 C 14.382812 35.734375 13.761719 36.5 14.117188 37.683594 C 13.449219 38.136719 12.96875 38.816406 12.789062 39.574219 C 12.589844 40.441406 12.796875 41.335938 13.359375 42.035156 C 13.839844 42.632812 14.1875 43.148438 14.324219 43.707031 C 14.640625 45.179688 15.933594 46.609375 17.71875 46.523438 C 19.410156 46.4375 20.070312 45.441406 20.507812 44.785156 C 20.570312 44.695312 20.632812 44.597656 20.699219 44.503906 C 21.121094 45.617188 22.179688 46.417969 23.386719 46.5 C 23.511719 46.507812 23.890625 46.535156 23.96875 46.601562 C 24.539062 47.113281 25.261719 47.390625 25.992188 47.390625 C 26.125 47.390625 26.257812 47.382812 26.390625 47.367188 C 27.175781 47.257812 27.847656 46.828125 28.273438 46.160156 C 28.480469 45.832031 28.660156 45.472656 28.835938 45.117188 C 28.9375 44.910156 29.03125 44.710938 29.128906 44.539062 C 29.804688 44.398438 30.414062 44.019531 30.855469 43.445312 C 31.390625 42.753906 31.628906 41.859375 31.507812 40.996094 Z M 28.824219 41.875 C 28.753906 41.964844 28.671875 42.019531 28.589844 42.027344 C 28.183594 42.074219 27.824219 42.210938 27.523438 42.4375 C 27.429688 42.507812 27.347656 42.589844 27.277344 42.679688 C 26.960938 43.09375 26.738281 43.550781 26.523438 43.992188 C 26.394531 44.261719 26.261719 44.535156 26.035156 44.820312 C 25.941406 44.832031 25.796875 44.796875 25.675781 44.6875 C 24.9375 44.03125 24.042969 43.96875 23.558594 43.9375 C 23.335938 43.925781 23.140625 43.761719 23.085938 43.546875 C 22.972656 43.089844 22.800781 42.765625 22.664062 42.503906 C 22.507812 42.210938 22.402344 42.015625 22.339844 41.535156 C 22.292969 41.175781 22.09375 40.847656 21.789062 40.644531 C 21.574219 40.496094 21.320312 40.417969 21.066406 40.417969 C 20.964844 40.417969 20.859375 40.429688 20.757812 40.457031 C 19.390625 40.792969 19.113281 41.742188 18.964844 42.253906 C 18.890625 42.503906 18.832031 42.707031 18.652344 42.953125 C 18.550781 43.09375 18.460938 43.230469 18.371094 43.363281 C 18.015625 43.894531 17.980469 43.9375 17.585938 43.957031 C 17.238281 44.011719 16.910156 43.496094 16.832031 43.136719 C 16.566406 42.023438 15.964844 41.171875 15.359375 40.421875 C 15.289062 40.335938 15.269531 40.257812 15.292969 40.160156 C 15.324219 40.027344 15.441406 39.847656 15.679688 39.738281 C 16.40625 39.40625 16.839844 38.722656 16.867188 37.859375 C 16.871094 37.757812 16.859375 37.65625 16.839844 37.554688 C 17.402344 37.792969 17.921875 37.804688 18.394531 37.59375 C 19.28125 37.191406 19.457031 36.246094 19.570312 35.621094 C 19.605469 35.417969 19.636719 35.207031 19.707031 35.023438 C 19.714844 35 19.722656 34.980469 19.730469 34.953125 C 19.863281 34.550781 20.230469 34.367188 20.835938 34.425781 C 20.929688 34.433594 21.027344 34.429688 21.125 34.417969 C 22.136719 34.28125 22.859375 33.671875 23.4375 33.183594 C 23.773438 32.902344 24.089844 32.632812 24.253906 32.570312 C 24.441406 32.523438 25.027344 32.382812 25.886719 33.132812 C 27.15625 34.242188 28.046875 36.496094 27.992188 37.730469 C 27.652344 38.851562 28.28125 39.734375 28.746094 40.277344 C 28.835938 40.589844 28.910156 40.941406 28.964844 41.34375 C 28.992188 41.527344 28.9375 41.726562 28.828125 41.867188 Z M 28.824219 41.875 "/></g><g clip-rule="nonzero" clip-path="url(#c1e3f17b23)"><g clip-rule="nonzero" clip-path="url(#5358dde348)"><path style=" stroke:none;fill-rule:nonzero;fill:#ffffff;fill-opacity:1;" d="M 10.863281 28.304688 L 33.460938 28.304688 L 33.460938 50.300781 L 10.863281 50.300781 Z M 10.863281 28.304688 "/></g></g><g clip-rule="nonzero" clip-path="url(#b842cb0928)"><g clip-rule="nonzero" clip-path="url(#48b50dc8ff)"><path style=" stroke:none;fill-rule:nonzero;fill:#ffffff;fill-opacity:1;" d="M 28.390625 31.210938 L 48.070312 31.210938 L 48.070312 55.652344 L 28.390625 55.652344 Z M 28.390625 31.210938 "/></g></g><g clip-rule="nonzero" clip-path="url(#cb359af989)"><g clip-rule="nonzero" clip-path="url(#3ec5c214b8)"><path style=" stroke:none;fill-rule:nonzero;fill:#ffffff;fill-opacity:1;" d="M 36.910156 43.683594 L 43.058594 43.683594 L 43.058594 48.664062 L 36.910156 48.664062 Z M 36.910156 43.683594 "/></g></g><g clip-rule="nonzero" clip-path="url(#b9de87c349)"><g clip-rule="nonzero" clip-path="url(#f20143785e)"><path style=" stroke:none;fill-rule:nonzero;fill:#ffffff;fill-opacity:1;" d="M 21.847656 25.984375 L 38.085938 25.984375 L 38.085938 37.53125 L 21.847656 37.53125 Z M 21.847656 25.984375 "/></g></g><g clip-rule="nonzero" clip-path="url(#4061431f63)"><path style=" stroke:none;fill-rule:nonzero;fill:#ffbf39;fill-opacity:1;" d="M 47.648438 41.25 L 43.804688 34.4375 L 43.792969 34.417969 C 43.425781 33.816406 42.808594 33.457031 42.136719 33.457031 L 37.421875 33.457031 L 37.753906 31.066406 C 37.84375 30.40625 37.644531 29.738281 37.207031 29.234375 C 36.769531 28.730469 36.132812 28.441406 35.464844 28.441406 L 12.679688 28.441406 C 12.328125 28.441406 12.042969 28.726562 12.042969 29.078125 C 12.042969 29.429688 12.328125 29.714844 12.679688 29.714844 L 35.464844 29.714844 C 35.769531 29.714844 36.046875 29.839844 36.246094 30.070312 C 36.445312 30.300781 36.535156 30.589844 36.492188 30.890625 L 36.136719 33.457031 L 36.117188 33.457031 L 34.023438 48.222656 L 34.023438 48.238281 C 33.976562 48.636719 33.945312 48.941406 33.925781 49.171875 L 22.726562 49.171875 C 22.421875 47.136719 20.660156 45.574219 18.539062 45.574219 C 16.417969 45.574219 14.65625 47.136719 14.347656 49.171875 L 10.277344 49.171875 C 9.972656 49.171875 9.699219 49.046875 9.496094 48.820312 C 9.296875 48.589844 9.210938 48.296875 9.253906 47.996094 L 9.6875 44.859375 C 9.734375 44.511719 9.492188 44.191406 9.144531 44.140625 C 8.792969 44.09375 8.472656 44.335938 8.425781 44.683594 L 7.992188 47.824219 C 7.902344 48.484375 8.101562 49.152344 8.539062 49.65625 C 8.976562 50.15625 9.609375 50.445312 10.277344 50.445312 L 14.351562 50.445312 C 14.65625 52.480469 16.417969 54.046875 18.539062 54.046875 C 20.660156 54.046875 22.421875 52.480469 22.730469 50.445312 L 36.039062 50.445312 C 36.347656 52.480469 38.109375 54.046875 40.230469 54.046875 C 42.347656 54.046875 44.109375 52.480469 44.417969 50.445312 L 45.242188 50.445312 C 46.324219 50.445312 47.207031 49.511719 47.226562 48.355469 L 47.964844 42.492188 L 47.96875 42.414062 C 47.96875 42 47.859375 41.597656 47.648438 41.25 Z M 21.503906 49.808594 C 21.503906 50.027344 21.480469 50.242188 21.433594 50.445312 C 21.140625 51.777344 19.957031 52.773438 18.539062 52.773438 C 17.121094 52.773438 15.9375 51.777344 15.644531 50.445312 C 15.597656 50.242188 15.574219 50.027344 15.574219 49.808594 C 15.574219 49.589844 15.597656 49.378906 15.644531 49.171875 C 15.9375 47.84375 17.121094 46.84375 18.539062 46.84375 C 19.953125 46.84375 21.140625 47.84375 21.433594 49.171875 C 21.480469 49.378906 21.503906 49.589844 21.503906 49.808594 Z M 43.195312 49.808594 C 43.195312 50.027344 43.167969 50.242188 43.125 50.445312 C 42.832031 51.777344 41.644531 52.773438 40.230469 52.773438 C 38.8125 52.773438 37.625 51.777344 37.332031 50.445312 C 37.289062 50.242188 37.265625 50.027344 37.265625 49.808594 C 37.265625 49.589844 37.289062 49.378906 37.332031 49.171875 C 37.625 47.84375 38.8125 46.84375 40.230469 46.84375 C 41.644531 46.84375 42.832031 47.84375 43.125 49.171875 C 43.167969 49.378906 43.195312 49.589844 43.195312 49.808594 Z M 45.960938 48.230469 L 45.953125 48.3125 C 45.953125 48.785156 45.636719 49.171875 45.242188 49.171875 L 44.417969 49.171875 C 44.109375 47.136719 42.347656 45.574219 40.230469 45.574219 C 38.109375 45.574219 36.347656 47.136719 36.039062 49.171875 L 35.25 49.171875 L 37.246094 34.730469 L 42.136719 34.730469 C 42.359375 34.730469 42.570312 34.859375 42.703125 35.074219 L 46.546875 41.882812 L 46.558594 41.902344 C 46.644531 42.042969 46.691406 42.207031 46.695312 42.378906 Z M 45.960938 48.230469 "/></g><path style=" stroke:none;fill-rule:nonzero;fill:#ffbf39;fill-opacity:1;" d="M 42.078125 36.078125 C 41.914062 35.757812 41.589844 35.558594 41.230469 35.558594 L 38.660156 35.558594 C 38.1875 35.558594 37.78125 35.914062 37.71875 36.382812 L 37.164062 40.667969 C 37.128906 40.941406 37.214844 41.214844 37.394531 41.417969 C 37.574219 41.625 37.832031 41.742188 38.105469 41.742188 L 43.410156 41.742188 C 43.742188 41.742188 44.046875 41.570312 44.21875 41.289062 C 44.394531 41.003906 44.40625 40.65625 44.257812 40.359375 Z M 38.472656 40.46875 L 38.945312 36.832031 L 41.035156 36.832031 L 42.882812 40.46875 Z M 38.472656 40.46875 "/><path style=" stroke:none;fill-rule:nonzero;fill:#ffbf39;fill-opacity:1;" d="M 17.082031 35.152344 C 17.082031 34.800781 16.796875 34.515625 16.445312 34.515625 L 0.636719 34.515625 C 0.285156 34.515625 0 34.800781 0 35.152344 C 0 35.503906 0.285156 35.789062 0.636719 35.789062 L 16.445312 35.789062 C 16.796875 35.789062 17.082031 35.503906 17.082031 35.152344 Z M 17.082031 35.152344 "/><path style=" stroke:none;fill-rule:nonzero;fill:#ffbf39;fill-opacity:1;" d="M 20.722656 38.175781 L 4.914062 38.175781 C 4.5625 38.175781 4.277344 38.460938 4.277344 38.8125 C 4.277344 39.160156 4.5625 39.445312 4.914062 39.445312 L 20.722656 39.445312 C 21.074219 39.445312 21.359375 39.160156 21.359375 38.8125 C 21.359375 38.460938 21.074219 38.175781 20.722656 38.175781 Z M 20.722656 38.175781 "/><path style=" stroke:none;fill-rule:nonzero;fill:#ffbf39;fill-opacity:1;" d="M 15.148438 42.46875 C 15.148438 42.117188 14.863281 41.832031 14.511719 41.832031 L 2.570312 41.832031 C 2.21875 41.832031 1.933594 42.117188 1.933594 42.46875 C 1.933594 42.820312 2.21875 43.105469 2.570312 43.105469 L 14.511719 43.105469 C 14.863281 43.105469 15.148438 42.820312 15.148438 42.46875 Z M 15.148438 42.46875 "/><path style=" stroke:none;fill-rule:nonzero;fill:#ffbf39;fill-opacity:1;" d="M 5.050781 32.40625 L 20.859375 32.40625 C 21.210938 32.40625 21.496094 32.121094 21.496094 31.769531 C 21.496094 31.417969 21.210938 31.132812 20.859375 31.132812 L 5.050781 31.132812 C 4.699219 31.132812 4.414062 31.417969 4.414062 31.769531 C 4.414062 32.121094 4.699219 32.40625 5.050781 32.40625 Z M 5.050781 32.40625 "/></g></svg>