<svg xmlns="http://www.w3.org/2000/svg" xmlns:xlink="http://www.w3.org/1999/xlink" width="84" zoomAndPan="magnify" viewBox="0 0 63 62.999997" height="84" preserveAspectRatio="xMidYMid meet" version="1.2"><defs><clipPath id="b0b8f96d6f"><path d="M 1.648438 1.574219 L 61.648438 1.574219 L 61.648438 61.574219 L 1.648438 61.574219 Z M 1.648438 1.574219 "/></clipPath></defs><g id="16d336ae35"><path style=" stroke:none;fill-rule:nonzero;fill:#ffbf39;fill-opacity:1;" d="M 55.554688 13.292969 C 55.554688 10.0625 52.925781 7.433594 49.695312 7.433594 C 46.464844 7.433594 43.835938 10.0625 43.835938 13.292969 C 43.835938 16.523438 46.464844 19.152344 49.695312 19.152344 C 52.925781 19.152344 55.554688 16.523438 55.554688 13.292969 Z M 46.179688 13.292969 C 46.179688 11.355469 47.757812 9.777344 49.695312 9.777344 C 51.636719 9.777344 53.210938 11.355469 53.210938 13.292969 C 53.210938 15.230469 51.636719 16.808594 49.695312 16.808594 C 47.757812 16.808594 46.179688 15.230469 46.179688 13.292969 Z M 46.179688 13.292969 "/><g clip-rule="nonzero" clip-path="url(#b0b8f96d6f)"><path style=" stroke:none;fill-rule:nonzero;fill:#ffbf39;fill-opacity:1;" d="M 55.757812 26.054688 C 58.554688 22.511719 61.414062 17.800781 61.414062 13.292969 C 61.414062 6.832031 56.160156 1.574219 49.695312 1.574219 C 43.234375 1.574219 37.976562 6.832031 37.976562 13.292969 C 37.976562 17.800781 40.839844 22.511719 43.636719 26.054688 C 41.402344 26.898438 39.890625 28.191406 39.371094 29.699219 L 28.015625 29.699219 C 23.816406 29.699219 20.398438 33.117188 20.398438 37.316406 C 20.398438 41.515625 23.816406 44.933594 28.015625 44.933594 L 49.109375 44.933594 C 52.019531 44.933594 54.382812 47.300781 54.382812 50.207031 C 54.382812 53.117188 52.019531 55.480469 49.109375 55.480469 L 17.792969 55.480469 C 17.289062 54.277344 16.015625 53.277344 14.195312 52.660156 C 16.101562 50.292969 18.054688 47.074219 18.054688 43.761719 C 18.054688 39.238281 14.375 35.558594 9.851562 35.558594 C 5.328125 35.558594 1.648438 39.238281 1.648438 43.761719 C 1.648438 47.074219 3.601562 50.292969 5.511719 52.660156 C 3.125 53.472656 1.648438 54.933594 1.648438 56.652344 C 1.648438 59.324219 5.175781 61.339844 9.851562 61.339844 C 13.816406 61.339844 16.941406 59.890625 17.808594 57.824219 L 49.109375 57.824219 C 53.3125 57.824219 56.726562 54.40625 56.726562 50.207031 C 56.726562 46.007812 53.3125 42.589844 49.109375 42.589844 L 28.015625 42.589844 C 25.109375 42.589844 22.742188 40.226562 22.742188 37.316406 C 22.742188 34.410156 25.109375 32.042969 28.015625 32.042969 L 39.347656 32.042969 C 40.269531 34.785156 44.410156 36.730469 49.695312 36.730469 C 55.710938 36.730469 60.242188 34.210938 60.242188 30.871094 C 60.242188 28.867188 58.554688 27.113281 55.757812 26.054688 Z M 9.851562 37.902344 C 13.082031 37.902344 15.710938 40.53125 15.710938 43.761719 C 15.710938 47.921875 11.585938 52.261719 9.851562 53.902344 C 8.121094 52.261719 3.992188 47.921875 3.992188 43.761719 C 3.992188 40.53125 6.621094 37.902344 9.851562 37.902344 Z M 9.851562 58.996094 C 6.277344 58.996094 3.992188 57.609375 3.992188 56.652344 C 3.992188 55.960938 5.195312 55.054688 7.226562 54.601562 C 8.238281 55.652344 9.007812 56.300781 9.101562 56.382812 C 9.515625 56.722656 10.164062 56.75 10.601562 56.382812 C 10.699219 56.300781 11.46875 55.652344 12.480469 54.601562 C 14.511719 55.054688 15.710938 55.960938 15.710938 56.652344 C 15.710938 57.609375 13.429688 58.996094 9.851562 58.996094 Z M 49.695312 3.917969 C 54.867188 3.917969 59.070312 8.125 59.070312 13.292969 C 59.070312 19.617188 52.074219 26.953125 49.695312 29.261719 C 47.320312 26.953125 40.320312 19.617188 40.320312 13.292969 C 40.320312 8.125 44.527344 3.917969 49.695312 3.917969 Z M 49.695312 34.386719 C 45 34.386719 41.492188 32.53125 41.492188 30.871094 C 41.492188 29.785156 43.003906 28.644531 45.234375 27.980469 C 47.15625 30.167969 48.75 31.597656 48.917969 31.746094 C 49.359375 32.140625 50.035156 32.140625 50.476562 31.746094 C 50.644531 31.597656 52.238281 30.167969 54.15625 27.980469 C 56.386719 28.644531 57.898438 29.785156 57.898438 30.871094 C 57.898438 32.53125 54.390625 34.386719 49.695312 34.386719 Z M 49.695312 34.386719 "/></g><path style=" stroke:none;fill-rule:nonzero;fill:#ffbf39;fill-opacity:1;" d="M 13.367188 43.761719 C 13.367188 41.824219 11.792969 40.246094 9.851562 40.246094 C 7.914062 40.246094 6.335938 41.824219 6.335938 43.761719 C 6.335938 45.699219 7.914062 47.277344 9.851562 47.277344 C 11.792969 47.277344 13.367188 45.699219 13.367188 43.761719 Z M 8.679688 43.761719 C 8.679688 43.117188 9.207031 42.589844 9.851562 42.589844 C 10.5 42.589844 11.023438 43.117188 11.023438 43.761719 C 11.023438 44.410156 10.5 44.933594 9.851562 44.933594 C 9.207031 44.933594 8.679688 44.410156 8.679688 43.761719 Z M 8.679688 43.761719 "/></g></svg>