<svg xmlns="http://www.w3.org/2000/svg" xmlns:xlink="http://www.w3.org/1999/xlink" width="84" zoomAndPan="magnify" viewBox="0 0 63 62.999997" height="84" preserveAspectRatio="xMidYMid meet" version="1.0"><defs><clipPath id="fa43d8b73d"><path d="M 0.824219 0.824219 L 62.324219 0.824219 L 62.324219 62.324219 L 0.824219 62.324219 Z M 0.824219 0.824219 " clip-rule="nonzero"/></clipPath></defs><path fill="#ffbf39" d="M 56.15625 12.855469 C 56.15625 9.539062 53.460938 6.839844 50.144531 6.839844 C 46.828125 6.839844 44.128906 9.539062 44.128906 12.855469 C 44.128906 16.171875 46.828125 18.867188 50.144531 18.867188 C 53.460938 18.867188 56.15625 16.171875 56.15625 12.855469 Z M 46.535156 12.855469 C 46.535156 10.863281 48.152344 9.246094 50.144531 9.246094 C 52.132812 9.246094 53.753906 10.863281 53.753906 12.855469 C 53.753906 14.84375 52.132812 16.460938 50.144531 16.460938 C 48.152344 16.460938 46.535156 14.84375 46.535156 12.855469 Z M 46.535156 12.855469 " fill-opacity="1" fill-rule="nonzero"/><g clip-path="url(#fa43d8b73d)"><path fill="#ffbf39" d="M 56.363281 25.953125 C 59.238281 22.316406 62.171875 17.480469 62.171875 12.855469 C 62.171875 6.222656 56.777344 0.824219 50.144531 0.824219 C 43.511719 0.824219 38.113281 6.222656 38.113281 12.855469 C 38.113281 17.480469 41.050781 22.316406 43.921875 25.953125 C 41.628906 26.820312 40.078125 28.144531 39.546875 29.695312 L 27.890625 29.695312 C 23.578125 29.695312 20.070312 33.203125 20.070312 37.511719 C 20.070312 41.824219 23.578125 45.332031 27.890625 45.332031 L 49.542969 45.332031 C 52.527344 45.332031 54.957031 47.761719 54.957031 50.746094 C 54.957031 53.730469 52.527344 56.15625 49.542969 56.15625 L 17.394531 56.15625 C 16.875 54.921875 15.570312 53.898438 13.703125 53.261719 C 15.660156 50.835938 17.664062 47.527344 17.664062 44.128906 C 17.664062 39.484375 13.886719 35.707031 9.246094 35.707031 C 4.601562 35.707031 0.824219 39.484375 0.824219 44.128906 C 0.824219 47.527344 2.828125 50.835938 4.789062 53.261719 C 2.339844 54.09375 0.824219 55.59375 0.824219 57.359375 C 0.824219 60.105469 4.445312 62.171875 9.246094 62.171875 C 13.3125 62.171875 16.523438 60.683594 17.410156 58.5625 L 49.542969 58.5625 C 53.851562 58.5625 57.359375 55.054688 57.359375 50.746094 C 57.359375 46.433594 53.851562 42.925781 49.542969 42.925781 L 27.890625 42.925781 C 24.90625 42.925781 22.476562 40.5 22.476562 37.511719 C 22.476562 34.527344 24.90625 32.101562 27.890625 32.101562 L 39.519531 32.101562 C 40.46875 34.914062 44.71875 36.910156 50.144531 36.910156 C 56.316406 36.910156 60.96875 34.328125 60.96875 30.898438 C 60.96875 28.839844 59.238281 27.039062 56.363281 25.953125 Z M 9.246094 38.113281 C 12.5625 38.113281 15.257812 40.8125 15.257812 44.128906 C 15.257812 48.398438 11.023438 52.855469 9.246094 54.535156 C 7.464844 52.855469 3.230469 48.398438 3.230469 44.128906 C 3.230469 40.8125 5.929688 38.113281 9.246094 38.113281 Z M 9.246094 59.765625 C 5.574219 59.765625 3.230469 58.34375 3.230469 57.359375 C 3.230469 56.648438 4.464844 55.71875 6.546875 55.257812 C 7.585938 56.332031 8.375 57 8.476562 57.082031 C 8.898438 57.433594 9.5625 57.460938 10.015625 57.082031 C 10.113281 57 10.90625 56.332031 11.941406 55.257812 C 14.027344 55.71875 15.257812 56.648438 15.257812 57.359375 C 15.257812 58.34375 12.917969 59.765625 9.246094 59.765625 Z M 50.144531 3.230469 C 55.449219 3.230469 59.765625 7.546875 59.765625 12.855469 C 59.765625 19.34375 52.582031 26.875 50.144531 29.246094 C 47.703125 26.875 40.519531 19.34375 40.519531 12.855469 C 40.519531 7.546875 44.835938 3.230469 50.144531 3.230469 Z M 50.144531 34.507812 C 45.324219 34.507812 41.722656 32.601562 41.722656 30.898438 C 41.722656 29.78125 43.273438 28.613281 45.566406 27.929688 C 47.535156 30.175781 49.171875 31.644531 49.34375 31.796875 C 49.796875 32.199219 50.492188 32.199219 50.941406 31.796875 C 51.117188 31.644531 52.75 30.175781 54.722656 27.929688 C 57.011719 28.613281 58.5625 29.78125 58.5625 30.898438 C 58.5625 32.601562 54.964844 34.507812 50.144531 34.507812 Z M 50.144531 34.507812 " fill-opacity="1" fill-rule="nonzero"/></g><path fill="#ffbf39" d="M 12.855469 44.128906 C 12.855469 42.140625 11.234375 40.519531 9.246094 40.519531 C 7.253906 40.519531 5.636719 42.140625 5.636719 44.128906 C 5.636719 46.121094 7.253906 47.738281 9.246094 47.738281 C 11.234375 47.738281 12.855469 46.121094 12.855469 44.128906 Z M 8.042969 44.128906 C 8.042969 43.464844 8.582031 42.925781 9.246094 42.925781 C 9.910156 42.925781 10.449219 43.464844 10.449219 44.128906 C 10.449219 44.792969 9.910156 45.332031 9.246094 45.332031 C 8.582031 45.332031 8.042969 44.792969 8.042969 44.128906 Z M 8.042969 44.128906 " fill-opacity="1" fill-rule="nonzero"/></svg>