<svg xmlns="http://www.w3.org/2000/svg" xmlns:xlink="http://www.w3.org/1999/xlink" width="100" zoomAndPan="magnify" viewBox="0 0 75 74.999997" height="100" preserveAspectRatio="xMidYMid meet" version="1.2"><defs><clipPath id="add624dbaf"><path d="M 5 45 L 72.75 45 L 72.75 75 L 5 75 Z M 5 45 "/></clipPath></defs><g id="49c70d9fd4"><g clip-rule="nonzero" clip-path="url(#add624dbaf)"><path style=" stroke:none;fill-rule:nonzero;fill:#ffbf39;fill-opacity:1;" d="M 35.929688 74.992188 C 33.421875 74.984375 30.984375 74.566406 28.617188 73.742188 C 28.582031 73.726562 28.542969 73.714844 28.507812 73.699219 L 19.707031 69.820312 C 18.507812 69.375 15.238281 68.234375 13.824219 68.035156 C 10.054688 67.492188 8.433594 67.820312 7.800781 68.058594 C 7.582031 68.144531 7.351562 68.171875 7.117188 68.140625 C 6.882812 68.113281 6.667969 68.03125 6.472656 67.898438 C 6.277344 67.761719 6.125 67.589844 6.015625 67.378906 C 5.90625 67.167969 5.851562 66.945312 5.851562 66.710938 L 5.851562 50.582031 C 5.851562 50.390625 5.886719 50.207031 5.960938 50.03125 C 6.035156 49.855469 6.136719 49.699219 6.273438 49.5625 C 6.410156 49.429688 6.5625 49.324219 6.742188 49.25 C 6.917969 49.179688 7.101562 49.140625 7.292969 49.140625 C 7.480469 49.140625 7.667969 49.179688 7.84375 49.25 C 8.019531 49.324219 8.175781 49.429688 8.308594 49.5625 C 8.445312 49.699219 8.546875 49.855469 8.621094 50.03125 C 8.695312 50.207031 8.730469 50.390625 8.730469 50.582031 L 8.730469 64.9375 C 10.183594 64.789062 12.019531 64.871094 14.230469 65.183594 C 16.222656 65.464844 20.289062 66.964844 20.746094 67.132812 C 20.773438 67.144531 20.800781 67.15625 20.828125 67.167969 L 29.613281 71.035156 C 33.421875 72.339844 36.652344 72.222656 38.699219 71.894531 C 40.589844 71.589844 43.375 70.648438 44.421875 70.292969 L 44.605469 70.234375 C 56.5 66.246094 67.304688 54.394531 69.109375 52.34375 C 69.269531 51.089844 69.238281 49.582031 68.390625 48.785156 C 67.457031 47.914062 65.722656 47.988281 64.871094 48.132812 L 50.652344 58.382812 C 50.5 58.496094 50.328125 58.570312 50.140625 58.617188 C 49.957031 58.660156 49.769531 58.664062 49.582031 58.636719 C 49.390625 58.605469 49.214844 58.539062 49.054688 58.4375 C 48.890625 58.335938 48.753906 58.210938 48.644531 58.054688 C 48.53125 57.898438 48.453125 57.730469 48.410156 57.542969 C 48.367188 57.355469 48.359375 57.171875 48.390625 56.980469 C 48.421875 56.792969 48.484375 56.617188 48.585938 56.453125 C 48.6875 56.292969 48.8125 56.15625 48.96875 56.042969 L 63.4375 45.605469 C 63.589844 45.496094 63.757812 45.417969 63.941406 45.375 C 64.347656 45.277344 67.992188 44.476562 70.339844 46.664062 C 71.851562 48.066406 72.375 50.261719 71.890625 53.199219 C 71.847656 53.460938 71.738281 53.691406 71.570312 53.890625 C 71.445312 54.039062 68.46875 57.546875 63.777344 61.664062 C 57.441406 67.21875 51.296875 71.019531 45.511719 72.957031 L 45.339844 73.015625 C 44.230469 73.390625 41.28125 74.386719 39.15625 74.726562 C 38.085938 74.898438 37.011719 74.988281 35.929688 74.992188 Z M 35.929688 74.992188 "/></g><path style=" stroke:none;fill-rule:nonzero;fill:#ffbf39;fill-opacity:1;" d="M 45.144531 63.386719 L 29.632812 63.386719 C 29.445312 63.386719 29.261719 63.347656 29.082031 63.277344 C 28.90625 63.203125 28.75 63.097656 28.617188 62.964844 C 28.480469 62.828125 28.378906 62.671875 28.304688 62.496094 C 28.230469 62.320312 28.195312 62.136719 28.195312 61.945312 C 28.195312 61.753906 28.230469 61.570312 28.304688 61.394531 C 28.378906 61.21875 28.480469 61.0625 28.617188 60.929688 C 28.75 60.792969 28.90625 60.6875 29.082031 60.617188 C 29.261719 60.542969 29.445312 60.507812 29.632812 60.507812 L 45.144531 60.507812 C 45.53125 60.5 45.902344 60.421875 46.257812 60.269531 C 46.609375 60.117188 46.921875 59.902344 47.195312 59.625 C 47.464844 59.351562 47.671875 59.035156 47.820312 58.679688 C 47.964844 58.320312 48.039062 57.949219 48.039062 57.5625 C 48.039062 57.179688 47.964844 56.804688 47.820312 56.449219 C 47.671875 56.09375 47.464844 55.777344 47.195312 55.5 C 46.921875 55.226562 46.609375 55.011719 46.257812 54.859375 C 45.902344 54.707031 45.53125 54.628906 45.144531 54.621094 L 29.597656 54.621094 C 29.464844 54.621094 26.347656 54.515625 22.457031 52.832031 L 22.21875 52.726562 C 18.613281 51.148438 15.96875 50.339844 14.355469 50.328125 C 11.878906 50.3125 9.734375 50.792969 7.996094 51.757812 C 7.828125 51.847656 7.648438 51.90625 7.460938 51.925781 C 7.269531 51.949219 7.082031 51.933594 6.898438 51.878906 C 6.714844 51.828125 6.550781 51.742188 6.402344 51.625 C 6.25 51.503906 6.128906 51.363281 6.039062 51.195312 C 5.945312 51.027344 5.886719 50.847656 5.867188 50.660156 C 5.84375 50.46875 5.859375 50.28125 5.914062 50.097656 C 5.964844 49.914062 6.050781 49.75 6.171875 49.601562 C 6.289062 49.449219 6.433594 49.328125 6.601562 49.238281 C 8.777344 48.03125 11.390625 47.425781 14.375 47.449219 C 17.085938 47.464844 20.808594 48.960938 23.371094 50.085938 L 23.601562 50.1875 C 26.820312 51.578125 29.441406 51.730469 29.664062 51.738281 L 45.144531 51.738281 C 45.527344 51.746094 45.902344 51.785156 46.273438 51.863281 C 46.644531 51.941406 47.003906 52.054688 47.351562 52.203125 C 47.699219 52.351562 48.03125 52.53125 48.347656 52.746094 C 48.660156 52.960938 48.949219 53.199219 49.214844 53.472656 C 49.484375 53.742188 49.71875 54.035156 49.929688 54.351562 C 50.140625 54.667969 50.316406 55 50.460938 55.351562 C 50.605469 55.703125 50.710938 56.0625 50.785156 56.433594 C 50.859375 56.808594 50.894531 57.183594 50.894531 57.5625 C 50.894531 57.941406 50.859375 58.316406 50.785156 58.6875 C 50.710938 59.0625 50.605469 59.421875 50.460938 59.773438 C 50.316406 60.125 50.140625 60.457031 49.929688 60.773438 C 49.71875 61.089844 49.484375 61.382812 49.214844 61.652344 C 48.949219 61.921875 48.660156 62.164062 48.347656 62.378906 C 48.03125 62.589844 47.699219 62.769531 47.351562 62.917969 C 47.003906 63.066406 46.644531 63.179688 46.273438 63.257812 C 45.902344 63.335938 45.527344 63.378906 45.144531 63.382812 Z M 45.144531 63.386719 "/><path style=" stroke:none;fill-rule:nonzero;fill:#ffbf39;fill-opacity:1;" d="M 7.296875 72.40625 L 1.441406 72.40625 C 1.25 72.40625 1.066406 72.371094 0.890625 72.296875 C 0.714844 72.226562 0.558594 72.121094 0.425781 71.988281 C 0.289062 71.851562 0.183594 71.695312 0.113281 71.519531 C 0.0390625 71.34375 0.00390625 71.160156 0.00390625 70.96875 L 0.00390625 45.660156 C 0.00390625 45.46875 0.0390625 45.285156 0.113281 45.109375 C 0.183594 44.933594 0.289062 44.777344 0.425781 44.644531 C 0.558594 44.507812 0.714844 44.402344 0.890625 44.332031 C 1.066406 44.257812 1.25 44.222656 1.441406 44.222656 L 7.296875 44.222656 C 7.488281 44.222656 7.671875 44.257812 7.847656 44.332031 C 8.023438 44.402344 8.179688 44.507812 8.316406 44.644531 C 8.449219 44.777344 8.554688 44.933594 8.625 45.109375 C 8.699219 45.285156 8.738281 45.46875 8.738281 45.660156 L 8.738281 70.96875 C 8.738281 71.160156 8.699219 71.34375 8.625 71.519531 C 8.554688 71.695312 8.449219 71.851562 8.316406 71.988281 C 8.179688 72.121094 8.023438 72.226562 7.847656 72.296875 C 7.671875 72.371094 7.488281 72.40625 7.296875 72.40625 Z M 2.882812 69.527344 L 5.855469 69.527344 L 5.855469 47.101562 L 2.882812 47.101562 Z M 2.882812 69.527344 "/><path style=" stroke:none;fill-rule:nonzero;fill:#ffbf39;fill-opacity:1;" d="M 36.035156 24.792969 C 35.664062 24.792969 35.34375 24.667969 35.070312 24.421875 C 34.832031 24.203125 29.1875 19.039062 29.1875 12.464844 C 29.1875 5.886719 34.832031 0.722656 35.070312 0.503906 C 35.203125 0.386719 35.351562 0.292969 35.519531 0.230469 C 35.683594 0.164062 35.855469 0.132812 36.035156 0.132812 C 36.210938 0.132812 36.386719 0.164062 36.550781 0.230469 C 36.71875 0.292969 36.867188 0.386719 37 0.503906 C 37.238281 0.722656 42.878906 5.882812 42.878906 12.464844 C 42.878906 19.042969 37.238281 24.203125 37 24.421875 C 36.726562 24.667969 36.402344 24.792969 36.035156 24.792969 Z M 36.035156 3.648438 C 34.597656 5.265625 32.066406 8.660156 32.066406 12.464844 C 32.066406 16.289062 34.59375 19.671875 36.027344 21.28125 C 37.464844 19.664062 39.996094 16.269531 39.996094 12.464844 C 40 8.640625 37.472656 5.257812 36.035156 3.644531 Z M 36.035156 3.648438 "/><path style=" stroke:none;fill-rule:nonzero;fill:#ffbf39;fill-opacity:1;" d="M 26.738281 29.5 C 24.515625 29.5 18.957031 29.09375 15.363281 25.332031 C 10.910156 20.671875 11.410156 12.863281 11.433594 12.53125 C 11.457031 12.179688 11.597656 11.875 11.847656 11.621094 C 12.097656 11.367188 12.402344 11.226562 12.757812 11.199219 C 13.074219 11.175781 20.605469 10.648438 25.082031 15.339844 C 29.535156 20 29.035156 27.804688 29.011719 28.136719 C 28.988281 28.492188 28.847656 28.796875 28.597656 29.050781 C 28.347656 29.300781 28.042969 29.441406 27.6875 29.46875 C 27.628906 29.476562 27.285156 29.5 26.738281 29.5 Z M 27.582031 28.035156 Z M 14.296875 14.066406 C 14.363281 16.246094 14.835938 20.617188 17.445312 23.339844 C 20 26.015625 24.074219 26.527344 26.15625 26.605469 C 26.089844 24.425781 25.617188 20.054688 23.007812 17.328125 C 20.453125 14.65625 16.378906 14.140625 14.296875 14.066406 Z M 14.296875 14.066406 "/><path style=" stroke:none;fill-rule:nonzero;fill:#ffbf39;fill-opacity:1;" d="M 36.035156 38.324219 C 35.609375 38.324219 35.253906 38.164062 34.964844 37.847656 L 19.183594 21.328125 C 19.046875 21.191406 18.941406 21.035156 18.867188 20.855469 C 18.792969 20.675781 18.757812 20.488281 18.761719 20.292969 C 18.761719 20.101562 18.804688 19.914062 18.878906 19.738281 C 18.957031 19.558594 19.066406 19.402344 19.207031 19.269531 C 19.347656 19.136719 19.507812 19.035156 19.6875 18.964844 C 19.871094 18.894531 20.058594 18.863281 20.25 18.871094 C 20.445312 18.878906 20.628906 18.921875 20.804688 19.003906 C 20.980469 19.085938 21.136719 19.195312 21.265625 19.339844 L 37.074219 35.886719 C 37.273438 36.097656 37.398438 36.34375 37.449219 36.625 C 37.503906 36.910156 37.472656 37.183594 37.359375 37.449219 C 37.246094 37.714844 37.066406 37.925781 36.828125 38.085938 C 36.585938 38.242188 36.324219 38.324219 36.035156 38.324219 Z M 36.035156 38.324219 "/><path style=" stroke:none;fill-rule:nonzero;fill:#ffbf39;fill-opacity:1;" d="M 45.332031 29.5 C 44.785156 29.5 44.4375 29.476562 44.375 29.46875 C 44.019531 29.441406 43.71875 29.300781 43.464844 29.046875 C 43.214844 28.796875 43.078125 28.492188 43.050781 28.136719 C 43.027344 27.804688 42.53125 20 46.980469 15.339844 C 51.464844 10.648438 58.992188 11.175781 59.3125 11.199219 C 59.667969 11.226562 59.972656 11.367188 60.222656 11.621094 C 60.472656 11.875 60.613281 12.179688 60.636719 12.535156 C 60.660156 12.863281 61.160156 20.671875 56.707031 25.332031 C 53.109375 29.09375 47.550781 29.5 45.332031 29.5 Z M 57.773438 14.066406 C 55.691406 14.140625 51.617188 14.65625 49.0625 17.328125 C 46.457031 20.054688 45.980469 24.421875 45.914062 26.605469 C 47.992188 26.527344 52.070312 26.015625 54.625 23.339844 C 57.230469 20.617188 57.707031 16.246094 57.773438 14.066406 Z M 57.773438 14.066406 "/><path style=" stroke:none;fill-rule:nonzero;fill:#ffbf39;fill-opacity:1;" d="M 36.035156 38.324219 C 35.84375 38.324219 35.660156 38.285156 35.484375 38.210938 C 35.308594 38.140625 35.152344 38.035156 35.015625 37.902344 C 34.882812 37.765625 34.777344 37.609375 34.703125 37.433594 C 34.632812 37.257812 34.59375 37.074219 34.59375 36.882812 C 34.59375 36.5 34.726562 36.167969 34.992188 35.886719 L 43.417969 27.070312 C 43.425781 27.058594 43.4375 27.050781 43.445312 27.039062 L 50.804688 19.339844 C 50.933594 19.199219 51.085938 19.089844 51.261719 19.011719 C 51.4375 18.933594 51.621094 18.890625 51.8125 18.882812 C 52.007812 18.878906 52.191406 18.910156 52.371094 18.980469 C 52.550781 19.046875 52.710938 19.148438 52.847656 19.28125 C 52.988281 19.414062 53.097656 19.570312 53.171875 19.746094 C 53.25 19.921875 53.292969 20.105469 53.292969 20.296875 C 53.296875 20.492188 53.265625 20.675781 53.191406 20.855469 C 53.121094 21.035156 53.019531 21.191406 52.886719 21.328125 L 45.558594 29 L 45.527344 29.03125 L 37.089844 37.859375 C 36.804688 38.167969 36.453125 38.324219 36.035156 38.324219 Z M 36.035156 38.324219 "/><path style=" stroke:none;fill-rule:nonzero;fill:#ffbf39;fill-opacity:1;" d="M 36.035156 49.46875 C 35.84375 49.46875 35.660156 49.433594 35.484375 49.359375 C 35.308594 49.285156 35.152344 49.183594 35.015625 49.046875 C 34.882812 48.910156 34.777344 48.757812 34.703125 48.578125 C 34.632812 48.402344 34.59375 48.21875 34.59375 48.027344 L 34.59375 12.460938 C 34.59375 12.269531 34.632812 12.085938 34.703125 11.910156 C 34.777344 11.734375 34.882812 11.578125 35.015625 11.441406 C 35.152344 11.308594 35.308594 11.203125 35.484375 11.128906 C 35.660156 11.058594 35.84375 11.019531 36.035156 11.019531 C 36.226562 11.019531 36.410156 11.058594 36.585938 11.128906 C 36.761719 11.203125 36.917969 11.308594 37.050781 11.441406 C 37.1875 11.578125 37.292969 11.734375 37.363281 11.910156 C 37.4375 12.085938 37.472656 12.269531 37.472656 12.460938 L 37.472656 48.027344 C 37.472656 48.21875 37.4375 48.402344 37.363281 48.578125 C 37.292969 48.757812 37.1875 48.910156 37.050781 49.046875 C 36.917969 49.183594 36.761719 49.285156 36.585938 49.359375 C 36.410156 49.433594 36.226562 49.46875 36.035156 49.46875 Z M 36.035156 49.46875 "/></g></svg>