<svg xmlns="http://www.w3.org/2000/svg" xmlns:xlink="http://www.w3.org/1999/xlink" width="100" zoomAndPan="magnify" viewBox="0 0 75 74.999997" height="100" preserveAspectRatio="xMidYMid meet" version="1.2"><defs><clipPath id="48d54aa5b0"><path d="M 11.117188 13.691406 L 63.617188 13.691406 L 63.617188 60.941406 L 11.117188 60.941406 Z M 11.117188 13.691406 "/></clipPath></defs><g id="66de464fc9"><g clip-rule="nonzero" clip-path="url(#48d54aa5b0)"><path style=" stroke:none;fill-rule:nonzero;fill:#f73140;fill-opacity:1;" d="M 63.320312 29.015625 C 63.472656 20.390625 58.824219 13.703125 50.039062 13.703125 C 43.289062 13.703125 39.226562 16.386719 37.242188 21.5625 C 34.6875 16.839844 31.191406 13.703125 24.441406 13.703125 C 16.167969 13.703125 11.121094 20.871094 11.164062 29.015625 C 11.246094 45.625 36.882812 60.707031 37.238281 60.921875 L 37.238281 60.925781 L 37.242188 60.921875 L 37.246094 60.925781 L 37.246094 60.921875 C 37.597656 60.707031 63.023438 45.796875 63.320312 29.015625 "/></g><path style=" stroke:none;fill-rule:nonzero;fill:#ffffff;fill-opacity:1;" d="M 47.476562 33.546875 L 41.160156 33.546875 L 41.160156 27.230469 L 33.625 27.230469 L 33.625 33.546875 L 27.304688 33.546875 L 27.304688 41.082031 L 33.625 41.082031 L 33.625 47.398438 L 41.160156 47.398438 L 41.160156 41.082031 L 47.476562 41.082031 L 47.476562 33.546875 "/></g></svg>