<svg xmlns="http://www.w3.org/2000/svg" xmlns:xlink="http://www.w3.org/1999/xlink" width="100" zoomAndPan="magnify" viewBox="0 0 75 74.999997" height="100" preserveAspectRatio="xMidYMid meet" version="1.2"><defs><clipPath id="c0924a9418"><path d="M 0 0.84375 L 75 0.84375 L 75 75 L 0 75 Z M 0 0.84375 "/></clipPath></defs><g id="ac9a93d759"><g clip-rule="nonzero" clip-path="url(#c0924a9418)"><path style=" stroke:none;fill-rule:nonzero;fill:#ffbf39;fill-opacity:1;" d="M 16.714844 16.640625 C 16.96875 16.359375 17.191406 16.054688 17.386719 15.726562 C 17.582031 15.402344 17.742188 15.058594 17.871094 14.703125 C 18 14.34375 18.09375 13.980469 18.152344 13.605469 C 18.210938 13.230469 18.234375 12.851562 18.222656 12.472656 C 18.207031 12.09375 18.160156 11.71875 18.074219 11.347656 C 17.988281 10.976562 17.867188 10.617188 17.714844 10.273438 C 17.558594 9.925781 17.375 9.597656 17.15625 9.285156 C 16.9375 8.972656 16.695312 8.683594 16.421875 8.421875 L 12.378906 4.375 C 12.089844 4.085938 11.90625 3.742188 11.828125 3.34375 C 11.75 2.941406 11.789062 2.554688 11.945312 2.175781 C 12.101562 1.800781 12.347656 1.5 12.6875 1.269531 C 13.027344 1.042969 13.398438 0.929688 13.808594 0.929688 C 14.339844 0.917969 14.875 0.9375 15.40625 0.992188 C 15.9375 1.046875 16.464844 1.132812 16.984375 1.25 C 17.507812 1.367188 18.019531 1.511719 18.523438 1.691406 C 19.027344 1.871094 19.519531 2.078125 19.996094 2.316406 C 20.476562 2.554688 20.9375 2.824219 21.382812 3.117188 C 21.832031 3.410156 22.257812 3.730469 22.664062 4.074219 C 23.074219 4.421875 23.457031 4.789062 23.820312 5.183594 C 24.183594 5.574219 24.523438 5.988281 24.835938 6.417969 C 25.148438 6.851562 25.4375 7.304688 25.695312 7.769531 C 25.953125 8.238281 26.183594 8.71875 26.386719 9.214844 C 26.585938 9.710938 26.757812 10.214844 26.898438 10.730469 C 27.039062 11.246094 27.144531 11.769531 27.222656 12.296875 C 27.300781 12.828125 27.34375 13.359375 27.359375 13.890625 C 27.371094 14.425781 27.351562 14.960938 27.300781 15.492188 C 27.25 16.023438 27.164062 16.550781 27.050781 17.074219 C 26.9375 17.59375 26.789062 18.109375 26.613281 18.613281 L 37.414062 29.414062 L 32.332031 34.496094 L 30.496094 32.660156 C 30.292969 32.460938 30.074219 32.28125 29.839844 32.121094 C 29.601562 31.964844 29.351562 31.832031 29.089844 31.722656 C 28.828125 31.613281 28.554688 31.53125 28.277344 31.476562 C 28 31.421875 27.714844 31.394531 27.433594 31.394531 C 27.148438 31.394531 26.867188 31.421875 26.585938 31.476562 C 26.308594 31.53125 26.039062 31.613281 25.773438 31.722656 C 25.511719 31.832031 25.261719 31.964844 25.027344 32.125 C 24.789062 32.28125 24.570312 32.460938 24.371094 32.660156 L 24.339844 32.695312 L 18.441406 26.796875 C 17.9375 26.976562 17.421875 27.121094 16.894531 27.238281 C 16.371094 27.351562 15.839844 27.4375 15.308594 27.488281 C 14.773438 27.539062 14.238281 27.554688 13.699219 27.542969 C 13.164062 27.527344 12.628906 27.480469 12.097656 27.402344 C 11.566406 27.324219 11.042969 27.214844 10.523438 27.070312 C 10.003906 26.929688 9.5 26.757812 9 26.554688 C 8.503906 26.347656 8.023438 26.117188 7.554688 25.855469 C 7.085938 25.59375 6.632812 25.300781 6.199219 24.984375 C 5.765625 24.667969 5.351562 24.328125 4.960938 23.960938 C 4.570312 23.59375 4.199219 23.203125 3.855469 22.792969 C 3.511719 22.382812 3.191406 21.949219 2.898438 21.5 C 2.605469 21.050781 2.339844 20.582031 2.105469 20.101562 C 1.867188 19.621094 1.660156 19.125 1.484375 18.617188 C 1.308594 18.109375 1.164062 17.59375 1.050781 17.070312 C 0.9375 16.542969 0.855469 16.015625 0.804688 15.480469 C 0.753906 14.945312 0.738281 14.410156 0.753906 13.871094 C 0.773438 13.472656 0.898438 13.113281 1.132812 12.789062 C 1.367188 12.464844 1.671875 12.234375 2.046875 12.089844 C 2.417969 11.945312 2.800781 11.917969 3.191406 12 C 3.582031 12.085938 3.917969 12.269531 4.199219 12.554688 L 8.414062 16.769531 C 8.6875 17.042969 8.984375 17.289062 9.308594 17.5 C 9.632812 17.714844 9.972656 17.894531 10.332031 18.039062 C 10.691406 18.1875 11.058594 18.292969 11.441406 18.367188 C 11.820312 18.4375 12.207031 18.46875 12.59375 18.464844 C 12.980469 18.457031 13.363281 18.414062 13.742188 18.332031 C 14.117188 18.246094 14.484375 18.128906 14.839844 17.972656 C 15.195312 17.816406 15.527344 17.625 15.84375 17.402344 C 16.160156 17.175781 16.453125 16.925781 16.714844 16.640625 Z M 73.675781 65.332031 C 73.472656 66.097656 73.195312 66.835938 72.84375 67.546875 C 72.496094 68.257812 72.078125 68.925781 71.597656 69.554688 C 71.117188 70.183594 70.578125 70.757812 69.984375 71.28125 C 69.390625 71.800781 68.75 72.261719 68.0625 72.660156 C 67.378906 73.054688 66.660156 73.378906 65.910156 73.632812 C 65.160156 73.890625 64.394531 74.070312 63.609375 74.171875 C 62.824219 74.277344 62.035156 74.300781 61.246094 74.25 C 60.457031 74.199219 59.679688 74.070312 58.914062 73.863281 C 58.148438 73.660156 57.414062 73.382812 56.703125 73.03125 C 55.992188 72.683594 55.324219 72.265625 54.695312 71.785156 C 54.066406 71.300781 53.492188 70.761719 52.972656 70.167969 C 52.449219 69.570312 51.992188 68.929688 51.59375 68.246094 C 51.199219 67.558594 50.875 66.84375 50.621094 66.09375 C 50.367188 65.34375 50.1875 64.574219 50.085938 63.789062 C 49.984375 63.003906 49.957031 62.21875 50.011719 61.425781 C 50.0625 60.636719 50.191406 59.859375 50.398438 59.09375 C 50.421875 59.007812 50.457031 58.925781 50.480469 58.835938 L 42.316406 50.671875 L 42.351562 50.640625 C 42.550781 50.441406 42.730469 50.222656 42.886719 49.984375 C 43.046875 49.746094 43.179688 49.5 43.285156 49.234375 C 43.394531 48.972656 43.476562 48.703125 43.53125 48.421875 C 43.589844 48.144531 43.617188 47.863281 43.617188 47.578125 C 43.617188 47.292969 43.589844 47.011719 43.53125 46.734375 C 43.476562 46.453125 43.394531 46.183594 43.285156 45.921875 C 43.179688 45.65625 43.046875 45.410156 42.886719 45.171875 C 42.730469 44.933594 42.550781 44.714844 42.351562 44.515625 L 40.515625 42.679688 L 45.597656 37.597656 L 58.660156 50.660156 C 59.6875 50.359375 60.734375 50.195312 61.804688 50.171875 C 62.871094 50.148438 63.925781 50.269531 64.964844 50.527344 C 66 50.785156 66.984375 51.171875 67.921875 51.695312 C 68.855469 52.214844 69.703125 52.847656 70.46875 53.597656 C 71.234375 54.34375 71.886719 55.179688 72.429688 56.101562 C 72.96875 57.019531 73.382812 57.996094 73.664062 59.027344 C 73.945312 60.0625 74.089844 61.109375 74.089844 62.179688 C 74.09375 63.25 73.953125 64.300781 73.675781 65.332031 Z M 70.515625 59.941406 L 64.308594 53.738281 L 55.832031 56.007812 L 53.558594 64.484375 L 59.765625 70.691406 L 68.242188 68.421875 Z M 73.847656 3.320312 C 73.980469 3.457031 74.058594 3.617188 74.082031 3.804688 C 74.101562 3.992188 74.0625 4.167969 73.960938 4.328125 L 66.859375 15.714844 C 66.722656 15.929688 66.53125 16.0625 66.28125 16.109375 L 62.160156 16.886719 L 36.363281 42.679688 L 40.273438 46.589844 C 40.40625 46.71875 40.507812 46.871094 40.578125 47.042969 C 40.648438 47.214844 40.683594 47.394531 40.683594 47.578125 C 40.683594 47.765625 40.648438 47.941406 40.578125 48.113281 C 40.507812 48.285156 40.40625 48.4375 40.273438 48.566406 L 38.859375 49.984375 C 38.671875 50.160156 38.453125 50.261719 38.199219 50.285156 C 37.945312 50.3125 37.710938 50.257812 37.496094 50.121094 C 37.183594 49.945312 36.855469 49.824219 36.503906 49.757812 C 36.152344 49.6875 35.800781 49.679688 35.449219 49.726562 C 35.09375 49.773438 34.757812 49.878906 34.4375 50.035156 C 34.117188 50.195312 33.832031 50.398438 33.578125 50.652344 C 33.328125 50.90625 33.121094 51.191406 32.964844 51.511719 C 32.804688 51.828125 32.703125 52.167969 32.65625 52.519531 C 32.605469 52.875 32.617188 53.226562 32.683594 53.578125 C 32.75 53.925781 32.875 54.257812 33.050781 54.566406 C 33.183594 54.785156 33.238281 55.019531 33.214844 55.273438 C 33.1875 55.527344 33.085938 55.746094 32.910156 55.929688 L 17.445312 71.398438 C 16.988281 71.855469 16.496094 72.261719 15.960938 72.617188 C 15.425781 72.976562 14.863281 73.277344 14.269531 73.523438 C 13.675781 73.769531 13.066406 73.957031 12.433594 74.082031 C 11.804688 74.207031 11.167969 74.269531 10.527344 74.269531 C 9.882812 74.269531 9.246094 74.207031 8.617188 74.082031 C 7.984375 73.957031 7.375 73.773438 6.78125 73.527344 C 6.1875 73.28125 5.621094 72.980469 5.089844 72.625 C 4.554688 72.265625 4.058594 71.859375 3.605469 71.40625 C 3.152344 70.953125 2.746094 70.457031 2.386719 69.921875 C 2.03125 69.390625 1.730469 68.824219 1.484375 68.230469 C 1.238281 67.636719 1.054688 67.023438 0.925781 66.394531 C 0.800781 65.765625 0.738281 65.128906 0.742188 64.484375 C 0.742188 63.84375 0.804688 63.207031 0.929688 62.578125 C 1.054688 61.945312 1.242188 61.335938 1.488281 60.742188 C 1.734375 60.148438 2.035156 59.582031 2.394531 59.050781 C 2.75 58.515625 3.15625 58.023438 3.613281 57.566406 L 19.082031 42.097656 C 19.265625 41.925781 19.484375 41.824219 19.738281 41.796875 C 19.992188 41.773438 20.226562 41.828125 20.445312 41.960938 C 20.753906 42.136719 21.085938 42.257812 21.433594 42.328125 C 21.785156 42.394531 22.136719 42.40625 22.492188 42.355469 C 22.84375 42.308594 23.179688 42.207031 23.5 42.046875 C 23.820312 41.890625 24.105469 41.683594 24.359375 41.429688 C 24.613281 41.179688 24.816406 40.894531 24.976562 40.574219 C 25.132812 40.253906 25.238281 39.917969 25.285156 39.5625 C 25.332031 39.210938 25.324219 38.859375 25.253906 38.507812 C 25.1875 38.15625 25.066406 37.828125 24.890625 37.515625 C 24.753906 37.300781 24.699219 37.066406 24.726562 36.8125 C 24.75 36.558594 24.851562 36.335938 25.027344 36.152344 L 26.445312 34.734375 C 26.574219 34.605469 26.726562 34.503906 26.898438 34.433594 C 27.070312 34.363281 27.246094 34.328125 27.433594 34.328125 C 27.617188 34.328125 27.796875 34.363281 27.96875 34.433594 C 28.140625 34.503906 28.289062 34.605469 28.421875 34.734375 L 32.332031 38.644531 L 58.125 12.851562 L 58.902344 8.730469 C 58.949219 8.480469 59.078125 8.289062 59.296875 8.152344 L 70.683594 1.050781 C 70.84375 0.949219 71.019531 0.910156 71.207031 0.929688 C 71.394531 0.953125 71.554688 1.03125 71.691406 1.164062 Z M 5.507812 67.199219 L 23.226562 49.480469 L 20.34375 46.597656 L 6.492188 60.449219 C 6.058594 60.882812 5.703125 61.375 5.429688 61.925781 C 5.152344 62.472656 4.96875 63.050781 4.882812 63.660156 C 4.792969 64.269531 4.800781 64.875 4.910156 65.480469 C 5.015625 66.085938 5.214844 66.65625 5.507812 67.199219 Z M 28.414062 54.667969 L 25.53125 51.785156 L 7.8125 69.503906 C 8.351562 69.796875 8.925781 69.996094 9.53125 70.101562 C 10.136719 70.207031 10.742188 70.21875 11.351562 70.128906 C 11.960938 70.039062 12.539062 69.859375 13.085938 69.582031 C 13.636719 69.308594 14.128906 68.953125 14.5625 68.519531 Z M 28.414062 54.667969 "/></g></g></svg>