<svg width="105" height="104" viewBox="0 0 105 104" fill="none" xmlns="http://www.w3.org/2000/svg">
<path d="M12.4512 53.9355C12.4512 53.2903 12.4512 52.6452 12.4512 52C12.4512 29.9355 30.3867 12 52.4512 12C65.4834 12 77.0963 18.3226 84.4512 28" stroke="#FFBF39" stroke-width="2" stroke-miterlimit="10"/>
<path d="M80.7087 80.2581C73.4829 87.4839 63.5474 92 52.4507 92C32.7087 92 16.1926 77.6775 12.9668 58.8387" stroke="#FFBF39" stroke-width="2" stroke-miterlimit="10"/>
<path d="M84.4521 43.3549H59.5488V76.1291H84.4521V43.3549Z" stroke="#FFBF39" stroke-width="2" stroke-miterlimit="10" stroke-linejoin="round"/>
<path d="M84.4521 43.3548H59.5488L64.065 32.5161H88.9682L84.4521 43.3548Z" stroke="#FFBF39" stroke-width="2" stroke-miterlimit="10"/>
<path d="M26.7754 58.8387V43.3549H59.5496V76H26.7754V63.742" stroke="#FFBF39" stroke-width="2" stroke-miterlimit="10" stroke-linejoin="round"/>
<path d="M59.5478 43.3548H26.7736L22.6445 32.5161H55.2897L59.5478 43.3548Z" stroke="#FFBF39" stroke-width="2" stroke-miterlimit="10"/>
<path d="M46.2576 43.3549H38.5156V58.8387H46.2576V43.3549Z" stroke="#FFBF39" stroke-width="2" stroke-miterlimit="10" stroke-linejoin="round"/>
<path d="M80.5801 75.9999H98.9027" stroke="#FFBF39" stroke-width="2" stroke-miterlimit="10"/>
<path d="M6 58.8387H34.9032" stroke="#FFBF39" stroke-width="2" stroke-miterlimit="10"/>
<path d="M6 53.9355H20.4516" stroke="#FFBF39" stroke-width="2" stroke-miterlimit="10"/>
<path d="M20.4512 63.7418H31.4189" stroke="#FFBF39" stroke-width="2" stroke-miterlimit="10"/>
</svg>
