<svg xmlns="http://www.w3.org/2000/svg" xmlns:xlink="http://www.w3.org/1999/xlink" width="100" zoomAndPan="magnify" viewBox="0 0 75 74.999997" height="100" preserveAspectRatio="xMidYMid meet" version="1.2"><defs><clipPath id="25b5dddee2"><path d="M 6.542969 0 L 68.457031 0 L 68.457031 75 L 6.542969 75 Z M 6.542969 0 "/></clipPath><clipPath id="6defc41ff1"><path d="M 36.875 0 C 36.660156 0.0507812 36.460938 0.167969 36.277344 0.351562 C 36.027344 0.601562 35.894531 0.917969 35.894531 1.265625 L 35.894531 11.265625 C 35.894531 11.617188 36.027344 11.933594 36.277344 12.183594 C 36.527344 12.433594 36.828125 12.566406 37.191406 12.566406 C 37.542969 12.566406 37.859375 12.433594 38.109375 12.183594 C 38.359375 11.933594 38.492188 11.632812 38.492188 11.265625 L 38.492188 1.265625 C 38.492188 0.917969 38.375 0.601562 38.109375 0.351562 C 37.945312 0.167969 37.742188 0.0664062 37.511719 0 Z M 15.640625 5.617188 C 15.410156 5.617188 15.191406 5.683594 14.992188 5.800781 C 14.691406 5.984375 14.492188 6.25 14.390625 6.582031 C 14.292969 6.917969 14.339844 7.25 14.523438 7.566406 L 19.625 16.234375 C 19.808594 16.550781 20.074219 16.75 20.425781 16.835938 C 20.542969 16.867188 20.660156 16.882812 20.757812 16.882812 C 20.976562 16.882812 21.191406 16.816406 21.410156 16.699219 C 21.726562 16.519531 21.925781 16.25 22.007812 15.902344 C 22.09375 15.550781 22.058594 15.234375 21.875 14.917969 L 16.757812 6.25 C 16.523438 5.851562 16.160156 5.632812 15.691406 5.617188 C 15.675781 5.617188 15.660156 5.617188 15.640625 5.617188 Z M 58.761719 5.617188 C 58.746094 5.617188 58.726562 5.617188 58.710938 5.617188 C 58.246094 5.632812 57.894531 5.851562 57.644531 6.25 L 52.527344 14.917969 C 52.34375 15.21875 52.292969 15.550781 52.394531 15.902344 C 52.496094 16.25 52.675781 16.519531 52.996094 16.699219 C 53.195312 16.816406 53.410156 16.882812 53.644531 16.882812 C 53.761719 16.882812 53.859375 16.867188 53.976562 16.835938 C 54.328125 16.75 54.59375 16.550781 54.777344 16.234375 L 59.878906 7.566406 C 60.0625 7.265625 60.09375 6.933594 60.011719 6.582031 C 59.929688 6.234375 59.726562 5.984375 59.410156 5.800781 C 59.210938 5.683594 58.996094 5.617188 58.761719 5.617188 Z M 35.242188 25.417969 L 27.609375 38.535156 L 19.976562 25.417969 Z M 55.027344 25.417969 L 47.394531 38.535156 L 39.761719 25.417969 Z M 17.707031 26.703125 L 25.34375 39.820312 L 10.089844 39.820312 Z M 37.492188 26.703125 L 45.128906 39.820312 L 29.859375 39.820312 Z M 57.261719 26.71875 L 64.894531 39.820312 L 49.644531 39.820312 L 57.277344 26.71875 Z M 26.640625 42.402344 L 34.59375 68.589844 L 10.757812 42.402344 Z M 64.246094 42.402344 L 40.410156 68.589844 L 48.34375 42.402344 Z M 45.644531 42.402344 L 37.492188 69.238281 L 29.34375 42.402344 Z M 17.707031 22.835938 C 17.207031 22.835938 16.84375 23.050781 16.59375 23.46875 L 6.757812 40.386719 C 6.742188 40.402344 6.742188 40.417969 6.722656 40.4375 L 6.707031 40.46875 C 6.65625 40.554688 6.625 40.652344 6.589844 40.753906 C 6.574219 40.785156 6.574219 40.835938 6.558594 40.871094 C 6.542969 40.953125 6.542969 41.035156 6.542969 41.136719 C 6.542969 41.167969 6.542969 41.21875 6.542969 41.253906 C 6.558594 41.371094 6.574219 41.46875 6.625 41.570312 C 6.640625 41.621094 6.65625 41.652344 6.691406 41.703125 C 6.742188 41.785156 6.792969 41.871094 6.859375 41.953125 C 6.875 41.96875 6.875 41.984375 6.890625 42.003906 L 36.542969 74.570312 C 36.660156 74.707031 36.808594 74.804688 36.976562 74.886719 C 37.144531 74.972656 37.308594 75.003906 37.492188 75.003906 C 37.675781 75.003906 37.84375 74.972656 38.011719 74.886719 C 38.175781 74.804688 38.328125 74.707031 38.445312 74.570312 L 68.113281 41.96875 C 68.144531 41.9375 68.179688 41.902344 68.195312 41.851562 C 68.195312 41.851562 68.195312 41.851562 68.195312 41.835938 C 68.246094 41.769531 68.296875 41.6875 68.328125 41.621094 C 68.328125 41.621094 68.328125 41.601562 68.328125 41.601562 C 68.34375 41.570312 68.363281 41.535156 68.378906 41.484375 C 68.394531 41.4375 68.394531 41.417969 68.414062 41.371094 C 68.445312 41.234375 68.445312 41.085938 68.445312 40.9375 C 68.429688 40.769531 68.378906 40.601562 68.296875 40.453125 C 68.296875 40.4375 68.277344 40.4375 68.277344 40.417969 L 58.410156 23.46875 C 58.160156 23.035156 57.792969 22.835938 57.292969 22.835938 C 57.292969 22.835938 57.277344 22.835938 57.277344 22.835938 Z M 17.707031 22.835938 "/></clipPath></defs><g id="16695f8e96"><g clip-rule="nonzero" clip-path="url(#25b5dddee2)"><g clip-rule="nonzero" clip-path="url(#6defc41ff1)"><path style=" stroke:none;fill-rule:nonzero;fill:#ffbf39;fill-opacity:1;" d="M 6.542969 0 L 68.457031 0 L 68.457031 74.976562 L 6.542969 74.976562 Z M 6.542969 0 "/></g></g></g></svg>