<svg xmlns="http://www.w3.org/2000/svg" xmlns:xlink="http://www.w3.org/1999/xlink" width="100" zoomAndPan="magnify" viewBox="0 0 75 74.999997" height="100" preserveAspectRatio="xMidYMid meet" version="1.2"><defs><clipPath id="87ca31c2bd"><path d="M 7.5 0 L 69 0 L 69 75 L 7.5 75 Z M 7.5 0 "/></clipPath></defs><g id="c6677d22f5"><g clip-rule="nonzero" clip-path="url(#87ca31c2bd)"><path style=" stroke:none;fill-rule:nonzero;fill:#ffbf39;fill-opacity:1;" d="M 37.519531 74.566406 L 9.074219 74.566406 C 7.5 74.496094 7.96875 72.355469 8.097656 71.304688 C 9.1875 62.523438 12.375 54.863281 21.34375 52.152344 L 22.554688 51.796875 C 23.609375 51.492188 23.476562 51.269531 24.179688 50.496094 C 25.476562 49.066406 27.457031 48.453125 28.597656 46.839844 C 29.667969 45.324219 29.210938 45.5625 28.207031 44.214844 L 26.546875 41.832031 C 25.183594 39.6875 22.738281 34.972656 22.304688 32.359375 C 21.242188 34.925781 17.648438 34.277344 16.019531 32.695312 C 14.582031 31.300781 14.039062 29.191406 14.015625 27.238281 L 14.011719 25.386719 C 14.027344 23.226562 15.039062 20.847656 17.046875 19.867188 C 17.871094 19.464844 17.554688 19.824219 17.640625 18.628906 C 17.695312 17.863281 17.839844 17.089844 18.011719 16.339844 C 20.171875 6.976562 28.304688 0.171875 37.894531 0.0820312 C 38.855469 0.0507812 39.941406 0.0195312 40.886719 0.191406 L 42.257812 0.398438 C 51.765625 2.148438 58.132812 9.347656 59.339844 18.773438 L 59.421875 19.382812 C 59.433594 19.457031 59.414062 19.574219 59.488281 19.609375 C 61.796875 20.683594 62.949219 22.910156 62.96875 25.445312 C 63 28.953125 62.65625 32.816406 58.796875 34 C 58.308594 34.152344 58.433594 34.082031 58.382812 34.585938 L 58.191406 35.976562 C 57.683594 38.792969 56.375 40.769531 53.8125 42.167969 C 52.761719 42.738281 52.0625 43.046875 51.003906 43.722656 L 49.0625 45.019531 C 48.597656 45.34375 48.125 45.652344 47.726562 46.058594 C 48.5625 47.710938 50.453125 48.503906 51.808594 49.648438 L 53.496094 51.226562 C 53.914062 51.640625 54.1875 51.648438 54.75 51.796875 L 55.972656 52.175781 C 62.316406 54.378906 65.777344 58.824219 67.65625 65.21875 C 68.410156 67.800781 68.988281 70.589844 69 73.296875 C 69 73.996094 68.617188 74.515625 67.890625 74.566406 C 66.804688 74.636719 65.675781 74.570312 64.582031 74.570312 Z M 37.683594 2.496094 C 29.777344 3.042969 23.117188 7.765625 20.8125 15.449219 C 20.445312 16.675781 20.226562 17.929688 20.050781 19.195312 L 21.210938 19.21875 C 23.332031 11.796875 29.464844 6.054688 37.351562 5.59375 C 38.035156 5.554688 38.734375 5.578125 39.417969 5.582031 C 47.234375 5.980469 53.660156 11.710938 55.617188 19.214844 L 56.917969 19.128906 C 55.902344 10.871094 50.449219 4.761719 42.453125 2.914062 L 40.59375 2.570312 C 40.160156 2.488281 39.695312 2.496094 39.257812 2.492188 Z M 37.738281 7.996094 C 29.742188 8.484375 24.675781 14.269531 23.121094 21.96875 C 22.867188 23.226562 22.695312 24.472656 22.707031 25.757812 C 28.492188 24.824219 35.222656 22.597656 39.855469 18.84375 C 40.621094 18.207031 41.371094 17.53125 42.050781 16.796875 C 42.617188 16.183594 43.074219 15.035156 44.078125 15.148438 C 44.859375 15.234375 45.164062 16.097656 45.484375 16.699219 C 47.234375 19.964844 49.816406 22.078125 53.46875 22.984375 C 53.570312 23.007812 53.707031 23.070312 53.804688 23.078125 L 53.847656 23.070312 C 53.777344 21.402344 53.363281 19.828125 52.753906 18.28125 C 50.191406 11.742188 44.714844 7.839844 37.738281 7.996094 Z M 43.71875 18.550781 C 38.925781 23.734375 30.59375 26.996094 23.601562 28.03125 C 23.941406 29.484375 24.253906 30.941406 24.726562 32.359375 C 26.132812 36.566406 29.460938 43.351562 33.289062 45.742188 C 37.101562 48.125 40.144531 47.5 44.078125 45.652344 C 45.183594 45.085938 46.121094 44.335938 47.125 43.617188 C 46.730469 43.640625 45.78125 43.480469 45.511719 43.75 L 45.449219 43.839844 C 45.320312 44.042969 45.09375 44.203125 44.902344 44.347656 C 43.496094 45.414062 41.433594 45.882812 39.875 44.820312 C 37.320312 43.078125 38.433594 39.546875 41.289062 39.140625 C 43.070312 38.886719 44.535156 39.496094 45.554688 40.925781 C 48.03125 40.960938 47.824219 40.980469 49.128906 38.996094 C 51.71875 35.066406 52.949219 30.261719 53.59375 25.644531 C 49.667969 24.527344 45.945312 22.570312 43.875 18.875 Z M 56.761719 21.511719 C 56.953125 22.660156 56.925781 23.796875 56.925781 24.957031 L 56.929688 28.542969 C 56.933594 29.5625 56.515625 32.105469 58.085938 31.671875 C 58.671875 31.507812 59.175781 31.085938 59.554688 30.628906 C 60.484375 29.398438 60.558594 27.933594 60.558594 26.445312 C 60.558594 23.738281 59.902344 21.742188 56.761719 21.511719 Z M 19.636719 21.621094 C 18.539062 21.890625 17.660156 22.15625 17.035156 23.1875 C 16.230469 24.507812 16.332031 27.445312 16.703125 28.949219 L 16.757812 29.144531 C 16.957031 29.839844 17.253906 30.417969 17.75 30.945312 C 18.195312 31.359375 18.78125 31.78125 19.421875 31.734375 C 20.242188 31.671875 20.085938 30.578125 20.085938 30 L 20.070312 24.085938 C 20.035156 23.289062 19.945312 22.402344 19.808594 21.621094 C 19.738281 21.601562 19.707031 21.601562 19.636719 21.621094 Z M 54.734375 32.136719 C 54.300781 34.152344 52.628906 38.179688 51.550781 39.71875 C 51.300781 40.070312 51.023438 40.398438 50.835938 40.792969 L 51.933594 40.324219 C 54.757812 38.894531 55.773438 37.183594 56.113281 33.898438 C 55.414062 33.472656 55.089844 32.855469 54.734375 32.136719 Z M 31.074219 47.1875 C 30.832031 47.96875 30.445312 48.753906 29.882812 49.355469 C 30.121094 49.820312 30.429688 50.261719 30.714844 50.703125 L 36.230469 58.757812 C 37.03125 59.921875 38.09375 62.308594 39.59375 60.4375 C 40.074219 59.839844 40.472656 59.152344 40.898438 58.511719 L 42.785156 55.742188 L 47.132812 49.476562 C 46.613281 48.871094 46.273438 48.132812 45.902344 47.433594 C 41 50 36.910156 50.789062 31.902344 47.742188 C 31.628906 47.578125 31.3125 47.402344 31.074219 47.1875 Z M 49.378906 50.671875 C 48.433594 51.679688 47.699219 52.917969 46.921875 54.058594 L 41.757812 61.617188 C 41.3125 62.214844 40.726562 62.914062 40.070312 63.289062 C 39.695312 63.507812 39.679688 63.417969 39.679688 63.855469 L 39.699219 72.144531 L 66.515625 72.132812 L 65.945312 68.121094 C 64.820312 63.34375 62.890625 58.726562 58.5625 56.039062 C 57.996094 55.683594 54.925781 54.109375 54.386719 54.21875 L 54.414062 56.023438 C 54.414062 56.953125 54.390625 57.84375 54.058594 58.730469 C 53.234375 60.945312 51.300781 62.058594 49.046875 62.121094 L 47.914062 62.113281 C 47.265625 62.097656 46.636719 62.117188 46.125 61.648438 C 45.070312 60.683594 45.929688 59.582031 47.320312 59.601562 C 50.992188 59.65625 51.976562 59.320312 51.960938 55.40625 C 51.957031 54.679688 51.976562 53.949219 51.847656 53.234375 C 51.722656 52.539062 49.9375 51.0625 49.378906 50.671875 Z M 27.636719 50.75 C 27 51.160156 26.414062 51.679688 25.902344 52.234375 C 25.136719 53.070312 25.109375 53.59375 25.039062 54.675781 C 24.539062 62.148438 29.410156 58.691406 30.867188 59.785156 C 31.847656 60.519531 31.234375 61.960938 29.960938 62.070312 C 29.078125 62.140625 28.066406 62.171875 27.183594 62.078125 C 24.5 61.789062 22.765625 59.675781 22.589844 57.019531 L 22.613281 54.320312 L 22.105469 54.457031 C 21.558594 54.566406 20.992188 54.8125 20.476562 55.023438 C 14.886719 57.324219 12.148438 62.476562 11 68.1875 C 10.851562 68.964844 10.425781 71.316406 10.5 72.085938 L 37.277344 72.15625 L 37.269531 63.53125 C 37.179688 63.453125 37.09375 63.398438 36.988281 63.339844 C 35.445312 62.515625 34.109375 59.945312 33.144531 58.539062 L 27.933594 51.035156 C 27.847656 50.910156 27.800781 50.753906 27.636719 50.75 Z M 27.636719 50.75 "/></g></g></svg>