<svg xmlns="http://www.w3.org/2000/svg" xmlns:xlink="http://www.w3.org/1999/xlink" width="100" zoomAndPan="magnify" viewBox="0 0 75 74.999997" height="100" preserveAspectRatio="xMidYMid meet" version="1.2"><defs><clipPath id="b2c363c09f"><path d="M 0 0 L 75 0 L 75 74.671875 L 0 74.671875 Z M 0 0 "/></clipPath><clipPath id="8b4b32b9f5"><path d="M 37.496094 0 C 16.796875 0 0 16.796875 0 37.496094 C 0 38.796875 0.0703125 40.074219 0.1875 41.328125 C 0.300781 42.582031 0.511719 43.835938 0.742188 45.046875 C 0.976562 46.253906 1.300781 47.460938 1.671875 48.648438 C 1.789062 49.066406 2.253906 49.320312 2.671875 49.179688 C 3.089844 49.042969 3.320312 48.601562 3.183594 48.183594 C 2.835938 47.066406 2.53125 45.90625 2.300781 44.742188 C 2.066406 43.582031 1.90625 42.375 1.765625 41.167969 C 1.625 39.957031 1.578125 38.726562 1.578125 37.496094 C 1.578125 17.65625 17.65625 1.578125 37.496094 1.578125 C 57.335938 1.578125 73.410156 17.65625 73.410156 37.496094 C 73.410156 38.726562 73.34375 39.957031 73.226562 41.167969 C 73.109375 42.375 72.921875 43.558594 72.667969 44.742188 C 72.414062 45.929688 72.132812 47.066406 71.785156 48.183594 C 71.644531 48.601562 71.878906 49.066406 72.296875 49.179688 C 72.714844 49.296875 73.179688 49.066406 73.296875 48.648438 C 73.667969 47.484375 73.96875 46.277344 74.226562 45.046875 C 74.480469 43.816406 74.667969 42.582031 74.804688 41.328125 C 74.945312 40.074219 74.992188 38.796875 74.992188 37.496094 C 74.992188 16.796875 58.195312 0 37.496094 0 Z M 32.292969 9.457031 C 31.039062 9.5 29.921875 10.339844 29.574219 11.640625 C 29.15625 13.21875 30.0625 14.820312 31.640625 15.238281 L 37.285156 16.75 L 40.191406 13.871094 C 40.632812 13.429688 41.167969 13.078125 41.722656 12.871094 C 41.699219 12.824219 41.675781 12.777344 41.652344 12.730469 C 41.46875 12.40625 41.210938 12.125 40.910156 11.871094 C 40.609375 11.617188 40.261719 11.453125 39.867188 11.359375 L 33.175781 9.570312 C 32.871094 9.5 32.570312 9.457031 32.292969 9.476562 Z M 28.015625 11.3125 C 27.644531 11.429688 27.296875 11.640625 26.996094 11.941406 C 25.878906 13.054688 25.972656 15.03125 27.34375 16.449219 L 36.402344 25.507812 C 37.820312 26.925781 39.820312 26.996094 40.933594 25.878906 C 42.050781 24.765625 41.957031 22.742188 40.5625 21.351562 L 37.726562 18.492188 L 37.355469 18.398438 L 31.246094 16.773438 C 28.875 16.144531 27.4375 13.707031 28.015625 11.3125 Z M 43.375 14.125 C 42.628906 14.125 41.863281 14.425781 41.304688 15.007812 L 38.890625 17.421875 L 41.699219 20.234375 C 43.628906 22.164062 43.882812 25.207031 42.070312 27.019531 C 41.167969 27.925781 39.933594 28.320312 38.679688 28.226562 C 39.402344 29.875 39.097656 31.898438 37.726562 33.246094 C 36.636719 34.335938 35.125 34.753906 33.707031 34.5 C 33.964844 35.914062 33.546875 37.425781 32.453125 38.519531 C 30.6875 40.285156 27.808594 40.285156 26.066406 38.519531 L 25.648438 38.101562 C 25.578125 39.167969 25.136719 40.214844 24.347656 41.027344 C 22.582031 42.792969 19.699219 42.792969 17.957031 41.027344 L 16.679688 39.75 C 14.914062 41.957031 14.378906 45.207031 15.449219 47.601562 C 15.636719 47.902344 15.613281 48.273438 15.378906 48.53125 C 15.355469 48.554688 15.332031 48.578125 15.308594 48.601562 L 10.222656 53.640625 L 16.261719 59.683594 L 22.277344 65.699219 L 26.578125 61.402344 C 26.414062 60.679688 26.34375 59.9375 26.34375 59.148438 L 26.34375 46 C 26.34375 45.558594 26.691406 45.207031 27.132812 45.207031 L 47.855469 45.207031 C 48.296875 45.207031 48.648438 45.558594 48.648438 46 L 48.648438 47.277344 L 59.613281 36.660156 L 61.261719 34.988281 C 62.421875 33.824219 62.421875 31.988281 61.261719 30.828125 C 60.101562 29.667969 58.265625 29.667969 57.101562 30.828125 L 56.289062 31.640625 C 55.988281 31.941406 55.476562 31.941406 55.175781 31.640625 C 54.871094 31.339844 54.871094 30.828125 55.175781 30.527344 L 55.988281 29.714844 C 57.148438 28.550781 57.148438 26.714844 55.988281 25.554688 C 54.828125 24.394531 52.992188 24.394531 51.828125 25.554688 L 51.015625 26.367188 C 50.714844 26.691406 50.203125 26.691406 49.878906 26.390625 C 49.554688 26.089844 49.574219 25.554688 49.902344 25.253906 L 50.714844 24.441406 C 51.875 23.277344 51.875 21.441406 50.714844 20.28125 C 49.554688 19.121094 47.71875 19.121094 46.554688 20.28125 L 45.742188 21.09375 C 45 21.835938 43.882812 20.722656 44.628906 19.980469 L 45.441406 19.164062 C 46.601562 18.003906 46.601562 16.167969 45.441406 15.007812 C 44.859375 14.425781 44.117188 14.148438 43.375 14.148438 Z M 22.859375 15.402344 C 22.117188 15.402344 21.371094 15.703125 20.792969 16.285156 C 19.628906 17.445312 19.628906 19.28125 20.792969 20.445312 L 32.476562 32.128906 C 33.640625 33.289062 35.472656 33.289062 36.636719 32.128906 C 37.796875 30.96875 37.796875 29.132812 36.636719 27.972656 L 35.3125 26.648438 L 34.128906 25.460938 L 24.949219 16.261719 C 24.371094 15.679688 23.625 15.402344 22.882812 15.402344 Z M 17.609375 20.675781 C 16.867188 20.675781 16.121094 20.976562 15.542969 21.558594 C 14.378906 22.71875 14.378906 24.554688 15.542969 25.71875 L 27.226562 37.402344 C 28.390625 38.5625 30.222656 38.5625 31.386719 37.402344 C 32.546875 36.242188 32.546875 34.40625 31.386719 33.246094 L 19.675781 21.535156 C 19.097656 20.953125 18.351562 20.652344 17.609375 20.652344 Z M 15.125 28.808594 C 14.378906 28.808594 13.636719 29.085938 13.054688 29.667969 C 11.894531 30.828125 11.894531 32.664062 13.054688 33.824219 L 19.074219 39.867188 C 20.234375 41.027344 22.070312 41.027344 23.230469 39.867188 C 24.394531 38.703125 24.394531 36.867188 23.230469 35.707031 L 17.191406 29.691406 C 16.609375 29.109375 15.867188 28.832031 15.125 28.832031 Z M 58.359375 40.074219 L 48.648438 49.484375 L 48.648438 59.171875 C 48.648438 60.03125 48.53125 60.867188 48.34375 61.65625 L 52.6875 66.023438 L 58.707031 60.007812 L 64.746094 53.964844 L 59.75 48.972656 C 59.542969 48.832031 59.425781 48.601562 59.402344 48.34375 C 59.402344 48.183594 59.449219 48.019531 59.542969 47.878906 C 60.65625 45.535156 60.078125 42.445312 58.335938 40.121094 Z M 27.949219 46.789062 L 27.949219 59.171875 C 27.949219 63.003906 30.363281 66.09375 32.847656 68.277344 C 35.078125 70.230469 37.054688 71.226562 37.496094 71.4375 C 37.960938 71.203125 39.910156 70.207031 42.140625 68.277344 C 44.628906 66.09375 47.042969 63.003906 47.042969 59.171875 L 47.042969 46.789062 Z M 43.164062 52.78125 C 43.882812 52.757812 44.257812 53.640625 43.746094 54.152344 L 35.984375 61.980469 C 35.683594 62.285156 35.171875 62.285156 34.847656 61.980469 L 31.246094 58.359375 C 30.921875 58.054688 30.921875 57.519531 31.222656 57.21875 C 31.523438 56.917969 32.058594 56.917969 32.363281 57.242188 L 35.40625 60.308594 L 42.605469 53.0625 C 42.746094 52.921875 42.953125 52.828125 43.164062 52.828125 Z M 7.226562 53.640625 C 6.761719 53.640625 6.273438 53.828125 5.925781 54.199219 L 2.136719 57.984375 C 1.394531 58.730469 1.394531 59.867188 2.136719 60.609375 L 15.332031 73.828125 C 16.078125 74.574219 17.214844 74.574219 17.957031 73.828125 L 21.746094 70.042969 C 22.488281 69.300781 22.488281 68.160156 21.746094 67.417969 L 8.550781 54.222656 C 8.175781 53.851562 7.710938 53.664062 7.25 53.664062 Z M 67.765625 53.921875 C 67.300781 53.921875 66.835938 54.105469 66.464844 54.476562 L 53.246094 67.695312 C 52.503906 68.441406 52.503906 69.578125 53.246094 70.320312 L 57.035156 74.109375 C 57.777344 74.851562 58.914062 74.851562 59.660156 74.109375 L 72.855469 60.890625 C 73.597656 60.144531 73.597656 59.007812 72.855469 58.265625 L 69.066406 54.476562 C 68.695312 54.105469 68.230469 53.921875 67.765625 53.921875 Z M 67.765625 53.921875 "/></clipPath></defs><g id="9963b2d385"><g clip-rule="nonzero" clip-path="url(#b2c363c09f)"><g clip-rule="nonzero" clip-path="url(#8b4b32b9f5)"><path style=" stroke:none;fill-rule:nonzero;fill:#ffbf39;fill-opacity:1;" d="M 0 0 L 74.960938 0 L 74.960938 74.671875 L 0 74.671875 Z M 0 0 "/></g></g></g></svg>