<svg xmlns="http://www.w3.org/2000/svg" xmlns:xlink="http://www.w3.org/1999/xlink" width="100" zoomAndPan="magnify" viewBox="0 0 75 74.999997" height="100" preserveAspectRatio="xMidYMid meet" version="1.2"><defs><clipPath id="a8811cb8d9"><path d="M 8.046875 8.417969 L 66.507812 8.417969 L 66.507812 66.878906 L 8.046875 66.878906 Z M 8.046875 8.417969 "/></clipPath><clipPath id="e1e302b87f"><path d="M 59.546875 51.824219 C 59.21875 51.636719 58.992188 51.351562 58.910156 50.980469 C 58.828125 50.609375 58.847656 50.261719 59.054688 49.933594 C 59.261719 49.605469 59.527344 49.378906 59.898438 49.296875 C 60.265625 49.214844 60.617188 49.234375 60.945312 49.441406 L 63.285156 50.796875 C 65.21875 47.054688 66.285156 43.070312 66.472656 38.859375 L 63.78125 38.859375 C 63.390625 38.859375 63.058594 38.714844 62.792969 38.449219 C 62.527344 38.179688 62.382812 37.851562 62.382812 37.460938 C 62.382812 37.070312 62.527344 36.742188 62.792969 36.476562 C 63.058594 36.210938 63.390625 36.066406 63.78125 36.066406 L 66.472656 36.066406 C 66.285156 31.855469 65.21875 27.890625 63.285156 24.128906 L 60.945312 25.484375 C 60.617188 25.671875 60.265625 25.730469 59.898438 25.628906 C 59.527344 25.527344 59.238281 25.320312 59.054688 24.992188 C 58.871094 24.664062 58.808594 24.3125 58.910156 23.945312 C 59.011719 23.574219 59.21875 23.285156 59.546875 23.101562 L 61.890625 21.746094 C 59.609375 18.210938 56.691406 15.296875 53.160156 13.015625 L 51.800781 15.355469 C 51.617188 15.6875 51.328125 15.910156 50.960938 15.992188 C 50.589844 16.074219 50.242188 16.054688 49.914062 15.851562 C 49.582031 15.644531 49.359375 15.378906 49.277344 15.007812 C 49.191406 14.636719 49.214844 14.289062 49.417969 13.960938 L 50.773438 11.617188 C 47.035156 9.6875 43.050781 8.617188 38.839844 8.433594 L 38.839844 11.125 C 38.839844 11.515625 38.695312 11.84375 38.429688 12.109375 C 38.160156 12.378906 37.832031 12.523438 37.441406 12.523438 C 37.050781 12.523438 36.722656 12.378906 36.457031 12.109375 C 36.1875 11.84375 36.046875 11.515625 36.046875 11.125 L 36.046875 8.453125 C 31.832031 8.640625 27.867188 9.707031 24.109375 11.636719 L 25.464844 13.980469 C 25.648438 14.308594 25.710938 14.660156 25.609375 15.027344 C 25.503906 15.398438 25.300781 15.6875 24.972656 15.871094 C 24.644531 16.054688 24.292969 16.117188 23.925781 16.015625 C 23.554688 15.910156 23.265625 15.707031 23.082031 15.378906 L 21.726562 13.035156 C 18.191406 15.316406 15.273438 18.234375 12.996094 21.765625 L 15.335938 23.121094 C 15.664062 23.308594 15.890625 23.59375 15.972656 23.964844 C 16.054688 24.335938 16.035156 24.683594 15.828125 25.011719 C 15.625 25.339844 15.355469 25.566406 14.988281 25.648438 C 14.617188 25.730469 14.269531 25.710938 13.9375 25.503906 L 11.597656 24.148438 C 9.667969 27.890625 8.597656 31.875 8.414062 36.085938 L 11.105469 36.085938 C 11.496094 36.085938 11.824219 36.230469 12.089844 36.496094 C 12.359375 36.765625 12.5 37.09375 12.5 37.484375 C 12.5 37.875 12.359375 38.203125 12.089844 38.46875 C 11.824219 38.734375 11.496094 38.878906 11.105469 38.878906 L 8.453125 38.878906 C 8.640625 43.089844 9.707031 47.054688 11.636719 50.816406 L 13.980469 49.460938 C 14.308594 49.277344 14.660156 49.214844 15.027344 49.316406 C 15.398438 49.417969 15.6875 49.625 15.871094 49.953125 C 16.054688 50.28125 16.117188 50.632812 16.015625 51 C 15.910156 51.371094 15.707031 51.660156 15.378906 51.84375 L 13.035156 53.199219 C 15.316406 56.734375 18.234375 59.648438 21.765625 61.929688 L 23.121094 59.589844 C 23.308594 59.261719 23.59375 59.035156 23.964844 58.953125 C 24.335938 58.871094 24.683594 58.890625 25.011719 59.09375 C 25.339844 59.300781 25.566406 59.566406 25.648438 59.9375 C 25.730469 60.308594 25.710938 60.65625 25.503906 60.984375 L 24.148438 63.328125 C 27.890625 65.257812 31.875 66.328125 36.085938 66.511719 L 36.085938 63.78125 C 36.085938 63.390625 36.230469 63.058594 36.496094 62.792969 C 36.765625 62.527344 37.09375 62.382812 37.484375 62.382812 C 37.875 62.382812 38.203125 62.527344 38.46875 62.792969 C 38.734375 63.058594 38.878906 63.390625 38.878906 63.78125 L 38.878906 66.472656 C 43.089844 66.285156 47.054688 65.21875 50.816406 63.285156 L 49.460938 60.945312 C 49.277344 60.617188 49.214844 60.265625 49.316406 59.898438 C 49.417969 59.527344 49.625 59.238281 49.953125 59.054688 C 50.28125 58.871094 50.632812 58.808594 51 58.910156 C 51.371094 59.011719 51.660156 59.21875 51.84375 59.546875 L 53.199219 61.890625 C 56.734375 59.609375 59.648438 56.691406 61.929688 53.160156 L 59.589844 51.800781 Z M 49.707031 45.125 C 49.5 45.453125 49.214844 45.660156 48.84375 45.742188 C 48.472656 45.824219 48.125 45.761719 47.796875 45.558594 L 36.722656 38.632812 C 36.292969 38.367188 36.066406 37.976562 36.066406 37.460938 L 36.066406 22.238281 C 36.066406 21.847656 36.210938 21.519531 36.476562 21.253906 C 36.742188 20.984375 37.070312 20.84375 37.460938 20.84375 C 37.851562 20.84375 38.179688 20.984375 38.449219 21.253906 C 38.714844 21.519531 38.859375 21.847656 38.859375 22.238281 L 38.859375 36.703125 L 49.277344 43.214844 C 49.605469 43.421875 49.808594 43.707031 49.890625 44.078125 C 49.972656 44.449219 49.914062 44.796875 49.707031 45.125 Z M 49.707031 45.125 "/></clipPath><clipPath id="bb4ac06746"><path d="M 37.460938 0.0703125 C 36.230469 0.0703125 35.019531 0.132812 33.804688 0.257812 C 32.59375 0.378906 31.382812 0.566406 30.167969 0.792969 C 28.957031 1.015625 27.785156 1.324219 26.613281 1.675781 C 25.445312 2.023438 24.292969 2.433594 23.164062 2.90625 C 22.035156 3.378906 20.925781 3.894531 19.855469 4.46875 C 18.789062 5.042969 17.71875 5.679688 16.710938 6.359375 C 15.707031 7.035156 14.71875 7.777344 13.773438 8.535156 C 12.828125 9.296875 11.925781 10.140625 11.0625 11 C 10.199219 11.863281 9.378906 12.769531 8.597656 13.714844 C 7.816406 14.660156 7.097656 15.644531 6.421875 16.652344 C 5.742188 17.65625 5.105469 18.726562 4.53125 19.792969 C 3.953125 20.863281 3.421875 21.972656 2.96875 23.101562 C 2.515625 24.230469 2.085938 25.382812 1.734375 26.554688 C 1.386719 27.722656 1.078125 28.917969 0.851562 30.109375 C 0.625 31.300781 0.441406 32.511719 0.320312 33.742188 C 0.195312 34.976562 0.0703125 36.230469 0.0703125 37.460938 C 0.0703125 38.695312 0.132812 39.90625 0.257812 41.121094 C 0.378906 42.332031 0.566406 43.542969 0.792969 44.753906 C 1.015625 45.96875 1.324219 47.140625 1.675781 48.308594 C 2.023438 49.480469 2.433594 50.632812 2.90625 51.761719 C 3.378906 52.890625 3.894531 54 4.46875 55.070312 C 5.042969 56.136719 5.679688 57.207031 6.359375 58.210938 C 7.035156 59.21875 7.777344 60.203125 8.535156 61.148438 C 9.296875 62.09375 10.140625 63 11 63.863281 C 11.863281 64.726562 12.769531 65.546875 13.714844 66.328125 C 14.660156 67.109375 15.644531 67.828125 16.652344 68.503906 C 17.65625 69.183594 18.726562 69.820312 19.792969 70.394531 C 20.863281 70.96875 21.972656 71.503906 23.101562 71.957031 C 24.230469 72.40625 25.382812 72.839844 26.554688 73.1875 C 27.722656 73.539062 28.917969 73.847656 30.109375 74.070312 C 31.300781 74.296875 32.511719 74.484375 33.742188 74.605469 C 34.976562 74.730469 36.1875 74.792969 37.402344 74.792969 C 38.613281 74.792969 39.84375 74.730469 41.058594 74.605469 C 42.269531 74.484375 43.480469 74.296875 44.695312 74.070312 C 45.90625 73.847656 47.078125 73.539062 48.25 73.1875 C 49.417969 72.839844 50.570312 72.429688 51.699219 71.957031 C 52.828125 71.484375 53.9375 70.96875 55.007812 70.394531 C 56.074219 69.820312 57.144531 69.183594 58.152344 68.503906 C 59.15625 67.828125 60.144531 67.085938 61.089844 66.328125 C 62.035156 65.566406 62.9375 64.726562 63.800781 63.863281 C 64.664062 63 65.484375 62.09375 66.265625 61.148438 C 67.046875 60.203125 67.765625 59.21875 68.441406 58.210938 C 69.121094 57.207031 69.757812 56.136719 70.332031 55.070312 C 70.910156 54 71.441406 52.890625 71.894531 51.761719 C 72.347656 50.632812 72.777344 49.480469 73.128906 48.308594 C 73.476562 47.140625 73.785156 45.945312 74.011719 44.753906 C 74.238281 43.5625 74.421875 42.351562 74.542969 41.121094 C 74.667969 39.886719 74.730469 38.675781 74.730469 37.460938 C 74.730469 36.25 74.667969 35.019531 74.542969 33.804688 C 74.421875 32.59375 74.238281 31.382812 74.011719 30.167969 C 73.785156 28.957031 73.476562 27.785156 73.105469 26.613281 C 72.738281 25.445312 72.347656 24.292969 71.875 23.164062 C 71.402344 22.035156 70.886719 20.925781 70.3125 19.855469 C 69.738281 18.789062 69.101562 17.71875 68.421875 16.710938 C 67.746094 15.707031 67.003906 14.71875 66.246094 13.773438 C 65.484375 12.828125 64.640625 11.925781 63.78125 11.0625 C 62.917969 10.199219 62.011719 9.378906 61.066406 8.597656 C 60.121094 7.816406 59.136719 7.097656 58.128906 6.421875 C 57.125 5.742188 56.054688 5.105469 54.988281 4.53125 C 53.917969 3.953125 52.808594 3.421875 51.679688 2.96875 C 50.550781 2.515625 49.398438 2.085938 48.226562 1.734375 C 47.054688 1.386719 45.863281 1.078125 44.671875 0.832031 C 43.480469 0.585938 42.269531 0.421875 41.039062 0.296875 C 39.804688 0.175781 38.695312 0.0703125 37.460938 0.0703125 Z M 37.460938 69.304688 C 35.367188 69.304688 33.292969 69.101562 31.257812 68.691406 C 29.222656 68.277344 27.210938 67.683594 25.28125 66.882812 C 23.347656 66.082031 21.519531 65.09375 19.773438 63.945312 C 18.027344 62.792969 16.425781 61.457031 14.945312 59.980469 C 13.46875 58.5 12.152344 56.898438 10.980469 55.152344 C 9.808594 53.40625 8.84375 51.578125 8.042969 49.644531 C 7.242188 47.714844 6.644531 45.722656 6.234375 43.667969 C 5.824219 41.613281 5.617188 39.539062 5.617188 37.460938 C 5.617188 35.386719 5.824219 33.292969 6.234375 31.257812 C 6.644531 29.222656 7.242188 27.210938 8.042969 25.28125 C 8.84375 23.347656 9.832031 21.519531 10.980469 19.773438 C 12.132812 18.027344 13.46875 16.425781 14.945312 14.945312 C 16.425781 13.46875 18.027344 12.152344 19.773438 10.980469 C 21.519531 9.808594 23.347656 8.84375 25.28125 8.042969 C 27.210938 7.242188 29.203125 6.644531 31.257812 6.234375 C 33.3125 5.824219 35.386719 5.617188 37.460938 5.617188 C 39.539062 5.617188 41.632812 5.824219 43.667969 6.234375 C 45.699219 6.644531 47.714844 7.242188 49.644531 8.042969 C 51.578125 8.84375 53.40625 9.832031 55.152344 10.980469 C 56.898438 12.132812 58.5 13.46875 59.980469 14.945312 C 61.457031 16.425781 62.773438 18.027344 63.945312 19.773438 C 65.113281 21.519531 66.082031 23.347656 66.882812 25.28125 C 67.683594 27.210938 68.277344 29.203125 68.691406 31.257812 C 69.101562 33.3125 69.304688 35.386719 69.304688 37.460938 C 69.304688 39.539062 69.101562 41.632812 68.691406 43.667969 C 68.277344 45.699219 67.683594 47.714844 66.859375 49.644531 C 66.039062 51.578125 65.074219 53.40625 63.921875 55.152344 C 62.773438 56.898438 61.4375 58.5 59.957031 59.980469 C 58.480469 61.457031 56.875 62.773438 55.128906 63.945312 C 53.382812 65.113281 51.554688 66.082031 49.625 66.882812 C 47.695312 67.683594 45.699219 68.300781 43.644531 68.710938 C 41.59375 69.121094 39.515625 69.328125 37.441406 69.328125 Z M 37.460938 69.304688 "/></clipPath></defs><g id="8f6d14091a"><g clip-rule="nonzero" clip-path="url(#a8811cb8d9)"><g clip-rule="nonzero" clip-path="url(#e1e302b87f)"><rect x="0" width="75" y="0" height="74.999997" style="fill:#100f0d;fill-opacity:1;stroke:none;"/></g></g><g clip-rule="nonzero" clip-path="url(#bb4ac06746)"><rect x="0" width="75" y="0" height="74.999997" style="fill:#100f0d;fill-opacity:1;stroke:none;"/></g></g></svg>