<svg xmlns="http://www.w3.org/2000/svg" xmlns:xlink="http://www.w3.org/1999/xlink" width="84" zoomAndPan="magnify" viewBox="0 0 63 62.999997" height="84" preserveAspectRatio="xMidYMid meet" version="1.2"><defs><clipPath id="6b1bd84dd0"><path d="M 1.726562 31 L 31 31 L 31 61 L 1.726562 61 Z M 1.726562 31 "/></clipPath><clipPath id="c5f6e5cf44"><path d="M 32 1.800781 L 60.976562 1.800781 L 60.976562 34 L 32 34 Z M 32 1.800781 "/></clipPath><clipPath id="cff353934e"><path d="M 1.726562 1.800781 L 23 1.800781 L 23 27 L 1.726562 27 Z M 1.726562 1.800781 "/></clipPath><clipPath id="b354b79371"><path d="M 39 36 L 60.976562 36 L 60.976562 61 L 39 61 Z M 39 36 "/></clipPath></defs><g id="78b04bc89d"><g clip-rule="nonzero" clip-path="url(#6b1bd84dd0)"><path style=" stroke:none;fill-rule:nonzero;fill:#ffbf39;fill-opacity:1;" d="M 30.058594 50.992188 C 26.921875 50.992188 23.78125 50.160156 21.105469 48.589844 C 20.738281 48.40625 20.273438 48.40625 20 48.777344 L 17.785156 50.992188 C 15.476562 49.421875 13.445312 47.390625 11.875 45.082031 L 14.09375 42.867188 C 14.367188 42.59375 14.460938 42.128906 14.277344 41.761719 C 12.707031 39.085938 11.875 35.945312 11.875 32.808594 C 11.875 32.253906 11.507812 31.886719 10.953125 31.886719 L 2.738281 31.886719 C 2.1875 31.886719 1.816406 32.253906 1.816406 32.808594 C 1.816406 32.902344 1.816406 32.902344 1.816406 32.992188 C 1.910156 48.40625 14.554688 60.957031 30.058594 60.957031 C 30.613281 60.957031 30.980469 60.589844 30.980469 60.035156 L 30.980469 51.914062 C 30.980469 51.359375 30.519531 50.992188 30.058594 50.992188 Z M 29.136719 59.113281 C 15.292969 58.652344 4.125 47.484375 3.664062 33.640625 L 9.9375 33.640625 C 10.03125 36.59375 10.863281 39.453125 12.152344 41.945312 L 9.9375 44.160156 C 9.660156 44.4375 9.570312 44.898438 9.847656 45.269531 C 11.785156 48.3125 14.367188 50.898438 17.320312 52.742188 C 17.691406 52.929688 18.152344 52.929688 18.429688 52.652344 L 20.644531 50.4375 C 23.226562 51.820312 26.089844 52.558594 28.949219 52.652344 L 28.949219 59.113281 Z M 29.136719 59.113281 "/></g><path style=" stroke:none;fill-rule:nonzero;fill:#ffbf39;fill-opacity:1;" d="M 25.167969 42.867188 C 25.167969 43.421875 25.535156 43.792969 26.089844 43.792969 C 26.644531 43.792969 27.011719 43.421875 27.011719 42.867188 C 27.011719 38.902344 23.78125 35.761719 19.90625 35.761719 C 19.351562 35.761719 18.984375 36.132812 18.984375 36.683594 C 18.984375 37.238281 19.351562 37.609375 19.90625 37.609375 C 22.765625 37.609375 25.167969 40.007812 25.167969 42.867188 Z M 25.167969 42.867188 "/><path style=" stroke:none;fill-rule:nonzero;fill:#ffbf39;fill-opacity:1;" d="M 19.90625 31.242188 C 19.351562 31.242188 18.984375 31.609375 18.984375 32.164062 C 18.984375 32.71875 19.351562 33.085938 19.90625 33.085938 C 25.351562 33.085938 29.6875 37.515625 29.6875 42.867188 C 29.6875 43.421875 30.058594 43.792969 30.613281 43.792969 C 31.164062 43.792969 31.535156 43.421875 31.535156 42.867188 C 31.535156 36.5 26.273438 31.242188 19.90625 31.242188 Z M 19.90625 31.242188 "/><g clip-rule="nonzero" clip-path="url(#c5f6e5cf44)"><path style=" stroke:none;fill-rule:nonzero;fill:#ffbf39;fill-opacity:1;" d="M 60.882812 27.179688 C 60.882812 20.71875 56.546875 15.367188 50.636719 13.613281 C 52.207031 12.414062 53.316406 10.476562 53.316406 8.351562 C 53.316406 4.753906 50.363281 1.800781 46.761719 1.800781 C 43.164062 1.800781 40.210938 4.753906 40.210938 8.351562 C 40.210938 10.476562 41.226562 12.414062 42.886719 13.613281 C 36.980469 15.367188 32.734375 20.902344 32.734375 27.179688 C 32.734375 32.253906 41.6875 33.546875 46.855469 33.546875 C 53.777344 33.546875 60.882812 31.609375 60.882812 27.179688 Z M 42.148438 8.445312 C 42.148438 5.859375 44.269531 3.738281 46.855469 3.738281 C 49.4375 3.738281 51.5625 5.859375 51.5625 8.445312 C 51.5625 11.027344 49.4375 13.152344 46.855469 13.152344 C 44.269531 13.152344 42.148438 11.027344 42.148438 8.445312 Z M 34.582031 27.179688 C 34.582031 24.59375 35.410156 22.289062 36.703125 20.257812 L 40.671875 20.257812 C 41.226562 20.257812 41.59375 19.890625 41.59375 19.335938 C 41.59375 18.78125 41.226562 18.414062 40.671875 18.414062 L 38.273438 18.414062 C 40.488281 16.289062 43.53125 14.90625 46.855469 14.90625 C 52.761719 14.90625 57.746094 19.152344 58.851562 24.6875 L 55.4375 24.6875 C 54.882812 24.6875 54.515625 25.058594 54.515625 25.609375 C 54.515625 26.164062 54.882812 26.535156 55.4375 26.535156 L 59.035156 26.535156 C 59.035156 26.71875 59.035156 26.902344 59.035156 27.085938 C 59.035156 29.671875 53.777344 31.609375 46.761719 31.609375 C 39.75 31.609375 34.582031 29.765625 34.582031 27.179688 Z M 34.582031 27.179688 "/></g><g clip-rule="nonzero" clip-path="url(#cff353934e)"><path style=" stroke:none;fill-rule:nonzero;fill:#ffbf39;fill-opacity:1;" d="M 2.738281 26.625 C 3.292969 26.625 3.664062 26.257812 3.664062 25.703125 C 3.664062 16.289062 10.863281 8.445312 20.089844 7.523438 L 17.691406 10.753906 C 17.414062 11.121094 17.507812 11.765625 17.875 12.042969 C 18.246094 12.320312 18.890625 12.230469 19.167969 11.859375 L 22.765625 6.96875 C 23.042969 6.597656 22.953125 6.046875 22.582031 5.675781 L 17.785156 2.078125 C 17.414062 1.800781 16.769531 1.890625 16.492188 2.261719 C 16.121094 2.628906 16.214844 3.277344 16.675781 3.554688 L 19.535156 5.675781 C 9.570312 6.96875 1.816406 15.457031 1.816406 25.703125 C 1.816406 26.164062 2.277344 26.625 2.738281 26.625 Z M 2.738281 26.625 "/></g><g clip-rule="nonzero" clip-path="url(#b354b79371)"><path style=" stroke:none;fill-rule:nonzero;fill:#ffbf39;fill-opacity:1;" d="M 59.960938 36.222656 C 59.40625 36.222656 59.035156 36.59375 59.035156 37.148438 C 59.035156 46.558594 51.839844 54.40625 42.609375 55.328125 L 45.007812 52.097656 C 45.285156 51.730469 45.195312 51.082031 44.824219 50.804688 C 44.457031 50.527344 43.808594 50.621094 43.53125 50.992188 L 39.933594 55.882812 C 39.65625 56.25 39.75 56.898438 40.117188 57.175781 L 44.917969 60.773438 C 45.285156 61.050781 45.933594 60.957031 46.207031 60.589844 C 46.484375 60.21875 46.394531 59.574219 46.023438 59.296875 L 43.164062 57.175781 C 53.222656 55.882812 60.882812 47.390625 60.882812 37.148438 C 60.882812 36.683594 60.511719 36.222656 59.960938 36.222656 Z M 59.960938 36.222656 "/></g></g></svg>