<svg xmlns="http://www.w3.org/2000/svg" xmlns:xlink="http://www.w3.org/1999/xlink" width="84" zoomAndPan="magnify" viewBox="0 0 63 62.999997" height="84" preserveAspectRatio="xMidYMid meet" version="1.0"><defs><clipPath id="5955c0219d"><path d="M 0.75 31 L 32 31 L 32 62.25 L 0.75 62.25 Z M 0.75 31 " clip-rule="nonzero"/></clipPath><clipPath id="2841239fbd"><path d="M 32 0.75 L 62.25 0.75 L 62.25 34 L 32 34 Z M 32 0.75 " clip-rule="nonzero"/></clipPath><clipPath id="74b12130a7"><path d="M 0.75 0.75 L 23 0.75 L 23 27 L 0.75 27 Z M 0.75 0.75 " clip-rule="nonzero"/></clipPath><clipPath id="d500d114f9"><path d="M 40 36 L 62.25 36 L 62.25 62.25 L 40 62.25 Z M 40 36 " clip-rule="nonzero"/></clipPath></defs><g clip-path="url(#5955c0219d)"><path fill="#ffbf39" d="M 30.160156 51.808594 C 26.902344 51.808594 23.644531 50.945312 20.867188 49.316406 C 20.484375 49.125 20.003906 49.125 19.71875 49.507812 L 17.417969 51.808594 C 15.023438 50.179688 12.914062 48.074219 11.289062 45.675781 L 13.585938 43.378906 C 13.875 43.089844 13.96875 42.613281 13.777344 42.230469 C 12.148438 39.449219 11.289062 36.195312 11.289062 32.9375 C 11.289062 32.363281 10.902344 31.980469 10.328125 31.980469 L 1.804688 31.980469 C 1.230469 31.980469 0.847656 32.363281 0.847656 32.9375 C 0.847656 33.03125 0.847656 33.03125 0.847656 33.128906 C 0.941406 49.125 14.066406 62.152344 30.160156 62.152344 C 30.734375 62.152344 31.117188 61.769531 31.117188 61.195312 L 31.117188 52.765625 C 31.117188 52.191406 30.636719 51.808594 30.160156 51.808594 Z M 29.199219 60.238281 C 14.832031 59.757812 3.242188 48.167969 2.761719 33.800781 L 9.277344 33.800781 C 9.371094 36.863281 10.234375 39.835938 11.574219 42.421875 L 9.277344 44.71875 C 8.988281 45.007812 8.890625 45.484375 9.179688 45.871094 C 11.191406 49.03125 13.875 51.710938 16.9375 53.628906 C 17.324219 53.820312 17.800781 53.820312 18.089844 53.53125 L 20.386719 51.234375 C 23.070312 52.671875 26.039062 53.4375 29.007812 53.53125 L 29.007812 60.238281 Z M 29.199219 60.238281 " fill-opacity="1" fill-rule="nonzero"/></g><path fill="#ffbf39" d="M 25.082031 43.378906 C 25.082031 43.953125 25.464844 44.335938 26.039062 44.335938 C 26.613281 44.335938 26.996094 43.953125 26.996094 43.378906 C 26.996094 39.257812 23.644531 36.003906 19.621094 36.003906 C 19.046875 36.003906 18.664062 36.386719 18.664062 36.960938 C 18.664062 37.535156 19.046875 37.917969 19.621094 37.917969 C 22.589844 37.917969 25.082031 40.410156 25.082031 43.378906 Z M 25.082031 43.378906 " fill-opacity="1" fill-rule="nonzero"/><path fill="#ffbf39" d="M 19.621094 31.308594 C 19.046875 31.308594 18.664062 31.691406 18.664062 32.265625 C 18.664062 32.839844 19.046875 33.222656 19.621094 33.222656 C 25.273438 33.222656 29.777344 37.824219 29.777344 43.378906 C 29.777344 43.953125 30.160156 44.335938 30.734375 44.335938 C 31.308594 44.335938 31.691406 43.953125 31.691406 43.378906 C 31.691406 36.769531 26.230469 31.308594 19.621094 31.308594 Z M 19.621094 31.308594 " fill-opacity="1" fill-rule="nonzero"/><g clip-path="url(#2841239fbd)"><path fill="#ffbf39" d="M 62.152344 27.09375 C 62.152344 20.386719 57.652344 14.832031 51.519531 13.011719 C 53.148438 11.765625 54.300781 9.753906 54.300781 7.550781 C 54.300781 3.816406 51.234375 0.75 47.496094 0.75 C 43.761719 0.75 40.695312 3.816406 40.695312 7.550781 C 40.695312 9.753906 41.75 11.765625 43.472656 13.011719 C 37.34375 14.832031 32.9375 20.578125 32.9375 27.09375 C 32.9375 32.363281 42.230469 33.703125 47.59375 33.703125 C 54.777344 33.703125 62.152344 31.691406 62.152344 27.09375 Z M 42.707031 7.648438 C 42.707031 4.964844 44.910156 2.761719 47.59375 2.761719 C 50.277344 2.761719 52.480469 4.964844 52.480469 7.648438 C 52.480469 10.328125 50.277344 12.53125 47.59375 12.53125 C 44.910156 12.53125 42.707031 10.328125 42.707031 7.648438 Z M 34.851562 27.09375 C 34.851562 24.410156 35.714844 22.015625 37.054688 19.910156 L 41.175781 19.910156 C 41.75 19.910156 42.132812 19.527344 42.132812 18.949219 C 42.132812 18.375 41.75 17.992188 41.175781 17.992188 L 38.683594 17.992188 C 40.984375 15.789062 44.144531 14.351562 47.59375 14.351562 C 53.722656 14.351562 58.898438 18.757812 60.046875 24.507812 L 56.503906 24.507812 C 55.925781 24.507812 55.542969 24.890625 55.542969 25.464844 C 55.542969 26.039062 55.925781 26.421875 56.503906 26.421875 L 60.238281 26.421875 C 60.238281 26.613281 60.238281 26.804688 60.238281 26.996094 C 60.238281 29.679688 54.777344 31.691406 47.496094 31.691406 C 40.21875 31.691406 34.851562 29.777344 34.851562 27.09375 Z M 34.851562 27.09375 " fill-opacity="1" fill-rule="nonzero"/></g><g clip-path="url(#74b12130a7)"><path fill="#ffbf39" d="M 1.804688 26.519531 C 2.378906 26.519531 2.761719 26.136719 2.761719 25.5625 C 2.761719 15.789062 10.234375 7.648438 19.8125 6.6875 L 17.324219 10.042969 C 17.035156 10.425781 17.128906 11.097656 17.515625 11.382812 C 17.898438 11.671875 18.566406 11.574219 18.855469 11.191406 L 22.589844 6.113281 C 22.878906 5.730469 22.78125 5.15625 22.398438 4.773438 L 17.417969 1.039062 C 17.035156 0.75 16.363281 0.847656 16.078125 1.230469 C 15.695312 1.613281 15.789062 2.28125 16.269531 2.570312 L 19.238281 4.773438 C 8.890625 6.113281 0.847656 14.925781 0.847656 25.5625 C 0.847656 26.039062 1.324219 26.519531 1.804688 26.519531 Z M 1.804688 26.519531 " fill-opacity="1" fill-rule="nonzero"/></g><g clip-path="url(#d500d114f9)"><path fill="#ffbf39" d="M 61.195312 36.480469 C 60.621094 36.480469 60.238281 36.863281 60.238281 37.4375 C 60.238281 47.210938 52.765625 55.351562 43.1875 56.3125 L 45.675781 52.957031 C 45.964844 52.574219 45.871094 51.902344 45.484375 51.617188 C 45.101562 51.328125 44.433594 51.425781 44.144531 51.808594 L 40.410156 56.886719 C 40.121094 57.269531 40.21875 57.9375 40.601562 58.226562 L 45.582031 61.960938 C 45.964844 62.25 46.636719 62.152344 46.921875 61.769531 C 47.210938 61.386719 47.113281 60.71875 46.730469 60.429688 L 43.761719 58.226562 C 54.203125 56.886719 62.152344 48.074219 62.152344 37.4375 C 62.152344 36.960938 61.769531 36.480469 61.195312 36.480469 Z M 61.195312 36.480469 " fill-opacity="1" fill-rule="nonzero"/></g></svg>