<svg xmlns="http://www.w3.org/2000/svg" xmlns:xlink="http://www.w3.org/1999/xlink" width="84" zoomAndPan="magnify" viewBox="0 0 63 62.999997" height="84" preserveAspectRatio="xMidYMid meet" version="1.2"><defs><clipPath id="09d5d04574"><path d="M 5.011719 2.109375 L 58 2.109375 L 58 60.609375 L 5.011719 60.609375 Z M 5.011719 2.109375 "/></clipPath></defs><g id="6cefc1910e"><g clip-rule="nonzero" clip-path="url(#09d5d04574)"><path style=" stroke:none;fill-rule:nonzero;fill:#ffbf39;fill-opacity:1;" d="M 52.824219 54.761719 L 13.824219 54.761719 C 14.4375 53.945312 14.800781 52.933594 14.800781 51.835938 L 55.75 51.835938 C 55.75 53.449219 54.4375 54.761719 52.824219 54.761719 Z M 49.902344 57.6875 C 49.902344 58.222656 49.464844 58.660156 48.925781 58.660156 L 7.976562 58.660156 C 7.4375 58.660156 7 58.222656 7 57.6875 L 7 55.734375 C 7.816406 56.347656 8.828125 56.710938 9.925781 56.710938 L 49.902344 56.710938 Z M 7 5.035156 C 7 4.5 7.4375 4.0625 7.976562 4.0625 L 48.925781 4.0625 C 49.464844 4.0625 49.902344 4.5 49.902344 5.035156 L 49.902344 49.886719 L 12.851562 49.886719 L 12.851562 51.835938 C 12.851562 53.449219 11.539062 54.761719 9.925781 54.761719 C 8.3125 54.761719 7 53.449219 7 51.835938 Z M 51.851562 49.886719 L 51.851562 5.035156 C 51.851562 3.421875 50.539062 2.109375 48.925781 2.109375 L 7.976562 2.109375 C 6.363281 2.109375 5.050781 3.421875 5.050781 5.035156 L 5.050781 57.6875 C 5.050781 59.296875 6.363281 60.609375 7.976562 60.609375 L 48.925781 60.609375 C 50.539062 60.609375 51.851562 59.296875 51.851562 57.6875 L 51.851562 56.710938 L 52.824219 56.710938 C 55.515625 56.710938 57.699219 54.523438 57.699219 51.835938 L 57.699219 49.886719 L 51.851562 49.886719 "/></g><path style=" stroke:none;fill-rule:nonzero;fill:#ffbf39;fill-opacity:1;" d="M 45.027344 20.636719 L 38.199219 20.636719 L 38.199219 17.710938 L 45.027344 17.710938 Z M 45.027344 37.210938 L 38.199219 37.210938 L 38.199219 22.585938 L 45.027344 22.585938 Z M 36.25 20.636719 L 28.449219 20.636719 L 28.449219 17.710938 L 36.25 17.710938 Z M 36.25 37.210938 L 28.449219 37.210938 L 28.449219 22.585938 L 36.25 22.585938 Z M 26.5 20.636719 L 11.875 20.636719 L 11.875 17.710938 L 26.5 17.710938 Z M 26.5 37.210938 L 11.875 37.210938 L 11.875 22.585938 L 26.5 22.585938 Z M 46.976562 15.761719 L 9.925781 15.761719 L 9.925781 39.160156 L 46.976562 39.160156 L 46.976562 15.761719 "/><path style=" stroke:none;fill-rule:nonzero;fill:#ffbf39;fill-opacity:1;" d="M 39.175781 6.984375 L 37.226562 6.984375 L 37.226562 8.9375 L 39.175781 8.9375 L 39.175781 6.984375 "/><path style=" stroke:none;fill-rule:nonzero;fill:#ffbf39;fill-opacity:1;" d="M 46.976562 6.984375 L 41.125 6.984375 L 41.125 8.9375 L 46.976562 8.9375 L 46.976562 6.984375 "/><path style=" stroke:none;fill-rule:nonzero;fill:#ffbf39;fill-opacity:1;" d="M 46.976562 10.886719 L 37.226562 10.886719 L 37.226562 12.835938 L 46.976562 12.835938 L 46.976562 10.886719 "/><path style=" stroke:none;fill-rule:nonzero;fill:#ffbf39;fill-opacity:1;" d="M 17.726562 6.984375 L 9.925781 6.984375 L 9.925781 8.9375 L 17.726562 8.9375 L 17.726562 6.984375 "/><path style=" stroke:none;fill-rule:nonzero;fill:#ffbf39;fill-opacity:1;" d="M 19.675781 10.886719 L 9.925781 10.886719 L 9.925781 12.835938 L 19.675781 12.835938 L 19.675781 10.886719 "/><path style=" stroke:none;fill-rule:nonzero;fill:#ffbf39;fill-opacity:1;" d="M 31.375 43.0625 L 46.976562 43.0625 L 46.976562 41.109375 L 31.375 41.109375 L 31.375 43.0625 "/><path style=" stroke:none;fill-rule:nonzero;fill:#ffbf39;fill-opacity:1;" d="M 19.675781 41.109375 L 9.925781 41.109375 L 9.925781 43.0625 L 19.675781 43.0625 L 19.675781 41.109375 "/><path style=" stroke:none;fill-rule:nonzero;fill:#ffbf39;fill-opacity:1;" d="M 36.25 46.960938 L 46.976562 46.960938 L 46.976562 45.011719 L 36.25 45.011719 L 36.25 46.960938 "/><path style=" stroke:none;fill-rule:nonzero;fill:#ffbf39;fill-opacity:1;" d="M 22.601562 24.535156 L 13.824219 24.535156 L 13.824219 26.484375 L 22.601562 26.484375 L 22.601562 24.535156 "/><path style=" stroke:none;fill-rule:nonzero;fill:#ffbf39;fill-opacity:1;" d="M 19.675781 28.4375 L 13.824219 28.4375 L 13.824219 30.386719 L 19.675781 30.386719 L 19.675781 28.4375 "/><path style=" stroke:none;fill-rule:nonzero;fill:#ffbf39;fill-opacity:1;" d="M 19.675781 32.335938 L 13.824219 32.335938 L 13.824219 34.285156 L 19.675781 34.285156 L 19.675781 32.335938 "/><path style=" stroke:none;fill-rule:nonzero;fill:#ffbf39;fill-opacity:1;" d="M 34.300781 24.535156 L 30.402344 24.535156 L 30.402344 26.484375 L 34.300781 26.484375 L 34.300781 24.535156 "/><path style=" stroke:none;fill-rule:nonzero;fill:#ffbf39;fill-opacity:1;" d="M 34.300781 28.4375 L 30.402344 28.4375 L 30.402344 30.386719 L 34.300781 30.386719 L 34.300781 28.4375 "/><path style=" stroke:none;fill-rule:nonzero;fill:#ffbf39;fill-opacity:1;" d="M 34.300781 32.335938 L 30.402344 32.335938 L 30.402344 34.285156 L 34.300781 34.285156 L 34.300781 32.335938 "/><path style=" stroke:none;fill-rule:nonzero;fill:#ffbf39;fill-opacity:1;" d="M 43.074219 24.535156 L 40.152344 24.535156 L 40.152344 26.484375 L 43.074219 26.484375 L 43.074219 24.535156 "/><path style=" stroke:none;fill-rule:nonzero;fill:#ffbf39;fill-opacity:1;" d="M 43.074219 28.4375 L 40.152344 28.4375 L 40.152344 30.386719 L 43.074219 30.386719 L 43.074219 28.4375 "/><path style=" stroke:none;fill-rule:nonzero;fill:#ffbf39;fill-opacity:1;" d="M 43.074219 32.335938 L 40.152344 32.335938 L 40.152344 34.285156 L 43.074219 34.285156 L 43.074219 32.335938 "/></g></svg>