<svg xmlns="http://www.w3.org/2000/svg" xmlns:xlink="http://www.w3.org/1999/xlink" width="100" zoomAndPan="magnify" viewBox="0 0 75 74.999997" height="100" preserveAspectRatio="xMidYMid meet" version="1.2"><defs><clipPath id="4e9a380a9d"><path d="M 11.582031 24.707031 L 59 24.707031 L 59 50.292969 L 11.582031 50.292969 Z M 11.582031 24.707031 "/></clipPath><clipPath id="d79db7d29b"><path d="M 58.136719 24.796875 L 32.558594 24.796875 C 32.113281 24.796875 31.757812 25.152344 31.757812 25.59375 L 31.757812 43.519531 L 11.59375 49.007812 L 11.921875 50.199219 L 31.757812 44.785156 L 31.757812 44.796875 C 31.757812 45.242188 32.113281 45.597656 32.558594 45.597656 L 33.179688 45.597656 C 33.519531 43.441406 35.398438 41.78125 37.652344 41.78125 C 39.910156 41.78125 41.785156 43.429688 42.128906 45.597656 L 58.136719 45.597656 C 58.578125 45.597656 58.933594 45.242188 58.933594 44.796875 L 58.933594 25.59375 C 58.933594 25.152344 58.578125 24.796875 58.136719 24.796875 Z M 58.136719 24.796875 "/></clipPath><clipPath id="e7ba10abd8"><path d="M 59.777344 29.765625 L 74.503906 29.765625 L 74.503906 45.679688 L 59.777344 45.679688 Z M 59.777344 29.765625 "/></clipPath><clipPath id="afb7050fd8"><path d="M 73.917969 37.078125 L 70.671875 30.917969 C 70.367188 30.335938 69.570312 29.855469 68.910156 29.855469 L 61.128906 29.855469 C 60.46875 29.855469 59.921875 30.398438 59.921875 31.058594 L 59.921875 44.40625 C 59.921875 45.0625 60.46875 45.609375 61.128906 45.609375 L 61.582031 45.609375 C 61.925781 43.453125 63.800781 41.792969 66.058594 41.792969 C 68.3125 41.792969 70.191406 43.441406 70.53125 45.609375 L 73.28125 45.609375 C 73.941406 45.609375 74.488281 45.0625 74.488281 44.40625 L 74.488281 39.347656 C 74.488281 38.6875 74.234375 37.664062 73.929688 37.078125 Z M 63.789062 31.058594 L 63.789062 36.800781 L 61.128906 36.800781 L 61.128906 31.058594 Z M 63.574219 39.527344 L 61.914062 39.527344 L 61.914062 38.878906 L 63.574219 38.878906 Z M 64.433594 36.800781 L 64.433594 31.058594 L 68.910156 31.058594 C 69.125 31.058594 69.503906 31.285156 69.605469 31.476562 L 72.421875 36.800781 Z M 64.433594 36.800781 "/></clipPath><clipPath id="688ffe3c9e"><path d="M 62.308594 42.558594 L 69.894531 42.558594 L 69.894531 50.144531 L 62.308594 50.144531 Z M 62.308594 42.558594 "/></clipPath><clipPath id="abf7557d21"><path d="M 66.058594 42.605469 C 63.992188 42.605469 62.332031 44.277344 62.332031 46.332031 C 62.332031 48.386719 64.003906 50.058594 66.058594 50.058594 C 68.109375 50.058594 69.785156 48.386719 69.785156 46.332031 C 69.785156 44.277344 68.109375 42.605469 66.058594 42.605469 Z M 68.1875 46.332031 C 68.1875 47.5 67.238281 48.460938 66.058594 48.460938 C 64.878906 48.460938 63.929688 47.511719 63.929688 46.332031 C 63.929688 45.152344 64.878906 44.203125 66.058594 44.203125 C 67.238281 44.203125 68.1875 45.152344 68.1875 46.332031 Z M 68.1875 46.332031 "/></clipPath><clipPath id="e184af3d4f"><path d="M 33.894531 42.558594 L 41.480469 42.558594 L 41.480469 50.144531 L 33.894531 50.144531 Z M 33.894531 42.558594 "/></clipPath><clipPath id="dcb68ee221"><path d="M 37.652344 42.605469 C 35.585938 42.605469 33.925781 44.277344 33.925781 46.332031 C 33.925781 48.386719 35.601562 50.058594 37.652344 50.058594 C 39.707031 50.058594 41.378906 48.386719 41.378906 46.332031 C 41.378906 44.277344 39.707031 42.605469 37.652344 42.605469 Z M 39.78125 46.332031 C 39.78125 47.5 38.832031 48.460938 37.652344 48.460938 C 36.472656 48.460938 35.523438 47.511719 35.523438 46.332031 C 35.523438 45.152344 36.472656 44.203125 37.652344 44.203125 C 38.832031 44.203125 39.78125 45.152344 39.78125 46.332031 Z M 39.78125 46.332031 "/></clipPath><clipPath id="74b3f94087"><path d="M 3.25 34.523438 L 7.417969 34.523438 L 7.417969 37.648438 L 3.25 37.648438 Z M 3.25 34.523438 "/></clipPath><clipPath id="dc1f0a1b8b"><path d="M 5.433594 34.660156 C 4.648438 34.316406 3.734375 34.683594 3.40625 35.46875 C 3.074219 36.253906 3.429688 37.167969 4.214844 37.496094 C 5.003906 37.828125 5.914062 37.472656 6.246094 36.6875 C 6.398438 36.332031 6.410156 35.964844 6.308594 35.621094 C 6.09375 35.632812 5.875 35.660156 5.648438 35.699219 C 5.078125 35.785156 4.558594 35.824219 4.179688 35.824219 C 4.519531 35.773438 4.953125 35.699219 5.40625 35.582031 C 5.976562 35.445312 6.484375 35.28125 6.828125 35.128906 C 7.144531 35 7.320312 34.875 7.296875 34.796875 C 7.269531 34.671875 6.714844 34.707031 5.964844 34.847656 C 5.914062 34.859375 5.851562 34.875 5.800781 34.886719 C 5.6875 34.796875 5.558594 34.722656 5.433594 34.660156 Z M 5.433594 34.660156 "/></clipPath><clipPath id="84ef2b023a"><path d="M 0.425781 38 L 7.863281 38 L 7.863281 50.144531 L 0.425781 50.144531 Z M 0.425781 38 "/></clipPath><clipPath id="7127762d7f"><path d="M 4.242188 41.007812 C 3.722656 40.210938 3.582031 39.511719 3.570312 39.386719 C 3.507812 39.003906 3.761719 38.652344 4.140625 38.601562 C 4.179688 38.601562 4.214844 38.585938 4.253906 38.585938 C 4.597656 38.585938 4.875 38.828125 4.925781 39.15625 L 4.925781 39.171875 C 4.925781 39.183594 4.925781 39.195312 4.9375 39.222656 C 4.953125 39.273438 4.976562 39.347656 5.003906 39.449219 C 5.039062 39.574219 5.105469 39.726562 5.203125 39.917969 C 5.21875 39.878906 5.230469 39.855469 5.242188 39.816406 C 5.535156 39.171875 5.394531 38.320312 4.835938 38.09375 C 4.28125 37.863281 3.390625 38.054688 2.898438 39.003906 C 2.238281 40.3125 2.011719 41.1875 1.960938 42.730469 C 1.984375 43.25 2.164062 43.582031 2.402344 43.796875 C 2.429688 43.859375 2.46875 43.921875 2.519531 43.988281 C 2.621094 44.277344 2.734375 44.722656 2.734375 45.230469 C 2.734375 45.699219 2.644531 46.21875 2.378906 46.761719 C 2.113281 47.308594 1.65625 47.902344 0.859375 48.5 C 0.476562 48.777344 0.402344 49.324219 0.679688 49.703125 C 0.84375 49.933594 1.109375 50.046875 1.363281 50.046875 C 1.542969 50.046875 1.71875 49.996094 1.882812 49.867188 C 2.859375 49.132812 3.519531 48.320312 3.914062 47.511719 C 4.265625 46.789062 4.417969 46.066406 4.445312 45.433594 C 5.054688 46.179688 5.726562 47.382812 6.117188 49.347656 C 6.195312 49.753906 6.5625 50.03125 6.953125 50.03125 C 7.003906 50.03125 7.066406 50.03125 7.117188 50.019531 C 7.589844 49.933594 7.878906 49.476562 7.789062 49.007812 C 7.257812 46.371094 6.230469 44.761719 5.292969 43.824219 C 4.964844 43.492188 4.648438 43.25 4.367188 43.0625 C 4.394531 42.554688 4.507812 42.035156 4.648438 41.539062 C 4.484375 41.351562 4.34375 41.160156 4.230469 40.984375 Z M 4.242188 41.007812 "/></clipPath><clipPath id="9746c5dac3"><path d="M 19.464844 29.320312 L 23.929688 29.320312 L 23.929688 32.589844 L 19.464844 32.589844 Z M 19.464844 29.320312 "/></clipPath><clipPath id="e4c0a22d44"><path d="M 21.605469 30.867188 C 22.0625 30.730469 22.46875 30.578125 22.785156 30.4375 C 22.46875 30.640625 22 30.867188 21.480469 31.097656 C 21.265625 31.183594 21.0625 31.285156 20.871094 31.375 C 20.960938 31.71875 21.164062 32.035156 21.480469 32.25 C 22.175781 32.746094 23.140625 32.566406 23.632812 31.871094 C 24.128906 31.171875 23.953125 30.210938 23.253906 29.714844 C 22.558594 29.21875 21.59375 29.398438 21.097656 30.09375 C 21.011719 30.222656 20.949219 30.347656 20.898438 30.488281 C 20.847656 30.511719 20.78125 30.527344 20.730469 30.550781 C 20.023438 30.816406 19.539062 31.082031 19.578125 31.199219 C 19.605469 31.273438 19.820312 31.273438 20.148438 31.222656 C 20.515625 31.171875 21.035156 31.046875 21.605469 30.867188 Z M 21.605469 30.867188 "/></clipPath><clipPath id="c3a816f301"><path d="M 22.738281 32.589844 L 30.175781 32.589844 L 30.175781 44.9375 L 22.738281 44.9375 Z M 22.738281 32.589844 "/></clipPath><clipPath id="89a893b560"><path d="M 23.304688 34.085938 C 23.191406 33.734375 23.40625 33.339844 23.761719 33.238281 C 23.824219 33.214844 23.886719 33.214844 23.964844 33.214844 C 24.269531 33.214844 24.535156 33.402344 24.625 33.707031 C 24.648438 33.808594 24.75 34.152344 24.75 34.671875 C 24.75 35.140625 24.675781 35.851562 24.28125 36.609375 C 24.269531 36.648438 24.242188 36.6875 24.21875 36.722656 C 24.371094 37.066406 24.484375 37.410156 24.558594 37.75 C 24.507812 37.8125 24.445312 37.878906 24.394531 37.953125 C 23.953125 38.535156 23.519531 39.476562 23.519531 40.753906 C 23.519531 41.730469 23.761719 42.910156 24.371094 44.292969 C 24.507812 44.609375 24.824219 44.796875 25.15625 44.796875 C 25.269531 44.796875 25.382812 44.773438 25.496094 44.722656 C 25.929688 44.53125 26.132812 44.023438 25.941406 43.59375 C 25.410156 42.378906 25.230469 41.453125 25.230469 40.753906 C 25.230469 40.347656 25.28125 40.019531 25.371094 39.753906 C 25.382812 39.792969 25.410156 39.84375 25.421875 39.878906 C 25.902344 41.136719 26.90625 42.667969 28.84375 43.671875 C 28.972656 43.734375 29.109375 43.773438 29.238281 43.773438 C 29.542969 43.773438 29.84375 43.605469 29.996094 43.300781 C 30.210938 42.882812 30.046875 42.363281 29.628906 42.148438 C 28.121094 41.363281 27.398438 40.234375 27.019531 39.257812 C 26.828125 38.777344 26.738281 38.335938 26.6875 38.03125 C 26.675781 37.992188 26.675781 37.941406 26.675781 37.902344 C 26.828125 37.664062 26.90625 37.332031 26.839844 36.875 C 26.511719 35.378906 26.117188 34.558594 25.21875 33.402344 C 24.558594 32.566406 23.648438 32.542969 23.152344 32.871094 C 22.660156 33.199219 22.671875 34.0625 23.078125 34.644531 C 23.152344 34.785156 23.242188 34.925781 23.332031 35.078125 C 23.34375 34.949219 23.355469 34.824219 23.355469 34.683594 C 23.355469 34.339844 23.292969 34.113281 23.292969 34.113281 Z M 23.304688 34.085938 "/></clipPath><clipPath id="de70ccbc01"><path d="M 5.929688 34.671875 L 23.332031 34.671875 L 23.332031 46.277344 L 5.929688 46.277344 Z M 5.929688 34.671875 "/></clipPath><clipPath id="d7604341ff"><path d="M 8.273438 42.402344 C 8.359375 42.566406 8.375 42.757812 8.324219 42.921875 C 8.234375 43.214844 7.96875 43.402344 7.664062 43.402344 C 7.589844 43.402344 7.523438 43.390625 7.460938 43.367188 C 7.359375 43.328125 7.257812 43.300781 7.15625 43.265625 L 8.03125 46.269531 L 23.28125 41.820312 L 22.339844 38.613281 C 22.316406 38.625 22.277344 38.652344 22.253906 38.664062 C 22.152344 38.726562 22.023438 38.765625 21.898438 38.765625 C 21.65625 38.765625 21.429688 38.636719 21.300781 38.433594 C 21.113281 38.105469 21.214844 37.6875 21.53125 37.496094 C 21.667969 37.410156 21.796875 37.320312 21.921875 37.230469 L 21.1875 34.722656 L 5.953125 39.171875 L 6.625 41.476562 C 6.992188 41.71875 7.410156 41.910156 7.867188 42.058594 C 8.042969 42.109375 8.183594 42.238281 8.273438 42.402344 Z M 8.273438 42.402344 "/></clipPath><clipPath id="70a49346c0"><path d="M 21.25 33.335938 L 24.671875 33.335938 L 24.671875 38.691406 L 21.25 38.691406 Z M 21.25 33.335938 "/></clipPath><clipPath id="0a07cf5036"><path d="M 21.429688 38.359375 C 21.53125 38.535156 21.71875 38.625 21.898438 38.625 C 22 38.625 22.089844 38.601562 22.175781 38.550781 C 23.179688 37.953125 23.800781 37.230469 24.152344 36.535156 C 24.507812 35.835938 24.609375 35.164062 24.609375 34.660156 C 24.609375 34.125 24.507812 33.769531 24.496094 33.734375 C 24.40625 33.441406 24.105469 33.277344 23.8125 33.367188 C 23.519531 33.453125 23.355469 33.757812 23.445312 34.050781 C 23.457031 34.074219 23.507812 34.316406 23.507812 34.660156 C 23.507812 35.027344 23.445312 35.519531 23.179688 36.027344 C 22.910156 36.535156 22.457031 37.09375 21.621094 37.597656 C 21.351562 37.75 21.277344 38.09375 21.429688 38.359375 Z M 21.429688 38.359375 "/></clipPath><clipPath id="27936bbd92"><path d="M 3.550781 38.691406 L 8.308594 38.691406 L 8.308594 43.300781 L 3.550781 43.300781 Z M 3.550781 38.691406 "/></clipPath><clipPath id="d196167c4a"><path d="M 4.800781 39.246094 C 4.785156 39.222656 4.785156 39.195312 4.785156 39.183594 C 4.785156 39.171875 4.785156 39.171875 4.785156 39.171875 C 4.734375 38.867188 4.457031 38.664062 4.152344 38.714844 C 3.847656 38.765625 3.644531 39.042969 3.695312 39.347656 C 3.710938 39.398438 3.824219 40.097656 4.355469 40.917969 C 4.886719 41.742188 5.851562 42.707031 7.5 43.226562 C 7.550781 43.238281 7.613281 43.25 7.664062 43.25 C 7.890625 43.25 8.109375 43.101562 8.183594 42.871094 C 8.273438 42.582031 8.121094 42.277344 7.828125 42.175781 C 6.445312 41.730469 5.699219 40.96875 5.28125 40.324219 C 5.066406 39.996094 4.9375 39.703125 4.875 39.488281 C 4.835938 39.386719 4.8125 39.296875 4.800781 39.246094 Z M 4.800781 39.246094 "/></clipPath></defs><g id="ff8221c874"><g clip-rule="nonzero" clip-path="url(#4e9a380a9d)"><g clip-rule="nonzero" clip-path="url(#d79db7d29b)"><path style=" stroke:none;fill-rule:nonzero;fill:#ffbf39;fill-opacity:1;" d="M -5.820312 18.460938 L 80.753906 18.460938 L 80.753906 56.539062 L -5.820312 56.539062 Z M -5.820312 18.460938 "/></g></g><g clip-rule="nonzero" clip-path="url(#e7ba10abd8)"><g clip-rule="nonzero" clip-path="url(#afb7050fd8)"><path style=" stroke:none;fill-rule:nonzero;fill:#ffbf39;fill-opacity:1;" d="M -5.820312 18.460938 L 80.753906 18.460938 L 80.753906 56.539062 L -5.820312 56.539062 Z M -5.820312 18.460938 "/></g></g><g clip-rule="nonzero" clip-path="url(#688ffe3c9e)"><g clip-rule="nonzero" clip-path="url(#abf7557d21)"><path style=" stroke:none;fill-rule:nonzero;fill:#ffbf39;fill-opacity:1;" d="M -5.820312 18.460938 L 80.753906 18.460938 L 80.753906 56.539062 L -5.820312 56.539062 Z M -5.820312 18.460938 "/></g></g><g clip-rule="nonzero" clip-path="url(#e184af3d4f)"><g clip-rule="nonzero" clip-path="url(#dcb68ee221)"><path style=" stroke:none;fill-rule:nonzero;fill:#ffbf39;fill-opacity:1;" d="M -5.820312 18.460938 L 80.753906 18.460938 L 80.753906 56.539062 L -5.820312 56.539062 Z M -5.820312 18.460938 "/></g></g><g clip-rule="nonzero" clip-path="url(#74b3f94087)"><g clip-rule="nonzero" clip-path="url(#dc1f0a1b8b)"><path style=" stroke:none;fill-rule:nonzero;fill:#ffbf39;fill-opacity:1;" d="M -5.820312 18.460938 L 80.753906 18.460938 L 80.753906 56.539062 L -5.820312 56.539062 Z M -5.820312 18.460938 "/></g></g><g clip-rule="nonzero" clip-path="url(#84ef2b023a)"><g clip-rule="nonzero" clip-path="url(#7127762d7f)"><path style=" stroke:none;fill-rule:nonzero;fill:#ffbf39;fill-opacity:1;" d="M -5.820312 18.460938 L 80.753906 18.460938 L 80.753906 56.539062 L -5.820312 56.539062 Z M -5.820312 18.460938 "/></g></g><g clip-rule="nonzero" clip-path="url(#9746c5dac3)"><g clip-rule="nonzero" clip-path="url(#e4c0a22d44)"><path style=" stroke:none;fill-rule:nonzero;fill:#ffbf39;fill-opacity:1;" d="M -5.820312 18.460938 L 80.753906 18.460938 L 80.753906 56.539062 L -5.820312 56.539062 Z M -5.820312 18.460938 "/></g></g><g clip-rule="nonzero" clip-path="url(#c3a816f301)"><g clip-rule="nonzero" clip-path="url(#89a893b560)"><path style=" stroke:none;fill-rule:nonzero;fill:#ffbf39;fill-opacity:1;" d="M -5.820312 18.460938 L 80.753906 18.460938 L 80.753906 56.539062 L -5.820312 56.539062 Z M -5.820312 18.460938 "/></g></g><g clip-rule="nonzero" clip-path="url(#de70ccbc01)"><g clip-rule="nonzero" clip-path="url(#d7604341ff)"><path style=" stroke:none;fill-rule:nonzero;fill:#ffbf39;fill-opacity:1;" d="M -5.820312 18.460938 L 80.753906 18.460938 L 80.753906 56.539062 L -5.820312 56.539062 Z M -5.820312 18.460938 "/></g></g><g clip-rule="nonzero" clip-path="url(#70a49346c0)"><g clip-rule="nonzero" clip-path="url(#0a07cf5036)"><path style=" stroke:none;fill-rule:nonzero;fill:#ffbf39;fill-opacity:1;" d="M -5.820312 18.460938 L 80.753906 18.460938 L 80.753906 56.539062 L -5.820312 56.539062 Z M -5.820312 18.460938 "/></g></g><g clip-rule="nonzero" clip-path="url(#27936bbd92)"><g clip-rule="nonzero" clip-path="url(#d196167c4a)"><path style=" stroke:none;fill-rule:nonzero;fill:#ffbf39;fill-opacity:1;" d="M -5.820312 18.460938 L 80.753906 18.460938 L 80.753906 56.539062 L -5.820312 56.539062 Z M -5.820312 18.460938 "/></g></g></g></svg>