<svg xmlns="http://www.w3.org/2000/svg" xmlns:xlink="http://www.w3.org/1999/xlink" width="100" zoomAndPan="magnify" viewBox="0 0 75 74.999997" height="100" preserveAspectRatio="xMidYMid meet" version="1.2"><defs><clipPath id="f6e6a81109"><path d="M 9.515625 0.742188 L 65.792969 0.742188 L 65.792969 48.933594 L 9.515625 48.933594 Z M 9.515625 0.742188 "/></clipPath><clipPath id="97f2295ea5"><path d="M 59.339844 21.410156 C 59.164062 20.800781 58.75 20.3125 58.179688 19.996094 C 58.300781 18.625 58.121094 16.953125 57.808594 15.582031 C 57.535156 14.441406 57.101562 13.1875 56.453125 11.851562 C 55.765625 10.535156 54.921875 9.160156 53.726562 7.867188 C 52.585938 6.53125 51.132812 5.335938 49.484375 4.273438 C 35.117188 -4.832031 15.289062 5.941406 16.839844 19.996094 C 16.273438 20.3125 15.859375 20.800781 15.683594 21.390625 C 12.289062 21.449219 9.558594 23.980469 9.558594 27.101562 C 9.558594 30.222656 12.289062 32.757812 15.683594 32.816406 C 15.957031 33.796875 16.878906 34.542969 18.039062 34.542969 C 19.414062 34.542969 20.53125 33.523438 20.53125 32.265625 L 20.53125 21.960938 C 20.53125 21.253906 20.160156 20.625 19.589844 20.214844 C 20.21875 16.660156 22.0625 12.890625 24.652344 10.574219 C 28.460938 6.867188 35.058594 4.726562 42.320312 6.335938 C 45.109375 7.160156 47.855469 8.574219 50.152344 10.8125 C 52.703125 13.109375 54.765625 16.542969 55.453125 20.214844 C 53.980469 21.3125 54.511719 22.234375 54.511719 32.285156 C 54.511719 33.070312 54.980469 33.738281 55.628906 34.128906 L 55.628906 35.015625 C 55.628906 35.5625 55.472656 36.113281 55.179688 36.585938 C 51.9375 41.648438 51.722656 42.160156 46.816406 43.730469 C 45.265625 44.21875 43.539062 44.4375 41.769531 44.867188 C 40.140625 43.257812 37.296875 44.316406 37.296875 46.457031 C 37.296875 49.167969 41.515625 49.792969 42.339844 47.085938 C 43.539062 46.792969 44.753906 46.632812 45.914062 46.28125 C 52.234375 44.359375 54.3125 43.21875 57.652344 36.820312 C 57.964844 36.210938 58.140625 35.542969 58.140625 34.855469 L 58.140625 34.289062 C 58.769531 33.992188 59.203125 33.464844 59.378906 32.835938 C 62.773438 32.777344 65.503906 30.242188 65.503906 27.121094 C 65.503906 24 62.773438 21.488281 59.378906 21.410156 "/></clipPath><clipPath id="1e9a4997c2"><path d="M 7.339844 47.066406 L 67.65625 47.066406 L 67.65625 74.117188 L 7.339844 74.117188 Z M 7.339844 47.066406 "/></clipPath><clipPath id="a7586ad316"><path d="M 27.65625 47.203125 C 26.910156 47.203125 26.046875 47.398438 24.929688 47.773438 C 20.847656 49.128906 16.78125 50.601562 12.835938 52.308594 C 9.382812 53.800781 7.28125 56.410156 7.539062 60.492188 C 7.65625 62.320312 7.558594 64.164062 7.558594 66.007812 C 7.597656 71.621094 9.972656 74.039062 15.625 74.058594 C 19.136719 74.078125 22.652344 74.078125 26.164062 74.078125 C 30.542969 74.078125 34.941406 74.078125 39.316406 74.078125 C 43.125 74.078125 46.933594 74.078125 50.722656 74.078125 C 53.707031 74.078125 56.707031 74.078125 59.691406 74.058594 C 64.953125 74.039062 67.367188 71.5625 67.445312 66.246094 C 67.464844 64.320312 67.367188 62.378906 67.464844 60.453125 C 67.683594 56.546875 65.777344 53.898438 62.382812 52.425781 C 58.4375 50.699219 54.394531 49.167969 50.328125 47.792969 C 49.464844 47.5 48.679688 47.359375 47.972656 47.359375 C 46.03125 47.359375 44.539062 48.441406 43.046875 50.558594 C 41.320312 53.035156 39.554688 55.488281 37.511719 58.332031 C 35.371094 55.351562 33.507812 52.757812 31.640625 50.167969 C 30.171875 48.105469 29.207031 47.222656 27.636719 47.222656 Z M 27.65625 47.203125 "/></clipPath><clipPath id="63a1b8a2b5"><path d="M 23 9.136719 L 52 9.136719 L 52 43.335938 L 23 43.335938 Z M 23 9.136719 "/></clipPath><clipPath id="978e8a156a"><path d="M 51.898438 24.433594 C 51.527344 29.222656 50.015625 35.347656 44.988281 40.058594 C 40.730469 44.0625 34.234375 44.160156 30.03125 40.058594 C 24.222656 34.386719 22.398438 27.164062 23.300781 19.390625 C 23.769531 15.304688 26.242188 12.105469 30.425781 10.75 C 36.628906 8.730469 42.632812 8.515625 48.089844 12.851562 C 51.273438 15.382812 52.015625 18.859375 51.898438 24.433594 "/></clipPath></defs><g id="52bd35fffa"><g clip-rule="nonzero" clip-path="url(#f6e6a81109)"><g clip-rule="nonzero" clip-path="url(#97f2295ea5)"><rect x="0" width="75" y="0" height="74.999997" style="fill:#ffbf39;fill-opacity:1;stroke:none;"/></g></g><g clip-rule="nonzero" clip-path="url(#1e9a4997c2)"><g clip-rule="nonzero" clip-path="url(#a7586ad316)"><rect x="0" width="75" y="0" height="74.999997" style="fill:#ffbf39;fill-opacity:1;stroke:none;"/></g></g><g clip-rule="nonzero" clip-path="url(#63a1b8a2b5)"><g clip-rule="nonzero" clip-path="url(#978e8a156a)"><rect x="0" width="75" y="0" height="74.999997" style="fill:#ffbf39;fill-opacity:1;stroke:none;"/></g></g></g></svg>