<svg xmlns="http://www.w3.org/2000/svg" xmlns:xlink="http://www.w3.org/1999/xlink" width="100" zoomAndPan="magnify" viewBox="0 0 75 74.999997" height="100" preserveAspectRatio="xMidYMid meet" version="1.2"><defs><clipPath id="1dbd939d9d"><path d="M 21.660156 9.035156 L 39.605469 9.035156 L 39.605469 11.46875 L 21.660156 11.46875 Z M 21.660156 9.035156 "/></clipPath><clipPath id="5b97a8883a"><path d="M 22.941406 11.449219 L 38.421875 11.449219 C 38.71875 11.449219 38.964844 11.34375 39.175781 11.132812 C 39.386719 10.921875 39.492188 10.675781 39.492188 10.378906 C 39.492188 10.082031 39.386719 9.835938 39.175781 9.625 C 38.964844 9.414062 38.71875 9.308594 38.421875 9.308594 L 22.941406 9.308594 C 22.644531 9.308594 22.398438 9.414062 22.1875 9.625 C 21.976562 9.835938 21.871094 10.082031 21.871094 10.378906 C 21.871094 10.675781 21.976562 10.921875 22.1875 11.132812 C 22.398438 11.34375 22.644531 11.449219 22.941406 11.449219 Z M 22.941406 11.449219 "/></clipPath><clipPath id="90bb4d3153"><path d="M 21.660156 29 L 29.570312 29 L 29.570312 31.238281 L 21.660156 31.238281 Z M 21.660156 29 "/></clipPath><clipPath id="31a14c3965"><path d="M 28.417969 29 L 22.941406 29 C 22.644531 29 22.398438 29.105469 22.1875 29.316406 C 21.976562 29.527344 21.871094 29.773438 21.871094 30.074219 C 21.871094 30.371094 21.976562 30.617188 22.1875 30.828125 C 22.398438 31.039062 22.644531 31.144531 22.941406 31.144531 L 28.417969 31.144531 C 28.714844 31.144531 28.960938 31.039062 29.171875 30.828125 C 29.382812 30.617188 29.488281 30.371094 29.488281 30.074219 C 29.488281 29.773438 29.382812 29.527344 29.171875 29.316406 C 28.960938 29.105469 28.714844 29 28.417969 29 Z M 28.417969 29 "/></clipPath><clipPath id="42ce0bb31c"><path d="M 32.003906 29 L 41.734375 29 L 41.734375 31.238281 L 32.003906 31.238281 Z M 32.003906 29 "/></clipPath><clipPath id="7f947ba881"><path d="M 40.511719 29 L 33.277344 29 C 32.980469 29 32.734375 29.105469 32.523438 29.316406 C 32.3125 29.527344 32.207031 29.773438 32.207031 30.074219 C 32.207031 30.371094 32.3125 30.617188 32.523438 30.828125 C 32.734375 31.039062 32.980469 31.144531 33.277344 31.144531 L 40.511719 31.144531 C 40.808594 31.144531 41.054688 31.039062 41.265625 30.828125 C 41.476562 30.617188 41.582031 30.371094 41.582031 30.074219 C 41.582031 29.773438 41.476562 29.527344 41.265625 29.316406 C 41.054688 29.105469 40.808594 29 40.511719 29 Z M 40.511719 29 "/></clipPath><clipPath id="2123d7ad25"><path d="M 21.660156 13.597656 L 41.734375 13.597656 L 41.734375 16 L 21.660156 16 Z M 21.660156 13.597656 "/></clipPath><clipPath id="ac01ad2e60"><path d="M 22.941406 15.90625 L 40.476562 15.90625 C 40.773438 15.90625 41.019531 15.800781 41.230469 15.59375 C 41.441406 15.382812 41.546875 15.136719 41.546875 14.835938 C 41.546875 14.539062 41.441406 14.292969 41.230469 14.082031 C 41.019531 13.871094 40.773438 13.765625 40.476562 13.765625 L 22.941406 13.765625 C 22.644531 13.765625 22.398438 13.871094 22.1875 14.082031 C 21.976562 14.292969 21.871094 14.539062 21.871094 14.835938 C 21.871094 15.136719 21.976562 15.382812 22.1875 15.59375 C 22.398438 15.800781 22.644531 15.90625 22.941406 15.90625 Z M 22.941406 15.90625 "/></clipPath><clipPath id="7c75942a19"><path d="M 21.660156 24 L 48 24 L 48 26.375 L 21.660156 26.375 Z M 21.660156 24 "/></clipPath><clipPath id="d4f02ba2df"><path d="M 46.898438 24.035156 L 22.941406 24.035156 C 22.644531 24.035156 22.398438 24.140625 22.1875 24.351562 C 21.976562 24.5625 21.871094 24.808594 21.871094 25.105469 C 21.871094 25.402344 21.976562 25.648438 22.1875 25.859375 C 22.398438 26.070312 22.644531 26.175781 22.941406 26.175781 L 46.898438 26.175781 C 47.199219 26.175781 47.445312 26.070312 47.652344 25.859375 C 47.863281 25.648438 47.96875 25.402344 47.96875 25.105469 C 47.96875 24.808594 47.863281 24.5625 47.652344 24.351562 C 47.445312 24.140625 47.199219 24.035156 46.898438 24.035156 Z M 46.898438 24.035156 "/></clipPath><clipPath id="b1707892cf"><path d="M 21.660156 18.769531 L 53.292969 18.769531 L 53.292969 21.203125 L 21.660156 21.203125 Z M 21.660156 18.769531 "/></clipPath><clipPath id="1188f69509"><path d="M 52.21875 18.875 L 22.957031 18.875 C 22.660156 18.875 22.414062 18.980469 22.203125 19.191406 C 21.992188 19.402344 21.886719 19.648438 21.886719 19.945312 C 21.886719 20.242188 21.992188 20.488281 22.203125 20.699219 C 22.414062 20.910156 22.660156 21.015625 22.957031 21.015625 L 52.21875 21.015625 C 52.515625 21.015625 52.761719 20.910156 52.972656 20.699219 C 53.183594 20.488281 53.289062 20.242188 53.289062 19.945312 C 53.289062 19.648438 53.183594 19.402344 52.972656 19.191406 C 52.761719 18.980469 52.515625 18.875 52.21875 18.875 Z M 52.21875 18.875 "/></clipPath><clipPath id="3faaa81598"><path d="M 7.0625 0.519531 L 67.894531 0.519531 L 67.894531 74.433594 L 7.0625 74.433594 Z M 7.0625 0.519531 "/></clipPath><clipPath id="b96303ccc7"><path d="M 61.765625 25.808594 C 61.957031 25.808594 62.0625 25.914062 62.0625 26.105469 L 62.0625 33.722656 L 59.695312 33.722656 L 59.695312 25.808594 Z M 14.535156 25.808594 L 14.535156 36.933594 L 12.199219 36.933594 L 12.199219 26.125 C 12.199219 25.929688 12.285156 25.824219 12.480469 25.824219 Z M 45.109375 2.902344 L 45.109375 14.730469 C 45.109375 15.03125 45.214844 15.277344 45.425781 15.488281 C 45.636719 15.699219 45.882812 15.800781 46.179688 15.800781 C 46.179688 15.800781 46.179688 15.800781 46.195312 15.800781 L 57.570312 15.800781 L 57.570312 33.757812 L 41.984375 33.757812 C 41.582031 33.757812 41.28125 33.933594 41.070312 34.265625 L 39.40625 36.96875 L 16.710938 36.96875 L 16.710938 2.902344 Z M 54.550781 38.867188 C 55.042969 38.867188 55.515625 38.917969 55.992188 39.007812 C 56.464844 39.09375 56.921875 39.234375 57.378906 39.425781 C 57.835938 39.621094 58.253906 39.847656 58.660156 40.113281 C 59.0625 40.375 59.429688 40.691406 59.78125 41.023438 C 60.132812 41.359375 60.433594 41.746094 60.695312 42.148438 C 60.957031 42.550781 61.1875 42.972656 61.378906 43.429688 C 61.574219 43.886719 61.714844 44.34375 61.800781 44.816406 C 61.886719 45.289062 61.941406 45.761719 61.941406 46.253906 L 61.941406 51.730469 L 64.03125 51.730469 C 64.382812 51.730469 64.679688 51.855469 64.925781 52.101562 C 65.171875 52.34375 65.292969 52.644531 65.292969 52.996094 L 65.292969 70.738281 C 65.292969 71.089844 65.171875 71.390625 64.925781 71.636719 C 64.679688 71.878906 64.382812 72.003906 64.03125 72.003906 L 45.089844 72.003906 C 44.742188 72.003906 44.441406 71.878906 44.195312 71.636719 C 43.949219 71.390625 43.828125 71.089844 43.828125 70.738281 L 43.828125 52.960938 C 43.828125 52.609375 43.96875 52.328125 44.195312 52.082031 C 44.425781 51.835938 44.742188 51.714844 45.074219 51.714844 L 47.164062 51.714844 L 47.164062 46.238281 C 47.164062 45.746094 47.214844 45.273438 47.304688 44.796875 C 47.390625 44.324219 47.53125 43.867188 47.722656 43.410156 C 47.917969 42.957031 48.144531 42.535156 48.410156 42.128906 C 48.671875 41.726562 48.988281 41.359375 49.320312 41.007812 C 49.65625 40.65625 50.042969 40.359375 50.445312 40.09375 C 50.847656 39.832031 51.269531 39.601562 51.726562 39.410156 C 52.183594 39.21875 52.640625 39.078125 53.113281 38.988281 C 53.585938 38.902344 54.058594 38.847656 54.550781 38.847656 Z M 15.359375 0.777344 C 15.183594 0.832031 15.023438 0.917969 14.882812 1.058594 C 14.675781 1.269531 14.570312 1.515625 14.570312 1.8125 L 14.570312 23.664062 L 12.480469 23.664062 C 12.148438 23.664062 11.847656 23.734375 11.550781 23.859375 C 11.25 23.980469 10.988281 24.15625 10.761719 24.386719 C 10.53125 24.613281 10.355469 24.878906 10.234375 25.175781 C 10.109375 25.472656 10.039062 25.789062 10.039062 26.105469 L 10.039062 36.933594 L 9.742188 36.933594 C 9.425781 36.933594 9.109375 37.003906 8.8125 37.128906 C 8.511719 37.25 8.25 37.425781 8.023438 37.65625 C 7.792969 37.882812 7.617188 38.144531 7.496094 38.445312 C 7.371094 38.742188 7.320312 39.078125 7.320312 39.390625 C 7.320312 39.445312 7.320312 39.496094 7.320312 39.53125 L 10.058594 59.929688 C 10.074219 60.242188 10.144531 60.542969 10.269531 60.839844 C 10.390625 61.140625 10.566406 61.386719 10.796875 61.59375 C 11.023438 61.804688 11.285156 61.980469 11.566406 62.105469 C 11.847656 62.226562 12.164062 62.28125 12.480469 62.296875 L 41.652344 62.296875 L 41.652344 70.738281 C 41.652344 71.195312 41.738281 71.636719 41.914062 72.054688 C 42.089844 72.476562 42.335938 72.847656 42.667969 73.179688 C 43.003906 73.511719 43.371094 73.757812 43.792969 73.933594 C 44.214844 74.109375 44.652344 74.199219 45.109375 74.199219 L 64.03125 74.199219 C 64.484375 74.199219 64.925781 74.109375 65.347656 73.933594 C 65.765625 73.757812 66.136719 73.511719 66.46875 73.179688 C 66.804688 72.847656 67.050781 72.476562 67.222656 72.054688 C 67.398438 71.636719 67.488281 71.195312 67.488281 70.738281 L 67.488281 52.960938 C 67.488281 52.363281 67.328125 51.820312 67.050781 51.308594 C 66.769531 50.800781 66.363281 50.378906 65.855469 50.082031 C 66.242188 47.21875 67.664062 36.234375 67.664062 36.199219 C 67.664062 35.882812 67.59375 35.566406 67.46875 35.269531 C 67.347656 34.96875 67.171875 34.707031 66.945312 34.476562 C 66.714844 34.25 66.453125 34.074219 66.152344 33.953125 C 65.855469 33.828125 65.539062 33.757812 65.222656 33.757812 L 64.242188 33.757812 L 64.242188 26.125 C 64.242188 25.808594 64.171875 25.492188 64.046875 25.191406 C 63.925781 24.894531 63.75 24.632812 63.519531 24.402344 C 63.292969 24.175781 63.03125 24 62.730469 23.875 C 62.433594 23.753906 62.117188 23.683594 61.800781 23.683594 L 59.695312 23.683594 L 59.695312 14.730469 C 59.695312 14.449219 59.589844 14.207031 59.394531 13.996094 L 46.953125 1.078125 C 46.8125 0.9375 46.652344 0.832031 46.476562 0.777344 Z M 15.359375 0.777344 "/></clipPath><clipPath id="b6101d84c7"><path d="M 49.035156 41 L 59.984375 41 L 59.984375 51.921875 L 49.035156 51.921875 Z M 49.035156 41 "/></clipPath><clipPath id="b8ec0675b1"><path d="M 54.550781 41.007812 C 53.851562 41.007812 53.199219 41.148438 52.550781 41.410156 C 51.902344 41.675781 51.339844 42.058594 50.847656 42.550781 C 50.355469 43.042969 49.988281 43.605469 49.707031 44.253906 C 49.425781 44.902344 49.304688 45.554688 49.304688 46.253906 L 49.304688 51.730469 L 59.800781 51.730469 L 59.800781 46.238281 C 59.800781 45.535156 59.660156 44.867188 59.394531 44.238281 C 59.132812 43.605469 58.746094 43.027344 58.253906 42.535156 C 57.765625 42.042969 57.183594 41.675781 56.554688 41.394531 C 55.921875 41.113281 55.238281 41.007812 54.535156 41.007812 Z M 54.550781 41.007812 "/></clipPath><clipPath id="044426d313"><path d="M 49.339844 54.660156 L 59.683594 54.660156 L 59.683594 68.957031 L 49.339844 68.957031 Z M 49.339844 54.660156 "/></clipPath><clipPath id="0266ffc48b"><path d="M 54.550781 54.769531 C 53.957031 54.769531 53.359375 54.875 52.796875 55.082031 C 52.234375 55.292969 51.726562 55.609375 51.269531 56.015625 C 50.8125 56.417969 50.460938 56.890625 50.179688 57.417969 C 49.902344 57.945312 49.742188 58.523438 49.671875 59.121094 C 49.601562 59.71875 49.65625 60.3125 49.796875 60.894531 C 49.9375 61.472656 50.199219 62.015625 50.550781 62.507812 C 50.902344 63 51.324219 63.402344 51.832031 63.753906 C 52.339844 64.105469 52.882812 64.316406 53.464844 64.457031 L 53.464844 67.667969 C 53.464844 67.964844 53.570312 68.210938 53.78125 68.421875 C 53.992188 68.632812 54.234375 68.738281 54.535156 68.738281 C 54.832031 68.738281 55.078125 68.632812 55.289062 68.421875 C 55.5 68.210938 55.605469 67.964844 55.605469 67.667969 L 55.605469 64.472656 C 56.203125 64.351562 56.746094 64.121094 57.253906 63.789062 C 57.765625 63.457031 58.183594 63.050781 58.554688 62.542969 C 58.921875 62.035156 59.167969 61.507812 59.308594 60.929688 C 59.449219 60.347656 59.5 59.753906 59.429688 59.136719 C 59.359375 58.523438 59.1875 57.960938 58.90625 57.417969 C 58.625 56.875 58.253906 56.398438 57.800781 56.015625 C 57.34375 55.628906 56.832031 55.292969 56.273438 55.082031 C 55.710938 54.875 55.113281 54.769531 54.515625 54.769531 Z M 54.550781 62.4375 C 54.183594 62.4375 53.832031 62.367188 53.5 62.226562 C 53.164062 62.085938 52.867188 61.894531 52.605469 61.628906 C 52.339844 61.367188 52.148438 61.070312 52.007812 60.734375 C 51.867188 60.402344 51.796875 60.050781 51.796875 59.683594 C 51.796875 59.3125 51.867188 58.960938 52.007812 58.628906 C 52.148438 58.296875 52.339844 57.996094 52.605469 57.734375 C 52.867188 57.472656 53.164062 57.277344 53.5 57.136719 C 53.832031 56.996094 54.183594 56.925781 54.550781 56.925781 C 54.921875 56.925781 55.273438 56.996094 55.605469 57.136719 C 55.9375 57.277344 56.238281 57.472656 56.5 57.734375 C 56.761719 57.996094 56.957031 58.296875 57.097656 58.628906 C 57.238281 58.960938 57.308594 59.3125 57.308594 59.683594 C 57.308594 60.050781 57.238281 60.402344 57.097656 60.734375 C 56.957031 61.070312 56.761719 61.367188 56.5 61.628906 C 56.238281 61.894531 55.9375 62.085938 55.605469 62.226562 C 55.273438 62.367188 54.921875 62.4375 54.550781 62.4375 Z M 54.550781 62.4375 "/></clipPath></defs><g id="d276b93c93"><g clip-rule="nonzero" clip-path="url(#1dbd939d9d)"><g clip-rule="nonzero" clip-path="url(#5b97a8883a)"><rect x="0" width="75" y="0" height="74.999997" style="fill:#ffbf39;fill-opacity:1;stroke:none;"/></g></g><g clip-rule="nonzero" clip-path="url(#90bb4d3153)"><g clip-rule="nonzero" clip-path="url(#31a14c3965)"><rect x="0" width="75" y="0" height="74.999997" style="fill:#ffbf39;fill-opacity:1;stroke:none;"/></g></g><g clip-rule="nonzero" clip-path="url(#42ce0bb31c)"><g clip-rule="nonzero" clip-path="url(#7f947ba881)"><rect x="0" width="75" y="0" height="74.999997" style="fill:#ffbf39;fill-opacity:1;stroke:none;"/></g></g><g clip-rule="nonzero" clip-path="url(#2123d7ad25)"><g clip-rule="nonzero" clip-path="url(#ac01ad2e60)"><rect x="0" width="75" y="0" height="74.999997" style="fill:#ffbf39;fill-opacity:1;stroke:none;"/></g></g><g clip-rule="nonzero" clip-path="url(#7c75942a19)"><g clip-rule="nonzero" clip-path="url(#d4f02ba2df)"><rect x="0" width="75" y="0" height="74.999997" style="fill:#ffbf39;fill-opacity:1;stroke:none;"/></g></g><g clip-rule="nonzero" clip-path="url(#b1707892cf)"><g clip-rule="nonzero" clip-path="url(#1188f69509)"><rect x="0" width="75" y="0" height="74.999997" style="fill:#ffbf39;fill-opacity:1;stroke:none;"/></g></g><g clip-rule="nonzero" clip-path="url(#3faaa81598)"><g clip-rule="nonzero" clip-path="url(#b96303ccc7)"><rect x="0" width="75" y="0" height="74.999997" style="fill:#ffbf39;fill-opacity:1;stroke:none;"/></g></g><g clip-rule="nonzero" clip-path="url(#b6101d84c7)"><g clip-rule="nonzero" clip-path="url(#b8ec0675b1)"><rect x="0" width="75" y="0" height="74.999997" style="fill:#ffbf39;fill-opacity:1;stroke:none;"/></g></g><g clip-rule="nonzero" clip-path="url(#044426d313)"><g clip-rule="nonzero" clip-path="url(#0266ffc48b)"><rect x="0" width="75" y="0" height="74.999997" style="fill:#ffbf39;fill-opacity:1;stroke:none;"/></g></g></g></svg>