<svg xmlns="http://www.w3.org/2000/svg" xmlns:xlink="http://www.w3.org/1999/xlink" width="100" zoomAndPan="magnify" viewBox="0 0 75 74.999997" height="100" preserveAspectRatio="xMidYMid meet" version="1.2"><defs><clipPath id="d0796c2c92"><path d="M 20.347656 22.894531 L 54.644531 22.894531 C 55.40625 22.894531 56.121094 23.109375 56.765625 23.539062 L 37.507812 41.890625 L 31.894531 36.535156 L 18.230469 23.539062 C 18.875 23.109375 19.5625 22.894531 20.347656 22.894531 Z M 17.207031 24.492188 L 30.871094 37.484375 L 17.207031 50.480469 C 16.851562 49.980469 16.613281 49.433594 16.492188 48.816406 L 16.492188 26.179688 C 16.589844 25.5625 16.828125 25.015625 17.207031 24.515625 Z M 57.8125 24.492188 C 58.167969 24.992188 58.40625 25.539062 58.523438 26.15625 L 58.523438 48.816406 C 58.429688 49.433594 58.191406 49.980469 57.8125 50.480469 L 44.148438 37.484375 Z M 43.125 38.460938 L 56.765625 51.433594 C 56.121094 51.859375 55.429688 52.074219 54.644531 52.074219 L 20.347656 52.074219 C 19.585938 52.074219 18.875 51.859375 18.230469 51.433594 L 31.867188 38.460938 L 37.484375 43.816406 L 43.101562 38.460938 Z M 37.460938 0 C 16.78125 0.0234375 0 16.804688 0 37.507812 C 0 58.214844 16.804688 74.996094 37.507812 74.996094 C 58.214844 74.996094 75.019531 58.191406 75.019531 37.484375 C 75.019531 16.78125 58.214844 0.0234375 37.535156 0 Z M 37.460938 0 "/></clipPath></defs><g id="87ec7bc9ae"><g clip-rule="nonzero" clip-path="url(#d0796c2c92)"><rect x="0" width="75" y="0" height="74.999997" style="fill:#100f0d;fill-opacity:1;stroke:none;"/></g></g></svg>