<svg xmlns="http://www.w3.org/2000/svg" xmlns:xlink="http://www.w3.org/1999/xlink" width="100" zoomAndPan="magnify" viewBox="0 0 75 74.999997" height="100" preserveAspectRatio="xMidYMid meet" version="1.2"><defs><clipPath id="975ca3cf25"><path d="M 0 0 L 74.996094 0 L 74.996094 75 L 0 75 Z M 0 0 "/></clipPath><clipPath id="155eb89af9"><path d="M 24.945312 11.542969 C 26.777344 11.542969 27.46875 12.378906 27.632812 13.042969 C 29.632812 16.734375 32.324219 23.089844 32.324219 25.421875 L 32.324219 25.753906 C 31.824219 26.921875 30.824219 27.585938 29.992188 28.085938 C 28.824219 28.753906 28.15625 29.253906 27.992188 30.417969 C 27.992188 30.753906 28.324219 32.585938 33.515625 38.964844 L 35.679688 41.652344 C 40.867188 47.84375 42.535156 48.507812 42.867188 48.507812 C 43.035156 48.53125 43.203125 48.53125 43.34375 48.53125 C 44.34375 48.53125 44.84375 48.03125 45.722656 47.152344 C 46.390625 46.320312 47.222656 45.484375 48.414062 45.320312 L 48.746094 45.320312 C 51.078125 45.820312 56.792969 49.507812 60.125 52.339844 C 60.625 52.507812 61.457031 53.339844 60.792969 55.53125 C 59.792969 58.886719 55.269531 63.742188 51.078125 63.742188 L 50.746094 63.574219 C 44.558594 63.242188 36.011719 57.386719 28.132812 47.84375 L 25.277344 44.320312 C 17.398438 34.824219 13.210938 25.445312 14.234375 19.421875 C 14.898438 15.066406 21.253906 11.542969 24.945312 11.542969 Z M 37.179688 0 C 16.757812 0.167969 0.308594 16.710938 0 36.917969 L 0 38.058594 C 0.308594 58.554688 17.089844 75 37.488281 75 C 58.246094 75 74.976562 58.101562 74.976562 37.511719 C 75 17.019531 58.433594 0.167969 37.820312 0 Z M 37.179688 0 "/></clipPath></defs><g id="7a5ba615a9"><g clip-rule="nonzero" clip-path="url(#975ca3cf25)"><g clip-rule="nonzero" clip-path="url(#155eb89af9)"><path style=" stroke:none;fill-rule:nonzero;fill:#100f0d;fill-opacity:1;" d="M 0 0 L 74.996094 0 L 74.996094 74.996094 L 0 74.996094 Z M 0 0 "/></g></g></g></svg>