<svg width="18" height="18" viewBox="0 0 18 18" fill="none" xmlns="http://www.w3.org/2000/svg">
<path d="M17.08 4.78214C16.8856 4.05921 16.3156 3.48933 15.5927 3.29466C14.2722 2.93335 8.99003 2.93335 8.99003 2.93335C8.99003 2.93335 3.70804 2.93335 2.38752 3.28096C1.67859 3.47542 1.0947 4.05931 0.900246 4.78214C0.552734 6.10256 0.552734 8.84093 0.552734 8.84093C0.552734 8.84093 0.552734 11.5931 0.900246 12.8997C1.09491 15.6226 1.66469 14.1924 2.38762 14.3871C3.72195 14.7485 8.99023 14.7485 8.99023 14.7485C8.99023 14.7485 14.2722 14.7485 15.5927 14.4009C16.3157 14.2063 16.8856 15.6365 17.0802 12.9136C17.4276 11.5931 17.4276 8.85484 17.4276 8.85484C17.4276 8.85484 17.4415 6.10256 17.08 4.78214ZM7.3083 11.3707V6.31113L11.7007 8.84093L7.3083 11.3707Z" fill="#1e1e1e"/>
</svg>
