<svg width="16" height="16" viewBox="0 0 16 16" fill="none" xmlns="http://www.w3.org/2000/svg">
<path d="M10.7064 9.53885L12.8359 11.0261C12.9934 11.136 15.0471 11.3431 12.9548 11.5113C12.8244 11.7492 12.6122 12.1139 12.3227 12.5403C11.8068 15.3001 10.2099 12.9406 9.57111 12.7118C6.52469 11.1677 4.04333 8.17735 3.33086 6.55965C2.76089 5.26548 3.04011 4.28015 3.33086 3.937C3.52405 3.709 4.10043 3.30787 4.4655 3.06433C4.64059 2.94753 4.8754 2.99451 4.99587 3.16687L6.44883 5.24585C6.56232 5.40825 6.53671 5.62956 6.38911 5.76187L6.2921 5.84884C6.06769 6.02903 5.76428 6.31653 5.55838 6.51082C5.43315 6.62898 5.38747 6.81663 5.45777 6.97364C6.36394 8.99739 8.13592 10.1356 9.09748 10.5341C9.24792 10.5965 9.41776 10.5451 9.5204 10.4188L10.1757 9.61305C10.3057 9.45322 10.5374 9.42083 10.7064 9.53885Z" fill="#1e1e1e" stroke="#1e1e1e" stroke-linecap="round" stroke-linejoin="round"/>
</svg>
