<svg width="104" height="104" viewBox="0 0 104 104" fill="none" xmlns="http://www.w3.org/2000/svg">
<path d="M12.9336 45.5484C16.0304 26.5806 32.5465 12 52.4175 12C64.4175 12 75.2562 17.2903 82.482 25.6774" stroke="#FFBF39" stroke-width="2" stroke-miterlimit="10"/>
<path d="M30.8672 85.6774C37.0607 89.6774 44.5446 91.9999 52.4156 91.9999C69.5769 91.9999 84.2865 81.1612 89.964 65.8064" stroke="#FFBF39" stroke-width="2" stroke-miterlimit="10"/>
<path d="M34.3516 47.871L65.3193 64.6452C66.8677 65.4194 68.5451 65.9355 70.2225 65.9355H71.1258" stroke="#FFBF39" stroke-width="2" stroke-miterlimit="10" stroke-linejoin="round"/>
<path d="M98.8686 65.8064H81.4492" stroke="#FFBF39" stroke-width="2" stroke-miterlimit="10" stroke-linejoin="round"/>
<path d="M24.5455 45.5483H5.96484" stroke="#FFBF39" stroke-width="2" stroke-miterlimit="10" stroke-linejoin="round"/>
<path d="M76.4171 70.9677C79.2677 70.9677 81.5784 68.6569 81.5784 65.8064C81.5784 62.9559 79.2677 60.6451 76.4171 60.6451C73.5666 60.6451 71.2559 62.9559 71.2559 65.8064C71.2559 68.6569 73.5666 70.9677 76.4171 70.9677Z" stroke="#FFBF39" stroke-width="2" stroke-miterlimit="10" stroke-linejoin="round"/>
<path d="M29.7062 50.7097C32.5567 50.7097 34.8675 48.3989 34.8675 45.5484C34.8675 42.6979 32.5567 40.3871 29.7062 40.3871C26.8557 40.3871 24.5449 42.6979 24.5449 45.5484C24.5449 48.3989 26.8557 50.7097 29.7062 50.7097Z" stroke="#FFBF39" stroke-width="2" stroke-miterlimit="10" stroke-linejoin="round"/>
<path d="M92.416 48.258H83.6418C82.9966 48.258 82.3514 48.5161 81.8353 49.0322L77.4482 53.4193L73.0611 49.0322C72.545 48.5161 71.8998 48.258 71.2547 48.258H62.4805V25.6774H92.416V48.258Z" stroke="#FFBF39" stroke-width="2" stroke-miterlimit="10" stroke-linejoin="round"/>
<path d="M13.9648 63.2257H22.739C23.3842 63.2257 24.0294 62.9677 24.5455 62.4516L28.9326 58.0645L33.3197 62.4516C33.8358 62.9677 34.481 63.2257 35.1261 63.2257H43.9003V85.6774H13.9648V63.2257Z" stroke="#FFBF39" stroke-width="2" stroke-miterlimit="10" stroke-linejoin="round"/>
</svg>
