<svg width="80" height="80" viewBox="0 0 80 80" fill="none" xmlns="http://www.w3.org/2000/svg">
<path d="M10.7596 55.8591C7.98843 51.0318 6.46875 45.4001 6.46875 39.5001C6.46875 20.9958 21.4868 5.97778 39.9911 5.97778C55.5455 5.97778 68.6863 16.6155 72.4408 31.0078" stroke="#FFBF39" stroke-width="2" stroke-miterlimit="10"/>
<rect x="15" y="10" width="8" height="8" rx="4" fill="#FFBF39"/>
<path d="M77.0003 62.0271H20.5039V32.885L48.7521 21.5321L77.0003 32.885V62.0271Z" fill="white" stroke="#1e1e1e" stroke-width="2" stroke-miterlimit="10" stroke-linejoin="round"/>
<path d="M65 45H45V60H65V45Z" fill="#FFBF39" stroke="#FFBF39" stroke-width="2" stroke-miterlimit="10" stroke-linejoin="round"/>
<path d="M55 53H40V61H55V53Z" stroke="#1e1e1e" stroke-width="2" stroke-miterlimit="10" stroke-linejoin="round"/>
<path d="M64.7542 62.0272C58.6754 68.821 49.8255 73.0225 39.9923 73.0225C30.1591 73.0225 21.3092 68.821 15.2305 62.0272" stroke="#1e1e1e" stroke-width="2" stroke-miterlimit="10"/>
<path d="M40.001 54.4287H27.0312V62.0271H40.001V54.4287Z" stroke="#1e1e1e" stroke-width="2" stroke-miterlimit="10" stroke-linejoin="round"/>
<path d="M70.4762 40.7516H27.0312V62.0272H70.4762V40.7516Z" stroke="#1e1e1e" stroke-width="2" stroke-miterlimit="10" stroke-linejoin="round"/>
<path d="M70.4762 40.7516H27.0312V48.3501H70.4762V40.7516Z" stroke="#1e1e1e" stroke-width="2" stroke-miterlimit="10" stroke-linejoin="round"/>
<path d="M46.0723 35.7456H51.4358" stroke="#1e1e1e" stroke-width="2" stroke-miterlimit="10" stroke-linejoin="round"/>
<path d="M27.0312 44.5956H70.4762" stroke="#1e1e1e" stroke-width="2" stroke-miterlimit="10" stroke-linejoin="round"/>
<path d="M2 62.0272H27.03" stroke="#1e1e1e" stroke-width="2" stroke-miterlimit="10" stroke-linejoin="round"/>
<path d="M33.6445 54.4287V62.0271" stroke="#1e1e1e" stroke-width="2" stroke-miterlimit="10" stroke-linejoin="round"/>
<path d="M36.7754 35.7456H42.139" stroke="#1e1e1e" stroke-width="2" stroke-miterlimit="10" stroke-linejoin="round"/>
<path d="M60.7288 35.7456H55.3652" stroke="#1e1e1e" stroke-width="2" stroke-miterlimit="10" stroke-linejoin="round"/>
</svg>
