<svg width="104" height="104" viewBox="0 0 104 104" fill="none" xmlns="http://www.w3.org/2000/svg">
<path d="M14.3514 79.3236C10.5584 73.0019 8.45117 65.5565 8.45117 57.5491" stroke="#FFBF39" stroke-width="2" stroke-miterlimit="10"/>
<path d="M95.5504 57.5491C95.5504 65.5565 93.3027 73.1424 89.5098 79.6045" stroke="#FFBF39" stroke-width="2" stroke-miterlimit="10"/>
<path d="M21.2363 26.7837C29.1032 18.9168 39.9202 14 52.0016 14C63.8019 14 74.6189 18.7763 82.4859 26.5028" stroke="#FFBF39" stroke-width="2" stroke-miterlimit="10"/>
<path d="M1.42773 57.5491H102.574" stroke="#FFBF39" stroke-width="2" stroke-miterlimit="10"/>
<path d="M6.625 44.9056C17.723 44.9056 17.723 48.1367 28.8209 48.1367C39.9189 48.1367 39.9189 44.9056 51.0169 44.9056C62.1148 44.9056 62.1148 48.1367 73.2128 48.1367C84.3108 48.1367 84.4512 44.9056 95.5492 44.9056" stroke="#FFBF39" stroke-width="2" stroke-miterlimit="10"/>
<path d="M6.625 34.6506C17.723 34.6506 17.723 37.8817 28.8209 37.8817C39.9189 37.8817 39.9189 34.6506 51.0169 34.6506C62.1148 34.6506 62.1148 37.8817 73.2128 37.8817C84.3107 37.8817 84.3108 34.6506 95.4087 34.6506" stroke="#FFBF39" stroke-width="2" stroke-miterlimit="10"/>
<path d="M6.625 24.2552C17.723 24.2552 17.723 27.4863 28.8209 27.4863C39.9189 27.4863 39.9189 24.2552 51.0169 24.2552C62.1148 24.2552 62.1148 27.4863 73.2128 27.4863C84.3108 27.4863 84.4512 24.2552 95.5492 24.2552" stroke="#FFBF39" stroke-width="2" stroke-miterlimit="10"/>
<path d="M51.8594 62.0442V73.2826" stroke="#FFBF39" stroke-width="2" stroke-miterlimit="10"/>
<path d="M51.8594 78.7616V90" stroke="#FFBF39" stroke-width="2" stroke-miterlimit="10"/>
<path d="M31.6302 62.0442L8.16992 85.5044" stroke="#FFBF39" stroke-width="2" stroke-miterlimit="10"/>
<path d="M71.9492 62.0442L95.55 85.5044" stroke="#FFBF39" stroke-width="2" stroke-miterlimit="10"/>
</svg>
