<svg width="85" height="80" viewBox="0 0 85 80" fill="none" xmlns="http://www.w3.org/2000/svg">
<rect x="55" y="20" width="30" height="40" fill="#FFBF39"/>
<path d="M9.23341 61.055C4.66494 55.1547 2 47.6366 2 39.5475C2 19.753 17.9896 3.76514 37.6911 3.76514C52.729 3.76514 65.673 15.0914 70.9077 26.3195" stroke="#FFBF39" stroke-width="2" stroke-miterlimit="10"/>
<path d="M26.2695 73.3314C29.8862 74.5685 33.7885 75.2347 37.7859 75.2347C48.2553 75.2347 57.6777 70.6667 64.2449 63.5293" stroke="#1e1e1e" stroke-width="2" stroke-miterlimit="10"/>
<path d="M47.494 65.3376C47.9699 67.6216 46.6375 70.0007 44.3532 70.762C41.022 71.904 35.3115 73.3315 27.6974 73.3315C20.2736 73.3315 14.4678 71.8089 11.0415 70.6669C8.75725 69.9055 7.42478 67.6216 7.90066 65.2424C9.70901 56.0113 17.8942 49.0642 27.6974 49.0642C37.5005 49.0642 45.6857 56.1065 47.494 65.3376Z" stroke="#1e1e1e" stroke-width="2" stroke-miterlimit="10" stroke-linejoin="round"/>
<path d="M19.2246 29.3649V36.5975C19.2246 41.2606 23.0317 45.0672 27.6953 45.0672C32.359 45.0672 36.166 41.2606 36.166 36.5975V29.3649" stroke="#1e1e1e" stroke-width="2" stroke-miterlimit="10" stroke-linejoin="round"/>
<path d="M39.5929 22.8934C39.5929 22.8934 32.9306 16.8979 27.6959 16.8979C22.4612 16.8979 15.7988 22.8934 15.7988 22.8934L18.0831 27.3662" stroke="#1e1e1e" stroke-width="2" stroke-miterlimit="10" stroke-linejoin="round"/>
<path d="M27.6968 33.1722C20.0827 33.1722 18.084 27.3665 18.084 27.3665C18.084 27.3665 22.8428 26.2244 27.6968 26.2244C32.7411 26.2244 37.3096 27.3665 37.3096 27.3665C37.3096 27.3665 35.3109 33.1722 27.6968 33.1722Z" stroke="#1e1e1e" stroke-width="2" stroke-miterlimit="10" stroke-linejoin="round"/>
<path d="M44.2598 26.3193H77.0004V63.5292H46.8295" stroke="#1e1e1e" stroke-width="2" stroke-miterlimit="10" stroke-linejoin="round"/>
<path d="M36.4534 50.9676L15.3242 72.0944" stroke="#1e1e1e" stroke-width="2" stroke-miterlimit="10" stroke-linejoin="round"/>
<path d="M63.3891 46.8755L53.3004 56.8679L47.5898 51.158" stroke="#1e1e1e" stroke-width="2" stroke-miterlimit="10" stroke-linejoin="round"/>
<path d="M72.2401 46.8752L62.1514 56.8677L59.8672 54.6788" stroke="#1e1e1e" stroke-width="2" stroke-miterlimit="10" stroke-linejoin="round"/>
</svg>
