<svg width="104" height="104" viewBox="0 0 104 104" fill="none" xmlns="http://www.w3.org/2000/svg">
<path d="M13.9824 47.6129C16.176 27.6129 33.0792 12 53.7244 12C64.0469 12 73.3373 15.871 80.434 22.1935" stroke="#FFBF39" stroke-width="2" stroke-miterlimit="10"/>
<path d="M52.9516 92.0001C33.9839 91.613 18.2419 78.0646 14.5 60.1292" stroke="#FFBF39" stroke-width="2" stroke-miterlimit="10"/>
<path d="M84.4336 26.4515C90.24 33.4193 93.7239 42.3225 93.7239 51.9999" stroke="#FFBF39" stroke-width="2" stroke-miterlimit="10"/>
<path d="M7.27344 60.1292H52.9509" stroke="#FFBF39" stroke-width="2" stroke-miterlimit="10"/>
<path d="M73.2086 54.8387V41.4193L55.4022 28.2581L37.5957 42.1935V60.129H52.9505" stroke="#FFBF39" stroke-width="2" stroke-miterlimit="10" stroke-linejoin="round"/>
<path d="M37.4667 47.6129H11.5312V60.129H37.4667V47.6129Z" stroke="#FFBF39" stroke-width="2" stroke-miterlimit="10" stroke-linejoin="round"/>
<path d="M48.0464 49.4193H42.498V60.129H48.0464V49.4193Z" stroke="#FFBF39" stroke-width="2" stroke-miterlimit="10" stroke-linejoin="round"/>
<path d="M55.4023 28.2581H69.7249" stroke="#FFBF39" stroke-width="2" stroke-miterlimit="10" stroke-linejoin="round"/>
<path d="M73.209 41.4194H84.4348" stroke="#FFBF39" stroke-width="2" stroke-miterlimit="10"/>
<path d="M62.498 41.8064V49.4193" stroke="#FFBF39" stroke-width="2" stroke-miterlimit="10"/>
<path d="M54.7574 43.3549H47.1445" stroke="#FFBF39" stroke-width="2" stroke-miterlimit="10"/>
<path d="M84.4343 36.2581H79.402L69.7246 28.2581V22.1936H84.4343V36.2581Z" stroke="#FFBF39" stroke-width="2" stroke-miterlimit="10" stroke-linejoin="round"/>
<path d="M93.7254 85.6773H52.9512V54.8386H84.435" stroke="#FFBF39" stroke-width="2" stroke-miterlimit="10" stroke-linejoin="round"/>
<path d="M81.8549 62.4515L68.1775 75.9999L60.4355 68.258" stroke="#FFBF39" stroke-width="2" stroke-miterlimit="10" stroke-linejoin="round"/>
<path d="M93.7252 62.4515L80.1769 75.9999L77.0801 73.0322" stroke="#FFBF39" stroke-width="2" stroke-miterlimit="10" stroke-linejoin="round"/>
</svg>
