<svg width="80" height="80" viewBox="0 0 80 80" fill="none" xmlns="http://www.w3.org/2000/svg">
<rect x="15" y="52" width="12" height="12" rx="6" fill="#FFBF39"/>
<rect x="62" y="52" width="12" height="12" rx="6" fill="#FFBF39"/>
<path d="M15.5762 63.5453C22.0369 70.7828 31.4002 75.2944 41.7935 75.2944C54.7149 75.2944 66.0445 68.245 72.1307 57.8118" stroke="#1e1e1e" stroke-width="2" stroke-miterlimit="10"/>
<path d="M9.39648 26.3241C14.7336 15.6351 27.1868 4.70581 41.7936 4.70581C61.2694 4.70581 76.9998 20.4966 76.9998 40.0471C76.9998 41.9269 76.8125 43.8068 76.5316 45.5926" stroke="#1e1e1e" stroke-width="2" stroke-miterlimit="10"/>
<rect x="16" y="40" width="18" height="44" transform="rotate(-90 16 40)" fill="#FFBF39"/>
<path d="M55.371 44.5588V26.2302H2" stroke="#1e1e1e" stroke-width="2" stroke-miterlimit="10" stroke-linejoin="round"/>
<path d="M59.491 57.9056H49.0977" stroke="#1e1e1e" stroke-width="2" stroke-miterlimit="10"/>
<path d="M30.8389 34.5953H6.58789" stroke="#1e1e1e" stroke-width="2" stroke-miterlimit="10"/>
<path d="M55.3711 34.5953H70.1652C72.9742 34.5953 75.4086 36.6632 75.7832 39.483L77.0004 48.9762V57.9055H70.727" stroke="#1e1e1e" stroke-width="2" stroke-miterlimit="10" stroke-linejoin="round"/>
<path d="M65.1082 63.8271C68.211 63.8271 70.7262 61.3022 70.7262 58.1875C70.7262 55.0729 68.211 52.548 65.1082 52.548C62.0055 52.548 59.4902 55.0729 59.4902 58.1875C59.4902 61.3022 62.0055 63.8271 65.1082 63.8271Z" stroke="#1e1e1e" stroke-width="2" stroke-miterlimit="10"/>
<path d="M69.6034 34.5953H55.3711V29.8016H57.3374C61.8318 29.8016 66.2326 31.4935 69.6034 34.5953Z" stroke="#1e1e1e" stroke-width="2" stroke-miterlimit="10"/>
<path d="M27.1881 63.827H15.2967C10.0532 63.827 5.74609 59.5033 5.74609 54.1457C5.74609 48.8821 10.0532 44.5585 15.2967 44.5585H49.0047" stroke="#1e1e1e" stroke-width="2" stroke-miterlimit="10"/>
<path d="M39.9219 35.3478L49.0979 44.5591L39.9219 53.8643" stroke="#1e1e1e" stroke-width="2" stroke-miterlimit="10" stroke-linejoin="round"/>
<path d="M76.9988 49.0704H71.9426L63.5156 46.7206V40.0471H75.8752" stroke="#1e1e1e" stroke-width="2" stroke-miterlimit="10" stroke-linejoin="round"/>
</svg>
