<svg width="104" height="104" viewBox="0 0 104 104" fill="none" xmlns="http://www.w3.org/2000/svg">
<path d="M19.3442 75.0058C14.7058 68.5635 12 60.575 12 51.9423C12 29.9096 29.9096 12 51.9423 12C73.975 12 91.8846 29.9096 91.8846 51.9423C91.8846 60.575 89.1788 68.5635 84.5404 75.0058" stroke="#FFBF39" stroke-width="2" stroke-miterlimit="10"/>
<path d="M76.8095 82.2211C77.4537 85.1846 75.7787 88.148 72.8153 89.0499C68.5633 90.5961 61.2191 92.3999 51.6845 92.3999C42.1499 92.3999 34.9345 90.4673 30.5537 89.0499C27.7191 88.0192 26.0441 85.1846 26.5595 82.2211C28.8787 70.4961 39.3153 61.6057 51.6845 61.6057C64.0537 61.6057 74.4903 70.4961 76.8095 82.2211Z" stroke="#FFBF39" stroke-width="2" stroke-miterlimit="10" stroke-linejoin="round"/>
<path d="M60.9613 51.298C61.9921 49.623 62.5075 47.8192 62.5075 45.7576V42.0211C62.5075 36.0942 57.7402 31.198 51.6844 31.198C45.6286 31.198 40.8613 35.9653 40.8613 42.0211V45.7576C40.8613 51.6845 45.6286 56.5807 51.6844 56.5807C53.7459 56.5807 55.6786 55.9365 57.3536 55.0345" stroke="#FFBF39" stroke-width="2" stroke-miterlimit="10" stroke-linejoin="round"/>
<path d="M35.0625 41.6346C35.0625 32.2288 42.9221 24.6269 52.4567 25.1423C61.3471 25.5288 68.176 33.2596 68.176 42.15V43.5673C68.176 47.8192 64.6971 51.2981 60.4452 51.2981H52.199" stroke="#FFBF39" stroke-width="2" stroke-miterlimit="10" stroke-linejoin="round"/>
</svg>
