<svg width="80" height="80" viewBox="0 0 80 80" fill="none" xmlns="http://www.w3.org/2000/svg">
<path d="M17.4492 11.1C23.4492 6.7 30.8492 4 38.9492 4C49.8492 4 59.5492 8.8 66.1492 16.4" stroke="#FFBF39" stroke-width="1.5" stroke-miterlimit="10" stroke-linejoin="round"/>
<path d="M10.0492 18.5C5.64922 24.5 2.94922 31.9 2.94922 40C2.94922 59.9 19.0492 76 38.9492 76C50.1492 76 60.1492 70.9 66.7492 62.9" stroke="black" stroke-width="1.5" stroke-miterlimit="10" stroke-linejoin="round"/>
<path d="M47.65 62.5C63.8872 62.5 77.05 52.4264 77.05 40C77.05 27.5736 63.8872 17.5 47.65 17.5C31.4128 17.5 18.25 27.5736 18.25 40C18.25 52.4264 31.4128 62.5 47.65 62.5Z" stroke="black" stroke-width="1.5" stroke-miterlimit="10" stroke-linejoin="round"/>
<path d="M37.25 46.2C37.95 44 38.25 41.7 38.25 39.3C38.25 37.4 38.05 35.6 37.65 33.9" stroke="#FFBF39" stroke-width="3" stroke-miterlimit="10" stroke-linejoin="round"/>
<path d="M44.5484 31.5C45.1484 34 45.5484 36.7 45.5484 39.4C45.5484 42.7 45.0484 45.9 44.1484 48.9" stroke="#FFBF39" stroke-width="3" stroke-miterlimit="10" stroke-linejoin="round"/>
<path d="M50.75 52C52.05 48 52.85 43.8 52.85 39.4C52.85 35.4 52.25 31.5 51.15 27.9" stroke="#FFBF39" stroke-width="3" stroke-miterlimit="10" stroke-linejoin="round"/>
<path d="M57.3516 55C59.0516 50.1 60.0516 44.9 60.0516 39.4C60.0516 34.4 59.2516 29.5 57.7516 25" stroke="#FFBF39" stroke-width="3" stroke-miterlimit="10" stroke-linejoin="round"/>
<path d="M34.25 46.2C34.95 44 35.25 41.7 35.25 39.3C35.25 37.4 35.05 35.6 34.65 33.9" stroke="black" stroke-width="1.5" stroke-miterlimit="10" stroke-linejoin="round"/>
<path d="M41.5484 31.5C42.1484 34 42.5484 36.7 42.5484 39.4C42.5484 42.7 42.0484 45.9 41.1484 48.9" stroke="black" stroke-width="1.5" stroke-miterlimit="10" stroke-linejoin="round"/>
<path d="M47.75 52C49.05 48 49.85 43.8 49.85 39.4C49.85 35.4 49.25 31.5 48.15 27.9" stroke="black" stroke-width="1.5" stroke-miterlimit="10" stroke-linejoin="round"/>
<path d="M54.3516 55C56.0516 50.1 57.0516 44.9 57.0516 39.4C57.0516 34.4 56.2516 29.5 54.7516 25" stroke="black" stroke-width="1.5" stroke-miterlimit="10" stroke-linejoin="round"/>
<path d="M29.7492 15.4C23.2492 14.5 19.4492 18.3 18.3492 24.8C17.2492 18.2 15.4492 14.4 6.94922 15.4C13.4492 12.3 17.2492 8.5 18.3492 2C19.3492 8.5 23.1492 12.3 29.7492 15.4Z" fill="#FFBF39"/>
<path d="M25.8 15.4C19.3 16.5 15.5 20.3 14.4 26.8C13.3 20.2 9.5 16.4 3 15.4C9.5 14.3 15.3 10.5 14.4 4C15.4 10.5 19.2 14.3 25.8 15.4Z" stroke="black" stroke-width="1.5" stroke-miterlimit="10" stroke-linejoin="round"/>
</svg>
