<svg width="80" height="80" viewBox="0 0 80 80" fill="none" xmlns="http://www.w3.org/2000/svg">
<path d="M11.6484 17.9C18.2484 9.4 28.4484 4 40.0484 4C51.6484 4 61.8484 9.4 68.4484 17.9" stroke="black" stroke-width="1.5" stroke-miterlimit="10" stroke-linejoin="round"/>
<path d="M11.6484 62.0996C18.2484 70.5996 28.4484 75.9996 40.0484 75.9996C51.6484 75.9996 61.8484 70.5996 68.4484 62.0996" stroke="#FFBF39" stroke-width="1.5" stroke-miterlimit="10" stroke-linejoin="round"/>
<path d="M75.75 17.9H4.25V62.2H75.75V17.9Z" stroke="black" stroke-width="1.5" stroke-miterlimit="10" stroke-linejoin="round"/>
<path d="M59.8516 34.8992C60.8516 35.9992 62.3516 36.5992 63.9516 36.5992C67.0516 36.5992 69.6516 34.0992 69.6516 30.8992C69.6516 27.7992 67.0516 25.1992 63.9516 25.1992C62.3516 25.1992 60.8516 25.8992 59.8516 26.8992" stroke="black" stroke-width="1.5" stroke-miterlimit="10" stroke-linejoin="round"/>
<path d="M55 38C58.866 38 62 34.866 62 31C62 27.134 58.866 24 55 24C51.134 24 48 27.134 48 31C48 34.866 51.134 38 55 38Z" fill="#FFBF39"/>
<path d="M58.6484 51.6992H69.5484" stroke="black" stroke-width="1.5" stroke-miterlimit="10" stroke-linejoin="round"/>
<path d="M10.4502 51.7H52.4502" stroke="black" stroke-width="1.5" stroke-miterlimit="10" stroke-linejoin="round"/>
</svg>
