<svg width="23" height="24" viewBox="0 0 23 24" fill="none" xmlns="http://www.w3.org/2000/svg">
<path d="M18.9 9.5C18.9 16.5 11.4 21.8 11.4 21.8C11.4 21.8 4 16.3 4 9.5C4 5.4 7.3 2 11.5 2C15.7 2 18.9 5.4 18.9 9.5Z" stroke="#1e1e1e" stroke-width="1.5" stroke-miterlimit="10"/>
<path d="M13.5 12C15.433 12 17 10.433 17 8.5C17 6.567 15.433 5 15.5 5C11.567 5 10 6.567 10 8.5C10 10.433 11.567 12 15.5 12Z" fill="#FFBF39"/>
<path d="M11.4984 12.7996C12.9344 12.7996 14.0984 11.6355 14.0984 10.1996C14.0984 8.76367 12.9344 7.59961 11.4984 7.59961C10.0625 7.59961 8.89844 8.76367 8.89844 10.1996C8.89844 11.6355 10.0625 12.7996 11.4984 12.7996Z" stroke="#1e1e1e" stroke-width="1.5" stroke-miterlimit="10"/>
</svg>
