<svg width="24" height="24" viewBox="0 0 24 24" fill="none" xmlns="http://www.w3.org/2000/svg">
<circle cx="19.5" cy="16.5" r="3.5" fill="#FFBF39"/>
<path d="M14.1747 20.2079C14.2026 20.2221 14.2314 20.2345 14.2609 20.245C14.8212 20.4457 15.7915 20.7024 16.7564 20.7441C17.6561 20.783 18.8839 20.6474 19.5368 19.6857C20.0157 18.9805 20.3674 18.3762 20.5854 17.9787L19.9277 17.6181L20.5854 17.9787C20.9263 17.3568 20.7168 16.6108 20.1669 16.2268L16.7596 15.8473C16.1674 15.4337 15.3554 15.5468 14.8992 14.1077L13.9215 15.3099C12.4866 14.6815 9.96995 15.0072 8.64967 10.1236C8.98365 9.80845 9.42012 9.39734 9.73694 9.14294C9.74752 9.13444 9.75787 9.12566 9.76797 9.1166L9.92319 8.97746L9.42257 8.419L9.92319 8.97746C10.4415 8.51283 10.5319 7.73466 10.1329 7.16373L7.80813 3.83736C7.38713 3.23497 6.55581 3.0606 5.92859 3.47902C5.63161 3.67713 5.24306 3.94305 4.88609 4.2088C4.54972 4.45922 4.17476 4.75757 3.95717 5.01436C3.25828 5.83919 2.84881 7.74035 3.843 9.99773C4.46008 11.3988 5.79903 15.3136 7.57854 15.179C9.36526 17.052 11.643 18.9246 14.1747 20.2079Z" stroke="#1e1e1e" stroke-width="1.5" stroke-linecap="round" stroke-linejoin="round"/>
</svg>
