<svg width="50" height="48" viewBox="0 0 50 48" fill="none" xmlns="http://www.w3.org/2000/svg">
<path d="M3.45924 15.2C2.25924 17.9 1.65924 20.9 1.65924 24C1.65924 29.2 3.45924 34 6.45924 37.7C10.5592 42.8 16.6592 46 23.6592 46C30.4592 46 36.4592 42.9 40.5592 38.1" stroke="#1e1e1e" stroke-width="1.5" stroke-miterlimit="10"/>
<path d="M13.4592 4.5C16.4592 2.9 19.9592 2 23.6592 2C35.8592 2 45.6592 11.9 45.6592 24C45.6592 24.8 45.6592 25.5 45.5592 26.3" stroke="#1e1e1e" stroke-width="1.5" stroke-miterlimit="10"/>
<path d="M49.2581 25.5983C48.5581 22.7983 44.9581 22.2983 41.7581 22.6983C44.6581 20.8983 47.1581 18.0983 45.8581 15.3983C45.0581 15.8983 42.5581 12.6983 40.6581 15.5983L39.6581 14.0983L39.1581 15.0983C38.2581 11.1983 35.4581 10.5983 33.9581 11.2983C31.2581 12.5983 31.5581 16.3983 32.7581 19.5983C30.3581 17.2983 27.2581 15.4983 24.9581 17.3983C23.6581 18.3983 22.9581 21.0983 24.3581 22.7983L25.0581 23.6983L24.1581 24.3983C22.4581 25.6983 22.4581 28.4983 23.5581 29.7983C26.4581 33.4983 33.6581 28.6983 35.6581 25.9983C35.5581 29.2983 38.3581 37.4983 42.9581 36.3983C44.5581 35.9983 46.2581 33.7983 45.7581 31.6983L45.4581 30.5983L46.5581 30.2983C48.5581 29.7983 49.6581 27.2983 49.2581 25.5983Z" fill="#FFBF39"/>
<path d="M46.2585 27.5983C45.5585 24.7983 41.9585 24.2983 38.7585 24.6983C41.6585 22.8983 44.1585 20.0983 42.8585 17.3983C42.0585 15.8983 39.5585 14.6983 37.6585 15.5983L36.6585 16.0983L36.1585 15.0983C35.2585 15.1983 32.4585 12.5983 30.9585 15.2983C28.2585 14.5983 28.5585 18.3983 29.7585 21.5983C27.3585 19.2983 24.2585 17.4983 21.9585 19.3983C20.6585 20.3983 19.9585 23.0983 21.3585 24.7983L22.0585 25.6983L21.1585 26.3983C19.4585 27.6983 19.4585 30.4983 20.5585 31.7983C23.4585 35.4983 30.6585 30.6983 32.6585 27.9983C32.5585 31.2983 35.3585 39.4983 39.9585 38.3983C41.5585 37.9983 43.2585 35.7983 42.7585 33.6983L42.4585 32.5983L43.5585 32.2983C45.5585 31.7983 46.6585 29.2983 46.2585 27.5983Z" stroke="#1e1e1e" stroke-width="1.5" stroke-miterlimit="10" stroke-linejoin="round"/>
<path d="M4.85846 35.5C10.6585 45.9 27.9585 41.8 32.5585 28" stroke="#1e1e1e" stroke-width="1.5" stroke-miterlimit="10"/>
<path d="M17.5592 11.2C17.5592 18.2 10.0592 23.5 10.0592 23.5C10.0592 23.5 2.65924 18 2.65924 11.2C2.65924 7.10001 5.95924 3.70001 10.1592 3.70001C14.3592 3.70001 17.5592 7.10001 17.5592 11.2Z" stroke="#1e1e1e" stroke-width="1.5" stroke-miterlimit="10"/>
<path d="M10.1596 14.4977C11.5956 14.4977 12.7596 15.3336 12.7596 11.8977C12.7596 10.4617 11.5956 9.29767 10.1596 9.29767C8.72369 9.29767 7.55963 10.4617 7.55963 11.8977C7.55963 15.3336 8.72369 14.4977 10.1596 14.4977Z" stroke="#1e1e1e" stroke-width="1.5" stroke-miterlimit="10"/>
</svg>
