<svg width="628" height="258" viewBox="0 0 628 258" fill="none" xmlns="http://www.w3.org/2000/svg">
<g clip-path="url(#clip0_1_31259)">
<path opacity="0.5" d="M-163 21L-98 21C-89.5 21 -78.3 26.7 -73.5 41.5C-67.5 60 -68.5 77.5 -45.5 77.5C-22.5 77.5 44.5 77.5 44.5 77.5C52.5 77.5 59.4931 80.2896 64.5 90C81 122 85.5 125 113.5 125M113.5 125C140.747 125 174.5 125 174.5 125M113.5 125L206 125M113.5 125L174.5 125M174.5 125L206 125M206 125C214 125 220.993 127.79 226 137.5C242.5 169.5 247 172.5 275 172.5L336 172.5M206 125L282 125" stroke="#1E1E1E"/>
<path d="M-163 76L-98 76C-89.5 76 -78.3 81.7 -73.5 96.5C-67.5 115 -68.5 132.5 -45.5 132.5C-22.5 132.5 44.5 132.5 44.5 132.5C52.5 132.5 59.4931 135.29 64.5 145C81 177 85.5 180 113.5 180M113.5 180C140.747 180 174.5 180 174.5 180M113.5 180L206 180M113.5 180L174.5 180M174.5 180L206 180M206 180C214 180 220.993 182.79 226 192.5C242.5 224.5 247 227.5 275 227.5L336 227.5C344 227.5 350.993 230.29 356 240C372.5 272 377 275 405 275L466 275L497.5 275C505.5 275 512.493 277.79 517.5 287.5C534 319.5 538.5 322.5 566.5 322.5L627.5 322.5" stroke="#1E1E1E" stroke-opacity="0.22"/>
<path d="M-163 76L-98 76C-89.5 76 -78.3 81.7 -73.5 96.5C-67.5 115 -68.5 132.5 -45.5 132.5C-22.5 132.5 44.5 132.5 44.5 132.5C52.5 132.5 59.4931 135.29 64.5 145C81 177 85.5 180 113.5 180M113.5 180C140.747 180 174.5 180 174.5 180M113.5 180L206 180M113.5 180L174.5 180M174.5 180L206 180M206 180C214 180 220.993 182.79 226 192.5C242.5 224.5 247 227.5 275 227.5L336 227.5C344 227.5 350.993 230.29 356 240C372.5 272 377 275 405 275L466 275L497.5 275C505.5 275 512.493 277.79 517.5 287.5C534 319.5 538.5 322.5 566.5 322.5L627.5 322.5" stroke="url(#paint0_linear_1_31259)"/>
<path d="M-251 0L-186 -5.68248e-06C-177.5 -6.42557e-06 -166.3 5.69999 -161.5 20.5C-155.5 39 -148.5 56.5 -136 56.5L-43.5 56.5C-35.5 56.5 -28.5069 59.2896 -23.5 69C-6.99999 101 -2.49999 104 25.5 104M25.5 104C52.747 104 86.5 104 86.5 104M25.5 104L101 104M25.5 104L86.5 104M86.5 104L101 104M101 104C109 104 115.993 106.79 121 116.5C137.5 148.5 142 151.5 170 151.5L261 151.5C269 151.5 275.993 154.29 281 164C297.5 196 302 199 330 199L359.5 199L391 199C399 199 405.993 201.79 411 211.5C427.5 243.5 432 246.5 460 246.5L508 246.5" stroke="white" stroke-width="2"/>
<path d="M-251 0L-186 -5.68248e-06C-177.5 -6.42557e-06 -166.3 5.69999 -161.5 20.5C-155.5 39 -148.5 56.5 -136 56.5L-43.5 56.5C-35.5 56.5 -28.5069 59.2896 -23.5 69C-6.99999 101 -2.49999 104 25.5 104M25.5 104C52.747 104 86.5 104 86.5 104M25.5 104L101 104M25.5 104L86.5 104M86.5 104L101 104M101 104C109 104 115.993 106.79 121 116.5C137.5 148.5 142 151.5 170 151.5L261 151.5C269 151.5 275.993 154.29 281 164C297.5 196 302 199 330 199L359.5 199L391 199C399 199 405.993 201.79 411 211.5C427.5 243.5 432 246.5 460 246.5L508 246.5" stroke="url(#paint1_linear_1_31259)" stroke-width="2"/>
<path d="M-251 55L-186 55C-177.5 55 -166.3 60.7 -161.5 75.5C-155.5 94 -148.5 111.5 -136 111.5L-43.5 111.5C-35.5 111.5 -28.5069 114.29 -23.5 124C-6.99999 156 -2.49999 159 25.5 159M25.5 159C52.747 159 86.5 159 86.5 159M25.5 159L101 159M25.5 159L86.5 159M86.5 159L101 159M101 159C109 159 115.993 161.79 121 171.5C137.5 203.5 142 206.5 170 206.5" stroke="white"/>
<circle cx="339.5" cy="172.5" r="3.5" fill="#8F8237"/>
<circle cx="173.5" cy="206.5" r="3.5" fill="white"/>
<circle cx="75" cy="220.5" r="3.5" fill="white"/>
<circle cx="30" cy="185.5" r="3.5" fill="white"/>
<circle cx="30" cy="34.5" r="3.5" fill="white"/>
<circle cx="285.5" cy="125.5" r="3.5" fill="#8F8237"/>
<path d="M-55 220.5L72.5 220.5" stroke="white"/>
<path d="M-100 185.5L27.5 185.5" stroke="white"/>
<path d="M-100 34.5L27.5 34.5" stroke="white"/>
</g>
<defs>
<linearGradient id="paint0_linear_1_31259" x1="383" y1="269.5" x2="54.5" y2="160" gradientUnits="userSpaceOnUse">
<stop stop-color="#FFBF39"/>
<stop offset="1" stop-color="#FFBF39" stop-opacity="0"/>
</linearGradient>
<linearGradient id="paint1_linear_1_31259" x1="457.5" y1="244.5" x2="75.5" y2="150.5" gradientUnits="userSpaceOnUse">
<stop stop-color="#FFBF39"/>
<stop offset="1" stop-color="white" stop-opacity="0"/>
</linearGradient>
<clipPath id="clip0_1_31259">
<rect width="878.5" height="322.5" fill="white" transform="translate(-251)"/>
</clipPath>
</defs>
</svg>
