<svg width="48" height="48" viewBox="0 0 48 48" fill="none" xmlns="http://www.w3.org/2000/svg">
<circle cx="15.5" cy="34.5" r="8.5" fill="#FFBF39"/>
<path d="M43.6 34C43.4 34.3 43.3 34.6 43.1 34.9" stroke="#1e1e1e" stroke-width="1.5" stroke-miterlimit="10"/>
<path d="M41.9 36.8C37.9 42.4 31.4 46 24 46C20.5 46 17.2 45.2 14.3 43.7" stroke="#1e1e1e" stroke-width="1.5" stroke-miterlimit="10"/>
<path d="M45.9 21.8C44.8 10.7 35.4 2 24 2C15.1 2 7.4 7.3 4 14.9" stroke="#1e1e1e" stroke-width="1.5" stroke-miterlimit="10"/>
<path d="M33.9 25.4984V14.8984H0" stroke="#1e1e1e" stroke-width="1.5" stroke-miterlimit="10"/>
<path d="M36.3996 34H23.5996" stroke="#1e1e1e" stroke-width="1.5" stroke-miterlimit="10"/>
<path d="M19.1 19.8984H4.40002" stroke="#1e1e1e" stroke-width="1.5" stroke-miterlimit="10"/>
<path d="M23.5992 24.5H12.6992" stroke="#1e1e1e" stroke-width="1.5" stroke-miterlimit="10"/>
<path d="M31.4 24.5H26.5" stroke="#1e1e1e" stroke-width="1.5" stroke-miterlimit="10"/>
<path d="M39.8 37.4984C41.6778 37.4984 43.2 35.9762 43.2 34.0984C43.2 32.2207 41.6778 30.6984 39.8 30.6984C37.9223 30.6984 36.4 32.2207 36.4 34.0984C36.4 35.9762 37.9223 37.4984 39.8 37.4984Z" stroke="#1e1e1e" stroke-width="1.5" stroke-miterlimit="10"/>
<path d="M47 28.5984H43.9L38.8 27.1984V23.1984H46.3" stroke="#1e1e1e" stroke-width="1.5" stroke-miterlimit="10"/>
<path d="M33.9 17.0984H35.1C37.9 17.0984 40.5 18.0984 42.6 19.9984H42.9C44.6 19.9984 46.1 21.2984 46.3 22.9984L47 28.6985V33.9984H43.2" stroke="#1e1e1e" stroke-width="1.5" stroke-miterlimit="10"/>
<path d="M10 45C14.4183 45 18 41.4183 18 37C18 32.5817 14.4183 29 10 29C5.58172 29 2 32.5817 2 37C2 41.4183 5.58172 45 10 45Z" stroke="#1e1e1e" stroke-width="1.5" stroke-miterlimit="10"/>
<path d="M10 32.1016V37.5016H13.7" stroke="#1e1e1e" stroke-width="1.5" stroke-miterlimit="10"/>
</svg>
