<svg width="48" height="48" viewBox="0 0 48 48" fill="none" xmlns="http://www.w3.org/2000/svg">
<g clip-path="url(#clip0_5_810)">
<path d="M32.4008 23.3998V19.8998L29.8008 15.5998V11.5998L26.8008 6.09979L23.8008 11.5998V15.2998" fill="#FFBF39"/>
<path d="M19.8008 46.9996V42.3996L18.8008 38.3996V23.3996H34.9008V38.3996L34.0008 42.3996V46.9996" fill="#FFBF39"/>
<path d="M6.09998 11.8C10.1 6.29999 16.6 2.79999 23.9 2.79999C36 2.79999 45.9 12.7 45.9 24.8C45.9 30.4 43.8 35.5 40.4 39.4" stroke="#1e1e1e" stroke-width="1.5" stroke-miterlimit="10"/>
<path d="M7.29999 39.4C3.89999 35.5 1.79999 30.4 1.79999 24.8" stroke="#1e1e1e" stroke-width="1.5" stroke-miterlimit="10"/>
<path d="M28.6 40.3H18.6" stroke="#1e1e1e" stroke-width="1.5" stroke-miterlimit="10"/>
<path d="M18.1992 20.9016H29.3992" stroke="#1e1e1e" stroke-width="1.5" stroke-miterlimit="10"/>
<path d="M23.8 7.4V3" stroke="#1e1e1e" stroke-width="1.5" stroke-miterlimit="10"/>
<path d="M25.7 48V43" stroke="#1e1e1e" stroke-width="1.5" stroke-miterlimit="10"/>
<path d="M21.9 48V43" stroke="#1e1e1e" stroke-width="1.5" stroke-miterlimit="10"/>
<path d="M23.9 36.7C26.5509 36.7 28.7 34.5509 28.7 31.9C28.7 29.249 26.5509 27.1 23.9 27.1C21.249 27.1 19.1 29.249 19.1 31.9C19.1 34.5509 21.249 36.7 23.9 36.7Z" stroke="#1e1e1e" stroke-width="1.5" stroke-miterlimit="10"/>
<path d="M18.2 24.4V20.9L20.8 16.6" stroke="#1e1e1e" stroke-width="1.5" stroke-miterlimit="10"/>
<path d="M16.7 11.8H0" stroke="#1e1e1e" stroke-width="1.5" stroke-miterlimit="10"/>
<path d="M24 16.3H7.09998" stroke="#1e1e1e" stroke-width="1.5" stroke-miterlimit="10"/>
<path d="M14.8004 20.9016H4.90039" stroke="#1e1e1e" stroke-width="1.5" stroke-miterlimit="10"/>
<path d="M29.4 24.4V20.9L26.8 16.6V12.6L23.8 7.09998L20.8 12.6V16.3" stroke="#1e1e1e" stroke-width="1.5" stroke-miterlimit="10"/>
<path d="M23.9004 34.4984V31.8984L26.0004 29.6984" stroke="#1e1e1e" stroke-width="1.5" stroke-miterlimit="10"/>
<path d="M16.8008 48.0016V43.4015L15.8008 39.4015V24.4016H31.9008V39.4015L31.0008 43.4015V48.0016" stroke="#1e1e1e" stroke-width="1.5" stroke-miterlimit="10"/>
</g>
<defs>
<clipPath id="clip0_5_810">
<rect width="48" height="48" fill="white"/>
</clipPath>
</defs>
</svg>
