<svg width="48" height="48" viewBox="0 0 48 48" fill="none" xmlns="http://www.w3.org/2000/svg">
<path d="M5.80005 36.3C9.70005 42.2 16.4 46 24 46C31.5 46 38.1 42.2 42.1 36.5" stroke="#1e1e1e" stroke-width="1.5" stroke-miterlimit="10"/>
<path d="M32.3 3.6C29.8 2.6 27 2 24 2C17 2 10.7 5.3 6.70001 10.4" stroke="#1e1e1e" stroke-width="1.5" stroke-miterlimit="10"/>
<path d="M43.0008 19.4016C41.1008 22.1016 38.0008 23.8016 34.5008 23.8016C28.8008 23.8016 24.2008 19.2016 24.2008 15.5016C24.2008 8.80156 27.3008 4.90156 31.6008 3.60156C30.4008 5.30156 29.7008 7.30156 29.7008 9.50156C29.7008 15.2016 34.3008 19.8016 40.0008 19.8016C41.1008 19.9016 42.1008 19.7016 43.0008 19.4016Z" fill="#FFBF39"/>
<path d="M46.0008 18.4016C44.1008 21.1016 41.0008 22.8016 37.5008 22.8016C31.8008 22.8016 27.2008 18.2016 27.2008 12.5016C27.2008 7.80156 30.3008 3.90156 34.6008 2.60156C33.4008 4.30156 32.7008 6.30156 32.7008 8.50156C32.7008 14.2016 37.3008 18.8016 43.0008 18.8016C44.1008 18.9016 45.1008 18.7016 46.0008 18.4016Z" stroke="#1e1e1e" stroke-width="1.5" stroke-miterlimit="10" stroke-linejoin="round"/>
<path d="M4.80002 33.3484H8.25002V33.5484H2.65002V32.9485L6.05094 30.0991C6.99481 29.463 7.75002 28.672 7.75002 27.4984C7.75002 26.846 7.55027 26.2546 7.10477 25.8303C6.66553 25.412 6.0841 25.2484 5.50002 25.2484C4.8821 25.2484 4.28084 25.457 3.83219 25.9056C3.50102 26.2368 3.28857 26.663 3.19892 27.1484H2.68898C2.77885 26.6434 3.02104 26.2082 3.38282 25.8754C3.8504 25.4452 4.56065 25.1484 5.50002 25.1484C6.52603 25.1484 7.19759 25.4154 7.60626 25.7893C8.00607 26.1551 8.25002 26.7106 8.25002 27.4984C8.25002 28.5366 7.69677 29.2412 6.52243 30.2202L4.3251 32.018L2.69897 33.3484H4.80002Z" fill="#1e1e1e" stroke="#1e1e1e" stroke-width="1.5"/>
<path d="M14.2 31.3484H10.25V31.1484H11.4H14.2H14.95V30.3984V26.3984V25.1484H15.45V30.3984V31.1484H16.2H16.75V31.3484H16.2H15.45V32.0984V33.4484H14.95V32.0984V31.3484H14.2ZM10.7856 29.9683L10.25 30.7334V30.6394L13.0797 26.691L10.7856 29.9683Z" fill="#1e1e1e" stroke="#1e1e1e" stroke-width="1.5"/>
<path d="M34.9508 30.2V33.45H34.4508V30.4C34.4508 29.7129 34.3102 29.0694 33.9263 28.5845C33.5186 28.0695 32.9308 27.85 32.3008 27.85C32.2337 27.85 32.1672 27.8524 32.1015 27.8571C32.2875 27.7911 32.5135 27.75 32.8008 27.75H32.8242L32.8476 27.7485C33.4986 27.7078 33.9934 27.8736 34.3269 28.1992C34.6624 28.5267 34.9508 29.1292 34.9508 30.2ZM29.9769 30.0402C29.9593 30.1903 29.9508 30.344 29.9508 30.5V33.45H29.4508V25.25H29.9508V28V30.0715L29.9769 30.0402Z" fill="#1e1e1e" stroke="#1e1e1e" stroke-width="1.5"/>
<path d="M25.6992 21.1016L20.0992 37.4016" stroke="#1e1e1e" stroke-width="1.5" stroke-miterlimit="10"/>
<path d="M14.6 10.3984H0" stroke="#1e1e1e" stroke-width="1.5" stroke-miterlimit="10"/>
<path d="M18.8 15H8" stroke="#1e1e1e" stroke-width="1.5" stroke-miterlimit="10"/>
<path d="M4.8 18.5H0" stroke="#1e1e1e" stroke-width="1.5" stroke-miterlimit="10"/>
</svg>
