<svg width="49" height="48" viewBox="0 0 49 48" fill="none" xmlns="http://www.w3.org/2000/svg">
<path d="M42.1992 11.6016C43.3992 15.3016 44.2992 15.2016 44.9992 17.2016" stroke="#1e1e1e" stroke-width="1.5" stroke-miterlimit="10"/>
<path d="M12.2 42.5C15.6 44.7 19.6 46 24 46C28.4 46 32.4 44.7 35.8 42.5" stroke="#FFBF39" stroke-width="1.5" stroke-miterlimit="10"/>
<path d="M0 38.8H48" stroke="#1e1e1e" stroke-width="1.5" stroke-miterlimit="10"/>
<path d="M24 38.8V41.9" stroke="#1e1e1e" stroke-width="1.5" stroke-miterlimit="10"/>
<path d="M3.39999 38.8V41.9" stroke="#1e1e1e" stroke-width="1.5" stroke-miterlimit="10"/>
<path d="M44.6 38.8V41.9" stroke="#1e1e1e" stroke-width="1.5" stroke-miterlimit="10"/>
<path d="M49 18H37V31H49V18Z" fill="#FFBF39"/>
<path d="M47 21.2H18V34.9H47V21.2Z" stroke="#1e1e1e" stroke-width="1.5" stroke-miterlimit="10"/>
<path d="M33 7.2002H21V19.2002H33V7.2002Z" fill="#FFBF39"/>
<path d="M30 9.20001H18V21.2H30V9.20001Z" stroke="#1e1e1e" stroke-width="1.5" stroke-miterlimit="10"/>
<path d="M35.2 21.2V34.9" stroke="#1e1e1e" stroke-width="1.5" stroke-miterlimit="10"/>
<path d="M26.5 24.7V31.8" stroke="#1e1e1e" stroke-width="1.5" stroke-miterlimit="10"/>
<path d="M23.4004 27.9984L26.5004 24.8984L29.7004 27.9984" stroke="#1e1e1e" stroke-width="1.5" stroke-miterlimit="10"/>
<path d="M7.7 38.8C4.2 34.9 2 29.7 2 24C2 11.9 11.9 2 24 2C30.1 2 35.6 4.5 39.5 8.4L35.7 12.2" stroke="#1e1e1e" stroke-width="1.5" stroke-miterlimit="10" stroke-linejoin="round"/>
</svg>
