<svg width="49" height="48" viewBox="0 0 49 48" fill="none" xmlns="http://www.w3.org/2000/svg">
<path d="M36.1996 25.7482C42.8823 25.7482 48.2996 21.3159 48.2996 15.8482C48.2996 10.3806 42.8823 5.94824 36.1996 5.94824C29.517 5.94824 24.0996 10.3806 24.0996 15.8482C24.0996 21.3159 29.517 25.7482 36.1996 25.7482Z" fill="#FFBF39"/>
<path d="M4.20001 17.5484C7.60001 10.2484 15 5.14844 23.7 5.14844C27.5 5.14844 31.1 6.14844 34.2 7.94844" stroke="#1e1e1e" stroke-width="1.5" stroke-miterlimit="10"/>
<path d="M34.2 27.7484C40.8826 27.7484 46.3 23.316 46.3 17.8484C46.3 12.3808 40.8826 7.94843 34.2 7.94843C27.5173 7.94843 22.1 12.3808 22.1 17.8484C22.1 23.316 27.5173 27.7484 34.2 27.7484Z" stroke="#1e1e1e" stroke-width="1.5" stroke-miterlimit="10"/>
<path d="M27.6 15.9484H33.2V15.4484H29.4V17.3484H32.5V18.8484H29.4V20.7484H33.4V22.2484H27.6V13.9484Z" fill="#1e1e1e"/>
<path d="M34.4 15.9484H36.2V18.8484C36.2 20.1484 36.7 20.9484 37.8 20.9484C39 20.9484 39.5 20.2484 39.5 18.8484V13.9484H41.3V18.7484C41.3 21.1484 40.1 22.4484 37.8 22.4484C35.5 22.4484 34.4 21.1484 34.4 18.7484V13.9484Z" fill="#1e1e1e"/>
<path d="M21.1996 35.55H16.5996V38.55H21.1996V35.55Z" stroke="#1e1e1e" stroke-width="1.5" stroke-miterlimit="10"/>
<path d="M31.7 35.55V38.55H36.3V35.55H2" stroke="#1e1e1e" stroke-width="1.5" stroke-miterlimit="10"/>
<path d="M47.2 32.4484L36.9 42.8484H0.900024" stroke="#1e1e1e" stroke-width="1.5" stroke-miterlimit="10"/>
<path d="M41.5 29.9484H7.2L2 35.5484V38.5484H6.6V35.9484" stroke="#1e1e1e" stroke-width="1.5" stroke-miterlimit="10"/>
<path d="M36.3 35.5484L39.8 32.1484L43.3 28.5484L46.9 24.9484H42.6" stroke="#1e1e1e" stroke-width="1.5" stroke-miterlimit="10" stroke-linejoin="round"/>
<path d="M20.6 24.9484H3.29999" stroke="#1e1e1e" stroke-width="1.5" stroke-miterlimit="10" stroke-linejoin="round"/>
<path d="M7.2 29.9484H0" stroke="#1e1e1e" stroke-width="1.5" stroke-miterlimit="10"/>
</svg>
