<svg width="48" height="48" viewBox="0 0 48 48" fill="none" xmlns="http://www.w3.org/2000/svg">
<path d="M45.9492 9.39844H17.7492V41.1984H45.9492V9.39844Z" stroke="#1e1e1e" stroke-width="1.5" stroke-miterlimit="10"/>
<path d="M34.2002 18L29.0002 23.3L26.0002 20.3" stroke="#FFBF39" stroke-width="2" stroke-miterlimit="10"/>
<path d="M34.1992 29.1016L28.9992 34.3016L25.9992 31.3016" stroke="#FFBF39" stroke-width="2" stroke-miterlimit="10"/>
<path d="M30.35 18.5L25.15 23.8L22.15 20.8" stroke="#1e1e1e" stroke-width="1.5" stroke-miterlimit="10"/>
<path d="M30.3496 29.6016L25.1496 34.8016L22.1496 31.8016" stroke="#1e1e1e" stroke-width="1.5" stroke-miterlimit="10"/>
<path d="M38.5492 9.39844H26.2492V13.5984H38.5492V9.39844Z" stroke="#1e1e1e" stroke-width="1.5" stroke-miterlimit="10" stroke-linejoin="round"/>
<path d="M27.25 5.79999H37.55" stroke="#1e1e1e" stroke-width="1.5" stroke-miterlimit="10"/>
<path d="M37.85 41.1C34.05 44.2 29.25 46 24.05 46C11.95 46 2.04999 36.2 2.04999 24C2.04999 11.8 11.95 2 24.05 2" stroke="#1e1e1e" stroke-width="1.5" stroke-miterlimit="10"/>
</svg>
