<svg width="48" height="48" viewBox="0 0 48 48" fill="none" xmlns="http://www.w3.org/2000/svg">
<path d="M18.2004 7.1C18.2004 12.8 12.1004 17.1 12.1004 17.1C12.1004 17.1 6.0004 12.7 6.0004 7.1C6.1004 3.7 8.8004 1 12.2004 1C15.6004 1 18.2004 3.7 18.2004 7.1Z" fill="#FFBF39"/>
<path d="M43.45 33.4484C39.95 40.7484 32.55 45.7484 23.95 45.7484C16.45 45.7484 9.85001 41.9484 5.95001 36.0484" stroke="#1e1e1e" stroke-width="1.5" stroke-miterlimit="10"/>
<path d="M13.35 5.44844C16.45 3.64844 20.05 2.64844 23.95 2.64844C32.55 2.64844 39.95 7.64844 43.45 15.0484" stroke="#1e1e1e" stroke-width="1.5" stroke-miterlimit="10"/>
<path d="M4.55001 14.8484C4.55001 14.9484 4.45001 14.9484 4.45001 15.0484" stroke="#1e1e1e" stroke-width="1.5" stroke-miterlimit="10"/>
<path d="M21.1492 28.6484H16.5492V31.6484H21.1492V28.6484Z" stroke="#1e1e1e" stroke-width="1.5" stroke-miterlimit="10"/>
<path d="M31.6496 28.6484V31.6484H36.2496V28.6484H1.94962" stroke="#1e1e1e" stroke-width="1.5" stroke-miterlimit="10"/>
<path d="M47.15 25.4453L36.85 35.8453H0.850006" stroke="#1e1e1e" stroke-width="1.5" stroke-miterlimit="10"/>
<path d="M6.55001 28.9469V31.6469H1.95001V28.6469L7.25001 23.3469H41.55" stroke="#1e1e1e" stroke-width="1.5" stroke-miterlimit="10"/>
<path d="M13.55 18.0469H46.85L36.25 28.6469" stroke="#1e1e1e" stroke-width="1.5" stroke-miterlimit="10" stroke-linejoin="round"/>
<path d="M14.05 8.35C14.05 14.05 7.95001 18.35 7.95001 18.35C7.95001 18.35 1.85001 15.95 1.85001 8.35C1.95001 4.95 4.65001 2.25 8.05001 2.25C11.45 2.25 14.05 4.95 14.05 8.35Z" stroke="#1e1e1e" stroke-width="1.5" stroke-miterlimit="10"/>
<path d="M8.05001 10.95C9.20981 10.95 10.15 10.0098 10.15 8.85C10.15 7.6902 9.20981 6.75 8.05001 6.75C6.89021 6.75 5.95001 7.6902 5.95001 8.85C5.95001 10.0098 6.89021 10.95 8.05001 10.95Z" stroke="#1e1e1e" stroke-width="1.5" stroke-miterlimit="10"/>
</svg>
