<svg width="48" height="48" viewBox="0 0 48 48" fill="none" xmlns="http://www.w3.org/2000/svg">
<rect x="14" y="7" width="17" height="29" fill="#FFBF39"/>
<path d="M42.6 12.7C44.6 16 45.7 19.9 45.7 24C45.7 28.1 44.6 32 42.6 35.3" stroke="#1e1e1e" stroke-width="1.5" stroke-miterlimit="10"/>
<path d="M4.79999 35.3C8.69999 41.7 15.7 46 23.7 46C29.2 46 34.2 44 38.1 40.6" stroke="#1e1e1e" stroke-width="1.5" stroke-miterlimit="10"/>
<path d="M5.5 11.7C9.4 5.8 16.1 2 23.7 2C29 2 33.9 3.9 37.7 7" stroke="#1e1e1e" stroke-width="1.5" stroke-miterlimit="10"/>
<path d="M16.4 25.2V38.1H12.4" stroke="#1e1e1e" stroke-width="1.5" stroke-miterlimit="10"/>
<path d="M32.9996 38.0984V9.39844H16.3996V20.0984" stroke="#1e1e1e" stroke-width="1.5" stroke-miterlimit="10"/>
<path d="M42.6 42.9L33 38.1V9.4L42.6 4.5V42.9Z" stroke="#1e1e1e" stroke-width="1.5" stroke-miterlimit="10" stroke-linejoin="round"/>
<path d="M2.29999 25.1984H20.8C23.7 25.1984 26.1 22.7984 26.1 19.8984" stroke="#1e1e1e" stroke-width="1.5" stroke-miterlimit="10"/>
<path d="M7.39999 30.1985L2.29999 25.1985L7.39999 20.0984" stroke="#1e1e1e" stroke-width="1.5" stroke-miterlimit="10"/>
</svg>
