<svg width="612" height="276" viewBox="0 0 612 276" fill="none" xmlns="http://www.w3.org/2000/svg">
<g clip-path="url(#clip0_1_31242)">
<path d="M419 26.4999C419 33.6796 424.82 39.4999 432 39.4999C439.18 39.4999 445 33.6796 445 26.4999C445 19.3202 439.18 15.4999 432 15.4999C424.82 15.4999 419 19.3202 419 26.4999Z" stroke="white"/>
<path opacity="0.4" d="M330 88.4999C330 95.6796 335.82 101.5 343 101.5C350.18 101.5 356 95.6796 356 88.4999C356 81.3202 350.18 75.4999 343 75.4999C335.82 75.4999 330 81.3202 330 88.4999Z" stroke="#BAAA40"/>
<path d="M791 -16L726 -16C717.5 -16 706.3 -10.3 701.5 4.49999C695.5 23 696.5 40.5 673.5 40.5C650.5 40.5 583.5 40.5 583.5 40.5C575.5 40.5 568.507 43.2896 563.5 53C547 85 542.5 88 514.5 88M514.5 88C487.253 88 453.5 88 453.5 88M514.5 88L433 88.4999M514.5 88L453.5 88M453.5 88L433 88.4999M433 88.4999C425 88.4999 418.007 90.7896 413 100.5C396.5 132.5 392 135.5 364 135.5L292 135.5M433 88.4999L346 88.4999" stroke="#BAAA40"/>
<path d="M791 39L726 39C717.5 39 706.3 44.7 701.5 59.5C695.5 78 696.5 95.5 673.5 95.5C650.5 95.5 583.5 95.5 583.5 95.5C575.5 95.5 568.507 98.2896 563.5 108C547 140 542.5 143 514.5 143M514.5 143C487.253 143 453.5 143 453.5 143M514.5 143L422 143M514.5 143L453.5 143M453.5 143L422 143M422 143C414 143 407.007 145.79 402 155.5C385.5 187.5 381 190.5 353 190.5L292 190.5C284 190.5 277.007 193.29 272 203C255.5 235 251 238 223 238L162 238L130.5 238C122.5 238 115.507 240.79 110.5 250.5C94 282.5 89.5 285.5 61.5 285.5L0.499978 285.5" stroke="#1E1E1E" stroke-opacity="0.22"/>
<path d="M791 39L726 39C717.5 39 706.3 44.7 701.5 59.5C695.5 78 696.5 95.5 673.5 95.5C650.5 95.5 583.5 95.5 583.5 95.5C575.5 95.5 568.507 98.2896 563.5 108C547 140 542.5 143 514.5 143M514.5 143C487.253 143 453.5 143 453.5 143M514.5 143L422 143M514.5 143L453.5 143M453.5 143L422 143M422 143C414 143 407.007 145.79 402 155.5C385.5 187.5 381 190.5 353 190.5L292 190.5C284 190.5 277.007 193.29 272 203C255.5 235 251 238 223 238L162 238L130.5 238C122.5 238 115.507 240.79 110.5 250.5C94 282.5 89.5 285.5 61.5 285.5L0.499978 285.5" stroke="url(#paint0_linear_1_31242)"/>
<path d="M879 -37L814 -37C805.5 -37 794.3 -31.3 789.5 -16.5C783.5 2.00001 776.5 19.5 764 19.5L671.5 19.5C663.5 19.5 656.507 22.2896 651.5 32C635 64 630.5 67 602.5 67M602.5 67C575.253 67 541.5 67 541.5 67M602.5 67L541.5 67M541.5 67C531.5 67 513.4 67.1 507 79.5C490.5 111.5 486 114.5 458 114.5L367 114.5C359 114.5 352.007 117.29 347 127C330.5 159 326 162 298 162L268.5 162L237 162C229 162 222.007 164.79 217 174.5C200.5 206.5 196 209.5 168 209.5L120 209.5" stroke="white" stroke-width="2"/>
<path d="M879 -37L814 -37C805.5 -37 794.3 -31.3 789.5 -16.5C783.5 2.00001 776.5 19.5 764 19.5L671.5 19.5C663.5 19.5 656.507 22.2896 651.5 32C635 64 630.5 67 602.5 67M602.5 67C575.253 67 541.5 67 541.5 67M602.5 67L541.5 67M541.5 67C531.5 67 513.4 67.1 507 79.5C490.5 111.5 486 114.5 458 114.5L367 114.5C359 114.5 352.007 117.29 347 127C330.5 159 326 162 298 162L268.5 162L237 162C229 162 222.007 164.79 217 174.5C200.5 206.5 196 209.5 168 209.5L120 209.5" stroke="url(#paint1_linear_1_31242)" stroke-width="2"/>
<path d="M879 18L814 18C805.5 18 794.3 23.7 789.5 38.5C783.5 57 776.5 74.5 764 74.5L671.5 74.5C663.5 74.5 656.507 77.2896 651.5 87C635 119 630.5 122 602.5 122M602.5 122C575.253 122 541.5 122 541.5 122M602.5 122L527 122M602.5 122L541.5 122M541.5 122L527 122M527 122C519 122 512.007 124.79 507 134.5C490.5 166.5 485.5 169.5 457.5 169.5" stroke="white"/>
<circle cx="3.5" cy="3.5" r="3.5" transform="matrix(-1 -8.74228e-08 -8.74228e-08 1 292 132)" fill="#1E1E1E" fill-opacity="0.3"/>
<circle cx="3.5" cy="3.5" r="3.5" transform="matrix(-1 -8.74228e-08 -8.74228e-08 1 457.5 166)" fill="white"/>
<circle cx="3.5" cy="3.5" r="3.5" transform="matrix(-1 -8.74228e-08 -8.74228e-08 1 569 147)" fill="white"/>
<circle cx="3.5" cy="3.5" r="3.5" transform="matrix(-1 -8.74228e-08 -8.74228e-08 1 591.5 203)" fill="white"/>
<circle cx="3.5" cy="3.5" r="3.5" transform="matrix(-1 -8.74228e-08 -8.74228e-08 1 435.5 22.9999)" fill="white"/>
<circle cx="3.5" cy="3.5" r="3.5" transform="matrix(-1 -8.74228e-08 -8.74228e-08 1 346.5 84.9999)" fill="#BAAA40"/>
<path d="M695.5 150.5L568 150.5" stroke="white"/>
<path d="M718 206.5L590.5 206.5" stroke="white"/>
<path d="M434.5 26.4999L492 26.4999C508.845 26.4999 522.5 12.8446 522.5 -4.00006V-4.00006" stroke="white"/>
</g>
<defs>
<linearGradient id="paint0_linear_1_31242" x1="140.5" y1="271.5" x2="573.5" y2="123" gradientUnits="userSpaceOnUse">
<stop stop-color="#FFBF39"/>
<stop offset="1" stop-color="#FFBF39" stop-opacity="0"/>
</linearGradient>
<linearGradient id="paint1_linear_1_31242" x1="166" y1="176" x2="1057" y2="-15.9999" gradientUnits="userSpaceOnUse">
<stop stop-color="#FFBF39"/>
<stop offset="1" stop-color="white" stop-opacity="0"/>
</linearGradient>
<clipPath id="clip0_1_31242">
<rect width="727" height="313" fill="white" transform="matrix(-1 -8.74228e-08 -8.74228e-08 1 727 -37)"/>
</clipPath>
</defs>
</svg>
