<svg width="48" height="48" viewBox="0 0 48 48" fill="none" xmlns="http://www.w3.org/2000/svg">
<circle cx="28" cy="22" r="15" fill="#FFBF39"/>
<path d="M13.5 34.1C11 31.5 9.5 28 9.5 24.2C9.5 16.2 16 9.70001 24 9.70001C32 9.70001 38.5 16.2 38.5 24.2C38.5 32.2 32 38.6 24 38.6" stroke="#1e1e1e" stroke-width="1.5" stroke-miterlimit="10"/>
<path d="M24 38.6C27.4 38.6 30.2 32.1 30.2 24.1C30.2 16.1 27.4 9.70001 24 9.70001" stroke="#1e1e1e" stroke-width="1.5" stroke-miterlimit="10"/>
<path d="M24 29.8C32.0081 29.8 38.5 27.2033 38.5 24C38.5 20.7968 32.0081 18.2 24 18.2C15.9919 18.2 9.5 20.7968 9.5 24C9.5 27.2033 15.9919 29.8 24 29.8Z" stroke="#1e1e1e" stroke-width="1.5" stroke-miterlimit="10"/>
<path d="M24 2C11.8 2 2 11.8 2 24" stroke="#FFBF39" stroke-width="1.5" stroke-miterlimit="10"/>
<path d="M24 46.0016C36.2 46.0016 46 36.2016 46 24.0016C46 16.9016 42.6 10.6016 37.4 6.60156" stroke="#1e1e1e" stroke-width="1.5" stroke-miterlimit="10"/>
<path d="M19.8 34.1016H0" stroke="#1e1e1e" stroke-width="1.5" stroke-miterlimit="10"/>
<path d="M24 38.6016H7.09998" stroke="#1e1e1e" stroke-width="1.5" stroke-miterlimit="10"/>
<path d="M10 43.3016H2" stroke="#1e1e1e" stroke-width="1.5" stroke-miterlimit="10"/>
<path d="M37.1 15.3V6.20001H44.3" stroke="#1e1e1e" stroke-width="1.5" stroke-miterlimit="10"/>
</svg>
