<svg width="51" height="48" viewBox="0 0 51 48" fill="none" xmlns="http://www.w3.org/2000/svg">
<path d="M50.5989 26.5983C49.8989 23.7983 46.2989 23.2983 43.0989 23.6983C45.9989 21.8983 48.4989 19.0983 47.1989 16.3983C46.3989 14.8983 43.8989 15.6983 41.9989 14.5983L40.9989 15.0983L40.4989 14.0983C39.5989 12.1983 36.7989 11.5983 35.2989 12.2983C32.5989 15.5983 32.8989 17.3983 34.0989 20.5983C31.6989 18.2983 28.5989 16.4983 26.2989 18.3983C24.9989 19.3983 24.2989 22.0983 25.6989 23.7983L26.3989 24.6983L25.4989 25.3983C23.7989 26.6983 23.7989 29.4983 24.8989 30.7983C27.7989 34.4983 34.9989 29.7983 36.9989 26.9983C36.8989 30.2983 39.6989 38.4983 44.2989 37.3983C45.8989 36.9983 47.5989 34.7983 47.0989 32.6983L46.7989 31.5983L47.8989 31.2983C49.8989 30.7983 50.9989 28.2983 50.5989 26.5983Z" fill="#FFBF39"/>
<path d="M46.5992 27.5983C45.8992 24.7983 42.2992 24.2983 39.0992 24.6983C41.9992 22.8983 44.4992 20.0983 43.1992 17.3983C42.3992 15.8983 39.8992 14.6983 37.9992 15.5983L36.9992 16.0983L36.4992 15.0983C35.5992 15.1983 32.7992 12.5983 31.2992 15.2983C28.5992 14.5983 28.8992 18.3983 30.0992 21.5983C27.6992 19.2983 24.5992 17.4983 22.2992 19.3983C20.9992 20.3983 20.2992 23.0983 21.6992 24.7983L22.3992 25.6983L21.4992 26.3983C19.7992 27.6983 19.7992 30.4983 20.8992 31.7983C23.7992 35.4983 30.9992 30.7983 32.9992 27.9983C32.8992 31.2983 35.6992 39.4983 40.2992 38.3983C41.8992 37.9983 43.5992 35.7983 43.0992 33.6983L42.7992 32.5983L43.8992 32.2983C45.8992 31.7983 46.9992 29.2983 46.5992 27.5983Z" stroke="#1e1e1e" stroke-width="1.5" stroke-miterlimit="10" stroke-linejoin="round"/>
<path d="M5.19922 35.5C10.9992 45.9 28.2992 41.8 32.9992 28" stroke="#1e1e1e" stroke-width="1.5" stroke-miterlimit="10"/>
<path d="M19.8 10.2H0" stroke="#1e1e1e" stroke-width="1.5" stroke-miterlimit="10"/>
<path d="M24 14.7H7.09998" stroke="#1e1e1e" stroke-width="1.5" stroke-miterlimit="10"/>
<path d="M10 19.3016H2" stroke="#1e1e1e" stroke-width="1.5" stroke-miterlimit="10"/>
<path d="M10.5 6.6C14.2 3.7 18.9 2 24 2C36.2 2 46 11.9 46 24C46 24.8 46 25.5 45.9 26.2" stroke="#1e1e1e" stroke-width="1.5" stroke-miterlimit="10"/>
<path d="M40.9 38.1C36.8 42.9 30.8 46 24 46C11.9 46 2 36.2 2 24" stroke="#1e1e1e" stroke-width="1.5" stroke-miterlimit="10"/>
</svg>
