<svg width="48" height="48" viewBox="0 0 48 48" fill="none" xmlns="http://www.w3.org/2000/svg">
<circle cx="23" cy="7" r="3" fill="#FFBF39"/>
<circle cx="42" cy="27" r="3" fill="#FFBF39"/>
<circle cx="28" cy="31" r="3" fill="#FFBF39"/>
<circle cx="10" cy="25" r="3" fill="#FFBF39"/>
<path d="M24 46C36.1503 46 46 36.1503 46 24C46 11.8497 36.1503 2 24 2C11.8497 2 2 11.8497 2 24C2 36.1503 11.8497 46 24 46Z" stroke="#1e1e1e" stroke-width="1.5" stroke-miterlimit="10"/>
<path d="M8.80078 28.8984C10.9008 35.3984 16.9008 39.9984 24.0008 39.9984C30.5008 39.9984 36.1008 36.0984 38.6008 30.5984" stroke="#1e1e1e" stroke-width="1.5" stroke-miterlimit="10"/>
<path d="M8 24C8 17.3 12.1 11.6 17.9 9.2C18.3 10.4 19.4 11.3 20.8 11.3C22.4 11.3 23.8 9.9 23.8 8.3C23.8 8.2 23.8 8.1 23.8 8C23.9 8 24 8 24 8C27.5 8 30.7 9.1 33.3 11C37.3 15.9 40 18.7 40 24C40 24.6 40 25.2 39.9 25.8" stroke="#1e1e1e" stroke-width="1.5" stroke-miterlimit="10"/>
<path d="M33.3 11C25.4 21.4 10.1 25.6 10.1 25.6" stroke="#1e1e1e" stroke-width="1.5" stroke-miterlimit="10"/>
<path d="M25.3 34.5C25.1 36.4 24.7 38.2 24 40" stroke="#1e1e1e" stroke-width="1.5" stroke-miterlimit="10"/>
<path d="M25.6 29.6C25.5 23.6 24 17.7 22.7 15.7" stroke="#1e1e1e" stroke-width="1.5" stroke-miterlimit="10"/>
<path d="M25.5996 34.6016C26.9803 34.6016 28.0996 33.4823 28.0996 32.1016C28.0996 30.7209 26.9803 29.6016 25.5996 29.6016C24.2189 29.6016 23.0996 30.7209 23.0996 32.1016C23.0996 33.4823 24.2189 34.6016 25.5996 34.6016Z" stroke="#1e1e1e" stroke-width="1.5" stroke-miterlimit="10"/>
<path d="M17.9 9.19999C17.8 8.89999 17.8 8.59999 17.8 8.29999C17.8 6.59999 19.1 5.29999 20.8 5.29999C22.3 5.29999 23.6 6.49999 23.8 7.99999" stroke="#1e1e1e" stroke-width="1.5" stroke-miterlimit="10"/>
<path d="M8.59961 28.8984C9.98032 28.8984 11.0996 27.7791 11.0996 26.3984C11.0996 25.0177 9.98032 23.8984 8.59961 23.8984C7.2189 23.8984 6.09961 25.0177 6.09961 26.3984C6.09961 27.7791 7.2189 28.8984 8.59961 28.8984Z" stroke="#1e1e1e" stroke-width="1.5" stroke-miterlimit="10"/>
<path d="M39.5 30.7C40.8807 30.7 42 29.5807 42 28.2C42 26.8193 40.8807 25.7 39.5 25.7C38.1193 25.7 37 26.8193 37 28.2C37 29.5807 38.1193 30.7 39.5 30.7Z" stroke="#1e1e1e" stroke-width="1.5" stroke-miterlimit="10"/>
<path d="M28.1 31.9C30.9 31.6 34 30.8 37.2 29.3" stroke="#1e1e1e" stroke-width="1.5" stroke-miterlimit="10"/>
<path d="M10.5996 27.8984C12.5996 29.1984 16.0996 30.9984 20.6996 31.6984" stroke="#1e1e1e" stroke-width="1.5" stroke-miterlimit="10"/>
<path d="M23.4004 9.89844C26.9004 12.1984 33.3004 16.8984 37.2004 23.8984" stroke="#1e1e1e" stroke-width="1.5" stroke-miterlimit="10"/>
</svg>
