<svg width="48" height="48" viewBox="0 0 48 48" fill="none" xmlns="http://www.w3.org/2000/svg">
<rect x="9" y="11" width="16" height="15" fill="#FFBF39"/>
<rect x="27" y="11" width="16" height="15" fill="#FFBF39"/>
<rect x="27" y="26" width="16" height="15" fill="#FFBF39"/>
<path d="M7.10156 43.7531V41.2531V40.1531V36.2531V26.3531V16.4531V12.9531V12.6531V9.45312" stroke="#1e1e1e" stroke-width="1.5" stroke-miterlimit="10"/>
<path d="M24 43.7531V12.6531" stroke="#1e1e1e" stroke-width="1.5" stroke-miterlimit="10"/>
<path d="M40.9016 40.1533H38.0016H24.0016H10.1016H7.10156" stroke="#1e1e1e" stroke-width="1.5" stroke-miterlimit="10"/>
<path d="M40.8984 9.45312V12.6531V12.9531V16.3531V26.3531V36.3531V40.0531V40.1531V41.2531V43.7531" stroke="#1e1e1e" stroke-width="1.5" stroke-miterlimit="10"/>
<path d="M40.9016 26.3516H7.10156" stroke="#1e1e1e" stroke-width="1.5" stroke-miterlimit="10"/>
<path d="M40.9016 12.6533H38.0016H10.1016H7.10156" stroke="#1e1e1e" stroke-width="1.5" stroke-miterlimit="10"/>
<path d="M7.10156 26.3516L24.0016 40.0516" stroke="#1e1e1e" stroke-width="1.5" stroke-miterlimit="10"/>
<path d="M7.10156 12.6533L24.0016 26.3533" stroke="#1e1e1e" stroke-width="1.5" stroke-miterlimit="10"/>
<path d="M24 26.3516L40.9 40.0516" stroke="#1e1e1e" stroke-width="1.5" stroke-miterlimit="10"/>
<path d="M24 12.6531L40.9 26.3531" stroke="#1e1e1e" stroke-width="1.5" stroke-miterlimit="10"/>
<path d="M4.5 43.7532H9.9" stroke="#1e1e1e" stroke-width="1.5" stroke-miterlimit="10"/>
<path d="M43.5016 43.7529H38.1016" stroke="#1e1e1e" stroke-width="1.5" stroke-miterlimit="10"/>
<path d="M26.7 43.7532H21.3" stroke="#1e1e1e" stroke-width="1.5" stroke-miterlimit="10"/>
<path d="M7.1 38.0531C3.9 34.2531 2 29.3531 2 23.9531C2 18.5531 3.9 15.6531 7.1 9.85312C7.2 9.75312 7.2 9.65312 7.3 9.65312C7.3 9.65312 7.4 9.55313 7.4 9.45312C11.5 4.85313 17.4 1.95312 24 1.95312C30.6 1.95312 36.5 4.85313 40.5 9.45312C40.6 9.55313 40.7 9.75312 40.8 9.85312C44.1 15.6531 46 18.5531 46 23.9531C46 29.3531 44.1 34.2531 40.9 38.0531" stroke="#1e1e1e" stroke-width="1.5" stroke-miterlimit="10"/>
</svg>
