<svg width="48" height="48" viewBox="0 0 48 48" fill="none" xmlns="http://www.w3.org/2000/svg">
<g clip-path="url(#clip0_5_793)">
<path d="M7.99355 39.35C11.9935 43.45 17.5935 45.95 23.7935 45.95C34.1935 45.95 42.7935 38.75 45.1935 29.15C45.5935 27.45 45.7935 25.75 45.7935 23.95C45.7935 23.75 45.7935 23.55 45.7935 23.45C45.6935 20.25 44.9935 17.15 43.5935 14.45C41.4935 10.05 37.9935 6.54999 33.5935 4.34999C30.5935 2.84999 27.2935 2.04999 23.7935 2.04999C11.6935 2.04999 1.79355 11.95 1.79355 24.05C1.79355 25.55 1.89355 27.05 2.29355 28.45" stroke="#1e1e1e" stroke-width="1.5" stroke-miterlimit="10"/>
<path d="M13.6456 36.3406C15.807 34.4495 15.5249 30.5914 15.0155 27.7234C10.5061 24.8555 6.71967 24.0636 4.5583 25.9547C2.39692 27.8458 2.67904 31.7039 5.18843 34.5718C7.69781 37.4398 11.4842 38.2317 15.6456 36.3406Z" fill="#FFBF39"/>
<path d="M25.6358 39.5437C27.7972 37.6526 27.5151 33.7946 25.0057 30.9266C22.4963 28.0586 18.7099 27.2667 16.5485 29.1578C14.3872 31.049 14.6693 34.907 17.1787 37.775C19.688 40.643 23.4745 41.4348 25.6358 39.5437Z" fill="#FFBF39"/>
<path d="M25.0362 24.0242C27.1976 22.133 26.9155 18.275 24.4061 15.407C21.8967 12.5391 18.1103 11.7472 15.9489 15.6383C13.7875 15.5294 14.0697 19.3875 16.5791 22.2554C19.0884 25.1234 22.8748 25.9153 25.0362 24.0242Z" fill="#FFBF39"/>
<path d="M11.6456 38.3402C13.807 36.449 15.5249 32.591 11.0155 29.723C8.50608 26.855 4.71967 26.0631 2.5583 27.9543C0.396918 29.8454 0.679038 33.7034 3.18843 36.5714C5.69781 39.4394 9.48422 40.2313 11.6456 38.3402Z" stroke="#1e1e1e" stroke-width="1.5" stroke-miterlimit="10"/>
<path d="M23.6356 41.5439C25.797 39.6528 25.5148 35.7947 23.0055 32.9268C20.4961 30.0588 16.7097 29.2669 14.5483 31.158C12.3869 33.0491 12.669 36.9072 15.1784 39.7752C17.6878 42.6431 21.4742 43.435 23.6356 41.5439Z" stroke="#1e1e1e" stroke-width="1.5" stroke-miterlimit="10"/>
<path d="M23.0362 26.0242C25.1976 24.133 24.9155 20.275 22.4061 17.407C19.8967 14.5391 16.1103 15.7472 15.9489 15.6383C11.7875 17.5294 12.0697 21.3875 14.5791 24.2554C17.0884 27.1234 20.8748 27.9153 23.0362 26.0242Z" stroke="#1e1e1e" stroke-width="1.5" stroke-miterlimit="10"/>
<path d="M22.7932 42.0484L45.0932 29.1484" stroke="#1e1e1e" stroke-width="1.5" stroke-miterlimit="10"/>
<path d="M45.7936 23.45L33.0936 30.75" stroke="#1e1e1e" stroke-width="1.5" stroke-miterlimit="10"/>
<path d="M20.8936 15.95L32.3936 9.25" stroke="#1e1e1e" stroke-width="1.5" stroke-miterlimit="10"/>
<path d="M24.4935 35.65L30.0935 32.45" stroke="#1e1e1e" stroke-width="1.5" stroke-miterlimit="10"/>
<path d="M43.594 14.3516L15.094 30.8516" stroke="#1e1e1e" stroke-width="1.5" stroke-miterlimit="10"/>
<path d="M3.1936 27.5516L12.9936 21.8516" stroke="#1e1e1e" stroke-width="1.5" stroke-miterlimit="10"/>
<path d="M33.5935 4.25L14.2935 15.35" stroke="#1e1e1e" stroke-width="1.5" stroke-miterlimit="10"/>
</g>
<defs>
<clipPath id="clip0_5_793">
<rect width="48" height="48" fill="white"/>
</clipPath>
</defs>
</svg>
