<svg width="160" height="160" viewBox="0 0 160 160" fill="none" xmlns="http://www.w3.org/2000/svg">
<path d="M20.75 31.7C34.35 15.9 54.45 6 76.85 6C93.35 6 108.55 11.4 120.85 20.5" stroke="#1e1e1e" stroke-width="2" stroke-miterlimit="10"/>
<path d="M150.848 80C150.848 120.9 117.748 154 76.8484 154C46.6484 154 20.7484 135.9 9.14844 110" stroke="#1e1e1e" stroke-width="2" stroke-miterlimit="10"/>
<path d="M87.3484 105.1L104.248 122C106.948 124.7 111.248 124.7 113.848 122L118.648 117.2L72.0484 70.5C66.7484 70.8 62.9484 73.2 60.2484 75.8C55.8484 80.1 49.2484 81.3 43.6484 78.6L53.7484 59.1L76.7484 52.5C76.7484 52.5 97.9484 65.8 110.748 62.9L122.248 60.5" stroke="#1e1e1e" stroke-width="2" stroke-miterlimit="10" stroke-linejoin="round"/>
<path d="M105.748 121.3L101.748 125.3C98.6477 128.4 93.5477 128.4 90.4477 125.3L78.8477 113.7" stroke="#1e1e1e" stroke-width="2" stroke-miterlimit="10"/>
<path d="M92.9484 127.8L88.9484 131.8C85.8484 134.9 80.7484 134.9 77.6484 131.8L67.1484 121.3" stroke="#1e1e1e" stroke-width="2" stroke-miterlimit="10"/>
<path d="M58.9469 130.4C56.6469 132.7 52.8469 132.7 50.4469 130.4L47.0469 127L51.2469 122.8C53.3469 120.7 56.8469 120.7 58.9469 122.8C61.0469 125 61.0469 128.3 58.9469 130.4Z" stroke="#1e1e1e" stroke-width="2" stroke-miterlimit="10"/>
<path d="M51.05 122.599L49.35 124.299C47.15 126.499 43.75 126.499 41.55 124.299L37.75 120.499L43.35 114.899C45.45 112.799 48.95 112.799 51.05 114.899C53.25 117.099 53.15 120.499 51.05 122.599Z" stroke="#1e1e1e" stroke-width="2" stroke-miterlimit="10"/>
<path d="M45.3492 112.8L37.6492 120.5L29.9492 112.8L37.6492 105.1C39.7492 103 43.2492 103 45.3492 105.1C47.4492 107.2 47.4492 110.7 45.3492 112.8Z" stroke="#1e1e1e" stroke-width="2" stroke-miterlimit="10"/>
<path d="M36.45 105.701L29.75 112.401L26.35 109.001C24.05 106.701 24.05 102.901 26.35 100.501L28.85 98.0008C30.95 95.9008 34.45 95.9008 36.55 98.0008C38.55 100.201 38.55 103.601 36.45 105.701Z" stroke="#1e1e1e" stroke-width="2" stroke-miterlimit="10"/>
<path d="M34.0484 96.7C31.4484 92.4 27.2484 88 20.6484 85" stroke="#1e1e1e" stroke-width="2" stroke-miterlimit="10"/>
<path d="M43.6469 114.7L43.5469 114.6" stroke="#1e1e1e" stroke-width="2" stroke-miterlimit="10"/>
<path d="M59.1484 130.2L63.8484 134.9C66.9484 138 72.0484 138 75.1484 134.9L79.1484 130.9" stroke="#1e1e1e" stroke-width="2" stroke-miterlimit="10"/>
<path d="M51.5477 122.6L51.3477 122.3" stroke="#1e1e1e" stroke-width="2" stroke-miterlimit="10"/>
<path d="M37.6492 105.1C37.5492 104.9 37.5492 104.6 37.4492 104.4" stroke="#1e1e1e" stroke-width="2" stroke-miterlimit="10"/>
<path d="M111.449 110C111.449 110 119.449 106 120.349 99.2002L130.649 96.7002" stroke="#1e1e1e" stroke-width="2" stroke-miterlimit="10" stroke-linejoin="round"/>
<path d="M86.4492 85C86.4492 85 100.849 95.2 112.849 85" stroke="#1e1e1e" stroke-width="2" stroke-miterlimit="10" stroke-linejoin="round"/>
<path d="M40.75 48.5L60.55 57.3" stroke="#1e1e1e" stroke-width="2" stroke-miterlimit="10" stroke-linejoin="round"/>
<path d="M13.0469 27.1992L43.5469 43.4992L16.6469 94.0992" stroke="#1e1e1e" stroke-width="2" stroke-miterlimit="10" stroke-linejoin="round"/>
<path d="M126.648 74L134.648 105.1" stroke="#1e1e1e" stroke-width="2" stroke-miterlimit="10" stroke-linejoin="round"/>
<path d="M157.847 33.9C142.447 36.4 133.447 45.4 130.947 60.8C128.447 45.4 119.447 36.4 104.047 33.9C119.447 31.4 128.447 22.4 130.947 7C133.447 22.4 142.447 31.4 157.847 33.9Z" fill="#FFBF39"/>
<path d="M150.8 36.9C135.4 39.4 126.4 48.4 123.9 63.8C121.4 48.4 112.4 39.4 97 36.9C112.4 34.4 121.4 25.4 123.9 10C126.4 25.4 135.4 34.4 150.8 36.9Z" stroke="#1e1e1e" stroke-width="2" stroke-miterlimit="10" stroke-linejoin="round"/>
</svg>
