<svg width="160" height="160" viewBox="0 0 160 160" fill="none" xmlns="http://www.w3.org/2000/svg">
<path fill-rule="evenodd" clip-rule="evenodd" d="M42.5376 53.4262L42.5376 34.561H61.4028V27.8203H42.5376H35.7969H35.7969L35.7969 53.4262H42.5376Z" fill="#FFBF39"/>
<path fill-rule="evenodd" clip-rule="evenodd" d="M127.269 99.8628L127.269 118.728L108.404 118.728L108.404 125.469L127.269 125.469L134.01 125.469L134.01 125.469L134.01 99.8628L127.269 99.8628Z" fill="#FFBF39"/>
<path fill-rule="evenodd" clip-rule="evenodd" d="M127.269 53.4262L127.269 34.561H108.404V27.8203H127.269H134.01H134.01L134.01 53.4262H127.269Z" fill="#FFBF39"/>
<path fill-rule="evenodd" clip-rule="evenodd" d="M42.5376 99.8628L42.5376 118.728L61.4028 118.728L61.4028 125.469L42.5376 125.469L35.7969 125.469L35.7969 125.469L35.7969 99.8628L42.5376 99.8628Z" fill="#FFBF39"/>
<path d="M135.086 126.951C145.386 114.451 151.586 98.4508 151.586 81.0508C151.586 41.2508 119.386 9.05078 79.5859 9.05078C39.7859 9.05078 7.58594 41.2508 7.58594 81.0508C7.58594 98.4508 15.7859 114.451 24.0859 126.951" stroke="black" stroke-width="2" stroke-miterlimit="10" stroke-linejoin="round"/>
<path d="M33.8867 66.5512V35.9512H64.4867" stroke="black" stroke-width="2" stroke-miterlimit="10"/>
<path d="M33.8867 96.3506V126.951H64.4867" stroke="black" stroke-width="2" stroke-miterlimit="10"/>
<path d="M125.286 66.5512V35.9512H94.6855" stroke="black" stroke-width="2" stroke-miterlimit="10"/>
<path d="M94.6855 126.951H125.286V96.3506" stroke="black" stroke-width="2" stroke-miterlimit="10"/>
<path d="M79.5857 95.1508C71.1857 95.1508 64.3857 88.5508 64.1857 80.1508L63.9857 67.6508C63.6857 58.8508 70.7857 51.5508 79.5857 51.5508C88.3857 51.5508 95.4857 58.8508 95.1857 67.6508L94.9857 80.1508C94.7857 88.5508 87.9857 95.1508 79.5857 95.1508Z" stroke="black" stroke-width="2" stroke-miterlimit="10"/>
<path d="M118.686 134.351C119.186 136.951 119.486 139.751 119.486 142.551C119.486 142.551 104.786 150.651 79.5855 150.651C54.9855 150.651 39.6855 142.551 39.6855 142.551C39.6855 139.751 39.9855 136.951 40.4855 134.351" stroke="black" stroke-width="2" stroke-miterlimit="10"/>
<path d="M42.7852 126.95C48.8852 112.65 62.9852 102.65 79.5852 102.65C96.0852 102.65 110.285 112.65 116.385 126.95" stroke="black" stroke-width="2" stroke-miterlimit="10"/>
<path d="M72.3848 62.6504C72.3848 62.6504 72.3848 75.0504 95.1848 69.8504" stroke="black" stroke-width="2" stroke-miterlimit="10"/>
</svg>
