<svg width="3240" height="28" viewBox="0 0 3240 28" fill="none" xmlns="http://www.w3.org/2000/svg">
<rect x="2578" y="18" width="201" height="10" fill="#F7F7FB"/>
<rect x="-0.5" y="0.5" width="174" height="1" transform="matrix(-1 0 0 1 2478 26)" fill="#FFBF39" stroke="#1e1e1e"/>
<line y1="-1" x2="27" y2="-1" transform="matrix(1 8.74228e-08 8.74228e-08 -1 2826 2)" stroke="#1e1e1e" stroke-width="2"/>
<line x1="2392" y1="3" x2="2735" y2="3" stroke="#FFBF39" stroke-width="4"/>
<rect x="736" y="18" width="201" height="10" fill="#F7F7FB"/>
<rect x="-0.5" y="0.5" width="174" height="1" transform="matrix(-1 0 0 1 1032 0)" fill="#FFBF39" stroke="#1e1e1e"/>
<line y1="-1" x2="27" y2="-1" transform="matrix(1 8.74228e-08 8.74228e-08 -1 1056 0)" stroke="#1e1e1e" stroke-width="2"/>
<line x1="1006" y1="26" x2="1650" y2="26" stroke="#FFBF39" stroke-width="4"/>
</svg>
