<svg xmlns="http://www.w3.org/2000/svg" xmlns:xlink="http://www.w3.org/1999/xlink" width="40" zoomAndPan="magnify" viewBox="0 0 30 30.000001" height="40" preserveAspectRatio="xMidYMid meet" version="1.0"><defs><clipPath id="78b7188743"><path d="M 5.964844 5.480469 L 24.109375 5.480469 L 24.109375 23.625 L 5.964844 23.625 Z M 5.964844 5.480469 " clip-rule="nonzero"/></clipPath></defs><g clip-path="url(#78b7188743)"><path fill="#000000" d="M 15.035156 5.480469 C 14.441406 5.480469 13.851562 5.539062 13.265625 5.652344 C 12.683594 5.769531 12.113281 5.941406 11.5625 6.167969 C 11.011719 6.398438 10.492188 6.675781 9.996094 7.007812 C 9.5 7.339844 9.042969 7.714844 8.621094 8.136719 C 8.199219 8.558594 7.824219 9.015625 7.492188 9.511719 C 7.160156 10.007812 6.882812 10.53125 6.652344 11.082031 C 6.425781 11.628906 6.253906 12.199219 6.136719 12.78125 C 6.019531 13.367188 5.964844 13.957031 5.964844 14.550781 C 5.964844 15.148438 6.019531 15.738281 6.136719 16.324219 C 6.253906 16.90625 6.425781 17.472656 6.652344 18.023438 C 6.882812 18.574219 7.160156 19.097656 7.492188 19.59375 C 7.824219 20.089844 8.199219 20.546875 8.621094 20.96875 C 9.042969 21.390625 9.5 21.765625 9.996094 22.097656 C 10.492188 22.425781 11.011719 22.707031 11.5625 22.933594 C 12.113281 23.164062 12.683594 23.335938 13.265625 23.453125 C 13.851562 23.566406 14.441406 23.625 15.035156 23.625 C 15.632812 23.625 16.222656 23.566406 16.804688 23.453125 C 17.390625 23.335938 17.957031 23.164062 18.507812 22.933594 C 19.058594 22.707031 19.582031 22.425781 20.078125 22.097656 C 20.574219 21.765625 21.03125 21.390625 21.453125 20.96875 C 21.875 20.546875 22.25 20.089844 22.582031 19.59375 C 22.910156 19.097656 23.191406 18.574219 23.417969 18.023438 C 23.648438 17.472656 23.820312 16.90625 23.933594 16.324219 C 24.050781 15.738281 24.109375 15.148438 24.109375 14.550781 C 24.109375 13.957031 24.050781 13.367188 23.933594 12.78125 C 23.816406 12.199219 23.644531 11.632812 23.417969 11.082031 C 23.1875 10.53125 22.910156 10.007812 22.578125 9.515625 C 22.246094 9.019531 21.871094 8.5625 21.449219 8.140625 C 21.027344 7.71875 20.570312 7.34375 20.074219 7.011719 C 19.578125 6.679688 19.058594 6.402344 18.507812 6.171875 C 17.957031 5.945312 17.390625 5.773438 16.804688 5.65625 C 16.222656 5.539062 15.632812 5.480469 15.035156 5.480469 Z M 15.035156 23.09375 C 14.476562 23.09375 13.921875 23.039062 13.371094 22.929688 C 12.820312 22.820312 12.285156 22.65625 11.769531 22.441406 C 11.25 22.226562 10.757812 21.964844 10.292969 21.652344 C 9.824219 21.339844 9.394531 20.988281 8.996094 20.589844 C 8.601562 20.195312 8.246094 19.761719 7.9375 19.296875 C 7.625 18.832031 7.359375 18.339844 7.148438 17.820312 C 6.933594 17.300781 6.769531 16.769531 6.660156 16.21875 C 6.550781 15.667969 6.496094 15.113281 6.496094 14.550781 C 6.496094 13.992188 6.550781 13.4375 6.660156 12.886719 C 6.769531 12.335938 6.933594 11.800781 7.148438 11.285156 C 7.359375 10.765625 7.625 10.273438 7.9375 9.808594 C 8.246094 9.34375 8.601562 8.910156 8.996094 8.515625 C 9.394531 8.117188 9.824219 7.761719 10.292969 7.453125 C 10.757812 7.140625 11.25 6.878906 11.769531 6.664062 C 12.285156 6.449219 12.820312 6.285156 13.371094 6.175781 C 13.921875 6.066406 14.476562 6.011719 15.035156 6.011719 C 15.597656 6.011719 16.152344 6.066406 16.703125 6.175781 C 17.253906 6.285156 17.785156 6.449219 18.304688 6.664062 C 18.824219 6.878906 19.316406 7.140625 19.78125 7.453125 C 20.246094 7.761719 20.679688 8.117188 21.074219 8.515625 C 21.472656 8.910156 21.824219 9.34375 22.136719 9.808594 C 22.449219 10.273438 22.710938 10.765625 22.925781 11.285156 C 23.140625 11.800781 23.300781 12.335938 23.410156 12.886719 C 23.519531 13.4375 23.574219 13.992188 23.574219 14.550781 C 23.574219 15.113281 23.519531 15.667969 23.410156 16.21875 C 23.300781 16.765625 23.136719 17.300781 22.921875 17.820312 C 22.707031 18.335938 22.445312 18.828125 22.132812 19.292969 C 21.820312 19.761719 21.46875 20.191406 21.070312 20.589844 C 20.675781 20.984375 20.246094 21.339844 19.777344 21.648438 C 19.3125 21.960938 18.820312 22.226562 18.304688 22.441406 C 17.785156 22.652344 17.25 22.816406 16.703125 22.925781 C 16.152344 23.035156 15.597656 23.089844 15.035156 23.09375 Z M 15.035156 7.789062 C 14.738281 7.789062 14.445312 7.816406 14.152344 7.875 C 13.863281 7.933594 13.582031 8.019531 13.304688 8.132812 C 13.03125 8.246094 12.769531 8.386719 12.523438 8.550781 C 12.277344 8.714844 12.050781 8.902344 11.839844 9.113281 C 11.628906 9.324219 11.441406 9.550781 11.277344 9.796875 C 11.113281 10.046875 10.972656 10.304688 10.859375 10.582031 C 10.746094 10.855469 10.660156 11.136719 10.601562 11.429688 C 10.542969 11.71875 10.511719 12.011719 10.511719 12.3125 C 10.570312 16.511719 14.726562 21.089844 15.027344 21.441406 C 15.363281 21.078125 19.496094 17.011719 19.558594 12.3125 C 19.558594 12.015625 19.53125 11.71875 19.472656 11.429688 C 19.414062 11.136719 19.328125 10.855469 19.214844 10.582031 C 19.101562 10.304688 18.960938 10.046875 18.796875 9.796875 C 18.628906 9.550781 18.441406 9.324219 18.234375 9.113281 C 18.023438 8.902344 17.796875 8.714844 17.546875 8.550781 C 17.300781 8.386719 17.039062 8.246094 16.765625 8.132812 C 16.492188 8.019531 16.210938 7.933594 15.917969 7.875 C 15.628906 7.816406 15.332031 7.789062 15.035156 7.789062 Z M 15.046875 20.703125 C 14.242188 19.746094 11.011719 15.675781 11.011719 12.3125 C 11.011719 12.046875 11.039062 11.785156 11.089844 11.527344 C 11.140625 11.265625 11.21875 11.015625 11.316406 10.769531 C 11.417969 10.527344 11.542969 10.292969 11.691406 10.074219 C 11.835938 9.855469 12.003906 9.652344 12.191406 9.464844 C 12.378906 9.277344 12.582031 9.109375 12.800781 8.964844 C 13.019531 8.816406 13.253906 8.695312 13.496094 8.59375 C 13.742188 8.492188 13.992188 8.414062 14.25 8.363281 C 14.511719 8.3125 14.773438 8.285156 15.035156 8.285156 C 15.300781 8.285156 15.5625 8.3125 15.820312 8.363281 C 16.082031 8.414062 16.332031 8.492188 16.578125 8.59375 C 16.820312 8.695312 17.050781 8.816406 17.273438 8.964844 C 17.492188 9.109375 17.695312 9.277344 17.882812 9.464844 C 18.070312 9.652344 18.234375 9.855469 18.382812 10.074219 C 18.527344 10.292969 18.652344 10.527344 18.753906 10.769531 C 18.855469 11.015625 18.933594 11.265625 18.984375 11.527344 C 19.035156 11.785156 19.0625 12.046875 19.0625 12.3125 C 19.0625 16.066406 15.859375 19.8125 15.046875 20.703125 Z M 15.035156 9.242188 C 14.628906 9.242188 14.238281 9.320312 13.863281 9.476562 C 13.484375 9.632812 13.152344 9.851562 12.867188 10.140625 C 12.578125 10.429688 12.355469 10.761719 12.199219 11.136719 C 12.046875 11.511719 11.964844 11.902344 11.964844 12.3125 C 12.109375 16.375 17.960938 16.371094 18.105469 12.308594 C 18.105469 11.902344 18.027344 11.511719 17.871094 11.136719 C 17.714844 10.761719 17.492188 10.429688 17.207031 10.140625 C 16.917969 9.851562 16.585938 9.632812 16.210938 9.476562 C 15.835938 9.320312 15.441406 9.242188 15.035156 9.242188 Z M 15.035156 14.882812 C 11.636719 14.773438 11.640625 9.847656 15.035156 9.738281 C 18.433594 9.847656 18.433594 14.773438 15.035156 14.882812 Z M 15.035156 14.882812 " fill-opacity="1" fill-rule="nonzero"/></g></svg>