<svg xmlns="http://www.w3.org/2000/svg" xmlns:xlink="http://www.w3.org/1999/xlink" width="628" zoomAndPan="magnify" viewBox="0 0 470.87997 193.499995" height="258" preserveAspectRatio="xMidYMid meet" version="1.0"><defs><clipPath id="5b87eb910a"><path d="M 275.554688 164.449219 L 281.296875 164.449219 L 281.296875 170.191406 L 275.554688 170.191406 Z M 275.554688 164.449219 " clip-rule="nonzero"/></clipPath><clipPath id="63848acc1c"><path d="M 278.425781 170.191406 C 280.011719 170.191406 281.296875 168.90625 281.296875 167.320312 C 281.296875 165.734375 280.011719 164.449219 278.425781 164.449219 C 276.839844 164.449219 275.554688 165.734375 275.554688 167.320312 C 275.554688 168.90625 276.839844 170.191406 278.425781 170.191406 Z M 278.425781 170.191406 " clip-rule="nonzero"/></clipPath><clipPath id="7d5c90db08"><path d="M 193.722656 146.617188 L 198.96875 146.617188 L 198.96875 151.863281 L 193.722656 151.863281 Z M 193.722656 146.617188 " clip-rule="nonzero"/></clipPath><clipPath id="b3d155cbc6"><path d="M 196.347656 151.863281 C 197.796875 151.863281 198.96875 150.691406 198.96875 149.242188 C 198.96875 147.792969 197.796875 146.617188 196.347656 146.617188 C 194.898438 146.617188 193.722656 147.792969 193.722656 149.242188 C 193.722656 150.691406 194.898438 151.863281 196.347656 151.863281 Z M 196.347656 151.863281 " clip-rule="nonzero"/></clipPath><clipPath id="77ebb80e32"><path d="M 0.546875 135 L 285 135 L 285 172 L 0.546875 172 Z M 0.546875 135 " clip-rule="nonzero"/></clipPath><clipPath id="c31c12275d"><path d="M 0.546875 145 L 198 145 L 198 156 L 0.546875 156 Z M 0.546875 145 " clip-rule="nonzero"/></clipPath><clipPath id="acdc509571"><path d="M 0.546875 102 L 220 102 L 220 164 L 0.546875 164 Z M 0.546875 102 " clip-rule="nonzero"/></clipPath><clipPath id="57fdd10e79"><path d="M 213.101562 157.621094 L 217.089844 157.621094 L 217.089844 161.605469 L 213.101562 161.605469 Z M 213.101562 157.621094 " clip-rule="nonzero"/></clipPath><clipPath id="d9751f5cdd"><path d="M 215.09375 161.605469 C 216.195312 161.605469 217.089844 160.714844 217.089844 159.613281 C 217.089844 158.511719 216.195312 157.621094 215.09375 157.621094 C 213.996094 157.621094 213.101562 158.511719 213.101562 159.613281 C 213.101562 160.714844 213.996094 161.605469 215.09375 161.605469 Z M 215.09375 161.605469 " clip-rule="nonzero"/></clipPath><clipPath id="75be7a77cc"><path d="M 272.082031 160.976562 L 284.796875 160.976562 L 284.796875 173.691406 L 272.082031 173.691406 Z M 272.082031 160.976562 " clip-rule="nonzero"/></clipPath></defs><g clip-path="url(#5b87eb910a)"><g clip-path="url(#63848acc1c)"><path fill="#eae9e9" d="M 281.296875 170.191406 L 275.554688 170.191406 L 275.554688 164.449219 L 281.296875 164.449219 Z M 281.296875 170.191406 " fill-opacity="1" fill-rule="nonzero"/></g></g><g clip-path="url(#7d5c90db08)"><g clip-path="url(#b3d155cbc6)"><path fill="#eae9e9" d="M 198.96875 151.863281 L 193.722656 151.863281 L 193.722656 146.617188 L 198.96875 146.617188 Z M 198.96875 151.863281 " fill-opacity="1" fill-rule="nonzero"/></g></g><g clip-path="url(#77ebb80e32)"><path stroke-linecap="butt" transform="matrix(0.748067, 0, 0, 0.748067, -107.30323, 139.603159)" fill="none" stroke-linejoin="miter" d="M 518.485437 36.40942 L 267.24414 36.40942 C 262.821283 36.40942 259.244355 32.827271 259.244355 28.409635 L 259.244355 8.498942 C 259.244355 4.081307 255.662206 0.499157 251.239348 0.499157 L -0.00194822 0.499157 " stroke="#fdfdfd" stroke-width="1" stroke-opacity="1" stroke-miterlimit="4"/></g><g clip-path="url(#c31c12275d)"><path stroke-linecap="butt" transform="matrix(-0.748052, 0.00476404, -0.00476404, -0.748052, 193.726768, 149.626438)" fill="none" stroke-linejoin="miter" d="M 0.00232516 0.498017 L 442.871479 0.498649 " stroke="#fdfdfd" stroke-width="1" stroke-opacity="1" stroke-miterlimit="4"/></g><g clip-path="url(#acdc509571)"><path stroke-linecap="butt" transform="matrix(0.748067, 0, 0, 0.748067, -173.695145, 106.528768)" fill="none" stroke-linejoin="miter" d="M 519.740391 70.977913 L 282.869466 70.977913 C 270.170068 70.977913 259.872694 60.680539 259.872694 47.97592 L 259.872694 23.501381 C 259.872694 10.796761 249.57532 0.499387 236.870701 0.499387 L -0.000224487 0.499387 " stroke="#666769" stroke-width="1" stroke-opacity="1" stroke-miterlimit="4"/></g><g clip-path="url(#57fdd10e79)"><g clip-path="url(#d9751f5cdd)"><path fill="#666769" d="M 217.089844 161.605469 L 213.101562 161.605469 L 213.101562 157.621094 L 217.089844 157.621094 Z M 217.089844 161.605469 " fill-opacity="1" fill-rule="nonzero"/></g></g><g clip-path="url(#75be7a77cc)"><path fill="#fdfdfd" d="M 278.425781 173.695312 C 281.9375 173.695312 284.800781 170.835938 284.800781 167.320312 C 284.800781 163.804688 281.9375 160.941406 278.425781 160.941406 C 274.910156 160.941406 272.046875 163.804688 272.046875 167.320312 C 272.046875 170.835938 274.910156 173.695312 278.425781 173.695312 Z M 278.425781 161.738281 C 281.5 161.738281 284.003906 164.242188 284.003906 167.320312 C 284.003906 170.394531 281.5 172.898438 278.425781 172.898438 C 275.347656 172.898438 272.84375 170.394531 272.84375 167.320312 C 272.84375 164.242188 275.347656 161.738281 278.425781 161.738281 Z M 278.425781 161.738281 " fill-opacity="1" fill-rule="nonzero"/></g></svg>