<svg xmlns="http://www.w3.org/2000/svg" xmlns:xlink="http://www.w3.org/1999/xlink" width="628" zoomAndPan="magnify" viewBox="0 0 470.87997 193.499995" height="258" preserveAspectRatio="xMidYMid meet" version="1.0"><defs><clipPath id="f3471ce4af"><path d="M 251.03125 22.167969 L 255.722656 22.167969 L 255.722656 26.855469 L 251.03125 26.855469 Z M 251.03125 22.167969 " clip-rule="nonzero"/></clipPath><clipPath id="c49a2f5bf4"><path d="M 253.378906 22.167969 C 252.082031 22.167969 251.03125 23.21875 251.03125 24.511719 C 251.03125 25.808594 252.082031 26.855469 253.378906 26.855469 C 254.671875 26.855469 255.722656 25.808594 255.722656 24.511719 C 255.722656 23.21875 254.671875 22.167969 253.378906 22.167969 Z M 253.378906 22.167969 " clip-rule="nonzero"/></clipPath><clipPath id="b36f3c85fc"><path d="M 247 20 L 470.214844 20 L 470.214844 57 L 247 57 Z M 247 20 " clip-rule="nonzero"/></clipPath><clipPath id="a2e0c97fe8"><path d="M 318.285156 38.292969 L 322.679688 38.292969 L 322.679688 42.6875 L 318.285156 42.6875 Z M 318.285156 38.292969 " clip-rule="nonzero"/></clipPath><clipPath id="6f56d873f6"><path d="M 320.484375 38.292969 C 319.269531 38.292969 318.285156 39.273438 318.285156 40.488281 C 318.285156 41.703125 319.269531 42.6875 320.484375 42.6875 C 321.695312 42.6875 322.679688 41.703125 322.679688 40.488281 C 322.679688 39.273438 321.695312 38.292969 320.484375 38.292969 Z M 320.484375 38.292969 " clip-rule="nonzero"/></clipPath><clipPath id="6e1fe3c5a1"><path d="M 315 32 L 470.214844 32 L 470.214844 48 L 315 48 Z M 315 32 " clip-rule="nonzero"/></clipPath><clipPath id="2b13d829ea"><path d="M 300 27 L 470.214844 27 L 470.214844 79 L 300 79 Z M 300 27 " clip-rule="nonzero"/></clipPath><clipPath id="49ab5c4ad0"><path d="M 304.648438 29.726562 L 307.90625 29.726562 L 307.90625 32.980469 L 304.648438 32.980469 Z M 304.648438 29.726562 " clip-rule="nonzero"/></clipPath><clipPath id="961a93ceaf"><path d="M 306.277344 29.726562 C 305.378906 29.726562 304.648438 30.453125 304.648438 31.351562 C 304.648438 32.253906 305.378906 32.980469 306.277344 32.980469 C 307.175781 32.980469 307.90625 32.253906 307.90625 31.351562 C 307.90625 30.453125 307.175781 29.726562 306.277344 29.726562 Z M 306.277344 29.726562 " clip-rule="nonzero"/></clipPath><clipPath id="1543569567"><path d="M 378 106 L 470.214844 106 L 470.214844 108 L 378 108 Z M 378 106 " clip-rule="nonzero"/></clipPath><clipPath id="0c902415f5"><path d="M 376.390625 104.675781 L 381.558594 104.675781 L 381.558594 109.984375 L 376.390625 109.984375 Z M 376.390625 104.675781 " clip-rule="nonzero"/></clipPath><clipPath id="f0267dc6eb"><path d="M 378.972656 104.675781 C 377.546875 104.675781 376.390625 105.863281 376.390625 107.324219 C 376.390625 108.789062 377.546875 109.976562 378.972656 109.976562 C 380.402344 109.976562 381.558594 108.789062 381.558594 107.324219 C 381.558594 105.863281 380.402344 104.675781 378.972656 104.675781 Z M 378.972656 104.675781 " clip-rule="nonzero"/></clipPath><clipPath id="af06523940"><path d="M 248.164062 19.300781 L 258.636719 19.300781 L 258.636719 29.773438 L 248.164062 29.773438 Z M 248.164062 19.300781 " clip-rule="nonzero"/></clipPath></defs><g clip-path="url(#f3471ce4af)"><g clip-path="url(#c49a2f5bf4)"><path fill="#eae9e9" d="M 251.03125 22.167969 L 255.722656 22.167969 L 255.722656 26.855469 L 251.03125 26.855469 Z M 251.03125 22.167969 " fill-opacity="1" fill-rule="nonzero"/></g></g><g clip-path="url(#b36f3c85fc)"><path stroke-linecap="butt" transform="matrix(0.748067, 0, 0, 0.748067, 251.262175, 24.111066)" fill="none" stroke-linejoin="miter" d="M 0.500681 1.062986 L 0.500681 0.781009 C 0.500681 0.707904 0.532012 0.634799 0.58423 0.582581 C 0.636448 0.530363 0.704331 0.499032 0.782658 0.499032 L 163.488473 0.499032 C 167.906109 0.499032 171.488258 4.081181 171.488258 8.498817 L 171.488258 29.365098 C 171.488258 33.782734 175.070407 37.364883 179.488043 37.364883 L 466.409844 37.364883 " stroke="#fdfdfd" stroke-width="1" stroke-opacity="1" stroke-miterlimit="4"/></g><g clip-path="url(#a2e0c97fe8)"><g clip-path="url(#6f56d873f6)"><path fill="#eae9e9" d="M 318.285156 38.292969 L 322.679688 38.292969 L 322.679688 42.6875 L 318.285156 42.6875 Z M 318.285156 38.292969 " fill-opacity="1" fill-rule="nonzero"/></g></g><g clip-path="url(#6e1fe3c5a1)"><path stroke-linecap="butt" transform="matrix(1.186966, -0.00755931, 0.00755931, 1.186966, 322.676358, 39.895532)" fill="none" stroke-linejoin="miter" d="M -0.000375097 0.499379 L 233.775831 0.500695 " stroke="#fafafa" stroke-width="1" stroke-opacity="1" stroke-miterlimit="4"/></g><g clip-path="url(#2b13d829ea)"><path stroke-linecap="butt" transform="matrix(0.748067, 0, 0, 0.748067, 304.649115, 30.947271)" fill="none" stroke-linejoin="miter" d="M -0.00090518 0.498674 L 163.169649 0.498674 C 173.66545 0.498674 182.17175 9.004973 182.17175 19.500775 L 182.17175 39.077273 C 182.17175 49.573075 190.678049 58.079374 201.168629 58.079374 L 424.614327 58.079374 " stroke="#666769" stroke-width="1" stroke-opacity="1" stroke-miterlimit="4"/></g><g clip-path="url(#49ab5c4ad0)"><g clip-path="url(#961a93ceaf)"><path fill="#666769" d="M 304.648438 29.726562 L 307.90625 29.726562 L 307.90625 32.980469 L 304.648438 32.980469 Z M 304.648438 29.726562 " fill-opacity="1" fill-rule="nonzero"/></g></g><g clip-path="url(#1543569567)"><path stroke-linecap="butt" transform="matrix(0.748067, 0, 0, 0.748067, 378.496911, 106.951112)" fill="none" stroke-linejoin="miter" d="M -0.00109214 0.498762 L 217.721522 0.498762 " stroke="#ffffff" stroke-width="1" stroke-opacity="1" stroke-miterlimit="4"/></g><g clip-path="url(#0c902415f5)"><g clip-path="url(#f0267dc6eb)"><path fill="#eae9e9" d="M 376.390625 104.675781 L 381.558594 104.675781 L 381.558594 109.984375 L 376.390625 109.984375 Z M 376.390625 104.675781 " fill-opacity="1" fill-rule="nonzero"/></g></g><g clip-path="url(#af06523940)"><path fill="#fdfdfd" d="M 253.371094 19.300781 C 250.5 19.300781 248.164062 21.636719 248.164062 24.503906 C 248.164062 27.375 250.5 29.710938 253.371094 29.710938 C 256.242188 29.710938 258.578125 27.375 258.578125 24.503906 C 258.578125 21.636719 256.242188 19.300781 253.371094 19.300781 Z M 253.371094 29.0625 C 250.859375 29.0625 248.8125 27.015625 248.8125 24.503906 C 248.8125 21.992188 250.859375 19.949219 253.371094 19.949219 C 255.882812 19.949219 257.925781 21.992188 257.925781 24.503906 C 257.925781 27.015625 255.882812 29.0625 253.371094 29.0625 Z M 253.371094 29.0625 " fill-opacity="1" fill-rule="nonzero"/></g></svg>