<svg width="533" height="258" viewBox="0 0 533 258" fill="none" xmlns="http://www.w3.org/2000/svg">
<path d="M495.32 69.7873C495.32 69.7873 419.582 106.328 257.837 90.6244C165.308 81.6252 180.672 119.559 118.281 117.079C25.9767 115.499 0 123.481 0 123.481C30.4637 127.251 34.5089 130.4 71.3295 117.079C109.948 103.106 172.133 50.3393 226.793 60.9693C281.452 71.5992 397.416 73.8943 495.562 59.8217" fill="url(#paint0_linear_1_33514)"/>
<path d="M47.0508 213.291H498.381" stroke="#020202" stroke-width="2" stroke-miterlimit="10"/>
<path d="M174.367 213.293V164.673L257.837 126.924H321.858" stroke="#020202" stroke-width="2.56653" stroke-miterlimit="10"/>
<path d="M357.49 126.924H394.333L477.802 164.673V213.293" stroke="#020202" stroke-width="2.56653" stroke-miterlimit="10"/>
<path d="M341.246 213.293V164.733L257.837 126.924L174.367 164.673V213.293" stroke="#020202" stroke-width="2" stroke-miterlimit="10"/>
<path d="M341.246 164.733H453.585" stroke="#020202" stroke-width="2" stroke-miterlimit="10"/>
<path d="M350.79 107.778H357.494V144.742H350.79L321.859 132.058V107.778H350.79ZM350.79 107.778V144.742" stroke="#020202" stroke-width="2" stroke-miterlimit="10"/>
<path d="M318.654 102.947H360.449" stroke="#020202" stroke-width="2" stroke-miterlimit="10"/>
<path d="M321.859 114.964H350.79" stroke="#020202" stroke-width="2" stroke-miterlimit="10"/>
<path d="M321.859 119.494H350.79" stroke="#020202" stroke-width="2" stroke-miterlimit="10"/>
<path d="M174.367 173.55H149.664V213.292H174.367V173.55Z" fill="#020202" stroke="#020202" stroke-width="2" stroke-miterlimit="10"/>
<path d="M149.664 173.55H79.3613V213.292H149.664V173.55Z" stroke="#020202" stroke-width="2" stroke-miterlimit="10"/>
<path d="M321.861 125.656C321.861 125.656 291.36 108.623 259.289 108.623C198.589 108.623 188.805 128.977 132.816 150.66C76.8278 172.343 23.7988 138.943 23.7988 138.943C23.7988 138.943 98.269 158.21 157.157 136.587C204.508 119.193 261.282 108.623 321.861 125.656Z" fill="url(#paint1_linear_1_33514)"/>
<path d="M137.342 187.199H86.0039V213.291H137.342V187.199Z" stroke="#020202" stroke-width="2" stroke-miterlimit="10"/>
<path d="M85.9448 213.323H91.2598V187.232H85.9448V213.323Z" fill="#020202" stroke="#020202" stroke-width="2" stroke-miterlimit="10"/>
<path d="M205.475 36.5695V150.6" stroke="#020202" stroke-width="2.56653" stroke-miterlimit="10"/>
<path d="M205.474 65.741L192.609 78.666" stroke="#020202" stroke-width="2.56653" stroke-miterlimit="10"/>
<path d="M205.474 75.343L192.609 88.2681" stroke="#020202" stroke-width="2.56653" stroke-miterlimit="10"/>
<path d="M205.475 60.969L218.4 73.8941" stroke="#020202" stroke-width="2.56653" stroke-miterlimit="10"/>
<path d="M205.475 40.0712L218.4 52.9358" stroke="#020202" stroke-width="2.56653" stroke-miterlimit="10"/>
<path d="M205.475 70.5111L218.4 83.4362" stroke="#020202" stroke-width="2.56653" stroke-miterlimit="10"/>
<path d="M205.475 101.011L218.4 113.936" stroke="#020202" stroke-width="2.56653" stroke-miterlimit="10"/>
<path d="M205.475 110.617L218.4 123.542" stroke="#020202" stroke-width="2.56653" stroke-miterlimit="10"/>
<path d="M274.988 0.208984C274.988 0.208984 275.5 107 275 110" stroke="#020202" stroke-width="2" stroke-miterlimit="10"/>
<path d="M274.991 8.78711L262.066 21.7122" stroke="#020202" stroke-width="2" stroke-miterlimit="10"/>
<path d="M274.991 37.5938L262.066 50.5188" stroke="#020202" stroke-width="2" stroke-miterlimit="10"/>
<path d="M274.988 23.2207L287.913 36.1458" stroke="#020202" stroke-width="2" stroke-miterlimit="10"/>
<path d="M274.988 2.32227L287.913 15.2473" stroke="#020202" stroke-width="2" stroke-miterlimit="10"/>
<path d="M274.988 32.8242L287.913 45.7493" stroke="#020202" stroke-width="2" stroke-miterlimit="10"/>
<path d="M274.988 63.3242L287.913 76.2493" stroke="#020202" stroke-width="2" stroke-miterlimit="10"/>
<path d="M274.988 93.4023L287.913 106.327" stroke="#020202" stroke-width="2" stroke-miterlimit="10"/>
<path d="M238.508 15.2546V135.68" stroke="#020202" stroke-width="2.56653" stroke-miterlimit="10"/>
<path d="M238.509 81.02L225.584 93.9451" stroke="#020202" stroke-width="2.56653" stroke-miterlimit="10"/>
<path d="M238.509 90.564L225.584 103.489" stroke="#020202" stroke-width="2.56653" stroke-miterlimit="10"/>
<path d="M238.508 60.969L251.433 73.8941" stroke="#020202" stroke-width="2.56653" stroke-miterlimit="10"/>
<path d="M238.508 40.0712L251.433 52.9358" stroke="#020202" stroke-width="2.56653" stroke-miterlimit="10"/>
<path d="M238.508 70.5111L251.433 83.4362" stroke="#020202" stroke-width="2.56653" stroke-miterlimit="10"/>
<path d="M238.508 101.011L251.433 113.936" stroke="#020202" stroke-width="2.56653" stroke-miterlimit="10"/>
<path d="M238.508 110.617L251.433 123.542" stroke="#020202" stroke-width="2.56653" stroke-miterlimit="10"/>
<path d="M96.7559 192.395H137.343" stroke="#020202" stroke-width="1.5" stroke-miterlimit="10"/>
<path d="M219.482 172.583H260.07" stroke="#020202" stroke-width="2" stroke-miterlimit="10"/>
<path d="M309.719 164.066H294.922" stroke="#020202" stroke-width="2" stroke-miterlimit="10"/>
<path d="M96.7559 198.978H137.343" stroke="#020202" stroke-width="1.5" stroke-miterlimit="10"/>
<path d="M96.7559 206.165H137.343" stroke="#020202" stroke-width="1.5" stroke-miterlimit="10"/>
<path d="M180.164 213.292V168.295L257.835 133.748L316.542 160.867" stroke="#020202" stroke-width="2" stroke-miterlimit="10"/>
<path d="M180.164 168.295H191.942V213.291" stroke="#020202" stroke-width="2.56653" stroke-miterlimit="10"/>
<path d="M191.943 168.294L264.722 136.948" stroke="#020202" stroke-width="2" stroke-miterlimit="10"/>
<path d="M334.725 168.295V213.291" stroke="#020202" stroke-width="2" stroke-miterlimit="10"/>
<path d="M211.985 213.323H226.602V187.232H211.985V213.323Z" stroke="#020202" stroke-width="2" stroke-miterlimit="10"/>
<path d="M215.92 187.199H211.934V213.291H215.92V187.199Z" fill="#020202" stroke="#020202" stroke-width="2" stroke-miterlimit="10"/>
<path d="M263.271 164.066H259.285V172.522H263.271V164.066Z" fill="#020202" stroke="#020202" stroke-width="2" stroke-miterlimit="10"/>
<path d="M259.237 172.568H294.871V164.112H259.237V172.568Z" stroke="#020202" stroke-width="2" stroke-miterlimit="10"/>
<path d="M312.555 207.252C312.555 207.252 307.723 209.245 303.495 209.245C297.214 209.245 287.067 204.111 280.001 206.527C273.357 208.822 265.264 210.332 265.264 210.332V189.133H312.555V207.252Z" fill="url(#paint2_linear_1_33514)"/>
<path d="M263.271 187.199H259.285V213.291H263.271V187.199Z" fill="#020202" stroke="#020202" stroke-width="2" stroke-miterlimit="10"/>
<path d="M259.233 213.323H298.975V187.232H259.233V213.323Z" stroke="#020202" stroke-width="2" stroke-miterlimit="10"/>
<path d="M299.019 213.323H314.783V187.232H299.019V213.323Z" stroke="#020202" stroke-width="2" stroke-miterlimit="10"/>
<path d="M278.779 213.323H286.691V187.232H278.779V213.323Z" stroke="#020202" stroke-width="2" stroke-miterlimit="10"/>
<path d="M224.918 188.709H217.912V210.392H224.918V188.709Z" fill="url(#paint3_linear_1_33514)"/>
<path d="M357.493 107.778H350.789V144.742H357.493V107.778Z" fill="#020202"/>
<path d="M293.472 165.698H264.723V170.59H293.472V165.698Z" fill="url(#paint4_linear_1_33514)"/>
<path d="M191.942 168.295H180.164V213.291H191.942V168.295Z" fill="#020202"/>
<path d="M350.789 146.252L406.778 154.647H423.326L377.183 127.891L357.493 126.924L350.789 146.252Z" fill="#020202"/>
<path d="M12.4453 144.559C63.9644 144.921 107.571 134.835 107.571 134.835" stroke="url(#paint5_linear_1_33514)" stroke-miterlimit="10"/>
<path d="M226.552 205.38H216.586" stroke="#020202" stroke-width="2" stroke-miterlimit="10"/>
<path d="M376.052 212.667H341.965L341.965 165.456L384.195 165.456L376.052 212.667Z" fill="#020202"/>
<path d="M369.514 211.539V168.295" stroke="#FFBF39" stroke-width="2" stroke-miterlimit="10"/>
<path d="M350.848 211.539V168.295" stroke="#FFBF39" stroke-width="2" stroke-miterlimit="10"/>
<path d="M388.293 211.539V168.295" stroke="#FFBF39" stroke-width="2.56653" stroke-miterlimit="10"/>
<path d="M309.717 68.941C309.717 68.941 397.474 78.5442 449.295 72.2025" stroke="url(#paint6_linear_1_33514)" stroke-miterlimit="10"/>
<path d="M496.95 257.001H369.209L396.569 101.719H524.31L496.95 257.001Z" fill="white" stroke="#020202" stroke-width="2" stroke-miterlimit="10"/>
<path d="M504.199 257.001H496.951L524.311 101.719H531.619L504.199 257.001Z" stroke="#020202" stroke-width="2" stroke-miterlimit="10"/>
<path d="M413.664 111.02C408.349 111.02 404.786 106.732 405.752 101.357C406.718 95.9815 411.792 91.6932 417.107 91.6932C422.422 91.6932 425.985 95.9815 425.019 101.357" stroke="#020202" stroke-width="2" stroke-miterlimit="10"/>
<path d="M426.646 111.02C421.331 111.02 417.768 106.732 418.734 101.357C419.701 95.9815 424.774 91.6932 430.089 91.6932C435.404 91.6932 438.968 95.9815 438.001 101.357" stroke="#020202" stroke-width="2" stroke-miterlimit="10"/>
<path d="M439.451 111.02C434.136 111.02 430.573 106.732 431.539 101.357C432.505 95.9815 437.579 91.6932 442.894 91.6932C448.209 91.6932 451.772 95.9815 450.806 101.357" stroke="#020202" stroke-width="2" stroke-miterlimit="10"/>
<path d="M452.437 111.02C447.122 111.02 443.559 106.732 444.525 101.357C445.492 95.9815 450.565 91.6932 455.88 91.6932C461.195 91.6932 464.758 95.9815 463.792 101.357" stroke="#020202" stroke-width="2" stroke-miterlimit="10"/>
<path d="M465.24 111.02C459.925 111.02 456.362 106.732 457.328 101.357C458.294 96.0419 463.368 91.6932 468.683 91.6932C473.998 91.6932 477.561 95.9815 476.595 101.357" stroke="#020202" stroke-width="2" stroke-miterlimit="10"/>
<path d="M478.226 111.02C472.911 111.02 469.348 106.732 470.314 101.357C471.281 96.0419 476.354 91.6932 481.669 91.6932C486.984 91.6932 490.548 95.9815 489.581 101.357" stroke="#020202" stroke-width="2" stroke-miterlimit="10"/>
<path d="M491.031 111.02C485.716 111.02 482.153 106.732 483.119 101.357C484.085 95.9815 489.159 91.6932 494.474 91.6932C499.789 91.6932 503.352 95.9815 502.386 101.357" stroke="#020202" stroke-width="2" stroke-miterlimit="10"/>
<path d="M503.955 111.02C498.64 111.02 495.077 106.732 496.043 101.357C497.009 95.9815 502.083 91.6932 507.398 91.6932C512.713 91.6932 516.276 95.9815 515.31 101.357" stroke="#020202" stroke-width="2" stroke-miterlimit="10"/>
<path d="M446.522 201.739L408.23 234.293L393.01 215.811" stroke="#020202" stroke-width="2" stroke-miterlimit="10"/>
<path d="M475.027 201.739L436.735 234.293L430.756 226.924" stroke="#020202" stroke-width="2" stroke-miterlimit="10"/>
<defs>
<linearGradient id="paint0_linear_1_33514" x1="0" y1="94.7004" x2="495.605" y2="94.7004" gradientUnits="userSpaceOnUse">
<stop stop-color="white"/>
<stop offset="1" stop-color="white" stop-opacity="0"/>
</linearGradient>
<linearGradient id="paint1_linear_1_33514" x1="23.7883" y1="133.265" x2="321.862" y2="133.265" gradientUnits="userSpaceOnUse">
<stop stop-color="white" stop-opacity="0"/>
<stop offset="1" stop-color="white"/>
</linearGradient>
<linearGradient id="paint2_linear_1_33514" x1="270.088" y1="217.056" x2="300.818" y2="186.327" gradientUnits="userSpaceOnUse">
<stop stop-color="white" stop-opacity="0"/>
<stop offset="1" stop-color="white"/>
</linearGradient>
<linearGradient id="paint3_linear_1_33514" x1="213.846" y1="207.119" x2="226.718" y2="194.248" gradientUnits="userSpaceOnUse">
<stop stop-color="white" stop-opacity="0"/>
<stop offset="1" stop-color="white"/>
</linearGradient>
<linearGradient id="paint4_linear_1_33514" x1="270.241" y1="177.007" x2="285.333" y2="161.915" gradientUnits="userSpaceOnUse">
<stop stop-color="white" stop-opacity="0"/>
<stop offset="1" stop-color="white"/>
</linearGradient>
<linearGradient id="paint5_linear_1_33514" x1="60.0084" y1="134.835" x2="60.0084" y2="144.568" gradientUnits="userSpaceOnUse">
<stop offset="0.322917"/>
<stop offset="1" stop-color="#FFBF39" stop-opacity="0"/>
</linearGradient>
<linearGradient id="paint6_linear_1_33514" x1="309.998" y1="68.9996" x2="457.498" y2="73.9996" gradientUnits="userSpaceOnUse">
<stop offset="0.322917"/>
<stop offset="1" stop-color="#FFBF39" stop-opacity="0"/>
</linearGradient>
</defs>
</svg>
