<svg width="464" height="370" viewBox="0 0 464 370" fill="none" xmlns="http://www.w3.org/2000/svg">
<path d="M108.593 236H126.593V97H111.393C109.793 104.2 106.393 109.8 101.193 113.8C95.993 117.8 89.993 119.6 83.193 119.6H78.793V135.8H85.993C89.993 135.8 94.393 135 98.793 133.4C103.193 131.8 106.593 129.8 108.593 127V236ZM195.076 94C181.076 94 169.876 98.4 161.476 106.8C152.876 115.4 148.676 126.4 148.676 139.6C148.676 153.8 152.676 164.8 161.076 172.6C169.276 180.4 180.076 184.2 193.276 184.2C208.676 184.2 219.876 178.4 226.876 166.4C226.476 204.8 216.076 224 195.676 224C180.476 224 171.276 215.6 168.276 198.6L150.276 202.6C152.476 214.4 157.476 223.4 165.076 229.6C172.676 236 182.676 239 195.476 239C206.876 239 216.276 235.6 223.876 228.8C231.476 222 236.876 213.2 240.076 202.4C243.276 191.6 244.876 178.6 244.876 163.8C244.876 117.4 228.276 94 195.076 94ZM195.076 169.2C186.676 169.2 179.676 166.6 174.476 161.2C169.276 156 166.676 148.6 166.676 139.4C166.676 130.4 169.076 123 174.276 117.4C179.476 111.8 186.276 109 194.876 109C204.876 109 212.476 112.4 217.476 118.8C222.276 125.2 225.276 133.4 226.476 143C224.876 150.6 221.076 156.8 215.076 161.8C209.076 166.8 202.476 169.2 195.076 169.2ZM268.98 236H288.78V232.6C288.78 211.6 292.78 190.6 301.18 169.6C309.58 148.6 321.78 129 337.98 111V97H247.98V113.6H317.58C285.18 154 268.98 194.2 268.98 234V236ZM382.921 239C397.521 239 409.121 234.6 417.921 225.4C426.721 216.4 431.121 204.6 431.121 189.8C431.121 174.8 427.321 163 419.721 154.2C412.121 145.6 401.921 141.2 388.721 141.2C373.521 141.2 362.521 147.4 355.921 159.8L361.121 112.6H424.321V97H347.521L339.321 177.6L356.521 179.4C360.521 164 369.721 156.2 384.321 156.2C393.521 156.2 400.721 159.4 405.721 165.6C410.521 171.8 413.121 180.2 413.121 190.8C413.121 201.2 410.521 209.2 405.321 215C400.121 220.8 393.121 223.6 383.921 223.6C376.121 223.6 369.921 221.6 365.121 217.2C360.321 212.8 357.121 207 355.721 199.8L337.121 202C338.921 213.4 343.921 222.4 352.121 229C360.321 235.8 370.521 239 382.921 239Z" fill="url(#paint0_linear_1_33281)"/>
<path d="M103.093 239H101.593V240.5H103.093V239ZM103.093 130H104.593V125.319L101.872 129.128L103.093 130ZM93.293 136.4L92.7804 134.99L92.7804 134.99L93.293 136.4ZM73.293 138.8H71.793V140.3H73.293V138.8ZM73.293 122.6V121.1H71.793V122.6H73.293ZM95.693 116.8L96.6075 117.989L96.6075 117.989L95.693 116.8ZM105.893 100V98.5H104.69L104.429 99.6746L105.893 100ZM121.093 100H122.593V98.5H121.093V100ZM121.093 239V240.5H122.593V239H121.093ZM104.593 239V130H101.593V239H104.593ZM101.872 129.128C100.136 131.559 97.0802 133.427 92.7804 134.99L93.8056 137.81C98.3057 136.173 102.05 134.041 104.314 130.872L101.872 129.128ZM92.7804 134.99C88.5259 136.537 84.2993 137.3 80.493 137.3V140.3C84.6867 140.3 89.26 139.463 93.8056 137.81L92.7804 134.99ZM80.493 137.3H73.293V140.3H80.493V137.3ZM74.793 138.8V122.6H71.793V138.8H74.793ZM73.293 124.1H77.693V121.1H73.293V124.1ZM77.693 124.1C84.7777 124.1 91.111 122.217 96.6075 117.989L94.7784 115.611C89.875 119.383 84.2083 121.1 77.693 121.1V124.1ZM96.6075 117.989C102.121 113.748 105.691 107.823 107.357 100.325L104.429 99.6746C102.895 106.577 99.6648 111.852 94.7784 115.611L96.6075 117.989ZM105.893 101.5H121.093V98.5H105.893V101.5ZM119.593 100V239H122.593V100H119.593ZM121.093 237.5H103.093V240.5H121.093V237.5ZM234.576 205.4L233.138 204.974L233.138 204.974L234.576 205.4ZM218.376 231.8L217.376 230.682L217.376 230.682L218.376 231.8ZM159.576 232.6L160.542 231.453L160.533 231.445L160.524 231.438L159.576 232.6ZM144.776 205.6L144.45 204.136L143.036 204.45L143.301 205.875L144.776 205.6ZM162.776 201.6L164.253 201.339L163.981 199.796L162.45 200.136L162.776 201.6ZM221.376 169.4L222.876 169.416L222.935 163.751L220.08 168.644L221.376 169.4ZM155.576 175.6L156.61 174.513L156.603 174.507L156.596 174.501L155.576 175.6ZM155.976 109.8L154.915 108.739L155.976 109.8ZM220.976 146L222.444 146.309L222.495 146.063L222.464 145.814L220.976 146ZM211.976 121.8L213.176 120.9L213.167 120.888L213.158 120.877L211.976 121.8ZM168.776 120.4L167.677 119.379L167.677 119.379L168.776 120.4ZM168.976 164.2L170.056 163.16L170.046 163.149L170.036 163.139L168.976 164.2ZM189.576 98.5C205.778 98.5 217.733 104.182 225.704 115.37C233.742 126.652 237.876 143.734 237.876 166.8H240.876C240.876 143.466 236.71 125.648 228.147 113.63C219.519 101.518 206.574 95.5 189.576 95.5V98.5ZM237.876 166.8C237.876 181.5 236.286 194.349 233.138 204.974L236.014 205.826C239.266 194.851 240.876 181.7 240.876 166.8H237.876ZM233.138 204.974C230.008 215.536 224.747 224.087 217.376 230.682L219.376 232.918C227.205 225.913 232.743 216.864 236.014 205.826L233.138 204.974ZM217.376 230.682C210.081 237.209 201.05 240.5 189.976 240.5V243.5C201.702 243.5 211.471 239.991 219.376 232.918L217.376 230.682ZM189.976 240.5C177.41 240.5 167.793 237.559 160.542 231.453L158.61 233.747C166.559 240.441 176.941 243.5 189.976 243.5V240.5ZM160.524 231.438C153.25 225.504 148.399 216.848 146.25 205.325L143.301 205.875C145.553 217.952 150.701 227.296 158.628 233.762L160.524 231.438ZM145.101 207.064L163.101 203.064L162.45 200.136L144.45 204.136L145.101 207.064ZM161.299 201.861C162.835 210.564 165.991 217.259 170.883 221.777C175.795 226.313 182.289 228.5 190.176 228.5V225.5C182.863 225.5 177.156 223.487 172.918 219.573C168.661 215.641 165.717 209.636 164.253 201.339L161.299 201.861ZM190.176 228.5C195.521 228.5 200.278 227.239 204.394 224.673C208.506 222.11 211.896 218.297 214.595 213.314C219.969 203.393 222.675 188.7 222.876 169.416L219.876 169.384C219.677 188.5 216.983 202.607 211.957 211.886C209.456 216.503 206.396 219.89 202.807 222.127C199.224 224.361 195.031 225.5 190.176 225.5V228.5ZM220.08 168.644C213.39 180.113 202.729 185.7 187.776 185.7V188.7C203.622 188.7 215.362 182.687 222.671 170.156L220.08 168.644ZM187.776 185.7C174.879 185.7 164.477 181.996 156.61 174.513L154.542 176.687C163.075 184.803 174.273 188.7 187.776 188.7V185.7ZM156.596 174.501C148.584 167.06 144.676 156.509 144.676 142.6H141.676C141.676 157.091 145.768 168.54 154.555 176.699L156.596 174.501ZM144.676 142.6C144.676 129.748 148.751 119.146 157.036 110.861L154.915 108.739C146 117.654 141.676 129.052 141.676 142.6H144.676ZM157.036 110.861C165.116 102.781 175.915 98.5 189.576 98.5V95.5C175.236 95.5 163.635 100.019 154.915 108.739L157.036 110.861ZM189.576 173.7C197.339 173.7 204.276 171.169 210.536 165.952L208.616 163.648C202.876 168.431 196.613 170.7 189.576 170.7V173.7ZM210.536 165.952C216.788 160.742 220.772 154.248 222.444 146.309L219.508 145.691C217.979 152.952 214.364 158.858 208.616 163.648L210.536 165.952ZM222.464 145.814C221.24 136.018 218.167 127.555 213.176 120.9L210.776 122.7C215.385 128.845 218.312 136.782 219.487 146.186L222.464 145.814ZM213.158 120.877C207.819 114.043 199.741 110.5 189.376 110.5V113.5C199.011 113.5 206.133 116.757 210.794 122.723L213.158 120.877ZM189.376 110.5C180.411 110.5 173.194 113.438 167.677 119.379L169.875 121.421C174.758 116.162 181.141 113.5 189.376 113.5V110.5ZM167.677 119.379C162.155 125.325 159.676 133.127 159.676 142.4H162.676C162.676 133.673 164.996 126.675 169.875 121.421L167.677 119.379ZM159.676 142.4C159.676 151.882 162.361 159.707 167.915 165.261L170.036 163.139C165.19 158.293 162.676 151.318 162.676 142.4H159.676ZM167.895 165.24C173.429 170.987 180.848 173.7 189.576 173.7V170.7C181.503 170.7 174.922 168.213 170.056 163.16L167.895 165.24ZM263.48 239H261.98V240.5H263.48V239ZM312.08 116.6L313.251 117.538L315.206 115.1H312.08V116.6ZM242.48 116.6H240.98V118.1H242.48V116.6ZM242.48 100V98.5H240.98V100H242.48ZM332.48 100H333.98V98.5H332.48V100ZM332.48 114L333.595 115.003L333.98 114.576V114H332.48ZM295.68 172.6L294.288 172.043L294.288 172.043L295.68 172.6ZM283.28 239V240.5H284.78V239H283.28ZM264.98 239V237H261.98V239H264.98ZM264.98 237C264.98 197.631 281 157.752 313.251 117.538L310.91 115.662C278.361 156.248 261.98 196.769 261.98 237H264.98ZM312.08 115.1H242.48V118.1H312.08V115.1ZM243.98 116.6V100H240.98V116.6H243.98ZM242.48 101.5H332.48V98.5H242.48V101.5ZM330.98 100V114H333.98V100H330.98ZM331.366 112.997C315.052 131.123 302.756 150.873 294.288 172.043L297.073 173.157C305.405 152.327 317.509 132.877 333.595 115.003L331.366 112.997ZM294.288 172.043C285.819 193.215 281.78 214.404 281.78 235.6H284.78C284.78 214.796 288.742 193.985 297.073 173.157L294.288 172.043ZM281.78 235.6V239H284.78V235.6H281.78ZM283.28 237.5H263.48V240.5H283.28V237.5ZM346.621 232L347.579 230.845L347.57 230.838L347.562 230.831L346.621 232ZM331.621 205L331.445 203.51L329.896 203.694L330.139 205.234L331.621 205ZM350.221 202.8L351.694 202.514L351.428 201.147L350.045 201.31L350.221 202.8ZM399.821 218L400.938 219.001L400.938 219.001L399.821 218ZM400.221 168.6L401.407 167.682L401.398 167.67L401.389 167.658L400.221 168.6ZM351.021 182.4L350.865 183.892L352.148 184.026L352.473 182.777L351.021 182.4ZM333.821 180.6L332.329 180.448L332.177 181.936L333.665 182.092L333.821 180.6ZM342.021 100V98.5H340.666L340.529 99.8482L342.021 100ZM418.821 100H420.321V98.5H418.821V100ZM418.821 115.6V117.1H420.321V115.6H418.821ZM355.621 115.6V114.1H354.277L354.15 115.436L355.621 115.6ZM350.421 162.8L348.93 162.636L351.745 163.505L350.421 162.8ZM414.221 157.2L415.356 156.22L415.351 156.213L415.345 156.207L414.221 157.2ZM412.421 228.4L411.349 227.351L411.343 227.357L411.337 227.363L412.421 228.4ZM377.421 240.5C365.293 240.5 355.455 237.377 347.579 230.845L345.664 233.155C354.187 240.223 364.749 243.5 377.421 243.5V240.5ZM347.562 230.831C339.681 224.488 334.851 215.837 333.103 204.766L330.139 205.234C331.991 216.963 337.161 226.312 345.681 233.169L347.562 230.831ZM331.797 206.49L350.397 204.29L350.045 201.31L331.445 203.51L331.797 206.49ZM348.749 203.086C350.205 210.574 353.551 216.671 358.608 221.306L360.635 219.094C356.091 214.929 353.038 209.426 351.694 202.514L348.749 203.086ZM358.608 221.306C363.754 226.023 370.352 228.1 378.421 228.1V225.1C370.89 225.1 365.088 223.177 360.635 219.094L358.608 221.306ZM378.421 228.1C387.96 228.1 395.4 225.178 400.938 219.001L398.704 216.999C393.842 222.422 387.282 225.1 378.421 225.1V228.1ZM400.938 219.001C406.455 212.847 409.121 204.448 409.121 193.8H406.121C406.121 203.952 403.587 211.553 398.704 216.999L400.938 219.001ZM409.121 193.8C409.121 182.957 406.46 174.208 401.407 167.682L399.035 169.518C403.583 175.392 406.121 183.443 406.121 193.8H409.121ZM401.389 167.658C396.062 161.053 388.404 157.7 378.821 157.7V160.7C387.639 160.7 394.38 163.747 399.053 169.542L401.389 167.658ZM378.821 157.7C371.243 157.7 364.93 159.731 359.983 163.875C355.051 168.007 351.622 174.119 349.569 182.023L352.473 182.777C354.42 175.281 357.591 169.793 361.909 166.175C366.213 162.569 371.799 160.7 378.821 160.7V157.7ZM351.177 180.908L333.977 179.108L333.665 182.092L350.865 183.892L351.177 180.908ZM335.313 180.752L343.513 100.152L340.529 99.8482L332.329 180.448L335.313 180.752ZM342.021 101.5H418.821V98.5H342.021V101.5ZM417.321 100V115.6H420.321V100H417.321ZM418.821 114.1H355.621V117.1H418.821V114.1ZM354.15 115.436L348.93 162.636L351.912 162.964L357.112 115.764L354.15 115.436ZM351.745 163.505C354.927 157.528 359.135 153.1 364.335 150.155C369.542 147.207 375.826 145.7 383.221 145.7V142.7C375.416 142.7 368.6 144.293 362.857 147.545C357.107 150.8 352.516 155.672 349.097 162.095L351.745 163.505ZM383.221 145.7C396.045 145.7 405.816 149.954 413.097 158.193L415.345 156.207C407.427 147.246 396.797 142.7 383.221 142.7V145.7ZM413.086 158.18C420.391 166.638 424.121 178.056 424.121 192.8H427.121C427.121 177.544 423.252 165.361 415.356 156.22L413.086 158.18ZM424.121 192.8C424.121 207.279 419.829 218.678 411.349 227.351L413.494 229.449C422.613 220.122 427.121 207.921 427.121 192.8H424.121ZM411.337 227.363C402.871 236.214 391.691 240.5 377.421 240.5V243.5C392.351 243.5 404.371 238.986 413.505 229.437L411.337 227.363Z" fill="#1E1E1E"/>
<path d="M106.218 293H108.522V286.208L114.306 275.96H111.762L107.85 283.184C107.61 283.64 107.442 283.976 107.394 284.168H107.346C107.274 283.976 107.15 283.64 106.89 283.184L102.978 275.96H100.434L106.218 286.208V293ZM124.144 286.16C124.144 284.384 123.688 283.04 122.8 282.104C121.912 281.192 120.664 280.712 119.032 280.712C117.304 280.712 115.984 281.288 115.024 282.416C114.064 283.568 113.584 285.128 113.584 287.144C113.584 289.112 114.064 290.648 115.024 291.704C115.984 292.76 117.328 293.288 119.056 293.288C121.552 293.288 123.208 292.184 124.072 289.952L122.392 289.208C121.84 290.744 120.784 291.488 119.2 291.488C118.12 291.488 117.256 291.152 116.608 290.432C115.96 289.712 115.624 288.776 115.624 287.6H124.144V286.16ZM122.08 285.944H115.624C115.648 284.816 115.96 283.928 116.536 283.28C117.112 282.656 117.928 282.32 118.984 282.32C119.968 282.32 120.736 282.608 121.264 283.184C121.792 283.76 122.08 284.6 122.08 285.68V285.944ZM130.366 293.288C131.326 293.288 132.19 293.072 132.91 292.64C133.63 292.208 134.11 291.584 134.398 290.816C134.422 291.608 134.494 292.328 134.59 293H136.726C136.438 292.136 136.318 290.768 136.318 288.944V285.704C136.318 283.976 135.934 282.704 135.19 281.912C134.422 281.12 133.222 280.712 131.59 280.712C130.174 280.712 129.022 281.096 128.134 281.816C127.246 282.56 126.766 283.544 126.694 284.768H128.878C128.926 284.024 129.19 283.448 129.67 283.016C130.15 282.608 130.798 282.392 131.614 282.392C132.526 282.392 133.198 282.632 133.63 283.112C134.038 283.592 134.254 284.384 134.254 285.488V285.68L132.022 285.944C130.198 286.184 128.854 286.496 127.99 286.928C126.862 287.552 126.31 288.512 126.31 289.76C126.31 290.84 126.67 291.704 127.414 292.328C128.134 292.976 129.118 293.288 130.366 293.288ZM130.822 291.608C130.078 291.608 129.502 291.44 129.094 291.104C128.662 290.768 128.47 290.312 128.47 289.712C128.47 289.136 128.662 288.68 129.07 288.344C129.478 288.008 130.126 287.792 131.014 287.648L134.278 287.168V287.768C134.278 288.944 133.942 289.88 133.318 290.576C132.694 291.272 131.854 291.608 130.822 291.608ZM142.224 283.736V281H140.328V293H142.368V287.864C142.368 287.24 142.368 286.736 142.416 286.352C142.44 285.968 142.56 285.512 142.752 284.984C142.944 284.456 143.208 284.024 143.568 283.664C144.192 283.04 145.056 282.728 146.208 282.728H146.304V280.736C146.208 280.736 146.064 280.712 145.872 280.712C145.008 280.712 144.24 281 143.616 281.552C142.992 282.128 142.512 282.848 142.224 283.736ZM159.699 293.288C161.379 293.288 162.747 292.736 163.755 291.608C164.763 290.48 165.291 288.944 165.291 287C165.291 285.08 164.763 283.544 163.755 282.416C162.747 281.288 161.379 280.712 159.699 280.712C157.995 280.712 156.627 281.288 155.619 282.416C154.611 283.544 154.107 285.08 154.107 287C154.107 288.944 154.611 290.48 155.619 291.608C156.627 292.736 157.995 293.288 159.699 293.288ZM159.699 291.512C158.595 291.512 157.755 291.128 157.155 290.36C156.555 289.592 156.267 288.488 156.267 287C156.267 285.536 156.555 284.408 157.155 283.64C157.755 282.872 158.595 282.488 159.699 282.488C160.779 282.488 161.619 282.872 162.219 283.64C162.819 284.408 163.131 285.536 163.131 287C163.131 288.488 162.819 289.592 162.219 290.36C161.619 291.128 160.779 291.512 159.699 291.512ZM174.091 281H171.091V279.392C171.091 278.672 171.211 278.12 171.499 277.784C171.763 277.448 172.195 277.256 172.819 277.256C173.179 277.256 173.611 277.304 174.091 277.376V275.624C173.659 275.528 173.131 275.456 172.555 275.456C171.499 275.456 170.635 275.792 170.011 276.464C169.363 277.136 169.051 278 169.051 279.104V281H166.843V282.68H169.051V293H171.091V282.68H174.091V281ZM187.518 293.288C188.862 293.288 189.942 292.928 190.806 292.16C191.67 291.416 192.198 290.36 192.438 288.968L190.494 288.656C190.158 290.576 189.174 291.512 187.542 291.512C186.462 291.512 185.622 291.128 185.046 290.336C184.446 289.544 184.158 288.416 184.158 286.976C184.158 285.584 184.446 284.48 185.022 283.688C185.598 282.896 186.414 282.488 187.47 282.488C188.286 282.488 188.934 282.752 189.438 283.232C189.942 283.712 190.254 284.408 190.374 285.32L192.462 285.08C192.294 283.712 191.79 282.632 190.926 281.864C190.062 281.096 188.91 280.712 187.518 280.712C185.79 280.712 184.446 281.288 183.462 282.392C182.478 283.52 181.998 285.056 181.998 287C181.998 288.92 182.478 290.456 183.486 291.584C184.494 292.736 185.838 293.288 187.518 293.288ZM200.223 293.288C201.903 293.288 203.271 292.736 204.279 291.608C205.287 290.48 205.815 288.944 205.815 287C205.815 285.08 205.287 283.544 204.279 282.416C203.271 281.288 201.903 280.712 200.223 280.712C198.519 280.712 197.151 281.288 196.143 282.416C195.135 283.544 194.631 285.08 194.631 287C194.631 288.944 195.135 290.48 196.143 291.608C197.151 292.736 198.519 293.288 200.223 293.288ZM200.223 291.512C199.119 291.512 198.279 291.128 197.679 290.36C197.079 289.592 196.791 288.488 196.791 287C196.791 285.536 197.079 284.408 197.679 283.64C198.279 282.872 199.119 282.488 200.223 282.488C201.303 282.488 202.143 282.872 202.743 283.64C203.343 284.408 203.655 285.536 203.655 287C203.655 288.488 203.343 289.592 202.743 290.36C202.143 291.128 201.303 291.512 200.223 291.512ZM209.047 281V293H211.087V285.992C211.087 284.912 211.327 284.048 211.807 283.424C212.287 282.8 212.959 282.464 213.799 282.464C214.519 282.464 215.071 282.704 215.455 283.184C215.839 283.664 216.055 284.336 216.055 285.2V293H218.095V285.896C218.095 284.816 218.311 283.976 218.791 283.376C219.271 282.776 219.919 282.464 220.783 282.464C222.295 282.464 223.063 283.424 223.063 285.296V293H225.103V285.128C225.103 283.736 224.767 282.632 224.143 281.84C223.495 281.072 222.607 280.664 221.455 280.664C219.799 280.664 218.575 281.48 217.807 283.112C217.231 281.48 216.079 280.664 214.399 280.664C212.767 280.664 211.639 281.48 210.967 283.088V281H209.047ZM229.062 297.68H231.102V291.104C231.39 291.728 231.846 292.256 232.494 292.664C233.118 293.096 233.886 293.288 234.774 293.288C236.238 293.288 237.438 292.736 238.35 291.584C239.262 290.432 239.742 288.92 239.742 287C239.742 285.128 239.286 283.592 238.398 282.44C237.51 281.288 236.334 280.712 234.894 280.712C233.07 280.712 231.75 281.552 230.982 283.232V281H229.062V297.68ZM234.294 291.488C233.286 291.488 232.494 291.128 231.918 290.36C231.342 289.592 231.054 288.56 231.054 287.264V286.688C231.054 285.392 231.342 284.384 231.942 283.64C232.542 282.896 233.358 282.512 234.366 282.512C235.374 282.512 236.142 282.92 236.718 283.712C237.294 284.504 237.582 285.608 237.582 287C237.582 288.416 237.27 289.52 236.694 290.312C236.118 291.104 235.302 291.488 234.294 291.488ZM245.843 293.288C246.803 293.288 247.667 293.072 248.387 292.64C249.107 292.208 249.587 291.584 249.875 290.816C249.899 291.608 249.971 292.328 250.067 293H252.203C251.915 292.136 251.795 290.768 251.795 288.944V285.704C251.795 283.976 251.411 282.704 250.667 281.912C249.899 281.12 248.699 280.712 247.067 280.712C245.651 280.712 244.499 281.096 243.611 281.816C242.723 282.56 242.243 283.544 242.171 284.768H244.355C244.403 284.024 244.667 283.448 245.147 283.016C245.627 282.608 246.275 282.392 247.091 282.392C248.003 282.392 248.675 282.632 249.107 283.112C249.515 283.592 249.731 284.384 249.731 285.488V285.68L247.499 285.944C245.675 286.184 244.331 286.496 243.467 286.928C242.339 287.552 241.787 288.512 241.787 289.76C241.787 290.84 242.147 291.704 242.891 292.328C243.611 292.976 244.595 293.288 245.843 293.288ZM246.299 291.608C245.555 291.608 244.979 291.44 244.571 291.104C244.139 290.768 243.947 290.312 243.947 289.712C243.947 289.136 244.139 288.68 244.547 288.344C244.955 288.008 245.603 287.792 246.491 287.648L249.755 287.168V287.768C249.755 288.944 249.419 289.88 248.795 290.576C248.171 291.272 247.331 291.608 246.299 291.608ZM255.805 293H257.845V286.736C257.845 285.416 258.133 284.384 258.709 283.616C259.285 282.848 260.053 282.464 261.061 282.464C262.813 282.464 263.701 283.544 263.701 285.656V293H265.741V285.536C265.741 282.296 264.397 280.664 261.733 280.664C259.837 280.664 258.493 281.576 257.725 283.376V281H255.805V293ZM269.142 297.824C270.198 297.824 271.086 297.536 271.806 296.912C272.526 296.288 273.174 295.256 273.702 293.768L278.382 281H276.174L273.39 289.352C273.174 290.024 273.03 290.48 272.982 290.768H272.934C272.838 290.312 272.694 289.832 272.526 289.352L269.454 281H267.174L271.95 292.856L271.638 293.744C271.35 294.56 271.014 295.136 270.606 295.472C270.174 295.808 269.622 295.976 268.902 295.976C268.734 295.976 268.446 295.976 268.038 295.928V297.728C268.374 297.8 268.734 297.824 269.142 297.824ZM292.591 281H289.591V279.392C289.591 278.672 289.711 278.12 289.999 277.784C290.263 277.448 290.695 277.256 291.319 277.256C291.679 277.256 292.111 277.304 292.591 277.376V275.624C292.159 275.528 291.631 275.456 291.055 275.456C289.999 275.456 289.135 275.792 288.511 276.464C287.863 277.136 287.551 278 287.551 279.104V281H285.343V282.68H287.551V293H289.591V282.68H292.591V281ZM299.504 293.288C301.184 293.288 302.552 292.736 303.56 291.608C304.568 290.48 305.096 288.944 305.096 287C305.096 285.08 304.568 283.544 303.56 282.416C302.552 281.288 301.184 280.712 299.504 280.712C297.8 280.712 296.432 281.288 295.424 282.416C294.416 283.544 293.912 285.08 293.912 287C293.912 288.944 294.416 290.48 295.424 291.608C296.432 292.736 297.8 293.288 299.504 293.288ZM299.504 291.512C298.4 291.512 297.56 291.128 296.96 290.36C296.36 289.592 296.072 288.488 296.072 287C296.072 285.536 296.36 284.408 296.96 283.64C297.56 282.872 298.4 282.488 299.504 282.488C300.584 282.488 301.424 282.872 302.024 283.64C302.624 284.408 302.936 285.536 302.936 287C302.936 288.488 302.624 289.592 302.024 290.36C301.424 291.128 300.584 291.512 299.504 291.512ZM312.072 293.288C312.888 293.288 313.656 293.048 314.352 292.568C315.024 292.088 315.504 291.488 315.792 290.744V293H317.712V281H315.672V287.456C315.672 288.68 315.36 289.664 314.784 290.408C314.184 291.176 313.416 291.536 312.456 291.536C311.664 291.536 311.064 291.272 310.632 290.744C310.2 290.216 310.008 289.424 310.008 288.416V281H307.968V288.656C307.968 291.752 309.336 293.288 312.072 293.288ZM322.039 293H324.079V286.736C324.079 285.416 324.367 284.384 324.943 283.616C325.519 282.848 326.287 282.464 327.295 282.464C329.047 282.464 329.935 283.544 329.935 285.656V293H331.975V285.536C331.975 282.296 330.631 280.664 327.967 280.664C326.071 280.664 324.727 281.576 323.959 283.376V281H322.039V293ZM339.729 293.288C341.553 293.288 342.849 292.448 343.617 290.768V293H345.537V275.6H343.497V282.776C342.729 281.408 341.553 280.712 339.969 280.712C338.457 280.712 337.233 281.312 336.273 282.488C335.313 283.664 334.857 285.176 334.857 287C334.857 288.896 335.289 290.408 336.201 291.56C337.089 292.712 338.265 293.288 339.729 293.288ZM340.281 291.488C339.249 291.488 338.457 291.104 337.881 290.312C337.305 289.52 337.017 288.416 337.017 287C337.017 285.608 337.305 284.504 337.881 283.712C338.457 282.92 339.249 282.512 340.281 282.512C341.289 282.512 342.081 282.896 342.657 283.64C343.233 284.408 343.545 285.44 343.545 286.736V287.288C343.545 288.584 343.233 289.592 342.657 290.36C342.057 291.128 341.265 291.488 340.281 291.488ZM352.952 293.288C353.912 293.288 354.776 293.072 355.496 292.64C356.216 292.208 356.696 291.584 356.984 290.816C357.008 291.608 357.08 292.328 357.176 293H359.312C359.024 292.136 358.904 290.768 358.904 288.944V285.704C358.904 283.976 358.52 282.704 357.776 281.912C357.008 281.12 355.808 280.712 354.176 280.712C352.76 280.712 351.608 281.096 350.72 281.816C349.832 282.56 349.352 283.544 349.28 284.768H351.464C351.512 284.024 351.776 283.448 352.256 283.016C352.736 282.608 353.384 282.392 354.2 282.392C355.112 282.392 355.784 282.632 356.216 283.112C356.624 283.592 356.84 284.384 356.84 285.488V285.68L354.608 285.944C352.784 286.184 351.44 286.496 350.576 286.928C349.448 287.552 348.896 288.512 348.896 289.76C348.896 290.84 349.256 291.704 350 292.328C350.72 292.976 351.704 293.288 352.952 293.288ZM353.408 291.608C352.664 291.608 352.088 291.44 351.68 291.104C351.248 290.768 351.056 290.312 351.056 289.712C351.056 289.136 351.248 288.68 351.656 288.344C352.064 288.008 352.712 287.792 353.6 287.648L356.864 287.168V287.768C356.864 288.944 356.528 289.88 355.904 290.576C355.28 291.272 354.44 291.608 353.408 291.608ZM360.88 282.68H363.112V289.4C363.112 290.648 363.352 291.584 363.832 292.232C364.312 292.904 365.152 293.216 366.376 293.216C367.024 293.216 367.624 293.144 368.152 293V291.128C367.672 291.248 367.24 291.296 366.904 291.296C366.28 291.296 365.848 291.152 365.56 290.84C365.272 290.528 365.152 290.024 365.152 289.328V282.68H368.152V281H365.152V276.992L363.112 277.856V281H360.88V282.68ZM370.996 278.768H373.324V276.2H370.996V278.768ZM371.14 293H373.18V281H371.14V293ZM382.004 293.288C383.684 293.288 385.052 292.736 386.06 291.608C387.068 290.48 387.596 288.944 387.596 287C387.596 285.08 387.068 283.544 386.06 282.416C385.052 281.288 383.684 280.712 382.004 280.712C380.3 280.712 378.932 281.288 377.924 282.416C376.916 283.544 376.412 285.08 376.412 287C376.412 288.944 376.916 290.48 377.924 291.608C378.932 292.736 380.3 293.288 382.004 293.288ZM382.004 291.512C380.9 291.512 380.06 291.128 379.46 290.36C378.86 289.592 378.572 288.488 378.572 287C378.572 285.536 378.86 284.408 379.46 283.64C380.06 282.872 380.9 282.488 382.004 282.488C383.084 282.488 383.924 282.872 384.524 283.64C385.124 284.408 385.436 285.536 385.436 287C385.436 288.488 385.124 289.592 384.524 290.36C383.924 291.128 383.084 291.512 382.004 291.512ZM390.828 293H392.868V286.736C392.868 285.416 393.156 284.384 393.732 283.616C394.308 282.848 395.076 282.464 396.084 282.464C397.836 282.464 398.724 283.544 398.724 285.656V293H400.764V285.536C400.764 282.296 399.42 280.664 396.756 280.664C394.86 280.664 393.516 281.576 392.748 283.376V281H390.828V293Z" fill="#1E1E1E"/>
<circle cx="185" cy="185" r="184.25" transform="matrix(-1 0 0 1 370 0)" stroke="url(#paint1_radial_1_33281)" stroke-width="1.5"/>
<circle cx="64.5" cy="47.5" r="7.5" fill="#1E1E1E"/>
<circle cx="16.5" cy="110.5" r="4.5" fill="#60582D"/>
<defs>
<linearGradient id="paint0_linear_1_33281" x1="255.5" y1="87.9755" x2="255.5" y2="320.158" gradientUnits="userSpaceOnUse">
<stop offset="0.289541" stop-color="white"/>
<stop offset="1" stop-color="#FFBF39" stop-opacity="0"/>
</linearGradient>
<radialGradient id="paint1_radial_1_33281" cx="0" cy="0" r="1" gradientUnits="userSpaceOnUse" gradientTransform="translate(370 47.5) rotate(130.562) scale(392.915 349.411)">
<stop stop-color="#1E1E1E"/>
<stop offset="1" stop-color="#FFBF39" stop-opacity="0"/>
</radialGradient>
</defs>
</svg>
