<svg width="531" height="259" viewBox="0 0 531 259" fill="none" xmlns="http://www.w3.org/2000/svg">
<path d="M280.733 198.142V177.595L270.748 146.808C270.684 146.616 270.62 146.424 270.556 146.296C269.404 143.416 266.588 141.496 263.451 141.496H191.38V205.95H283.23L283.358 198.206L280.733 198.142Z" fill="url(#paint0_linear_1_32934)"/>
<path d="M495.539 0.876953C410.014 24.7089 338.669 15.58 285.284 15.58C234.856 15.58 205.288 70.1915 52.6344 70.1915C34.237 70.1915 18.0846 62.3552 8.72168 50.4797C8.72168 50.4797 107.881 61.7897 128.14 61.7897C198.444 61.7897 196.145 29.96 280.028 41.9971C426.659 63.0823 495.32 14.2067 495.32 14.2067" fill="url(#paint1_linear_1_32934)"/>
<path d="M0 218.75H290.143" stroke="#020202" stroke-width="2.81041" stroke-miterlimit="10"/>
<path d="M129.87 205.95H193.941" stroke="#020202" stroke-width="2.81041" stroke-miterlimit="10"/>
<path d="M254.106 205.95C254.106 212.991 258.331 218.752 263.579 218.752H266.652C271.9 218.752 276.125 212.991 276.125 205.95H254.106Z" fill="#020202" stroke="#020202" stroke-width="2.81041" stroke-miterlimit="10"/>
<path d="M170.833 205.95C170.833 212.991 175.057 218.752 180.306 218.752H183.378C188.627 218.752 192.851 212.991 192.851 205.95H170.833Z" fill="#020202" stroke="#020202" stroke-width="2.81041" stroke-miterlimit="10"/>
<path d="M146.317 205.95C146.317 212.991 150.542 218.752 155.79 218.752H158.863C164.111 218.752 168.336 212.991 168.336 205.95H146.317Z" fill="#020202" stroke="#020202" stroke-width="2.81041" stroke-miterlimit="10"/>
<path d="M203.095 205.95C203.095 212.991 207.319 218.752 212.568 218.752H216.984C222.233 218.752 226.457 212.991 226.457 205.95H203.095Z" fill="#020202" stroke="#020202" stroke-width="2.81041" stroke-miterlimit="10"/>
<path d="M193.942 134.902V124.469C193.942 124.469 211.096 124.021 216.345 141.495" stroke="#020202" stroke-width="2" stroke-miterlimit="10"/>
<path d="M193.942 124.469H242.716C242.716 124.469 259.869 124.021 265.118 141.495" stroke="#020202" stroke-width="2" stroke-miterlimit="10"/>
<path d="M283.376 197.5L283.439 176.845L273.388 146.275C273.324 146.084 273.26 145.894 273.196 145.767C272.043 142.907 269.226 141 266.089 141H194V205H285.872L286 197.5H283.376Z" stroke="#020202" stroke-width="2" stroke-miterlimit="10"/>
<path d="M186.836 205.95V115.189H252.379V126.646" stroke="#020202" stroke-width="2" stroke-miterlimit="10"/>
<path d="M186.836 115.189H24.4512" stroke="#020202" stroke-width="2" stroke-miterlimit="10"/>
<path d="M211.799 218.751C217.031 218.751 221.272 213.02 221.272 205.95C221.272 198.88 217.031 193.148 211.799 193.148C206.567 193.148 202.326 198.88 202.326 205.95C202.326 213.02 206.567 218.751 211.799 218.751Z" fill="white" stroke="#020202" stroke-width="2" stroke-miterlimit="10"/>
<path d="M211.799 212.799C214.309 212.799 216.344 209.733 216.344 205.95C216.344 202.168 214.309 199.102 211.799 199.102C209.29 199.102 207.255 202.168 207.255 205.95C207.255 209.733 209.29 212.799 211.799 212.799Z" fill="white" stroke="#020202" stroke-width="2" stroke-miterlimit="10"/>
<path d="M106.508 205.95C106.508 212.991 110.732 218.752 115.981 218.752H120.397C125.646 218.752 129.87 212.991 129.87 205.95H106.508Z" fill="#020202" stroke="#020202" stroke-width="2.81041" stroke-miterlimit="10"/>
<path d="M115.148 218.751C120.38 218.751 124.621 213.02 124.621 205.95C124.621 198.88 120.38 193.148 115.148 193.148C109.916 193.148 105.675 198.88 105.675 205.95C105.675 213.02 109.916 218.751 115.148 218.751Z" fill="white" stroke="#020202" stroke-width="2" stroke-miterlimit="10"/>
<path d="M115.148 212.799C117.658 212.799 119.692 209.733 119.692 205.95C119.692 202.168 117.658 199.102 115.148 199.102C112.638 199.102 110.604 202.168 110.604 205.95C110.604 209.733 112.638 212.799 115.148 212.799Z" fill="white" stroke="#020202" stroke-width="2" stroke-miterlimit="10"/>
<path d="M80.0713 205.95C80.0713 212.991 84.2957 218.752 89.5443 218.752H93.9608C99.2093 218.752 103.434 212.991 103.434 205.95H80.0713Z" fill="#020202" stroke="#020202" stroke-width="2.81041" stroke-miterlimit="10"/>
<path d="M88.7757 218.751C94.0075 218.751 98.2487 213.02 98.2487 205.95C98.2487 198.88 94.0075 193.148 88.7757 193.148C83.5439 193.148 79.3027 198.88 79.3027 205.95C79.3027 213.02 83.5439 218.751 88.7757 218.751Z" fill="white" stroke="#020202" stroke-width="2" stroke-miterlimit="10"/>
<path d="M93.32 205.95C93.32 208.511 92.4239 210.687 91.0157 211.903C90.3116 212.479 89.5436 212.799 88.7115 212.799C86.2152 212.799 84.167 209.727 84.167 205.95C84.167 202.174 86.2152 199.102 88.7115 199.102C89.5436 199.102 90.3116 199.422 91.0157 199.998C92.4239 201.15 93.32 203.39 93.32 205.95Z" fill="white" stroke="#020202" stroke-width="2" stroke-miterlimit="10"/>
<path d="M93.3204 205.949C93.3204 208.51 92.4243 210.686 91.0162 211.902C89.672 210.75 88.7119 208.51 88.7119 205.949C88.7119 203.389 89.608 201.149 91.0162 199.997C92.4243 201.149 93.3204 203.389 93.3204 205.949Z" fill="#020202"/>
<path d="M118.924 205.949C118.924 208.51 118.028 210.686 116.62 211.902C115.276 210.75 114.315 208.51 114.315 205.949C114.315 203.389 115.212 201.149 116.62 199.997C118.028 201.149 118.924 203.389 118.924 205.949Z" fill="#020202"/>
<path d="M215.895 205.949C215.895 208.51 214.999 210.686 213.59 211.902C212.246 210.75 211.286 208.51 211.286 205.949C211.286 203.389 212.182 201.149 213.59 199.997C214.999 201.149 215.895 203.389 215.895 205.949Z" fill="#020202"/>
<path d="M175.313 198.141H123.147" stroke="#020202" stroke-width="2" stroke-miterlimit="10"/>
<path d="M103.497 124.47H17.8564" stroke="#020202" stroke-width="2" stroke-miterlimit="10"/>
<path d="M166.291 165.178H40.5176" stroke="#020202" stroke-width="2" stroke-miterlimit="10"/>
<path d="M74.1831 205.95H56.3252" stroke="#020202" stroke-width="2" stroke-miterlimit="10"/>
<path d="M283.358 177.659H233.177L208.918 170.619C207.254 170.171 206.038 168.762 205.718 167.034L202.262 146.232H273.117C273.181 146.424 273.245 146.552 273.309 146.744L283.358 177.659Z" fill="#020202"/>
<path d="M282.715 198.48H228.438C225.941 198.48 223.957 196.496 223.957 194H282.715V198.48Z" fill="#020202"/>
<path d="M221.464 141.496L233.177 177.659V198.142" stroke="#020202" stroke-width="2" stroke-miterlimit="10"/>
<path d="M276.124 157.112H364.645V198.205H285.917" stroke="#020202" stroke-width="2" stroke-miterlimit="10"/>
<path d="M476 171H365V198H476V171Z" stroke="#020202" stroke-width="2" stroke-miterlimit="10"/>
<path d="M476 171H366V175H476V171Z" fill="#020202" stroke="#020202" stroke-width="2" stroke-miterlimit="10"/>
<path d="M339.619 186.492H330.274V198.205H339.619V186.492Z" fill="#020202"/>
<path d="M357.925 191.933H353.957V198.206H357.925V191.933Z" fill="#020202"/>
<path d="M326.435 186.492H317.09V198.205H326.435V186.492Z" fill="#020202"/>
<path d="M364.647 164.409H288.607" stroke="#020202" stroke-width="2" stroke-miterlimit="10"/>
<path d="M530.103 198.205H463.792" stroke="#020202" stroke-width="2" stroke-miterlimit="10"/>
<path d="M474.864 179.067H366.885V196.541H474.864V179.067Z" fill="url(#paint2_linear_1_32934)"/>
<path d="M386.984 186.492H377.639V198.205H386.984V186.492Z" fill="#020202"/>
<path d="M401.322 186.492H391.977V198.205H401.322V186.492Z" fill="#020202"/>
<path d="M449.391 186.492H440.046V198.205H449.391V186.492Z" fill="#020202"/>
<path d="M463.728 186.492H454.383V198.205H463.728V186.492Z" fill="#020202"/>
<path d="M476 179H365" stroke="#020202" stroke-width="2" stroke-miterlimit="10"/>
<path d="M244.789 86.3176C318.195 58.1846 388.683 65.5129 405.14 104.017C411.848 119.729 408.556 138.36 397.502 157.116" stroke="url(#paint3_linear_1_32934)" stroke-width="1.5" stroke-miterlimit="10"/>
<path d="M251.003 90.0001L238.003 88.1623L246.155 78.0001L251.003 90.0001Z" fill="#020202"/>
<path d="M176.54 136.372C144.867 165.312 129.776 198.041 140.582 223.379C152.382 251.14 192.252 262.691 241.065 256.48C260.007 254.058 280.377 248.966 300.933 241.079" stroke="url(#paint4_linear_1_32934)" stroke-width="1.5" stroke-miterlimit="10"/>
<path d="M296.508 248.999L304.002 239.683L292.002 237.999L296.508 248.999Z" fill="#020202"/>
<defs>
<linearGradient id="paint0_linear_1_32934" x1="191.353" y1="173.71" x2="283.336" y2="173.71" gradientUnits="userSpaceOnUse">
<stop stop-color="white" stop-opacity="0"/>
<stop offset="1" stop-color="white"/>
</linearGradient>
<linearGradient id="paint1_linear_1_32934" x1="8.69852" y1="35.5324" x2="495.557" y2="35.5324" gradientUnits="userSpaceOnUse">
<stop stop-color="white"/>
<stop offset="1" stop-color="white" stop-opacity="0"/>
</linearGradient>
<linearGradient id="paint2_linear_1_32934" x1="366.917" y1="187.775" x2="474.902" y2="187.775" gradientUnits="userSpaceOnUse">
<stop stop-color="white" stop-opacity="0"/>
<stop offset="1" stop-color="white"/>
</linearGradient>
<linearGradient id="paint3_linear_1_32934" x1="288.004" y1="61.4999" x2="373.504" y2="191.5" gradientUnits="userSpaceOnUse">
<stop stop-color="#020202"/>
<stop offset="1" stop-color="#FFBF39" stop-opacity="0"/>
</linearGradient>
<linearGradient id="paint4_linear_1_32934" x1="199.501" y1="239.499" x2="209.016" y2="133.094" gradientUnits="userSpaceOnUse">
<stop stop-color="#020202"/>
<stop offset="1" stop-color="#FFBF39" stop-opacity="0"/>
</linearGradient>
</defs>
</svg>
