<svg xmlns="http://www.w3.org/2000/svg" xmlns:xlink="http://www.w3.org/1999/xlink" width="100" zoomAndPan="magnify" viewBox="0 0 75 74.999997" height="100" preserveAspectRatio="xMidYMid meet" version="1.0"><defs><clipPath id="b401a51c96"><path d="M 7.5 7.5 L 67.5 7.5 L 67.5 67.5 L 7.5 67.5 Z M 7.5 7.5 " clip-rule="nonzero"/></clipPath></defs><g clip-path="url(#b401a51c96)"><path fill="#ffbf39" d="M 66.671875 46.707031 C 67.023438 46.164062 67.460938 45.488281 67.308594 44.628906 C 67.21875 44.097656 66.933594 43.660156 66.679688 43.273438 C 66.519531 43.023438 66.335938 42.738281 66.304688 42.558594 C 66.273438 42.382812 66.347656 42.050781 66.414062 41.761719 C 66.542969 41.210938 66.6875 40.582031 66.453125 39.941406 C 66.214844 39.285156 65.671875 38.871094 65.234375 38.542969 C 65 38.367188 64.738281 38.167969 64.65625 38.027344 C 64.570312 37.875 64.527344 37.542969 64.492188 37.25 C 64.425781 36.710938 64.339844 36.039062 63.898438 35.515625 C 63.453125 34.984375 62.804688 34.785156 62.28125 34.625 C 62 34.539062 61.683594 34.441406 61.554688 34.335938 C 61.425781 34.226562 61.273438 33.929688 61.140625 33.667969 C 60.890625 33.183594 60.582031 32.578125 59.984375 32.234375 C 59.390625 31.886719 58.710938 31.921875 58.167969 31.949219 C 57.875 31.964844 57.542969 31.980469 57.378906 31.921875 C 57.304688 31.894531 57.214844 31.828125 57.113281 31.75 C 56.972656 25.3125 54.394531 19.28125 49.816406 14.726562 C 45.136719 10.066406 38.921875 7.5 32.320312 7.5 C 18.640625 7.5 7.515625 18.625 7.515625 32.304688 C 7.515625 45.980469 18.640625 57.105469 32.320312 57.105469 C 35.765625 57.105469 39.09375 56.414062 42.21875 55.050781 C 42.269531 55.070312 42.316406 55.089844 42.363281 55.109375 L 38.859375 62.636719 C 38.707031 62.960938 38.75 63.34375 38.96875 63.628906 C 39.1875 63.914062 39.546875 64.054688 39.902344 63.992188 L 43.957031 63.285156 L 46.027344 66.84375 C 46.199219 67.140625 46.519531 67.324219 46.859375 67.324219 C 46.875 67.324219 46.890625 67.324219 46.90625 67.324219 C 47.261719 67.308594 47.582031 67.09375 47.734375 66.765625 L 51.179688 59.367188 C 51.421875 59.296875 51.652344 59.199219 51.871094 59.105469 C 52.144531 58.992188 52.457031 58.859375 52.628906 58.859375 C 52.789062 58.859375 53.089844 58.988281 53.355469 59.097656 C 53.800781 59.285156 54.335938 59.515625 54.929688 59.484375 L 57.417969 65.269531 C 57.558594 65.597656 57.875 65.820312 58.234375 65.847656 C 58.257812 65.851562 58.28125 65.851562 58.304688 65.851562 C 58.636719 65.851562 58.949219 65.679688 59.125 65.394531 L 61.296875 61.894531 L 65.328125 62.722656 C 65.679688 62.796875 66.042969 62.664062 66.269531 62.386719 C 66.5 62.105469 66.550781 61.726562 66.410156 61.394531 L 63.546875 54.753906 C 63.671875 54.660156 63.792969 54.554688 63.898438 54.425781 C 64.339844 53.898438 64.425781 53.226562 64.492188 52.683594 C 64.527344 52.394531 64.570312 52.0625 64.65625 51.914062 C 64.738281 51.769531 65.003906 51.570312 65.238281 51.394531 C 65.671875 51.0625 66.214844 50.652344 66.453125 50.003906 C 66.6875 49.359375 66.539062 48.699219 66.417969 48.167969 C 66.351562 47.882812 66.277344 47.554688 66.308594 47.382812 C 66.335938 47.21875 66.511719 46.945312 66.671875 46.707031 Z M 9.445312 32.304688 C 9.445312 19.691406 19.707031 9.429688 32.320312 9.429688 C 44.292969 9.429688 54.179688 18.722656 55.117188 30.472656 C 54.472656 30.378906 53.894531 30.621094 53.386719 30.839844 C 53.113281 30.953125 52.800781 31.082031 52.628906 31.082031 C 52.46875 31.082031 52.167969 30.957031 51.902344 30.84375 C 51.394531 30.628906 50.765625 30.363281 50.074219 30.484375 C 49.386719 30.605469 48.882812 31.074219 48.480469 31.449219 C 48.269531 31.644531 48.03125 31.867188 47.878906 31.921875 C 47.714844 31.980469 47.382812 31.964844 47.085938 31.949219 C 46.511719 31.921875 45.863281 31.886719 45.273438 32.230469 C 44.671875 32.578125 44.359375 33.183594 44.113281 33.671875 C 43.980469 33.929688 43.828125 34.226562 43.703125 34.332031 C 43.570312 34.445312 43.25 34.542969 42.96875 34.628906 C 42.757812 34.695312 42.523438 34.769531 42.289062 34.867188 C 40.675781 33.191406 38.683594 31.96875 36.503906 31.277344 C 38.492188 29.929688 39.800781 27.652344 39.800781 25.078125 C 39.800781 20.949219 36.445312 17.59375 32.320312 17.59375 C 28.191406 17.59375 24.835938 20.949219 24.835938 25.078125 C 24.835938 27.652344 26.144531 29.929688 28.132812 31.277344 C 22.53125 33.054688 18.464844 38.304688 18.464844 44.484375 C 18.464844 45.019531 18.894531 45.449219 19.429688 45.449219 L 37.976562 45.449219 C 38.09375 45.917969 38.347656 46.316406 38.578125 46.671875 C 38.738281 46.921875 38.921875 47.203125 38.953125 47.382812 C 38.984375 47.5625 38.910156 47.890625 38.84375 48.179688 C 38.714844 48.734375 38.570312 49.359375 38.804688 50.003906 C 39.042969 50.660156 39.585938 51.070312 40.027344 51.402344 C 40.257812 51.578125 40.519531 51.773438 40.601562 51.917969 C 40.6875 52.066406 40.730469 52.398438 40.765625 52.691406 C 40.796875 52.945312 40.832031 53.226562 40.90625 53.507812 C 38.183594 54.613281 35.300781 55.175781 32.320312 55.175781 C 19.707031 55.175781 9.445312 44.914062 9.445312 32.304688 Z M 38.839844 41.773438 C 38.90625 42.0625 38.980469 42.386719 38.949219 42.558594 C 38.921875 42.722656 38.746094 42.996094 38.589844 43.238281 C 38.527344 43.328125 38.46875 43.421875 38.40625 43.519531 L 20.429688 43.519531 C 20.925781 37.394531 26.066406 32.558594 32.320312 32.558594 C 35.597656 32.558594 38.710938 33.902344 40.957031 36.265625 C 40.847656 36.605469 40.804688 36.953125 40.765625 37.261719 C 40.730469 37.550781 40.6875 37.882812 40.601562 38.027344 C 40.519531 38.175781 40.253906 38.375 40.019531 38.550781 C 39.585938 38.878906 39.042969 39.289062 38.804688 39.9375 C 38.570312 40.585938 38.71875 41.242188 38.839844 41.773438 Z M 32.320312 30.628906 C 29.257812 30.628906 26.765625 28.136719 26.765625 25.078125 C 26.765625 22.015625 29.257812 19.523438 32.320312 19.523438 C 35.382812 19.523438 37.871094 22.015625 37.871094 25.078125 C 37.871094 28.136719 35.382812 30.628906 32.320312 30.628906 Z M 46.765625 64.277344 L 45.289062 61.734375 C 45.085938 61.382812 44.6875 61.199219 44.289062 61.265625 L 41.390625 61.773438 L 44.03125 56.105469 C 44.058594 56.160156 44.089844 56.21875 44.117188 56.277344 C 44.367188 56.761719 44.675781 57.367188 45.273438 57.710938 C 45.867188 58.054688 46.546875 58.019531 47.089844 57.996094 C 47.382812 57.980469 47.71875 57.964844 47.878906 58.023438 C 48.035156 58.078125 48.277344 58.304688 48.488281 58.503906 C 48.691406 58.691406 48.921875 58.902344 49.183594 59.082031 Z M 61.023438 59.871094 C 60.628906 59.789062 60.222656 59.964844 60.011719 60.308594 L 58.460938 62.808594 L 56.652344 58.609375 C 56.695312 58.570312 56.738281 58.53125 56.777344 58.496094 C 56.988281 58.300781 57.226562 58.078125 57.378906 58.023438 C 57.542969 57.964844 57.878906 57.980469 58.171875 57.996094 C 58.746094 58.023438 59.394531 58.054688 59.984375 57.714844 C 60.585938 57.367188 60.898438 56.757812 61.144531 56.269531 C 61.277344 56.011719 61.429688 55.71875 61.554688 55.609375 C 61.605469 55.570312 61.679688 55.53125 61.765625 55.492188 L 63.90625 60.460938 Z M 65.410156 44.960938 C 65.429688 45.074219 65.183594 45.453125 65.050781 45.65625 C 64.792969 46.050781 64.503906 46.5 64.40625 47.046875 C 64.308594 47.605469 64.429688 48.132812 64.535156 48.601562 C 64.589844 48.835938 64.679688 49.230469 64.640625 49.34375 C 64.597656 49.457031 64.269531 49.703125 64.074219 49.851562 C 63.695312 50.140625 63.265625 50.464844 62.984375 50.949219 C 62.703125 51.433594 62.636719 51.972656 62.578125 52.445312 C 62.546875 52.6875 62.496094 53.09375 62.417969 53.1875 C 62.34375 53.277344 61.953125 53.398438 61.71875 53.46875 C 61.261719 53.613281 60.746094 53.769531 60.316406 54.132812 C 59.886719 54.492188 59.644531 54.972656 59.425781 55.394531 C 59.316406 55.613281 59.128906 55.980469 59.019531 56.042969 C 58.914062 56.097656 58.511719 56.078125 58.269531 56.066406 C 57.792969 56.042969 57.25 56.015625 56.722656 56.207031 C 56.199219 56.398438 55.808594 56.761719 55.464844 57.082031 C 55.269531 57.261719 54.976562 57.535156 54.847656 57.558594 C 54.71875 57.578125 54.351562 57.425781 54.109375 57.320312 C 53.671875 57.136719 53.183594 56.929688 52.628906 56.929688 C 52.066406 56.929688 51.566406 57.140625 51.125 57.328125 C 50.902344 57.421875 50.527344 57.578125 50.410156 57.5625 C 50.289062 57.539062 49.984375 57.257812 49.804688 57.089844 C 49.457031 56.765625 49.066406 56.402344 48.539062 56.210938 C 48.191406 56.082031 47.835938 56.050781 47.5 56.050781 C 47.328125 56.050781 47.15625 56.058594 46.996094 56.066406 C 46.75 56.078125 46.34375 56.097656 46.238281 56.039062 C 46.136719 55.980469 45.949219 55.613281 45.835938 55.394531 C 45.621094 54.972656 45.375 54.492188 44.941406 54.128906 C 44.515625 53.769531 44 53.613281 43.542969 53.472656 C 43.308594 53.402344 42.914062 53.28125 42.835938 53.1875 C 42.761719 53.097656 42.710938 52.695312 42.679688 52.453125 C 42.621094 51.976562 42.554688 51.441406 42.273438 50.953125 C 41.992188 50.46875 41.566406 50.148438 41.1875 49.863281 C 40.992188 49.714844 40.660156 49.464844 40.617188 49.34375 C 40.582031 49.234375 40.671875 48.847656 40.722656 48.613281 C 40.832031 48.144531 40.953125 47.613281 40.855469 47.046875 C 40.753906 46.484375 40.457031 46.027344 40.195312 45.621094 C 40.054688 45.398438 39.875 45.125 39.847656 44.980469 C 39.828125 44.871094 40.074219 44.492188 40.207031 44.289062 C 40.464844 43.894531 40.753906 43.445312 40.851562 42.894531 C 40.949219 42.339844 40.828125 41.808594 40.722656 41.34375 C 40.667969 41.109375 40.578125 40.710938 40.617188 40.601562 C 40.660156 40.488281 40.988281 40.238281 41.183594 40.089844 C 41.5625 39.804688 41.996094 39.480469 42.273438 38.996094 C 42.554688 38.507812 42.621094 37.972656 42.679688 37.5 C 42.710938 37.253906 42.761719 36.847656 42.839844 36.757812 C 42.917969 36.664062 43.308594 36.546875 43.539062 36.472656 C 43.996094 36.332031 44.511719 36.171875 44.945312 35.808594 C 45.371094 35.449219 45.613281 34.972656 45.832031 34.550781 C 45.941406 34.332031 46.128906 33.964844 46.238281 33.902344 C 46.34375 33.84375 46.746094 33.863281 46.988281 33.875 C 47.46875 33.898438 48.007812 33.925781 48.539062 33.734375 C 49.058594 33.546875 49.449219 33.183594 49.792969 32.863281 C 49.988281 32.679688 50.28125 32.410156 50.410156 32.386719 C 50.539062 32.367188 50.90625 32.519531 51.152344 32.621094 C 51.585938 32.804688 52.074219 33.011719 52.628906 33.011719 C 52.628906 33.011719 52.628906 33.011719 52.632812 33.011719 C 53.191406 33.011719 53.691406 32.800781 54.132812 32.617188 C 54.355469 32.523438 54.730469 32.367188 54.847656 32.382812 C 54.972656 32.40625 55.273438 32.683594 55.453125 32.855469 C 55.800781 33.175781 56.195312 33.542969 56.71875 33.734375 C 57.246094 33.925781 57.785156 33.902344 58.261719 33.875 C 58.507812 33.863281 58.914062 33.84375 59.019531 33.902344 C 59.121094 33.964844 59.308594 34.328125 59.421875 34.546875 C 59.640625 34.972656 59.886719 35.453125 60.316406 35.8125 C 60.746094 36.171875 61.261719 36.332031 61.714844 36.472656 C 61.949219 36.542969 62.34375 36.664062 62.421875 36.757812 C 62.496094 36.847656 62.546875 37.25 62.578125 37.492188 C 62.636719 37.964844 62.703125 38.503906 62.988281 38.992188 C 63.265625 39.472656 63.691406 39.796875 64.070312 40.082031 C 64.277344 40.238281 64.597656 40.480469 64.640625 40.597656 C 64.675781 40.710938 64.585938 41.097656 64.535156 41.328125 C 64.425781 41.800781 64.304688 42.332031 64.402344 42.894531 C 64.503906 43.460938 64.800781 43.917969 65.0625 44.320312 C 65.207031 44.542969 65.382812 44.820312 65.410156 44.960938 Z M 52.628906 34.640625 C 46.933594 34.640625 42.296875 39.273438 42.296875 44.972656 C 42.296875 50.667969 46.933594 55.304688 52.628906 55.304688 C 58.328125 55.304688 62.960938 50.667969 62.960938 44.972656 C 62.960938 39.273438 58.328125 34.640625 52.628906 34.640625 Z M 52.628906 53.375 C 47.996094 53.375 44.226562 49.605469 44.226562 44.972656 C 44.226562 40.339844 47.996094 36.570312 52.628906 36.570312 C 57.261719 36.570312 61.03125 40.339844 61.03125 44.972656 C 61.03125 49.605469 57.261719 53.375 52.628906 53.375 Z M 54.886719 41.734375 L 53.523438 38.398438 C 53.375 38.039062 53.019531 37.800781 52.628906 37.800781 C 52.238281 37.800781 51.882812 38.039062 51.734375 38.398438 L 50.371094 41.734375 L 46.78125 42 C 46.390625 42.03125 46.054688 42.292969 45.933594 42.664062 C 45.8125 43.039062 45.929688 43.445312 46.226562 43.699219 L 48.980469 46.027344 L 48.121094 49.527344 C 48.027344 49.90625 48.171875 50.304688 48.492188 50.535156 C 48.808594 50.765625 49.234375 50.78125 49.566406 50.574219 L 52.628906 48.679688 L 55.691406 50.574219 C 55.847656 50.671875 56.023438 50.71875 56.199219 50.71875 C 56.398438 50.71875 56.597656 50.660156 56.769531 50.535156 C 57.085938 50.304688 57.230469 49.90625 57.136719 49.527344 L 56.28125 46.027344 L 59.03125 43.699219 C 59.328125 43.445312 59.445312 43.039062 59.324219 42.664062 C 59.203125 42.292969 58.871094 42.03125 58.480469 42 Z M 54.578125 44.9375 C 54.296875 45.175781 54.175781 45.550781 54.261719 45.90625 L 54.699219 47.691406 L 53.136719 46.722656 C 52.824219 46.53125 52.433594 46.53125 52.121094 46.722656 L 50.558594 47.691406 L 50.996094 45.90625 C 51.082031 45.550781 50.960938 45.175781 50.679688 44.9375 L 49.277344 43.75 L 51.109375 43.617188 C 51.476562 43.589844 51.792969 43.355469 51.933594 43.019531 L 52.628906 41.316406 L 53.324219 43.019531 C 53.464844 43.355469 53.78125 43.589844 54.148438 43.617188 L 55.980469 43.75 Z M 54.578125 44.9375 " fill-opacity="1" fill-rule="nonzero"/></g></svg>