<svg xmlns="http://www.w3.org/2000/svg" xmlns:xlink="http://www.w3.org/1999/xlink" width="100" zoomAndPan="magnify" viewBox="0 0 75 74.999997" height="100" preserveAspectRatio="xMidYMid meet" version="1.0"><defs><clipPath id="64469f2d3d"><path d="M 8.101562 7.5 L 66.601562 7.5 L 66.601562 67.5 L 8.101562 67.5 Z M 8.101562 7.5 " clip-rule="nonzero"/></clipPath></defs><g clip-path="url(#64469f2d3d)"><path fill="#ffbf39" d="M 66.871094 62.828125 C 66.871094 62.773438 66.871094 43.375 66.871094 43.308594 L 66.859375 39.191406 C 66.859375 39.007812 66.792969 38.851562 66.664062 38.726562 C 66.492188 37.777344 65.792969 36.914062 64.683594 36.265625 C 63.453125 35.546875 61.820312 35.148438 60.085938 35.144531 L 60.085938 23.800781 C 60.085938 23.777344 60.082031 23.753906 60.078125 23.730469 C 60.074219 23.695312 60.070312 23.664062 60.0625 23.632812 L 60.050781 23.585938 L 60.042969 23.566406 C 60.03125 23.535156 60.015625 23.507812 60 23.476562 L 59.976562 23.433594 L 59.964844 23.421875 C 59.941406 23.390625 59.917969 23.359375 59.890625 23.332031 L 59.859375 23.300781 L 59.84375 23.292969 C 59.816406 23.269531 59.785156 23.246094 59.753906 23.230469 L 32.839844 7.585938 C 32.738281 7.527344 32.625 7.5 32.507812 7.5 C 32.390625 7.5 32.277344 7.527344 32.175781 7.585938 L 8.433594 21.292969 C 8.273438 21.386719 8.171875 21.519531 8.125 21.695312 L 8.113281 21.746094 L 8.109375 21.769531 C 8.105469 21.800781 8.101562 21.835938 8.101562 21.867188 L 8.101562 46.984375 C 8.101562 47.238281 8.210938 47.429688 8.433594 47.554688 L 35.292969 63.167969 L 35.320312 63.195312 C 35.320312 63.195312 35.410156 63.226562 35.414062 63.230469 C 35.496094 63.265625 35.585938 63.285156 35.679688 63.285156 C 35.746094 63.285156 35.8125 63.277344 35.875 63.257812 L 35.910156 63.257812 L 37.8125 62.160156 L 53.222656 62.753906 L 53.222656 63.277344 C 53.222656 63.328125 53.226562 63.386719 53.230469 63.445312 L 53.234375 63.484375 C 53.238281 63.519531 53.238281 63.554688 53.246094 63.601562 L 53.253906 63.652344 C 53.257812 63.683594 53.261719 63.722656 53.269531 63.769531 L 53.277344 63.808594 C 53.285156 63.847656 53.296875 63.886719 53.304688 63.9375 L 53.3125 63.96875 C 53.328125 64.019531 53.339844 64.070312 53.359375 64.125 L 53.371094 64.15625 C 53.382812 64.195312 53.398438 64.234375 53.414062 64.277344 L 53.429688 64.324219 C 53.441406 64.355469 53.457031 64.390625 53.472656 64.425781 L 53.496094 64.476562 C 53.511719 64.511719 53.527344 64.542969 53.550781 64.589844 L 53.566406 64.621094 C 53.59375 64.675781 53.625 64.734375 53.660156 64.785156 L 53.679688 64.820312 L 53.765625 64.957031 L 53.792969 64.996094 C 53.8125 65.019531 53.882812 65.121094 53.882812 65.121094 L 53.949219 65.203125 L 53.964844 65.222656 L 54.21875 65.507812 L 54.234375 65.523438 C 54.269531 65.558594 54.308594 65.59375 54.351562 65.632812 L 54.378906 65.660156 C 54.429688 65.707031 54.480469 65.75 54.535156 65.796875 C 54.535156 65.796875 54.558594 65.816406 54.558594 65.820312 L 54.59375 65.847656 C 54.628906 65.875 54.667969 65.90625 54.722656 65.949219 L 54.773438 65.988281 C 54.8125 66.015625 54.851562 66.042969 54.890625 66.074219 L 54.957031 66.121094 C 54.996094 66.144531 55.035156 66.171875 55.070312 66.195312 L 55.121094 66.226562 L 55.144531 66.242188 C 55.1875 66.269531 55.234375 66.300781 55.277344 66.324219 L 55.320312 66.351562 C 55.320312 66.351562 55.359375 66.375 55.367188 66.375 L 55.359375 66.390625 L 55.757812 66.585938 C 55.820312 66.617188 55.882812 66.648438 55.957031 66.679688 L 56.058594 66.722656 C 56.089844 66.738281 56.125 66.753906 56.171875 66.777344 L 56.269531 66.816406 C 56.308594 66.828125 56.34375 66.84375 56.398438 66.867188 L 56.617188 66.949219 L 56.851562 67.027344 C 56.851562 67.027344 57.023438 67.078125 57.082031 67.09375 L 57.308594 67.160156 L 57.410156 67.183594 C 57.453125 67.195312 57.5 67.207031 57.546875 67.21875 L 57.65625 67.242188 C 57.699219 67.253906 57.742188 67.261719 57.789062 67.273438 L 57.894531 67.296875 C 57.9375 67.304688 57.984375 67.3125 58.027344 67.320312 L 58.839844 67.4375 L 58.871094 67.445312 L 58.921875 67.445312 L 59.078125 67.460938 C 59.15625 67.46875 59.238281 67.472656 59.332031 67.480469 L 59.371094 67.480469 C 59.460938 67.484375 59.550781 67.492188 59.640625 67.496094 L 59.664062 67.496094 C 59.734375 67.5 59.804688 67.5 59.878906 67.5 L 60.152344 67.5 C 60.25 67.5 60.347656 67.496094 60.441406 67.492188 L 60.46875 67.492188 C 60.558594 67.488281 60.652344 67.484375 60.753906 67.476562 L 60.792969 67.476562 C 60.871094 67.46875 60.945312 67.464844 61.023438 67.457031 L 61.066406 67.453125 C 61.128906 67.449219 61.191406 67.441406 61.269531 67.433594 L 61.316406 67.425781 C 61.414062 67.414062 61.511719 67.402344 61.613281 67.390625 L 61.660156 67.382812 C 61.730469 67.371094 61.800781 67.359375 61.878906 67.347656 L 62.042969 67.324219 L 62.046875 67.316406 C 62.089844 67.308594 62.132812 67.300781 62.183594 67.292969 L 62.214844 67.285156 C 62.28125 67.269531 62.34375 67.257812 62.421875 67.238281 L 62.46875 67.230469 C 62.546875 67.210938 62.628906 67.191406 62.722656 67.167969 L 62.742188 67.164062 C 62.8125 67.144531 62.882812 67.125 62.964844 67.101562 L 63.007812 67.089844 C 63.085938 67.0625 63.167969 67.039062 63.261719 67.011719 C 63.261719 67.011719 63.371094 66.972656 63.417969 66.957031 L 63.421875 66.964844 L 63.734375 66.839844 C 63.746094 66.835938 64.167969 66.667969 64.167969 66.667969 L 64.164062 66.65625 C 64.175781 66.652344 64.191406 66.644531 64.203125 66.636719 L 64.207031 66.636719 L 64.25 66.617188 C 64.316406 66.582031 64.382812 66.550781 64.445312 66.519531 C 64.449219 66.515625 64.46875 66.503906 64.472656 66.503906 L 64.503906 66.488281 C 64.550781 66.460938 64.59375 66.4375 64.648438 66.40625 L 64.667969 66.398438 L 64.667969 66.394531 C 64.675781 66.390625 64.683594 66.386719 64.691406 66.382812 L 64.726562 66.363281 C 64.773438 66.335938 64.816406 66.308594 64.878906 66.273438 L 64.898438 66.261719 C 64.949219 66.230469 65 66.199219 65.054688 66.160156 L 65.078125 66.144531 C 65.128906 66.109375 65.179688 66.074219 65.230469 66.035156 L 65.242188 66.03125 L 65.269531 66.011719 C 65.3125 65.976562 65.359375 65.945312 65.410156 65.90625 L 65.429688 65.890625 C 65.476562 65.851562 65.523438 65.8125 65.566406 65.773438 C 65.566406 65.773438 65.589844 65.757812 65.601562 65.746094 C 65.648438 65.703125 65.691406 65.664062 65.746094 65.617188 L 65.785156 65.578125 C 65.824219 65.539062 65.863281 65.503906 65.90625 65.457031 C 65.949219 65.414062 65.992188 65.363281 66.042969 65.304688 L 66.054688 65.292969 L 66.308594 64.964844 C 66.320312 64.949219 66.332031 64.9375 66.339844 64.921875 L 66.386719 64.851562 L 66.46875 64.710938 L 66.480469 64.695312 C 66.496094 64.667969 66.511719 64.636719 66.527344 64.605469 L 66.542969 64.574219 C 66.5625 64.539062 66.578125 64.503906 66.597656 64.46875 L 66.609375 64.441406 C 66.625 64.402344 66.644531 64.363281 66.660156 64.320312 L 66.675781 64.28125 C 66.6875 64.25 66.703125 64.210938 66.714844 64.167969 C 66.71875 64.160156 66.722656 64.148438 66.726562 64.140625 C 66.746094 64.085938 66.761719 64.027344 66.777344 63.972656 C 66.78125 63.960938 66.785156 63.941406 66.785156 63.941406 C 66.800781 63.886719 66.8125 63.828125 66.820312 63.777344 C 66.824219 63.769531 66.824219 63.757812 66.828125 63.746094 C 66.832031 63.726562 66.832031 63.710938 66.832031 63.710938 L 66.859375 63.515625 L 66.859375 63.507812 L 66.863281 63.480469 C 66.863281 63.453125 66.871094 63.363281 66.871094 63.363281 C 66.871094 63.328125 66.875 63.289062 66.875 63.261719 L 66.875 63.238281 Z M 65.984375 63.351562 L 65.980469 63.40625 L 65.957031 63.582031 C 65.957031 63.589844 65.957031 63.59375 65.957031 63.601562 C 65.945312 63.640625 65.9375 63.679688 65.925781 63.722656 L 65.921875 63.742188 C 65.910156 63.78125 65.898438 63.824219 65.886719 63.867188 C 65.882812 63.871094 65.882812 63.878906 65.878906 63.882812 C 65.871094 63.910156 65.859375 63.933594 65.851562 63.960938 L 65.839844 63.988281 C 65.828125 64.019531 65.816406 64.046875 65.796875 64.085938 C 65.785156 64.117188 65.769531 64.144531 65.75 64.183594 C 65.75 64.1875 65.746094 64.191406 65.742188 64.195312 C 65.734375 64.21875 65.722656 64.238281 65.710938 64.257812 C 65.707031 64.265625 65.703125 64.273438 65.699219 64.28125 C 65.695312 64.285156 65.691406 64.289062 65.691406 64.292969 L 65.613281 64.414062 L 65.605469 64.429688 L 65.78125 64.550781 L 65.589844 64.449219 L 65.5 64.574219 L 65.664062 64.707031 L 65.492188 64.589844 C 65.488281 64.589844 65.480469 64.601562 65.480469 64.601562 L 65.394531 64.703125 C 65.394531 64.707031 65.382812 64.714844 65.382812 64.71875 L 65.371094 64.730469 C 65.339844 64.765625 65.304688 64.804688 65.269531 64.84375 L 65.265625 64.847656 C 65.226562 64.886719 65.191406 64.921875 65.152344 64.957031 L 65.296875 65.117188 L 65.136719 64.976562 C 65.101562 65.007812 65.0625 65.042969 65.015625 65.082031 L 65 65.09375 C 64.960938 65.128906 64.921875 65.164062 64.878906 65.195312 C 64.875 65.195312 64.875 65.199219 64.875 65.199219 C 64.832031 65.230469 64.789062 65.261719 64.746094 65.292969 L 64.734375 65.304688 C 64.730469 65.308594 64.722656 65.3125 64.71875 65.316406 C 64.675781 65.347656 64.632812 65.378906 64.574219 65.414062 C 64.574219 65.417969 64.566406 65.421875 64.5625 65.421875 C 64.523438 65.449219 64.480469 65.480469 64.433594 65.507812 L 64.421875 65.515625 L 64.527344 65.695312 L 64.40625 65.523438 C 64.367188 65.546875 64.328125 65.570312 64.285156 65.59375 L 64.214844 65.636719 C 64.175781 65.65625 64.132812 65.679688 64.089844 65.703125 L 64.058594 65.722656 C 64.054688 65.722656 64.046875 65.726562 64.042969 65.726562 C 63.988281 65.757812 63.929688 65.785156 63.871094 65.8125 C 63.871094 65.8125 63.871094 65.816406 63.867188 65.816406 C 63.808594 65.84375 63.75 65.871094 63.691406 65.898438 L 63.671875 65.90625 L 63.75 66.101562 L 63.65625 65.910156 L 63.640625 65.921875 C 63.582031 65.941406 63.53125 65.964844 63.476562 65.988281 L 63.457031 65.996094 L 63.539062 66.1875 L 63.441406 66 C 63.378906 66.027344 63.3125 66.050781 63.246094 66.078125 L 63.230469 66.082031 L 63.296875 66.28125 L 63.214844 66.085938 L 63.195312 66.09375 C 63.132812 66.117188 63.074219 66.136719 63.011719 66.15625 C 63.011719 66.15625 62.996094 66.160156 62.996094 66.160156 L 63.066406 66.359375 L 62.980469 66.167969 C 62.90625 66.1875 62.835938 66.210938 62.765625 66.230469 L 62.75 66.238281 L 62.804688 66.441406 L 62.734375 66.242188 L 62.714844 66.246094 C 62.648438 66.265625 62.589844 66.285156 62.527344 66.296875 C 62.523438 66.296875 62.507812 66.304688 62.507812 66.304688 L 62.5625 66.503906 L 62.492188 66.304688 C 62.421875 66.324219 62.347656 66.34375 62.277344 66.359375 L 62.261719 66.363281 L 62.300781 66.570312 L 62.246094 66.367188 L 62.222656 66.371094 C 62.164062 66.382812 62.105469 66.394531 62.046875 66.410156 L 62 66.417969 C 61.929688 66.433594 61.855469 66.445312 61.769531 66.460938 L 61.800781 66.667969 L 61.753906 66.460938 L 61.730469 66.464844 C 61.667969 66.476562 61.601562 66.488281 61.539062 66.496094 L 61.507812 66.503906 C 61.503906 66.503906 61.496094 66.503906 61.492188 66.503906 C 61.402344 66.515625 61.3125 66.527344 61.222656 66.539062 L 61.164062 66.542969 C 61.109375 66.550781 61.050781 66.554688 60.992188 66.5625 L 60.980469 66.5625 L 60.953125 66.566406 C 60.882812 66.570312 60.8125 66.578125 60.746094 66.582031 L 60.71875 66.582031 L 60.699219 66.585938 C 60.613281 66.589844 60.527344 66.59375 60.441406 66.597656 L 60.449219 66.8125 L 60.421875 66.597656 C 60.332031 66.601562 60.242188 66.601562 60.15625 66.605469 L 60.136719 66.605469 L 60.128906 66.820312 L 60.113281 66.605469 L 59.898438 66.605469 L 59.699219 66.597656 L 59.703125 66.597656 L 59.699219 66.597656 L 59.703125 66.597656 C 59.699219 66.597656 59.695312 66.597656 59.691406 66.597656 L 59.679688 66.597656 C 59.597656 66.59375 59.515625 66.589844 59.433594 66.585938 L 59.402344 66.585938 L 59.390625 66.796875 L 59.382812 66.582031 C 59.308594 66.578125 59.234375 66.570312 59.167969 66.566406 C 59.164062 66.566406 59.15625 66.566406 59.152344 66.566406 L 59.136719 66.566406 C 59.132812 66.5625 59.125 66.5625 59.121094 66.5625 L 59.007812 66.550781 C 59 66.550781 58.996094 66.550781 58.984375 66.550781 L 58.414062 66.472656 C 58.378906 66.46875 58.339844 66.460938 58.300781 66.453125 L 58.285156 66.453125 L 57.980469 66.390625 C 57.9375 66.382812 57.898438 66.375 57.859375 66.367188 L 57.761719 66.34375 L 57.632812 66.3125 L 57.542969 66.289062 C 57.5 66.277344 57.457031 66.265625 57.417969 66.253906 L 57.324219 66.230469 C 57.285156 66.214844 57.242188 66.203125 57.203125 66.191406 L 57.128906 66.171875 C 57.128906 66.167969 57.117188 66.164062 57.113281 66.164062 C 57.074219 66.152344 57.03125 66.136719 56.992188 66.121094 L 56.921875 66.101562 L 56.851562 66.300781 L 56.910156 66.09375 C 56.871094 66.082031 56.835938 66.066406 56.789062 66.050781 L 56.710938 66.019531 C 56.671875 66.007812 56.636719 65.992188 56.601562 65.976562 L 56.515625 65.941406 C 56.480469 65.925781 56.449219 65.914062 56.417969 65.898438 L 56.328125 65.859375 C 56.273438 65.835938 56.214844 65.808594 56.160156 65.777344 L 56.066406 65.972656 L 56.144531 65.773438 C 56.085938 65.742188 56.03125 65.714844 55.964844 65.679688 C 55.910156 65.648438 55.855469 65.617188 55.789062 65.578125 L 55.75 65.554688 L 55.628906 65.480469 L 55.570312 65.441406 C 55.535156 65.421875 55.503906 65.398438 55.472656 65.378906 L 55.414062 65.335938 C 55.382812 65.3125 55.347656 65.289062 55.316406 65.265625 L 55.261719 65.222656 C 55.226562 65.199219 55.195312 65.171875 55.164062 65.144531 L 55.132812 65.117188 C 55.128906 65.117188 55.117188 65.109375 55.117188 65.105469 C 55.074219 65.070312 55.035156 65.035156 54.992188 64.996094 L 54.960938 64.96875 C 54.933594 64.941406 54.902344 64.914062 54.875 64.882812 L 54.851562 64.859375 C 54.847656 64.859375 54.839844 64.847656 54.839844 64.847656 L 54.777344 64.78125 C 54.773438 64.777344 54.769531 64.773438 54.765625 64.769531 L 54.652344 64.632812 C 54.632812 64.613281 54.617188 64.589844 54.601562 64.570312 L 54.574219 64.53125 C 54.558594 64.511719 54.546875 64.492188 54.53125 64.476562 L 54.523438 64.457031 C 54.519531 64.457031 54.511719 64.445312 54.507812 64.441406 C 54.488281 64.410156 54.46875 64.378906 54.445312 64.339844 L 54.429688 64.316406 C 54.40625 64.277344 54.382812 64.238281 54.363281 64.203125 C 54.363281 64.195312 54.359375 64.191406 54.355469 64.1875 C 54.355469 64.179688 54.351562 64.171875 54.347656 64.167969 C 54.335938 64.144531 54.324219 64.117188 54.3125 64.089844 L 54.292969 64.054688 C 54.285156 64.03125 54.273438 64.007812 54.261719 63.972656 L 54.25 63.945312 C 54.242188 63.917969 54.230469 63.890625 54.222656 63.867188 C 54.222656 63.867188 54.214844 63.839844 54.214844 63.839844 C 54.203125 63.804688 54.191406 63.765625 54.183594 63.730469 L 53.972656 63.785156 L 54.175781 63.707031 C 54.167969 63.679688 54.164062 63.652344 54.15625 63.625 L 54.152344 63.585938 C 54.148438 63.566406 54.144531 63.539062 54.140625 63.515625 L 54.136719 63.476562 C 54.132812 63.453125 54.128906 63.425781 54.128906 63.402344 L 54.125 63.386719 L 54.125 63.371094 C 54.121094 63.332031 54.121094 63.296875 54.121094 63.261719 L 54.121094 61.890625 L 54.113281 52.226562 L 54.113281 51.71875 L 54.109375 40.609375 C 54.117188 40.621094 54.125 40.636719 54.132812 40.648438 L 54.152344 40.675781 C 54.160156 40.6875 54.171875 40.703125 54.179688 40.714844 L 54.179688 40.796875 L 54.238281 40.796875 C 54.257812 40.816406 54.273438 40.839844 54.292969 40.859375 L 54.320312 40.898438 C 54.359375 40.945312 54.398438 40.988281 54.4375 41.03125 C 54.464844 41.058594 54.488281 41.089844 54.515625 41.117188 L 54.546875 41.148438 C 54.578125 41.179688 54.613281 41.210938 54.644531 41.242188 C 54.648438 41.246094 54.65625 41.253906 54.660156 41.253906 L 54.675781 41.273438 C 54.722656 41.3125 54.769531 41.355469 54.816406 41.394531 L 54.871094 41.441406 C 54.90625 41.46875 54.9375 41.496094 54.976562 41.523438 L 55.039062 41.570312 C 55.070312 41.597656 55.109375 41.621094 55.144531 41.648438 L 55.207031 41.695312 C 55.242188 41.714844 55.277344 41.738281 55.316406 41.765625 L 55.378906 41.804688 C 55.417969 41.832031 55.460938 41.859375 55.507812 41.882812 L 55.535156 41.898438 L 55.5625 41.917969 C 55.621094 41.953125 55.683594 41.988281 55.742188 42.019531 C 55.746094 42.019531 55.753906 42.023438 55.753906 42.027344 C 55.8125 42.058594 55.871094 42.089844 55.933594 42.117188 L 55.949219 42.125 C 55.960938 42.128906 55.96875 42.132812 55.976562 42.136719 C 56.027344 42.164062 56.078125 42.1875 56.128906 42.210938 L 56.207031 42.246094 C 56.246094 42.265625 56.289062 42.28125 56.328125 42.300781 L 56.421875 42.335938 C 56.457031 42.351562 56.496094 42.367188 56.535156 42.382812 L 56.640625 42.421875 C 56.675781 42.4375 56.710938 42.449219 56.746094 42.460938 L 56.835938 42.492188 C 56.878906 42.507812 56.921875 42.519531 56.964844 42.535156 L 57.058594 42.566406 C 57.101562 42.578125 57.144531 42.589844 57.1875 42.601562 L 57.285156 42.628906 L 57.414062 42.667969 L 57.515625 42.691406 C 57.558594 42.703125 57.601562 42.714844 57.644531 42.726562 L 57.746094 42.746094 C 57.789062 42.757812 57.832031 42.765625 57.875 42.777344 L 57.980469 42.796875 C 58.023438 42.804688 58.066406 42.8125 58.105469 42.820312 L 58.902344 42.9375 L 59.066406 42.953125 L 59.113281 42.957031 C 59.144531 42.960938 59.179688 42.960938 59.210938 42.964844 C 59.253906 42.96875 59.296875 42.96875 59.339844 42.972656 L 59.398438 42.976562 C 59.410156 42.976562 59.421875 42.980469 59.433594 42.980469 C 59.507812 42.984375 59.578125 42.984375 59.648438 42.988281 L 59.671875 42.988281 C 59.738281 42.992188 59.808594 42.996094 59.878906 42.996094 L 59.9375 42.996094 C 59.988281 42.996094 60.039062 42.996094 60.085938 42.996094 L 60.144531 42.996094 C 60.238281 42.996094 60.332031 42.992188 60.425781 42.988281 L 60.445312 42.988281 C 60.539062 42.984375 60.628906 42.980469 60.71875 42.972656 L 60.761719 42.96875 C 60.835938 42.964844 60.90625 42.960938 60.980469 42.953125 L 61.023438 42.949219 C 61.082031 42.945312 61.144531 42.9375 61.203125 42.929688 L 61.261719 42.925781 L 61.542969 42.890625 L 61.59375 42.878906 C 61.660156 42.871094 61.726562 42.859375 61.796875 42.851562 L 61.847656 42.839844 C 61.925781 42.828125 62 42.8125 62.078125 42.796875 L 62.125 42.789062 C 62.1875 42.777344 62.25 42.761719 62.308594 42.746094 L 62.367188 42.734375 C 62.441406 42.71875 62.519531 42.699219 62.59375 42.679688 L 62.628906 42.671875 C 62.695312 42.652344 62.761719 42.636719 62.824219 42.617188 L 62.882812 42.601562 C 62.957031 42.578125 63.03125 42.554688 63.109375 42.53125 L 63.140625 42.519531 C 63.207031 42.5 63.273438 42.476562 63.335938 42.453125 L 63.386719 42.433594 C 63.460938 42.410156 63.53125 42.382812 63.597656 42.351562 L 63.632812 42.339844 C 63.691406 42.316406 63.75 42.292969 63.808594 42.265625 L 63.863281 42.242188 C 63.925781 42.214844 63.988281 42.1875 64.054688 42.152344 C 64.117188 42.125 64.179688 42.09375 64.242188 42.0625 L 64.292969 42.035156 C 64.335938 42.011719 64.382812 41.988281 64.425781 41.960938 L 64.496094 41.921875 C 64.5 41.921875 64.5 41.917969 64.503906 41.917969 C 64.546875 41.894531 64.589844 41.867188 64.632812 41.839844 L 64.660156 41.824219 C 64.710938 41.792969 64.753906 41.761719 64.8125 41.726562 L 64.828125 41.714844 C 64.875 41.683594 64.925781 41.648438 64.972656 41.613281 L 65.003906 41.589844 C 65.050781 41.558594 65.097656 41.523438 65.144531 41.484375 C 65.195312 41.445312 65.238281 41.410156 65.28125 41.371094 L 65.308594 41.347656 C 65.351562 41.3125 65.394531 41.273438 65.433594 41.238281 L 65.457031 41.214844 C 65.496094 41.175781 65.539062 41.136719 65.585938 41.089844 C 65.625 41.046875 65.664062 41.003906 65.707031 40.953125 L 65.992188 40.582031 L 65.996094 43.296875 C 65.996094 43.355469 65.996094 47.671875 66 52.238281 L 66 63.3125 L 66.214844 63.320312 L 66 63.339844 Z M 63.292969 66.296875 Z M 63.0625 66.375 Z M 62.296875 66.589844 Z M 38.003906 61.28125 L 37.59375 61.265625 L 35.902344 61.199219 L 35.679688 61.191406 L 35.664062 61.191406 L 35.460938 61.070312 L 9.007812 45.59375 L 9.007812 45.023438 L 11.460938 45.914062 C 11.472656 45.917969 11.484375 45.917969 11.496094 45.917969 C 11.53125 45.917969 11.5625 45.90625 11.582031 45.878906 C 11.589844 45.867188 11.597656 45.859375 11.601562 45.847656 C 11.628906 45.777344 11.605469 45.730469 11.535156 45.703125 L 9.007812 44.789062 L 9.007812 42.265625 L 13.914062 44.390625 C 13.925781 44.394531 13.941406 44.398438 13.957031 44.398438 C 13.980469 44.398438 14 44.390625 14.015625 44.378906 C 14.035156 44.367188 14.050781 44.351562 14.058594 44.332031 C 14.085938 44.261719 14.070312 44.214844 14.003906 44.1875 L 9.007812 42.023438 L 9.007812 42.019531 L 9.003906 38.832031 L 11.726562 40.4375 C 11.746094 40.445312 11.765625 40.449219 11.785156 40.453125 C 11.824219 40.449219 11.859375 40.433594 11.878906 40.398438 C 11.917969 40.332031 11.90625 40.28125 11.839844 40.246094 L 9.003906 38.574219 L 9.003906 34.890625 L 13.902344 37.769531 C 13.9375 37.792969 13.972656 37.792969 14.011719 37.769531 C 14.027344 37.757812 14.042969 37.746094 14.050781 37.730469 C 14.089844 37.664062 14.078125 37.613281 14.015625 37.578125 L 9.003906 34.632812 L 9 32.097656 L 11.609375 33.503906 C 11.625 33.511719 11.644531 33.515625 11.660156 33.515625 C 11.683594 33.515625 11.699219 33.511719 11.71875 33.5 C 11.734375 33.492188 11.75 33.476562 11.757812 33.457031 C 11.792969 33.390625 11.777344 33.34375 11.714844 33.308594 L 9.003906 31.84375 L 9 28.914062 L 11.722656 30.785156 C 11.742188 30.800781 11.761719 30.804688 11.785156 30.804688 C 11.816406 30.804688 11.84375 30.792969 11.867188 30.765625 C 11.871094 30.761719 11.875 30.761719 11.878906 30.757812 C 11.917969 30.695312 11.910156 30.644531 11.847656 30.601562 L 9 28.644531 L 9 26.90625 L 8.996094 25.246094 L 13.902344 28.253906 C 13.9375 28.273438 13.976562 28.273438 14.011719 28.253906 C 14.03125 28.246094 14.042969 28.230469 14.054688 28.214844 C 14.089844 28.152344 14.078125 28.101562 14.019531 28.0625 L 8.996094 24.984375 L 8.992188 23.222656 L 35.453125 38.699219 L 35.460938 38.707031 L 35.472656 38.710938 C 35.480469 38.71875 35.492188 38.722656 35.503906 38.726562 C 35.503906 38.726562 35.507812 38.726562 35.511719 38.730469 C 35.515625 38.730469 35.515625 38.730469 35.519531 38.730469 C 35.523438 38.734375 35.53125 38.734375 35.539062 38.738281 C 35.539062 38.738281 35.542969 38.738281 35.542969 38.738281 C 35.542969 38.738281 35.546875 38.742188 35.546875 38.742188 C 35.566406 38.742188 35.585938 38.746094 35.605469 38.742188 L 35.683594 38.738281 L 35.902344 38.714844 L 54.851562 37.011719 C 54.144531 37.589844 53.738281 38.277344 53.664062 39.003906 C 53.660156 39.078125 53.65625 39.152344 53.65625 39.222656 L 53.65625 39.285156 L 49.882812 39.667969 C 49.851562 39.671875 49.828125 39.683594 49.808594 39.707031 C 49.777344 39.742188 49.773438 39.78125 49.792969 39.824219 C 49.8125 39.867188 49.847656 39.886719 49.894531 39.886719 L 49.902344 39.886719 L 53.65625 39.507812 L 53.65625 42.046875 L 47.566406 42.8125 C 47.5 42.820312 47.46875 42.859375 47.472656 42.925781 C 47.476562 42.996094 47.511719 43.03125 47.582031 43.03125 L 47.59375 43.03125 L 53.65625 42.269531 L 53.660156 45.535156 L 50.632812 45.726562 C 50.601562 45.726562 50.578125 45.742188 50.554688 45.765625 C 50.535156 45.785156 50.527344 45.8125 50.527344 45.84375 C 50.53125 45.910156 50.570312 45.945312 50.636719 45.949219 C 50.640625 45.949219 50.644531 45.949219 50.644531 45.945312 L 53.660156 45.757812 L 53.660156 49.464844 L 47.582031 49.421875 C 47.507812 49.425781 47.472656 49.460938 47.472656 49.535156 C 47.472656 49.609375 47.507812 49.644531 47.582031 49.644531 L 53.660156 49.6875 L 53.664062 51.988281 L 53.664062 52.234375 L 53.265625 52.21875 L 49.144531 52.070312 C 49.113281 52.070312 49.089844 52.078125 49.066406 52.101562 C 49.042969 52.121094 49.03125 52.148438 49.03125 52.175781 C 49.027344 52.25 49.0625 52.289062 49.136719 52.292969 L 52.898438 52.425781 L 53.320312 52.441406 L 53.664062 52.453125 L 53.664062 55.480469 L 50.644531 55.371094 C 50.613281 55.371094 50.585938 55.382812 50.5625 55.402344 C 50.542969 55.421875 50.527344 55.449219 50.527344 55.476562 C 50.523438 55.550781 50.5625 55.589844 50.632812 55.59375 L 53.664062 55.703125 L 53.667969 59.113281 L 47.585938 58.941406 C 47.554688 58.941406 47.527344 58.953125 47.503906 58.972656 C 47.484375 58.992188 47.472656 59.019531 47.46875 59.046875 C 47.46875 59.121094 47.503906 59.160156 47.578125 59.164062 L 53.667969 59.335938 L 53.667969 61.886719 L 38.421875 61.300781 Z M 19.210938 16.089844 L 19.214844 16.089844 L 45.6875 31.476562 L 35.679688 37.253906 L 9.207031 21.867188 Z M 65.972656 39.195312 C 65.972656 39.21875 65.972656 39.246094 65.972656 39.273438 L 65.972656 39.300781 C 65.96875 39.328125 65.96875 39.351562 65.964844 39.378906 L 65.941406 39.535156 C 65.941406 39.554688 65.9375 39.578125 65.929688 39.59375 C 65.925781 39.621094 65.921875 39.648438 65.914062 39.671875 C 65.914062 39.679688 65.914062 39.683594 65.910156 39.691406 C 65.898438 39.734375 65.886719 39.773438 65.871094 39.816406 L 65.875 39.816406 L 65.867188 39.832031 C 65.855469 39.859375 65.847656 39.886719 65.835938 39.914062 L 65.824219 39.941406 C 65.8125 39.96875 65.800781 39.996094 65.789062 40.023438 L 65.785156 40.035156 C 65.769531 40.066406 65.757812 40.09375 65.742188 40.121094 L 65.746094 40.125 L 65.742188 40.132812 C 65.738281 40.136719 65.738281 40.140625 65.734375 40.148438 L 65.730469 40.144531 C 65.71875 40.167969 65.707031 40.1875 65.695312 40.207031 L 65.601562 40.363281 L 65.355469 40.679688 C 65.324219 40.71875 65.289062 40.757812 65.25 40.800781 C 65.210938 40.835938 65.175781 40.875 65.136719 40.910156 C 65.136719 40.910156 65.121094 40.925781 65.121094 40.925781 C 65.082031 40.960938 65.046875 40.996094 65.007812 41.027344 L 64.984375 41.050781 C 64.945312 41.082031 64.902344 41.117188 64.859375 41.152344 C 64.816406 41.183594 64.773438 41.21875 64.730469 41.246094 L 64.703125 41.269531 L 64.6875 41.277344 L 64.679688 41.269531 L 64.628906 41.320312 C 64.609375 41.335938 64.589844 41.347656 64.566406 41.363281 L 64.578125 41.375 L 64.5625 41.390625 C 64.558594 41.390625 64.558594 41.390625 64.558594 41.394531 L 64.546875 41.378906 C 64.503906 41.40625 64.460938 41.433594 64.417969 41.460938 L 64.390625 41.476562 C 64.351562 41.5 64.3125 41.523438 64.273438 41.546875 C 64.269531 41.546875 64.269531 41.546875 64.269531 41.550781 L 64.195312 41.589844 C 64.15625 41.613281 64.113281 41.632812 64.0625 41.660156 L 64.023438 41.683594 C 63.96875 41.710938 63.910156 41.742188 63.847656 41.769531 C 63.789062 41.796875 63.730469 41.824219 63.671875 41.851562 L 63.617188 41.875 L 63.457031 41.941406 L 63.425781 41.957031 C 63.359375 41.980469 63.292969 42.007812 63.226562 42.03125 L 63.175781 42.050781 C 63.117188 42.070312 63.054688 42.09375 62.992188 42.113281 L 62.957031 42.125 C 62.886719 42.144531 62.816406 42.167969 62.746094 42.1875 L 62.691406 42.203125 C 62.628906 42.222656 62.566406 42.242188 62.503906 42.257812 L 62.472656 42.265625 C 62.398438 42.285156 62.328125 42.300781 62.257812 42.316406 L 62.199219 42.328125 C 62.140625 42.34375 62.082031 42.355469 62.023438 42.367188 L 61.976562 42.375 C 61.90625 42.390625 61.832031 42.402344 61.757812 42.417969 L 61.710938 42.425781 C 61.644531 42.4375 61.578125 42.445312 61.515625 42.457031 L 61.46875 42.464844 C 61.378906 42.476562 61.289062 42.488281 61.199219 42.5 L 61.144531 42.503906 C 61.085938 42.511719 61.027344 42.519531 60.96875 42.523438 L 60.929688 42.527344 C 60.859375 42.53125 60.789062 42.539062 60.71875 42.542969 L 60.675781 42.546875 C 60.589844 42.550781 60.503906 42.554688 60.417969 42.558594 L 60.421875 42.585938 L 60.402344 42.585938 L 60.398438 42.558594 C 60.308594 42.5625 60.21875 42.5625 60.132812 42.566406 L 59.871094 42.566406 L 59.675781 42.5625 L 59.671875 42.589844 L 59.660156 42.589844 L 59.65625 42.5625 L 59.640625 42.5625 C 59.566406 42.558594 59.496094 42.554688 59.421875 42.546875 L 59.359375 42.546875 L 59.199219 42.535156 L 59.136719 42.53125 L 59.09375 42.523438 C 59.042969 42.519531 58.988281 42.515625 58.9375 42.511719 L 58.175781 42.402344 C 58.132812 42.390625 58.09375 42.386719 58.054688 42.375 L 57.734375 42.308594 L 57.613281 42.277344 L 57.515625 42.253906 C 57.476562 42.242188 57.433594 42.230469 57.386719 42.21875 L 57.300781 42.191406 C 57.261719 42.179688 57.21875 42.167969 57.175781 42.152344 L 57.089844 42.128906 C 57.046875 42.113281 57.007812 42.097656 56.964844 42.085938 L 56.882812 42.058594 C 56.851562 42.046875 56.816406 42.035156 56.78125 42.023438 L 56.683594 41.984375 C 56.648438 41.96875 56.613281 41.953125 56.574219 41.941406 L 56.488281 41.90625 C 56.449219 41.890625 56.414062 41.871094 56.367188 41.851562 L 56.300781 41.824219 C 56.246094 41.796875 56.191406 41.769531 56.136719 41.742188 L 56.128906 41.757812 L 56.117188 41.746094 L 56.121094 41.734375 C 56.066406 41.710938 56.015625 41.683594 55.964844 41.65625 C 55.957031 41.652344 55.949219 41.648438 55.941406 41.640625 C 55.882812 41.613281 55.828125 41.582031 55.773438 41.550781 L 55.742188 41.53125 L 55.722656 41.515625 C 55.679688 41.496094 55.640625 41.46875 55.601562 41.445312 L 55.542969 41.40625 C 55.535156 41.402344 55.527344 41.394531 55.519531 41.390625 C 55.492188 41.375 55.46875 41.359375 55.445312 41.339844 L 55.386719 41.300781 C 55.355469 41.277344 55.320312 41.253906 55.289062 41.230469 L 55.234375 41.1875 C 55.199219 41.160156 55.171875 41.136719 55.132812 41.105469 L 55.089844 41.070312 C 55.046875 41.035156 55.007812 40.996094 54.964844 40.960938 L 54.949219 40.945312 L 54.9375 40.953125 L 54.929688 40.945312 L 54.9375 40.933594 C 54.90625 40.90625 54.878906 40.878906 54.847656 40.847656 L 54.820312 40.820312 L 54.75 40.746094 C 54.714844 40.707031 54.683594 40.667969 54.652344 40.632812 L 54.625 40.597656 C 54.605469 40.574219 54.589844 40.554688 54.574219 40.535156 L 54.554688 40.503906 C 54.546875 40.5 54.542969 40.496094 54.539062 40.488281 L 54.503906 40.4375 L 54.480469 40.40625 C 54.460938 40.375 54.441406 40.339844 54.421875 40.308594 L 54.417969 40.304688 C 54.398438 40.273438 54.378906 40.242188 54.363281 40.207031 L 54.339844 40.171875 L 54.316406 40.121094 C 54.304688 40.101562 54.292969 40.078125 54.285156 40.058594 L 54.265625 40.015625 C 54.257812 39.996094 54.25 39.972656 54.238281 39.945312 L 54.222656 39.910156 C 54.21875 39.902344 54.21875 39.890625 54.214844 39.882812 C 54.207031 39.867188 54.203125 39.851562 54.195312 39.835938 C 54.195312 39.832031 54.195312 39.828125 54.195312 39.828125 C 54.195312 39.828125 54.195312 39.824219 54.191406 39.824219 C 54.191406 39.820312 54.191406 39.8125 54.1875 39.808594 C 54.1875 39.804688 54.1875 39.804688 54.1875 39.800781 C 54.183594 39.796875 54.183594 39.792969 54.183594 39.789062 C 54.171875 39.757812 54.164062 39.730469 54.15625 39.699219 C 54.15625 39.695312 54.15625 39.691406 54.152344 39.6875 C 54.152344 39.683594 54.148438 39.671875 54.148438 39.671875 C 54.144531 39.652344 54.140625 39.628906 54.136719 39.605469 C 54.128906 39.578125 54.125 39.546875 54.117188 39.515625 L 54.113281 39.480469 L 54.109375 39.441406 C 54.105469 39.433594 54.105469 39.425781 54.105469 39.417969 C 54.101562 39.375 54.101562 39.332031 54.097656 39.289062 C 54.09375 39.203125 54.097656 39.121094 54.105469 39.035156 C 54.171875 38.320312 54.628906 37.644531 55.421875 37.085938 C 55.523438 37.011719 55.636719 36.9375 55.78125 36.855469 L 55.800781 36.855469 L 55.828125 36.828125 C 55.886719 36.792969 55.945312 36.761719 56.003906 36.726562 C 57.015625 36.21875 58.082031 35.929688 59.210938 35.851562 L 59.429688 35.835938 C 59.503906 35.832031 59.574219 35.828125 59.648438 35.828125 C 61.375 35.757812 63.066406 36.125 64.28125 36.832031 C 65.285156 37.417969 65.882812 38.1875 65.964844 39.003906 C 65.972656 39.0625 65.976562 39.121094 65.976562 39.183594 C 65.972656 39.1875 65.972656 39.191406 65.972656 39.195312 Z M 59.199219 35.472656 L 59.191406 35.472656 C 57.996094 35.546875 56.867188 35.855469 55.796875 36.390625 C 55.730469 36.421875 55.667969 36.460938 55.601562 36.496094 L 35.898438 38.269531 L 35.898438 37.636719 L 45.90625 31.859375 L 45.90625 36.875 C 45.90625 36.917969 45.925781 36.949219 45.964844 36.972656 C 46 36.992188 46.035156 36.992188 46.074219 36.972656 L 49.191406 35.171875 C 49.230469 35.148438 49.246094 35.117188 49.246094 35.074219 L 49.246094 29.929688 L 59.199219 24.183594 Z M 49.027344 29.546875 L 49.023438 29.546875 L 22.554688 14.160156 L 32.503906 8.414062 L 58.980469 23.800781 Z M 48.804688 29.675781 L 48.914062 29.738281 L 49.027344 29.800781 L 49.027344 35.011719 L 46.128906 36.683594 L 46.128906 31.539062 C 46.128906 31.53125 46.128906 31.523438 46.125 31.515625 L 46.125 31.511719 L 46.121094 31.5 C 46.121094 31.5 46.121094 31.5 46.117188 31.496094 C 46.117188 31.492188 46.117188 31.488281 46.113281 31.484375 C 46.113281 31.480469 46.109375 31.480469 46.109375 31.476562 C 46.105469 31.472656 46.105469 31.46875 46.101562 31.46875 L 46.097656 31.460938 C 46.09375 31.457031 46.089844 31.457031 46.085938 31.453125 C 46.082031 31.449219 46.078125 31.445312 46.074219 31.445312 L 46.066406 31.441406 L 46.015625 31.414062 L 45.910156 31.347656 L 45.90625 31.347656 L 19.433594 15.960938 L 22.332031 14.289062 Z M 35.457031 37.636719 L 35.457031 38.191406 L 8.988281 22.707031 L 8.988281 22.25 Z M 8.988281 46.09375 L 35.417969 61.558594 C 35.421875 61.5625 35.425781 61.566406 35.429688 61.574219 C 35.441406 61.582031 35.449219 61.589844 35.460938 61.59375 L 35.460938 62.238281 L 8.988281 46.855469 Z M 35.902344 61.640625 L 36.875 61.679688 L 35.902344 62.242188 Z M 53.957031 63.800781 Z M 56.839844 66.320312 Z M 60.441406 66.828125 Z M 60.441406 66.828125 " fill-opacity="1" fill-rule="nonzero"/></g><path fill="#ffbf39" d="M 52.246094 53.1875 C 52.261719 53.179688 52.269531 53.171875 52.28125 53.160156 C 52.316406 53.109375 52.316406 53.0625 52.273438 53.019531 C 52.234375 52.972656 52.1875 52.964844 52.136719 52.996094 L 39.355469 60.375 C 39.34375 60.382812 39.332031 60.390625 39.320312 60.402344 C 39.289062 60.441406 39.289062 60.484375 39.3125 60.527344 C 39.335938 60.5625 39.367188 60.582031 39.410156 60.582031 C 39.429688 60.582031 39.449219 60.578125 39.464844 60.566406 Z M 52.246094 53.1875 " fill-opacity="1" fill-rule="nonzero"/><path fill="#ffbf39" d="M 62.644531 37.695312 C 61.828125 37.21875 60.714844 37.015625 59.640625 37.085938 C 59.570312 37.089844 59.496094 37.09375 59.421875 37.105469 C 59.347656 37.109375 59.273438 37.117188 59.203125 37.128906 C 58.578125 37.203125 57.992188 37.394531 57.441406 37.695312 C 57.273438 37.792969 57.117188 37.90625 56.96875 38.03125 C 56.023438 38.863281 56.175781 39.988281 57.425781 40.71875 C 57.46875 40.746094 57.515625 40.773438 57.5625 40.796875 C 57.65625 40.847656 57.753906 40.890625 57.851562 40.933594 C 58.054688 41.019531 58.261719 41.089844 58.476562 41.148438 C 58.582031 41.179688 58.691406 41.203125 58.808594 41.226562 C 58.917969 41.25 59.03125 41.269531 59.144531 41.285156 C 59.164062 41.289062 59.183594 41.289062 59.203125 41.292969 C 59.242188 41.300781 59.28125 41.300781 59.320312 41.308594 L 59.421875 41.316406 C 59.496094 41.324219 59.566406 41.332031 59.640625 41.335938 C 59.652344 41.335938 59.664062 41.335938 59.671875 41.335938 C 59.898438 41.347656 60.121094 41.347656 60.34375 41.339844 C 60.464844 41.332031 60.589844 41.324219 60.710938 41.308594 C 60.78125 41.300781 60.855469 41.292969 60.925781 41.28125 C 61.035156 41.265625 61.144531 41.246094 61.253906 41.222656 C 61.363281 41.199219 61.46875 41.175781 61.574219 41.148438 C 61.945312 41.050781 62.296875 40.910156 62.628906 40.71875 C 64.066406 39.886719 64.074219 38.53125 62.644531 37.695312 Z M 62.144531 40.394531 C 61.460938 40.789062 60.53125 40.953125 59.640625 40.890625 C 59.570312 40.882812 59.496094 40.875 59.421875 40.867188 C 59.347656 40.859375 59.273438 40.847656 59.203125 40.835938 C 58.746094 40.765625 58.316406 40.621094 57.914062 40.394531 C 57.367188 40.074219 57.066406 39.65625 57.066406 39.210938 C 57.085938 38.824219 57.25 38.515625 57.558594 38.28125 C 57.671875 38.183594 57.796875 38.09375 57.925781 38.019531 C 58.324219 37.800781 58.75 37.652344 59.203125 37.582031 C 59.273438 37.570312 59.347656 37.558594 59.421875 37.550781 C 59.496094 37.542969 59.566406 37.535156 59.640625 37.527344 C 59.777344 37.519531 59.910156 37.511719 60.046875 37.511719 C 60.792969 37.496094 61.5 37.667969 62.15625 38.019531 C 62.703125 38.339844 63.007812 38.761719 63.007812 39.203125 C 63 39.441406 62.925781 39.65625 62.78125 39.847656 C 62.609375 40.074219 62.394531 40.257812 62.144531 40.394531 Z M 62.144531 40.394531 " fill-opacity="1" fill-rule="nonzero"/><path fill="#ffbf39" d="M 35.582031 46.21875 C 35.507812 46.21875 35.46875 46.253906 35.46875 46.328125 L 35.46875 57.636719 C 35.46875 57.707031 35.507812 57.746094 35.578125 57.746094 C 35.601562 57.746094 35.621094 57.738281 35.640625 57.726562 C 35.65625 57.714844 35.671875 57.699219 35.679688 57.679688 C 35.6875 57.667969 35.691406 57.652344 35.691406 57.632812 L 35.691406 46.328125 C 35.691406 46.3125 35.6875 46.296875 35.679688 46.28125 C 35.660156 46.238281 35.625 46.21875 35.582031 46.21875 Z M 35.582031 46.21875 " fill-opacity="1" fill-rule="nonzero"/><path fill="#ffbf39" d="M 35.582031 41.703125 C 35.507812 41.703125 35.46875 41.738281 35.46875 41.8125 L 35.46875 44.140625 C 35.46875 44.210938 35.507812 44.25 35.578125 44.25 C 35.601562 44.25 35.621094 44.242188 35.640625 44.230469 C 35.65625 44.21875 35.671875 44.203125 35.679688 44.183594 C 35.6875 44.171875 35.691406 44.15625 35.691406 44.136719 L 35.691406 41.8125 C 35.691406 41.796875 35.6875 41.78125 35.679688 41.765625 C 35.660156 41.722656 35.625 41.703125 35.582031 41.703125 Z M 35.582031 41.703125 " fill-opacity="1" fill-rule="nonzero"/><path fill="#ffbf39" d="M 46.515625 31.339844 C 46.53125 31.339844 46.542969 31.335938 46.558594 31.328125 L 48.660156 30.113281 C 48.714844 30.085938 48.726562 30.046875 48.695312 29.996094 C 48.664062 29.941406 48.625 29.933594 48.574219 29.964844 L 46.472656 31.179688 C 46.433594 31.199219 46.421875 31.234375 46.429688 31.273438 C 46.441406 31.316406 46.46875 31.339844 46.515625 31.339844 Z M 46.515625 31.339844 " fill-opacity="1" fill-rule="nonzero"/></svg>