<svg xmlns="http://www.w3.org/2000/svg" xmlns:xlink="http://www.w3.org/1999/xlink" width="100" zoomAndPan="magnify" viewBox="0 0 75 74.999997" height="100" preserveAspectRatio="xMidYMid meet" version="1.0"><defs><clipPath id="905224b30b"><path d="M 8.089844 9 L 66.589844 9 L 66.589844 38 L 8.089844 38 Z M 8.089844 9 " clip-rule="nonzero"/></clipPath><clipPath id="9d03ceb039"><path d="M 28.160156 57.492188 L 38.675781 57.492188 L 38.675781 67.355469 L 28.160156 67.355469 Z M 28.160156 57.492188 " clip-rule="nonzero"/></clipPath><clipPath id="93acd184e6"><path d="M 36 7.5 L 39 7.5 L 39 12 L 36 12 Z M 36 7.5 " clip-rule="nonzero"/></clipPath></defs><g clip-path="url(#905224b30b)"><path fill="#ffbf39" d="M 37.5 30.75 C 39.425781 30.75 41.539062 31.265625 43.445312 32.207031 C 45.039062 32.992188 46.359375 34.023438 47.253906 35.167969 C 48.132812 34.015625 49.394531 32.988281 50.90625 32.210938 C 52.738281 31.269531 54.800781 30.75 56.714844 30.75 C 58.628906 30.75 60.691406 31.269531 62.53125 32.210938 C 63.613281 32.765625 64.566406 33.449219 65.347656 34.210938 C 64.703125 28.804688 61.777344 23.414062 57.101562 19.132812 C 51.683594 14.167969 44.539062 11.324219 37.5 11.324219 C 30.460938 11.324219 23.316406 14.167969 17.898438 19.132812 C 13.222656 23.414062 10.296875 28.804688 9.652344 34.210938 C 10.429688 33.449219 11.386719 32.765625 12.46875 32.210938 C 14.304688 31.269531 16.371094 30.75 18.285156 30.75 C 20.195312 30.75 22.257812 31.269531 24.089844 32.210938 C 25.601562 32.988281 26.867188 34.015625 27.746094 35.167969 C 28.640625 34.023438 29.957031 32.992188 31.550781 32.207031 C 33.457031 31.265625 35.570312 30.75 37.5 30.75 Z M 8.804688 37.175781 C 8.746094 37.175781 8.6875 37.167969 8.628906 37.152344 C 8.3125 37.074219 8.089844 36.789062 8.089844 36.460938 C 8.089844 29.929688 11.3125 23.230469 16.933594 18.082031 C 19.691406 15.554688 22.839844 13.554688 26.292969 12.140625 C 29.925781 10.652344 33.695312 9.898438 37.5 9.898438 C 41.300781 9.898438 45.074219 10.652344 48.707031 12.140625 C 52.15625 13.554688 55.304688 15.554688 58.0625 18.082031 C 63.683594 23.230469 66.90625 29.929688 66.90625 36.460938 C 66.90625 36.789062 66.6875 37.074219 66.371094 37.152344 C 66.054688 37.234375 65.726562 37.089844 65.570312 36.804688 C 64.148438 34.210938 60.257812 32.175781 56.714844 32.175781 C 53.183594 32.175781 49.304688 34.210938 47.882812 36.804688 C 47.757812 37.035156 47.515625 37.175781 47.257812 37.175781 C 46.996094 37.175781 46.757812 37.035156 46.632812 36.804688 C 45.234375 34.253906 41.136719 32.175781 37.5 32.175781 C 33.859375 32.175781 29.761719 34.253906 28.367188 36.804688 C 28.242188 37.035156 28 37.175781 27.742188 37.175781 C 27.480469 37.175781 27.242188 37.035156 27.117188 36.804688 C 25.695312 34.210938 21.816406 32.175781 18.285156 32.175781 C 14.738281 32.175781 10.851562 34.210938 9.429688 36.804688 C 9.300781 37.039062 9.058594 37.175781 8.804688 37.175781 " fill-opacity="1" fill-rule="nonzero"/></g><path fill="#ffbf39" d="M 33.09375 66.933594 C 32.34375 66.933594 31.597656 66.761719 30.929688 66.425781 C 29.894531 65.902344 29.09375 65.023438 28.605469 63.890625 C 28.453125 63.527344 28.621094 63.109375 28.980469 62.953125 C 29.34375 62.800781 29.761719 62.96875 29.917969 63.328125 C 30.707031 65.171875 32.425781 65.71875 33.78125 65.441406 C 35.234375 65.140625 36.785156 63.84375 36.785156 61.085938 L 36.785156 31.460938 C 36.785156 31.070312 37.105469 30.75 37.5 30.75 C 37.890625 30.75 38.210938 31.070312 38.210938 31.460938 L 38.210938 61.085938 C 38.210938 62.621094 37.785156 63.980469 36.984375 65.015625 C 36.25 65.953125 35.21875 66.601562 34.070312 66.835938 C 33.746094 66.902344 33.417969 66.933594 33.09375 66.933594 " fill-opacity="1" fill-rule="nonzero"/><g clip-path="url(#9d03ceb039)"><path fill="#ffbf39" d="M 33.09375 67.355469 C 32.273438 67.355469 31.460938 67.164062 30.742188 66.800781 C 29.617188 66.234375 28.746094 65.285156 28.21875 64.054688 C 28.144531 63.882812 28.144531 63.683594 28.214844 63.507812 C 28.285156 63.335938 28.421875 63.195312 28.59375 63.121094 L 29.371094 62.789062 C 29.730469 62.632812 30.148438 62.800781 30.304688 63.164062 C 31 64.789062 32.507812 65.269531 33.699219 65.027344 C 34.929688 64.773438 36.363281 63.589844 36.363281 61.085938 L 36.363281 58.207031 C 36.363281 57.8125 36.683594 57.496094 37.078125 57.496094 L 37.921875 57.496094 C 38.3125 57.496094 38.632812 57.8125 38.632812 58.207031 L 38.632812 61.085938 C 38.632812 62.71875 38.175781 64.164062 37.316406 65.273438 C 36.523438 66.292969 35.398438 66.992188 34.152344 67.25 C 33.804688 67.320312 33.449219 67.355469 33.09375 67.355469 " fill-opacity="1" fill-rule="nonzero"/></g><g clip-path="url(#93acd184e6)"><path fill="#ffbf39" d="M 37.5 11.324219 C 37.105469 11.324219 36.785156 11.003906 36.785156 10.609375 L 36.785156 8.210938 C 36.785156 7.820312 37.105469 7.5 37.5 7.5 C 37.890625 7.5 38.210938 7.820312 38.210938 8.210938 L 38.210938 10.609375 C 38.210938 11.003906 37.890625 11.324219 37.5 11.324219 " fill-opacity="1" fill-rule="nonzero"/></g></svg>