<svg xmlns="http://www.w3.org/2000/svg" xmlns:xlink="http://www.w3.org/1999/xlink" width="100" zoomAndPan="magnify" viewBox="0 0 75 74.999997" height="100" preserveAspectRatio="xMidYMid meet" version="1.0"><defs><clipPath id="17314b8e92"><path d="M 8.550781 9.863281 L 64.453125 9.863281 L 64.453125 61.675781 L 8.550781 61.675781 Z M 8.550781 9.863281 " clip-rule="nonzero"/></clipPath><clipPath id="bf23aa44e2"><path d="M 40.804688 37.390625 L 68.550781 37.390625 L 68.550781 65.136719 L 40.804688 65.136719 Z M 40.804688 37.390625 " clip-rule="nonzero"/></clipPath><clipPath id="bde62ca846"><path d="M 54.679688 37.390625 C 47.015625 37.390625 40.804688 43.601562 40.804688 51.261719 C 40.804688 58.925781 47.015625 65.136719 54.679688 65.136719 C 62.339844 65.136719 68.550781 58.925781 68.550781 51.261719 C 68.550781 43.601562 62.339844 37.390625 54.679688 37.390625 Z M 54.679688 37.390625 " clip-rule="nonzero"/></clipPath><clipPath id="237fcfd839"><path d="M 42.609375 39.195312 L 66.765625 39.195312 L 66.765625 63.351562 L 42.609375 63.351562 Z M 42.609375 39.195312 " clip-rule="nonzero"/></clipPath></defs><g clip-path="url(#17314b8e92)"><path fill="#ffbf39" d="M 36.453125 9.863281 C 32.082031 9.863281 28.492188 13.457031 28.492188 17.828125 C 28.492188 19.289062 28.925781 20.628906 29.609375 21.808594 L 18.535156 21.808594 C 17.601562 21.808594 16.792969 22.464844 16.59375 23.367188 L 8.628906 59.203125 C 8.488281 59.792969 8.644531 60.414062 9.015625 60.882812 C 9.390625 61.347656 9.964844 61.628906 10.574219 61.628906 L 62.335938 61.628906 C 62.945312 61.628906 63.519531 61.347656 63.890625 60.882812 C 64.265625 60.414062 64.421875 59.792969 64.28125 59.203125 L 56.316406 23.367188 C 56.117188 22.464844 55.304688 21.808594 54.375 21.808594 L 43.296875 21.808594 C 43.984375 20.628906 44.417969 19.289062 44.417969 17.828125 C 44.417969 13.457031 40.824219 9.863281 36.453125 9.863281 Z M 36.453125 13.847656 C 38.679688 13.847656 40.4375 15.605469 40.4375 17.828125 C 40.4375 20.050781 38.679688 21.808594 36.453125 21.808594 C 34.230469 21.808594 32.472656 20.050781 32.472656 17.828125 C 32.472656 15.605469 34.230469 13.847656 36.453125 13.847656 Z M 20.121094 25.792969 L 52.769531 25.792969 L 59.847656 57.648438 L 13.0625 57.648438 Z M 20.121094 25.792969 " fill-opacity="1" fill-rule="nonzero"/></g><g clip-path="url(#bf23aa44e2)"><g clip-path="url(#bde62ca846)"><path fill="#fdfdfd" d="M 40.804688 37.390625 L 68.550781 37.390625 L 68.550781 65.136719 L 40.804688 65.136719 Z M 40.804688 37.390625 " fill-opacity="1" fill-rule="nonzero"/></g></g><g clip-path="url(#237fcfd839)"><path fill="#ffbf39" d="M 54.675781 39.195312 C 48.023438 39.195312 42.609375 44.609375 42.609375 51.261719 C 42.609375 57.917969 48.023438 63.328125 54.675781 63.328125 C 61.332031 63.328125 66.742188 57.917969 66.742188 51.261719 C 66.742188 44.609375 61.332031 39.195312 54.675781 39.195312 Z M 54.675781 60.992188 C 49.3125 60.992188 44.945312 56.628906 44.945312 51.261719 C 44.945312 45.898438 49.3125 41.53125 54.675781 41.53125 C 60.042969 41.53125 64.40625 45.898438 64.40625 51.261719 C 64.40625 56.628906 60.042969 60.992188 54.675781 60.992188 Z M 54.675781 60.992188 " fill-opacity="1" fill-rule="nonzero"/></g><path fill="#ffbf39" d="M 59.203125 50.09375 L 55.84375 50.09375 L 55.84375 46.738281 C 55.84375 46.09375 55.320312 45.570312 54.675781 45.570312 C 54.03125 45.570312 53.507812 46.09375 53.507812 46.738281 L 53.507812 50.09375 L 50.152344 50.09375 C 49.507812 50.09375 48.984375 50.617188 48.984375 51.261719 C 48.984375 51.90625 49.507812 52.429688 50.152344 52.429688 L 53.507812 52.429688 L 53.507812 55.789062 C 53.507812 56.433594 54.03125 56.957031 54.675781 56.957031 C 55.320312 56.957031 55.84375 56.433594 55.84375 55.789062 L 55.84375 52.429688 L 59.203125 52.429688 C 59.847656 52.429688 60.371094 51.90625 60.371094 51.261719 C 60.371094 50.617188 59.847656 50.09375 59.203125 50.09375 Z M 59.203125 50.09375 " fill-opacity="1" fill-rule="nonzero"/></svg>