<svg xmlns="http://www.w3.org/2000/svg" xmlns:xlink="http://www.w3.org/1999/xlink" width="100" zoomAndPan="magnify" viewBox="0 0 75 74.999997" height="100" preserveAspectRatio="xMidYMid meet" version="1.0"><defs><clipPath id="be812895a5"><path d="M 7.5 7.5 L 67.5 7.5 L 67.5 67.5 L 7.5 67.5 Z M 7.5 7.5 " clip-rule="nonzero"/></clipPath></defs><path fill="#ffbf39" d="M 49.722656 23.054688 C 49.871094 23.054688 50.011719 23.027344 50.148438 22.972656 C 50.285156 22.914062 50.402344 22.835938 50.507812 22.730469 C 50.613281 22.625 50.691406 22.503906 50.75 22.371094 C 50.804688 22.234375 50.832031 22.089844 50.832031 21.945312 L 50.832031 17.5 C 50.832031 17.351562 50.804688 17.210938 50.75 17.074219 C 50.691406 16.9375 50.613281 16.820312 50.507812 16.714844 C 50.402344 16.609375 50.285156 16.53125 50.148438 16.472656 C 50.011719 16.417969 49.871094 16.390625 49.722656 16.390625 C 49.574219 16.390625 49.433594 16.417969 49.296875 16.472656 C 49.160156 16.53125 49.039062 16.609375 48.9375 16.714844 C 48.832031 16.820312 48.753906 16.9375 48.695312 17.074219 C 48.640625 17.210938 48.609375 17.351562 48.609375 17.5 L 48.609375 21.945312 C 48.609375 22.089844 48.640625 22.234375 48.695312 22.371094 C 48.753906 22.503906 48.832031 22.625 48.9375 22.730469 C 49.039062 22.835938 49.160156 22.914062 49.296875 22.972656 C 49.433594 23.027344 49.574219 23.054688 49.722656 23.054688 Z M 49.722656 23.054688 " fill-opacity="1" fill-rule="nonzero"/><path fill="#ffbf39" d="M 49.722656 34.167969 C 49.574219 34.167969 49.433594 34.195312 49.296875 34.25 C 49.160156 34.308594 49.039062 34.386719 48.9375 34.492188 C 48.832031 34.597656 48.753906 34.714844 48.695312 34.851562 C 48.640625 34.988281 48.609375 35.128906 48.609375 35.277344 L 48.609375 39.722656 C 48.609375 39.871094 48.640625 40.011719 48.695312 40.148438 C 48.753906 40.285156 48.832031 40.402344 48.9375 40.507812 C 49.039062 40.613281 49.160156 40.691406 49.296875 40.75 C 49.433594 40.804688 49.574219 40.832031 49.722656 40.832031 C 49.871094 40.832031 50.011719 40.804688 50.148438 40.75 C 50.285156 40.691406 50.402344 40.613281 50.507812 40.507812 C 50.613281 40.402344 50.691406 40.285156 50.75 40.148438 C 50.804688 40.011719 50.832031 39.871094 50.832031 39.722656 L 50.832031 35.277344 C 50.832031 35.128906 50.804688 34.988281 50.75 34.851562 C 50.691406 34.714844 50.613281 34.597656 50.507812 34.492188 C 50.402344 34.386719 50.285156 34.308594 50.148438 34.25 C 50.011719 34.195312 49.871094 34.167969 49.722656 34.167969 Z M 49.722656 34.167969 " fill-opacity="1" fill-rule="nonzero"/><path fill="#ffbf39" d="M 25.277344 58.609375 C 25.863281 58.609375 26.441406 58.554688 27.011719 58.441406 C 27.585938 58.328125 28.140625 58.15625 28.679688 57.933594 C 29.21875 57.710938 29.730469 57.4375 30.214844 57.113281 C 30.703125 56.789062 31.152344 56.421875 31.5625 56.007812 C 31.976562 55.59375 32.34375 55.144531 32.667969 54.660156 C 32.992188 54.175781 33.265625 53.664062 33.488281 53.125 C 33.714844 52.585938 33.882812 52.027344 33.996094 51.457031 C 34.109375 50.882812 34.167969 50.304688 34.167969 49.722656 C 34.167969 49.136719 34.109375 48.558594 33.996094 47.988281 C 33.882812 47.414062 33.714844 46.859375 33.488281 46.320312 C 33.265625 45.78125 32.992188 45.269531 32.667969 44.785156 C 32.34375 44.296875 31.976562 43.847656 31.5625 43.4375 C 31.152344 43.023438 30.703125 42.65625 30.214844 42.332031 C 29.730469 42.007812 29.21875 41.734375 28.679688 41.511719 C 28.140625 41.285156 27.585938 41.117188 27.011719 41.003906 C 26.441406 40.890625 25.863281 40.832031 25.277344 40.832031 C 24.695312 40.832031 24.117188 40.890625 23.542969 41.003906 C 22.972656 41.117188 22.414062 41.285156 21.875 41.511719 C 21.335938 41.734375 20.824219 42.007812 20.339844 42.332031 C 19.855469 42.65625 19.40625 43.023438 18.992188 43.4375 C 18.578125 43.847656 18.210938 44.296875 17.886719 44.785156 C 17.5625 45.269531 17.289062 45.78125 17.066406 46.320312 C 16.84375 46.859375 16.671875 47.414062 16.558594 47.988281 C 16.445312 48.558594 16.390625 49.136719 16.390625 49.722656 C 16.390625 50.304688 16.445312 50.882812 16.558594 51.457031 C 16.671875 52.027344 16.84375 52.585938 17.066406 53.125 C 17.289062 53.664062 17.5625 54.175781 17.886719 54.660156 C 18.210938 55.144531 18.578125 55.59375 18.992188 56.007812 C 19.40625 56.421875 19.855469 56.789062 20.339844 57.113281 C 20.824219 57.4375 21.335938 57.710938 21.875 57.933594 C 22.414062 58.15625 22.972656 58.328125 23.542969 58.441406 C 24.117188 58.554688 24.695312 58.609375 25.277344 58.609375 Z M 25.277344 43.054688 C 25.554688 43.054688 25.832031 43.070312 26.105469 43.101562 C 26.382812 43.136719 26.652344 43.1875 26.921875 43.253906 C 27.191406 43.320312 27.457031 43.402344 27.714844 43.503906 C 27.972656 43.601562 28.226562 43.71875 28.46875 43.851562 C 28.714844 43.980469 28.949219 44.128906 29.175781 44.289062 C 29.402344 44.449219 29.617188 44.621094 29.820312 44.808594 C 30.023438 44.996094 30.214844 45.195312 30.394531 45.40625 C 30.574219 45.621094 30.742188 45.839844 30.894531 46.074219 C 31.042969 46.304688 31.179688 46.546875 31.304688 46.796875 C 31.425781 47.042969 31.53125 47.300781 31.621094 47.5625 C 31.710938 47.824219 31.785156 48.089844 31.839844 48.363281 C 31.898438 48.632812 31.9375 48.910156 31.957031 49.183594 C 31.980469 49.460938 31.984375 49.738281 31.972656 50.015625 C 31.960938 50.292969 31.933594 50.566406 31.886719 50.839844 C 31.839844 51.113281 31.777344 51.382812 31.695312 51.648438 C 31.617188 51.914062 31.519531 52.175781 31.40625 52.425781 C 31.292969 52.679688 31.167969 52.925781 31.023438 53.164062 C 30.878906 53.402344 30.722656 53.628906 30.550781 53.847656 C 30.378906 54.066406 30.195312 54.269531 29.996094 54.464844 C 29.800781 54.660156 29.589844 54.84375 29.371094 55.011719 C 29.152344 55.179688 28.921875 55.335938 28.683594 55.476562 C 28.441406 55.613281 28.195312 55.738281 27.941406 55.847656 C 27.6875 55.957031 27.425781 56.050781 27.160156 56.128906 C 26.894531 56.203125 26.621094 56.265625 26.347656 56.308594 C 26.074219 56.351562 25.800781 56.375 25.523438 56.386719 C 25.246094 56.394531 24.96875 56.386719 24.691406 56.359375 C 24.417969 56.332031 24.144531 56.292969 23.871094 56.230469 C 23.601562 56.171875 23.335938 56.09375 23.074219 56 C 22.8125 55.910156 22.558594 55.800781 22.3125 55.675781 C 22.0625 55.550781 21.824219 55.410156 21.59375 55.253906 C 21.363281 55.101562 21.144531 54.933594 20.933594 54.75 C 20.726562 54.566406 20.53125 54.375 20.34375 54.167969 L 20.445312 54.167969 C 20.816406 54.085938 21.160156 53.941406 21.484375 53.742188 C 21.804688 53.542969 22.085938 53.292969 22.324219 53 C 22.558594 52.703125 22.742188 52.375 22.867188 52.015625 C 22.992188 51.660156 23.054688 51.289062 23.054688 50.910156 L 23.054688 48.535156 C 23.054688 48.152344 22.992188 47.785156 22.867188 47.425781 C 22.742188 47.070312 22.558594 46.742188 22.324219 46.445312 C 22.085938 46.152344 21.804688 45.902344 21.484375 45.703125 C 21.160156 45.5 20.816406 45.359375 20.445312 45.277344 L 20.332031 45.277344 C 20.960938 44.574219 21.707031 44.027344 22.570312 43.640625 C 23.429688 43.253906 24.332031 43.058594 25.277344 43.054688 Z M 18.609375 49.722656 C 18.613281 48.871094 18.773438 48.046875 19.089844 47.253906 L 19.964844 47.457031 C 20.226562 47.515625 20.4375 47.648438 20.597656 47.855469 C 20.761719 48.066406 20.839844 48.300781 20.832031 48.566406 L 20.832031 50.945312 C 20.839844 51.210938 20.761719 51.445312 20.597656 51.65625 C 20.4375 51.863281 20.226562 51.996094 19.964844 52.054688 L 19.089844 52.253906 C 18.765625 51.441406 18.605469 50.597656 18.609375 49.722656 Z M 18.609375 49.722656 " fill-opacity="1" fill-rule="nonzero"/><path fill="#ffbf39" d="M 35.277344 31.945312 L 37.5 31.945312 C 37.648438 31.945312 37.789062 31.917969 37.925781 31.859375 C 38.0625 31.804688 38.179688 31.722656 38.285156 31.617188 C 38.390625 31.515625 38.46875 31.394531 38.527344 31.257812 C 38.582031 31.121094 38.609375 30.980469 38.609375 30.832031 C 38.609375 30.6875 38.582031 30.542969 38.527344 30.40625 C 38.46875 30.273438 38.390625 30.152344 38.285156 30.046875 C 38.179688 29.945312 38.0625 29.863281 37.925781 29.808594 C 37.789062 29.75 37.648438 29.722656 37.5 29.722656 L 35.277344 29.722656 C 35.128906 29.722656 34.988281 29.75 34.851562 29.808594 C 34.714844 29.863281 34.597656 29.945312 34.492188 30.046875 C 34.386719 30.152344 34.308594 30.273438 34.25 30.40625 C 34.195312 30.542969 34.167969 30.6875 34.167969 30.832031 C 34.167969 30.980469 34.195312 31.121094 34.25 31.257812 C 34.308594 31.394531 34.386719 31.515625 34.492188 31.617188 C 34.597656 31.722656 34.714844 31.804688 34.851562 31.859375 C 34.988281 31.917969 35.128906 31.945312 35.277344 31.945312 Z M 35.277344 31.945312 " fill-opacity="1" fill-rule="nonzero"/><path fill="#ffbf39" d="M 13.054688 31.945312 L 15.277344 31.945312 C 15.425781 31.945312 15.566406 31.917969 15.703125 31.859375 C 15.839844 31.804688 15.960938 31.722656 16.0625 31.617188 C 16.167969 31.515625 16.246094 31.394531 16.304688 31.257812 C 16.359375 31.121094 16.390625 30.980469 16.390625 30.832031 C 16.390625 30.6875 16.359375 30.542969 16.304688 30.40625 C 16.246094 30.273438 16.167969 30.152344 16.0625 30.046875 C 15.960938 29.945312 15.839844 29.863281 15.703125 29.808594 C 15.566406 29.75 15.425781 29.722656 15.277344 29.722656 L 13.054688 29.722656 C 12.910156 29.722656 12.765625 29.75 12.628906 29.808594 C 12.496094 29.863281 12.375 29.945312 12.269531 30.046875 C 12.164062 30.152344 12.085938 30.273438 12.027344 30.40625 C 11.972656 30.542969 11.945312 30.6875 11.945312 30.832031 C 11.945312 30.980469 11.972656 31.121094 12.027344 31.257812 C 12.085938 31.394531 12.164062 31.515625 12.269531 31.617188 C 12.375 31.722656 12.496094 31.804688 12.628906 31.859375 C 12.765625 31.917969 12.910156 31.945312 13.054688 31.945312 Z M 13.054688 31.945312 " fill-opacity="1" fill-rule="nonzero"/><path fill="#ffbf39" d="M 19.722656 31.945312 L 30.832031 31.945312 C 30.980469 31.945312 31.121094 31.917969 31.257812 31.859375 C 31.394531 31.804688 31.515625 31.722656 31.617188 31.617188 C 31.722656 31.515625 31.804688 31.394531 31.859375 31.257812 C 31.917969 31.121094 31.945312 30.980469 31.945312 30.832031 C 31.945312 30.6875 31.917969 30.542969 31.859375 30.40625 C 31.804688 30.273438 31.722656 30.152344 31.617188 30.046875 C 31.515625 29.945312 31.394531 29.863281 31.257812 29.808594 C 31.121094 29.75 30.980469 29.722656 30.832031 29.722656 L 19.722656 29.722656 C 19.574219 29.722656 19.433594 29.75 19.296875 29.808594 C 19.160156 29.863281 19.039062 29.945312 18.9375 30.046875 C 18.832031 30.152344 18.753906 30.273438 18.695312 30.40625 C 18.640625 30.542969 18.609375 30.6875 18.609375 30.832031 C 18.609375 30.980469 18.640625 31.121094 18.695312 31.257812 C 18.753906 31.394531 18.832031 31.515625 18.9375 31.617188 C 19.039062 31.722656 19.160156 31.804688 19.296875 31.859375 C 19.433594 31.917969 19.574219 31.945312 19.722656 31.945312 Z M 19.722656 31.945312 " fill-opacity="1" fill-rule="nonzero"/><g clip-path="url(#be812895a5)"><path fill="#ffbf39" d="M 64.167969 43.054688 L 55.277344 43.054688 L 55.277344 10.832031 C 55.277344 10.390625 55.191406 9.964844 55.023438 9.558594 C 54.855469 9.148438 54.613281 8.789062 54.300781 8.476562 C 53.988281 8.164062 53.628906 7.921875 53.21875 7.753906 C 52.8125 7.585938 52.386719 7.5 51.945312 7.5 L 23.054688 7.5 C 22.613281 7.5 22.1875 7.585938 21.78125 7.753906 C 21.371094 7.921875 21.011719 8.164062 20.699219 8.476562 C 20.386719 8.789062 20.144531 9.148438 19.976562 9.558594 C 19.808594 9.964844 19.722656 10.390625 19.722656 10.832031 L 19.722656 25.277344 L 10.832031 25.277344 C 10.390625 25.277344 9.964844 25.363281 9.558594 25.53125 C 9.148438 25.699219 8.789062 25.941406 8.476562 26.253906 C 8.164062 26.566406 7.921875 26.925781 7.753906 27.335938 C 7.585938 27.742188 7.5 28.167969 7.5 28.609375 L 7.5 64.167969 C 7.5 64.609375 7.585938 65.035156 7.753906 65.441406 C 7.921875 65.851562 8.164062 66.210938 8.476562 66.523438 C 8.789062 66.835938 9.148438 67.078125 9.558594 67.246094 C 9.964844 67.414062 10.390625 67.5 10.832031 67.5 L 64.167969 67.5 C 64.609375 67.5 65.035156 67.414062 65.441406 67.246094 C 65.851562 67.078125 66.210938 66.835938 66.523438 66.523438 C 66.835938 66.210938 67.078125 65.851562 67.246094 65.441406 C 67.414062 65.035156 67.5 64.609375 67.5 64.167969 L 67.5 46.390625 C 67.5 45.945312 67.414062 45.523438 67.246094 45.113281 C 67.078125 44.703125 66.835938 44.34375 66.523438 44.03125 C 66.210938 43.71875 65.851562 43.476562 65.441406 43.308594 C 65.035156 43.140625 64.609375 43.054688 64.167969 43.054688 Z M 43.054688 43.054688 L 43.054688 31.945312 L 53.054688 31.945312 L 53.054688 43.054688 Z M 21.945312 10.832031 C 21.945312 10.6875 21.972656 10.542969 22.027344 10.40625 C 22.085938 10.273438 22.164062 10.152344 22.269531 10.046875 C 22.375 9.945312 22.496094 9.863281 22.628906 9.808594 C 22.765625 9.75 22.910156 9.722656 23.054688 9.722656 L 32.367188 9.722656 L 31.253906 11.945312 L 21.945312 11.945312 Z M 21.945312 14.167969 L 31.945312 14.167969 C 32.398438 14.164062 32.730469 13.960938 32.933594 13.554688 L 34.855469 9.722656 L 51.945312 9.722656 C 52.089844 9.722656 52.234375 9.75 52.371094 9.808594 C 52.503906 9.863281 52.625 9.945312 52.730469 10.046875 C 52.835938 10.152344 52.914062 10.273438 52.972656 10.40625 C 53.027344 10.542969 53.054688 10.6875 53.054688 10.832031 L 53.054688 29.722656 L 43.054688 29.722656 L 43.054688 28.609375 C 43.054688 28.167969 42.972656 27.742188 42.800781 27.335938 C 42.632812 26.925781 42.390625 26.566406 42.078125 26.253906 C 41.765625 25.941406 41.40625 25.699219 40.996094 25.53125 C 40.589844 25.363281 40.164062 25.277344 39.722656 25.277344 L 21.945312 25.277344 Z M 10.832031 27.5 L 39.722656 27.5 C 39.871094 27.5 40.011719 27.527344 40.148438 27.585938 C 40.285156 27.640625 40.402344 27.722656 40.507812 27.824219 C 40.613281 27.929688 40.691406 28.050781 40.75 28.1875 C 40.804688 28.320312 40.832031 28.464844 40.832031 28.609375 L 40.832031 34.167969 L 9.722656 34.167969 L 9.722656 28.609375 C 9.722656 28.464844 9.75 28.320312 9.808594 28.1875 C 9.863281 28.050781 9.945312 27.929688 10.046875 27.824219 C 10.152344 27.722656 10.273438 27.640625 10.40625 27.585938 C 10.542969 27.527344 10.6875 27.5 10.832031 27.5 Z M 9.722656 64.167969 L 9.722656 36.390625 L 40.832031 36.390625 L 40.832031 43.054688 L 39.722656 43.054688 C 39.28125 43.054688 38.855469 43.140625 38.445312 43.308594 C 38.039062 43.476562 37.679688 43.71875 37.363281 44.03125 C 37.050781 44.34375 36.8125 44.703125 36.644531 45.113281 C 36.472656 45.523438 36.390625 45.945312 36.390625 46.390625 L 36.390625 60.832031 L 13.054688 60.832031 C 12.910156 60.832031 12.765625 60.863281 12.628906 60.917969 C 12.496094 60.972656 12.375 61.054688 12.269531 61.160156 C 12.164062 61.261719 12.085938 61.382812 12.027344 61.519531 C 11.972656 61.65625 11.945312 61.796875 11.945312 61.945312 C 11.945312 62.089844 11.972656 62.234375 12.027344 62.371094 C 12.085938 62.503906 12.164062 62.625 12.269531 62.730469 C 12.375 62.835938 12.496094 62.914062 12.628906 62.972656 C 12.765625 63.027344 12.910156 63.054688 13.054688 63.054688 L 36.390625 63.054688 L 36.390625 64.167969 C 36.390625 64.546875 36.457031 64.917969 36.589844 65.277344 L 10.832031 65.277344 C 10.6875 65.277344 10.542969 65.25 10.40625 65.191406 C 10.273438 65.136719 10.152344 65.054688 10.046875 64.953125 C 9.945312 64.847656 9.863281 64.726562 9.808594 64.59375 C 9.75 64.457031 9.722656 64.3125 9.722656 64.167969 Z M 65.277344 64.167969 C 65.277344 64.3125 65.25 64.457031 65.191406 64.59375 C 65.136719 64.726562 65.054688 64.847656 64.953125 64.953125 C 64.847656 65.054688 64.726562 65.136719 64.59375 65.191406 C 64.457031 65.25 64.3125 65.277344 64.167969 65.277344 L 39.722656 65.277344 C 39.574219 65.277344 39.433594 65.25 39.296875 65.191406 C 39.160156 65.136719 39.039062 65.054688 38.9375 64.953125 C 38.832031 64.847656 38.753906 64.726562 38.695312 64.59375 C 38.640625 64.457031 38.609375 64.3125 38.609375 64.167969 L 38.609375 46.390625 C 38.609375 46.242188 38.640625 46.101562 38.695312 45.964844 C 38.753906 45.828125 38.832031 45.707031 38.9375 45.601562 C 39.039062 45.5 39.160156 45.417969 39.296875 45.363281 C 39.433594 45.304688 39.574219 45.277344 39.722656 45.277344 L 64.167969 45.277344 C 64.3125 45.277344 64.457031 45.304688 64.59375 45.363281 C 64.726562 45.417969 64.847656 45.5 64.953125 45.601562 C 65.054688 45.707031 65.136719 45.828125 65.191406 45.964844 C 65.25 46.101562 65.277344 46.242188 65.277344 46.390625 Z M 65.277344 64.167969 " fill-opacity="1" fill-rule="nonzero"/></g><path fill="#ffbf39" d="M 55.277344 47.5 L 41.945312 47.5 C 41.796875 47.5 41.65625 47.527344 41.519531 47.585938 C 41.382812 47.640625 41.261719 47.722656 41.160156 47.824219 C 41.054688 47.929688 40.972656 48.050781 40.917969 48.1875 C 40.863281 48.320312 40.832031 48.464844 40.832031 48.609375 L 40.832031 61.945312 C 40.832031 62.089844 40.863281 62.234375 40.917969 62.371094 C 40.972656 62.503906 41.054688 62.625 41.160156 62.730469 C 41.261719 62.835938 41.382812 62.914062 41.519531 62.972656 C 41.65625 63.027344 41.796875 63.054688 41.945312 63.054688 L 55.277344 63.054688 C 55.425781 63.054688 55.566406 63.027344 55.703125 62.972656 C 55.839844 62.914062 55.960938 62.835938 56.0625 62.730469 C 56.167969 62.625 56.246094 62.503906 56.304688 62.371094 C 56.359375 62.234375 56.390625 62.089844 56.390625 61.945312 L 56.390625 48.609375 C 56.390625 48.464844 56.359375 48.320312 56.304688 48.1875 C 56.246094 48.050781 56.167969 47.929688 56.0625 47.824219 C 55.960938 47.722656 55.839844 47.640625 55.703125 47.585938 C 55.566406 47.527344 55.425781 47.5 55.277344 47.5 Z M 54.167969 60.832031 L 43.054688 60.832031 L 43.054688 49.722656 L 54.167969 49.722656 Z M 54.167969 60.832031 " fill-opacity="1" fill-rule="nonzero"/><path fill="#ffbf39" d="M 61.945312 54.167969 L 59.722656 54.167969 C 59.574219 54.167969 59.433594 54.195312 59.296875 54.25 C 59.160156 54.308594 59.039062 54.386719 58.9375 54.492188 C 58.832031 54.597656 58.753906 54.714844 58.695312 54.851562 C 58.640625 54.988281 58.609375 55.128906 58.609375 55.277344 C 58.609375 55.425781 58.640625 55.566406 58.695312 55.703125 C 58.753906 55.839844 58.832031 55.960938 58.9375 56.0625 C 59.039062 56.167969 59.160156 56.246094 59.296875 56.304688 C 59.433594 56.359375 59.574219 56.390625 59.722656 56.390625 L 61.945312 56.390625 C 62.089844 56.390625 62.234375 56.359375 62.371094 56.304688 C 62.503906 56.246094 62.625 56.167969 62.730469 56.0625 C 62.835938 55.960938 62.914062 55.839844 62.972656 55.703125 C 63.027344 55.566406 63.054688 55.425781 63.054688 55.277344 C 63.054688 55.128906 63.027344 54.988281 62.972656 54.851562 C 62.914062 54.714844 62.835938 54.597656 62.730469 54.492188 C 62.625 54.386719 62.503906 54.308594 62.371094 54.25 C 62.234375 54.195312 62.089844 54.167969 61.945312 54.167969 Z M 61.945312 54.167969 " fill-opacity="1" fill-rule="nonzero"/><path fill="#ffbf39" d="M 61.945312 49.722656 L 59.722656 49.722656 C 59.574219 49.722656 59.433594 49.75 59.296875 49.808594 C 59.160156 49.863281 59.039062 49.945312 58.9375 50.046875 C 58.832031 50.152344 58.753906 50.273438 58.695312 50.40625 C 58.640625 50.542969 58.609375 50.6875 58.609375 50.832031 C 58.609375 50.980469 58.640625 51.121094 58.695312 51.257812 C 58.753906 51.394531 58.832031 51.515625 58.9375 51.617188 C 59.039062 51.722656 59.160156 51.804688 59.296875 51.859375 C 59.433594 51.917969 59.574219 51.945312 59.722656 51.945312 L 61.945312 51.945312 C 62.089844 51.945312 62.234375 51.917969 62.371094 51.859375 C 62.503906 51.804688 62.625 51.722656 62.730469 51.617188 C 62.835938 51.515625 62.914062 51.394531 62.972656 51.257812 C 63.027344 51.121094 63.054688 50.980469 63.054688 50.832031 C 63.054688 50.6875 63.027344 50.542969 62.972656 50.40625 C 62.914062 50.273438 62.835938 50.152344 62.730469 50.046875 C 62.625 49.945312 62.503906 49.863281 62.371094 49.808594 C 62.234375 49.75 62.089844 49.722656 61.945312 49.722656 Z M 61.945312 49.722656 " fill-opacity="1" fill-rule="nonzero"/><path fill="#ffbf39" d="M 61.945312 58.609375 L 59.722656 58.609375 C 59.574219 58.609375 59.433594 58.640625 59.296875 58.695312 C 59.160156 58.753906 59.039062 58.832031 58.9375 58.9375 C 58.832031 59.039062 58.753906 59.160156 58.695312 59.296875 C 58.640625 59.433594 58.609375 59.574219 58.609375 59.722656 C 58.609375 59.871094 58.640625 60.011719 58.695312 60.148438 C 58.753906 60.285156 58.832031 60.402344 58.9375 60.507812 C 59.039062 60.613281 59.160156 60.691406 59.296875 60.75 C 59.433594 60.804688 59.574219 60.832031 59.722656 60.832031 L 61.945312 60.832031 C 62.089844 60.832031 62.234375 60.804688 62.371094 60.75 C 62.503906 60.691406 62.625 60.613281 62.730469 60.507812 C 62.835938 60.402344 62.914062 60.285156 62.972656 60.148438 C 63.027344 60.011719 63.054688 59.871094 63.054688 59.722656 C 63.054688 59.574219 63.027344 59.433594 62.972656 59.296875 C 62.914062 59.160156 62.835938 59.039062 62.730469 58.9375 C 62.625 58.832031 62.503906 58.753906 62.371094 58.695312 C 62.234375 58.640625 62.089844 58.609375 61.945312 58.609375 Z M 61.945312 58.609375 " fill-opacity="1" fill-rule="nonzero"/></svg>