<svg xmlns="http://www.w3.org/2000/svg" xmlns:xlink="http://www.w3.org/1999/xlink" width="100" zoomAndPan="magnify" viewBox="0 0 75 74.999997" height="100" preserveAspectRatio="xMidYMid meet" version="1.0"><defs><clipPath id="8521d0693a"><path d="M 7.753906 7.5 L 67.003906 7.5 L 67.003906 67 L 7.753906 67 Z M 7.753906 7.5 " clip-rule="nonzero"/></clipPath><clipPath id="f0bcea0a81"><path d="M 19 46 L 41 46 L 41 67.5 L 19 67.5 Z M 19 46 " clip-rule="nonzero"/></clipPath></defs><g clip-path="url(#8521d0693a)"><path fill="#ffbf39" d="M 66.53125 66.503906 L 61.847656 66.503906 C 61.378906 66.503906 61.144531 66.269531 61.144531 65.800781 L 61.144531 26.347656 C 61.144531 25.878906 61.378906 25.644531 61.847656 25.644531 C 62.199219 25.644531 62.550781 25.878906 62.550781 26.347656 L 62.550781 65.101562 L 65.828125 65.101562 L 65.828125 22.71875 L 37.378906 9.023438 L 9.164062 22.71875 L 9.164062 65.101562 L 12.441406 65.101562 L 12.441406 26.347656 C 12.441406 25.878906 12.792969 25.644531 13.144531 25.644531 C 13.613281 25.644531 13.847656 25.878906 13.847656 26.347656 L 13.847656 65.800781 C 13.847656 66.269531 13.613281 66.503906 13.144531 66.503906 L 8.460938 66.503906 C 7.992188 66.503906 7.757812 66.269531 7.757812 65.800781 L 7.757812 22.25 C 7.757812 22.015625 7.875 21.664062 8.109375 21.546875 L 37.144531 7.617188 C 37.261719 7.5 37.496094 7.5 37.730469 7.617188 L 66.878906 21.546875 C 67.113281 21.664062 67.230469 22.015625 67.230469 22.25 L 67.230469 65.800781 C 67.230469 66.269531 66.996094 66.503906 66.53125 66.503906 Z M 66.53125 66.503906 " fill-opacity="1" fill-rule="evenodd"/></g><path fill="#ffbf39" d="M 61.847656 36.066406 L 13.144531 36.066406 C 12.792969 36.066406 12.441406 35.714844 12.441406 35.363281 L 12.441406 26.347656 C 12.441406 25.878906 12.792969 25.644531 13.144531 25.644531 L 61.847656 25.644531 C 62.199219 25.644531 62.550781 25.878906 62.550781 26.347656 L 62.550781 35.363281 C 62.550781 35.714844 62.199219 36.066406 61.847656 36.066406 Z M 13.847656 34.660156 L 61.144531 34.660156 L 61.144531 27.050781 L 13.847656 27.050781 Z M 13.847656 34.660156 " fill-opacity="1" fill-rule="evenodd"/><path fill="#ffbf39" d="M 41.828125 21.316406 L 32.578125 21.316406 C 32.226562 21.316406 31.875 20.964844 31.875 20.613281 L 31.875 15.929688 C 31.875 15.578125 32.226562 15.226562 32.578125 15.226562 L 41.828125 15.226562 C 42.296875 15.226562 42.53125 15.578125 42.53125 15.929688 L 42.53125 20.613281 C 42.53125 20.964844 42.296875 21.316406 41.828125 21.316406 Z M 33.28125 19.910156 L 41.125 19.910156 L 41.125 16.632812 L 33.28125 16.632812 Z M 33.28125 19.910156 " fill-opacity="1" fill-rule="evenodd"/><path fill="#ffbf39" d="M 42.761719 40.515625 L 37.027344 40.515625 C 36.441406 40.515625 36.089844 40.046875 36.089844 39.578125 L 36.089844 35.363281 C 36.089844 35.011719 36.441406 34.660156 36.792969 34.660156 C 37.144531 34.660156 37.496094 35.011719 37.496094 35.363281 L 37.496094 39.109375 L 42.296875 39.109375 L 42.296875 35.363281 C 42.296875 35.011719 42.53125 34.660156 42.996094 34.660156 C 43.347656 34.660156 43.699219 35.011719 43.699219 35.363281 L 43.699219 39.578125 C 43.699219 40.046875 43.230469 40.515625 42.761719 40.515625 Z M 42.761719 40.515625 " fill-opacity="1" fill-rule="evenodd"/><path fill="#ffbf39" d="M 54.589844 56.4375 L 39.835938 56.4375 C 39.484375 56.4375 39.132812 56.203125 39.132812 55.851562 C 38.667969 51.050781 34.6875 47.539062 30.003906 47.539062 C 28.246094 47.539062 26.609375 48.007812 25.085938 48.945312 C 24.851562 49.0625 24.617188 49.0625 24.382812 48.945312 C 24.148438 48.828125 24.03125 48.59375 24.03125 48.242188 L 24.03125 35.363281 C 24.03125 35.011719 24.382812 34.660156 24.734375 34.660156 C 25.085938 34.660156 25.4375 35.011719 25.4375 35.363281 L 25.4375 47.070312 C 26.839844 46.484375 28.363281 46.132812 30.003906 46.132812 C 32.578125 46.132812 35.152344 47.070312 37.144531 48.828125 C 38.898438 50.464844 40.070312 52.691406 40.421875 55.03125 L 54.355469 55.03125 L 54.355469 35.363281 C 54.355469 35.011719 54.589844 34.660156 55.054688 34.660156 C 55.40625 34.660156 55.757812 35.011719 55.757812 35.363281 L 55.757812 55.265625 C 55.757812 55.96875 55.171875 56.4375 54.589844 56.4375 Z M 54.589844 56.4375 " fill-opacity="1" fill-rule="evenodd"/><path fill="#ffbf39" d="M 50.609375 48.59375 L 43.347656 48.59375 C 42.996094 48.59375 42.648438 48.359375 42.648438 47.890625 C 42.648438 47.539062 42.996094 47.1875 43.347656 47.1875 L 50.609375 47.1875 C 51.074219 47.1875 51.308594 47.539062 51.308594 47.890625 C 51.308594 48.359375 51.074219 48.59375 50.609375 48.59375 Z M 50.609375 48.59375 " fill-opacity="1" fill-rule="evenodd"/><path fill="#ffbf39" d="M 50.609375 51.519531 L 40.65625 51.519531 C 40.304688 51.519531 39.953125 51.285156 39.953125 50.816406 C 39.953125 50.464844 40.304688 50.113281 40.65625 50.113281 L 50.609375 50.113281 C 51.074219 50.113281 51.308594 50.464844 51.308594 50.816406 C 51.308594 51.285156 51.074219 51.519531 50.609375 51.519531 Z M 50.609375 51.519531 " fill-opacity="1" fill-rule="evenodd"/><path fill="#ffbf39" d="M 34.101562 64.164062 L 25.789062 64.164062 C 25.085938 64.164062 24.617188 63.695312 24.617188 62.992188 L 24.617188 56.085938 C 24.617188 55.5 25.085938 55.03125 25.789062 55.03125 L 34.101562 55.03125 C 34.800781 55.03125 35.269531 55.5 35.269531 56.085938 L 35.269531 62.992188 C 35.269531 63.695312 34.800781 64.164062 34.101562 64.164062 Z M 26.023438 62.757812 L 33.867188 62.757812 L 33.867188 56.4375 L 26.023438 56.4375 Z M 26.023438 62.757812 " fill-opacity="1" fill-rule="evenodd"/><path fill="#ffbf39" d="M 33.046875 56.4375 L 26.839844 56.4375 C 26.375 56.4375 26.140625 56.085938 26.140625 55.734375 L 26.140625 53.277344 C 26.140625 51.050781 27.777344 49.414062 30.003906 49.414062 C 32.109375 49.414062 33.75 51.050781 33.75 53.277344 L 33.75 55.734375 C 33.75 56.085938 33.515625 56.4375 33.046875 56.4375 Z M 27.542969 55.03125 L 32.34375 55.03125 L 32.34375 53.277344 C 32.34375 51.871094 31.289062 50.816406 30.003906 50.816406 C 28.597656 50.816406 27.542969 51.871094 27.542969 53.277344 Z M 27.542969 55.03125 " fill-opacity="1" fill-rule="evenodd"/><path fill="#ffbf39" d="M 30.003906 61.46875 C 28.832031 61.46875 28.011719 60.652344 28.011719 59.480469 C 28.011719 58.425781 28.832031 57.488281 30.003906 57.488281 C 31.054688 57.488281 31.875 58.425781 31.875 59.480469 C 31.875 60.652344 31.054688 61.46875 30.003906 61.46875 Z M 30.003906 58.894531 C 29.652344 58.894531 29.417969 59.246094 29.417969 59.480469 C 29.417969 59.832031 29.652344 60.066406 30.003906 60.066406 C 30.238281 60.066406 30.472656 59.832031 30.472656 59.480469 C 30.472656 59.246094 30.238281 58.894531 30.003906 58.894531 Z M 30.003906 58.894531 " fill-opacity="1" fill-rule="evenodd"/><path fill="#ffbf39" d="M 30.003906 64.164062 C 29.535156 64.164062 29.300781 63.8125 29.300781 63.460938 L 29.300781 60.769531 C 29.300781 60.417969 29.535156 60.066406 30.003906 60.066406 C 30.355469 60.066406 30.703125 60.417969 30.703125 60.769531 L 30.703125 63.460938 C 30.703125 63.8125 30.355469 64.164062 30.003906 64.164062 Z M 30.003906 64.164062 " fill-opacity="1" fill-rule="evenodd"/><g clip-path="url(#f0bcea0a81)"><path fill="#ffbf39" d="M 30.003906 67.441406 C 24.03125 67.441406 19.230469 62.640625 19.230469 56.789062 C 19.230469 50.933594 24.03125 46.132812 30.003906 46.132812 C 35.855469 46.132812 40.65625 50.933594 40.65625 56.789062 C 40.65625 62.640625 35.855469 67.441406 30.003906 67.441406 Z M 30.003906 47.539062 C 24.851562 47.539062 20.636719 51.636719 20.636719 56.789062 C 20.636719 61.9375 24.851562 66.035156 30.003906 66.035156 C 35.035156 66.035156 39.25 61.9375 39.25 56.789062 C 39.25 51.636719 35.035156 47.539062 30.003906 47.539062 Z M 30.003906 47.539062 " fill-opacity="1" fill-rule="evenodd"/></g><path fill="#ffbf39" d="M 61.847656 31.5 L 13.144531 31.5 C 12.792969 31.5 12.441406 31.265625 12.441406 30.796875 C 12.441406 30.445312 12.792969 30.09375 13.144531 30.09375 L 61.847656 30.09375 C 62.199219 30.09375 62.550781 30.445312 62.550781 30.796875 C 62.550781 31.265625 62.199219 31.5 61.847656 31.5 Z M 61.847656 31.5 " fill-opacity="1" fill-rule="evenodd"/></svg>