<svg xmlns="http://www.w3.org/2000/svg" xmlns:xlink="http://www.w3.org/1999/xlink" width="100" zoomAndPan="magnify" viewBox="0 0 75 74.999997" height="100" preserveAspectRatio="xMidYMid meet" version="1.0"><defs><clipPath id="53cf01844b"><path d="M 57 22 L 67.5 22 L 67.5 44 L 57 44 Z M 57 22 " clip-rule="nonzero"/></clipPath><clipPath id="745755200e"><path d="M 7.5 22 L 18 22 L 18 44 L 7.5 44 Z M 7.5 22 " clip-rule="nonzero"/></clipPath><clipPath id="28d0b4a9a6"><path d="M 36 7.5 L 39 7.5 L 39 14 L 36 14 Z M 36 7.5 " clip-rule="nonzero"/></clipPath><clipPath id="b55149108d"><path d="M 36 61 L 39 61 L 39 67.5 L 36 67.5 Z M 36 61 " clip-rule="nonzero"/></clipPath></defs><path fill="#ffbf39" d="M 38.257812 29.726562 Z M 54.378906 47.085938 C 53.652344 47.085938 52.921875 46.847656 52.3125 46.371094 L 46.769531 42.078125 C 46.347656 41.75 46.269531 41.144531 46.597656 40.722656 C 46.925781 40.296875 47.53125 40.222656 47.953125 40.546875 L 53.496094 44.839844 C 54.078125 45.292969 54.917969 45.234375 55.425781 44.714844 C 55.753906 44.375 55.898438 43.984375 55.871094 43.566406 C 55.847656 43.15625 55.648438 42.773438 55.320312 42.511719 L 54.003906 41.484375 C 51.90625 39.832031 47.875 36.675781 44.328125 34.003906 C 44.300781 33.984375 44.269531 33.964844 44.242188 33.945312 C 39.960938 30.71875 38.710938 29.941406 38.34375 29.765625 C 37.507812 29.863281 36.40625 30.902344 35.429688 31.824219 C 34.144531 33.042969 32.8125 34.296875 31.328125 34.296875 C 28.648438 34.296875 27.125 32.371094 27.058594 32.285156 C 26.773438 31.921875 26.789062 31.402344 27.097656 31.050781 C 27.609375 30.472656 28.363281 29.386719 29.089844 28.335938 C 30.523438 26.261719 31.449219 24.96875 32.183594 24.480469 C 33.015625 23.925781 35.035156 23.082031 37.277344 22.546875 C 38.734375 22.195312 40.117188 22.015625 41.371094 22.015625 C 43.605469 22.015625 46.964844 23.34375 49.929688 24.511719 C 51.5625 25.15625 53.410156 25.886719 53.953125 25.886719 L 59.101562 25.886719 C 59.632812 25.886719 60.066406 26.320312 60.066406 26.855469 C 60.066406 27.386719 59.632812 27.824219 59.101562 27.824219 L 53.953125 27.824219 C 53.082031 27.824219 51.660156 27.277344 49.21875 26.3125 C 46.554688 25.257812 43.238281 23.953125 41.371094 23.953125 C 40.28125 23.953125 39.023438 24.117188 37.726562 24.429688 C 35.605469 24.933594 33.835938 25.707031 33.253906 26.089844 C 32.769531 26.414062 31.5625 28.160156 30.679688 29.4375 C 30.132812 30.230469 29.601562 30.996094 29.132812 31.609375 C 29.597656 31.960938 30.34375 32.363281 31.328125 32.363281 C 32.042969 32.363281 33.132812 31.332031 34.097656 30.417969 C 35.449219 29.140625 36.851562 27.824219 38.46875 27.824219 C 38.910156 27.824219 39.328125 27.824219 45.332031 32.34375 C 45.363281 32.363281 45.390625 32.382812 45.414062 32.402344 C 49 35.097656 53.082031 38.292969 55.199219 39.960938 L 56.523438 40.992188 C 57.285156 41.605469 57.746094 42.496094 57.800781 43.445312 C 57.867188 44.394531 57.523438 45.339844 56.847656 46.023438 C 56.167969 46.730469 55.273438 47.085938 54.378906 47.085938 " fill-opacity="1" fill-rule="nonzero"/><path fill="#ffbf39" d="M 50.683594 50.683594 C 49.933594 50.683594 49.179688 50.4375 48.5625 49.9375 L 43.300781 45.691406 C 42.890625 45.355469 42.824219 44.746094 43.160156 44.332031 C 43.496094 43.917969 44.105469 43.851562 44.519531 44.1875 L 49.777344 48.429688 C 50.339844 48.882812 51.152344 48.847656 51.679688 48.359375 L 51.878906 48.171875 C 52.191406 47.878906 52.359375 47.46875 52.339844 47.046875 C 52.320312 46.617188 52.113281 46.230469 51.777344 45.964844 L 51.632812 45.855469 C 51.210938 45.527344 51.132812 44.921875 51.457031 44.496094 C 51.785156 44.070312 52.390625 43.996094 52.8125 44.320312 L 52.960938 44.433594 C 53.75 45.046875 54.226562 45.964844 54.273438 46.953125 C 54.316406 47.949219 53.929688 48.90625 53.203125 49.585938 L 53.003906 49.769531 C 52.355469 50.375 51.519531 50.683594 50.683594 50.683594 " fill-opacity="1" fill-rule="nonzero"/><path fill="#ffbf39" d="M 46.015625 53.613281 C 45.238281 53.613281 44.457031 53.335938 43.820312 52.792969 L 38.746094 48.457031 C 38.339844 48.109375 38.292969 47.5 38.636719 47.09375 C 38.984375 46.6875 39.597656 46.640625 40.003906 46.984375 L 45.074219 51.320312 C 45.628906 51.789062 46.421875 51.789062 46.96875 51.3125 L 47.285156 51.035156 C 47.605469 50.765625 47.78125 50.367188 47.773438 49.949219 C 47.765625 49.53125 47.578125 49.140625 47.253906 48.878906 C 46.835938 48.542969 46.769531 47.933594 47.105469 47.519531 C 47.441406 47.101562 48.050781 47.035156 48.464844 47.375 C 49.242188 47.992188 49.691406 48.921875 49.710938 49.917969 C 49.726562 50.910156 49.304688 51.855469 48.554688 52.503906 L 48.234375 52.78125 C 47.59375 53.332031 46.808594 53.613281 46.015625 53.613281 " fill-opacity="1" fill-rule="nonzero"/><path fill="#ffbf39" d="M 41.785156 55.882812 C 41.117188 55.882812 40.445312 55.6875 39.867188 55.292969 L 36.816406 53.191406 C 36.378906 52.890625 36.265625 52.285156 36.566406 51.847656 C 36.867188 51.402344 37.472656 51.292969 37.910156 51.597656 L 40.960938 53.699219 C 41.496094 54.0625 42.214844 54.03125 42.710938 53.621094 C 42.972656 53.402344 43.128906 53.082031 43.132812 52.738281 C 43.132812 52.40625 42.980469 52.085938 42.722656 51.859375 L 42.453125 51.625 C 42.046875 51.277344 42.003906 50.671875 42.351562 50.265625 C 42.699219 49.859375 43.308594 49.8125 43.710938 50.160156 L 43.984375 50.390625 C 44.671875 50.980469 45.066406 51.84375 45.066406 52.753906 C 45.054688 53.679688 44.644531 54.539062 43.9375 55.117188 C 43.320312 55.625 42.554688 55.882812 41.785156 55.882812 " fill-opacity="1" fill-rule="nonzero"/><path fill="#ffbf39" d="M 44.835938 34.144531 L 44.824219 34.144531 C 44.289062 34.144531 43.859375 33.707031 43.859375 33.175781 C 43.859375 32.636719 44.289062 32.207031 44.824219 32.207031 C 45.359375 32.207031 45.796875 32.636719 45.796875 33.175781 C 45.796875 33.707031 45.371094 34.144531 44.835938 34.144531 " fill-opacity="1" fill-rule="nonzero"/><path fill="#ffbf39" d="M 20.601562 47.085938 C 19.71875 47.085938 18.835938 46.734375 18.183594 46.058594 C 17.476562 45.339844 17.132812 44.394531 17.199219 43.433594 C 17.253906 42.492188 17.714844 41.605469 18.46875 41 L 20.152344 39.679688 C 20.332031 39.535156 20.5625 39.445312 20.789062 39.445312 C 21.320312 39.445312 21.753906 39.878906 21.753906 40.414062 C 21.753906 40.738281 21.59375 41.03125 21.339844 41.207031 L 19.671875 42.519531 C 19.351562 42.773438 19.15625 43.15625 19.132812 43.554688 C 19.101562 43.984375 19.246094 44.375 19.53125 44.671875 C 20.050781 45.203125 20.800781 45.292969 21.375 44.925781 C 21.75 44.625 22.300781 44.652344 22.652344 45.003906 C 23.027344 45.382812 23.027344 45.996094 22.652344 46.371094 C 22.617188 46.40625 22.566406 46.449219 22.523438 46.480469 C 22.503906 46.492188 22.484375 46.507812 22.464844 46.523438 C 21.898438 46.902344 21.25 47.085938 20.601562 47.085938 " fill-opacity="1" fill-rule="nonzero"/><path fill="#ffbf39" d="M 21.929688 46.683594 C 21.683594 46.683594 21.433594 46.589844 21.246094 46.402344 C 20.867188 46.019531 20.867188 45.410156 21.246094 45.03125 C 21.277344 44.996094 21.328125 44.957031 21.375 44.925781 L 23.042969 43.609375 C 23.367188 43.355469 23.5625 42.972656 23.585938 42.574219 C 23.613281 42.144531 23.472656 41.753906 23.183594 41.457031 C 22.667969 40.925781 21.910156 40.839844 21.339844 41.207031 C 21.050781 41.429688 20.648438 41.480469 20.300781 41.300781 C 19.824219 41.050781 19.640625 40.46875 19.890625 39.996094 C 19.972656 39.835938 20.097656 39.703125 20.25 39.609375 L 20.25 39.605469 C 21.601562 38.707031 23.398438 38.898438 24.53125 40.070312 C 25.238281 40.789062 25.585938 41.734375 25.515625 42.695312 C 25.464844 43.636719 25.003906 44.523438 24.246094 45.128906 L 22.5625 46.449219 C 22.550781 46.460938 22.539062 46.46875 22.527344 46.476562 C 22.347656 46.613281 22.140625 46.683594 21.929688 46.683594 " fill-opacity="1" fill-rule="nonzero"/><path fill="#ffbf39" d="M 21.046875 27.824219 L 15.898438 27.824219 C 15.363281 27.824219 14.933594 27.386719 14.933594 26.855469 C 14.933594 26.320312 15.363281 25.886719 15.898438 25.886719 L 21.046875 25.886719 C 21.589844 25.886719 23.4375 25.15625 25.070312 24.511719 C 28.035156 23.34375 31.394531 22.015625 33.628906 22.015625 C 34.882812 22.015625 36.265625 22.195312 37.726562 22.546875 C 38.246094 22.671875 38.566406 23.195312 38.441406 23.714844 C 38.316406 24.230469 37.789062 24.550781 37.273438 24.429688 C 35.976562 24.117188 34.71875 23.953125 33.628906 23.953125 C 31.761719 23.953125 28.445312 25.257812 25.78125 26.3125 C 23.339844 27.277344 21.917969 27.824219 21.046875 27.824219 " fill-opacity="1" fill-rule="nonzero"/><path fill="#ffbf39" d="M 27.652344 46.519531 Z M 24.3125 50.679688 C 23.472656 50.679688 22.640625 50.371094 21.992188 49.769531 L 21.792969 49.582031 C 21.066406 48.910156 20.675781 47.945312 20.730469 46.949219 C 20.773438 46.09375 21.132812 45.285156 21.746094 44.6875 L 22.148438 44.347656 C 22.558594 44.003906 23.171875 44.058594 23.511719 44.46875 C 23.855469 44.875 23.800781 45.488281 23.390625 45.828125 L 23.042969 46.117188 C 22.835938 46.328125 22.679688 46.675781 22.664062 47.050781 C 22.640625 47.476562 22.804688 47.878906 23.121094 48.171875 L 23.320312 48.363281 C 23.84375 48.847656 24.660156 48.878906 25.222656 48.425781 L 27.492188 46.589844 C 27.5 46.582031 27.53125 46.5625 27.5625 46.542969 C 27.574219 46.53125 27.589844 46.519531 27.597656 46.507812 L 27.742188 46.402344 C 28.066406 46.058594 28.59375 45.992188 28.996094 46.257812 C 29.4375 46.558594 29.554688 47.164062 29.25 47.605469 C 29.207031 47.671875 29.105469 47.785156 29.039062 47.839844 C 29.019531 47.855469 28.976562 47.898438 28.953125 47.914062 L 28.800781 48.027344 C 28.773438 48.046875 28.753906 48.066406 28.730469 48.082031 L 26.4375 49.933594 C 25.816406 50.433594 25.0625 50.679688 24.3125 50.679688 " fill-opacity="1" fill-rule="nonzero"/><path fill="#ffbf39" d="M 27.652344 46.515625 C 27.652344 46.519531 27.652344 46.519531 27.652344 46.519531 C 27.652344 46.519531 27.652344 46.519531 27.652344 46.515625 Z M 28.140625 48.269531 C 27.828125 48.269531 27.523438 48.128906 27.339844 47.867188 C 27.039062 47.429688 27.113281 46.855469 27.542969 46.550781 C 27.550781 46.546875 27.625 46.492188 27.636719 46.484375 L 27.695312 46.449219 C 27.707031 46.4375 27.71875 46.425781 27.734375 46.414062 C 27.746094 46.398438 27.761719 46.382812 27.773438 46.367188 C 28.042969 46.113281 28.203125 45.753906 28.21875 45.390625 C 28.242188 44.957031 28.078125 44.554688 27.757812 44.25 L 27.5625 44.066406 C 27.042969 43.578125 26.21875 43.550781 25.660156 44.003906 L 23.042969 46.117188 C 22.636719 46.464844 22.023438 46.410156 21.679688 45.996094 C 21.335938 45.589844 21.390625 44.976562 21.800781 44.632812 L 22.148438 44.347656 L 24.445312 42.492188 C 25.753906 41.441406 27.667969 41.515625 28.886719 42.660156 L 29.089844 42.84375 C 29.820312 43.535156 30.207031 44.496094 30.15625 45.488281 C 30.113281 46.339844 29.75 47.144531 29.128906 47.75 C 29.101562 47.785156 29.066406 47.816406 29.039062 47.839844 C 29.023438 47.855469 28.976562 47.894531 28.957031 47.910156 L 28.707031 48.101562 C 28.535156 48.214844 28.335938 48.269531 28.140625 48.269531 " fill-opacity="1" fill-rule="nonzero"/><path fill="#ffbf39" d="M 28.980469 53.609375 C 28.191406 53.609375 27.40625 53.328125 26.765625 52.777344 L 26.453125 52.515625 C 25.695312 51.855469 25.273438 50.910156 25.285156 49.921875 C 25.316406 48.914062 25.769531 47.988281 26.539062 47.375 C 26.957031 47.035156 27.5625 47.101562 27.898438 47.519531 C 28.234375 47.933594 28.167969 48.546875 27.75 48.878906 C 27.429688 49.144531 27.234375 49.535156 27.222656 49.964844 C 27.21875 50.367188 27.394531 50.769531 27.714844 51.042969 L 28.023438 51.304688 C 28.578125 51.785156 29.371094 51.785156 29.925781 51.316406 L 32.300781 49.285156 C 32.351562 49.246094 32.402344 49.203125 32.441406 49.160156 C 32.820312 48.785156 33.433594 48.785156 33.808594 49.160156 C 34.1875 49.542969 34.1875 50.15625 33.808594 50.535156 C 33.734375 50.609375 33.648438 50.683594 33.558594 50.761719 L 31.179688 52.792969 C 30.539062 53.335938 29.761719 53.609375 28.980469 53.609375 " fill-opacity="1" fill-rule="nonzero"/><path fill="#ffbf39" d="M 32.933594 50.992188 C 32.65625 50.992188 32.386719 50.875 32.191406 50.648438 C 31.847656 50.238281 31.898438 49.628906 32.304688 49.28125 C 32.351562 49.246094 32.402344 49.203125 32.441406 49.160156 C 32.691406 48.914062 32.839844 48.5625 32.847656 48.199219 C 32.851562 47.785156 32.667969 47.386719 32.363281 47.121094 L 32.035156 46.832031 C 31.5 46.367188 30.6875 46.367188 30.144531 46.828125 L 27.773438 48.859375 C 27.367188 49.207031 26.757812 49.160156 26.410156 48.757812 C 26.0625 48.347656 26.109375 47.742188 26.515625 47.394531 L 28.886719 45.359375 C 30.15625 44.277344 32.054688 44.285156 33.308594 45.375 L 33.628906 45.652344 C 34.375 46.292969 34.796875 47.230469 34.78125 48.226562 C 34.765625 49.089844 34.410156 49.929688 33.808594 50.535156 C 33.734375 50.609375 33.648438 50.683594 33.558594 50.761719 C 33.375 50.914062 33.152344 50.992188 32.933594 50.992188 " fill-opacity="1" fill-rule="nonzero"/><path fill="#ffbf39" d="M 33.214844 55.882812 C 32.441406 55.882812 31.675781 55.621094 31.058594 55.113281 C 30.355469 54.539062 29.945312 53.683594 29.933594 52.765625 C 29.933594 51.84375 30.328125 50.980469 31.015625 50.390625 L 31.289062 50.160156 C 31.695312 49.8125 32.304688 49.859375 32.648438 50.265625 C 32.996094 50.671875 32.953125 51.277344 32.546875 51.625 L 32.277344 51.859375 C 32.015625 52.085938 31.867188 52.410156 31.867188 52.753906 C 31.871094 53.082031 32.027344 53.402344 32.285156 53.617188 C 32.789062 54.03125 33.507812 54.058594 34.042969 53.695312 L 36.195312 52.207031 C 36.628906 51.902344 37.234375 52.011719 37.542969 52.453125 C 37.84375 52.894531 37.734375 53.496094 37.296875 53.800781 L 35.136719 55.289062 C 34.558594 55.6875 33.882812 55.882812 33.214844 55.882812 " fill-opacity="1" fill-rule="nonzero"/><path fill="#ffbf39" d="M 36.742188 53.96875 C 36.472656 53.96875 36.199219 53.855469 36.011719 53.628906 C 35.664062 53.226562 35.707031 52.613281 36.117188 52.269531 L 36.386719 52.035156 C 36.644531 51.8125 36.792969 51.488281 36.792969 51.136719 C 36.789062 50.808594 36.632812 50.492188 36.375 50.277344 C 35.875 49.863281 35.15625 49.835938 34.625 50.203125 L 32.464844 51.691406 C 32.027344 51.988281 31.421875 51.878906 31.117188 51.441406 C 30.816406 51.003906 30.925781 50.402344 31.363281 50.097656 L 33.523438 48.605469 C 34.769531 47.753906 36.445312 47.828125 37.601562 48.78125 C 38.304688 49.359375 38.714844 50.210938 38.730469 51.121094 C 38.730469 52.050781 38.332031 52.914062 37.648438 53.503906 L 37.375 53.734375 C 37.191406 53.894531 36.96875 53.96875 36.742188 53.96875 " fill-opacity="1" fill-rule="nonzero"/><path fill="#ffbf39" d="M 20.398438 41.691406 C 20.195312 41.691406 19.984375 41.625 19.808594 41.488281 C 19.230469 41.046875 18.152344 40.570312 14.539062 40.441406 C 14.003906 40.421875 13.585938 39.972656 13.609375 39.4375 C 13.628906 38.90625 14.09375 38.480469 14.605469 38.503906 C 17.960938 38.625 19.808594 39.046875 20.992188 39.957031 C 21.414062 40.28125 21.496094 40.890625 21.164062 41.3125 C 20.976562 41.558594 20.6875 41.691406 20.398438 41.691406 " fill-opacity="1" fill-rule="nonzero"/><path fill="#ffbf39" d="M 54.601562 41.691406 C 54.3125 41.691406 54.023438 41.558594 53.835938 41.3125 C 53.503906 40.890625 53.585938 40.28125 54.007812 39.957031 C 55.191406 39.046875 57.039062 38.625 60.394531 38.503906 C 60.917969 38.484375 61.371094 38.90625 61.394531 39.4375 C 61.414062 39.972656 60.996094 40.421875 60.460938 40.441406 C 56.847656 40.570312 55.769531 41.046875 55.191406 41.488281 C 55.015625 41.625 54.804688 41.691406 54.601562 41.691406 " fill-opacity="1" fill-rule="nonzero"/><g clip-path="url(#53cf01844b)"><path fill="#ffbf39" d="M 66.53125 43.304688 L 60.726562 43.304688 C 60.230469 43.304688 59.816406 42.933594 59.765625 42.441406 L 57.832031 24.054688 C 57.800781 23.78125 57.886719 23.507812 58.070312 23.304688 C 58.253906 23.101562 58.519531 22.984375 58.789062 22.984375 L 66.53125 22.984375 C 67.066406 22.984375 67.5 23.417969 67.5 23.953125 C 67.5 24.484375 67.066406 24.917969 66.53125 24.917969 L 59.863281 24.917969 L 61.597656 41.371094 L 66.53125 41.371094 C 67.066406 41.371094 67.5 41.804688 67.5 42.339844 C 67.5 42.871094 67.066406 43.304688 66.53125 43.304688 " fill-opacity="1" fill-rule="nonzero"/></g><g clip-path="url(#745755200e)"><path fill="#ffbf39" d="M 14.273438 43.304688 L 8.46875 43.304688 C 7.933594 43.304688 7.5 42.871094 7.5 42.339844 C 7.5 41.804688 7.933594 41.371094 8.46875 41.371094 L 13.40625 41.371094 L 15.136719 24.917969 L 8.46875 24.917969 C 7.933594 24.917969 7.5 24.484375 7.5 23.953125 C 7.5 23.417969 7.933594 22.984375 8.46875 22.984375 L 16.210938 22.984375 C 16.480469 22.984375 16.746094 23.101562 16.929688 23.304688 C 17.113281 23.507812 17.199219 23.78125 17.167969 24.054688 L 15.234375 42.441406 C 15.183594 42.933594 14.769531 43.304688 14.273438 43.304688 " fill-opacity="1" fill-rule="nonzero"/></g><g clip-path="url(#28d0b4a9a6)"><path fill="#ffbf39" d="M 37.5 13.304688 C 36.96875 13.304688 36.53125 12.871094 36.53125 12.339844 L 36.53125 8.46875 C 36.53125 7.933594 36.96875 7.5 37.5 7.5 C 38.03125 7.5 38.46875 7.933594 38.46875 8.46875 L 38.46875 12.339844 C 38.46875 12.871094 38.03125 13.304688 37.5 13.304688 " fill-opacity="1" fill-rule="nonzero"/></g><g clip-path="url(#b55149108d)"><path fill="#ffbf39" d="M 37.5 67.5 C 36.96875 67.5 36.53125 67.066406 36.53125 66.53125 L 36.53125 62.660156 C 36.53125 62.128906 36.96875 61.695312 37.5 61.695312 C 38.03125 61.695312 38.46875 62.128906 38.46875 62.660156 L 38.46875 66.53125 C 38.46875 67.066406 38.03125 67.5 37.5 67.5 " fill-opacity="1" fill-rule="nonzero"/></g><path fill="#ffbf39" d="M 50.082031 16.679688 C 49.914062 16.679688 49.746094 16.636719 49.597656 16.546875 C 49.136719 16.28125 48.972656 15.6875 49.242188 15.226562 L 51.175781 11.875 C 51.445312 11.410156 52.039062 11.25 52.5 11.519531 C 52.960938 11.785156 53.125 12.375 52.855469 12.839844 L 50.917969 16.195312 C 50.738281 16.503906 50.414062 16.679688 50.082031 16.679688 " fill-opacity="1" fill-rule="nonzero"/><path fill="#ffbf39" d="M 22.984375 63.609375 C 22.816406 63.609375 22.652344 63.570312 22.5 63.480469 C 22.039062 63.214844 21.875 62.625 22.144531 62.160156 L 24.082031 58.804688 C 24.347656 58.34375 24.941406 58.183594 25.402344 58.449219 C 25.863281 58.71875 26.027344 59.3125 25.757812 59.773438 L 23.824219 63.125 C 23.640625 63.4375 23.316406 63.609375 22.984375 63.609375 " fill-opacity="1" fill-rule="nonzero"/><path fill="#ffbf39" d="M 52.015625 63.609375 C 51.683594 63.609375 51.359375 63.4375 51.175781 63.125 L 49.242188 59.773438 C 48.972656 59.3125 49.136719 58.71875 49.597656 58.449219 C 50.058594 58.183594 50.652344 58.34375 50.917969 58.804688 L 52.855469 62.160156 C 53.125 62.625 52.960938 63.214844 52.5 63.480469 C 52.347656 63.570312 52.183594 63.609375 52.015625 63.609375 " fill-opacity="1" fill-rule="nonzero"/><path fill="#ffbf39" d="M 24.917969 16.679688 C 24.585938 16.679688 24.261719 16.503906 24.082031 16.195312 L 22.144531 12.839844 C 21.875 12.375 22.039062 11.785156 22.5 11.519531 C 22.960938 11.25 23.554688 11.410156 23.824219 11.875 L 25.757812 15.226562 C 26.027344 15.6875 25.863281 16.28125 25.402344 16.546875 C 25.253906 16.636719 25.085938 16.679688 24.917969 16.679688 " fill-opacity="1" fill-rule="nonzero"/></svg>