<svg xmlns="http://www.w3.org/2000/svg" xmlns:xlink="http://www.w3.org/1999/xlink" width="100" zoomAndPan="magnify" viewBox="0 0 75 74.999997" height="100" preserveAspectRatio="xMidYMid meet" version="1.0"><defs><clipPath id="1e4267be1d"><path d="M 19.257812 7.5 L 65.789062 7.5 L 65.789062 67.390625 L 19.257812 67.390625 Z M 19.257812 7.5 " clip-rule="nonzero"/></clipPath><clipPath id="affaf8d744"><path d="M 18.613281 30.832031 L 35.246094 30.832031 L 35.246094 47.054688 L 18.613281 47.054688 Z M 18.613281 30.832031 " clip-rule="nonzero"/></clipPath><clipPath id="6fe78b7b5f"><path d="M 18.636719 39.011719 C 18.636719 38.796875 18.65625 38.679688 18.65625 38.679688 C 18.65625 38.679688 18.675781 38.582031 18.695312 38.523438 C 18.714844 38.464844 18.734375 38.367188 18.734375 38.367188 C 18.734375 38.367188 18.792969 38.269531 18.8125 38.230469 C 18.851562 38.171875 18.890625 38.074219 18.890625 38.074219 C 18.910156 38.074219 18.96875 37.996094 19.007812 37.957031 C 19.046875 37.917969 19.125 37.839844 19.125 37.839844 C 19.125 37.839844 19.222656 37.78125 19.261719 37.742188 C 19.320312 37.722656 19.398438 37.664062 19.398438 37.664062 C 19.398438 37.664062 19.476562 37.644531 19.496094 37.625 C 19.476562 37.605469 19.476562 37.46875 19.476562 37.449219 C 19.476562 37.449219 19.496094 37.078125 19.574219 36.863281 C 19.691406 36.53125 19.964844 36.101562 20.21875 35.710938 C 20.511719 35.28125 20.863281 34.792969 21.253906 34.402344 C 21.625 34.03125 22.074219 33.738281 22.484375 33.425781 C 22.875 33.132812 23.265625 32.820312 23.617188 32.546875 C 23.96875 32.273438 24.222656 31.980469 24.632812 31.785156 C 25.082031 31.550781 25.804688 31.296875 26.292969 31.296875 C 26.664062 31.296875 27.015625 31.707031 27.269531 31.628906 C 27.503906 31.550781 27.542969 31.023438 27.816406 30.925781 C 28.207031 30.789062 29.183594 31.140625 29.574219 31.375 C 29.847656 31.511719 30.003906 31.902344 30.160156 31.941406 C 30.238281 31.941406 30.296875 31.824219 30.375 31.84375 C 30.53125 31.84375 30.882812 32.214844 30.941406 32.175781 C 30.960938 32.175781 30.921875 32.078125 30.960938 32.078125 C 31 32.058594 31.195312 32.332031 31.332031 32.410156 C 31.429688 32.488281 31.488281 32.507812 31.605469 32.585938 C 31.839844 32.761719 32.230469 33.132812 32.503906 33.445312 C 32.777344 33.757812 33.011719 34.089844 33.226562 34.441406 C 33.441406 34.792969 33.597656 35.144531 33.773438 35.535156 C 33.96875 35.945312 34.242188 36.414062 34.339844 36.863281 C 34.457031 37.292969 34.4375 37.78125 34.4375 38.152344 C 34.457031 38.425781 34.398438 38.660156 34.457031 38.875 C 34.515625 39.109375 34.710938 39.246094 34.808594 39.5 C 34.945312 39.851562 35.082031 40.339844 35.121094 40.769531 C 35.179688 41.199219 35.21875 41.667969 35.121094 42.078125 C 35.023438 42.488281 34.808594 42.9375 34.535156 43.230469 C 34.300781 43.503906 33.695312 43.679688 33.636719 43.796875 C 33.617188 43.816406 33.636719 43.835938 33.636719 43.855469 C 33.636719 43.894531 33.65625 43.972656 33.65625 44.011719 C 33.65625 44.03125 33.636719 44.050781 33.636719 44.089844 C 33.636719 44.109375 33.636719 44.128906 33.636719 44.167969 C 33.636719 44.207031 33.597656 44.265625 33.597656 44.304688 C 33.578125 44.363281 33.578125 44.421875 33.558594 44.460938 C 33.558594 44.480469 33.539062 44.480469 33.539062 44.480469 C 33.519531 44.519531 33.519531 44.558594 33.5 44.597656 C 33.460938 44.695312 33.324219 44.871094 33.226562 44.96875 C 33.148438 45.046875 33.070312 45.066406 32.953125 45.164062 C 32.699219 45.378906 32.308594 46.003906 31.9375 46.316406 C 31.625 46.589844 31.292969 46.824219 30.921875 46.921875 C 30.550781 47.039062 30.082031 47.078125 29.710938 46.941406 C 29.339844 46.804688 28.988281 46.453125 28.734375 46.121094 C 28.5 45.828125 28.324219 45.105469 28.207031 45.085938 C 28.1875 45.066406 28.148438 45.125 28.148438 45.125 C 28.148438 45.125 28.148438 45.125 28.128906 45.125 C 28.128906 45.125 28.03125 45.164062 27.972656 45.183594 C 27.933594 45.203125 27.835938 45.222656 27.816406 45.222656 C 27.816406 45.222656 27.71875 45.242188 27.660156 45.242188 C 27.601562 45.242188 27.503906 45.261719 27.503906 45.261719 C 27.503906 45.261719 27.386719 45.242188 27.328125 45.222656 C 27.289062 45.222656 27.171875 45.203125 27.171875 45.203125 C 27.171875 45.203125 27.074219 45.164062 27.015625 45.144531 C 26.976562 45.105469 26.878906 45.066406 26.878906 45.066406 C 26.859375 45.066406 26.78125 45.007812 26.742188 44.96875 C 26.703125 44.949219 26.605469 44.871094 26.605469 44.871094 C 26.605469 44.871094 26.546875 44.792969 26.507812 44.753906 C 26.46875 44.695312 26.390625 44.617188 26.390625 44.617188 C 26.390625 44.617188 26.351562 44.519531 26.332031 44.460938 C 26.3125 44.421875 26.253906 44.324219 26.253906 44.324219 C 26.253906 44.324219 26.234375 44.207031 26.234375 44.167969 C 26.214844 44.109375 26.195312 44.011719 26.195312 43.992188 C 26.195312 43.992188 26.117188 43.835938 26.078125 43.855469 C 26 43.855469 26.019531 44.441406 25.84375 44.65625 C 25.628906 44.929688 25.179688 45.066406 24.789062 45.242188 C 24.359375 45.4375 23.8125 45.808594 23.34375 45.769531 C 22.914062 45.75 22.230469 45.144531 22.113281 45.164062 C 22.09375 45.164062 22.09375 45.203125 22.09375 45.203125 C 22.074219 45.203125 21.996094 45.242188 21.9375 45.28125 C 21.898438 45.300781 21.800781 45.359375 21.800781 45.359375 C 21.800781 45.359375 21.703125 45.398438 21.644531 45.398438 C 21.585938 45.417969 21.488281 45.457031 21.488281 45.457031 C 21.488281 45.457031 21.371094 45.457031 21.332031 45.457031 C 21.273438 45.457031 21.15625 45.457031 21.15625 45.457031 C 21.15625 45.457031 21.058594 45.4375 21 45.4375 C 20.941406 45.417969 20.84375 45.398438 20.84375 45.398438 C 20.84375 45.398438 20.746094 45.359375 20.6875 45.339844 C 20.648438 45.300781 20.550781 45.261719 20.550781 45.261719 C 20.550781 45.261719 20.453125 45.203125 20.414062 45.164062 C 20.375 45.125 20.296875 45.066406 20.296875 45.066406 C 20.296875 45.046875 20.21875 44.96875 20.199219 44.929688 C 20.160156 44.890625 20.101562 44.792969 20.101562 44.792969 C 20.101562 44.792969 19.964844 44.539062 19.886719 44.324219 C 19.769531 43.972656 19.632812 43.289062 19.515625 42.839844 C 19.4375 42.449219 19.378906 41.902344 19.300781 41.726562 C 19.261719 41.667969 19.183594 41.628906 19.183594 41.628906 C 19.183594 41.609375 19.125 41.53125 19.105469 41.472656 C 19.066406 41.433594 19.007812 41.335938 19.007812 41.335938 C 19.007812 41.335938 18.988281 41.238281 18.96875 41.179688 C 18.949219 41.121094 18.910156 41.023438 18.910156 41.023438 C 18.910156 41.023438 18.910156 40.90625 18.910156 40.867188 C 18.910156 40.808594 18.890625 40.691406 18.890625 40.691406 C 18.890625 40.691406 18.753906 39.753906 18.695312 39.441406 C 18.675781 39.265625 18.636719 39.011719 18.636719 39.011719 M 21.996094 39.871094 C 22.015625 39.871094 22.015625 39.871094 22.015625 39.871094 C 22.015625 39.871094 22.035156 39.988281 22.054688 40.027344 C 22.054688 40.085938 22.09375 40.183594 22.09375 40.183594 C 22.09375 40.183594 22.308594 40.417969 22.484375 40.4375 C 22.738281 40.476562 23.421875 40.28125 23.5 40.203125 C 23.5 40.164062 23.480469 40.125 23.480469 40.125 C 23.480469 40.125 23.5 40.027344 23.519531 39.96875 C 23.539062 39.910156 23.558594 39.8125 23.558594 39.8125 C 23.558594 39.792969 23.597656 39.695312 23.617188 39.65625 C 23.636719 39.597656 23.695312 39.5 23.695312 39.5 C 23.695312 39.5 23.734375 39.480469 23.734375 39.441406 C 23.773438 39.304688 23.636719 38.640625 23.539062 38.347656 C 23.460938 38.152344 23.363281 37.917969 23.265625 37.859375 C 23.207031 37.820312 23.148438 37.839844 23.089844 37.820312 C 23.070312 37.820312 23.050781 37.800781 23.03125 37.820312 C 23.03125 37.820312 23.050781 37.839844 23.03125 37.878906 C 23.011719 38.035156 22.601562 38.875 22.40625 39.246094 C 22.269531 39.5 21.996094 39.871094 21.996094 39.871094 M 25.824219 36.863281 C 26.292969 37.839844 26.292969 38.425781 26.429688 38.875 C 26.585938 39.34375 26.878906 39.890625 27.054688 40.261719 C 27.171875 40.496094 27.25 40.671875 27.347656 40.828125 C 27.445312 40.945312 27.503906 41.003906 27.621094 41.140625 C 27.816406 41.394531 28.226562 41.941406 28.382812 42.234375 C 28.480469 42.410156 28.519531 42.703125 28.558594 42.703125 C 28.636719 42.683594 28.558594 42.097656 28.734375 41.882812 C 28.96875 41.589844 29.710938 41.394531 30.140625 41.355469 C 30.511719 41.316406 31.136719 41.589844 31.175781 41.570312 C 31.175781 41.550781 31.175781 41.550781 31.175781 41.550781 C 31.15625 41.53125 31.15625 41.394531 31.15625 41.394531 C 31.15625 41.375 31.058594 40.4375 31 40.007812 C 30.960938 39.597656 30.765625 38.933594 30.84375 38.835938 C 30.863281 38.796875 30.960938 38.835938 30.960938 38.835938 C 30.960938 38.816406 30.863281 38.777344 30.863281 38.777344 C 30.863281 38.777344 30.785156 38.699219 30.746094 38.660156 C 30.707031 38.621094 30.628906 38.5625 30.628906 38.5625 C 30.609375 38.5625 30.550781 38.464844 30.53125 38.425781 C 30.492188 38.367188 30.433594 38.289062 30.433594 38.289062 C 30.433594 38.269531 30.394531 38.171875 30.375 38.132812 C 30.355469 38.074219 30.316406 37.976562 30.316406 37.976562 C 30.316406 37.957031 30.316406 37.859375 30.296875 37.800781 C 30.296875 37.742188 30.277344 37.644531 30.277344 37.644531 C 30.277344 37.644531 30.296875 37.527344 30.316406 37.46875 C 30.316406 37.410156 30.335938 37.3125 30.335938 37.3125 C 30.335938 37.3125 30.375 37.214844 30.394531 37.15625 C 30.414062 37.097656 30.453125 37 30.453125 37 C 30.453125 37 30.511719 36.902344 30.550781 36.863281 C 30.570312 36.84375 30.589844 36.824219 30.589844 36.804688 C 30.589844 36.765625 30.550781 36.746094 30.511719 36.707031 C 30.394531 36.550781 29.984375 36.082031 29.710938 35.75 C 29.417969 35.378906 28.910156 34.773438 28.792969 34.636719 C 28.773438 34.597656 28.753906 34.578125 28.753906 34.558594 C 28.734375 34.558594 28.714844 34.578125 28.695312 34.597656 C 28.617188 34.636719 28.382812 34.714844 28.246094 34.832031 C 28.089844 34.929688 28.03125 35.085938 27.875 35.261719 C 27.5625 35.554688 26.898438 36.179688 26.507812 36.472656 C 26.253906 36.648438 25.824219 36.863281 25.824219 36.863281 " clip-rule="nonzero"/></clipPath><clipPath id="27b7a6b08d"><path d="M 32.617188 33.207031 L 46.882812 33.207031 L 46.882812 51.222656 L 32.617188 51.222656 Z M 32.617188 33.207031 " clip-rule="nonzero"/></clipPath><clipPath id="d9ee5c05c1"><path d="M 32.660156 35.59375 C 32.679688 35.378906 32.679688 35.261719 32.679688 35.261719 C 32.679688 35.261719 32.71875 35.164062 32.738281 35.105469 C 32.757812 35.046875 32.796875 34.949219 32.796875 34.949219 C 32.796875 34.949219 32.855469 34.851562 32.894531 34.792969 C 32.914062 34.753906 32.972656 34.65625 32.972656 34.65625 C 32.992188 34.65625 33.070312 34.578125 33.109375 34.539062 C 33.148438 34.5 33.226562 34.421875 33.226562 34.421875 C 33.226562 34.421875 33.324219 34.363281 33.382812 34.34375 C 33.421875 34.324219 33.519531 34.265625 33.519531 34.265625 C 33.519531 34.265625 33.636719 34.226562 33.695312 34.207031 C 33.734375 34.207031 33.851562 34.167969 33.851562 34.167969 C 33.871094 34.167969 34.359375 34.128906 34.671875 34.109375 C 35.121094 34.070312 35.785156 33.972656 36.214844 33.933594 C 36.527344 33.933594 36.742188 33.953125 37.015625 33.953125 C 37.289062 33.933594 37.582031 33.894531 37.855469 33.855469 C 38.148438 33.835938 38.617188 33.875 38.734375 33.816406 C 38.792969 33.777344 38.792969 33.757812 38.8125 33.71875 C 38.851562 33.679688 38.929688 33.601562 38.929688 33.601562 C 38.929688 33.601562 39.027344 33.523438 39.066406 33.503906 C 39.105469 33.464844 39.203125 33.40625 39.203125 33.40625 C 39.203125 33.40625 39.300781 33.367188 39.359375 33.347656 C 39.398438 33.328125 39.515625 33.289062 39.515625 33.289062 C 39.515625 33.289062 39.613281 33.269531 39.671875 33.269531 C 39.730469 33.25 39.828125 33.25 39.847656 33.25 C 39.847656 33.25 39.945312 33.25 40.003906 33.25 C 40.0625 33.269531 40.160156 33.269531 40.160156 33.269531 C 40.179688 33.269531 40.277344 33.308594 40.316406 33.328125 C 40.375 33.347656 40.472656 33.386719 40.472656 33.386719 C 40.472656 33.386719 40.570312 33.445312 40.609375 33.484375 C 40.667969 33.523438 40.746094 33.582031 40.746094 33.582031 C 40.765625 33.582031 40.824219 33.660156 40.863281 33.699219 C 40.902344 33.738281 40.941406 33.796875 40.960938 33.816406 C 40.980469 33.816406 40.980469 33.835938 41.019531 33.835938 C 41.15625 33.835938 41.78125 33.445312 42.152344 33.464844 C 42.5625 33.484375 43.03125 33.738281 43.363281 33.992188 C 43.695312 34.226562 43.910156 34.558594 44.183594 34.910156 C 44.496094 35.320312 44.828125 35.90625 45.140625 36.335938 C 45.433594 36.726562 46.039062 37.371094 46.039062 37.390625 C 46.039062 37.390625 46.117188 37.46875 46.15625 37.507812 C 46.195312 37.527344 46.273438 37.605469 46.273438 37.605469 C 46.273438 37.625 46.332031 37.703125 46.371094 37.761719 C 46.390625 37.800781 46.449219 37.898438 46.449219 37.898438 C 46.449219 37.898438 46.488281 37.996094 46.507812 38.054688 C 46.527344 38.09375 46.546875 38.210938 46.546875 38.210938 C 46.546875 38.210938 46.566406 38.308594 46.566406 38.367188 C 46.566406 38.425781 46.585938 38.542969 46.585938 38.542969 C 46.585938 38.542969 46.566406 38.640625 46.546875 38.699219 C 46.546875 38.757812 46.527344 38.855469 46.527344 38.855469 C 46.527344 38.855469 46.488281 38.953125 46.449219 39.011719 C 46.429688 39.070312 46.390625 39.167969 46.390625 39.167969 C 46.390625 39.167969 46.332031 39.246094 46.292969 39.304688 C 46.253906 39.34375 46.195312 39.421875 46.195312 39.421875 C 46.195312 39.421875 46.097656 39.5 46.058594 39.519531 C 46.019531 39.558594 45.941406 39.636719 45.941406 39.636719 C 45.921875 39.636719 45.824219 39.675781 45.785156 39.695312 C 45.726562 39.734375 45.628906 39.773438 45.628906 39.773438 C 45.628906 39.773438 45.53125 39.792969 45.472656 39.8125 C 45.414062 39.8125 45.316406 39.832031 45.316406 39.832031 C 45.316406 39.832031 45.199219 39.832031 45.140625 39.832031 C 45.082031 39.832031 44.984375 39.8125 44.984375 39.8125 C 44.984375 39.8125 44.886719 39.753906 44.867188 39.792969 C 44.789062 39.851562 45.082031 40.75 45.140625 41.0625 C 45.160156 41.199219 45.101562 41.277344 45.160156 41.414062 C 45.257812 41.648438 45.667969 41.980469 45.882812 42.3125 C 46.117188 42.644531 46.371094 43.015625 46.527344 43.425781 C 46.683594 43.816406 46.878906 44.324219 46.820312 44.714844 C 46.761719 45.085938 46.46875 45.476562 46.195312 45.730469 C 45.882812 45.984375 45.21875 46.199219 45.0625 46.277344 C 45.023438 46.277344 45.003906 46.277344 44.984375 46.296875 C 44.945312 46.316406 44.945312 46.375 44.925781 46.394531 C 44.90625 46.433594 44.847656 46.492188 44.828125 46.511719 C 44.828125 46.511719 44.828125 46.53125 44.828125 46.53125 C 44.808594 46.550781 44.789062 46.589844 44.789062 46.648438 C 44.789062 46.824219 45.179688 47.351562 45.21875 47.742188 C 45.277344 48.152344 45.160156 48.640625 45.042969 49.070312 C 44.90625 49.5 44.75 50.046875 44.417969 50.339844 C 44.066406 50.671875 43.421875 50.789062 42.933594 50.90625 C 42.464844 51.023438 42.015625 51.023438 41.566406 51.0625 C 41.136719 51.121094 40.726562 51.179688 40.296875 51.199219 C 39.886719 51.21875 39.457031 51.21875 39.046875 51.199219 C 38.617188 51.179688 38.1875 51.140625 37.777344 51.121094 C 37.367188 51.121094 36.605469 51.121094 36.585938 51.121094 C 36.585938 51.121094 36.46875 51.101562 36.410156 51.101562 C 36.371094 51.101562 36.253906 51.082031 36.253906 51.082031 C 36.253906 51.082031 36.136719 51.0625 36.078125 51.042969 C 36.039062 51.023438 35.921875 50.984375 35.921875 50.984375 C 35.921875 50.984375 35.824219 50.925781 35.785156 50.886719 C 35.726562 50.847656 35.628906 50.789062 35.628906 50.789062 C 35.628906 50.789062 35.550781 50.710938 35.511719 50.671875 C 35.472656 50.632812 35.394531 50.535156 35.394531 50.535156 C 35.394531 50.535156 35.335938 50.4375 35.316406 50.398438 C 35.277344 50.339844 35.21875 50.242188 35.21875 50.242188 C 35.21875 50.242188 35.199219 50.125 35.179688 50.085938 C 35.160156 50.027344 35.140625 49.910156 35.140625 49.910156 C 35.140625 49.910156 35.121094 49.792969 35.121094 49.734375 C 35.121094 49.675781 35.121094 49.578125 35.121094 49.578125 C 35.121094 49.558594 35.140625 49.460938 35.160156 49.402344 C 35.179688 49.34375 35.199219 49.226562 35.199219 49.226562 C 35.199219 49.226562 35.238281 49.128906 35.277344 49.070312 C 35.296875 49.03125 35.335938 48.933594 35.335938 48.914062 C 35.355469 48.914062 35.433594 48.835938 35.453125 48.796875 C 35.472656 48.757812 35.511719 48.757812 35.511719 48.71875 C 35.550781 48.5625 35.21875 47.917969 35.160156 47.507812 C 35.101562 47.097656 35.082031 46.667969 35.179688 46.277344 C 35.296875 45.867188 35.511719 45.4375 35.804688 45.085938 C 36.136719 44.695312 36.742188 44.226562 37.152344 44.050781 C 37.40625 43.953125 37.71875 44.050781 37.835938 43.972656 C 37.894531 43.933594 37.894531 43.875 37.933594 43.835938 C 37.953125 43.777344 38.011719 43.679688 38.011719 43.679688 C 38.011719 43.679688 38.089844 43.601562 38.128906 43.5625 C 38.167969 43.523438 38.246094 43.445312 38.246094 43.445312 C 38.265625 43.445312 38.34375 43.386719 38.402344 43.347656 C 38.441406 43.328125 38.539062 43.269531 38.539062 43.269531 C 38.539062 43.269531 38.65625 43.230469 38.714844 43.210938 C 38.753906 43.210938 38.871094 43.171875 38.871094 43.171875 C 38.871094 43.171875 38.929688 43.171875 38.929688 43.171875 C 38.949219 43.171875 38.949219 43.152344 38.949219 43.152344 C 38.949219 43.152344 38.949219 43.171875 38.949219 43.171875 C 38.949219 43.171875 39.007812 43.152344 39.046875 43.152344 C 39.085938 43.152344 39.203125 43.152344 39.203125 43.152344 C 39.203125 43.152344 39.320312 43.171875 39.378906 43.171875 C 39.4375 43.191406 39.535156 43.210938 39.535156 43.210938 C 39.535156 43.210938 39.652344 43.25 39.691406 43.289062 C 39.75 43.308594 39.847656 43.347656 39.847656 43.347656 C 39.847656 43.347656 39.945312 43.425781 39.984375 43.464844 C 40.023438 43.484375 40.121094 43.5625 40.121094 43.5625 C 40.121094 43.5625 40.179688 43.640625 40.21875 43.699219 C 40.257812 43.738281 40.316406 43.835938 40.316406 43.835938 C 40.335938 43.835938 40.335938 43.875 40.355469 43.894531 C 40.414062 43.933594 40.6875 43.953125 40.765625 43.855469 C 40.863281 43.757812 40.707031 43.464844 40.746094 43.210938 C 40.824219 42.820312 41.058594 42.175781 41.3125 41.804688 C 41.527344 41.472656 42.015625 41.21875 42.074219 41.042969 C 42.09375 40.964844 42.054688 40.945312 42.054688 40.847656 C 42.035156 40.613281 42.054688 39.773438 42.015625 39.480469 C 41.996094 39.34375 41.976562 39.304688 41.917969 39.167969 C 41.800781 38.914062 41.585938 38.25 41.332031 38.113281 C 41.117188 38.015625 40.824219 38.210938 40.53125 38.25 C 40.160156 38.269531 39.652344 38.308594 39.242188 38.25 C 38.832031 38.210938 38.441406 38.074219 38.03125 37.957031 C 37.601562 37.839844 37.152344 37.644531 36.722656 37.527344 C 36.332031 37.429688 35.902344 37.371094 35.550781 37.273438 C 35.238281 37.175781 34.984375 36.960938 34.75 36.921875 C 34.574219 36.902344 34.28125 36.960938 34.28125 36.960938 C 34.261719 36.960938 34.164062 36.960938 34.105469 36.960938 C 34.046875 36.960938 33.929688 36.960938 33.929688 36.960938 C 33.929688 36.960938 33.8125 36.941406 33.773438 36.921875 C 33.714844 36.921875 33.597656 36.882812 33.597656 36.882812 C 33.597656 36.882812 33.5 36.84375 33.441406 36.824219 C 33.402344 36.785156 33.304688 36.746094 33.304688 36.746094 C 33.285156 36.746094 33.207031 36.667969 33.167969 36.628906 C 33.128906 36.589844 33.03125 36.53125 33.03125 36.53125 C 33.03125 36.53125 32.972656 36.433594 32.933594 36.394531 C 32.894531 36.335938 32.835938 36.257812 32.835938 36.257812 C 32.835938 36.257812 32.796875 36.140625 32.777344 36.101562 C 32.757812 36.042969 32.699219 35.945312 32.699219 35.945312 C 32.699219 35.945312 32.679688 35.828125 32.679688 35.769531 C 32.679688 35.710938 32.660156 35.613281 32.660156 35.59375 " clip-rule="nonzero"/></clipPath><clipPath id="2bcc56893a"><path d="M 39.382812 43.210938 L 42.898438 43.210938 L 42.898438 45.730469 L 39.382812 45.730469 Z M 39.382812 43.210938 " clip-rule="nonzero"/></clipPath><clipPath id="a7c7ee0191"><path d="M 40.472656 43.308594 C 42.347656 43.386719 42.679688 43.738281 42.816406 44.011719 C 42.914062 44.246094 42.894531 44.539062 42.816406 44.773438 C 42.738281 45.007812 42.582031 45.261719 42.367188 45.378906 C 42.09375 45.535156 41.566406 45.632812 41.253906 45.515625 C 40.960938 45.398438 40.609375 44.988281 40.53125 44.675781 C 40.453125 44.363281 40.589844 43.835938 40.804688 43.601562 C 41.039062 43.367188 41.546875 43.171875 41.859375 43.230469 C 42.191406 43.289062 42.621094 43.601562 42.757812 43.894531 C 42.894531 44.1875 42.875 44.734375 42.71875 45.007812 C 42.542969 45.300781 42.132812 45.476562 41.761719 45.59375 C 41.351562 45.730469 40.746094 45.769531 40.355469 45.652344 C 40.003906 45.535156 39.613281 45.261719 39.476562 44.96875 C 39.339844 44.675781 39.378906 44.148438 39.535156 43.875 C 39.710938 43.601562 40.472656 43.308594 40.472656 43.308594 " clip-rule="nonzero"/></clipPath><clipPath id="b26c8dbca1"><path d="M 27.402344 29.117188 L 38.914062 29.117188 L 38.914062 36.769531 L 27.402344 36.769531 Z M 27.402344 29.117188 " clip-rule="nonzero"/></clipPath><clipPath id="2a20d88f5e"><path d="M 32.914062 29.148438 C 38.050781 29.246094 38.519531 29.539062 38.753906 29.949219 C 38.988281 30.359375 38.890625 30.867188 38.851562 31.53125 C 38.773438 32.605469 38.324219 35.066406 38.03125 35.808594 C 37.933594 36.082031 37.875 36.199219 37.71875 36.355469 C 37.523438 36.53125 37.132812 36.707031 36.859375 36.746094 C 36.644531 36.765625 36.429688 36.707031 36.253906 36.628906 C 36.058594 36.550781 35.863281 36.433594 35.746094 36.238281 C 35.589844 36.023438 35.628906 35.652344 35.453125 35.359375 C 35.238281 34.988281 34.847656 34.539062 34.457031 34.285156 C 34.105469 34.03125 33.597656 34.050781 33.207031 33.835938 C 32.796875 33.582031 32.210938 33.230469 32.113281 32.820312 C 31.996094 32.371094 32.289062 31.53125 32.621094 31.199219 C 32.933594 30.886719 33.421875 30.769531 33.929688 30.730469 C 34.652344 30.671875 35.84375 30.964844 36.546875 31.199219 C 37.09375 31.375 37.601562 31.492188 37.894531 31.84375 C 38.207031 32.234375 38.402344 33.074219 38.285156 33.523438 C 38.1875 33.933594 37.835938 34.265625 37.40625 34.480469 C 36.761719 34.773438 35.511719 34.519531 34.574219 34.636719 C 33.65625 34.734375 32.347656 35.457031 31.820312 35.144531 C 31.410156 34.890625 31.097656 33.875 31.3125 33.503906 C 31.566406 33.074219 33.207031 32.996094 33.851562 33.035156 C 34.242188 33.054688 34.554688 33.152344 34.769531 33.308594 C 34.964844 33.445312 35.101562 33.601562 35.179688 33.816406 C 35.277344 34.089844 35.316406 34.519531 35.257812 34.792969 C 35.199219 35.007812 35.082031 35.203125 34.925781 35.339844 C 34.710938 35.535156 34.457031 35.730469 34.046875 35.75 C 33.128906 35.789062 30.6875 34.832031 29.554688 34.167969 C 28.734375 33.679688 27.953125 33.015625 27.640625 32.46875 C 27.445312 32.117188 27.40625 31.765625 27.464844 31.453125 C 27.503906 31.140625 27.71875 30.808594 27.953125 30.632812 C 28.1875 30.457031 28.578125 30.339844 28.871094 30.359375 C 29.183594 30.378906 29.417969 30.476562 29.75 30.75 C 30.492188 31.355469 32.308594 33.699219 32.582031 34.675781 C 32.71875 35.183594 32.660156 35.613281 32.464844 35.925781 C 32.25 36.238281 31.722656 36.53125 31.351562 36.53125 C 30.980469 36.53125 30.453125 36.21875 30.238281 35.964844 C 30.042969 35.730469 29.984375 35.398438 29.984375 35.125 C 30.003906 34.871094 30.101562 34.539062 30.296875 34.324219 C 30.550781 34.089844 31.097656 33.816406 31.46875 33.855469 C 31.839844 33.894531 32.328125 34.226562 32.523438 34.539062 C 32.699219 34.871094 32.699219 35.476562 32.523438 35.808594 C 32.367188 36.140625 31.839844 36.453125 31.488281 36.53125 C 31.214844 36.589844 30.921875 36.511719 30.648438 36.355469 C 30.277344 36.121094 29.945312 35.59375 29.554688 35.085938 C 28.96875 34.363281 27.914062 32.996094 27.621094 32.390625 C 27.484375 32.117188 27.445312 31.980469 27.425781 31.765625 C 27.425781 31.570312 27.445312 31.335938 27.5625 31.140625 C 27.679688 30.886719 27.972656 30.59375 28.246094 30.457031 C 28.519531 30.339844 28.851562 30.300781 29.203125 30.417969 C 29.789062 30.613281 30.453125 31.648438 31.292969 32.117188 C 32.269531 32.664062 34.164062 32.820312 34.769531 33.308594 C 35.082031 33.5625 35.21875 33.835938 35.277344 34.128906 C 35.335938 34.441406 35.277344 34.832031 35.121094 35.085938 C 34.964844 35.339844 34.652344 35.554688 34.359375 35.691406 C 34.066406 35.828125 33.773438 35.828125 33.34375 35.867188 C 32.621094 35.925781 31.078125 36.140625 30.394531 35.828125 C 29.886719 35.613281 29.417969 35.125 29.339844 34.675781 C 29.242188 34.226562 29.574219 33.464844 29.90625 33.113281 C 30.179688 32.800781 30.570312 32.742188 31.019531 32.585938 C 31.703125 32.332031 32.914062 32.039062 33.636719 31.960938 C 34.183594 31.882812 34.613281 31.804688 35.023438 31.921875 C 35.433594 32.058594 35.902344 32.3125 36.136719 32.664062 C 36.390625 33.035156 36.683594 33.953125 36.488281 34.128906 C 36.214844 34.363281 34.398438 33.679688 33.988281 33.113281 C 33.65625 32.625 33.597656 31.375 33.890625 31.160156 C 34.242188 30.925781 35.667969 31.824219 36.273438 32.175781 C 36.703125 32.429688 37.015625 32.585938 37.308594 32.976562 C 37.699219 33.542969 38.089844 34.949219 38.089844 35.496094 C 38.089844 35.769531 38.011719 35.925781 37.914062 36.101562 C 37.816406 36.277344 37.660156 36.453125 37.464844 36.550781 C 37.230469 36.667969 36.820312 36.746094 36.546875 36.726562 C 36.332031 36.707031 36.136719 36.589844 35.980469 36.472656 C 35.804688 36.335938 35.667969 36.160156 35.570312 35.984375 C 35.492188 35.789062 35.453125 35.652344 35.453125 35.359375 C 35.472656 34.558594 35.863281 31.160156 36.390625 30.925781 C 36.683594 30.808594 37.503906 31.492188 37.445312 31.628906 C 37.347656 31.921875 33.1875 31.804688 32.367188 31.414062 C 32.035156 31.257812 31.898438 31.023438 31.800781 30.789062 C 31.703125 30.535156 31.722656 30.164062 31.800781 29.929688 C 31.859375 29.734375 31.976562 29.578125 32.132812 29.460938 C 32.308594 29.304688 32.914062 29.148438 32.914062 29.148438 " clip-rule="nonzero"/></clipPath><clipPath id="58020f2a92"><path d="M 15 30.253906 L 47.683594 30.253906 L 47.683594 50.738281 L 15 50.738281 Z M 15 30.253906 " clip-rule="nonzero"/></clipPath><clipPath id="ca5a7642e6"><path d="M 9.167969 35 L 23 35 L 23 37 L 9.167969 37 Z M 9.167969 35 " clip-rule="nonzero"/></clipPath></defs><g clip-path="url(#1e4267be1d)"><path fill="#ffbf39" d="M 63.050781 56.164062 C 63.191406 55.832031 63.226562 55.511719 63.253906 55.257812 C 63.265625 55.148438 63.273438 55.039062 63.304688 54.933594 C 63.378906 54.667969 63.710938 54.382812 64.066406 54.078125 C 64.605469 53.613281 65.277344 53.03125 65.484375 52.105469 C 65.742188 50.957031 65.121094 49.9375 64.789062 49.390625 C 64.171875 48.382812 63.445312 47.386719 62.292969 46.941406 C 61.480469 46.625 60.507812 46.71875 59.753906 47.175781 C 59.617188 47.257812 59.496094 47.351562 59.382812 47.449219 C 59.34375 47.320312 59.3125 47.175781 59.285156 47.007812 C 59.023438 45.28125 58.644531 43.558594 58.160156 41.882812 C 57.753906 40.46875 57.226562 39.007812 56.140625 37.890625 C 55.71875 37.453125 55.257812 37.117188 54.8125 36.792969 C 54.535156 36.589844 54.261719 36.390625 54.003906 36.167969 C 52.585938 34.929688 51.945312 33.042969 51.660156 31.675781 L 51.578125 31.265625 C 51.449219 30.605469 51.304688 29.851562 50.949219 29.152344 C 50.207031 27.699219 48.832031 26.925781 47.863281 26.464844 C 47.558594 26.320312 47.367188 26.039062 47.375 25.742188 C 47.375 25.636719 47.375 25.523438 47.367188 25.410156 C 47.355469 25.265625 47.34375 24.769531 47.640625 24.558594 C 48.886719 23.667969 49.613281 22.152344 50.160156 20.789062 L 51.125 18.386719 C 51.238281 18.105469 51.425781 17.636719 51.347656 17.097656 C 51.257812 16.511719 50.855469 15.726562 49.4375 15.320312 C 47.832031 14.859375 46.164062 14.664062 44.480469 14.746094 C 44 14.773438 43.828125 14.429688 43.785156 14.328125 C 43.722656 14.175781 43.65625 13.886719 43.992188 13.566406 C 44.15625 13.410156 44.375 13.261719 44.605469 13.109375 C 44.878906 12.925781 45.183594 12.71875 45.464844 12.453125 C 46.25 11.722656 46.710938 10.6875 46.726562 9.613281 C 46.730469 9.328125 46.609375 9.042969 46.40625 8.84375 C 46 8.453125 45.675781 8.453125 43.210938 8.566406 C 42.652344 8.59375 41.90625 8.632812 41.792969 8.628906 C 41.523438 8.570312 41.21875 8.441406 40.902344 8.308594 C 40.101562 7.964844 39.003906 7.496094 37.773438 8.035156 C 36.714844 8.496094 36.046875 9.515625 35.789062 11.0625 C 35.730469 11.425781 35.765625 11.871094 35.835938 12.421875 C 35.894531 12.863281 35.648438 13.3125 35.179688 13.628906 C 34.828125 13.871094 34.539062 14.199219 34.34375 14.582031 C 34 15.257812 33.960938 15.960938 33.925781 16.578125 L 33.898438 16.964844 C 33.867188 17.363281 33.753906 17.484375 33.453125 17.808594 C 33.121094 18.164062 32.664062 18.648438 32.390625 19.546875 C 32.214844 20.125 31.949219 20.859375 31.476562 21.382812 C 31.105469 21.792969 30.761719 22.339844 30.453125 23.011719 C 30.164062 23.648438 30.179688 24.375 30.503906 25.003906 C 30.828125 25.628906 31.402344 26.058594 32.085938 26.191406 C 32.601562 26.289062 33.121094 26.253906 33.667969 26.082031 L 33.328125 27.644531 C 33.230469 28.234375 33.601562 28.640625 33.777344 28.832031 C 33.828125 28.890625 33.90625 28.976562 33.917969 29 C 33.917969 29 33.925781 29.222656 33.511719 29.761719 C 32.953125 30.484375 33.121094 31.0625 33.273438 31.34375 C 33.746094 32.210938 34.824219 32.128906 36.074219 32.027344 C 36.09375 32.023438 36.113281 32.023438 36.136719 32.023438 C 35.730469 33.011719 35.4375 34.222656 36.214844 35.484375 C 36.785156 36.40625 37.8125 37.027344 39.035156 37.191406 C 40.035156 37.324219 41.082031 37.214844 41.980469 36.851562 C 41.871094 38.238281 42.03125 39.359375 42.464844 40.277344 C 42.644531 40.660156 42.726562 41.082031 42.707031 41.53125 C 42.6875 41.984375 42.789062 42.425781 42.890625 42.851562 C 42.980469 43.226562 43.089844 43.695312 43.015625 43.890625 C 42.960938 44.023438 42.566406 44.183594 42.066406 44.125 C 41.808594 44.097656 41.554688 44.039062 41.296875 43.980469 C 40.765625 43.863281 40.160156 43.726562 39.507812 43.777344 C 37.832031 43.914062 36.414062 45.332031 36.277344 47.011719 C 36.210938 47.804688 36.441406 48.503906 36.925781 48.976562 C 37.347656 49.390625 37.863281 49.542969 38.238281 49.652344 C 38.730469 49.796875 38.730469 49.800781 38.773438 50.023438 C 38.839844 50.386719 38.695312 50.800781 38.40625 51.070312 C 37.980469 51.464844 37.375 51.714844 36.734375 51.976562 C 36.289062 52.15625 35.832031 52.34375 35.382812 52.59375 C 35.042969 52.789062 34.554688 53.109375 34.265625 53.648438 C 33.960938 54.21875 33.945312 54.875 34.222656 55.5 C 34.570312 56.285156 35.355469 56.933594 36.226562 57.148438 C 36.820312 57.296875 37.421875 57.300781 37.921875 57.296875 C 38.320312 57.292969 38.699219 57.296875 39.03125 57.363281 C 39.289062 57.414062 39.539062 57.503906 39.789062 57.59375 C 40.203125 57.738281 40.667969 57.902344 41.191406 57.957031 C 42.054688 58.046875 42.84375 57.8125 43.542969 57.609375 C 43.753906 57.546875 43.960938 57.484375 44.171875 57.433594 C 44.558594 57.339844 44.910156 57.316406 45.1875 57.359375 C 44.871094 57.925781 44.320312 58.429688 43.632812 58.757812 C 42.804688 59.152344 41.765625 59.339844 40.292969 59.355469 C 39.738281 59.359375 39.054688 59.363281 38.40625 59.714844 C 37.632812 60.132812 37.242188 60.855469 36.929688 61.441406 L 36.816406 61.660156 C 36.777344 61.679688 36.632812 61.710938 36.527344 61.730469 C 35.234375 62.003906 34.335938 62.667969 33.84375 65.125 C 33.753906 65.582031 33.90625 66.035156 34.265625 66.367188 C 35.03125 67.078125 36.867188 67.183594 37.753906 66.9375 C 38.042969 66.859375 38.484375 67.011719 38.953125 67.175781 L 39.300781 67.292969 C 39.757812 67.445312 40.199219 67.519531 40.605469 67.519531 C 41.375 67.519531 42.023438 67.253906 42.46875 66.730469 C 42.910156 66.214844 43.007812 65.625 43.085938 65.148438 C 43.125 64.910156 43.167969 64.664062 43.238281 64.554688 C 43.421875 64.265625 44.328125 64.433594 45.222656 64.921875 C 47.289062 66.050781 49.046875 65.964844 49.925781 64.691406 C 50.128906 64.402344 50.242188 64.09375 50.335938 63.84375 C 50.378906 63.71875 50.449219 63.527344 50.429688 63.519531 C 50.507812 63.496094 50.757812 63.515625 50.851562 63.523438 L 55.433594 63.890625 C 56.558594 63.980469 57.835938 64.082031 59.085938 63.816406 C 60.285156 63.5625 61.363281 62.996094 62.308594 62.496094 C 64.773438 61.199219 65.03125 59.769531 64.808594 58.796875 C 64.710938 58.363281 64.351562 58.046875 63.914062 58 L 61.378906 57.730469 C 61.429688 57.699219 61.484375 57.664062 61.539062 57.632812 C 62.066406 57.324219 62.726562 56.941406 63.050781 56.164062 Z M 59.273438 59.300781 C 59.445312 59.492188 59.683594 59.617188 59.941406 59.644531 L 62.460938 59.914062 C 62.207031 60.160156 61.828125 60.421875 61.351562 60.671875 C 60.480469 61.132812 59.578125 61.609375 58.660156 61.800781 C 57.699219 62.007812 56.628906 61.921875 55.59375 61.839844 L 51.015625 61.472656 C 50.609375 61.4375 49.933594 61.386719 49.328125 61.785156 C 48.761719 62.160156 48.554688 62.722656 48.402344 63.132812 C 48.347656 63.285156 48.289062 63.445312 48.238281 63.519531 C 48.039062 63.808594 47.148438 63.632812 46.210938 63.117188 C 44.15625 61.992188 42.347656 62.117188 41.503906 63.445312 C 41.203125 63.910156 41.121094 64.414062 41.058594 64.8125 C 41.019531 65.035156 40.972656 65.3125 40.90625 65.394531 C 40.84375 65.460938 40.5 65.519531 39.941406 65.339844 L 39.636719 65.230469 C 39.144531 65.058594 38.558594 64.855469 37.925781 64.855469 C 37.691406 64.855469 37.449219 64.882812 37.203125 64.953125 C 36.925781 65.03125 36.386719 65.003906 36 64.933594 C 36.28125 63.882812 36.585938 63.820312 36.953125 63.746094 C 37.402344 63.648438 38.152344 63.492188 38.636719 62.617188 L 38.746094 62.410156 C 38.949219 62.035156 39.15625 61.644531 39.386719 61.523438 C 39.582031 61.414062 39.953125 61.414062 40.378906 61.410156 C 41.460938 61.402344 43.066406 61.308594 44.519531 60.613281 C 46.066406 59.878906 47.164062 58.5625 47.457031 57.09375 C 47.523438 56.773438 47.433594 56.445312 47.214844 56.203125 C 46.453125 55.351562 45.167969 55.070312 43.683594 55.433594 C 43.445312 55.492188 43.203125 55.5625 42.964844 55.632812 C 42.398438 55.796875 41.867188 55.957031 41.402344 55.90625 C 41.121094 55.878906 40.804688 55.769531 40.472656 55.652344 C 40.160156 55.542969 39.808594 55.417969 39.433594 55.34375 C 38.902344 55.238281 38.371094 55.238281 37.921875 55.238281 C 37.492188 55.238281 37.070312 55.238281 36.722656 55.152344 C 36.359375 55.058594 36.085938 54.71875 36.078125 54.617188 C 36.085938 54.609375 36.128906 54.535156 36.394531 54.386719 C 36.726562 54.199219 37.109375 54.042969 37.507812 53.882812 C 38.257812 53.574219 39.105469 53.230469 39.804688 52.578125 C 40.609375 51.824219 40.992188 50.703125 40.796875 49.648438 C 40.523438 48.171875 39.40625 47.847656 38.808594 47.671875 C 38.664062 47.632812 38.417969 47.558594 38.371094 47.511719 C 38.347656 47.488281 38.308594 47.363281 38.324219 47.175781 C 38.378906 46.511719 39.007812 45.882812 39.671875 45.832031 C 40.015625 45.796875 40.417969 45.894531 40.84375 45.988281 C 41.171875 46.058594 41.496094 46.132812 41.824219 46.167969 C 43.03125 46.316406 44.453125 45.882812 44.933594 44.621094 C 45.234375 43.835938 45.042969 43.027344 44.890625 42.378906 C 44.824219 42.089844 44.75 41.789062 44.757812 41.625 C 44.796875 40.835938 44.648438 40.085938 44.320312 39.394531 C 44.03125 38.785156 43.941406 37.960938 44.039062 36.878906 C 44.101562 36.21875 43.824219 35.585938 43.304688 35.1875 C 42.773438 34.777344 42.078125 34.671875 41.4375 34.90625 C 40.742188 35.15625 40.003906 35.242188 39.304688 35.148438 C 38.695312 35.066406 38.207031 34.792969 37.964844 34.398438 C 37.613281 33.832031 37.796875 33.296875 38.300781 32.203125 C 38.378906 32.03125 38.460938 31.859375 38.53125 31.691406 C 38.707031 31.28125 38.667969 30.832031 38.421875 30.488281 C 37.933594 29.8125 37.039062 29.882812 35.90625 29.972656 C 35.859375 29.976562 35.808594 29.980469 35.753906 29.984375 C 36.238281 28.828125 35.796875 28.054688 35.4375 27.609375 L 35.726562 26.292969 C 35.839844 25.597656 35.585938 24.914062 35.050781 24.46875 C 34.492188 24.003906 33.707031 23.871094 33 24.121094 C 32.820312 24.1875 32.652344 24.203125 32.472656 24.164062 C 32.398438 24.152344 32.355469 24.097656 32.332031 24.058594 C 32.3125 24.023438 32.289062 23.949219 32.328125 23.863281 C 32.539062 23.398438 32.777344 23.007812 33 22.765625 C 33.746094 21.9375 34.117188 20.929688 34.355469 20.144531 C 34.492188 19.703125 34.683594 19.496094 34.953125 19.210938 C 35.335938 18.804688 35.859375 18.246094 35.949219 17.132812 C 35.960938 16.988281 35.972656 16.839844 35.976562 16.695312 C 36.003906 16.238281 36.03125 15.804688 36.175781 15.507812 C 36.210938 15.441406 36.269531 15.375 36.332031 15.332031 C 37.460938 14.574219 38.035156 13.382812 37.875 12.15625 C 37.804688 11.605469 37.8125 11.441406 37.816406 11.394531 C 37.953125 10.582031 38.210938 10.085938 38.59375 9.921875 C 38.992188 9.75 39.402344 9.90625 40.089844 10.199219 C 40.46875 10.359375 40.894531 10.539062 41.351562 10.640625 C 41.613281 10.695312 41.953125 10.6875 43.304688 10.621094 C 43.609375 10.609375 43.996094 10.589844 44.363281 10.574219 C 44.277344 10.710938 44.175781 10.835938 44.058594 10.945312 C 43.890625 11.101562 43.675781 11.246094 43.449219 11.398438 C 43.171875 11.585938 42.863281 11.796875 42.515625 12.125 C 41.6875 12.914062 41.445312 14.09375 41.890625 15.136719 C 42.347656 16.203125 43.382812 16.84375 44.574219 16.800781 C 46.039062 16.730469 47.480469 16.898438 48.867188 17.292969 C 49.078125 17.355469 49.203125 17.414062 49.273438 17.453125 C 49.253906 17.511719 49.226562 17.574219 49.210938 17.613281 L 48.246094 20.015625 C 47.835938 21.042969 47.257812 22.292969 46.4375 22.878906 C 45.640625 23.449219 45.230469 24.425781 45.308594 25.546875 C 45.3125 25.59375 45.3125 25.636719 45.3125 25.679688 C 45.28125 26.792969 45.933594 27.828125 46.976562 28.324219 C 48.085938 28.847656 48.765625 29.40625 49.109375 30.082031 C 49.335938 30.527344 49.441406 31.074219 49.554688 31.65625 L 49.644531 32.09375 C 50.144531 34.492188 51.183594 36.4375 52.648438 37.714844 C 52.949219 37.976562 53.269531 38.214844 53.59375 38.449219 C 53.988281 38.738281 54.359375 39.011719 54.660156 39.320312 C 55.386719 40.070312 55.792969 41.113281 56.179688 42.453125 C 56.640625 44.039062 57 45.675781 57.246094 47.316406 C 57.34375 47.9375 57.621094 49.070312 58.4375 49.660156 C 58.851562 49.957031 59.332031 50.070312 59.832031 49.984375 C 60.285156 49.910156 60.632812 49.542969 60.683594 49.085938 C 60.691406 49.019531 60.78125 48.957031 60.816406 48.933594 C 61.019531 48.808594 61.335938 48.78125 61.550781 48.859375 C 62.15625 49.097656 62.632812 49.808594 63.027344 50.460938 C 63.195312 50.738281 63.546875 51.316406 63.472656 51.652344 C 63.414062 51.917969 63.078125 52.207031 62.71875 52.515625 C 62.207031 52.960938 61.566406 53.511719 61.324219 54.367188 C 61.261719 54.582031 61.230469 54.804688 61.207031 55.027344 C 61.191406 55.160156 61.175781 55.308594 61.148438 55.371094 C 61.089844 55.511719 60.777344 55.691406 60.5 55.855469 C 60.34375 55.945312 60.1875 56.035156 60.042969 56.132812 C 59.542969 56.464844 58.972656 57.101562 58.863281 57.90625 C 58.796875 58.421875 58.941406 58.917969 59.273438 59.300781 Z M 34.398438 40.355469 C 34.324219 39.816406 34.21875 39.351562 34.074219 38.933594 C 34.03125 38.800781 33.933594 38.652344 33.839844 38.546875 C 33.761719 38.460938 33.644531 38.328125 33.585938 38.242188 C 33.601562 38.179688 33.613281 38.121094 33.621094 38.0625 C 33.800781 36.335938 32.714844 33.792969 31.25 32.507812 C 30.273438 31.652344 29.179688 31.34375 28.003906 31.632812 C 27.421875 31.835938 26.984375 32.203125 26.601562 32.523438 C 26.335938 32.75 26.078125 32.964844 25.871094 33.03125 C 24.476562 32.960938 23.410156 33.652344 23.011719 34.855469 C 22.933594 35.058594 22.886719 35.261719 22.847656 35.449219 C 22.15625 35.277344 21.351562 35.460938 20.863281 35.949219 C 20.675781 36.140625 20.179688 36.753906 20.460938 37.699219 C 19.925781 38.066406 19.542969 38.609375 19.398438 39.21875 C 19.238281 39.910156 19.402344 40.628906 19.855469 41.1875 C 20.242188 41.667969 20.519531 42.082031 20.628906 42.53125 C 20.882812 43.710938 21.921875 44.851562 23.347656 44.785156 C 24.703125 44.714844 25.234375 43.921875 25.582031 43.394531 C 25.632812 43.320312 25.683594 43.242188 25.738281 43.167969 C 26.074219 44.058594 26.925781 44.703125 27.890625 44.765625 C 27.992188 44.773438 28.292969 44.792969 28.355469 44.847656 C 28.816406 45.257812 29.394531 45.480469 29.980469 45.480469 C 30.085938 45.480469 30.191406 45.472656 30.296875 45.460938 C 30.929688 45.375 31.46875 45.027344 31.808594 44.492188 C 31.976562 44.234375 32.117188 43.945312 32.257812 43.65625 C 32.339844 43.492188 32.417969 43.332031 32.492188 43.195312 C 33.035156 43.082031 33.523438 42.777344 33.878906 42.316406 C 34.308594 41.765625 34.5 41.046875 34.402344 40.355469 Z M 32.25 41.058594 C 32.191406 41.132812 32.128906 41.175781 32.0625 41.183594 C 31.734375 41.21875 31.449219 41.328125 31.207031 41.511719 C 31.132812 41.566406 31.066406 41.632812 31.007812 41.707031 C 30.757812 42.035156 30.578125 42.402344 30.40625 42.757812 C 30.300781 42.972656 30.199219 43.191406 30.015625 43.421875 C 29.941406 43.429688 29.824219 43.402344 29.726562 43.3125 C 29.132812 42.789062 28.417969 42.738281 28.03125 42.714844 C 27.851562 42.703125 27.695312 42.570312 27.652344 42.398438 C 27.5625 42.03125 27.421875 41.773438 27.3125 41.566406 C 27.1875 41.328125 27.101562 41.171875 27.050781 40.789062 C 27.015625 40.5 26.855469 40.238281 26.613281 40.074219 C 26.441406 39.953125 26.238281 39.894531 26.03125 39.894531 C 25.949219 39.894531 25.867188 39.902344 25.785156 39.921875 C 24.691406 40.195312 24.46875 40.953125 24.347656 41.363281 C 24.289062 41.566406 24.242188 41.726562 24.097656 41.925781 C 24.015625 42.035156 23.941406 42.144531 23.871094 42.253906 C 23.589844 42.679688 23.558594 42.710938 23.242188 42.726562 C 22.964844 42.773438 22.699219 42.359375 22.636719 42.074219 C 22.425781 41.179688 21.945312 40.5 21.460938 39.894531 C 21.402344 39.824219 21.386719 39.761719 21.40625 39.6875 C 21.429688 39.578125 21.523438 39.4375 21.714844 39.347656 C 22.296875 39.082031 22.644531 38.53125 22.667969 37.84375 C 22.667969 37.761719 22.660156 37.679688 22.644531 37.597656 C 23.09375 37.789062 23.511719 37.796875 23.890625 37.628906 C 24.601562 37.304688 24.742188 36.546875 24.832031 36.046875 C 24.863281 35.886719 24.886719 35.71875 24.941406 35.570312 C 24.949219 35.550781 24.957031 35.535156 24.960938 35.515625 C 25.066406 35.1875 25.363281 35.042969 25.847656 35.089844 C 25.921875 35.097656 26 35.09375 26.078125 35.082031 C 26.890625 34.972656 27.46875 34.488281 27.929688 34.097656 C 28.199219 33.867188 28.457031 33.652344 28.585938 33.605469 C 28.738281 33.566406 29.207031 33.453125 29.894531 34.054688 C 30.914062 34.945312 31.625 36.75 31.582031 37.738281 C 31.3125 38.636719 31.8125 39.34375 32.1875 39.78125 C 32.261719 40.03125 32.320312 40.3125 32.363281 40.636719 C 32.382812 40.78125 32.339844 40.941406 32.253906 41.054688 Z M 32.25 41.058594 " fill-opacity="1" fill-rule="nonzero"/></g><g clip-path="url(#affaf8d744)"><g clip-path="url(#6fe78b7b5f)"><path fill="#ffffff" d="M 17.855469 30.144531 L 35.933594 30.144531 L 35.933594 47.742188 L 17.855469 47.742188 Z M 17.855469 30.144531 " fill-opacity="1" fill-rule="nonzero"/></g></g><g clip-path="url(#27b7a6b08d)"><g clip-path="url(#d9ee5c05c1)"><path fill="#ffffff" d="M 31.878906 32.46875 L 47.621094 32.46875 L 47.621094 52.023438 L 31.878906 52.023438 Z M 31.878906 32.46875 " fill-opacity="1" fill-rule="nonzero"/></g></g><g clip-path="url(#2bcc56893a)"><g clip-path="url(#a7c7ee0191)"><path fill="#ffffff" d="M 38.695312 42.449219 L 43.613281 42.449219 L 43.613281 46.433594 L 38.695312 46.433594 Z M 38.695312 42.449219 " fill-opacity="1" fill-rule="nonzero"/></g></g><g clip-path="url(#b26c8dbca1)"><g clip-path="url(#2a20d88f5e)"><path fill="#ffffff" d="M 26.644531 28.289062 L 39.636719 28.289062 L 39.636719 37.527344 L 26.644531 37.527344 Z M 26.644531 28.289062 " fill-opacity="1" fill-rule="nonzero"/></g></g><g clip-path="url(#58020f2a92)"><path fill="#ffbf39" d="M 47.363281 40.519531 L 44.28125 35.058594 L 44.273438 35.042969 C 43.980469 34.5625 43.480469 34.273438 42.945312 34.273438 L 39.164062 34.273438 L 39.429688 32.355469 C 39.503906 31.828125 39.34375 31.292969 38.992188 30.890625 C 38.640625 30.484375 38.132812 30.253906 37.597656 30.253906 L 19.332031 30.253906 C 19.050781 30.253906 18.820312 30.484375 18.820312 30.765625 C 18.820312 31.046875 19.050781 31.273438 19.332031 31.273438 L 37.597656 31.273438 C 37.839844 31.273438 38.0625 31.375 38.222656 31.558594 C 38.382812 31.742188 38.453125 31.976562 38.421875 32.21875 L 38.136719 34.273438 L 38.121094 34.273438 L 36.441406 46.109375 L 36.441406 46.121094 C 36.402344 46.445312 36.378906 46.6875 36.363281 46.871094 L 27.386719 46.871094 C 27.140625 45.242188 25.726562 43.984375 24.027344 43.984375 C 22.328125 43.984375 20.917969 45.242188 20.667969 46.871094 L 17.40625 46.871094 C 17.164062 46.871094 16.941406 46.773438 16.78125 46.589844 C 16.621094 46.40625 16.550781 46.171875 16.585938 45.929688 L 16.933594 43.414062 C 16.96875 43.136719 16.773438 42.878906 16.496094 42.839844 C 16.214844 42.800781 15.960938 42.996094 15.921875 43.273438 L 15.574219 45.789062 C 15.5 46.320312 15.660156 46.855469 16.011719 47.257812 C 16.363281 47.660156 16.871094 47.894531 17.40625 47.894531 L 20.671875 47.894531 C 20.917969 49.523438 22.328125 50.78125 24.027344 50.78125 C 25.726562 50.78125 27.140625 49.523438 27.386719 47.894531 L 38.058594 47.894531 C 38.304688 49.523438 39.714844 50.78125 41.414062 50.78125 C 43.117188 50.78125 44.527344 49.523438 44.773438 47.894531 L 45.433594 47.894531 C 46.300781 47.894531 47.007812 47.144531 47.027344 46.214844 L 47.617188 41.515625 L 47.621094 41.453125 C 47.621094 41.121094 47.53125 40.796875 47.363281 40.519531 Z M 26.40625 47.382812 C 26.40625 47.558594 26.386719 47.730469 26.347656 47.894531 C 26.113281 48.957031 25.164062 49.757812 24.027344 49.757812 C 22.894531 49.757812 21.941406 48.957031 21.707031 47.894531 C 21.671875 47.726562 21.652344 47.558594 21.652344 47.382812 C 21.652344 47.207031 21.671875 47.035156 21.707031 46.871094 C 21.941406 45.804688 22.894531 45.007812 24.027344 45.007812 C 25.164062 45.007812 26.113281 45.808594 26.347656 46.871094 C 26.386719 47.039062 26.40625 47.207031 26.40625 47.382812 Z M 43.792969 47.382812 C 43.792969 47.558594 43.773438 47.730469 43.738281 47.894531 C 43.503906 48.957031 42.550781 49.757812 41.414062 49.757812 C 40.28125 49.757812 39.328125 48.957031 39.09375 47.894531 C 39.058594 47.726562 39.039062 47.558594 39.039062 47.382812 C 39.039062 47.207031 39.058594 47.035156 39.09375 46.871094 C 39.328125 45.804688 40.28125 45.007812 41.414062 45.007812 C 42.550781 45.007812 43.503906 45.808594 43.738281 46.871094 C 43.773438 47.039062 43.792969 47.207031 43.792969 47.382812 Z M 46.011719 46.117188 L 46.007812 46.179688 C 46.007812 46.5625 45.75 46.871094 45.433594 46.871094 L 44.773438 46.871094 C 44.527344 45.242188 43.113281 43.984375 41.414062 43.984375 C 39.714844 43.984375 38.304688 45.242188 38.058594 46.871094 L 37.425781 46.871094 L 39.023438 35.292969 L 42.945312 35.292969 C 43.121094 35.292969 43.292969 35.398438 43.398438 35.570312 L 46.480469 41.027344 L 46.488281 41.042969 C 46.558594 41.15625 46.597656 41.289062 46.601562 41.425781 Z M 46.011719 46.117188 " fill-opacity="1" fill-rule="nonzero"/></g><path fill="#ffbf39" d="M 42.898438 36.375 C 42.765625 36.117188 42.507812 35.957031 42.21875 35.957031 L 40.160156 35.957031 C 39.777344 35.957031 39.453125 36.242188 39.40625 36.621094 L 38.960938 40.054688 C 38.929688 40.273438 39 40.492188 39.144531 40.65625 C 39.289062 40.820312 39.496094 40.914062 39.714844 40.914062 L 43.964844 40.914062 C 44.234375 40.914062 44.476562 40.777344 44.613281 40.550781 C 44.753906 40.324219 44.765625 40.046875 44.644531 39.808594 Z M 40.007812 39.894531 L 40.386719 36.976562 L 42.0625 36.976562 L 43.542969 39.894531 Z M 40.007812 39.894531 " fill-opacity="1" fill-rule="nonzero"/><g clip-path="url(#ca5a7642e6)"><path fill="#ffbf39" d="M 22.859375 35.632812 C 22.859375 35.351562 22.632812 35.125 22.347656 35.125 L 9.679688 35.125 C 9.394531 35.125 9.167969 35.351562 9.167969 35.632812 C 9.167969 35.914062 9.394531 36.144531 9.679688 36.144531 L 22.347656 36.144531 C 22.628906 36.144531 22.859375 35.914062 22.859375 35.632812 Z M 22.859375 35.632812 " fill-opacity="1" fill-rule="nonzero"/></g><path fill="#ffbf39" d="M 25.777344 38.054688 L 13.105469 38.054688 C 12.824219 38.054688 12.597656 38.285156 12.597656 38.566406 C 12.597656 38.847656 12.824219 39.074219 13.105469 39.074219 L 25.777344 39.074219 C 26.058594 39.074219 26.289062 38.847656 26.289062 38.566406 C 26.289062 38.285156 26.058594 38.054688 25.777344 38.054688 Z M 25.777344 38.054688 " fill-opacity="1" fill-rule="nonzero"/><path fill="#ffbf39" d="M 21.308594 41.496094 C 21.308594 41.214844 21.082031 40.988281 20.800781 40.988281 L 11.226562 40.988281 C 10.945312 40.988281 10.71875 41.214844 10.71875 41.496094 C 10.71875 41.777344 10.945312 42.007812 11.226562 42.007812 L 20.800781 42.007812 C 21.082031 42.007812 21.308594 41.777344 21.308594 41.496094 Z M 21.308594 41.496094 " fill-opacity="1" fill-rule="nonzero"/><path fill="#ffbf39" d="M 13.214844 33.433594 L 25.886719 33.433594 C 26.167969 33.433594 26.398438 33.203125 26.398438 32.921875 C 26.398438 32.640625 26.167969 32.410156 25.886719 32.410156 L 13.214844 32.410156 C 12.933594 32.410156 12.707031 32.640625 12.707031 32.921875 C 12.707031 33.203125 12.933594 33.433594 13.214844 33.433594 Z M 13.214844 33.433594 " fill-opacity="1" fill-rule="nonzero"/></svg>