<svg xmlns="http://www.w3.org/2000/svg" xmlns:xlink="http://www.w3.org/1999/xlink" width="100" zoomAndPan="magnify" viewBox="0 0 75 74.999997" height="100" preserveAspectRatio="xMidYMid meet" version="1.0"><defs><clipPath id="8ada5f1897"><path d="M 13 43 L 65.9375 43 L 65.9375 67.152344 L 13 67.152344 Z M 13 43 " clip-rule="nonzero"/></clipPath><clipPath id="1e876b8577"><path d="M 8.9375 42 L 16 42 L 16 66 L 8.9375 66 Z M 8.9375 42 " clip-rule="nonzero"/></clipPath></defs><g clip-path="url(#8ada5f1897)"><path fill="#ffbf39" d="M 37.292969 67.085938 C 35.3125 67.078125 33.390625 66.75 31.523438 66.097656 C 31.492188 66.085938 31.464844 66.078125 31.433594 66.0625 L 24.488281 63.003906 C 23.542969 62.652344 20.960938 61.753906 19.847656 61.59375 C 16.875 61.167969 15.59375 61.425781 15.09375 61.613281 C 14.921875 61.679688 14.738281 61.703125 14.554688 61.679688 C 14.367188 61.65625 14.199219 61.59375 14.046875 61.484375 C 13.890625 61.378906 13.769531 61.242188 13.683594 61.078125 C 13.597656 60.910156 13.554688 60.734375 13.554688 60.546875 L 13.554688 47.820312 C 13.554688 47.671875 13.585938 47.523438 13.640625 47.386719 C 13.699219 47.246094 13.78125 47.125 13.886719 47.015625 C 13.996094 46.910156 14.117188 46.828125 14.257812 46.769531 C 14.394531 46.714844 14.542969 46.683594 14.691406 46.683594 C 14.84375 46.683594 14.988281 46.714844 15.125 46.769531 C 15.265625 46.828125 15.386719 46.910156 15.496094 47.015625 C 15.601562 47.125 15.683594 47.246094 15.742188 47.386719 C 15.800781 47.523438 15.828125 47.671875 15.828125 47.820312 L 15.828125 59.152344 C 16.972656 59.03125 18.425781 59.097656 20.167969 59.34375 C 21.742188 59.566406 24.949219 60.75 25.3125 60.882812 C 25.332031 60.890625 25.351562 60.898438 25.375 60.910156 L 32.308594 63.960938 C 35.3125 64.992188 37.863281 64.898438 39.480469 64.640625 C 40.96875 64.398438 43.167969 63.65625 43.996094 63.378906 L 44.136719 63.332031 C 53.527344 60.183594 62.054688 50.828125 63.476562 49.214844 C 63.605469 48.222656 63.582031 47.03125 62.910156 46.402344 C 62.175781 45.714844 60.804688 45.777344 60.132812 45.886719 L 48.914062 53.976562 C 48.789062 54.066406 48.65625 54.125 48.507812 54.160156 C 48.363281 54.195312 48.214844 54.199219 48.066406 54.175781 C 47.917969 54.152344 47.777344 54.101562 47.648438 54.019531 C 47.523438 53.941406 47.414062 53.839844 47.324219 53.71875 C 47.238281 53.597656 47.175781 53.460938 47.140625 53.316406 C 47.105469 53.167969 47.101562 53.019531 47.125 52.871094 C 47.148438 52.722656 47.203125 52.585938 47.28125 52.457031 C 47.359375 52.328125 47.460938 52.21875 47.582031 52.132812 L 59 43.894531 C 59.121094 43.808594 59.253906 43.746094 59.398438 43.710938 C 59.722656 43.632812 62.59375 43 64.449219 44.730469 C 65.640625 45.835938 66.054688 47.570312 65.671875 49.886719 C 65.636719 50.09375 65.554688 50.273438 65.417969 50.433594 C 65.320312 50.550781 62.972656 53.320312 59.269531 56.566406 C 54.269531 60.949219 49.421875 63.949219 44.855469 65.480469 L 44.71875 65.523438 C 43.84375 65.820312 41.515625 66.605469 39.839844 66.875 C 38.996094 67.011719 38.148438 67.082031 37.292969 67.085938 Z M 37.292969 67.085938 " fill-opacity="1" fill-rule="nonzero"/></g><path fill="#ffbf39" d="M 44.566406 57.925781 L 32.324219 57.925781 C 32.175781 57.925781 32.027344 57.898438 31.890625 57.839844 C 31.75 57.78125 31.628906 57.699219 31.519531 57.59375 C 31.414062 57.488281 31.332031 57.363281 31.273438 57.222656 C 31.21875 57.085938 31.1875 56.941406 31.1875 56.789062 C 31.1875 56.640625 31.21875 56.492188 31.273438 56.355469 C 31.332031 56.214844 31.414062 56.09375 31.519531 55.984375 C 31.628906 55.878906 31.75 55.796875 31.890625 55.738281 C 32.027344 55.683594 32.175781 55.652344 32.324219 55.652344 L 44.566406 55.652344 C 44.871094 55.648438 45.164062 55.585938 45.441406 55.464844 C 45.722656 55.34375 45.96875 55.175781 46.183594 54.960938 C 46.394531 54.742188 46.558594 54.492188 46.675781 54.210938 C 46.789062 53.929688 46.847656 53.636719 46.847656 53.332031 C 46.847656 53.027344 46.789062 52.734375 46.675781 52.453125 C 46.558594 52.171875 46.394531 51.921875 46.183594 51.703125 C 45.96875 51.484375 45.722656 51.316406 45.441406 51.195312 C 45.164062 51.078125 44.871094 51.015625 44.566406 51.007812 L 32.292969 51.007812 C 32.191406 51.007812 29.730469 50.925781 26.660156 49.597656 L 26.472656 49.511719 C 23.628906 48.269531 21.539062 47.628906 20.265625 47.621094 C 18.3125 47.609375 16.621094 47.988281 15.246094 48.75 C 15.113281 48.820312 14.972656 48.867188 14.824219 48.882812 C 14.675781 48.898438 14.527344 48.886719 14.382812 48.847656 C 14.238281 48.804688 14.105469 48.738281 13.988281 48.644531 C 13.871094 48.550781 13.773438 48.4375 13.703125 48.304688 C 13.628906 48.171875 13.585938 48.03125 13.566406 47.882812 C 13.550781 47.730469 13.5625 47.585938 13.605469 47.441406 C 13.644531 47.296875 13.714844 47.164062 13.808594 47.046875 C 13.902344 46.929688 14.015625 46.832031 14.144531 46.761719 C 15.863281 45.808594 17.925781 45.328125 20.28125 45.347656 C 22.421875 45.363281 25.359375 46.542969 27.382812 47.429688 L 27.5625 47.507812 C 30.105469 48.609375 32.171875 48.726562 32.347656 48.734375 L 44.566406 48.734375 C 44.867188 48.738281 45.160156 48.773438 45.453125 48.832031 C 45.746094 48.894531 46.03125 48.984375 46.308594 49.101562 C 46.582031 49.21875 46.84375 49.359375 47.089844 49.53125 C 47.339844 49.699219 47.566406 49.886719 47.777344 50.101562 C 47.988281 50.3125 48.175781 50.546875 48.339844 50.792969 C 48.507812 51.042969 48.644531 51.308594 48.757812 51.585938 C 48.871094 51.863281 48.957031 52.148438 49.015625 52.441406 C 49.074219 52.734375 49.105469 53.03125 49.105469 53.328125 C 49.105469 53.628906 49.074219 53.925781 49.015625 54.21875 C 48.957031 54.511719 48.871094 54.796875 48.757812 55.074219 C 48.644531 55.351562 48.507812 55.613281 48.339844 55.863281 C 48.175781 56.113281 47.988281 56.34375 47.777344 56.558594 C 47.566406 56.769531 47.339844 56.960938 47.089844 57.128906 C 46.84375 57.296875 46.582031 57.441406 46.308594 57.558594 C 46.03125 57.675781 45.746094 57.765625 45.453125 57.828125 C 45.160156 57.886719 44.867188 57.921875 44.566406 57.925781 Z M 44.566406 57.925781 " fill-opacity="1" fill-rule="nonzero"/><g clip-path="url(#1e876b8577)"><path fill="#ffbf39" d="M 14.695312 65.046875 L 10.074219 65.046875 C 9.925781 65.046875 9.78125 65.015625 9.640625 64.960938 C 9.5 64.902344 9.378906 64.820312 9.273438 64.714844 C 9.164062 64.605469 9.082031 64.484375 9.027344 64.34375 C 8.96875 64.207031 8.941406 64.0625 8.941406 63.910156 L 8.941406 43.9375 C 8.941406 43.785156 8.96875 43.640625 9.027344 43.503906 C 9.082031 43.363281 9.164062 43.242188 9.273438 43.132812 C 9.378906 43.027344 9.5 42.945312 9.640625 42.886719 C 9.78125 42.832031 9.925781 42.800781 10.074219 42.800781 L 14.695312 42.800781 C 14.847656 42.800781 14.992188 42.832031 15.128906 42.886719 C 15.269531 42.945312 15.394531 43.027344 15.5 43.132812 C 15.605469 43.242188 15.6875 43.363281 15.746094 43.503906 C 15.804688 43.640625 15.832031 43.785156 15.832031 43.9375 L 15.832031 63.910156 C 15.832031 64.0625 15.804688 64.207031 15.746094 64.34375 C 15.6875 64.484375 15.605469 64.605469 15.5 64.714844 C 15.394531 64.820312 15.269531 64.902344 15.128906 64.960938 C 14.992188 65.015625 14.847656 65.046875 14.695312 65.046875 Z M 11.210938 62.773438 L 13.558594 62.773438 L 13.558594 45.074219 L 11.210938 45.074219 Z M 11.210938 62.773438 " fill-opacity="1" fill-rule="nonzero"/></g><path fill="#ffbf39" d="M 37.375 27.46875 C 37.085938 27.46875 36.832031 27.371094 36.613281 27.175781 C 36.425781 27.003906 31.972656 22.929688 31.972656 17.738281 C 31.972656 12.546875 36.425781 8.472656 36.613281 8.300781 C 36.832031 8.105469 37.085938 8.007812 37.375 8.007812 C 37.667969 8.007812 37.921875 8.105469 38.136719 8.300781 C 38.324219 8.472656 42.777344 12.546875 42.777344 17.738281 C 42.777344 22.929688 38.324219 27.003906 38.136719 27.175781 C 37.921875 27.371094 37.667969 27.46875 37.375 27.46875 Z M 37.375 10.78125 C 36.242188 12.058594 34.242188 14.738281 34.242188 17.738281 C 34.242188 20.757812 36.238281 23.425781 37.371094 24.699219 C 38.503906 23.421875 40.503906 20.742188 40.503906 17.738281 C 40.503906 14.71875 38.511719 12.050781 37.375 10.777344 Z M 37.375 10.78125 " fill-opacity="1" fill-rule="nonzero"/><path fill="#ffbf39" d="M 30.039062 31.183594 C 28.285156 31.183594 23.898438 30.863281 21.0625 27.894531 C 17.546875 24.214844 17.941406 18.054688 17.960938 17.792969 C 17.980469 17.511719 18.089844 17.273438 18.289062 17.074219 C 18.484375 16.875 18.726562 16.765625 19.003906 16.742188 C 19.257812 16.722656 25.199219 16.304688 28.734375 20.007812 C 32.246094 23.6875 31.851562 29.847656 31.835938 30.109375 C 31.8125 30.386719 31.703125 30.628906 31.507812 30.828125 C 31.308594 31.027344 31.070312 31.136719 30.789062 31.160156 C 30.742188 31.164062 30.472656 31.183594 30.039062 31.183594 Z M 30.703125 30.027344 Z M 20.21875 19.003906 C 20.273438 20.722656 20.644531 24.171875 22.707031 26.324219 C 24.722656 28.433594 27.9375 28.839844 29.578125 28.898438 C 29.527344 27.179688 29.152344 23.730469 27.09375 21.578125 C 25.078125 19.46875 21.863281 19.0625 20.21875 19.003906 Z M 20.21875 19.003906 " fill-opacity="1" fill-rule="nonzero"/><path fill="#ffbf39" d="M 37.375 38.144531 C 37.039062 38.144531 36.757812 38.023438 36.53125 37.773438 L 24.078125 24.734375 C 23.96875 24.628906 23.886719 24.503906 23.828125 24.359375 C 23.769531 24.21875 23.742188 24.070312 23.742188 23.917969 C 23.746094 23.765625 23.777344 23.617188 23.835938 23.480469 C 23.898438 23.339844 23.984375 23.214844 24.09375 23.109375 C 24.207031 23.003906 24.332031 22.921875 24.476562 22.871094 C 24.617188 22.816406 24.765625 22.789062 24.917969 22.796875 C 25.070312 22.800781 25.21875 22.835938 25.355469 22.898438 C 25.496094 22.964844 25.617188 23.054688 25.71875 23.167969 L 38.195312 36.226562 C 38.351562 36.390625 38.453125 36.582031 38.492188 36.808594 C 38.535156 37.03125 38.507812 37.246094 38.421875 37.457031 C 38.332031 37.664062 38.191406 37.832031 38 37.957031 C 37.8125 38.082031 37.601562 38.144531 37.375 38.144531 Z M 37.375 38.144531 " fill-opacity="1" fill-rule="nonzero"/><path fill="#ffbf39" d="M 44.710938 31.183594 C 44.28125 31.183594 44.007812 31.164062 43.957031 31.160156 C 43.679688 31.136719 43.4375 31.027344 43.242188 30.828125 C 43.042969 30.628906 42.933594 30.386719 42.914062 30.109375 C 42.894531 29.847656 42.5 23.6875 46.015625 20.007812 C 49.550781 16.304688 55.496094 16.722656 55.746094 16.742188 C 56.027344 16.765625 56.265625 16.875 56.464844 17.074219 C 56.664062 17.273438 56.769531 17.515625 56.792969 17.792969 C 56.808594 18.054688 57.203125 24.214844 53.691406 27.894531 C 50.851562 30.863281 46.464844 31.183594 44.710938 31.183594 Z M 54.53125 19.003906 C 52.886719 19.0625 49.671875 19.46875 47.65625 21.578125 C 45.601562 23.730469 45.226562 27.175781 45.171875 28.898438 C 46.8125 28.839844 50.03125 28.433594 52.046875 26.324219 C 54.101562 24.171875 54.480469 20.722656 54.53125 19.003906 Z M 54.53125 19.003906 " fill-opacity="1" fill-rule="nonzero"/><path fill="#ffbf39" d="M 37.375 38.144531 C 37.226562 38.144531 37.078125 38.117188 36.941406 38.058594 C 36.800781 38.003906 36.679688 37.921875 36.570312 37.8125 C 36.464844 37.707031 36.382812 37.585938 36.324219 37.445312 C 36.269531 37.304688 36.238281 37.160156 36.238281 37.011719 C 36.238281 36.707031 36.34375 36.445312 36.554688 36.226562 L 43.203125 29.265625 C 43.210938 29.257812 43.21875 29.25 43.226562 29.242188 L 49.03125 23.167969 C 49.132812 23.054688 49.253906 22.96875 49.394531 22.90625 C 49.53125 22.84375 49.675781 22.808594 49.828125 22.804688 C 49.980469 22.800781 50.125 22.828125 50.269531 22.882812 C 50.410156 22.933594 50.535156 23.015625 50.644531 23.121094 C 50.753906 23.226562 50.839844 23.347656 50.902344 23.484375 C 50.960938 23.625 50.992188 23.769531 50.996094 23.921875 C 51 24.074219 50.972656 24.21875 50.917969 24.359375 C 50.859375 24.5 50.78125 24.625 50.671875 24.734375 L 44.890625 30.789062 L 44.867188 30.8125 L 38.207031 37.78125 C 37.984375 38.023438 37.707031 38.148438 37.375 38.144531 Z M 37.375 38.144531 " fill-opacity="1" fill-rule="nonzero"/><path fill="#ffbf39" d="M 37.375 46.941406 C 37.226562 46.941406 37.078125 46.914062 36.941406 46.855469 C 36.800781 46.796875 36.679688 46.714844 36.570312 46.609375 C 36.464844 46.503906 36.382812 46.378906 36.324219 46.242188 C 36.269531 46.101562 36.238281 45.957031 36.238281 45.804688 L 36.238281 17.734375 C 36.238281 17.585938 36.269531 17.441406 36.324219 17.300781 C 36.382812 17.164062 36.464844 17.039062 36.570312 16.933594 C 36.679688 16.828125 36.800781 16.746094 36.941406 16.6875 C 37.078125 16.628906 37.226562 16.601562 37.375 16.601562 C 37.527344 16.601562 37.671875 16.628906 37.808594 16.6875 C 37.949219 16.746094 38.070312 16.828125 38.179688 16.933594 C 38.285156 17.039062 38.367188 17.164062 38.425781 17.300781 C 38.484375 17.441406 38.511719 17.585938 38.511719 17.734375 L 38.511719 45.804688 C 38.511719 45.957031 38.484375 46.101562 38.425781 46.242188 C 38.367188 46.378906 38.285156 46.503906 38.179688 46.609375 C 38.070312 46.714844 37.949219 46.796875 37.808594 46.855469 C 37.671875 46.914062 37.527344 46.941406 37.375 46.941406 Z M 37.375 46.941406 " fill-opacity="1" fill-rule="nonzero"/></svg>