<svg xmlns="http://www.w3.org/2000/svg" xmlns:xlink="http://www.w3.org/1999/xlink" width="100" zoomAndPan="magnify" viewBox="0 0 75 74.999997" height="100" preserveAspectRatio="xMidYMid meet" version="1.0"><defs><clipPath id="fe9d60fcbe"><path d="M 7 22 L 69 22 L 69 67.527344 L 7 67.527344 Z M 7 22 " clip-rule="nonzero"/></clipPath><clipPath id="0d2df2ea76"><path d="M 0 8.277344 L 75 8.277344 L 75 31 L 0 31 Z M 0 8.277344 " clip-rule="nonzero"/></clipPath></defs><g clip-path="url(#fe9d60fcbe)"><path fill="#000000" d="M 52.992188 29.148438 L 49.863281 29.148438 L 49.863281 22.527344 L 44.835938 22.527344 L 44.835938 29.148438 L 30.984375 29.148438 L 30.984375 22.527344 L 25.84375 22.527344 L 25.84375 29.148438 L 22.71875 29.148438 C 22.71875 29.148438 14.339844 50.46875 7.078125 53.273438 L 7.078125 67.527344 L 68.519531 67.527344 L 68.519531 53.164062 C 61.480469 50.46875 52.992188 29.148438 52.992188 29.148438 Z M 33.664062 45.980469 L 28.75 45.980469 L 28.75 43.175781 L 33.664062 43.175781 Z M 33.664062 41.828125 L 28.75 41.828125 L 28.75 39.023438 L 33.664062 39.023438 Z M 33.664062 37.675781 L 28.75 37.675781 L 28.75 34.871094 L 33.664062 34.871094 Z M 40.367188 45.980469 L 35.453125 45.980469 L 35.453125 43.175781 L 40.367188 43.175781 Z M 40.367188 41.828125 L 35.453125 41.828125 L 35.453125 39.023438 L 40.367188 39.023438 Z M 40.367188 37.675781 L 35.453125 37.675781 L 35.453125 34.871094 L 40.367188 34.871094 Z M 47.070312 45.980469 L 42.15625 45.980469 L 42.15625 43.175781 L 47.070312 43.175781 Z M 47.070312 41.828125 L 42.15625 41.828125 L 42.15625 39.023438 L 47.070312 39.023438 Z M 47.070312 37.675781 L 42.15625 37.675781 L 42.15625 34.871094 L 47.070312 34.871094 Z M 47.070312 37.675781 " fill-opacity="1" fill-rule="nonzero"/></g><g clip-path="url(#0d2df2ea76)"><path fill="#000000" d="M 55.003906 8.277344 L 20.707031 8.277344 C -1.078125 8.277344 1.046875 27.128906 1.046875 27.128906 C 1.046875 30.832031 6.40625 30.71875 6.40625 30.71875 L 12.105469 30.71875 C 16.015625 30.71875 16.796875 27.914062 16.796875 27.914062 C 16.796875 20.285156 22.492188 18.152344 22.492188 18.152344 L 53.214844 18.152344 C 53.214844 18.152344 58.914062 20.394531 58.914062 27.914062 C 58.914062 27.914062 59.695312 30.71875 63.605469 30.71875 L 69.300781 30.71875 C 69.300781 30.71875 74.664062 30.832031 74.664062 27.128906 C 74.664062 27.242188 76.785156 8.277344 55.003906 8.277344 Z M 55.003906 8.277344 " fill-opacity="1" fill-rule="nonzero"/></g></svg>