<svg xmlns="http://www.w3.org/2000/svg" xmlns:xlink="http://www.w3.org/1999/xlink" width="100" zoomAndPan="magnify" viewBox="0 0 75 74.999997" height="100" preserveAspectRatio="xMidYMid meet" version="1.0"><defs><clipPath id="3c8c9a758e"><path d="M 37.5 9.300781 L 55.925781 9.300781 L 55.925781 27.726562 L 37.5 27.726562 Z M 37.5 9.300781 " clip-rule="nonzero"/></clipPath><clipPath id="251e11c2da"><path d="M 46.710938 9.300781 C 41.625 9.300781 37.5 13.425781 37.5 18.511719 C 37.5 23.601562 41.625 27.726562 46.710938 27.726562 C 51.800781 27.726562 55.925781 23.601562 55.925781 18.511719 C 55.925781 13.425781 51.800781 9.300781 46.710938 9.300781 Z M 46.710938 9.300781 " clip-rule="nonzero"/></clipPath><clipPath id="96994f7aa5"><path d="M 39.175781 10.976562 L 54.175781 10.976562 L 54.175781 25.976562 L 39.175781 25.976562 Z M 39.175781 10.976562 " clip-rule="nonzero"/></clipPath><clipPath id="bee39284aa"><path d="M 49.789062 16.84375 L 52.789062 16.84375 L 52.789062 19.84375 L 49.789062 19.84375 Z M 49.789062 16.84375 " clip-rule="nonzero"/></clipPath></defs><path fill="#000000" d="M 75 37.5 C 75 38.726562 74.941406 39.953125 74.820312 41.175781 C 74.699219 42.398438 74.519531 43.609375 74.28125 44.816406 C 74.039062 46.019531 73.742188 47.210938 73.386719 48.386719 C 73.027344 49.5625 72.617188 50.714844 72.144531 51.851562 C 71.675781 52.984375 71.152344 54.09375 70.570312 55.175781 C 69.992188 56.261719 69.363281 57.3125 68.679688 58.332031 C 67.996094 59.355469 67.265625 60.339844 66.488281 61.289062 C 65.707031 62.238281 64.886719 63.148438 64.015625 64.015625 C 63.148438 64.886719 62.238281 65.707031 61.289062 66.488281 C 60.339844 67.265625 59.355469 67.996094 58.332031 68.679688 C 57.3125 69.363281 56.261719 69.992188 55.175781 70.570312 C 54.09375 71.152344 52.984375 71.675781 51.851562 72.144531 C 50.714844 72.617188 49.5625 73.027344 48.386719 73.386719 C 47.210938 73.742188 46.019531 74.039062 44.816406 74.28125 C 43.609375 74.519531 42.398438 74.699219 41.175781 74.820312 C 39.953125 74.941406 38.726562 75 37.5 75 C 36.273438 75 35.046875 74.941406 33.824219 74.820312 C 32.601562 74.699219 31.390625 74.519531 30.183594 74.28125 C 28.980469 74.039062 27.789062 73.742188 26.613281 73.386719 C 25.4375 73.027344 24.285156 72.617188 23.148438 72.144531 C 22.015625 71.675781 20.90625 71.152344 19.824219 70.570312 C 18.738281 69.992188 17.6875 69.363281 16.667969 68.679688 C 15.644531 67.996094 14.660156 67.265625 13.710938 66.488281 C 12.761719 65.707031 11.851562 64.886719 10.984375 64.015625 C 10.113281 63.148438 9.292969 62.238281 8.511719 61.289062 C 7.734375 60.339844 7.003906 59.355469 6.320312 58.332031 C 5.636719 57.3125 5.007812 56.261719 4.429688 55.175781 C 3.847656 54.09375 3.324219 52.984375 2.855469 51.851562 C 2.382812 50.714844 1.972656 49.5625 1.613281 48.386719 C 1.257812 47.210938 0.960938 46.019531 0.71875 44.816406 C 0.480469 43.609375 0.300781 42.398438 0.179688 41.175781 C 0.0585938 39.953125 0 38.726562 0 37.5 C 0 36.273438 0.0585938 35.046875 0.179688 33.824219 C 0.300781 32.601562 0.480469 31.390625 0.71875 30.183594 C 0.960938 28.980469 1.257812 27.789062 1.613281 26.613281 C 1.972656 25.4375 2.382812 24.285156 2.855469 23.148438 C 3.324219 22.015625 3.847656 20.90625 4.429688 19.824219 C 5.007812 18.738281 5.636719 17.6875 6.320312 16.667969 C 7.003906 15.644531 7.734375 14.660156 8.511719 13.710938 C 9.292969 12.761719 10.113281 11.851562 10.984375 10.984375 C 11.851562 10.113281 12.761719 9.292969 13.710938 8.511719 C 14.660156 7.734375 15.644531 7.003906 16.667969 6.320312 C 17.6875 5.636719 18.738281 5.007812 19.824219 4.429688 C 20.90625 3.847656 22.015625 3.324219 23.148438 2.855469 C 24.285156 2.382812 25.4375 1.972656 26.613281 1.613281 C 27.789062 1.257812 28.980469 0.960938 30.183594 0.71875 C 31.390625 0.480469 32.601562 0.300781 33.824219 0.179688 C 35.046875 0.0585938 36.273438 0 37.5 0 C 38.726562 0 39.953125 0.0585938 41.175781 0.179688 C 42.398438 0.300781 43.609375 0.480469 44.816406 0.71875 C 46.019531 0.960938 47.210938 1.257812 48.386719 1.613281 C 49.5625 1.972656 50.714844 2.382812 51.851562 2.855469 C 52.984375 3.324219 54.09375 3.847656 55.175781 4.429688 C 56.261719 5.007812 57.3125 5.636719 58.332031 6.320312 C 59.355469 7.003906 60.339844 7.734375 61.289062 8.511719 C 62.238281 9.292969 63.148438 10.113281 64.015625 10.984375 C 64.886719 11.851562 65.707031 12.761719 66.488281 13.710938 C 67.265625 14.660156 67.996094 15.644531 68.679688 16.667969 C 69.363281 17.6875 69.992188 18.738281 70.570312 19.824219 C 71.152344 20.90625 71.675781 22.015625 72.144531 23.148438 C 72.617188 24.285156 73.027344 25.4375 73.386719 26.613281 C 73.742188 27.789062 74.039062 28.980469 74.28125 30.183594 C 74.519531 31.390625 74.699219 32.601562 74.820312 33.824219 C 74.941406 35.046875 75 36.273438 75 37.5 Z M 75 37.5 " fill-opacity="1" fill-rule="nonzero"/><path fill="#ffbf39" d="M 61.945312 52.058594 L 58.6875 52.058594 C 57.625 52.058594 56.660156 51.457031 56.171875 50.476562 C 55.539062 49.226562 54.273438 48.433594 52.878906 48.433594 C 51.472656 48.433594 50.207031 49.207031 49.589844 50.476562 C 49.097656 51.441406 48.132812 52.058594 47.074219 52.058594 L 44.699219 52.058594 C 44.257812 52.058594 43.890625 51.691406 43.890625 51.25 L 43.890625 30.476562 C 43.890625 30.03125 44.257812 29.667969 44.699219 29.667969 L 56.707031 29.667969 C 57.023438 29.667969 57.308594 29.859375 57.4375 30.140625 L 62.707031 42.246094 C 62.753906 42.339844 62.769531 42.453125 62.769531 42.5625 L 62.769531 51.265625 C 62.753906 51.691406 62.390625 52.058594 61.945312 52.058594 Z M 52.878906 46.851562 C 54.890625 46.851562 56.707031 47.976562 57.609375 49.761719 C 57.832031 50.191406 58.242188 50.457031 58.703125 50.457031 L 61.15625 50.457031 L 61.15625 42.738281 L 56.15625 31.265625 L 45.476562 31.265625 L 45.476562 50.457031 L 47.058594 50.457031 C 47.515625 50.457031 47.925781 50.191406 48.148438 49.761719 C 49.050781 47.957031 50.855469 46.851562 52.878906 46.851562 Z M 52.878906 46.851562 " fill-opacity="1" fill-rule="nonzero"/><path fill="#ffbf39" d="M 57.578125 41.707031 L 48.273438 41.707031 C 47.832031 41.707031 47.484375 41.34375 47.46875 40.917969 L 47.4375 34.382812 C 47.4375 34.175781 47.515625 33.972656 47.675781 33.8125 C 47.816406 33.65625 48.023438 33.574219 48.242188 33.574219 L 54.730469 33.574219 C 55.046875 33.574219 55.332031 33.765625 55.457031 34.050781 L 58.308594 40.585938 C 58.417969 40.839844 58.386719 41.125 58.242188 41.34375 C 58.101562 41.566406 57.847656 41.707031 57.578125 41.707031 Z M 49.082031 40.109375 L 56.359375 40.109375 L 54.207031 35.175781 L 49.050781 35.175781 Z M 49.082031 40.109375 " fill-opacity="1" fill-rule="nonzero"/><path fill="#ffbf39" d="M 44.667969 52.058594 L 31.3125 52.058594 C 29.96875 52.058594 28.703125 51.359375 28.023438 50.222656 C 27.339844 49.113281 26.171875 48.433594 24.859375 48.433594 C 23.558594 48.433594 22.375 49.097656 21.691406 50.222656 C 21.011719 51.34375 19.746094 52.058594 18.402344 52.058594 L 16.425781 52.058594 C 14.113281 52.058594 12.246094 50.191406 12.246094 47.878906 L 12.246094 43.941406 C 12.246094 43.496094 12.609375 43.132812 13.054688 43.132812 L 44.683594 43.132812 C 45.125 43.132812 45.492188 43.496094 45.492188 43.941406 L 45.492188 51.265625 C 45.476562 51.691406 45.109375 52.058594 44.667969 52.058594 Z M 24.859375 46.851562 C 26.726562 46.851562 28.417969 47.800781 29.382812 49.398438 C 29.777344 50.046875 30.523438 50.457031 31.3125 50.457031 L 43.875 50.457031 L 43.875 44.746094 L 13.84375 44.746094 L 13.84375 47.878906 C 13.84375 49.304688 15 50.457031 16.425781 50.457031 L 18.402344 50.457031 C 19.191406 50.457031 19.9375 50.046875 20.332031 49.398438 C 21.296875 47.800781 22.992188 46.851562 24.859375 46.851562 Z M 24.859375 46.851562 " fill-opacity="1" fill-rule="nonzero"/><path fill="#ffbf39" d="M 24.859375 58.449219 C 22.453125 58.449219 20.492188 56.488281 20.492188 54.082031 C 20.492188 51.675781 22.453125 49.714844 24.859375 49.714844 C 27.261719 49.714844 29.226562 51.675781 29.226562 54.082031 C 29.226562 56.488281 27.261719 58.449219 24.859375 58.449219 Z M 24.859375 51.328125 C 23.339844 51.328125 22.089844 52.5625 22.089844 54.097656 C 22.089844 55.632812 23.324219 56.867188 24.859375 56.867188 C 26.390625 56.867188 27.625 55.632812 27.625 54.097656 C 27.625 52.5625 26.375 51.328125 24.859375 51.328125 Z M 24.859375 51.328125 " fill-opacity="1" fill-rule="nonzero"/><path fill="#ffbf39" d="M 53.023438 58.496094 C 50.617188 58.496094 48.65625 56.535156 48.65625 54.128906 C 48.65625 51.726562 50.617188 49.761719 53.023438 49.761719 C 55.425781 49.761719 57.390625 51.726562 57.390625 54.128906 C 57.390625 56.550781 55.425781 58.496094 53.023438 58.496094 Z M 53.023438 51.375 C 51.503906 51.375 50.253906 52.609375 50.253906 54.144531 C 50.253906 55.664062 51.488281 56.914062 53.023438 56.914062 C 54.558594 56.914062 55.792969 55.679688 55.792969 54.144531 C 55.773438 52.609375 54.542969 51.375 53.023438 51.375 Z M 53.023438 51.375 " fill-opacity="1" fill-rule="nonzero"/><path fill="#ffbf39" d="M 61.945312 48.257812 L 59.746094 48.257812 C 58.417969 48.257812 57.339844 47.183594 57.339844 45.855469 C 57.339844 44.523438 58.417969 43.449219 59.746094 43.449219 L 61.945312 43.449219 C 62.390625 43.449219 62.753906 43.8125 62.753906 44.257812 L 62.753906 47.484375 C 62.753906 47.894531 62.390625 48.257812 61.945312 48.257812 Z M 59.746094 45.03125 C 59.304688 45.03125 58.941406 45.394531 58.941406 45.839844 C 58.941406 46.28125 59.304688 46.644531 59.746094 46.644531 L 61.140625 46.644531 L 61.140625 45.03125 Z M 59.746094 45.03125 " fill-opacity="1" fill-rule="nonzero"/><path fill="#ffbf39" d="M 38.957031 44.761719 L 18.734375 44.761719 C 18.527344 44.761719 18.324219 44.683594 18.164062 44.523438 C 18.023438 44.382812 17.925781 44.175781 17.925781 43.957031 L 17.941406 27.40625 C 17.941406 26.960938 18.308594 26.597656 18.75 26.597656 C 19.191406 26.597656 19.558594 26.960938 19.558594 27.40625 L 19.542969 43.164062 L 38.164062 43.164062 L 38.179688 27.40625 C 38.179688 26.960938 38.542969 26.597656 38.988281 26.597656 C 39.429688 26.597656 39.792969 26.960938 39.792969 27.40625 L 39.777344 43.957031 C 39.761719 44.414062 39.398438 44.761719 38.957031 44.761719 Z M 38.957031 44.761719 " fill-opacity="1" fill-rule="nonzero"/><path fill="#ffbf39" d="M 42.152344 31.390625 C 41.945312 31.390625 41.742188 31.3125 41.582031 31.15625 L 28.875 18.433594 L 16.140625 31.15625 C 15.824219 31.472656 15.316406 31.472656 15.015625 31.15625 C 14.699219 30.839844 14.699219 30.332031 15.015625 30.03125 L 28.324219 16.742188 C 28.640625 16.425781 29.144531 16.425781 29.445312 16.742188 L 42.707031 30.03125 C 43.023438 30.347656 43.023438 30.855469 42.707031 31.15625 C 42.5625 31.3125 42.359375 31.390625 42.152344 31.390625 Z M 42.152344 31.390625 " fill-opacity="1" fill-rule="nonzero"/><path fill="#ffbf39" d="M 28.910156 29.9375 C 26.945312 29.9375 25.363281 28.339844 25.363281 26.390625 C 25.363281 24.429688 26.960938 22.847656 28.910156 22.847656 C 30.871094 22.847656 32.453125 24.445312 32.453125 26.390625 C 32.46875 28.339844 30.871094 29.9375 28.910156 29.9375 Z M 28.910156 24.445312 C 27.832031 24.445312 26.960938 25.316406 26.960938 26.390625 C 26.960938 27.46875 27.832031 28.339844 28.910156 28.339844 C 29.984375 28.339844 30.855469 27.46875 30.855469 26.390625 C 30.871094 25.316406 29.984375 24.445312 28.910156 24.445312 Z M 28.910156 24.445312 " fill-opacity="1" fill-rule="nonzero"/><path fill="#ffbf39" d="M 32.46875 44.761719 C 32.023438 44.761719 31.660156 44.398438 31.660156 43.957031 L 31.660156 37.183594 C 31.660156 35.632812 30.394531 34.367188 28.84375 34.367188 C 27.292969 34.367188 26.027344 35.632812 26.027344 37.183594 L 26.027344 43.972656 C 26.027344 44.414062 25.664062 44.777344 25.222656 44.777344 C 24.777344 44.777344 24.414062 44.414062 24.414062 43.972656 L 24.414062 37.183594 C 24.414062 34.746094 26.390625 32.769531 28.828125 32.769531 C 31.265625 32.769531 33.242188 34.746094 33.242188 37.183594 L 33.242188 43.972656 C 33.257812 44.398438 32.910156 44.761719 32.46875 44.761719 Z M 32.46875 44.761719 " fill-opacity="1" fill-rule="nonzero"/><g clip-path="url(#3c8c9a758e)"><g clip-path="url(#251e11c2da)"><path fill="#ffbf39" d="M 37.5 9.300781 L 55.925781 9.300781 L 55.925781 27.726562 L 37.5 27.726562 Z M 37.5 9.300781 " fill-opacity="1" fill-rule="nonzero"/></g></g><g clip-path="url(#96994f7aa5)"><path fill="#000000" d="M 46.675781 25.976562 C 50.816406 25.976562 54.175781 22.617188 54.175781 18.476562 C 54.175781 14.332031 50.816406 10.976562 46.675781 10.976562 C 42.53125 10.976562 39.175781 14.332031 39.175781 18.476562 C 39.175781 22.617188 42.53125 25.976562 46.675781 25.976562 Z M 43.863281 13.789062 L 49.957031 13.789062 L 49.957031 15.851562 L 46.910156 23.164062 L 44.878906 23.164062 L 48.003906 15.664062 L 45.738281 15.664062 L 45.738281 16.601562 L 43.863281 16.601562 Z M 43.863281 13.789062 " fill-opacity="1" fill-rule="evenodd"/></g><g clip-path="url(#bee39284aa)"><path fill="#ffbf39" d="M 53.117188 18.183594 L 51.777344 18.183594 L 51.777344 16.84375 L 51.128906 16.84375 L 51.128906 18.183594 L 49.789062 18.183594 L 49.789062 18.832031 L 51.128906 18.832031 L 51.128906 20.171875 L 51.777344 20.171875 L 51.777344 18.832031 L 53.117188 18.832031 Z M 53.117188 18.183594 " fill-opacity="1" fill-rule="nonzero"/></g></svg>