<svg xmlns="http://www.w3.org/2000/svg" xmlns:xlink="http://www.w3.org/1999/xlink" width="100" zoomAndPan="magnify" viewBox="0 0 75 74.999997" height="100" preserveAspectRatio="xMidYMid meet" version="1.0"><defs><clipPath id="8ba6deeab5"><path d="M 4.734375 48 L 69.984375 48 L 69.984375 75 L 4.734375 75 Z M 4.734375 48 " clip-rule="nonzero"/></clipPath></defs><path fill="#100f0d" d="M 43.679688 41.304688 L 40.8125 41.304688 C 38.363281 41.304688 36.375 39.304688 36.375 36.847656 C 36.375 34.390625 38.363281 32.394531 40.8125 32.394531 L 43.679688 32.394531 C 44.652344 32.394531 45.574219 32.710938 46.332031 33.28125 C 48.28125 33.003906 50.105469 32.445312 51.578125 31.667969 C 51.574219 31.59375 51.574219 31.515625 51.574219 31.441406 L 51.574219 24.199219 C 51.574219 22.511719 52.277344 20.953125 53.472656 19.855469 C 52.445312 11.789062 45.59375 5.636719 37.363281 5.636719 C 29.136719 5.636719 22.28125 11.789062 21.253906 19.855469 C 22.453125 20.953125 23.152344 22.511719 23.152344 24.199219 L 23.152344 31.441406 C 23.152344 32.53125 22.839844 33.539062 22.324219 34.417969 C 23.714844 38.035156 25.851562 41.527344 28.480469 44.101562 C 30.015625 45.613281 31.71875 46.808594 33.535156 47.535156 C 34.785156 48.027344 36.089844 48.308594 37.433594 48.308594 C 38.769531 48.308594 40.074219 48.03125 41.324219 47.535156 C 43.207031 46.78125 44.96875 45.53125 46.546875 43.945312 C 47.867188 42.621094 49.058594 41.070312 50.09375 39.386719 C 49.027344 39.660156 47.929688 39.890625 46.785156 40.023438 C 45.972656 40.835938 44.863281 41.304688 43.679688 41.304688 " fill-opacity="1" fill-rule="nonzero"/><g clip-path="url(#8ba6deeab5)"><path fill="#100f0d" d="M 69.679688 62.910156 C 68.53125 58.917969 67.082031 56.175781 65.589844 54.242188 C 62.6875 50.480469 59.640625 49.875 58.339844 49.625 C 58.179688 49.59375 58.046875 49.570312 57.941406 49.546875 C 56.492188 49.203125 54.828125 49.105469 53.359375 49.019531 C 52.179688 48.949219 51.050781 48.890625 50.132812 48.703125 C 49.070312 51.539062 43.828125 53.601562 37.371094 53.601562 C 30.910156 53.601562 25.675781 51.539062 24.605469 48.703125 C 23.683594 48.890625 22.558594 48.953125 21.378906 49.023438 C 19.914062 49.105469 18.25 49.203125 16.800781 49.546875 C 16.691406 49.570312 16.554688 49.59375 16.398438 49.625 C 15.171875 49.863281 12.386719 50.402344 9.636719 53.625 C 7.976562 55.566406 6.335938 58.480469 5.054688 62.902344 C 4.734375 64.007812 4.734375 65.167969 4.992188 66.25 C 5.113281 66.742188 5.269531 67.230469 5.503906 67.679688 C 8.339844 73.070312 23.804688 74.992188 37.328125 74.992188 L 37.40625 74.992188 C 50.933594 74.992188 66.390625 73.070312 69.230469 67.679688 C 69.507812 67.160156 69.671875 66.59375 69.789062 66.011719 C 69.984375 65 69.972656 63.933594 69.679688 62.910156 " fill-opacity="1" fill-rule="nonzero"/></g><path fill="#100f0d" d="M 17.089844 35.070312 L 17.273438 35.070312 C 19.261719 35.070312 20.878906 33.445312 20.878906 31.441406 L 20.878906 24.199219 C 20.878906 22.777344 20.0625 21.554688 18.871094 20.960938 C 19.386719 11.164062 27.484375 3.351562 37.363281 3.351562 C 47.242188 3.351562 55.339844 11.164062 55.855469 20.960938 C 54.664062 21.554688 53.847656 22.777344 53.847656 24.199219 L 53.847656 31.441406 C 53.847656 31.921875 53.941406 32.367188 54.105469 32.789062 C 52.003906 34.296875 48.941406 35.375 45.496094 35.671875 C 45.105469 35.078125 44.441406 34.679688 43.679688 34.679688 L 40.8125 34.679688 C 39.613281 34.679688 38.648438 35.652344 38.648438 36.847656 C 38.648438 38.046875 39.613281 39.023438 40.8125 39.023438 L 43.679688 39.023438 C 44.519531 39.023438 45.230469 38.542969 45.589844 37.847656 C 49.589844 37.53125 53.070312 36.304688 55.511719 34.492188 C 56.074219 34.855469 56.738281 35.070312 57.453125 35.070312 L 57.632812 35.070312 C 59.628906 35.070312 61.242188 33.445312 61.242188 31.441406 L 61.242188 24.199219 C 61.242188 22.757812 60.398438 21.511719 59.183594 20.9375 C 58.65625 9.308594 49.070312 0.0078125 37.363281 0.0078125 C 25.65625 0.0078125 16.070312 9.308594 15.542969 20.9375 C 14.328125 21.511719 13.484375 22.757812 13.484375 24.199219 L 13.484375 31.441406 C 13.484375 33.445312 15.101562 35.070312 17.089844 35.070312 " fill-opacity="1" fill-rule="nonzero"/></svg>