<svg xmlns="http://www.w3.org/2000/svg" xmlns:xlink="http://www.w3.org/1999/xlink" width="100" zoomAndPan="magnify" viewBox="0 0 75 74.999997" height="100" preserveAspectRatio="xMidYMid meet" version="1.0"><defs><clipPath id="aa2d799152"><path d="M 0 0 L 73.5 0 L 73.5 75 L 0 75 Z M 0 0 " clip-rule="nonzero"/></clipPath></defs><g clip-path="url(#aa2d799152)"><path fill="#000000" d="M 57.3125 34.117188 L 57.3125 8.949219 C 57.3125 8.515625 57.050781 8.125 56.648438 7.964844 L 37.148438 0.109375 C 36.898438 0.0078125 36.613281 0.0078125 36.363281 0.109375 L 16.863281 7.964844 C 16.460938 8.125 16.199219 8.515625 16.199219 8.949219 L 16.199219 34.117188 C 16.199219 34.550781 16.460938 34.941406 16.863281 35.101562 L 36.363281 42.957031 C 36.488281 43.007812 36.621094 43.035156 36.757812 43.035156 C 36.890625 43.035156 37.023438 43.007812 37.148438 42.957031 L 56.648438 35.101562 C 57.050781 34.941406 57.3125 34.550781 57.3125 34.117188 Z M 47.332031 6.503906 L 43.929688 8.011719 L 31.058594 13.777344 C 30.675781 13.949219 30.429688 14.332031 30.429688 14.75 L 30.429688 19.683594 L 24.644531 17.277344 L 24.644531 12.199219 L 42.171875 4.425781 Z M 33.6875 60.488281 C 33.535156 59.921875 32.953125 59.582031 32.390625 59.734375 L 30.257812 60.308594 C 28.488281 55.117188 25.640625 51.070312 21.785156 48.273438 C 19.089844 44.742188 17.035156 41.320312 15.679688 38.105469 C 15.195312 36.960938 14.175781 36.199219 12.953125 36.0625 C 12.046875 35.960938 11.195312 36.105469 10.425781 36.480469 C 10.203125 33.363281 10.027344 30.9375 9.898438 29.210938 L 9.792969 27.738281 C 9.65625 25.796875 8.925781 24.175781 7.558594 22.78125 C 5.777344 20.964844 4.074219 20.960938 2.957031 21.277344 C 1.867188 21.582031 1.105469 22.554688 1.0625 23.691406 C 0.546875 37.101562 0.285156 43.8125 0.285156 43.816406 C 0.046875 49.214844 1.714844 53.4375 5.246094 56.367188 C 8.308594 59.039062 10.855469 61.9375 12.835938 64.996094 L 10.59375 65.597656 C 10.320312 65.671875 10.089844 65.851562 9.949219 66.09375 C 9.808594 66.339844 9.773438 66.628906 9.84375 66.902344 L 11.800781 74.214844 C 11.925781 74.6875 12.355469 75 12.820312 75 C 12.910156 75 13.003906 74.988281 13.09375 74.964844 L 34.890625 69.105469 C 35.164062 69.03125 35.394531 68.855469 35.535156 68.609375 C 35.675781 68.367188 35.710938 68.078125 35.640625 67.804688 L 33.683594 60.488281 Z M 6.625 54.753906 C 6.617188 54.75 6.609375 54.742188 6.605469 54.738281 C 3.566406 52.21875 2.1875 48.679688 2.398438 43.90625 C 2.398438 43.90625 2.660156 37.195312 3.179688 23.773438 C 3.1875 23.550781 3.320312 23.382812 3.53125 23.320312 C 3.6875 23.277344 3.875 23.238281 4.085938 23.238281 C 4.589844 23.238281 5.246094 23.449219 6.050781 24.269531 C 7.046875 25.289062 7.582031 26.472656 7.683594 27.890625 L 7.789062 29.363281 C 7.9375 31.425781 8.160156 34.472656 8.449219 38.507812 C 7.800781 42.382812 9.914062 46.261719 12.078125 49.550781 C 12.285156 49.863281 12.621094 50.027344 12.964844 50.027344 C 13.164062 50.027344 13.367188 49.972656 13.546875 49.851562 C 14.035156 49.53125 14.167969 48.871094 13.847656 48.382812 C 11.945312 45.488281 10.078125 42.132812 10.507812 39.03125 C 11.144531 38.351562 11.855469 38.078125 12.71875 38.175781 C 13.191406 38.226562 13.542969 38.492188 13.730469 38.933594 C 15.171875 42.355469 17.347656 45.972656 20.203125 49.691406 C 20.265625 49.777344 20.34375 49.847656 20.429688 49.910156 C 23.949219 52.425781 26.5625 56.105469 28.207031 60.859375 L 14.980469 64.417969 C 12.839844 60.972656 10.03125 57.726562 6.625 54.753906 Z M 73.230469 43.824219 C 73.230469 43.824219 72.96875 37.113281 72.449219 23.691406 C 72.40625 22.554688 71.644531 21.585938 70.554688 21.277344 C 69.4375 20.960938 67.730469 20.964844 65.945312 22.78125 C 64.589844 24.175781 63.859375 25.796875 63.714844 27.738281 L 63.503906 30.648438 C 63.390625 32.203125 63.253906 34.148438 63.082031 36.480469 C 62.3125 36.105469 61.464844 35.960938 60.5625 36.0625 C 59.332031 36.199219 58.308594 36.964844 57.828125 38.109375 C 56.476562 41.324219 54.421875 44.742188 51.722656 48.273438 C 47.867188 51.070312 45.019531 55.117188 43.25 60.308594 L 41.117188 59.734375 C 40.847656 59.664062 40.558594 59.699219 40.316406 59.84375 C 40.070312 59.984375 39.894531 60.214844 39.820312 60.488281 L 37.871094 67.804688 C 37.722656 68.371094 38.054688 68.953125 38.621094 69.105469 L 60.417969 74.964844 C 60.507812 74.988281 60.597656 75 60.691406 75 C 60.875 75 61.058594 74.953125 61.21875 74.859375 C 61.464844 74.71875 61.640625 74.484375 61.714844 74.214844 L 63.664062 66.902344 C 63.8125 66.332031 63.480469 65.75 62.914062 65.597656 L 60.675781 64.996094 C 62.660156 61.933594 65.207031 59.035156 68.265625 56.367188 C 71.796875 53.4375 73.464844 49.214844 73.230469 43.824219 Z M 66.90625 54.738281 C 66.902344 54.742188 66.894531 54.75 66.886719 54.753906 C 63.484375 57.71875 60.675781 60.96875 58.53125 64.421875 L 46.078125 61.070312 L 45.300781 60.859375 C 46.945312 56.105469 49.558594 52.421875 53.078125 49.910156 C 53.164062 49.847656 53.242188 49.777344 53.304688 49.691406 C 56.160156 45.976562 58.339844 42.355469 59.78125 38.933594 C 59.964844 38.496094 60.324219 38.226562 60.796875 38.175781 C 61.65625 38.078125 62.363281 38.351562 63 39.03125 C 63.4375 42.132812 61.566406 45.492188 59.660156 48.378906 C 59.339844 48.867188 59.472656 49.527344 59.960938 49.851562 C 60.140625 49.972656 60.34375 50.027344 60.542969 50.027344 C 60.886719 50.027344 61.222656 49.863281 61.425781 49.550781 C 63.59375 46.261719 65.710938 42.386719 65.058594 38.507812 C 65.289062 35.324219 65.472656 32.753906 65.617188 30.800781 L 65.824219 27.890625 C 65.929688 26.472656 66.464844 25.289062 67.457031 24.269531 C 68.601562 23.105469 69.445312 23.167969 69.980469 23.320312 C 70.191406 23.382812 70.324219 23.550781 70.332031 23.773438 C 70.851562 37.195312 71.113281 43.90625 71.113281 43.910156 C 71.324219 48.679688 69.945312 52.21875 66.90625 54.738281 Z M 66.90625 54.738281 " fill-opacity="1" fill-rule="nonzero"/></g></svg>