<svg xmlns="http://www.w3.org/2000/svg" xmlns:xlink="http://www.w3.org/1999/xlink" width="100" zoomAndPan="magnify" viewBox="0 0 75 74.999997" height="100" preserveAspectRatio="xMidYMid meet" version="1.0"><defs><clipPath id="bf69aba5e1"><path d="M 0 38.867188 L 75 38.867188 L 75 74.859375 L 0 74.859375 Z M 0 38.867188 " clip-rule="nonzero"/></clipPath><clipPath id="d40d57980f"><path d="M 27 0 L 64 0 L 64 40.46875 L 27 40.46875 Z M 27 0 " clip-rule="nonzero"/></clipPath></defs><g clip-path="url(#bf69aba5e1)"><path fill="#000000" d="M 46.589844 -10.144531 L 35.632812 -10.144531 L 38.125 -2.523438 L 55.050781 -2.523438 L 57.542969 -10.144531 Z M 55.152344 0.230469 L 38.027344 0.230469 C 37.453125 1.480469 36.621094 3.042969 35.664062 4.84375 C 32.445312 10.882812 27.78125 19.648438 27.976562 25.476562 C 28.007812 26.292969 28.140625 27.089844 28.375 27.871094 C 28.609375 28.652344 28.941406 29.390625 29.363281 30.089844 C 29.789062 30.785156 30.296875 31.417969 30.882812 31.984375 C 31.472656 32.550781 32.121094 33.035156 32.832031 33.4375 C 36.414062 35.695312 41.476562 36.722656 46.589844 36.757812 C 51.695312 36.722656 56.765625 35.695312 60.34375 33.433594 C 61.054688 33.035156 61.707031 32.550781 62.292969 31.984375 C 62.878906 31.414062 63.386719 30.785156 63.8125 30.085938 C 64.238281 29.390625 64.566406 28.652344 64.800781 27.871094 C 65.039062 27.089844 65.171875 26.289062 65.199219 25.476562 C 65.398438 19.648438 60.730469 10.882812 57.515625 4.839844 C 56.554688 3.042969 55.722656 1.476562 55.152344 0.230469 Z M 40.941406 22.75 C 40.933594 22.5625 40.964844 22.382812 41.035156 22.210938 C 41.101562 22.039062 41.199219 21.886719 41.332031 21.75 C 41.460938 21.617188 41.609375 21.515625 41.78125 21.445312 C 41.953125 21.371094 42.132812 21.335938 42.320312 21.335938 C 42.503906 21.335938 42.683594 21.371094 42.855469 21.445312 C 43.027344 21.515625 43.179688 21.617188 43.308594 21.75 C 43.4375 21.886719 43.535156 22.039062 43.605469 22.210938 C 43.671875 22.382812 43.703125 22.5625 43.699219 22.75 C 43.699219 23.132812 43.773438 23.5 43.917969 23.851562 C 44.066406 24.207031 44.273438 24.519531 44.542969 24.789062 C 44.816406 25.058594 45.128906 25.265625 45.480469 25.414062 C 45.835938 25.558594 46.207031 25.632812 46.589844 25.632812 C 46.976562 25.644531 47.355469 25.578125 47.71875 25.4375 C 48.082031 25.292969 48.402344 25.085938 48.679688 24.816406 C 48.960938 24.542969 49.175781 24.230469 49.328125 23.871094 C 49.480469 23.511719 49.554688 23.140625 49.554688 22.75 C 49.554688 22.359375 49.480469 21.988281 49.328125 21.628906 C 49.175781 21.269531 48.960938 20.957031 48.679688 20.683594 C 48.402344 20.414062 48.082031 20.207031 47.71875 20.066406 C 47.355469 19.921875 46.976562 19.855469 46.589844 19.867188 C 45.898438 19.867188 45.230469 19.746094 44.585938 19.503906 C 43.941406 19.261719 43.359375 18.914062 42.839844 18.457031 C 42.324219 18.003906 41.90625 17.472656 41.582031 16.863281 C 41.261719 16.253906 41.058594 15.609375 40.972656 14.925781 C 40.886719 14.242188 40.925781 13.566406 41.089844 12.898438 C 41.253906 12.226562 41.53125 11.609375 41.921875 11.042969 C 42.3125 10.476562 42.789062 9.996094 43.355469 9.601562 C 43.921875 9.210938 44.539062 8.929688 45.210938 8.761719 L 45.210938 6.574219 C 45.214844 6.394531 45.253906 6.222656 45.324219 6.058594 C 45.398438 5.894531 45.496094 5.75 45.625 5.625 C 45.753906 5.5 45.902344 5.402344 46.070312 5.335938 C 46.234375 5.265625 46.410156 5.234375 46.589844 5.234375 C 46.769531 5.234375 46.941406 5.265625 47.109375 5.335938 C 47.273438 5.402344 47.421875 5.5 47.550781 5.625 C 47.679688 5.75 47.78125 5.894531 47.851562 6.058594 C 47.925781 6.222656 47.964844 6.394531 47.96875 6.574219 L 47.96875 8.761719 C 48.578125 8.914062 49.144531 9.164062 49.671875 9.503906 C 50.199219 9.847656 50.65625 10.265625 51.042969 10.761719 C 51.429688 11.257812 51.722656 11.800781 51.929688 12.394531 C 52.132812 12.984375 52.234375 13.597656 52.238281 14.222656 C 52.242188 14.410156 52.210938 14.589844 52.140625 14.761719 C 52.074219 14.933594 51.976562 15.085938 51.847656 15.222656 C 51.714844 15.355469 51.566406 15.457031 51.394531 15.527344 C 51.222656 15.601562 51.042969 15.636719 50.859375 15.636719 C 50.671875 15.636719 50.492188 15.601562 50.320312 15.527344 C 50.148438 15.457031 50 15.355469 49.867188 15.222656 C 49.738281 15.085938 49.640625 14.933594 49.574219 14.761719 C 49.503906 14.589844 49.472656 14.410156 49.476562 14.222656 C 49.476562 13.839844 49.40625 13.472656 49.257812 13.121094 C 49.113281 12.765625 48.902344 12.453125 48.632812 12.183594 C 48.359375 11.914062 48.046875 11.707031 47.695312 11.558594 C 47.339844 11.414062 46.972656 11.339844 46.589844 11.339844 C 46.199219 11.328125 45.820312 11.394531 45.460938 11.535156 C 45.097656 11.679688 44.773438 11.886719 44.496094 12.15625 C 44.214844 12.429688 44 12.742188 43.847656 13.101562 C 43.699219 13.460938 43.621094 13.832031 43.621094 14.222656 C 43.621094 14.613281 43.699219 14.984375 43.847656 15.34375 C 44 15.703125 44.214844 16.015625 44.496094 16.289062 C 44.773438 16.558594 45.097656 16.765625 45.460938 16.90625 C 45.820312 17.050781 46.199219 17.117188 46.589844 17.105469 C 46.933594 17.101562 47.273438 17.132812 47.609375 17.191406 C 47.949219 17.25 48.277344 17.339844 48.601562 17.460938 C 48.921875 17.578125 49.230469 17.726562 49.523438 17.902344 C 49.820312 18.078125 50.097656 18.277344 50.355469 18.503906 C 50.613281 18.730469 50.847656 18.976562 51.0625 19.246094 C 51.273438 19.515625 51.460938 19.800781 51.621094 20.105469 C 51.78125 20.40625 51.914062 20.722656 52.015625 21.046875 C 52.121094 21.375 52.191406 21.710938 52.234375 22.050781 C 52.277344 22.390625 52.289062 22.730469 52.269531 23.070312 C 52.25 23.414062 52.195312 23.75 52.117188 24.085938 C 52.035156 24.417969 51.921875 24.738281 51.78125 25.050781 C 51.640625 25.363281 51.472656 25.660156 51.277344 25.945312 C 51.082031 26.226562 50.863281 26.488281 50.621094 26.730469 C 50.378906 26.972656 50.117188 27.191406 49.832031 27.382812 C 49.550781 27.578125 49.25 27.746094 48.9375 27.886719 C 48.625 28.027344 48.300781 28.136719 47.96875 28.21875 L 47.96875 30.40625 C 47.964844 30.585938 47.925781 30.757812 47.851562 30.921875 C 47.78125 31.085938 47.679688 31.230469 47.550781 31.355469 C 47.421875 31.480469 47.273438 31.578125 47.109375 31.644531 C 46.941406 31.710938 46.769531 31.746094 46.589844 31.746094 C 46.410156 31.746094 46.234375 31.710938 46.070312 31.644531 C 45.902344 31.578125 45.753906 31.480469 45.625 31.355469 C 45.496094 31.230469 45.398438 31.085938 45.324219 30.921875 C 45.253906 30.757812 45.214844 30.585938 45.210938 30.40625 L 45.210938 28.21875 C 44.601562 28.066406 44.03125 27.816406 43.503906 27.476562 C 42.976562 27.132812 42.523438 26.714844 42.136719 26.21875 C 41.75 25.722656 41.453125 25.179688 41.246094 24.585938 C 41.042969 23.992188 40.941406 23.382812 40.941406 22.757812 Z M 11.996094 49.226562 L 22.257812 66.472656 L 23.441406 68.457031 L 12.957031 74.671875 L 0.00390625 52.910156 L 10.492188 46.695312 Z M 25.644531 43.011719 C 29.191406 42.542969 32.632812 43.6875 35.96875 46.453125 C 36.128906 46.585938 36.308594 46.675781 36.511719 46.726562 L 50.792969 50.300781 L 50.847656 50.3125 C 51.683594 50.53125 52.316406 51.015625 52.75 51.761719 C 53.1875 52.503906 53.304688 53.289062 53.109375 54.125 L 53.097656 54.171875 C 52.992188 54.574219 52.816406 54.941406 52.566406 55.269531 C 52.316406 55.601562 52.015625 55.875 51.65625 56.085938 C 51.300781 56.296875 50.917969 56.433594 50.507812 56.492188 C 50.097656 56.550781 49.6875 56.53125 49.285156 56.429688 L 42.703125 54.753906 C 42.527344 54.710938 42.351562 54.707031 42.171875 54.734375 C 41.992188 54.761719 41.824219 54.820312 41.667969 54.914062 C 41.515625 55.007812 41.382812 55.128906 41.273438 55.273438 C 41.164062 55.417969 41.089844 55.578125 41.042969 55.753906 C 41 55.929688 40.992188 56.105469 41.015625 56.285156 C 41.042969 56.464844 41.101562 56.632812 41.191406 56.789062 C 41.285156 56.945312 41.402344 57.078125 41.546875 57.1875 C 41.691406 57.296875 41.851562 57.375 42.027344 57.421875 L 48.609375 59.09375 C 48.984375 59.1875 49.363281 59.246094 49.75 59.265625 C 50.136719 59.285156 50.519531 59.265625 50.902344 59.210938 C 51.285156 59.15625 51.65625 59.0625 52.023438 58.933594 C 52.386719 58.804688 52.734375 58.640625 53.066406 58.445312 C 53.398438 58.246094 53.710938 58.019531 53.996094 57.761719 C 54.285156 57.503906 54.542969 57.222656 54.773438 56.914062 C 55.007812 56.605469 55.207031 56.277344 55.375 55.929688 C 55.542969 55.582031 55.671875 55.21875 55.769531 54.847656 C 55.773438 54.824219 55.78125 54.800781 55.785156 54.777344 C 56.035156 53.742188 56.003906 52.71875 55.695312 51.699219 L 69.539062 41.617188 L 69.617188 41.5625 C 69.644531 41.542969 69.691406 41.511719 69.757812 41.46875 C 70.515625 40.972656 71.339844 40.796875 72.234375 40.9375 C 73.070312 41.058594 73.75 41.449219 74.269531 42.109375 C 74.285156 42.132812 74.300781 42.15625 74.316406 42.175781 C 74.332031 42.199219 74.359375 42.242188 74.398438 42.300781 C 74.925781 43.082031 75.113281 43.9375 74.964844 44.867188 C 74.796875 45.828125 74.335938 46.617188 73.574219 47.234375 L 51.960938 65.179688 L 28.101562 61.769531 C 27.78125 61.722656 27.484375 61.78125 27.207031 61.945312 L 23.921875 63.890625 L 14.929688 48.777344 C 18.667969 45.386719 22.242188 43.46875 25.644531 43.011719 Z M 25.644531 43.011719 " fill-opacity="1" fill-rule="evenodd"/></g><g clip-path="url(#d40d57980f)"><path fill="#211d1d" d="M 61.355469 21.445312 C 58.96875 30.757812 53.699219 36.691406 45.6875 39.089844 C 37.6875 36.695312 32.421875 30.773438 30.03125 21.480469 C 28.53125 15.660156 28.691406 10.25 28.796875 8.492188 C 36.273438 8.253906 42.515625 3.847656 45.691406 1.542969 C 48.84375 3.824219 55.101562 8.253906 62.582031 8.492188 C 62.6875 10.242188 62.847656 15.628906 61.355469 21.445312 Z M 63.875 7.761719 C 63.839844 7.417969 63.550781 7.15625 63.207031 7.15625 C 55.746094 7.15625 49.601562 2.714844 46.300781 0.328125 L 46.082031 0.167969 C 45.847656 -0.00390625 45.527344 0 45.292969 0.167969 L 45.125 0.292969 C 42.054688 2.519531 35.671875 7.15625 28.171875 7.15625 C 27.824219 7.15625 27.535156 7.417969 27.5 7.761719 C 27.472656 8.03125 26.851562 14.488281 28.71875 21.777344 C 31.214844 31.515625 37.015625 37.96875 45.5 40.433594 C 45.5625 40.453125 45.625 40.460938 45.6875 40.460938 C 45.753906 40.460938 45.816406 40.453125 45.875 40.433594 C 54.359375 37.96875 60.164062 31.515625 62.65625 21.777344 C 64.527344 14.488281 63.902344 8.03125 63.875 7.761719 " fill-opacity="1" fill-rule="nonzero"/></g><path fill="#211d1d" d="M 53.144531 14.714844 L 44.648438 25.773438 C 44.425781 26.0625 44.097656 26.25 43.734375 26.289062 C 43.683594 26.296875 43.632812 26.300781 43.582031 26.300781 C 43.273438 26.300781 42.96875 26.191406 42.730469 25.996094 L 38.449219 22.492188 C 37.871094 22.019531 37.789062 21.171875 38.257812 20.597656 C 38.730469 20.023438 39.578125 19.941406 40.152344 20.410156 L 43.359375 23.035156 L 51.011719 13.074219 C 51.464844 12.484375 52.308594 12.375 52.898438 12.828125 C 53.484375 13.28125 53.597656 14.125 53.144531 14.714844 Z M 45.6875 5.457031 C 43.003906 7.390625 38.125 10.6875 32.25 11.046875 C 32.09375 15.167969 32.375 31.132812 45.6875 35.246094 C 59 31.132812 59.28125 15.167969 59.128906 11.046875 C 53.253906 10.6875 48.359375 7.375 45.6875 5.457031 " fill-opacity="1" fill-rule="nonzero"/></svg>